<?xml version="1.0" encoding="UTF-8" standalone="no"?>
<!DOCTYPE svg PUBLIC "-//W3C//DTD SVG 1.1//EN"
 "http://www.w3.org/Graphics/SVG/1.1/DTD/svg11.dtd">
<!-- Generated by graphviz version 2.44.0 (0)
 -->
<!-- Title: process Pages: 1 -->
<svg width="626pt" height="108pt"
 viewBox="0.00 0.00 626.00 108.00" xmlns="http://www.w3.org/2000/svg" xmlns:xlink="http://www.w3.org/1999/xlink">
<g id="graph0" class="graph" transform="scale(1 1) rotate(0) translate(36 72)">
<title>process</title>
<polygon fill="#ffffff" stroke="transparent" points="-36,36 -36,-72 590,-72 590,36 -36,36"/>
<!-- n0 -->
<g id="node1" class="node">
<title>n0</title>
<path fill="#e8f4f8" stroke="black" d="M267,-36C267,-36 124,-36 124,-36 118,-36 112,-30 112,-24 112,-24 112,-12 112,-12 112,-6 118,0 124,0 124,0 267,0 267,0 273,0 279,-6 279,-12 279,-12 279,-24 279,-24 279,-30 273,-36 267,-36"/>
<text text-anchor="middle" x="195.5" y="-15.2" font-family="Helvetica" font-size="11.00">AuthenticateFPin&#45;Persistent2</text>
</g>
<!-- n1 -->
<g id="node2" class="node">
<title>n1</title>
<path fill="#e8f4f8" stroke="black" d="M430,-36C430,-36 349,-36 349,-36 343,-36 337,-30 337,-24 337,-24 337,-12 337,-12 337,-6 343,0 349,0 349,0 430,0 430,0 436,0 442,-6 442,-12 442,-12 442,-24 442,-24 442,-30 436,-36 430,-36"/>
<text text-anchor="middle" x="389.5" y="-15.2" font-family="Helvetica" font-size="11.00">IntrospectToken</text>
</g>
<!-- n0&#45;&gt;n1 -->
<g id="edge1" class="edge">
<title>n0&#45;&gt;n1</title>
<path fill="none" stroke="#555555" d="M279.04,-18C294.98,-18 311.42,-18 326.56,-18"/>
<polygon fill="#555555" stroke="#555555" points="326.82,-21.5 336.82,-18 326.82,-14.5 326.82,-21.5"/>
</g>
<!-- n3 -->
<g id="node4" class="node">
<title>n3</title>
<path fill="#ffccbc" stroke="black" d="M542,-36C542,-36 512,-36 512,-36 506,-36 500,-30 500,-24 500,-24 500,-12 500,-12 500,-6 506,0 512,0 512,0 542,0 542,0 548,0 554,-6 554,-12 554,-12 554,-24 554,-24 554,-30 548,-36 542,-36"/>
<text text-anchor="middle" x="527" y="-15.2" font-family="Helvetica" font-size="11.00">End</text>
</g>
<!-- n1&#45;&gt;n3 -->
<g id="edge3" class="edge">
<title>n1&#45;&gt;n3</title>
<path fill="none" stroke="#555555" d="M442.11,-18C458,-18 475.15,-18 489.77,-18"/>
<polygon fill="#555555" stroke="#555555" points="489.92,-21.5 499.92,-18 489.92,-14.5 489.92,-21.5"/>
</g>
<!-- n2 -->
<g id="node3" class="node">
<title>n2</title>
<path fill="#c8e6c9" stroke="black" d="M42,-36C42,-36 12,-36 12,-36 6,-36 0,-30 0,-24 0,-24 0,-12 0,-12 0,-6 6,0 12,0 12,0 42,0 42,0 48,0 54,-6 54,-12 54,-12 54,-24 54,-24 54,-30 48,-36 42,-36"/>
<text text-anchor="middle" x="27" y="-15.2" font-family="Helvetica" font-size="11.00">Start</text>
</g>
<!-- n2&#45;&gt;n0 -->
<g id="edge2" class="edge">
<title>n2&#45;&gt;n0</title>
<path fill="none" stroke="#555555" d="M54.02,-18C67.17,-18 84.01,-18 101.43,-18"/>
<polygon fill="#555555" stroke="#555555" points="101.74,-21.5 111.74,-18 101.74,-14.5 101.74,-21.5"/>
</g>
</g>
</svg>
