<?xml version="1.0" encoding="UTF-8" standalone="no"?>
<!DOCTYPE svg PUBLIC "-//W3C//DTD SVG 1.1//EN"
 "http://www.w3.org/Graphics/SVG/1.1/DTD/svg11.dtd">
<!-- Generated by graphviz version 2.44.0 (0)
 -->
<!-- Title: process Pages: 1 -->
<svg width="934pt" height="266pt"
 viewBox="0.00 0.00 934.00 266.00" xmlns="http://www.w3.org/2000/svg" xmlns:xlink="http://www.w3.org/1999/xlink">
<g id="graph0" class="graph" transform="scale(1 1) rotate(0) translate(36 230)">
<title>process</title>
<polygon fill="#ffffff" stroke="transparent" points="-36,36 -36,-230 898,-230 898,36 -36,36"/>
<!-- n0 -->
<g id="node1" class="node">
<title>n0</title>
<path fill="#c8e6c9" stroke="black" d="M42,-154C42,-154 12,-154 12,-154 6,-154 0,-148 0,-142 0,-142 0,-130 0,-130 0,-124 6,-118 12,-118 12,-118 42,-118 42,-118 48,-118 54,-124 54,-130 54,-130 54,-142 54,-142 54,-148 48,-154 42,-154"/>
<text text-anchor="middle" x="27" y="-133.2" font-family="Helvetica" font-size="11.00">Start</text>
</g>
<!-- n1 -->
<g id="node2" class="node">
<title>n1</title>
<path fill="#e8f4f8" stroke="black" d="M185,-154C185,-154 124,-154 124,-154 118,-154 112,-148 112,-142 112,-142 112,-130 112,-130 112,-124 118,-118 124,-118 124,-118 185,-118 185,-118 191,-118 197,-124 197,-130 197,-130 197,-142 197,-142 197,-148 191,-154 185,-154"/>
<text text-anchor="middle" x="154.5" y="-133.2" font-family="Helvetica" font-size="11.00">GetVariable</text>
</g>
<!-- n0&#45;&gt;n1 -->
<g id="edge1" class="edge">
<title>n0&#45;&gt;n1</title>
<path fill="none" stroke="#555555" d="M54,-136C67.8,-136 85.25,-136 101.67,-136"/>
<polygon fill="#555555" stroke="#555555" points="101.72,-139.5 111.72,-136 101.72,-132.5 101.72,-139.5"/>
</g>
<!-- n2 -->
<g id="node4" class="node">
<title>n2</title>
<path fill="#ffcdd2" stroke="black" d="M354,-194C354,-194 267,-194 267,-194 261,-194 255,-188 255,-182 255,-182 255,-170 255,-170 255,-164 261,-158 267,-158 267,-158 354,-158 354,-158 360,-158 366,-164 366,-170 366,-170 366,-182 366,-182 366,-188 360,-194 354,-194"/>
<text text-anchor="middle" x="310.5" y="-173.2" font-family="Helvetica" font-size="11.00">Generate&#45;Error&#45;1</text>
</g>
<!-- n1&#45;&gt;n2 -->
<g id="edge2" class="edge">
<title>n1&#45;&gt;n2</title>
<path fill="none" stroke="#555555" d="M197.17,-146.82C211.85,-150.64 228.72,-155.02 244.85,-159.21"/>
<polygon fill="#555555" stroke="#555555" points="244.21,-162.66 254.76,-161.78 245.97,-155.88 244.21,-162.66"/>
</g>
<!-- n3 -->
<g id="node5" class="node">
<title>n3</title>
<path fill="#e8f4f8" stroke="black" d="M344,-115C344,-115 277,-115 277,-115 271,-115 265,-109 265,-103 265,-103 265,-91 265,-91 265,-85 271,-79 277,-79 277,-79 344,-79 344,-79 350,-79 356,-85 356,-91 356,-91 356,-103 356,-103 356,-109 350,-115 344,-115"/>
<text text-anchor="middle" x="310.5" y="-94.2" font-family="Helvetica" font-size="11.00">CSAuditStart</text>
</g>
<!-- n1&#45;&gt;n3 -->
<g id="edge3" class="edge">
<title>n1&#45;&gt;n3</title>
<path fill="none" stroke="#555555" d="M197.17,-125.45C215,-120.93 236.05,-115.6 255.08,-110.78"/>
<polygon fill="#555555" stroke="#555555" points="255.99,-114.16 264.82,-108.31 254.27,-107.38 255.99,-114.16"/>
</g>
<!-- n10 -->
<g id="node3" class="node">
<title>n10</title>
<path fill="#ffcdd2" stroke="black" d="M850,-36C850,-36 763,-36 763,-36 757,-36 751,-30 751,-24 751,-24 751,-12 751,-12 751,-6 757,0 763,0 763,0 850,0 850,0 856,0 862,-6 862,-12 862,-12 862,-24 862,-24 862,-30 856,-36 850,-36"/>
<text text-anchor="middle" x="806.5" y="-15.2" font-family="Helvetica" font-size="11.00">Generate&#45;Error&#45;2</text>
</g>
<!-- n4 -->
<g id="node6" class="node">
<title>n4</title>
<path fill="#e8f4f8" stroke="black" d="M492,-115C492,-115 436,-115 436,-115 430,-115 424,-109 424,-103 424,-103 424,-91 424,-91 424,-85 430,-79 436,-79 436,-79 492,-79 492,-79 498,-79 504,-85 504,-91 504,-91 504,-103 504,-103 504,-109 498,-115 492,-115"/>
<text text-anchor="middle" x="464" y="-94.2" font-family="Helvetica" font-size="11.00">Java Code</text>
</g>
<!-- n3&#45;&gt;n4 -->
<g id="edge4" class="edge">
<title>n3&#45;&gt;n4</title>
<path fill="none" stroke="#555555" d="M356.14,-97C374.25,-97 395.24,-97 413.8,-97"/>
<polygon fill="#555555" stroke="#555555" points="413.82,-100.5 423.82,-97 413.82,-93.5 413.82,-100.5"/>
</g>
<!-- n5 -->
<g id="node7" class="node">
<title>n5</title>
<path fill="#e8f4f8" stroke="black" d="M659,-194C659,-194 596,-194 596,-194 590,-194 584,-188 584,-182 584,-182 584,-170 584,-170 584,-164 590,-158 596,-158 596,-158 659,-158 659,-158 665,-158 671,-164 671,-170 671,-170 671,-182 671,-182 671,-188 665,-194 659,-194"/>
<text text-anchor="middle" x="627.5" y="-173.2" font-family="Helvetica" font-size="11.00">CSAuditEnd</text>
</g>
<!-- n4&#45;&gt;n5 -->
<g id="edge10" class="edge">
<title>n4&#45;&gt;n5</title>
<path fill="none" stroke="#555555" d="M502.05,-115.12C525.34,-126.52 555.56,-141.3 580.39,-153.45"/>
<polygon fill="#555555" stroke="#555555" points="579.1,-156.71 589.62,-157.96 582.18,-150.42 579.1,-156.71"/>
</g>
<!-- n7 -->
<g id="node9" class="node">
<title>n7</title>
<path fill="#e8f4f8" stroke="black" d="M676.5,-115C676.5,-115 578.5,-115 578.5,-115 572.5,-115 566.5,-109 566.5,-103 566.5,-103 566.5,-91 566.5,-91 566.5,-85 572.5,-79 578.5,-79 578.5,-79 676.5,-79 676.5,-79 682.5,-79 688.5,-85 688.5,-91 688.5,-91 688.5,-103 688.5,-103 688.5,-109 682.5,-115 676.5,-115"/>
<text text-anchor="middle" x="627.5" y="-94.2" font-family="Helvetica" font-size="11.00">MapOAMException</text>
</g>
<!-- n4&#45;&gt;n7 -->
<g id="edge6" class="edge">
<title>n4&#45;&gt;n7</title>
<path fill="none" stroke="#555555" d="M504.09,-97C519.7,-97 538.17,-97 555.96,-97"/>
<polygon fill="#555555" stroke="#555555" points="556.33,-100.5 566.33,-97 556.33,-93.5 556.33,-100.5"/>
</g>
<!-- n9 -->
<g id="node11" class="node">
<title>n9</title>
<path fill="#e8f4f8" stroke="black" d="M681,-36C681,-36 574,-36 574,-36 568,-36 562,-30 562,-24 562,-24 562,-12 562,-12 562,-6 568,0 574,0 574,0 681,0 681,0 687,0 693,-6 693,-12 693,-12 693,-24 693,-24 693,-30 687,-36 681,-36"/>
<text text-anchor="middle" x="627.5" y="-15.2" font-family="Helvetica" font-size="11.00">MapOAMException&#45;1</text>
</g>
<!-- n4&#45;&gt;n9 -->
<g id="edge8" class="edge">
<title>n4&#45;&gt;n9</title>
<path fill="none" stroke="#555555" d="M502.05,-78.88C525.34,-67.48 555.56,-52.7 580.39,-40.55"/>
<polygon fill="#555555" stroke="#555555" points="582.18,-43.58 589.62,-36.04 579.1,-37.29 582.18,-43.58"/>
</g>
<!-- n6 -->
<g id="node8" class="node">
<title>n6</title>
<path fill="#ffccbc" stroke="black" d="M821.5,-194C821.5,-194 791.5,-194 791.5,-194 785.5,-194 779.5,-188 779.5,-182 779.5,-182 779.5,-170 779.5,-170 779.5,-164 785.5,-158 791.5,-158 791.5,-158 821.5,-158 821.5,-158 827.5,-158 833.5,-164 833.5,-170 833.5,-170 833.5,-182 833.5,-182 833.5,-188 827.5,-194 821.5,-194"/>
<text text-anchor="middle" x="806.5" y="-173.2" font-family="Helvetica" font-size="11.00">End</text>
</g>
<!-- n5&#45;&gt;n6 -->
<g id="edge5" class="edge">
<title>n5&#45;&gt;n6</title>
<path fill="none" stroke="#555555" d="M671.35,-176C701.28,-176 740.82,-176 769.21,-176"/>
<polygon fill="#555555" stroke="#555555" points="769.5,-179.5 779.5,-176 769.5,-172.5 769.5,-179.5"/>
</g>
<!-- n8 -->
<g id="node10" class="node">
<title>n8</title>
<path fill="#ffcdd2" stroke="black" d="M845,-115C845,-115 768,-115 768,-115 762,-115 756,-109 756,-103 756,-103 756,-91 756,-91 756,-85 762,-79 768,-79 768,-79 845,-79 845,-79 851,-79 857,-85 857,-91 857,-91 857,-103 857,-103 857,-109 851,-115 845,-115"/>
<text text-anchor="middle" x="806.5" y="-94.2" font-family="Helvetica" font-size="11.00">Generate Error</text>
</g>
<!-- n7&#45;&gt;n8 -->
<g id="edge7" class="edge">
<title>n7&#45;&gt;n8</title>
<path fill="none" stroke="#555555" d="M688.92,-97C707.25,-97 727.38,-97 745.68,-97"/>
<polygon fill="#555555" stroke="#555555" points="745.92,-100.5 755.92,-97 745.92,-93.5 745.92,-100.5"/>
</g>
<!-- n9&#45;&gt;n10 -->
<g id="edge9" class="edge">
<title>n9&#45;&gt;n10</title>
<path fill="none" stroke="#555555" d="M693.15,-18C708.71,-18 725.32,-18 740.87,-18"/>
<polygon fill="#555555" stroke="#555555" points="740.92,-21.5 750.92,-18 740.92,-14.5 740.92,-21.5"/>
</g>
</g>
</svg>
