<?xml version="1.0" encoding="UTF-8" standalone="no"?>
<!DOCTYPE svg PUBLIC "-//W3C//DTD SVG 1.1//EN"
 "http://www.w3.org/Graphics/SVG/1.1/DTD/svg11.dtd">
<!-- Generated by graphviz version 2.44.0 (0)
 -->
<!-- Title: process Pages: 1 -->
<svg width="575pt" height="150pt"
 viewBox="0.00 0.00 575.00 150.00" xmlns="http://www.w3.org/2000/svg" xmlns:xlink="http://www.w3.org/1999/xlink">
<g id="graph0" class="graph" transform="scale(1 1) rotate(0) translate(36 114)">
<title>process</title>
<polygon fill="#ffffff" stroke="transparent" points="-36,36 -36,-114 539,-114 539,36 -36,36"/>
<!-- n0 -->
<g id="node1" class="node">
<title>n0</title>
<path fill="#e8f4f8" stroke="black" d="M379,-78C379,-78 322,-78 322,-78 316,-78 310,-72 310,-66 310,-66 310,-54 310,-54 310,-48 316,-42 322,-42 322,-42 379,-42 379,-42 385,-42 391,-48 391,-54 391,-54 391,-66 391,-66 391,-72 385,-78 379,-78"/>
<text text-anchor="middle" x="350.5" y="-57.2" font-family="Helvetica" font-size="11.00">FilterCVV2</text>
</g>
<!-- n1 -->
<g id="node2" class="node">
<title>n1</title>
<path fill="#ffccbc" stroke="black" d="M491,-36C491,-36 461,-36 461,-36 455,-36 449,-30 449,-24 449,-24 449,-12 449,-12 449,-6 455,0 461,0 461,0 491,0 491,0 497,0 503,-6 503,-12 503,-12 503,-24 503,-24 503,-30 497,-36 491,-36"/>
<text text-anchor="middle" x="476" y="-15.2" font-family="Helvetica" font-size="11.00">End</text>
</g>
<!-- n0&#45;&gt;n1 -->
<g id="edge1" class="edge">
<title>n0&#45;&gt;n1</title>
<path fill="none" stroke="#555555" d="M391.26,-46.48C406.76,-41.21 424.39,-35.21 439.46,-30.09"/>
<polygon fill="#555555" stroke="#555555" points="440.61,-33.39 448.95,-26.86 438.35,-26.77 440.61,-33.39"/>
</g>
<!-- n2 -->
<g id="node3" class="node">
<title>n2</title>
<path fill="#c8e6c9" stroke="black" d="M42,-36C42,-36 12,-36 12,-36 6,-36 0,-30 0,-24 0,-24 0,-12 0,-12 0,-6 6,0 12,0 12,0 42,0 42,0 48,0 54,-6 54,-12 54,-12 54,-24 54,-24 54,-30 48,-36 42,-36"/>
<text text-anchor="middle" x="27" y="-15.2" font-family="Helvetica" font-size="11.00">Start</text>
</g>
<!-- n3 -->
<g id="node4" class="node">
<title>n3</title>
<path fill="#e8f4f8" stroke="black" d="M240,-36C240,-36 124,-36 124,-36 118,-36 112,-30 112,-24 112,-24 112,-12 112,-12 112,-6 118,0 124,0 124,0 240,0 240,0 246,0 252,-6 252,-12 252,-12 252,-24 252,-24 252,-30 246,-36 240,-36"/>
<text text-anchor="middle" x="182" y="-15.2" font-family="Helvetica" font-size="11.00">CVV2Filter&#45;SecurityLIB</text>
</g>
<!-- n2&#45;&gt;n3 -->
<g id="edge2" class="edge">
<title>n2&#45;&gt;n3</title>
<path fill="none" stroke="#555555" d="M54.3,-18C67.66,-18 84.67,-18 101.86,-18"/>
<polygon fill="#555555" stroke="#555555" points="101.97,-21.5 111.97,-18 101.97,-14.5 101.97,-21.5"/>
</g>
<!-- n3&#45;&gt;n0 -->
<g id="edge4" class="edge">
<title>n3&#45;&gt;n0</title>
<path fill="none" stroke="#555555" d="M252.16,-35.45C268.14,-39.48 284.82,-43.68 299.77,-47.46"/>
<polygon fill="#555555" stroke="#555555" points="299.26,-50.94 309.81,-49.99 300.97,-44.15 299.26,-50.94"/>
</g>
<!-- n3&#45;&gt;n1 -->
<g id="edge3" class="edge">
<title>n3&#45;&gt;n1</title>
<path fill="none" stroke="#555555" d="M252.2,-18C310.72,-18 392.24,-18 438.72,-18"/>
<polygon fill="#555555" stroke="#555555" points="438.91,-21.5 448.91,-18 438.91,-14.5 438.91,-21.5"/>
</g>
</g>
</svg>
