<?xml version="1.0" encoding="UTF-8" standalone="no"?>
<!DOCTYPE svg PUBLIC "-//W3C//DTD SVG 1.1//EN"
 "http://www.w3.org/Graphics/SVG/1.1/DTD/svg11.dtd">
<!-- Generated by graphviz version 2.44.0 (0)
 -->
<!-- Title: process Pages: 1 -->
<svg width="574pt" height="189pt"
 viewBox="0.00 0.00 574.00 189.00" xmlns="http://www.w3.org/2000/svg" xmlns:xlink="http://www.w3.org/1999/xlink">
<g id="graph0" class="graph" transform="scale(1 1) rotate(0) translate(36 153)">
<title>process</title>
<polygon fill="#ffffff" stroke="transparent" points="-36,36 -36,-153 538,-153 538,36 -36,36"/>
<!-- n0 -->
<g id="node1" class="node">
<title>n0</title>
<path fill="#e8f4f8" stroke="black" d="M331,-36C331,-36 275,-36 275,-36 269,-36 263,-30 263,-24 263,-24 263,-12 263,-12 263,-6 269,0 275,0 275,0 331,0 331,0 337,0 343,-6 343,-12 343,-12 343,-24 343,-24 343,-30 337,-36 331,-36"/>
<text text-anchor="middle" x="303" y="-15.2" font-family="Helvetica" font-size="11.00">Encryption</text>
</g>
<!-- n1 -->
<g id="node2" class="node">
<title>n1</title>
<path fill="#ffccbc" stroke="black" d="M466.5,-117C466.5,-117 436.5,-117 436.5,-117 430.5,-117 424.5,-111 424.5,-105 424.5,-105 424.5,-93 424.5,-93 424.5,-87 430.5,-81 436.5,-81 436.5,-81 466.5,-81 466.5,-81 472.5,-81 478.5,-87 478.5,-93 478.5,-93 478.5,-105 478.5,-105 478.5,-111 472.5,-117 466.5,-117"/>
<text text-anchor="middle" x="451.5" y="-96.2" font-family="Helvetica" font-size="11.00">End</text>
</g>
<!-- n0&#45;&gt;n1 -->
<g id="edge1" class="edge">
<title>n0&#45;&gt;n1</title>
<path fill="none" stroke="#555555" d="M336.88,-36.18C360.11,-49.03 391.23,-66.23 415.03,-79.39"/>
<polygon fill="#555555" stroke="#555555" points="413.64,-82.62 424.08,-84.39 417.02,-76.49 413.64,-82.62"/>
</g>
<!-- n2 -->
<g id="node3" class="node">
<title>n2</title>
<path fill="#ffcdd2" stroke="black" d="M490,-36C490,-36 413,-36 413,-36 407,-36 401,-30 401,-24 401,-24 401,-12 401,-12 401,-6 407,0 413,0 413,0 490,0 490,0 496,0 502,-6 502,-12 502,-12 502,-24 502,-24 502,-30 496,-36 490,-36"/>
<text text-anchor="middle" x="451.5" y="-15.2" font-family="Helvetica" font-size="11.00">Generate Error</text>
</g>
<!-- n0&#45;&gt;n2 -->
<g id="edge2" class="edge">
<title>n0&#45;&gt;n2</title>
<path fill="none" stroke="#555555" d="M343.26,-18C357.79,-18 374.61,-18 390.57,-18"/>
<polygon fill="#555555" stroke="#555555" points="390.89,-21.5 400.89,-18 390.89,-14.5 390.89,-21.5"/>
</g>
<!-- n3 -->
<g id="node4" class="node">
<title>n3</title>
<path fill="#c8e6c9" stroke="black" d="M42,-77C42,-77 12,-77 12,-77 6,-77 0,-71 0,-65 0,-65 0,-53 0,-53 0,-47 6,-41 12,-41 12,-41 42,-41 42,-41 48,-41 54,-47 54,-53 54,-53 54,-65 54,-65 54,-71 48,-77 42,-77"/>
<text text-anchor="middle" x="27" y="-56.2" font-family="Helvetica" font-size="11.00">Start</text>
</g>
<!-- n4 -->
<g id="node5" class="node">
<title>n4</title>
<path fill="#e8f4f8" stroke="black" d="M193,-77C193,-77 124,-77 124,-77 118,-77 112,-71 112,-65 112,-65 112,-53 112,-53 112,-47 118,-41 124,-41 124,-41 193,-41 193,-41 199,-41 205,-47 205,-53 205,-53 205,-65 205,-65 205,-71 199,-77 193,-77"/>
<text text-anchor="middle" x="158.5" y="-56.2" font-family="Helvetica" font-size="11.00">Prepare Data</text>
</g>
<!-- n3&#45;&gt;n4 -->
<g id="edge3" class="edge">
<title>n3&#45;&gt;n4</title>
<path fill="none" stroke="#555555" d="M54.21,-59C67.92,-59 85.25,-59 101.78,-59"/>
<polygon fill="#555555" stroke="#555555" points="101.93,-62.5 111.93,-59 101.93,-55.5 101.93,-62.5"/>
</g>
<!-- n4&#45;&gt;n0 -->
<g id="edge4" class="edge">
<title>n4&#45;&gt;n0</title>
<path fill="none" stroke="#555555" d="M205.37,-45.8C220.59,-41.42 237.58,-36.53 253.02,-32.09"/>
<polygon fill="#555555" stroke="#555555" points="254.27,-35.37 262.91,-29.25 252.34,-28.65 254.27,-35.37"/>
</g>
<!-- n4&#45;&gt;n1 -->
<g id="edge5" class="edge">
<title>n4&#45;&gt;n1</title>
<path fill="none" stroke="#555555" d="M205.29,-65.29C263.21,-73.26 361.75,-86.8 414.56,-94.06"/>
<polygon fill="#555555" stroke="#555555" points="414.1,-97.53 424.48,-95.42 415.05,-90.59 414.1,-97.53"/>
</g>
</g>
</svg>
