<?xml version="1.0" encoding="UTF-8" standalone="no"?>
<!DOCTYPE svg PUBLIC "-//W3C//DTD SVG 1.1//EN"
 "http://www.w3.org/Graphics/SVG/1.1/DTD/svg11.dtd">
<!-- Generated by graphviz version 2.44.0 (0)
 -->
<!-- Title: process Pages: 1 -->
<svg width="865pt" height="108pt"
 viewBox="0.00 0.00 865.00 108.00" xmlns="http://www.w3.org/2000/svg" xmlns:xlink="http://www.w3.org/1999/xlink">
<g id="graph0" class="graph" transform="scale(1 1) rotate(0) translate(36 72)">
<title>process</title>
<polygon fill="#ffffff" stroke="transparent" points="-36,36 -36,-72 829,-72 829,36 -36,36"/>
<!-- n0 -->
<g id="node1" class="node">
<title>n0</title>
<path fill="#c8e6c9" stroke="black" d="M42,-36C42,-36 12,-36 12,-36 6,-36 0,-30 0,-24 0,-24 0,-12 0,-12 0,-6 6,0 12,0 12,0 42,0 42,0 48,0 54,-6 54,-12 54,-12 54,-24 54,-24 54,-30 48,-36 42,-36"/>
<text text-anchor="middle" x="27" y="-15.2" font-family="Helvetica" font-size="11.00">Start</text>
</g>
<!-- n1 -->
<g id="node2" class="node">
<title>n1</title>
<path fill="#e8f4f8" stroke="black" d="M288,-36C288,-36 124,-36 124,-36 118,-36 112,-30 112,-24 112,-24 112,-12 112,-12 112,-6 118,0 124,0 124,0 288,0 288,0 294,0 300,-6 300,-12 300,-12 300,-24 300,-24 300,-30 294,-36 288,-36"/>
<text text-anchor="middle" x="206" y="-15.2" font-family="Helvetica" font-size="11.00">Extract SecurityTokenReferences</text>
</g>
<!-- n0&#45;&gt;n1 -->
<g id="edge1" class="edge">
<title>n0&#45;&gt;n1</title>
<path fill="none" stroke="#555555" d="M54.12,-18C67.14,-18 83.83,-18 101.33,-18"/>
<polygon fill="#555555" stroke="#555555" points="101.71,-21.5 111.71,-18 101.71,-14.5 101.71,-21.5"/>
</g>
<!-- n4 -->
<g id="node5" class="node">
<title>n4</title>
<path fill="#e8f4f8" stroke="black" d="M501,-36C501,-36 370,-36 370,-36 364,-36 358,-30 358,-24 358,-24 358,-12 358,-12 358,-6 364,0 370,0 370,0 501,0 501,0 507,0 513,-6 513,-12 513,-12 513,-24 513,-24 513,-30 507,-36 501,-36"/>
<text text-anchor="middle" x="435.5" y="-15.2" font-family="Helvetica" font-size="11.00">Extract Embedded Tokens</text>
</g>
<!-- n1&#45;&gt;n4 -->
<g id="edge3" class="edge">
<title>n1&#45;&gt;n4</title>
<path fill="none" stroke="#555555" d="M300.19,-18C315.89,-18 332.14,-18 347.67,-18"/>
<polygon fill="#555555" stroke="#555555" points="347.76,-21.5 357.76,-18 347.76,-14.5 347.76,-21.5"/>
</g>
<!-- n2 -->
<g id="node3" class="node">
<title>n2</title>
<path fill="#e8f4f8" stroke="black" d="M669,-36C669,-36 583,-36 583,-36 577,-36 571,-30 571,-24 571,-24 571,-12 571,-12 571,-6 577,0 583,0 583,0 669,0 669,0 675,0 681,-6 681,-12 681,-12 681,-24 681,-24 681,-30 675,-36 669,-36"/>
<text text-anchor="middle" x="626" y="-15.2" font-family="Helvetica" font-size="11.00">Extract Assertion</text>
</g>
<!-- n3 -->
<g id="node4" class="node">
<title>n3</title>
<path fill="#ffccbc" stroke="black" d="M781,-36C781,-36 751,-36 751,-36 745,-36 739,-30 739,-24 739,-24 739,-12 739,-12 739,-6 745,0 751,0 751,0 781,0 781,0 787,0 793,-6 793,-12 793,-12 793,-24 793,-24 793,-30 787,-36 781,-36"/>
<text text-anchor="middle" x="766" y="-15.2" font-family="Helvetica" font-size="11.00">End</text>
</g>
<!-- n2&#45;&gt;n3 -->
<g id="edge2" class="edge">
<title>n2&#45;&gt;n3</title>
<path fill="none" stroke="#555555" d="M681.15,-18C697.06,-18 714.09,-18 728.62,-18"/>
<polygon fill="#555555" stroke="#555555" points="728.7,-21.5 738.7,-18 728.7,-14.5 728.7,-21.5"/>
</g>
<!-- n4&#45;&gt;n2 -->
<g id="edge4" class="edge">
<title>n4&#45;&gt;n2</title>
<path fill="none" stroke="#555555" d="M513.17,-18C528.91,-18 545.32,-18 560.57,-18"/>
<polygon fill="#555555" stroke="#555555" points="560.92,-21.5 570.92,-18 560.92,-14.5 560.92,-21.5"/>
</g>
</g>
</svg>
