<?xml version="1.0" encoding="UTF-8" standalone="no"?>
<!DOCTYPE svg PUBLIC "-//W3C//DTD SVG 1.1//EN"
 "http://www.w3.org/Graphics/SVG/1.1/DTD/svg11.dtd">
<!-- Generated by graphviz version 2.44.0 (0)
 -->
<!-- Title: process Pages: 1 -->
<svg width="379pt" height="150pt"
 viewBox="0.00 0.00 379.00 150.00" xmlns="http://www.w3.org/2000/svg" xmlns:xlink="http://www.w3.org/1999/xlink">
<g id="graph0" class="graph" transform="scale(1 1) rotate(0) translate(36 114)">
<title>process</title>
<polygon fill="#ffffff" stroke="transparent" points="-36,36 -36,-114 343,-114 343,36 -36,36"/>
<!-- n0 -->
<g id="node1" class="node">
<title>n0</title>
<path fill="#c8e6c9" stroke="black" d="M42,-36C42,-36 12,-36 12,-36 6,-36 0,-30 0,-24 0,-24 0,-12 0,-12 0,-6 6,0 12,0 12,0 42,0 42,0 48,0 54,-6 54,-12 54,-12 54,-24 54,-24 54,-30 48,-36 42,-36"/>
<text text-anchor="middle" x="27" y="-15.2" font-family="Helvetica" font-size="11.00">Start</text>
</g>
<!-- n1 -->
<g id="node2" class="node">
<title>n1</title>
<path fill="#e8f4f8" stroke="black" d="M183,-78C183,-78 124,-78 124,-78 118,-78 112,-72 112,-66 112,-66 112,-54 112,-54 112,-48 118,-42 124,-42 124,-42 183,-42 183,-42 189,-42 195,-48 195,-54 195,-54 195,-66 195,-66 195,-72 189,-78 183,-78"/>
<text text-anchor="middle" x="153.5" y="-57.2" font-family="Helvetica" font-size="11.00">GetContext</text>
</g>
<!-- n0&#45;&gt;n1 -->
<g id="edge1" class="edge">
<title>n0&#45;&gt;n1</title>
<path fill="none" stroke="#555555" d="M54.1,-26.8C68.05,-31.51 85.7,-37.47 102.19,-43.03"/>
<polygon fill="#555555" stroke="#555555" points="101.14,-46.37 111.73,-46.25 103.37,-39.73 101.14,-46.37"/>
</g>
<!-- n2 -->
<g id="node3" class="node">
<title>n2</title>
<path fill="#ffccbc" stroke="black" d="M295,-36C295,-36 265,-36 265,-36 259,-36 253,-30 253,-24 253,-24 253,-12 253,-12 253,-6 259,0 265,0 265,0 295,0 295,0 301,0 307,-6 307,-12 307,-12 307,-24 307,-24 307,-30 301,-36 295,-36"/>
<text text-anchor="middle" x="280" y="-15.2" font-family="Helvetica" font-size="11.00">End</text>
</g>
<!-- n0&#45;&gt;n2 -->
<g id="edge3" class="edge">
<title>n0&#45;&gt;n2</title>
<path fill="none" stroke="#555555" d="M54.39,-18C99.51,-18 191.56,-18 242.71,-18"/>
<polygon fill="#555555" stroke="#555555" points="242.97,-21.5 252.97,-18 242.97,-14.5 242.97,-21.5"/>
</g>
<!-- n1&#45;&gt;n2 -->
<g id="edge2" class="edge">
<title>n1&#45;&gt;n2</title>
<path fill="none" stroke="#555555" d="M195.27,-46.25C210.59,-41.08 227.9,-35.24 242.79,-30.22"/>
<polygon fill="#555555" stroke="#555555" points="244.29,-33.4 252.65,-26.89 242.05,-26.77 244.29,-33.4"/>
</g>
</g>
</svg>
