<?xml version="1.0" encoding="UTF-8" standalone="no"?>
<!DOCTYPE svg PUBLIC "-//W3C//DTD SVG 1.1//EN"
 "http://www.w3.org/Graphics/SVG/1.1/DTD/svg11.dtd">
<!-- Generated by graphviz version 2.44.0 (0)
 -->
<!-- Title: process Pages: 1 -->
<svg width="1204pt" height="276pt"
 viewBox="0.00 0.00 1204.00 276.00" xmlns="http://www.w3.org/2000/svg" xmlns:xlink="http://www.w3.org/1999/xlink">
<g id="graph0" class="graph" transform="scale(1 1) rotate(0) translate(36 240)">
<title>process</title>
<polygon fill="#ffffff" stroke="transparent" points="-36,36 -36,-240 1168,-240 1168,36 -36,36"/>
<!-- n0 -->
<g id="node1" class="node">
<title>n0</title>
<path fill="#c8e6c9" stroke="black" d="M42,-77C42,-77 12,-77 12,-77 6,-77 0,-71 0,-65 0,-65 0,-53 0,-53 0,-47 6,-41 12,-41 12,-41 42,-41 42,-41 48,-41 54,-47 54,-53 54,-53 54,-65 54,-65 54,-71 48,-77 42,-77"/>
<text text-anchor="middle" x="27" y="-56.2" font-family="Helvetica" font-size="11.00">Start</text>
</g>
<!-- n1 -->
<g id="node2" class="node">
<title>n1</title>
<path fill="#e8f4f8" stroke="black" d="M216,-77C216,-77 124,-77 124,-77 118,-77 112,-71 112,-65 112,-65 112,-53 112,-53 112,-47 118,-41 124,-41 124,-41 216,-41 216,-41 222,-41 228,-47 228,-53 228,-53 228,-65 228,-65 228,-71 222,-77 216,-77"/>
<text text-anchor="middle" x="170" y="-56.2" font-family="Helvetica" font-size="11.00">Get File DateTime</text>
</g>
<!-- n0&#45;&gt;n1 -->
<g id="edge1" class="edge">
<title>n0&#45;&gt;n1</title>
<path fill="none" stroke="#555555" d="M54.19,-59C67.64,-59 84.72,-59 101.56,-59"/>
<polygon fill="#555555" stroke="#555555" points="101.98,-62.5 111.98,-59 101.98,-55.5 101.98,-62.5"/>
</g>
<!-- n2 -->
<g id="node3" class="node">
<title>n2</title>
<path fill="#e8f4f8" stroke="black" d="M534,-77C534,-77 413,-77 413,-77 407,-77 401,-71 401,-65 401,-65 401,-53 401,-53 401,-47 407,-41 413,-41 413,-41 534,-41 534,-41 540,-41 546,-47 546,-53 546,-53 546,-65 546,-65 546,-71 540,-77 534,-77"/>
<text text-anchor="middle" x="473.5" y="-56.2" font-family="Helvetica" font-size="11.00">GetSpecialExceptionList</text>
</g>
<!-- n1&#45;&gt;n2 -->
<g id="edge7" class="edge">
<title>n1&#45;&gt;n2</title>
<path fill="none" stroke="#555555" d="M228.06,-59C274,-59 339.16,-59 390.65,-59"/>
<polygon fill="#555555" stroke="#555555" points="390.76,-62.5 400.76,-59 390.76,-55.5 390.76,-62.5"/>
</g>
<!-- n8 -->
<g id="node9" class="node">
<title>n8</title>
<path fill="#e8f4f8" stroke="black" d="M331,-36C331,-36 298,-36 298,-36 292,-36 286,-30 286,-24 286,-24 286,-12 286,-12 286,-6 292,0 298,0 298,0 331,0 331,0 337,0 343,-6 343,-12 343,-12 343,-24 343,-24 343,-30 337,-36 331,-36"/>
<text text-anchor="middle" x="314.5" y="-15.2" font-family="Helvetica" font-size="11.00">Null&#45;1</text>
</g>
<!-- n1&#45;&gt;n8 -->
<g id="edge11" class="edge">
<title>n1&#45;&gt;n8</title>
<path fill="none" stroke="#555555" d="M228.14,-42.56C244.24,-37.93 261.35,-33 275.99,-28.79"/>
<polygon fill="#555555" stroke="#555555" points="277.04,-32.13 285.69,-26 275.11,-25.4 277.04,-32.13"/>
</g>
<!-- n3 -->
<g id="node4" class="node">
<title>n3</title>
<path fill="#e8f4f8" stroke="black" d="M666,-121C666,-121 616,-121 616,-121 610,-121 604,-115 604,-109 604,-109 604,-97 604,-97 604,-91 610,-85 616,-85 616,-85 666,-85 666,-85 672,-85 678,-91 678,-97 678,-97 678,-109 678,-109 678,-115 672,-121 666,-121"/>
<text text-anchor="middle" x="641" y="-100.2" font-family="Helvetica" font-size="11.00">Read File</text>
</g>
<!-- n2&#45;&gt;n3 -->
<g id="edge2" class="edge">
<title>n2&#45;&gt;n3</title>
<path fill="none" stroke="#555555" d="M542.29,-77.02C559.57,-81.62 577.76,-86.45 593.69,-90.69"/>
<polygon fill="#555555" stroke="#555555" points="593.24,-94.19 603.8,-93.38 595.03,-87.42 593.24,-94.19"/>
</g>
<!-- n6 -->
<g id="node7" class="node">
<title>n6</title>
<path fill="#ffccbc" stroke="black" d="M1120,-123C1120,-123 1090,-123 1090,-123 1084,-123 1078,-117 1078,-111 1078,-111 1078,-99 1078,-99 1078,-93 1084,-87 1090,-87 1090,-87 1120,-87 1120,-87 1126,-87 1132,-93 1132,-99 1132,-99 1132,-111 1132,-111 1132,-117 1126,-123 1120,-123"/>
<text text-anchor="middle" x="1105" y="-102.2" font-family="Helvetica" font-size="11.00">End</text>
</g>
<!-- n2&#45;&gt;n6 -->
<g id="edge6" class="edge">
<title>n2&#45;&gt;n6</title>
<path fill="none" stroke="#555555" d="M546.23,-50.48C651.61,-40.08 853.77,-28.17 1020,-66 1036.72,-69.8 1054.08,-77.21 1068.66,-84.55"/>
<polygon fill="#555555" stroke="#555555" points="1067.31,-87.8 1077.8,-89.33 1070.56,-81.59 1067.31,-87.8"/>
</g>
<!-- n4 -->
<g id="node5" class="node">
<title>n4</title>
<path fill="#e8f4f8" stroke="black" d="M806,-204C806,-204 748,-204 748,-204 742,-204 736,-198 736,-192 736,-192 736,-180 736,-180 736,-174 742,-168 748,-168 748,-168 806,-168 806,-168 812,-168 818,-174 818,-180 818,-180 818,-192 818,-192 818,-198 812,-204 806,-204"/>
<text text-anchor="middle" x="777" y="-183.2" font-family="Helvetica" font-size="11.00">Parse XML</text>
</g>
<!-- n3&#45;&gt;n4 -->
<g id="edge3" class="edge">
<title>n3&#45;&gt;n4</title>
<path fill="none" stroke="#555555" d="M671.08,-121.01C690.61,-133.11 716.55,-149.18 737.75,-162.31"/>
<polygon fill="#555555" stroke="#555555" points="736.17,-165.45 746.52,-167.74 739.86,-159.5 736.17,-165.45"/>
</g>
<!-- n7 -->
<g id="node8" class="node">
<title>n7</title>
<path fill="#e8f4f8" stroke="black" d="M963,-123C963,-123 933,-123 933,-123 927,-123 921,-117 921,-111 921,-111 921,-99 921,-99 921,-93 927,-87 933,-87 933,-87 963,-87 963,-87 969,-87 975,-93 975,-99 975,-99 975,-111 975,-111 975,-117 969,-123 963,-123"/>
<text text-anchor="middle" x="948" y="-102.2" font-family="Helvetica" font-size="11.00">Null</text>
</g>
<!-- n3&#45;&gt;n7 -->
<g id="edge8" class="edge">
<title>n3&#45;&gt;n7</title>
<path fill="none" stroke="#555555" d="M678.19,-103.24C736.71,-103.62 851.52,-104.37 910.35,-104.76"/>
<polygon fill="#555555" stroke="#555555" points="910.63,-108.26 920.65,-104.83 910.68,-101.26 910.63,-108.26"/>
</g>
<!-- n5 -->
<g id="node6" class="node">
<title>n5</title>
<path fill="#e8f4f8" stroke="black" d="M1008,-203C1008,-203 888,-203 888,-203 882,-203 876,-197 876,-191 876,-191 876,-179 876,-179 876,-173 882,-167 888,-167 888,-167 1008,-167 1008,-167 1014,-167 1020,-173 1020,-179 1020,-179 1020,-191 1020,-191 1020,-197 1014,-203 1008,-203"/>
<text text-anchor="middle" x="948" y="-182.2" font-family="Helvetica" font-size="11.00">SetSpecialExceptionList</text>
</g>
<!-- n4&#45;&gt;n5 -->
<g id="edge4" class="edge">
<title>n4&#45;&gt;n5</title>
<path fill="none" stroke="#555555" d="M818.05,-185.76C832.36,-185.68 849.04,-185.58 865.57,-185.48"/>
<polygon fill="#555555" stroke="#555555" points="865.84,-188.98 875.82,-185.42 865.8,-181.98 865.84,-188.98"/>
</g>
<!-- n4&#45;&gt;n7 -->
<g id="edge9" class="edge">
<title>n4&#45;&gt;n7</title>
<path fill="none" stroke="#555555" d="M815.93,-167.82C844.61,-154.08 883.69,-135.34 911.71,-121.92"/>
<polygon fill="#555555" stroke="#555555" points="913.25,-125.06 920.75,-117.58 910.22,-118.75 913.25,-125.06"/>
</g>
<!-- n5&#45;&gt;n6 -->
<g id="edge5" class="edge">
<title>n5&#45;&gt;n6</title>
<path fill="none" stroke="#555555" d="M984.17,-166.85C1009.47,-153.79 1043.45,-136.25 1068.76,-123.19"/>
<polygon fill="#555555" stroke="#555555" points="1070.38,-126.29 1077.66,-118.59 1067.17,-120.07 1070.38,-126.29"/>
</g>
<!-- n7&#45;&gt;n6 -->
<g id="edge10" class="edge">
<title>n7&#45;&gt;n6</title>
<path fill="none" stroke="#555555" d="M975.29,-105C1000.64,-105 1039.23,-105 1067.54,-105"/>
<polygon fill="#555555" stroke="#555555" points="1067.84,-108.5 1077.84,-105 1067.84,-101.5 1067.84,-108.5"/>
</g>
<!-- n8&#45;&gt;n2 -->
<g id="edge12" class="edge">
<title>n8&#45;&gt;n2</title>
<path fill="none" stroke="#555555" d="M343.21,-25.24C357.38,-28.94 375.44,-33.65 393.52,-38.38"/>
<polygon fill="#555555" stroke="#555555" points="392.69,-41.78 403.25,-40.92 394.46,-35 392.69,-41.78"/>
</g>
</g>
</svg>
