<?xml version="1.0" encoding="UTF-8" standalone="no"?>
<!DOCTYPE svg PUBLIC "-//W3C//DTD SVG 1.1//EN"
 "http://www.w3.org/Graphics/SVG/1.1/DTD/svg11.dtd">
<!-- Generated by graphviz version 2.44.0 (0)
 -->
<!-- Title: process Pages: 1 -->
<svg width="957pt" height="187pt"
 viewBox="0.00 0.00 957.00 187.00" xmlns="http://www.w3.org/2000/svg" xmlns:xlink="http://www.w3.org/1999/xlink">
<g id="graph0" class="graph" transform="scale(1 1) rotate(0) translate(36 151)">
<title>process</title>
<polygon fill="#ffffff" stroke="transparent" points="-36,36 -36,-151 921,-151 921,36 -36,36"/>
<!-- n0 -->
<g id="node1" class="node">
<title>n0</title>
<path fill="#ffcdd2" stroke="black" d="M714,-36C714,-36 635,-36 635,-36 629,-36 623,-30 623,-24 623,-24 623,-12 623,-12 623,-6 629,0 635,0 635,0 714,0 714,0 720,0 726,-6 726,-12 726,-12 726,-24 726,-24 726,-30 720,-36 714,-36"/>
<text text-anchor="middle" x="674.5" y="-15.2" font-family="Helvetica" font-size="11.00">Map Error Data</text>
</g>
<!-- n1 -->
<g id="node2" class="node">
<title>n1</title>
<path fill="#ffcdd2" stroke="black" d="M873,-36C873,-36 796,-36 796,-36 790,-36 784,-30 784,-24 784,-24 784,-12 784,-12 784,-6 790,0 796,0 796,0 873,0 873,0 879,0 885,-6 885,-12 885,-12 885,-24 885,-24 885,-30 879,-36 873,-36"/>
<text text-anchor="middle" x="834.5" y="-15.2" font-family="Helvetica" font-size="11.00">Generate Error</text>
</g>
<!-- n0&#45;&gt;n1 -->
<g id="edge1" class="edge">
<title>n0&#45;&gt;n1</title>
<path fill="none" stroke="#555555" d="M726.36,-18C741.46,-18 758.13,-18 773.74,-18"/>
<polygon fill="#555555" stroke="#555555" points="773.81,-21.5 783.81,-18 773.81,-14.5 773.81,-21.5"/>
</g>
<!-- n2 -->
<g id="node3" class="node">
<title>n2</title>
<path fill="#e8f4f8" stroke="black" d="M379,-75C379,-75 272,-75 272,-75 266,-75 260,-69 260,-63 260,-63 260,-51 260,-51 260,-45 266,-39 272,-39 272,-39 379,-39 379,-39 385,-39 391,-45 391,-51 391,-51 391,-63 391,-63 391,-69 385,-75 379,-75"/>
<text text-anchor="middle" x="325.5" y="-54.2" font-family="Helvetica" font-size="11.00">JMS Topic Requestor</text>
</g>
<!-- n3 -->
<g id="node4" class="node">
<title>n3</title>
<path fill="#ffccbc" stroke="black" d="M522,-115C522,-115 492,-115 492,-115 486,-115 480,-109 480,-103 480,-103 480,-91 480,-91 480,-85 486,-79 492,-79 492,-79 522,-79 522,-79 528,-79 534,-85 534,-91 534,-91 534,-103 534,-103 534,-109 528,-115 522,-115"/>
<text text-anchor="middle" x="507" y="-94.2" font-family="Helvetica" font-size="11.00">End</text>
</g>
<!-- n2&#45;&gt;n3 -->
<g id="edge2" class="edge">
<title>n2&#45;&gt;n3</title>
<path fill="none" stroke="#555555" d="M391.05,-71.38C417.55,-77.29 447.23,-83.9 469.8,-88.93"/>
<polygon fill="#555555" stroke="#555555" points="469.11,-92.36 479.63,-91.12 470.63,-85.53 469.11,-92.36"/>
</g>
<!-- n4 -->
<g id="node5" class="node">
<title>n4</title>
<path fill="#e8f4f8" stroke="black" d="M553,-36C553,-36 461,-36 461,-36 455,-36 449,-30 449,-24 449,-24 449,-12 449,-12 449,-6 455,0 461,0 461,0 553,0 553,0 559,0 565,-6 565,-12 565,-12 565,-24 565,-24 565,-30 559,-36 553,-36"/>
<text text-anchor="middle" x="507" y="-15.2" font-family="Helvetica" font-size="11.00">MapAnyException</text>
</g>
<!-- n2&#45;&gt;n4 -->
<g id="edge3" class="edge">
<title>n2&#45;&gt;n4</title>
<path fill="none" stroke="#555555" d="M391.05,-42.98C406.55,-39.61 423.14,-36 438.76,-32.61"/>
<polygon fill="#555555" stroke="#555555" points="439.84,-35.96 448.86,-30.41 438.35,-29.12 439.84,-35.96"/>
</g>
<!-- n4&#45;&gt;n0 -->
<g id="edge6" class="edge">
<title>n4&#45;&gt;n0</title>
<path fill="none" stroke="#555555" d="M565.42,-18C580.59,-18 597.02,-18 612.38,-18"/>
<polygon fill="#555555" stroke="#555555" points="612.81,-21.5 622.81,-18 612.81,-14.5 612.81,-21.5"/>
</g>
<!-- n5 -->
<g id="node6" class="node">
<title>n5</title>
<path fill="#c8e6c9" stroke="black" d="M42,-75C42,-75 12,-75 12,-75 6,-75 0,-69 0,-63 0,-63 0,-51 0,-51 0,-45 6,-39 12,-39 12,-39 42,-39 42,-39 48,-39 54,-45 54,-51 54,-51 54,-63 54,-63 54,-69 48,-75 42,-75"/>
<text text-anchor="middle" x="27" y="-54.2" font-family="Helvetica" font-size="11.00">Start</text>
</g>
<!-- n6 -->
<g id="node7" class="node">
<title>n6</title>
<path fill="#e8f4f8" stroke="black" d="M190,-75C190,-75 124,-75 124,-75 118,-75 112,-69 112,-63 112,-63 112,-51 112,-51 112,-45 118,-39 124,-39 124,-39 190,-39 190,-39 196,-39 202,-45 202,-51 202,-51 202,-63 202,-63 202,-69 196,-75 190,-75"/>
<text text-anchor="middle" x="157" y="-54.2" font-family="Helvetica" font-size="11.00">PrepareData</text>
</g>
<!-- n5&#45;&gt;n6 -->
<g id="edge4" class="edge">
<title>n5&#45;&gt;n6</title>
<path fill="none" stroke="#555555" d="M54.21,-57C67.96,-57 85.34,-57 101.82,-57"/>
<polygon fill="#555555" stroke="#555555" points="101.93,-60.5 111.93,-57 101.93,-53.5 101.93,-60.5"/>
</g>
<!-- n6&#45;&gt;n2 -->
<g id="edge5" class="edge">
<title>n6&#45;&gt;n2</title>
<path fill="none" stroke="#555555" d="M202.18,-57C216.78,-57 233.46,-57 249.7,-57"/>
<polygon fill="#555555" stroke="#555555" points="249.73,-60.5 259.73,-57 249.73,-53.5 249.73,-60.5"/>
</g>
</g>
</svg>
