<?xml version="1.0" encoding="UTF-8" standalone="no"?>
<!DOCTYPE svg PUBLIC "-//W3C//DTD SVG 1.1//EN"
 "http://www.w3.org/Graphics/SVG/1.1/DTD/svg11.dtd">
<!-- Generated by graphviz version 2.44.0 (0)
 -->
<!-- Title: process Pages: 1 -->
<svg width="1423pt" height="503pt"
 viewBox="0.00 0.00 1423.00 503.00" xmlns="http://www.w3.org/2000/svg" xmlns:xlink="http://www.w3.org/1999/xlink">
<g id="graph0" class="graph" transform="scale(1 1) rotate(0) translate(36 467)">
<title>process</title>
<polygon fill="#ffffff" stroke="transparent" points="-36,36 -36,-467 1387,-467 1387,36 -36,36"/>
<!-- n0 -->
<g id="node1" class="node">
<title>n0</title>
<path fill="#c8e6c9" stroke="black" d="M42,-155C42,-155 12,-155 12,-155 6,-155 0,-149 0,-143 0,-143 0,-131 0,-131 0,-125 6,-119 12,-119 12,-119 42,-119 42,-119 48,-119 54,-125 54,-131 54,-131 54,-143 54,-143 54,-149 48,-155 42,-155"/>
<text text-anchor="middle" x="27" y="-134.2" font-family="Helvetica" font-size="11.00">start</text>
</g>
<!-- n1 -->
<g id="node2" class="node">
<title>n1</title>
<path fill="#e8f4f8" stroke="black" d="M225,-155C225,-155 124,-155 124,-155 118,-155 112,-149 112,-143 112,-143 112,-131 112,-131 112,-125 118,-119 124,-119 124,-119 225,-119 225,-119 231,-119 237,-125 237,-131 237,-131 237,-143 237,-143 237,-149 231,-155 225,-155"/>
<text text-anchor="middle" x="174.5" y="-134.2" font-family="Helvetica" font-size="11.00">SOAPRequestReply</text>
</g>
<!-- n0&#45;&gt;n1 -->
<g id="edge1" class="edge">
<title>n0&#45;&gt;n1</title>
<path fill="none" stroke="#555555" d="M54.01,-137C67.47,-137 84.64,-137 101.73,-137"/>
<polygon fill="#555555" stroke="#555555" points="101.75,-140.5 111.75,-137 101.75,-133.5 101.75,-140.5"/>
</g>
<!-- n13 -->
<g id="node6" class="node">
<title>n13</title>
<path fill="#e8f4f8" stroke="black" d="M417,-194C417,-194 307,-194 307,-194 301,-194 295,-188 295,-182 295,-182 295,-170 295,-170 295,-164 301,-158 307,-158 307,-158 417,-158 417,-158 423,-158 429,-164 429,-170 429,-170 429,-182 429,-182 429,-188 423,-194 417,-194"/>
<text text-anchor="middle" x="362" y="-173.2" font-family="Helvetica" font-size="11.00">ParseSOAPResponse</text>
</g>
<!-- n1&#45;&gt;n13 -->
<g id="edge11" class="edge">
<title>n1&#45;&gt;n13</title>
<path fill="none" stroke="#555555" d="M237.01,-149.93C252.38,-153.16 269.05,-156.67 285.03,-160.03"/>
<polygon fill="#555555" stroke="#555555" points="284.37,-163.46 294.87,-162.1 285.81,-156.61 284.37,-163.46"/>
</g>
<!-- n4 -->
<g id="node19" class="node">
<title>n4</title>
<path fill="#e8f4f8" stroke="black" d="M377,-115C377,-115 347,-115 347,-115 341,-115 335,-109 335,-103 335,-103 335,-91 335,-91 335,-85 341,-79 347,-79 347,-79 377,-79 377,-79 383,-79 389,-85 389,-91 389,-91 389,-103 389,-103 389,-109 383,-115 377,-115"/>
<text text-anchor="middle" x="362" y="-94.2" font-family="Helvetica" font-size="11.00">Null</text>
</g>
<!-- n1&#45;&gt;n4 -->
<g id="edge3" class="edge">
<title>n1&#45;&gt;n4</title>
<path fill="none" stroke="#555555" d="M237.01,-123.74C265.99,-117.49 299.57,-110.25 324.47,-104.88"/>
<polygon fill="#555555" stroke="#555555" points="325.53,-108.23 334.57,-102.7 324.06,-101.39 325.53,-108.23"/>
</g>
<!-- n10 -->
<g id="node3" class="node">
<title>n10</title>
<path fill="#e8f4f8" stroke="black" d="M976,-36C976,-36 880,-36 880,-36 874,-36 868,-30 868,-24 868,-24 868,-12 868,-12 868,-6 874,0 880,0 880,0 976,0 976,0 982,0 988,-6 988,-12 988,-12 988,-24 988,-24 988,-30 982,-36 976,-36"/>
<text text-anchor="middle" x="928" y="-15.2" font-family="Helvetica" font-size="11.00">MapResultStatus&#45;1</text>
</g>
<!-- n11 -->
<g id="node4" class="node">
<title>n11</title>
<path fill="#ffccbc" stroke="black" d="M1173,-36C1173,-36 1072,-36 1072,-36 1066,-36 1060,-30 1060,-24 1060,-24 1060,-12 1060,-12 1060,-6 1066,0 1072,0 1072,0 1173,0 1173,0 1179,0 1185,-6 1185,-12 1185,-12 1185,-24 1185,-24 1185,-30 1179,-36 1173,-36"/>
<text text-anchor="middle" x="1122.5" y="-15.2" font-family="Helvetica" font-size="11.00">Return ResultStatus</text>
</g>
<!-- n10&#45;&gt;n11 -->
<g id="edge8" class="edge">
<title>n10&#45;&gt;n11</title>
<path fill="none" stroke="#555555" d="M988.06,-18C1007.54,-18 1029.42,-18 1049.74,-18"/>
<polygon fill="#555555" stroke="#555555" points="1049.88,-21.5 1059.88,-18 1049.88,-14.5 1049.88,-21.5"/>
</g>
<!-- n12 -->
<g id="node5" class="node">
<title>n12</title>
<path fill="#e8f4f8" stroke="black" d="M791,-36C791,-36 686,-36 686,-36 680,-36 674,-30 674,-24 674,-24 674,-12 674,-12 674,-6 680,0 686,0 686,0 791,0 791,0 797,0 803,-6 803,-12 803,-12 803,-24 803,-24 803,-30 797,-36 791,-36"/>
<text text-anchor="middle" x="738.5" y="-15.2" font-family="Helvetica" font-size="11.00">WriteToLog&#45;Failure&#45;2</text>
</g>
<!-- n12&#45;&gt;n10 -->
<g id="edge10" class="edge">
<title>n12&#45;&gt;n10</title>
<path fill="none" stroke="#555555" d="M803.24,-18C820.72,-18 839.76,-18 857.55,-18"/>
<polygon fill="#555555" stroke="#555555" points="857.86,-21.5 867.86,-18 857.86,-14.5 857.86,-21.5"/>
</g>
<!-- n14 -->
<g id="node7" class="node">
<title>n14</title>
<path fill="#e8f4f8" stroke="black" d="M604,-273C604,-273 499,-273 499,-273 493,-273 487,-267 487,-261 487,-261 487,-249 487,-249 487,-243 493,-237 499,-237 499,-237 604,-237 604,-237 610,-237 616,-243 616,-249 616,-249 616,-261 616,-261 616,-267 610,-273 604,-273"/>
<text text-anchor="middle" x="551.5" y="-252.2" font-family="Helvetica" font-size="11.00">WriteToLog&#45;Failure&#45;1</text>
</g>
<!-- n13&#45;&gt;n14 -->
<g id="edge12" class="edge">
<title>n13&#45;&gt;n14</title>
<path fill="none" stroke="#555555" d="M406.02,-194.12C433.41,-205.67 469.07,-220.69 498.11,-232.93"/>
<polygon fill="#555555" stroke="#555555" points="497.11,-236.3 507.68,-236.96 499.83,-229.85 497.11,-236.3"/>
</g>
<!-- n2 -->
<g id="node13" class="node">
<title>n2</title>
<path fill="#e8f4f8" stroke="black" d="M603.5,-194C603.5,-194 499.5,-194 499.5,-194 493.5,-194 487.5,-188 487.5,-182 487.5,-182 487.5,-170 487.5,-170 487.5,-164 493.5,-158 499.5,-158 499.5,-158 603.5,-158 603.5,-158 609.5,-158 615.5,-164 615.5,-170 615.5,-170 615.5,-182 615.5,-182 615.5,-188 609.5,-194 603.5,-194"/>
<text text-anchor="middle" x="551.5" y="-173.2" font-family="Helvetica" font-size="11.00">WriteToLog&#45;Success</text>
</g>
<!-- n13&#45;&gt;n2 -->
<g id="edge14" class="edge">
<title>n13&#45;&gt;n2</title>
<path fill="none" stroke="#555555" d="M429.11,-176C444.59,-176 461.17,-176 476.96,-176"/>
<polygon fill="#555555" stroke="#555555" points="477.19,-179.5 487.19,-176 477.19,-172.5 477.19,-179.5"/>
</g>
<!-- n8 -->
<g id="node23" class="node">
<title>n8</title>
<path fill="#e8f4f8" stroke="black" d="M781.5,-273C781.5,-273 695.5,-273 695.5,-273 689.5,-273 683.5,-267 683.5,-261 683.5,-261 683.5,-249 683.5,-249 683.5,-243 689.5,-237 695.5,-237 695.5,-237 781.5,-237 781.5,-237 787.5,-237 793.5,-243 793.5,-249 793.5,-249 793.5,-261 793.5,-261 793.5,-267 787.5,-273 781.5,-273"/>
<text text-anchor="middle" x="738.5" y="-252.2" font-family="Helvetica" font-size="11.00">MapResultStatus</text>
</g>
<!-- n14&#45;&gt;n8 -->
<g id="edge13" class="edge">
<title>n14&#45;&gt;n8</title>
<path fill="none" stroke="#555555" d="M616.17,-255C634.6,-255 654.73,-255 673.2,-255"/>
<polygon fill="#555555" stroke="#555555" points="673.27,-258.5 683.27,-255 673.27,-251.5 673.27,-258.5"/>
</g>
<!-- n15 -->
<g id="node8" class="node">
<title>n15</title>
<path fill="#c8e6c9" stroke="black" d="M42,-392C42,-392 12,-392 12,-392 6,-392 0,-386 0,-380 0,-380 0,-368 0,-368 0,-362 6,-356 12,-356 12,-356 42,-356 42,-356 48,-356 54,-362 54,-368 54,-368 54,-380 54,-380 54,-386 48,-392 42,-392"/>
<text text-anchor="middle" x="27" y="-371.2" font-family="Helvetica" font-size="11.00">Start</text>
</g>
<!-- n16 -->
<g id="node9" class="node">
<title>n16</title>
<path fill="#e8f4f8" stroke="black" d="M223.5,-392C223.5,-392 125.5,-392 125.5,-392 119.5,-392 113.5,-386 113.5,-380 113.5,-380 113.5,-368 113.5,-368 113.5,-362 119.5,-356 125.5,-356 125.5,-356 223.5,-356 223.5,-356 229.5,-356 235.5,-362 235.5,-368 235.5,-368 235.5,-380 235.5,-380 235.5,-386 229.5,-392 223.5,-392"/>
<text text-anchor="middle" x="174.5" y="-371.2" font-family="Helvetica" font-size="11.00">Prep ErrorHandling</text>
</g>
<!-- n15&#45;&gt;n16 -->
<g id="edge15" class="edge">
<title>n15&#45;&gt;n16</title>
<path fill="none" stroke="#555555" d="M54.01,-374C67.82,-374 85.51,-374 103.03,-374"/>
<polygon fill="#555555" stroke="#555555" points="103.29,-377.5 113.29,-374 103.29,-370.5 103.29,-377.5"/>
</g>
<!-- n17 -->
<g id="node10" class="node">
<title>n17</title>
<path fill="#e8f4f8" stroke="black" d="M391.5,-392C391.5,-392 332.5,-392 332.5,-392 326.5,-392 320.5,-386 320.5,-380 320.5,-380 320.5,-368 320.5,-368 320.5,-362 326.5,-356 332.5,-356 332.5,-356 391.5,-356 391.5,-356 397.5,-356 403.5,-362 403.5,-368 403.5,-368 403.5,-380 403.5,-380 403.5,-386 397.5,-392 391.5,-392"/>
<text text-anchor="middle" x="362" y="-371.2" font-family="Helvetica" font-size="11.00">WriteToLog</text>
</g>
<!-- n16&#45;&gt;n17 -->
<g id="edge16" class="edge">
<title>n16&#45;&gt;n17</title>
<path fill="none" stroke="#555555" d="M235.73,-374C259.76,-374 287.14,-374 310.15,-374"/>
<polygon fill="#555555" stroke="#555555" points="310.39,-377.5 320.39,-374 310.39,-370.5 310.39,-377.5"/>
</g>
<!-- n21 -->
<g id="node15" class="node">
<title>n21</title>
<path fill="#e8f4f8" stroke="black" d="M585.5,-392C585.5,-392 517.5,-392 517.5,-392 511.5,-392 505.5,-386 505.5,-380 505.5,-380 505.5,-368 505.5,-368 505.5,-362 511.5,-356 517.5,-356 517.5,-356 585.5,-356 585.5,-356 591.5,-356 597.5,-362 597.5,-368 597.5,-368 597.5,-380 597.5,-380 597.5,-386 591.5,-392 585.5,-392"/>
<text text-anchor="middle" x="551.5" y="-371.2" font-family="Helvetica" font-size="11.00">ExtractToken</text>
</g>
<!-- n17&#45;&gt;n21 -->
<g id="edge19" class="edge">
<title>n17&#45;&gt;n21</title>
<path fill="none" stroke="#555555" d="M403.68,-374C430.47,-374 465.87,-374 495.2,-374"/>
<polygon fill="#555555" stroke="#555555" points="495.29,-377.5 505.29,-374 495.29,-370.5 495.29,-377.5"/>
</g>
<!-- n18 -->
<g id="node11" class="node">
<title>n18</title>
<path fill="#e8f4f8" stroke="black" d="M978.5,-431C978.5,-431 877.5,-431 877.5,-431 871.5,-431 865.5,-425 865.5,-419 865.5,-419 865.5,-407 865.5,-407 865.5,-401 871.5,-395 877.5,-395 877.5,-395 978.5,-395 978.5,-395 984.5,-395 990.5,-401 990.5,-407 990.5,-407 990.5,-419 990.5,-419 990.5,-425 984.5,-431 978.5,-431"/>
<text text-anchor="middle" x="928" y="-410.2" font-family="Helvetica" font-size="11.00">MapAnyException&#45;1</text>
</g>
<!-- n19 -->
<g id="node12" class="node">
<title>n19</title>
<path fill="#e8f4f8" stroke="black" d="M1180,-431C1180,-431 1065,-431 1065,-431 1059,-431 1053,-425 1053,-419 1053,-419 1053,-407 1053,-407 1053,-401 1059,-395 1065,-395 1065,-395 1180,-395 1180,-395 1186,-395 1192,-401 1192,-407 1192,-407 1192,-419 1192,-419 1192,-425 1186,-431 1180,-431"/>
<text text-anchor="middle" x="1122.5" y="-410.2" font-family="Helvetica" font-size="11.00">WriteToLog&#45;Failure&#45;2&#45;1</text>
</g>
<!-- n18&#45;&gt;n19 -->
<g id="edge17" class="edge">
<title>n18&#45;&gt;n19</title>
<path fill="none" stroke="#555555" d="M990.7,-413C1007.25,-413 1025.37,-413 1042.7,-413"/>
<polygon fill="#555555" stroke="#555555" points="1042.8,-416.5 1052.8,-413 1042.8,-409.5 1042.8,-416.5"/>
</g>
<!-- n20 -->
<g id="node14" class="node">
<title>n20</title>
<path fill="#ffcdd2" stroke="black" d="M1339,-431C1339,-431 1262,-431 1262,-431 1256,-431 1250,-425 1250,-419 1250,-419 1250,-407 1250,-407 1250,-401 1256,-395 1262,-395 1262,-395 1339,-395 1339,-395 1345,-395 1351,-401 1351,-407 1351,-407 1351,-419 1351,-419 1351,-425 1345,-431 1339,-431"/>
<text text-anchor="middle" x="1300.5" y="-410.2" font-family="Helvetica" font-size="11.00">Generate Error</text>
</g>
<!-- n19&#45;&gt;n20 -->
<g id="edge18" class="edge">
<title>n19&#45;&gt;n20</title>
<path fill="none" stroke="#555555" d="M1192.05,-413C1207.73,-413 1224.29,-413 1239.58,-413"/>
<polygon fill="#555555" stroke="#555555" points="1239.93,-416.5 1249.93,-413 1239.93,-409.5 1239.93,-416.5"/>
</g>
<!-- n3 -->
<g id="node18" class="node">
<title>n3</title>
<path fill="#ffccbc" stroke="black" d="M753.5,-194C753.5,-194 723.5,-194 723.5,-194 717.5,-194 711.5,-188 711.5,-182 711.5,-182 711.5,-170 711.5,-170 711.5,-164 717.5,-158 723.5,-158 723.5,-158 753.5,-158 753.5,-158 759.5,-158 765.5,-164 765.5,-170 765.5,-170 765.5,-182 765.5,-182 765.5,-188 759.5,-194 753.5,-194"/>
<text text-anchor="middle" x="738.5" y="-173.2" font-family="Helvetica" font-size="11.00">end</text>
</g>
<!-- n2&#45;&gt;n3 -->
<g id="edge2" class="edge">
<title>n2&#45;&gt;n3</title>
<path fill="none" stroke="#555555" d="M615.65,-176C644.1,-176 676.68,-176 700.99,-176"/>
<polygon fill="#555555" stroke="#555555" points="701.2,-179.5 711.2,-176 701.2,-172.5 701.2,-179.5"/>
</g>
<!-- n22 -->
<g id="node16" class="node">
<title>n22</title>
<path fill="#ffcdd2" stroke="black" d="M769.5,-392C769.5,-392 707.5,-392 707.5,-392 701.5,-392 695.5,-386 695.5,-380 695.5,-380 695.5,-368 695.5,-368 695.5,-362 701.5,-356 707.5,-356 707.5,-356 769.5,-356 769.5,-356 775.5,-356 781.5,-362 781.5,-368 781.5,-368 781.5,-380 781.5,-380 781.5,-386 775.5,-392 769.5,-392"/>
<text text-anchor="middle" x="738.5" y="-371.2" font-family="Helvetica" font-size="11.00">Error Group</text>
</g>
<!-- n21&#45;&gt;n22 -->
<g id="edge22" class="edge">
<title>n21&#45;&gt;n22</title>
<path fill="none" stroke="#555555" d="M597.76,-374C624.13,-374 657.5,-374 685.01,-374"/>
<polygon fill="#555555" stroke="#555555" points="685.25,-377.5 695.25,-374 685.25,-370.5 685.25,-377.5"/>
</g>
<!-- n22&#45;&gt;n18 -->
<g id="edge21" class="edge">
<title>n22&#45;&gt;n18</title>
<path fill="none" stroke="#555555" d="M781.58,-382.75C803.41,-387.29 830.67,-392.96 855.67,-398.16"/>
<polygon fill="#555555" stroke="#555555" points="854.99,-401.6 865.49,-400.21 856.41,-394.74 854.99,-401.6"/>
</g>
<!-- n23 -->
<g id="node17" class="node">
<title>n23</title>
<path fill="#ffccbc" stroke="black" d="M943,-352C943,-352 913,-352 913,-352 907,-352 901,-346 901,-340 901,-340 901,-328 901,-328 901,-322 907,-316 913,-316 913,-316 943,-316 943,-316 949,-316 955,-322 955,-328 955,-328 955,-340 955,-340 955,-346 949,-352 943,-352"/>
<text text-anchor="middle" x="928" y="-331.2" font-family="Helvetica" font-size="11.00">End</text>
</g>
<!-- n22&#45;&gt;n23 -->
<g id="edge20" class="edge">
<title>n22&#45;&gt;n23</title>
<path fill="none" stroke="#555555" d="M781.58,-365.02C814.46,-358.01 859.68,-348.36 890.93,-341.7"/>
<polygon fill="#555555" stroke="#555555" points="891.9,-345.07 900.95,-339.56 890.44,-338.22 891.9,-345.07"/>
</g>
<!-- n5 -->
<g id="node20" class="node">
<title>n5</title>
<path fill="#e8f4f8" stroke="black" d="M597.5,-115C597.5,-115 505.5,-115 505.5,-115 499.5,-115 493.5,-109 493.5,-103 493.5,-103 493.5,-91 493.5,-91 493.5,-85 499.5,-79 505.5,-79 505.5,-79 597.5,-79 597.5,-79 603.5,-79 609.5,-85 609.5,-91 609.5,-91 609.5,-103 609.5,-103 609.5,-109 603.5,-115 597.5,-115"/>
<text text-anchor="middle" x="551.5" y="-94.2" font-family="Helvetica" font-size="11.00">MapAnyException</text>
</g>
<!-- n4&#45;&gt;n5 -->
<g id="edge5" class="edge">
<title>n4&#45;&gt;n5</title>
<path fill="none" stroke="#555555" d="M389.07,-97C413.31,-97 450.49,-97 483.05,-97"/>
<polygon fill="#555555" stroke="#555555" points="483.44,-100.5 493.44,-97 483.44,-93.5 483.44,-100.5"/>
</g>
<!-- n7 -->
<g id="node22" class="node">
<title>n7</title>
<path fill="#ffcdd2" stroke="black" d="M581,-36C581,-36 522,-36 522,-36 516,-36 510,-30 510,-24 510,-24 510,-12 510,-12 510,-6 516,0 522,0 522,0 581,0 581,0 587,0 593,-6 593,-12 593,-12 593,-24 593,-24 593,-30 587,-36 581,-36"/>
<text text-anchor="middle" x="551.5" y="-15.2" font-family="Helvetica" font-size="11.00">Parse Fault</text>
</g>
<!-- n4&#45;&gt;n7 -->
<g id="edge6" class="edge">
<title>n4&#45;&gt;n7</title>
<path fill="none" stroke="#555555" d="M389.07,-86.02C417.8,-73.91 464.68,-54.16 500.54,-39.05"/>
<polygon fill="#555555" stroke="#555555" points="502.01,-42.23 509.87,-35.12 499.29,-35.78 502.01,-42.23"/>
</g>
<!-- n6 -->
<g id="node21" class="node">
<title>n6</title>
<path fill="#e8f4f8" stroke="black" d="M774,-115C774,-115 703,-115 703,-115 697,-115 691,-109 691,-103 691,-103 691,-91 691,-91 691,-85 697,-79 703,-79 703,-79 774,-79 774,-79 780,-79 786,-85 786,-91 786,-91 786,-103 786,-103 786,-109 780,-115 774,-115"/>
<text text-anchor="middle" x="738.5" y="-94.2" font-family="Helvetica" font-size="11.00">AnyException</text>
</g>
<!-- n5&#45;&gt;n6 -->
<g id="edge4" class="edge">
<title>n5&#45;&gt;n6</title>
<path fill="none" stroke="#555555" d="M609.52,-97C632.16,-97 658.16,-97 680.78,-97"/>
<polygon fill="#555555" stroke="#555555" points="680.91,-100.5 690.91,-97 680.91,-93.5 680.91,-100.5"/>
</g>
<!-- n7&#45;&gt;n12 -->
<g id="edge9" class="edge">
<title>n7&#45;&gt;n12</title>
<path fill="none" stroke="#555555" d="M593.1,-18C613.76,-18 639.53,-18 663.56,-18"/>
<polygon fill="#555555" stroke="#555555" points="663.73,-21.5 673.73,-18 663.73,-14.5 663.73,-21.5"/>
</g>
<!-- n9 -->
<g id="node24" class="node">
<title>n9</title>
<path fill="#ffccbc" stroke="black" d="M983,-273C983,-273 873,-273 873,-273 867,-273 861,-267 861,-261 861,-261 861,-249 861,-249 861,-243 867,-237 873,-237 873,-237 983,-237 983,-237 989,-237 995,-243 995,-249 995,-249 995,-261 995,-261 995,-267 989,-273 983,-273"/>
<text text-anchor="middle" x="928" y="-252.2" font-family="Helvetica" font-size="11.00">Return ResultStatus&#45;1</text>
</g>
<!-- n8&#45;&gt;n9 -->
<g id="edge7" class="edge">
<title>n8&#45;&gt;n9</title>
<path fill="none" stroke="#555555" d="M793.73,-255C811.52,-255 831.63,-255 850.73,-255"/>
<polygon fill="#555555" stroke="#555555" points="850.92,-258.5 860.92,-255 850.92,-251.5 850.92,-258.5"/>
</g>
</g>
</svg>
