<?xml version="1.0" encoding="UTF-8" standalone="no"?>
<!DOCTYPE svg PUBLIC "-//W3C//DTD SVG 1.1//EN"
 "http://www.w3.org/Graphics/SVG/1.1/DTD/svg11.dtd">
<!-- Generated by graphviz version 2.44.0 (0)
 -->
<!-- Title: process Pages: 1 -->
<svg width="987pt" height="394pt"
 viewBox="0.00 0.00 987.00 393.53" xmlns="http://www.w3.org/2000/svg" xmlns:xlink="http://www.w3.org/1999/xlink">
<g id="graph0" class="graph" transform="scale(1 1) rotate(0) translate(36 357.53)">
<title>process</title>
<polygon fill="#ffffff" stroke="transparent" points="-36,36 -36,-357.53 951,-357.53 951,36 -36,36"/>
<!-- n0 -->
<g id="node1" class="node">
<title>n0</title>
<path fill="#c8e6c9" stroke="black" d="M42,-156C42,-156 12,-156 12,-156 6,-156 0,-150 0,-144 0,-144 0,-132 0,-132 0,-126 6,-120 12,-120 12,-120 42,-120 42,-120 48,-120 54,-126 54,-132 54,-132 54,-144 54,-144 54,-150 48,-156 42,-156"/>
<text text-anchor="middle" x="27" y="-135.2" font-family="Helvetica" font-size="11.00">Start</text>
</g>
<!-- n1 -->
<g id="node2" class="node">
<title>n1</title>
<path fill="#e8f4f8" stroke="black" d="M191,-156C191,-156 124,-156 124,-156 118,-156 112,-150 112,-144 112,-144 112,-132 112,-132 112,-126 118,-120 124,-120 124,-120 191,-120 191,-120 197,-120 203,-126 203,-132 203,-132 203,-144 203,-144 203,-150 197,-156 191,-156"/>
<text text-anchor="middle" x="157.5" y="-135.2" font-family="Helvetica" font-size="11.00">ValidateInput</text>
</g>
<!-- n0&#45;&gt;n1 -->
<g id="edge1" class="edge">
<title>n0&#45;&gt;n1</title>
<path fill="none" stroke="#555555" d="M54,-138C67.73,-138 85.12,-138 101.65,-138"/>
<polygon fill="#555555" stroke="#555555" points="101.8,-141.5 111.8,-138 101.8,-134.5 101.8,-141.5"/>
</g>
<!-- n2 -->
<g id="node5" class="node">
<title>n2</title>
<path fill="#e8f4f8" stroke="black" d="M372,-281C372,-281 273,-281 273,-281 267,-281 261,-275 261,-269 261,-269 261,-257 261,-257 261,-251 267,-245 273,-245 273,-245 372,-245 372,-245 378,-245 384,-251 384,-257 384,-257 384,-269 384,-269 384,-275 378,-281 372,-281"/>
<text text-anchor="middle" x="322.5" y="-260.2" font-family="Helvetica" font-size="11.00">AuthenticateIdentity</text>
</g>
<!-- n1&#45;&gt;n2 -->
<g id="edge3" class="edge">
<title>n1&#45;&gt;n2</title>
<path fill="none" stroke="#555555" d="M182.2,-156.18C210.57,-177.93 258.19,-214.45 289.73,-238.63"/>
<polygon fill="#555555" stroke="#555555" points="287.7,-241.49 297.77,-244.8 291.96,-235.94 287.7,-241.49"/>
</g>
<!-- n4 -->
<g id="node7" class="node">
<title>n4</title>
<path fill="#e8f4f8" stroke="black" d="M554,-196C554,-196 462,-196 462,-196 456,-196 450,-190 450,-184 450,-184 450,-172 450,-172 450,-166 456,-160 462,-160 462,-160 554,-160 554,-160 560,-160 566,-166 566,-172 566,-172 566,-184 566,-184 566,-190 560,-196 554,-196"/>
<text text-anchor="middle" x="508" y="-175.2" font-family="Helvetica" font-size="11.00">AuthenticateFPin2</text>
</g>
<!-- n1&#45;&gt;n4 -->
<g id="edge5" class="edge">
<title>n1&#45;&gt;n4</title>
<path fill="none" stroke="#555555" d="M203.35,-143.15C263.36,-150.04 370.29,-162.31 439.91,-170.3"/>
<polygon fill="#555555" stroke="#555555" points="439.56,-173.78 449.9,-171.45 440.36,-166.83 439.56,-173.78"/>
</g>
<!-- n5 -->
<g id="node8" class="node">
<title>n5</title>
<path fill="#ffcdd2" stroke="black" d="M361.5,-115C361.5,-115 283.5,-115 283.5,-115 277.5,-115 271.5,-109 271.5,-103 271.5,-103 271.5,-91 271.5,-91 271.5,-85 277.5,-79 283.5,-79 283.5,-79 361.5,-79 361.5,-79 367.5,-79 373.5,-85 373.5,-91 373.5,-91 373.5,-103 373.5,-103 373.5,-109 367.5,-115 361.5,-115"/>
<text text-anchor="middle" x="322.5" y="-94.2" font-family="Helvetica" font-size="11.00">Generate&#45;Error</text>
</g>
<!-- n1&#45;&gt;n5 -->
<g id="edge6" class="edge">
<title>n1&#45;&gt;n5</title>
<path fill="none" stroke="#555555" d="M203.04,-126.8C221.02,-122.27 242.05,-116.99 261.35,-112.13"/>
<polygon fill="#555555" stroke="#555555" points="262.42,-115.47 271.26,-109.64 260.71,-108.68 262.42,-115.47"/>
</g>
<!-- n7 -->
<g id="node10" class="node">
<title>n7</title>
<path fill="#e8f4f8" stroke="black" d="M339,-36C339,-36 306,-36 306,-36 300,-36 294,-30 294,-24 294,-24 294,-12 294,-12 294,-6 300,0 306,0 306,0 339,0 339,0 345,0 351,-6 351,-12 351,-12 351,-24 351,-24 351,-30 345,-36 339,-36"/>
<text text-anchor="middle" x="322.5" y="-15.2" font-family="Helvetica" font-size="11.00">Null&#45;1</text>
</g>
<!-- n1&#45;&gt;n7 -->
<g id="edge8" class="edge">
<title>n1&#45;&gt;n7</title>
<path fill="none" stroke="#555555" d="M180.91,-119.69C201.42,-103.12 232.78,-78.3 261,-58 268.73,-52.44 277.18,-46.67 285.24,-41.31"/>
<polygon fill="#555555" stroke="#555555" points="287.36,-44.1 293.78,-35.67 283.51,-38.26 287.36,-44.1"/>
</g>
<!-- n10 -->
<g id="node3" class="node">
<title>n10</title>
<path fill="#ffcdd2" stroke="black" d="M551.5,-115C551.5,-115 464.5,-115 464.5,-115 458.5,-115 452.5,-109 452.5,-103 452.5,-103 452.5,-91 452.5,-91 452.5,-85 458.5,-79 464.5,-79 464.5,-79 551.5,-79 551.5,-79 557.5,-79 563.5,-85 563.5,-91 563.5,-91 563.5,-103 563.5,-103 563.5,-109 557.5,-115 551.5,-115"/>
<text text-anchor="middle" x="508" y="-94.2" font-family="Helvetica" font-size="11.00">Generate&#45;Error&#45;3</text>
</g>
<!-- n11 -->
<g id="node4" class="node">
<title>n11</title>
<path fill="#e8f4f8" stroke="black" d="M791,-257C791,-257 644,-257 644,-257 638,-257 632,-251 632,-245 632,-245 632,-233 632,-233 632,-227 638,-221 644,-221 644,-221 791,-221 791,-221 797,-221 803,-227 803,-233 803,-233 803,-245 803,-245 803,-251 797,-257 791,-257"/>
<text text-anchor="middle" x="717.5" y="-236.2" font-family="Helvetica" font-size="11.00">GenerateOnlineSessionToken</text>
</g>
<!-- n3 -->
<g id="node6" class="node">
<title>n3</title>
<path fill="#ffccbc" stroke="black" d="M903,-215C903,-215 873,-215 873,-215 867,-215 861,-209 861,-203 861,-203 861,-191 861,-191 861,-185 867,-179 873,-179 873,-179 903,-179 903,-179 909,-179 915,-185 915,-191 915,-191 915,-203 915,-203 915,-209 909,-215 903,-215"/>
<text text-anchor="middle" x="888" y="-194.2" font-family="Helvetica" font-size="11.00">End</text>
</g>
<!-- n11&#45;&gt;n3 -->
<g id="edge14" class="edge">
<title>n11&#45;&gt;n3</title>
<path fill="none" stroke="#555555" d="M790.94,-220.94C811.67,-215.78 833.37,-210.37 850.89,-206"/>
<polygon fill="#555555" stroke="#555555" points="851.83,-209.37 860.68,-203.56 850.13,-202.58 851.83,-209.37"/>
</g>
<!-- n2&#45;&gt;n3 -->
<g id="edge2" class="edge">
<title>n2&#45;&gt;n3</title>
<path fill="none" stroke="#555555" d="M374.74,-281.09C395.36,-287.47 419.53,-293.84 442,-297 601.08,-319.37 656.71,-345.37 803,-279 829.84,-266.82 853.16,-242.24 868.37,-223.15"/>
<polygon fill="#555555" stroke="#555555" points="871.25,-225.15 874.58,-215.1 865.7,-220.88 871.25,-225.15"/>
</g>
<!-- n6 -->
<g id="node9" class="node">
<title>n6</title>
<path fill="#e8f4f8" stroke="black" d="M562,-275C562,-275 454,-275 454,-275 448,-275 442,-269 442,-263 442,-263 442,-251 442,-251 442,-245 448,-239 454,-239 454,-239 562,-239 562,-239 568,-239 574,-245 574,-251 574,-251 574,-263 574,-263 574,-269 568,-275 562,-275"/>
<text text-anchor="middle" x="508" y="-254.2" font-family="Helvetica" font-size="11.00">Authentication Failure</text>
</g>
<!-- n2&#45;&gt;n6 -->
<g id="edge7" class="edge">
<title>n2&#45;&gt;n6</title>
<path fill="none" stroke="#555555" d="M384.09,-261.02C399.25,-260.52 415.7,-259.99 431.48,-259.47"/>
<polygon fill="#555555" stroke="#555555" points="431.85,-262.96 441.73,-259.13 431.63,-255.96 431.85,-262.96"/>
</g>
<!-- n4&#45;&gt;n11 -->
<g id="edge13" class="edge">
<title>n4&#45;&gt;n11</title>
<path fill="none" stroke="#555555" d="M566.25,-194.83C590.71,-202.02 619.53,-210.49 645.35,-218.08"/>
<polygon fill="#555555" stroke="#555555" points="644.5,-221.48 655.08,-220.94 646.47,-214.77 644.5,-221.48"/>
</g>
<!-- n4&#45;&gt;n3 -->
<g id="edge4" class="edge">
<title>n4&#45;&gt;n3</title>
<path fill="none" stroke="#555555" d="M566.41,-180.89C645.25,-184.85 784.75,-191.86 850.62,-195.17"/>
<polygon fill="#555555" stroke="#555555" points="850.75,-198.68 860.91,-195.69 851.1,-191.69 850.75,-198.68"/>
</g>
<!-- n7&#45;&gt;n10 -->
<g id="edge12" class="edge">
<title>n7&#45;&gt;n10</title>
<path fill="none" stroke="#555555" d="M351.37,-30C378.95,-41.87 421.83,-60.33 455.6,-74.87"/>
<polygon fill="#555555" stroke="#555555" points="454.3,-78.12 464.87,-78.86 457.07,-71.69 454.3,-78.12"/>
</g>
<!-- n8 -->
<g id="node11" class="node">
<title>n8</title>
<path fill="#e8f4f8" stroke="black" d="M554,-36C554,-36 462,-36 462,-36 456,-36 450,-30 450,-24 450,-24 450,-12 450,-12 450,-6 456,0 462,0 462,0 554,0 554,0 560,0 566,-6 566,-12 566,-12 566,-24 566,-24 566,-30 560,-36 554,-36"/>
<text text-anchor="middle" x="508" y="-15.2" font-family="Helvetica" font-size="11.00">GetHLRSettings.2</text>
</g>
<!-- n7&#45;&gt;n8 -->
<g id="edge9" class="edge">
<title>n7&#45;&gt;n8</title>
<path fill="none" stroke="#555555" d="M351.37,-18C374.79,-18 409.23,-18 439.77,-18"/>
<polygon fill="#555555" stroke="#555555" points="439.95,-21.5 449.95,-18 439.95,-14.5 439.95,-21.5"/>
</g>
<!-- n9 -->
<g id="node12" class="node">
<title>n9</title>
<path fill="#e8f4f8" stroke="black" d="M748.5,-56C748.5,-56 686.5,-56 686.5,-56 680.5,-56 674.5,-50 674.5,-44 674.5,-44 674.5,-32 674.5,-32 674.5,-26 680.5,-20 686.5,-20 686.5,-20 748.5,-20 748.5,-20 754.5,-20 760.5,-26 760.5,-32 760.5,-32 760.5,-44 760.5,-44 760.5,-50 754.5,-56 748.5,-56"/>
<text text-anchor="middle" x="717.5" y="-35.2" font-family="Helvetica" font-size="11.00">Map&#45;Data&#45;1</text>
</g>
<!-- n8&#45;&gt;n9 -->
<g id="edge10" class="edge">
<title>n8&#45;&gt;n9</title>
<path fill="none" stroke="#555555" d="M566.25,-23.52C596.83,-26.47 634.21,-30.07 664.04,-32.94"/>
<polygon fill="#555555" stroke="#555555" points="663.96,-36.45 674.25,-33.93 664.63,-29.48 663.96,-36.45"/>
</g>
<!-- n9&#45;&gt;n3 -->
<g id="edge11" class="edge">
<title>n9&#45;&gt;n3</title>
<path fill="none" stroke="#555555" d="M737.83,-56.24C768.05,-84.75 826.54,-139.95 860.61,-172.1"/>
<polygon fill="#555555" stroke="#555555" points="858.22,-174.66 867.9,-178.97 863.03,-169.56 858.22,-174.66"/>
</g>
</g>
</svg>
