<?xml version="1.0" encoding="UTF-8" standalone="no"?>
<!DOCTYPE svg PUBLIC "-//W3C//DTD SVG 1.1//EN"
 "http://www.w3.org/Graphics/SVG/1.1/DTD/svg11.dtd">
<!-- Generated by graphviz version 2.44.0 (0)
 -->
<!-- Title: process Pages: 1 -->
<svg width="557pt" height="187pt"
 viewBox="0.00 0.00 557.00 187.00" xmlns="http://www.w3.org/2000/svg" xmlns:xlink="http://www.w3.org/1999/xlink">
<g id="graph0" class="graph" transform="scale(1 1) rotate(0) translate(36 151)">
<title>process</title>
<polygon fill="#ffffff" stroke="transparent" points="-36,36 -36,-151 521,-151 521,36 -36,36"/>
<!-- n0 -->
<g id="node1" class="node">
<title>n0</title>
<path fill="#c8e6c9" stroke="black" d="M42,-75C42,-75 12,-75 12,-75 6,-75 0,-69 0,-63 0,-63 0,-51 0,-51 0,-45 6,-39 12,-39 12,-39 42,-39 42,-39 48,-39 54,-45 54,-51 54,-51 54,-63 54,-63 54,-69 48,-75 42,-75"/>
<text text-anchor="middle" x="27" y="-54.2" font-family="Helvetica" font-size="11.00">Start</text>
</g>
<!-- n1 -->
<g id="node2" class="node">
<title>n1</title>
<path fill="#e8f4f8" stroke="black" d="M191,-75C191,-75 124,-75 124,-75 118,-75 112,-69 112,-63 112,-63 112,-51 112,-51 112,-45 118,-39 124,-39 124,-39 191,-39 191,-39 197,-39 203,-45 203,-51 203,-51 203,-63 203,-63 203,-69 197,-75 191,-75"/>
<text text-anchor="middle" x="157.5" y="-54.2" font-family="Helvetica" font-size="11.00">ValidateInput</text>
</g>
<!-- n0&#45;&gt;n1 -->
<g id="edge1" class="edge">
<title>n0&#45;&gt;n1</title>
<path fill="none" stroke="#555555" d="M54,-57C67.73,-57 85.12,-57 101.65,-57"/>
<polygon fill="#555555" stroke="#555555" points="101.8,-60.5 111.8,-57 101.8,-53.5 101.8,-60.5"/>
</g>
<!-- n2 -->
<g id="node3" class="node">
<title>n2</title>
<path fill="#e8f4f8" stroke="black" d="M361,-115C361,-115 273,-115 273,-115 267,-115 261,-109 261,-103 261,-103 261,-91 261,-91 261,-85 267,-79 273,-79 273,-79 361,-79 361,-79 367,-79 373,-85 373,-91 373,-91 373,-103 373,-103 373,-109 367,-115 361,-115"/>
<text text-anchor="middle" x="317" y="-94.2" font-family="Helvetica" font-size="11.00">InvokeGetIdentity</text>
</g>
<!-- n1&#45;&gt;n2 -->
<g id="edge2" class="edge">
<title>n1&#45;&gt;n2</title>
<path fill="none" stroke="#555555" d="M203.21,-68.36C218.05,-72.12 234.88,-76.4 250.93,-80.47"/>
<polygon fill="#555555" stroke="#555555" points="250.25,-83.91 260.8,-82.98 251.97,-77.13 250.25,-83.91"/>
</g>
<!-- n3 -->
<g id="node4" class="node">
<title>n3</title>
<path fill="#ffcdd2" stroke="black" d="M355.5,-36C355.5,-36 278.5,-36 278.5,-36 272.5,-36 266.5,-30 266.5,-24 266.5,-24 266.5,-12 266.5,-12 266.5,-6 272.5,0 278.5,0 278.5,0 355.5,0 355.5,0 361.5,0 367.5,-6 367.5,-12 367.5,-12 367.5,-24 367.5,-24 367.5,-30 361.5,-36 355.5,-36"/>
<text text-anchor="middle" x="317" y="-15.2" font-family="Helvetica" font-size="11.00">Generate Error</text>
</g>
<!-- n1&#45;&gt;n3 -->
<g id="edge3" class="edge">
<title>n1&#45;&gt;n3</title>
<path fill="none" stroke="#555555" d="M203.21,-45.93C219.71,-41.84 238.67,-37.15 256.29,-32.79"/>
<polygon fill="#555555" stroke="#555555" points="257.61,-36.06 266.47,-30.26 255.93,-29.27 257.61,-36.06"/>
</g>
<!-- n4 -->
<g id="node5" class="node">
<title>n4</title>
<path fill="#ffccbc" stroke="black" d="M473,-115C473,-115 443,-115 443,-115 437,-115 431,-109 431,-103 431,-103 431,-91 431,-91 431,-85 437,-79 443,-79 443,-79 473,-79 473,-79 479,-79 485,-85 485,-91 485,-91 485,-103 485,-103 485,-109 479,-115 473,-115"/>
<text text-anchor="middle" x="458" y="-94.2" font-family="Helvetica" font-size="11.00">End</text>
</g>
<!-- n2&#45;&gt;n4 -->
<g id="edge4" class="edge">
<title>n2&#45;&gt;n4</title>
<path fill="none" stroke="#555555" d="M373.34,-97C389.3,-97 406.3,-97 420.78,-97"/>
<polygon fill="#555555" stroke="#555555" points="420.83,-100.5 430.83,-97 420.83,-93.5 420.83,-100.5"/>
</g>
</g>
</svg>
