<?xml version="1.0" encoding="UTF-8" standalone="no"?>
<!DOCTYPE svg PUBLIC "-//W3C//DTD SVG 1.1//EN"
 "http://www.w3.org/Graphics/SVG/1.1/DTD/svg11.dtd">
<!-- Generated by graphviz version 2.44.0 (0)
 -->
<!-- Title: process Pages: 1 -->
<svg width="1214pt" height="248pt"
 viewBox="0.00 0.00 1214.00 248.20" xmlns="http://www.w3.org/2000/svg" xmlns:xlink="http://www.w3.org/1999/xlink">
<g id="graph0" class="graph" transform="scale(1 1) rotate(0) translate(36 212.2)">
<title>process</title>
<polygon fill="#ffffff" stroke="transparent" points="-36,36 -36,-212.2 1178,-212.2 1178,36 -36,36"/>
<!-- n0 -->
<g id="node1" class="node">
<title>n0</title>
<path fill="#c8e6c9" stroke="black" d="M42,-146.39C42,-146.39 12,-146.39 12,-146.39 6,-146.39 0,-140.39 0,-134.39 0,-134.39 0,-122.39 0,-122.39 0,-116.39 6,-110.39 12,-110.39 12,-110.39 42,-110.39 42,-110.39 48,-110.39 54,-116.39 54,-122.39 54,-122.39 54,-134.39 54,-134.39 54,-140.39 48,-146.39 42,-146.39"/>
<text text-anchor="middle" x="27" y="-125.59" font-family="Helvetica" font-size="11.00">Start</text>
</g>
<!-- n1 -->
<g id="node2" class="node">
<title>n1</title>
<path fill="#ffcdd2" stroke="black" d="M188,-146.39C188,-146.39 124,-146.39 124,-146.39 118,-146.39 112,-140.39 112,-134.39 112,-134.39 112,-122.39 112,-122.39 112,-116.39 118,-110.39 124,-110.39 124,-110.39 188,-110.39 188,-110.39 194,-110.39 200,-116.39 200,-122.39 200,-122.39 200,-134.39 200,-134.39 200,-140.39 194,-146.39 188,-146.39"/>
<text text-anchor="middle" x="156" y="-125.59" font-family="Helvetica" font-size="11.00">Error Codes</text>
</g>
<!-- n0&#45;&gt;n1 -->
<g id="edge1" class="edge">
<title>n0&#45;&gt;n1</title>
<path fill="none" stroke="#555555" d="M54.01,-128.39C67.77,-128.39 85.19,-128.39 101.68,-128.39"/>
<polygon fill="#555555" stroke="#555555" points="101.78,-131.89 111.78,-128.39 101.78,-124.89 101.78,-131.89"/>
</g>
<!-- n4 -->
<g id="node5" class="node">
<title>n4</title>
<path fill="#ffcdd2" stroke="black" d="M368,-146.39C368,-146.39 270,-146.39 270,-146.39 264,-146.39 258,-140.39 258,-134.39 258,-134.39 258,-122.39 258,-122.39 258,-116.39 264,-110.39 270,-110.39 270,-110.39 368,-110.39 368,-110.39 374,-110.39 380,-116.39 380,-122.39 380,-122.39 380,-134.39 380,-134.39 380,-140.39 374,-146.39 368,-146.39"/>
<text text-anchor="middle" x="319" y="-125.59" font-family="Helvetica" font-size="11.00">Exception Message</text>
</g>
<!-- n1&#45;&gt;n4 -->
<g id="edge3" class="edge">
<title>n1&#45;&gt;n4</title>
<path fill="none" stroke="#555555" d="M200.15,-128.39C214.66,-128.39 231.26,-128.39 247.33,-128.39"/>
<polygon fill="#555555" stroke="#555555" points="247.79,-131.89 257.79,-128.39 247.79,-124.89 247.79,-131.89"/>
</g>
<!-- n2 -->
<g id="node3" class="node">
<title>n2</title>
<path fill="#ffcdd2" stroke="black" d="M699,-146.39C699,-146.39 613,-146.39 613,-146.39 607,-146.39 601,-140.39 601,-134.39 601,-134.39 601,-122.39 601,-122.39 601,-116.39 607,-110.39 613,-110.39 613,-110.39 699,-110.39 699,-110.39 705,-110.39 711,-116.39 711,-122.39 711,-122.39 711,-134.39 711,-134.39 711,-140.39 705,-146.39 699,-146.39"/>
<text text-anchor="middle" x="656" y="-125.59" font-family="Helvetica" font-size="11.00">Parse Error Data</text>
</g>
<!-- n3 -->
<g id="node4" class="node">
<title>n3</title>
<path fill="#ffccbc" stroke="black" d="M1130,-106.39C1130,-106.39 1100,-106.39 1100,-106.39 1094,-106.39 1088,-100.39 1088,-94.39 1088,-94.39 1088,-82.39 1088,-82.39 1088,-76.39 1094,-70.39 1100,-70.39 1100,-70.39 1130,-70.39 1130,-70.39 1136,-70.39 1142,-76.39 1142,-82.39 1142,-82.39 1142,-94.39 1142,-94.39 1142,-100.39 1136,-106.39 1130,-106.39"/>
<text text-anchor="middle" x="1115" y="-85.59" font-family="Helvetica" font-size="11.00">End</text>
</g>
<!-- n2&#45;&gt;n3 -->
<g id="edge2" class="edge">
<title>n2&#45;&gt;n3</title>
<path fill="none" stroke="#555555" d="M697.05,-146.47C718.02,-154.95 744.38,-164.12 769,-168.39 834.25,-179.69 852.42,-177.57 918,-168.39 969.27,-161.21 982.29,-156.49 1030,-136.39 1046.79,-129.31 1064.44,-119.61 1079.2,-110.79"/>
<polygon fill="#555555" stroke="#555555" points="1081.26,-113.63 1087.98,-105.43 1077.62,-107.65 1081.26,-113.63"/>
</g>
<!-- n6 -->
<g id="node7" class="node">
<title>n6</title>
<path fill="#e8f4f8" stroke="black" d="M902.5,-146.39C902.5,-146.39 784.5,-146.39 784.5,-146.39 778.5,-146.39 772.5,-140.39 772.5,-134.39 772.5,-134.39 772.5,-122.39 772.5,-122.39 772.5,-116.39 778.5,-110.39 784.5,-110.39 784.5,-110.39 902.5,-110.39 902.5,-110.39 908.5,-110.39 914.5,-116.39 914.5,-122.39 914.5,-122.39 914.5,-134.39 914.5,-134.39 914.5,-140.39 908.5,-146.39 902.5,-146.39"/>
<text text-anchor="middle" x="843.5" y="-125.59" font-family="Helvetica" font-size="11.00">ParseFTPGetFilesError</text>
</g>
<!-- n2&#45;&gt;n6 -->
<g id="edge6" class="edge">
<title>n2&#45;&gt;n6</title>
<path fill="none" stroke="#555555" d="M711.15,-128.39C727.15,-128.39 745.02,-128.39 762.3,-128.39"/>
<polygon fill="#555555" stroke="#555555" points="762.38,-131.89 772.38,-128.39 762.38,-124.89 762.38,-131.89"/>
</g>
<!-- n8 -->
<g id="node9" class="node">
<title>n8</title>
<path fill="#e8f4f8" stroke="black" d="M906,-65.39C906,-65.39 781,-65.39 781,-65.39 775,-65.39 769,-59.39 769,-53.39 769,-53.39 769,-41.39 769,-41.39 769,-35.39 775,-29.39 781,-29.39 781,-29.39 906,-29.39 906,-29.39 912,-29.39 918,-35.39 918,-41.39 918,-41.39 918,-53.39 918,-53.39 918,-59.39 912,-65.39 906,-65.39"/>
<text text-anchor="middle" x="843.5" y="-44.59" font-family="Helvetica" font-size="11.00">ParseFTPPutFilesError&#45;1</text>
</g>
<!-- n2&#45;&gt;n8 -->
<g id="edge10" class="edge">
<title>n2&#45;&gt;n8</title>
<path fill="none" stroke="#555555" d="M698.63,-110.21C726.2,-98.17 762.53,-82.31 791.78,-69.53"/>
<polygon fill="#555555" stroke="#555555" points="793.25,-72.71 801.01,-65.5 790.44,-66.3 793.25,-72.71"/>
</g>
<!-- n5 -->
<g id="node6" class="node">
<title>n5</title>
<path fill="#e8f4f8" stroke="black" d="M531,-146.39C531,-146.39 450,-146.39 450,-146.39 444,-146.39 438,-140.39 438,-134.39 438,-134.39 438,-122.39 438,-122.39 438,-116.39 444,-110.39 450,-110.39 450,-110.39 531,-110.39 531,-110.39 537,-110.39 543,-116.39 543,-122.39 543,-122.39 543,-134.39 543,-134.39 543,-140.39 537,-146.39 531,-146.39"/>
<text text-anchor="middle" x="490.5" y="-125.59" font-family="Helvetica" font-size="11.00">Matching Errors</text>
</g>
<!-- n4&#45;&gt;n5 -->
<g id="edge4" class="edge">
<title>n4&#45;&gt;n5</title>
<path fill="none" stroke="#555555" d="M380.24,-128.39C395.69,-128.39 412.34,-128.39 427.86,-128.39"/>
<polygon fill="#555555" stroke="#555555" points="427.88,-131.89 437.88,-128.39 427.88,-124.89 427.88,-131.89"/>
</g>
<!-- n5&#45;&gt;n2 -->
<g id="edge5" class="edge">
<title>n5&#45;&gt;n2</title>
<path fill="none" stroke="#555555" d="M543.23,-128.39C558.27,-128.39 574.89,-128.39 590.61,-128.39"/>
<polygon fill="#555555" stroke="#555555" points="590.78,-131.89 600.78,-128.39 590.78,-124.89 590.78,-131.89"/>
</g>
<!-- n6&#45;&gt;n3 -->
<g id="edge7" class="edge">
<title>n6&#45;&gt;n3</title>
<path fill="none" stroke="#555555" d="M914.6,-117.98C966.94,-110.21 1036.32,-99.92 1077.93,-93.74"/>
<polygon fill="#555555" stroke="#555555" points="1078.5,-97.19 1087.88,-92.26 1077.47,-90.27 1078.5,-97.19"/>
</g>
<!-- n7 -->
<g id="node8" class="node">
<title>n7</title>
<path fill="#e8f4f8" stroke="black" d="M1018,-65.39C1018,-65.39 988,-65.39 988,-65.39 982,-65.39 976,-59.39 976,-53.39 976,-53.39 976,-41.39 976,-41.39 976,-35.39 982,-29.39 988,-29.39 988,-29.39 1018,-29.39 1018,-29.39 1024,-29.39 1030,-35.39 1030,-41.39 1030,-41.39 1030,-53.39 1030,-53.39 1030,-59.39 1024,-65.39 1018,-65.39"/>
<text text-anchor="middle" x="1003" y="-44.59" font-family="Helvetica" font-size="11.00">Null</text>
</g>
<!-- n6&#45;&gt;n7 -->
<g id="edge8" class="edge">
<title>n6&#45;&gt;n7</title>
<path fill="none" stroke="#555555" d="M879.85,-110.21C905.69,-96.92 940.62,-78.96 966.5,-65.64"/>
<polygon fill="#555555" stroke="#555555" points="968.3,-68.65 975.59,-60.97 965.1,-62.43 968.3,-68.65"/>
</g>
<!-- n7&#45;&gt;n3 -->
<g id="edge9" class="edge">
<title>n7&#45;&gt;n3</title>
<path fill="none" stroke="#555555" d="M1030.07,-57.1C1044.48,-62.48 1062.61,-69.23 1078.32,-75.09"/>
<polygon fill="#555555" stroke="#555555" points="1077.14,-78.39 1087.74,-78.6 1079.59,-71.83 1077.14,-78.39"/>
</g>
<!-- n8&#45;&gt;n3 -->
<g id="edge11" class="edge">
<title>n8&#45;&gt;n3</title>
<path fill="none" stroke="#555555" d="M877.33,-29.29C915.2,-10.93 978.82,12.08 1030,-8.39 1057.04,-19.2 1080.33,-43.32 1095.48,-62.27"/>
<polygon fill="#555555" stroke="#555555" points="1092.78,-64.5 1101.66,-70.28 1098.33,-60.22 1092.78,-64.5"/>
</g>
<!-- n8&#45;&gt;n7 -->
<g id="edge12" class="edge">
<title>n8&#45;&gt;n7</title>
<path fill="none" stroke="#555555" d="M918.18,-47.39C934.64,-47.39 951.39,-47.39 965.56,-47.39"/>
<polygon fill="#555555" stroke="#555555" points="965.83,-50.89 975.83,-47.39 965.83,-43.89 965.83,-50.89"/>
</g>
</g>
</svg>
