<?xml version="1.0" encoding="UTF-8" standalone="no"?>
<!DOCTYPE svg PUBLIC "-//W3C//DTD SVG 1.1//EN"
 "http://www.w3.org/Graphics/SVG/1.1/DTD/svg11.dtd">
<!-- Generated by graphviz version 2.44.0 (0)
 -->
<!-- Title: process Pages: 1 -->
<svg width="418pt" height="187pt"
 viewBox="0.00 0.00 418.00 187.00" xmlns="http://www.w3.org/2000/svg" xmlns:xlink="http://www.w3.org/1999/xlink">
<g id="graph0" class="graph" transform="scale(1 1) rotate(0) translate(36 151)">
<title>process</title>
<polygon fill="#ffffff" stroke="transparent" points="-36,36 -36,-151 382,-151 382,36 -36,36"/>
<!-- n0 -->
<g id="node1" class="node">
<title>n0</title>
<path fill="#c8e6c9" stroke="black" d="M42,-75C42,-75 12,-75 12,-75 6,-75 0,-69 0,-63 0,-63 0,-51 0,-51 0,-45 6,-39 12,-39 12,-39 42,-39 42,-39 48,-39 54,-45 54,-51 54,-51 54,-63 54,-63 54,-69 48,-75 42,-75"/>
<text text-anchor="middle" x="27" y="-54.2" font-family="Helvetica" font-size="11.00">Start</text>
</g>
<!-- n1 -->
<g id="node2" class="node">
<title>n1</title>
<path fill="#ffccbc" stroke="black" d="M164.5,-115C164.5,-115 134.5,-115 134.5,-115 128.5,-115 122.5,-109 122.5,-103 122.5,-103 122.5,-91 122.5,-91 122.5,-85 128.5,-79 134.5,-79 134.5,-79 164.5,-79 164.5,-79 170.5,-79 176.5,-85 176.5,-91 176.5,-91 176.5,-103 176.5,-103 176.5,-109 170.5,-115 164.5,-115"/>
<text text-anchor="middle" x="149.5" y="-94.2" font-family="Helvetica" font-size="11.00">End</text>
</g>
<!-- n0&#45;&gt;n1 -->
<g id="edge1" class="edge">
<title>n0&#45;&gt;n1</title>
<path fill="none" stroke="#555555" d="M54.15,-65.68C71.28,-71.37 93.9,-78.87 112.69,-85.11"/>
<polygon fill="#555555" stroke="#555555" points="111.81,-88.51 122.4,-88.34 114.02,-81.87 111.81,-88.51"/>
</g>
<!-- n2 -->
<g id="node3" class="node">
<title>n2</title>
<path fill="#e8f4f8" stroke="black" d="M175,-36C175,-36 124,-36 124,-36 118,-36 112,-30 112,-24 112,-24 112,-12 112,-12 112,-6 118,0 124,0 124,0 175,0 175,0 181,0 187,-6 187,-12 187,-12 187,-24 187,-24 187,-30 181,-36 175,-36"/>
<text text-anchor="middle" x="149.5" y="-15.2" font-family="Helvetica" font-size="11.00">Map Data</text>
</g>
<!-- n0&#45;&gt;n2 -->
<g id="edge2" class="edge">
<title>n0&#45;&gt;n2</title>
<path fill="none" stroke="#555555" d="M54.15,-48.54C68.13,-44.01 85.78,-38.3 102.01,-33.05"/>
<polygon fill="#555555" stroke="#555555" points="103.45,-36.26 111.89,-29.85 101.3,-29.6 103.45,-36.26"/>
</g>
<!-- n3 -->
<g id="node4" class="node">
<title>n3</title>
<path fill="#ffcdd2" stroke="black" d="M334,-36C334,-36 257,-36 257,-36 251,-36 245,-30 245,-24 245,-24 245,-12 245,-12 245,-6 251,0 257,0 257,0 334,0 334,0 340,0 346,-6 346,-12 346,-12 346,-24 346,-24 346,-30 340,-36 334,-36"/>
<text text-anchor="middle" x="295.5" y="-15.2" font-family="Helvetica" font-size="11.00">Generate Error</text>
</g>
<!-- n2&#45;&gt;n3 -->
<g id="edge3" class="edge">
<title>n2&#45;&gt;n3</title>
<path fill="none" stroke="#555555" d="M187.21,-18C201.56,-18 218.41,-18 234.43,-18"/>
<polygon fill="#555555" stroke="#555555" points="234.82,-21.5 244.82,-18 234.82,-14.5 234.82,-21.5"/>
</g>
</g>
</svg>
