<?xml version="1.0" encoding="UTF-8" standalone="no"?>
<!DOCTYPE svg PUBLIC "-//W3C//DTD SVG 1.1//EN"
 "http://www.w3.org/Graphics/SVG/1.1/DTD/svg11.dtd">
<!-- Generated by graphviz version 2.44.0 (0)
 -->
<!-- Title: process Pages: 1 -->
<svg width="583pt" height="189pt"
 viewBox="0.00 0.00 583.00 189.00" xmlns="http://www.w3.org/2000/svg" xmlns:xlink="http://www.w3.org/1999/xlink">
<g id="graph0" class="graph" transform="scale(1 1) rotate(0) translate(36 153)">
<title>process</title>
<polygon fill="#ffffff" stroke="transparent" points="-36,36 -36,-153 547,-153 547,36 -36,36"/>
<!-- n0 -->
<g id="node1" class="node">
<title>n0</title>
<path fill="#c8e6c9" stroke="black" d="M42,-75C42,-75 12,-75 12,-75 6,-75 0,-69 0,-63 0,-63 0,-51 0,-51 0,-45 6,-39 12,-39 12,-39 42,-39 42,-39 48,-39 54,-45 54,-51 54,-51 54,-63 54,-63 54,-69 48,-75 42,-75"/>
<text text-anchor="middle" x="27" y="-54.2" font-family="Helvetica" font-size="11.00">Start</text>
</g>
<!-- n1 -->
<g id="node2" class="node">
<title>n1</title>
<path fill="#e8f4f8" stroke="black" d="M197,-117C197,-117 124,-117 124,-117 118,-117 112,-111 112,-105 112,-105 112,-93 112,-93 112,-87 118,-81 124,-81 124,-81 197,-81 197,-81 203,-81 209,-87 209,-93 209,-93 209,-105 209,-105 209,-111 203,-117 197,-117"/>
<text text-anchor="middle" x="160.5" y="-96.2" font-family="Helvetica" font-size="11.00">GetErrorCode</text>
</g>
<!-- n0&#45;&gt;n1 -->
<g id="edge1" class="edge">
<title>n0&#45;&gt;n1</title>
<path fill="none" stroke="#555555" d="M54.29,-65.4C68.08,-69.8 85.53,-75.38 102.24,-80.71"/>
<polygon fill="#555555" stroke="#555555" points="101.37,-84.11 111.96,-83.82 103.5,-77.44 101.37,-84.11"/>
</g>
<!-- n4 -->
<g id="node5" class="node">
<title>n4</title>
<path fill="#e8f4f8" stroke="black" d="M379,-36C379,-36 287,-36 287,-36 281,-36 275,-30 275,-24 275,-24 275,-12 275,-12 275,-6 281,0 287,0 287,0 379,0 379,0 385,0 391,-6 391,-12 391,-12 391,-24 391,-24 391,-30 385,-36 379,-36"/>
<text text-anchor="middle" x="333" y="-15.2" font-family="Helvetica" font-size="11.00">MapAnyException</text>
</g>
<!-- n0&#45;&gt;n4 -->
<g id="edge4" class="edge">
<title>n0&#45;&gt;n4</title>
<path fill="none" stroke="#555555" d="M54.18,-53.64C100.55,-47.69 198.47,-35.13 264.76,-26.63"/>
<polygon fill="#555555" stroke="#555555" points="265.24,-30.09 274.71,-25.35 264.35,-23.15 265.24,-30.09"/>
</g>
<!-- n2 -->
<g id="node3" class="node">
<title>n2</title>
<path fill="#e8f4f8" stroke="black" d="M387,-116C387,-116 279,-116 279,-116 273,-116 267,-110 267,-104 267,-104 267,-92 267,-92 267,-86 273,-80 279,-80 279,-80 387,-80 387,-80 393,-80 399,-86 399,-92 399,-92 399,-104 399,-104 399,-110 393,-116 387,-116"/>
<text text-anchor="middle" x="333" y="-95.2" font-family="Helvetica" font-size="11.00">RenderBackEndError</text>
</g>
<!-- n1&#45;&gt;n2 -->
<g id="edge2" class="edge">
<title>n1&#45;&gt;n2</title>
<path fill="none" stroke="#555555" d="M209.45,-98.72C224.07,-98.63 240.52,-98.54 256.51,-98.44"/>
<polygon fill="#555555" stroke="#555555" points="256.94,-101.94 266.92,-98.38 256.9,-94.94 256.94,-101.94"/>
</g>
<!-- n3 -->
<g id="node4" class="node">
<title>n3</title>
<path fill="#ffccbc" stroke="black" d="M499,-75C499,-75 469,-75 469,-75 463,-75 457,-69 457,-63 457,-63 457,-51 457,-51 457,-45 463,-39 469,-39 469,-39 499,-39 499,-39 505,-39 511,-45 511,-51 511,-51 511,-63 511,-63 511,-69 505,-75 499,-75"/>
<text text-anchor="middle" x="484" y="-54.2" font-family="Helvetica" font-size="11.00">End</text>
</g>
<!-- n2&#45;&gt;n3 -->
<g id="edge3" class="edge">
<title>n2&#45;&gt;n3</title>
<path fill="none" stroke="#555555" d="M399.35,-80.02C415.71,-75.52 432.67,-70.85 447,-66.91"/>
<polygon fill="#555555" stroke="#555555" points="448.22,-70.2 456.93,-64.17 446.36,-63.45 448.22,-70.2"/>
</g>
<!-- n4&#45;&gt;n3 -->
<g id="edge5" class="edge">
<title>n4&#45;&gt;n3</title>
<path fill="none" stroke="#555555" d="M391.18,-32.97C409.94,-37.88 430.25,-43.19 446.98,-47.57"/>
<polygon fill="#555555" stroke="#555555" points="446.34,-51.02 456.9,-50.17 448.11,-44.25 446.34,-51.02"/>
</g>
</g>
</svg>
