<?xml version="1.0" encoding="UTF-8" standalone="no"?>
<!DOCTYPE svg PUBLIC "-//W3C//DTD SVG 1.1//EN"
 "http://www.w3.org/Graphics/SVG/1.1/DTD/svg11.dtd">
<!-- Generated by graphviz version 2.44.0 (0)
 -->
<!-- Title: process Pages: 1 -->
<svg width="1039pt" height="303pt"
 viewBox="0.00 0.00 1039.00 303.08" xmlns="http://www.w3.org/2000/svg" xmlns:xlink="http://www.w3.org/1999/xlink">
<g id="graph0" class="graph" transform="scale(1 1) rotate(0) translate(36 267.08)">
<title>process</title>
<polygon fill="#ffffff" stroke="transparent" points="-36,36 -36,-267.08 1003,-267.08 1003,36 -36,36"/>
<!-- n0 -->
<g id="node1" class="node">
<title>n0</title>
<path fill="#e8f4f8" stroke="black" d="M222,-158C222,-158 124,-158 124,-158 118,-158 112,-152 112,-146 112,-146 112,-134 112,-134 112,-128 118,-122 124,-122 124,-122 222,-122 222,-122 228,-122 234,-128 234,-134 234,-134 234,-146 234,-146 234,-152 228,-158 222,-158"/>
<text text-anchor="middle" x="173" y="-137.2" font-family="Helvetica" font-size="11.00">OperationValidation</text>
</g>
<!-- n1 -->
<g id="node2" class="node">
<title>n1</title>
<path fill="#e8f4f8" stroke="black" d="M594,-119C594,-119 463,-119 463,-119 457,-119 451,-113 451,-107 451,-107 451,-95 451,-95 451,-89 457,-83 463,-83 463,-83 594,-83 594,-83 600,-83 606,-89 606,-95 606,-95 606,-107 606,-107 606,-113 600,-119 594,-119"/>
<text text-anchor="middle" x="528.5" y="-98.2" font-family="Helvetica" font-size="11.00">Check Validation Required</text>
</g>
<!-- n0&#45;&gt;n1 -->
<g id="edge1" class="edge">
<title>n0&#45;&gt;n1</title>
<path fill="none" stroke="#555555" d="M192.94,-158.24C214.77,-177.88 252.72,-207.94 292,-220 334.91,-233.18 351.02,-235.9 393,-220 441.83,-201.5 484.33,-156.28 507.89,-127.21"/>
<polygon fill="#555555" stroke="#555555" points="510.83,-129.13 514.3,-119.12 505.35,-124.79 510.83,-129.13"/>
</g>
<!-- n5 -->
<g id="node6" class="node">
<title>n5</title>
<path fill="#ffcdd2" stroke="black" d="M381,-198C381,-198 304,-198 304,-198 298,-198 292,-192 292,-186 292,-186 292,-174 292,-174 292,-168 298,-162 304,-162 304,-162 381,-162 381,-162 387,-162 393,-168 393,-174 393,-174 393,-186 393,-186 393,-192 387,-198 381,-198"/>
<text text-anchor="middle" x="342.5" y="-177.2" font-family="Helvetica" font-size="11.00">Generate Error</text>
</g>
<!-- n0&#45;&gt;n5 -->
<g id="edge5" class="edge">
<title>n0&#45;&gt;n5</title>
<path fill="none" stroke="#555555" d="M234.47,-154.44C249.92,-158.13 266.52,-162.09 281.93,-165.77"/>
<polygon fill="#555555" stroke="#555555" points="281.31,-169.23 291.85,-168.14 282.94,-162.42 281.31,-169.23"/>
</g>
<!-- n6 -->
<g id="node7" class="node">
<title>n6</title>
<path fill="#e8f4f8" stroke="black" d="M362.5,-119C362.5,-119 322.5,-119 322.5,-119 316.5,-119 310.5,-113 310.5,-107 310.5,-107 310.5,-95 310.5,-95 310.5,-89 316.5,-83 322.5,-83 322.5,-83 362.5,-83 362.5,-83 368.5,-83 374.5,-89 374.5,-95 374.5,-95 374.5,-107 374.5,-107 374.5,-113 368.5,-119 362.5,-119"/>
<text text-anchor="middle" x="342.5" y="-98.2" font-family="Helvetica" font-size="11.00">List BR</text>
</g>
<!-- n0&#45;&gt;n6 -->
<g id="edge6" class="edge">
<title>n0&#45;&gt;n6</title>
<path fill="none" stroke="#555555" d="M234.47,-125.92C256.34,-120.83 280.5,-115.2 300.33,-110.59"/>
<polygon fill="#555555" stroke="#555555" points="301.32,-113.95 310.26,-108.27 299.73,-107.13 301.32,-113.95"/>
</g>
<!-- n7 -->
<g id="node8" class="node">
<title>n7</title>
<path fill="#e8f4f8" stroke="black" d="M786,-119C786,-119 676,-119 676,-119 670,-119 664,-113 664,-107 664,-107 664,-95 664,-95 664,-89 670,-83 676,-83 676,-83 786,-83 786,-83 792,-83 798,-89 798,-95 798,-95 798,-107 798,-107 798,-113 792,-119 786,-119"/>
<text text-anchor="middle" x="731" y="-98.2" font-family="Helvetica" font-size="11.00">GetPartnerOperations</text>
</g>
<!-- n1&#45;&gt;n7 -->
<g id="edge8" class="edge">
<title>n1&#45;&gt;n7</title>
<path fill="none" stroke="#555555" d="M606.16,-101C621.76,-101 638.16,-101 653.75,-101"/>
<polygon fill="#555555" stroke="#555555" points="653.85,-104.5 663.85,-101 653.85,-97.5 653.85,-104.5"/>
</g>
<!-- n2 -->
<g id="node3" class="node">
<title>n2</title>
<path fill="#c8e6c9" stroke="black" d="M42,-77C42,-77 12,-77 12,-77 6,-77 0,-71 0,-65 0,-65 0,-53 0,-53 0,-47 6,-41 12,-41 12,-41 42,-41 42,-41 48,-41 54,-47 54,-53 54,-53 54,-65 54,-65 54,-71 48,-77 42,-77"/>
<text text-anchor="middle" x="27" y="-56.2" font-family="Helvetica" font-size="11.00">Start</text>
</g>
<!-- n2&#45;&gt;n0 -->
<g id="edge3" class="edge">
<title>n2&#45;&gt;n0</title>
<path fill="none" stroke="#555555" d="M54.08,-73.67C75.52,-85.73 106.28,-103.03 131.01,-116.94"/>
<polygon fill="#555555" stroke="#555555" points="129.38,-120.04 139.82,-121.9 132.82,-113.94 129.38,-120.04"/>
</g>
<!-- n3 -->
<g id="node4" class="node">
<title>n3</title>
<path fill="#e8f4f8" stroke="black" d="M558,-36C558,-36 499,-36 499,-36 493,-36 487,-30 487,-24 487,-24 487,-12 487,-12 487,-6 493,0 499,0 499,0 558,0 558,0 564,0 570,-6 570,-12 570,-12 570,-24 570,-24 570,-30 564,-36 558,-36"/>
<text text-anchor="middle" x="528.5" y="-15.2" font-family="Helvetica" font-size="11.00">WriteToLog</text>
</g>
<!-- n2&#45;&gt;n3 -->
<g id="edge2" class="edge">
<title>n2&#45;&gt;n3</title>
<path fill="none" stroke="#555555" d="M54.15,-56.85C133.41,-50.35 371.94,-30.77 476.95,-22.15"/>
<polygon fill="#555555" stroke="#555555" points="477.3,-25.63 486.98,-21.33 476.73,-18.66 477.3,-25.63"/>
</g>
<!-- n4 -->
<g id="node5" class="node">
<title>n4</title>
<path fill="#ffccbc" stroke="black" d="M926.5,-38C926.5,-38 896.5,-38 896.5,-38 890.5,-38 884.5,-32 884.5,-26 884.5,-26 884.5,-14 884.5,-14 884.5,-8 890.5,-2 896.5,-2 896.5,-2 926.5,-2 926.5,-2 932.5,-2 938.5,-8 938.5,-14 938.5,-14 938.5,-26 938.5,-26 938.5,-32 932.5,-38 926.5,-38"/>
<text text-anchor="middle" x="911.5" y="-17.2" font-family="Helvetica" font-size="11.00">End</text>
</g>
<!-- n3&#45;&gt;n4 -->
<g id="edge4" class="edge">
<title>n3&#45;&gt;n4</title>
<path fill="none" stroke="#555555" d="M570.27,-18.21C644.95,-18.61 802.57,-19.43 873.97,-19.81"/>
<polygon fill="#555555" stroke="#555555" points="874.25,-23.31 884.27,-19.86 874.28,-16.31 874.25,-23.31"/>
</g>
<!-- n6&#45;&gt;n1 -->
<g id="edge7" class="edge">
<title>n6&#45;&gt;n1</title>
<path fill="none" stroke="#555555" d="M374.71,-101C393.01,-101 417.13,-101 440.77,-101"/>
<polygon fill="#555555" stroke="#555555" points="440.86,-104.5 450.86,-101 440.86,-97.5 440.86,-104.5"/>
</g>
<!-- n7&#45;&gt;n4 -->
<g id="edge9" class="edge">
<title>n7&#45;&gt;n4</title>
<path fill="none" stroke="#555555" d="M772.06,-82.82C803.04,-68.76 845.51,-49.49 875.22,-36.01"/>
<polygon fill="#555555" stroke="#555555" points="876.72,-39.17 884.38,-31.85 873.83,-32.8 876.72,-39.17"/>
</g>
<!-- n8 -->
<g id="node9" class="node">
<title>n8</title>
<path fill="#ffcdd2" stroke="black" d="M955,-119C955,-119 868,-119 868,-119 862,-119 856,-113 856,-107 856,-107 856,-95 856,-95 856,-89 862,-83 868,-83 868,-83 955,-83 955,-83 961,-83 967,-89 967,-95 967,-95 967,-107 967,-107 967,-113 961,-119 955,-119"/>
<text text-anchor="middle" x="911.5" y="-98.2" font-family="Helvetica" font-size="11.00">Generate&#45;Error&#45;1</text>
</g>
<!-- n7&#45;&gt;n8 -->
<g id="edge10" class="edge">
<title>n7&#45;&gt;n8</title>
<path fill="none" stroke="#555555" d="M798.21,-101C813.61,-101 829.99,-101 845.34,-101"/>
<polygon fill="#555555" stroke="#555555" points="845.78,-104.5 855.78,-101 845.78,-97.5 845.78,-104.5"/>
</g>
</g>
</svg>
