<?xml version="1.0" encoding="UTF-8" standalone="no"?>
<!DOCTYPE svg PUBLIC "-//W3C//DTD SVG 1.1//EN"
 "http://www.w3.org/Graphics/SVG/1.1/DTD/svg11.dtd">
<!-- Generated by graphviz version 2.44.0 (0)
 -->
<!-- Title: process Pages: 1 -->
<svg width="2278pt" height="486pt"
 viewBox="0.00 0.00 2278.00 485.74" xmlns="http://www.w3.org/2000/svg" xmlns:xlink="http://www.w3.org/1999/xlink">
<g id="graph0" class="graph" transform="scale(1 1) rotate(0) translate(36 449.74)">
<title>process</title>
<polygon fill="#ffffff" stroke="transparent" points="-36,36 -36,-449.74 2242,-449.74 2242,36 -36,36"/>
<!-- n0 -->
<g id="node1" class="node">
<title>n0</title>
<path fill="#ffcdd2" stroke="black" d="M712,-330.74C712,-330.74 560,-330.74 560,-330.74 554,-330.74 548,-324.74 548,-318.74 548,-318.74 548,-306.74 548,-306.74 548,-300.74 554,-294.74 560,-294.74 560,-294.74 712,-294.74 712,-294.74 718,-294.74 724,-300.74 724,-306.74 724,-306.74 724,-318.74 724,-318.74 724,-324.74 718,-330.74 712,-330.74"/>
<text text-anchor="middle" x="636" y="-309.94" font-family="Helvetica" font-size="11.00">Call System Exception Handler</text>
</g>
<!-- n1 -->
<g id="node2" class="node">
<title>n1</title>
<path fill="#e8f4f8" stroke="black" d="M856,-413.74C856,-413.74 794,-413.74 794,-413.74 788,-413.74 782,-407.74 782,-401.74 782,-401.74 782,-389.74 782,-389.74 782,-383.74 788,-377.74 794,-377.74 794,-377.74 856,-377.74 856,-377.74 862,-377.74 868,-383.74 868,-389.74 868,-389.74 868,-401.74 868,-401.74 868,-407.74 862,-413.74 856,-413.74"/>
<text text-anchor="middle" x="825" y="-392.94" font-family="Helvetica" font-size="11.00">LogEnd&#45;1&#45;1</text>
</g>
<!-- n0&#45;&gt;n1 -->
<g id="edge1" class="edge">
<title>n0&#45;&gt;n1</title>
<path fill="none" stroke="#555555" d="M677.58,-330.75C705.78,-343.27 743.57,-360.04 773.69,-373.41"/>
<polygon fill="#555555" stroke="#555555" points="772.62,-376.76 783.18,-377.62 775.46,-370.37 772.62,-376.76"/>
</g>
<!-- n4 -->
<g id="node21" class="node">
<title>n4</title>
<path fill="#e8f4f8" stroke="black" d="M1848.5,-287.74C1848.5,-287.74 1802.5,-287.74 1802.5,-287.74 1796.5,-287.74 1790.5,-281.74 1790.5,-275.74 1790.5,-275.74 1790.5,-263.74 1790.5,-263.74 1790.5,-257.74 1796.5,-251.74 1802.5,-251.74 1802.5,-251.74 1848.5,-251.74 1848.5,-251.74 1854.5,-251.74 1860.5,-257.74 1860.5,-263.74 1860.5,-263.74 1860.5,-275.74 1860.5,-275.74 1860.5,-281.74 1854.5,-287.74 1848.5,-287.74"/>
<text text-anchor="middle" x="1825.5" y="-266.94" font-family="Helvetica" font-size="11.00">LogFatal</text>
</g>
<!-- n0&#45;&gt;n4 -->
<g id="edge3" class="edge">
<title>n0&#45;&gt;n4</title>
<path fill="none" stroke="#555555" d="M724.22,-312.74C794.29,-312.74 895.22,-312.74 983.5,-312.74 983.5,-312.74 983.5,-312.74 1402,-312.74 1540.55,-312.74 1703.34,-289.57 1780.14,-277.25"/>
<polygon fill="#555555" stroke="#555555" points="1781.08,-280.64 1790.39,-275.58 1779.96,-273.73 1781.08,-280.64"/>
</g>
<!-- n20 -->
<g id="node14" class="node">
<title>n20</title>
<path fill="#e8f4f8" stroke="black" d="M1031,-413.74C1031,-413.74 938,-413.74 938,-413.74 932,-413.74 926,-407.74 926,-401.74 926,-401.74 926,-389.74 926,-389.74 926,-383.74 932,-377.74 938,-377.74 938,-377.74 1031,-377.74 1031,-377.74 1037,-377.74 1043,-383.74 1043,-389.74 1043,-389.74 1043,-401.74 1043,-401.74 1043,-407.74 1037,-413.74 1031,-413.74"/>
<text text-anchor="middle" x="984.5" y="-392.94" font-family="Helvetica" font-size="11.00">SendSOAPFault&#45;1</text>
</g>
<!-- n1&#45;&gt;n20 -->
<g id="edge19" class="edge">
<title>n1&#45;&gt;n20</title>
<path fill="none" stroke="#555555" d="M868.21,-395.74C882.71,-395.74 899.33,-395.74 915.36,-395.74"/>
<polygon fill="#555555" stroke="#555555" points="915.78,-399.24 925.78,-395.74 915.78,-392.24 915.78,-399.24"/>
</g>
<!-- n10 -->
<g id="node3" class="node">
<title>n10</title>
<path fill="#e8f4f8" stroke="black" d="M1022,-160.74C1022,-160.74 947,-160.74 947,-160.74 941,-160.74 935,-154.74 935,-148.74 935,-148.74 935,-136.74 935,-136.74 935,-130.74 941,-124.74 947,-124.74 947,-124.74 1022,-124.74 1022,-124.74 1028,-124.74 1034,-130.74 1034,-136.74 1034,-136.74 1034,-148.74 1034,-148.74 1034,-154.74 1028,-160.74 1022,-160.74"/>
<text text-anchor="middle" x="984.5" y="-139.94" font-family="Helvetica" font-size="11.00">CheckRequest</text>
</g>
<!-- n2 -->
<g id="node13" class="node">
<title>n2</title>
<path fill="#ffcdd2" stroke="black" d="M1477,-164.74C1477,-164.74 1325,-164.74 1325,-164.74 1319,-164.74 1313,-158.74 1313,-152.74 1313,-152.74 1313,-140.74 1313,-140.74 1313,-134.74 1319,-128.74 1325,-128.74 1325,-128.74 1477,-128.74 1477,-128.74 1483,-128.74 1489,-134.74 1489,-140.74 1489,-140.74 1489,-152.74 1489,-152.74 1489,-158.74 1483,-164.74 1477,-164.74"/>
<text text-anchor="middle" x="1401" y="-143.94" font-family="Helvetica" font-size="11.00">Call Service Exception Handler</text>
</g>
<!-- n10&#45;&gt;n2 -->
<g id="edge21" class="edge">
<title>n10&#45;&gt;n2</title>
<path fill="none" stroke="#555555" d="M1034.27,-143.21C1099.97,-143.84 1218.39,-144.99 1302.67,-145.8"/>
<polygon fill="#555555" stroke="#555555" points="1302.74,-149.3 1312.77,-145.9 1302.81,-142.3 1302.74,-149.3"/>
</g>
<!-- n6 -->
<g id="node23" class="node">
<title>n6</title>
<path fill="#e8f4f8" stroke="black" d="M1243,-77.74C1243,-77.74 1113,-77.74 1113,-77.74 1107,-77.74 1101,-71.74 1101,-65.74 1101,-65.74 1101,-53.74 1101,-53.74 1101,-47.74 1107,-41.74 1113,-41.74 1113,-41.74 1243,-41.74 1243,-41.74 1249,-41.74 1255,-47.74 1255,-53.74 1255,-53.74 1255,-65.74 1255,-65.74 1255,-71.74 1249,-77.74 1243,-77.74"/>
<text text-anchor="middle" x="1178" y="-56.94" font-family="Helvetica" font-size="11.00">Call Service Main Process</text>
</g>
<!-- n10&#45;&gt;n6 -->
<g id="edge20" class="edge">
<title>n10&#45;&gt;n6</title>
<path fill="none" stroke="#555555" d="M1027.05,-124.73C1056.06,-112.16 1094.97,-95.29 1125.88,-81.9"/>
<polygon fill="#555555" stroke="#555555" points="1127.41,-85.05 1135.2,-77.86 1124.63,-78.62 1127.41,-85.05"/>
</g>
<!-- n11 -->
<g id="node4" class="node">
<title>n11</title>
<path fill="#e8f4f8" stroke="black" d="M2051.5,-127.74C2051.5,-127.74 2009.5,-127.74 2009.5,-127.74 2003.5,-127.74 1997.5,-121.74 1997.5,-115.74 1997.5,-115.74 1997.5,-103.74 1997.5,-103.74 1997.5,-97.74 2003.5,-91.74 2009.5,-91.74 2009.5,-91.74 2051.5,-91.74 2051.5,-91.74 2057.5,-91.74 2063.5,-97.74 2063.5,-103.74 2063.5,-103.74 2063.5,-115.74 2063.5,-115.74 2063.5,-121.74 2057.5,-127.74 2051.5,-127.74"/>
<text text-anchor="middle" x="2030.5" y="-106.94" font-family="Helvetica" font-size="11.00">LogEnd</text>
</g>
<!-- n12 -->
<g id="node5" class="node">
<title>n12</title>
<path fill="#ffccbc" stroke="black" d="M2194,-127.74C2194,-127.74 2164,-127.74 2164,-127.74 2158,-127.74 2152,-121.74 2152,-115.74 2152,-115.74 2152,-103.74 2152,-103.74 2152,-97.74 2158,-91.74 2164,-91.74 2164,-91.74 2194,-91.74 2194,-91.74 2200,-91.74 2206,-97.74 2206,-103.74 2206,-103.74 2206,-115.74 2206,-115.74 2206,-121.74 2200,-127.74 2194,-127.74"/>
<text text-anchor="middle" x="2179" y="-106.94" font-family="Helvetica" font-size="11.00">End</text>
</g>
<!-- n11&#45;&gt;n12 -->
<g id="edge10" class="edge">
<title>n11&#45;&gt;n12</title>
<path fill="none" stroke="#555555" d="M2063.65,-109.74C2086.69,-109.74 2117.75,-109.74 2141.68,-109.74"/>
<polygon fill="#555555" stroke="#555555" points="2141.79,-113.24 2151.79,-109.74 2141.79,-106.24 2141.79,-113.24"/>
</g>
<!-- n13 -->
<g id="node6" class="node">
<title>n13</title>
<path fill="#e8f4f8" stroke="black" d="M1897,-168.74C1897,-168.74 1754,-168.74 1754,-168.74 1748,-168.74 1742,-162.74 1742,-156.74 1742,-156.74 1742,-144.74 1742,-144.74 1742,-138.74 1748,-132.74 1754,-132.74 1754,-132.74 1897,-132.74 1897,-132.74 1903,-132.74 1909,-138.74 1909,-144.74 1909,-144.74 1909,-156.74 1909,-156.74 1909,-162.74 1903,-168.74 1897,-168.74"/>
<text text-anchor="middle" x="1825.5" y="-147.94" font-family="Helvetica" font-size="11.00">GenerateResponseHeader&#45;1</text>
</g>
<!-- n13&#45;&gt;n11 -->
<g id="edge12" class="edge">
<title>n13&#45;&gt;n11</title>
<path fill="none" stroke="#555555" d="M1909.07,-134.06C1936.01,-128.62 1964.79,-122.81 1987.46,-118.23"/>
<polygon fill="#555555" stroke="#555555" points="1988.31,-121.63 1997.42,-116.22 1986.92,-114.77 1988.31,-121.63"/>
</g>
<!-- n14 -->
<g id="node7" class="node">
<title>n14</title>
<path fill="#c8e6c9" stroke="black" d="M42,-282.74C42,-282.74 12,-282.74 12,-282.74 6,-282.74 0,-276.74 0,-270.74 0,-270.74 0,-258.74 0,-258.74 0,-252.74 6,-246.74 12,-246.74 12,-246.74 42,-246.74 42,-246.74 48,-246.74 54,-252.74 54,-258.74 54,-258.74 54,-270.74 54,-270.74 54,-276.74 48,-282.74 42,-282.74"/>
<text text-anchor="middle" x="27" y="-261.94" font-family="Helvetica" font-size="11.00">Start</text>
</g>
<!-- n15 -->
<g id="node8" class="node">
<title>n15</title>
<path fill="#e8f4f8" stroke="black" d="M265,-324.74C265,-324.74 124,-324.74 124,-324.74 118,-324.74 112,-318.74 112,-312.74 112,-312.74 112,-300.74 112,-300.74 112,-294.74 118,-288.74 124,-288.74 124,-288.74 265,-288.74 265,-288.74 271,-288.74 277,-294.74 277,-300.74 277,-300.74 277,-312.74 277,-312.74 277,-318.74 271,-324.74 265,-324.74"/>
<text text-anchor="middle" x="194.5" y="-303.94" font-family="Helvetica" font-size="11.00">GenerateInvocationDetails&#45;1</text>
</g>
<!-- n14&#45;&gt;n15 -->
<g id="edge13" class="edge">
<title>n14&#45;&gt;n15</title>
<path fill="none" stroke="#555555" d="M54.22,-271.4C70.19,-275.45 91.53,-280.86 112.71,-286.24"/>
<polygon fill="#555555" stroke="#555555" points="111.85,-289.63 122.4,-288.7 113.57,-282.85 111.85,-289.63"/>
</g>
<!-- n21 -->
<g id="node15" class="node">
<title>n21</title>
<path fill="#e8f4f8" stroke="black" d="M252.5,-243.74C252.5,-243.74 136.5,-243.74 136.5,-243.74 130.5,-243.74 124.5,-237.74 124.5,-231.74 124.5,-231.74 124.5,-219.74 124.5,-219.74 124.5,-213.74 130.5,-207.74 136.5,-207.74 136.5,-207.74 252.5,-207.74 252.5,-207.74 258.5,-207.74 264.5,-213.74 264.5,-219.74 264.5,-219.74 264.5,-231.74 264.5,-231.74 264.5,-237.74 258.5,-243.74 252.5,-243.74"/>
<text text-anchor="middle" x="194.5" y="-222.94" font-family="Helvetica" font-size="11.00">GetBusinessResources</text>
</g>
<!-- n14&#45;&gt;n21 -->
<g id="edge22" class="edge">
<title>n14&#45;&gt;n21</title>
<path fill="none" stroke="#555555" d="M54.22,-258.56C70.59,-254.71 92.59,-249.52 114.28,-244.41"/>
<polygon fill="#555555" stroke="#555555" points="115.27,-247.77 124.2,-242.07 113.66,-240.96 115.27,-247.77"/>
</g>
<!-- n17 -->
<g id="node10" class="node">
<title>n17</title>
<path fill="#e8f4f8" stroke="black" d="M436,-328.74C436,-328.74 389,-328.74 389,-328.74 383,-328.74 377,-322.74 377,-316.74 377,-316.74 377,-304.74 377,-304.74 377,-298.74 383,-292.74 389,-292.74 389,-292.74 436,-292.74 436,-292.74 442,-292.74 448,-298.74 448,-304.74 448,-304.74 448,-316.74 448,-316.74 448,-322.74 442,-328.74 436,-328.74"/>
<text text-anchor="middle" x="412.5" y="-307.94" font-family="Helvetica" font-size="11.00">Assign&#45;1</text>
</g>
<!-- n15&#45;&gt;n17 -->
<g id="edge24" class="edge">
<title>n15&#45;&gt;n17</title>
<path fill="none" stroke="#555555" d="M277.16,-308.25C307.51,-308.81 340.81,-309.43 366.66,-309.91"/>
<polygon fill="#555555" stroke="#555555" points="366.83,-313.41 376.9,-310.1 366.96,-306.41 366.83,-313.41"/>
</g>
<!-- n16 -->
<g id="node9" class="node">
<title>n16</title>
<path fill="#e8f4f8" stroke="black" d="M654.5,-161.74C654.5,-161.74 617.5,-161.74 617.5,-161.74 611.5,-161.74 605.5,-155.74 605.5,-149.74 605.5,-149.74 605.5,-137.74 605.5,-137.74 605.5,-131.74 611.5,-125.74 617.5,-125.74 617.5,-125.74 654.5,-125.74 654.5,-125.74 660.5,-125.74 666.5,-131.74 666.5,-137.74 666.5,-137.74 666.5,-149.74 666.5,-149.74 666.5,-155.74 660.5,-161.74 654.5,-161.74"/>
<text text-anchor="middle" x="636" y="-140.94" font-family="Helvetica" font-size="11.00">Assign</text>
</g>
<!-- n9 -->
<g id="node26" class="node">
<title>n9</title>
<path fill="#e8f4f8" stroke="black" d="M848,-160.74C848,-160.74 802,-160.74 802,-160.74 796,-160.74 790,-154.74 790,-148.74 790,-148.74 790,-136.74 790,-136.74 790,-130.74 796,-124.74 802,-124.74 802,-124.74 848,-124.74 848,-124.74 854,-124.74 860,-130.74 860,-136.74 860,-136.74 860,-148.74 860,-148.74 860,-154.74 854,-160.74 848,-160.74"/>
<text text-anchor="middle" x="825" y="-139.94" font-family="Helvetica" font-size="11.00">LogStart</text>
</g>
<!-- n16&#45;&gt;n9 -->
<g id="edge15" class="edge">
<title>n16&#45;&gt;n9</title>
<path fill="none" stroke="#555555" d="M666.63,-143.58C696.96,-143.42 744.47,-143.17 779.36,-142.98"/>
<polygon fill="#555555" stroke="#555555" points="779.77,-146.48 789.75,-142.92 779.73,-139.48 779.77,-146.48"/>
</g>
<!-- n17&#45;&gt;n0 -->
<g id="edge16" class="edge">
<title>n17&#45;&gt;n0</title>
<path fill="none" stroke="#555555" d="M448.11,-311.05C472.15,-311.27 505.48,-311.57 537.34,-311.86"/>
<polygon fill="#555555" stroke="#555555" points="537.59,-315.36 547.62,-311.95 537.65,-308.36 537.59,-315.36"/>
</g>
<!-- n18 -->
<g id="node11" class="node">
<title>n18</title>
<path fill="#e8f4f8" stroke="black" d="M1641.5,-89.74C1641.5,-89.74 1589.5,-89.74 1589.5,-89.74 1583.5,-89.74 1577.5,-83.74 1577.5,-77.74 1577.5,-77.74 1577.5,-65.74 1577.5,-65.74 1577.5,-59.74 1583.5,-53.74 1589.5,-53.74 1589.5,-53.74 1641.5,-53.74 1641.5,-53.74 1647.5,-53.74 1653.5,-59.74 1653.5,-65.74 1653.5,-65.74 1653.5,-77.74 1653.5,-77.74 1653.5,-83.74 1647.5,-89.74 1641.5,-89.74"/>
<text text-anchor="middle" x="1615.5" y="-68.94" font-family="Helvetica" font-size="11.00">LogEnd&#45;1</text>
</g>
<!-- n19 -->
<g id="node12" class="node">
<title>n19</title>
<path fill="#e8f4f8" stroke="black" d="M1867,-89.74C1867,-89.74 1784,-89.74 1784,-89.74 1778,-89.74 1772,-83.74 1772,-77.74 1772,-77.74 1772,-65.74 1772,-65.74 1772,-59.74 1778,-53.74 1784,-53.74 1784,-53.74 1867,-53.74 1867,-53.74 1873,-53.74 1879,-59.74 1879,-65.74 1879,-65.74 1879,-77.74 1879,-77.74 1879,-83.74 1873,-89.74 1867,-89.74"/>
<text text-anchor="middle" x="1825.5" y="-68.94" font-family="Helvetica" font-size="11.00">SendSOAPFault</text>
</g>
<!-- n18&#45;&gt;n19 -->
<g id="edge18" class="edge">
<title>n18&#45;&gt;n19</title>
<path fill="none" stroke="#555555" d="M1653.69,-71.74C1683.57,-71.74 1726.22,-71.74 1761.43,-71.74"/>
<polygon fill="#555555" stroke="#555555" points="1761.62,-75.24 1771.62,-71.74 1761.62,-68.24 1761.62,-75.24"/>
</g>
<!-- n2&#45;&gt;n18 -->
<g id="edge17" class="edge">
<title>n2&#45;&gt;n18</title>
<path fill="none" stroke="#555555" d="M1453.17,-128.68C1488.04,-116.37 1533.86,-100.2 1567.75,-88.24"/>
<polygon fill="#555555" stroke="#555555" points="1569.16,-91.46 1577.42,-84.83 1566.83,-84.85 1569.16,-91.46"/>
</g>
<!-- n3 -->
<g id="node20" class="node">
<title>n3</title>
<path fill="#e8f4f8" stroke="black" d="M1672,-168.74C1672,-168.74 1559,-168.74 1559,-168.74 1553,-168.74 1547,-162.74 1547,-156.74 1547,-156.74 1547,-144.74 1547,-144.74 1547,-138.74 1553,-132.74 1559,-132.74 1559,-132.74 1672,-132.74 1672,-132.74 1678,-132.74 1684,-138.74 1684,-144.74 1684,-144.74 1684,-156.74 1684,-156.74 1684,-162.74 1678,-168.74 1672,-168.74"/>
<text text-anchor="middle" x="1615.5" y="-147.94" font-family="Helvetica" font-size="11.00">RenderErrorResponse</text>
</g>
<!-- n2&#45;&gt;n3 -->
<g id="edge2" class="edge">
<title>n2&#45;&gt;n3</title>
<path fill="none" stroke="#555555" d="M1489.05,-148.38C1504.84,-148.68 1521.22,-148.98 1536.73,-149.28"/>
<polygon fill="#555555" stroke="#555555" points="1536.72,-152.78 1546.78,-149.47 1536.85,-145.78 1536.72,-152.78"/>
</g>
<!-- n5 -->
<g id="node22" class="node">
<title>n5</title>
<path fill="#e8f4f8" stroke="black" d="M1632,-247.74C1632,-247.74 1599,-247.74 1599,-247.74 1593,-247.74 1587,-241.74 1587,-235.74 1587,-235.74 1587,-223.74 1587,-223.74 1587,-217.74 1593,-211.74 1599,-211.74 1599,-211.74 1632,-211.74 1632,-211.74 1638,-211.74 1644,-217.74 1644,-223.74 1644,-223.74 1644,-235.74 1644,-235.74 1644,-241.74 1638,-247.74 1632,-247.74"/>
<text text-anchor="middle" x="1615.5" y="-226.94" font-family="Helvetica" font-size="11.00">Null&#45;1</text>
</g>
<!-- n2&#45;&gt;n5 -->
<g id="edge4" class="edge">
<title>n2&#45;&gt;n5</title>
<path fill="none" stroke="#555555" d="M1448.11,-164.75C1486.83,-179.87 1541.43,-201.2 1577.38,-215.24"/>
<polygon fill="#555555" stroke="#555555" points="1576.41,-218.62 1586.99,-219 1578.95,-212.1 1576.41,-218.62"/>
</g>
<!-- n22 -->
<g id="node16" class="node">
<title>n22</title>
<path fill="#e8f4f8" stroke="black" d="M478,-162.74C478,-162.74 347,-162.74 347,-162.74 341,-162.74 335,-156.74 335,-150.74 335,-150.74 335,-138.74 335,-138.74 335,-132.74 341,-126.74 347,-126.74 347,-126.74 478,-126.74 478,-126.74 484,-126.74 490,-132.74 490,-138.74 490,-138.74 490,-150.74 490,-150.74 490,-156.74 484,-162.74 478,-162.74"/>
<text text-anchor="middle" x="412.5" y="-141.94" font-family="Helvetica" font-size="11.00">GenerateInvocationDetails</text>
</g>
<!-- n21&#45;&gt;n22 -->
<g id="edge25" class="edge">
<title>n21&#45;&gt;n22</title>
<path fill="none" stroke="#555555" d="M243.71,-207.66C276.32,-195.43 319.57,-179.22 353.98,-166.31"/>
<polygon fill="#555555" stroke="#555555" points="355.31,-169.55 363.44,-162.76 352.85,-163 355.31,-169.55"/>
</g>
<!-- n23 -->
<g id="node17" class="node">
<title>n23</title>
<path fill="#e8f4f8" stroke="black" d="M458.5,-243.74C458.5,-243.74 366.5,-243.74 366.5,-243.74 360.5,-243.74 354.5,-237.74 354.5,-231.74 354.5,-231.74 354.5,-219.74 354.5,-219.74 354.5,-213.74 360.5,-207.74 366.5,-207.74 366.5,-207.74 458.5,-207.74 458.5,-207.74 464.5,-207.74 470.5,-213.74 470.5,-219.74 470.5,-219.74 470.5,-231.74 470.5,-231.74 470.5,-237.74 464.5,-243.74 458.5,-243.74"/>
<text text-anchor="middle" x="412.5" y="-222.94" font-family="Helvetica" font-size="11.00">MapAnyException</text>
</g>
<!-- n21&#45;&gt;n23 -->
<g id="edge26" class="edge">
<title>n21&#45;&gt;n23</title>
<path fill="none" stroke="#555555" d="M264.74,-225.74C290.11,-225.74 318.78,-225.74 344.01,-225.74"/>
<polygon fill="#555555" stroke="#555555" points="344.22,-229.24 354.22,-225.74 344.22,-222.24 344.22,-229.24"/>
</g>
<!-- n22&#45;&gt;n16 -->
<g id="edge23" class="edge">
<title>n22&#45;&gt;n16</title>
<path fill="none" stroke="#555555" d="M490.04,-144.39C525.45,-144.23 566.04,-144.05 595.25,-143.92"/>
<polygon fill="#555555" stroke="#555555" points="595.48,-147.42 605.46,-143.87 595.45,-140.42 595.48,-147.42"/>
</g>
<!-- n24 -->
<g id="node18" class="node">
<title>n24</title>
<path fill="#e8f4f8" stroke="black" d="M711.5,-243.74C711.5,-243.74 560.5,-243.74 560.5,-243.74 554.5,-243.74 548.5,-237.74 548.5,-231.74 548.5,-231.74 548.5,-219.74 548.5,-219.74 548.5,-213.74 554.5,-207.74 560.5,-207.74 560.5,-207.74 711.5,-207.74 711.5,-207.74 717.5,-207.74 723.5,-213.74 723.5,-219.74 723.5,-219.74 723.5,-231.74 723.5,-231.74 723.5,-237.74 717.5,-243.74 711.5,-243.74"/>
<text text-anchor="middle" x="636" y="-222.94" font-family="Helvetica" font-size="11.00">GenerateInvocationDetails&#45;1&#45;1</text>
</g>
<!-- n23&#45;&gt;n24 -->
<g id="edge27" class="edge">
<title>n23&#45;&gt;n24</title>
<path fill="none" stroke="#555555" d="M470.54,-225.74C491.2,-225.74 515.14,-225.74 538.26,-225.74"/>
<polygon fill="#555555" stroke="#555555" points="538.46,-229.24 548.46,-225.74 538.46,-222.24 538.46,-229.24"/>
</g>
<!-- n25 -->
<g id="node19" class="node">
<title>n25</title>
<path fill="#e8f4f8" stroke="black" d="M1206,-243.74C1206,-243.74 1150,-243.74 1150,-243.74 1144,-243.74 1138,-237.74 1138,-231.74 1138,-231.74 1138,-219.74 1138,-219.74 1138,-213.74 1144,-207.74 1150,-207.74 1150,-207.74 1206,-207.74 1206,-207.74 1212,-207.74 1218,-213.74 1218,-219.74 1218,-219.74 1218,-231.74 1218,-231.74 1218,-237.74 1212,-243.74 1206,-243.74"/>
<text text-anchor="middle" x="1178" y="-222.94" font-family="Helvetica" font-size="11.00">Assign&#45;1&#45;1</text>
</g>
<!-- n24&#45;&gt;n25 -->
<g id="edge28" class="edge">
<title>n24&#45;&gt;n25</title>
<path fill="none" stroke="#555555" d="M723.76,-225.74C838.3,-225.74 1036.15,-225.74 1127.79,-225.74"/>
<polygon fill="#555555" stroke="#555555" points="1127.9,-229.24 1137.9,-225.74 1127.9,-222.24 1127.9,-229.24"/>
</g>
<!-- n25&#45;&gt;n2 -->
<g id="edge29" class="edge">
<title>n25&#45;&gt;n2</title>
<path fill="none" stroke="#555555" d="M1218,-211.8C1251.7,-199.75 1300.95,-182.15 1339.72,-168.29"/>
<polygon fill="#555555" stroke="#555555" points="1341.1,-171.51 1349.33,-164.85 1338.74,-164.92 1341.1,-171.51"/>
</g>
<!-- n3&#45;&gt;n13 -->
<g id="edge11" class="edge">
<title>n3&#45;&gt;n13</title>
<path fill="none" stroke="#555555" d="M1684.03,-150.74C1699.11,-150.74 1715.37,-150.74 1731.28,-150.74"/>
<polygon fill="#555555" stroke="#555555" points="1731.68,-154.24 1741.68,-150.74 1731.68,-147.24 1731.68,-154.24"/>
</g>
<!-- n8 -->
<g id="node25" class="node">
<title>n8</title>
<path fill="#e8f4f8" stroke="black" d="M2082,-287.74C2082,-287.74 1979,-287.74 1979,-287.74 1973,-287.74 1967,-281.74 1967,-275.74 1967,-275.74 1967,-263.74 1967,-263.74 1967,-257.74 1973,-251.74 1979,-251.74 1979,-251.74 2082,-251.74 2082,-251.74 2088,-251.74 2094,-257.74 2094,-263.74 2094,-263.74 2094,-275.74 2094,-275.74 2094,-281.74 2088,-287.74 2082,-287.74"/>
<text text-anchor="middle" x="2030.5" y="-266.94" font-family="Helvetica" font-size="11.00">SendSOAPFault&#45;1&#45;1</text>
</g>
<!-- n4&#45;&gt;n8 -->
<g id="edge8" class="edge">
<title>n4&#45;&gt;n8</title>
<path fill="none" stroke="#555555" d="M1860.94,-269.74C1887.07,-269.74 1923.93,-269.74 1956.52,-269.74"/>
<polygon fill="#555555" stroke="#555555" points="1956.94,-273.24 1966.94,-269.74 1956.94,-266.24 1956.94,-273.24"/>
</g>
<!-- n5&#45;&gt;n4 -->
<g id="edge5" class="edge">
<title>n5&#45;&gt;n4</title>
<path fill="none" stroke="#555555" d="M1644.12,-235.05C1678.86,-241.73 1738.94,-253.29 1780.15,-261.21"/>
<polygon fill="#555555" stroke="#555555" points="1779.71,-264.69 1790.19,-263.14 1781.03,-257.82 1779.71,-264.69"/>
</g>
<!-- n6&#45;&gt;n2 -->
<g id="edge7" class="edge">
<title>n6&#45;&gt;n2</title>
<path fill="none" stroke="#555555" d="M1224.79,-77.77C1259.61,-91.47 1307.66,-110.39 1344.64,-124.95"/>
<polygon fill="#555555" stroke="#555555" points="1343.68,-128.33 1354.27,-128.74 1346.24,-121.82 1343.68,-128.33"/>
</g>
<!-- n7 -->
<g id="node24" class="node">
<title>n7</title>
<path fill="#e8f4f8" stroke="black" d="M1468,-41.74C1468,-41.74 1334,-41.74 1334,-41.74 1328,-41.74 1322,-35.74 1322,-29.74 1322,-29.74 1322,-17.74 1322,-17.74 1322,-11.74 1328,-5.74 1334,-5.74 1334,-5.74 1468,-5.74 1468,-5.74 1474,-5.74 1480,-11.74 1480,-17.74 1480,-17.74 1480,-29.74 1480,-29.74 1480,-35.74 1474,-41.74 1468,-41.74"/>
<text text-anchor="middle" x="1401" y="-20.94" font-family="Helvetica" font-size="11.00">GenerateResponseHeader</text>
</g>
<!-- n6&#45;&gt;n7 -->
<g id="edge6" class="edge">
<title>n6&#45;&gt;n7</title>
<path fill="none" stroke="#555555" d="M1255.06,-47.35C1273.37,-44.37 1293.08,-41.16 1311.89,-38.09"/>
<polygon fill="#555555" stroke="#555555" points="1312.62,-41.52 1321.93,-36.46 1311.49,-34.61 1312.62,-41.52"/>
</g>
<!-- n7&#45;&gt;n11 -->
<g id="edge14" class="edge">
<title>n7&#45;&gt;n11</title>
<path fill="none" stroke="#555555" d="M1480.06,-11.91C1581.41,0.53 1762.66,12.75 1909,-31.74 1944.04,-42.39 1978.56,-66.52 2001.61,-85.14"/>
<polygon fill="#555555" stroke="#555555" points="1999.62,-88.04 2009.56,-91.71 2004.08,-82.64 1999.62,-88.04"/>
</g>
<!-- n9&#45;&gt;n10 -->
<g id="edge9" class="edge">
<title>n9&#45;&gt;n10</title>
<path fill="none" stroke="#555555" d="M860.18,-142.74C879,-142.74 902.89,-142.74 924.62,-142.74"/>
<polygon fill="#555555" stroke="#555555" points="924.75,-146.24 934.75,-142.74 924.75,-139.24 924.75,-146.24"/>
</g>
</g>
</svg>
