<?xml version="1.0" encoding="UTF-8" standalone="no"?>
<!DOCTYPE svg PUBLIC "-//W3C//DTD SVG 1.1//EN"
 "http://www.w3.org/Graphics/SVG/1.1/DTD/svg11.dtd">
<!-- Generated by graphviz version 2.44.0 (0)
 -->
<!-- Title: process Pages: 1 -->
<svg width="976pt" height="108pt"
 viewBox="0.00 0.00 976.00 108.00" xmlns="http://www.w3.org/2000/svg" xmlns:xlink="http://www.w3.org/1999/xlink">
<g id="graph0" class="graph" transform="scale(1 1) rotate(0) translate(36 72)">
<title>process</title>
<polygon fill="#ffffff" stroke="transparent" points="-36,36 -36,-72 940,-72 940,36 -36,36"/>
<!-- n0 -->
<g id="node1" class="node">
<title>n0</title>
<path fill="#e8f4f8" stroke="black" d="M193,-36C193,-36 124,-36 124,-36 118,-36 112,-30 112,-24 112,-24 112,-12 112,-12 112,-6 118,0 124,0 124,0 193,0 193,0 199,0 205,-6 205,-12 205,-12 205,-24 205,-24 205,-30 199,-36 193,-36"/>
<text text-anchor="middle" x="158.5" y="-15.2" font-family="Helvetica" font-size="11.00">Prepare Data</text>
</g>
<!-- n1 -->
<g id="node2" class="node">
<title>n1</title>
<path fill="#ffcdd2" stroke="black" d="M403,-36C403,-36 275,-36 275,-36 269,-36 263,-30 263,-24 263,-24 263,-12 263,-12 263,-6 269,0 275,0 275,0 403,0 403,0 409,0 415,-6 415,-12 415,-12 415,-24 415,-24 415,-30 409,-36 403,-36"/>
<text text-anchor="middle" x="339" y="-15.2" font-family="Helvetica" font-size="11.00">BindException&#45;Error&#45;Data</text>
</g>
<!-- n0&#45;&gt;n1 -->
<g id="edge1" class="edge">
<title>n0&#45;&gt;n1</title>
<path fill="none" stroke="#555555" d="M205,-18C219.55,-18 236.15,-18 252.57,-18"/>
<polygon fill="#555555" stroke="#555555" points="252.76,-21.5 262.76,-18 252.76,-14.5 252.76,-21.5"/>
</g>
<!-- n2 -->
<g id="node3" class="node">
<title>n2</title>
<path fill="#ffcdd2" stroke="black" d="M582,-36C582,-36 485,-36 485,-36 479,-36 473,-30 473,-24 473,-24 473,-12 473,-12 473,-6 479,0 485,0 485,0 582,0 582,0 588,0 594,-6 594,-12 594,-12 594,-24 594,-24 594,-30 588,-36 582,-36"/>
<text text-anchor="middle" x="533.5" y="-15.2" font-family="Helvetica" font-size="11.00">Prepare Error Data</text>
</g>
<!-- n1&#45;&gt;n2 -->
<g id="edge3" class="edge">
<title>n1&#45;&gt;n2</title>
<path fill="none" stroke="#555555" d="M415.25,-18C430.76,-18 447.03,-18 462.35,-18"/>
<polygon fill="#555555" stroke="#555555" points="462.78,-21.5 472.78,-18 462.78,-14.5 462.78,-21.5"/>
</g>
<!-- n3 -->
<g id="node4" class="node">
<title>n3</title>
<path fill="#e8f4f8" stroke="black" d="M780,-36C780,-36 664,-36 664,-36 658,-36 652,-30 652,-24 652,-24 652,-12 652,-12 652,-6 658,0 664,0 664,0 780,0 780,0 786,0 792,-6 792,-12 792,-12 792,-24 792,-24 792,-30 786,-36 780,-36"/>
<text text-anchor="middle" x="722" y="-15.2" font-family="Helvetica" font-size="11.00">ExceptionSchemaFilter</text>
</g>
<!-- n2&#45;&gt;n3 -->
<g id="edge2" class="edge">
<title>n2&#45;&gt;n3</title>
<path fill="none" stroke="#555555" d="M594.02,-18C609.15,-18 625.65,-18 641.59,-18"/>
<polygon fill="#555555" stroke="#555555" points="641.97,-21.5 651.97,-18 641.97,-14.5 641.97,-21.5"/>
</g>
<!-- n4 -->
<g id="node5" class="node">
<title>n4</title>
<path fill="#ffccbc" stroke="black" d="M892,-36C892,-36 862,-36 862,-36 856,-36 850,-30 850,-24 850,-24 850,-12 850,-12 850,-6 856,0 862,0 862,0 892,0 892,0 898,0 904,-6 904,-12 904,-12 904,-24 904,-24 904,-30 898,-36 892,-36"/>
<text text-anchor="middle" x="877" y="-15.2" font-family="Helvetica" font-size="11.00">End</text>
</g>
<!-- n3&#45;&gt;n4 -->
<g id="edge4" class="edge">
<title>n3&#45;&gt;n4</title>
<path fill="none" stroke="#555555" d="M792.34,-18C808.59,-18 825.28,-18 839.44,-18"/>
<polygon fill="#555555" stroke="#555555" points="839.72,-21.5 849.72,-18 839.72,-14.5 839.72,-21.5"/>
</g>
<!-- n5 -->
<g id="node6" class="node">
<title>n5</title>
<path fill="#c8e6c9" stroke="black" d="M42,-36C42,-36 12,-36 12,-36 6,-36 0,-30 0,-24 0,-24 0,-12 0,-12 0,-6 6,0 12,0 12,0 42,0 42,0 48,0 54,-6 54,-12 54,-12 54,-24 54,-24 54,-30 48,-36 42,-36"/>
<text text-anchor="middle" x="27" y="-15.2" font-family="Helvetica" font-size="11.00">Start</text>
</g>
<!-- n5&#45;&gt;n0 -->
<g id="edge5" class="edge">
<title>n5&#45;&gt;n0</title>
<path fill="none" stroke="#555555" d="M54.21,-18C67.92,-18 85.25,-18 101.78,-18"/>
<polygon fill="#555555" stroke="#555555" points="101.93,-21.5 111.93,-18 101.93,-14.5 101.93,-21.5"/>
</g>
</g>
</svg>
