<?xml version="1.0" encoding="UTF-8" standalone="no"?>
<!DOCTYPE svg PUBLIC "-//W3C//DTD SVG 1.1//EN"
 "http://www.w3.org/Graphics/SVG/1.1/DTD/svg11.dtd">
<!-- Generated by graphviz version 2.44.0 (0)
 -->
<!-- Title: process Pages: 1 -->
<svg width="779pt" height="187pt"
 viewBox="0.00 0.00 779.00 187.00" xmlns="http://www.w3.org/2000/svg" xmlns:xlink="http://www.w3.org/1999/xlink">
<g id="graph0" class="graph" transform="scale(1 1) rotate(0) translate(36 151)">
<title>process</title>
<polygon fill="#ffffff" stroke="transparent" points="-36,36 -36,-151 743,-151 743,36 -36,36"/>
<!-- n0 -->
<g id="node1" class="node">
<title>n0</title>
<path fill="#c8e6c9" stroke="black" d="M42,-75C42,-75 12,-75 12,-75 6,-75 0,-69 0,-63 0,-63 0,-51 0,-51 0,-45 6,-39 12,-39 12,-39 42,-39 42,-39 48,-39 54,-45 54,-51 54,-51 54,-63 54,-63 54,-69 48,-75 42,-75"/>
<text text-anchor="middle" x="27" y="-54.2" font-family="Helvetica" font-size="11.00">Start</text>
</g>
<!-- n1 -->
<g id="node2" class="node">
<title>n1</title>
<path fill="#e8f4f8" stroke="black" d="M224,-115C224,-115 165,-115 165,-115 159,-115 153,-109 153,-103 153,-103 153,-91 153,-91 153,-85 159,-79 165,-79 165,-79 224,-79 224,-79 230,-79 236,-85 236,-91 236,-91 236,-103 236,-103 236,-109 230,-115 224,-115"/>
<text text-anchor="middle" x="194.5" y="-94.2" font-family="Helvetica" font-size="11.00">WriteToLog</text>
</g>
<!-- n0&#45;&gt;n1 -->
<g id="edge1" class="edge">
<title>n0&#45;&gt;n1</title>
<path fill="none" stroke="#555555" d="M54.22,-63.34C77.95,-69.07 113.55,-77.68 142.82,-84.75"/>
<polygon fill="#555555" stroke="#555555" points="142.34,-88.23 152.88,-87.18 143.98,-81.43 142.34,-88.23"/>
</g>
<!-- n2 -->
<g id="node3" class="node">
<title>n2</title>
<path fill="#ffcdd2" stroke="black" d="M265,-36C265,-36 124,-36 124,-36 118,-36 112,-30 112,-24 112,-24 112,-12 112,-12 112,-6 118,0 124,0 124,0 265,0 265,0 271,0 277,-6 277,-12 277,-12 277,-24 277,-24 277,-30 271,-36 265,-36"/>
<text text-anchor="middle" x="194.5" y="-15.2" font-family="Helvetica" font-size="11.00">NoBusinessResources Error</text>
</g>
<!-- n0&#45;&gt;n2 -->
<g id="edge2" class="edge">
<title>n0&#45;&gt;n2</title>
<path fill="none" stroke="#555555" d="M54.22,-50.82C68.8,-47.38 87.87,-42.89 107.2,-38.34"/>
<polygon fill="#555555" stroke="#555555" points="108.06,-41.73 116.99,-36.03 106.46,-34.92 108.06,-41.73"/>
</g>
<!-- n3 -->
<g id="node4" class="node">
<title>n3</title>
<path fill="#e8f4f8" stroke="black" d="M432,-115C432,-115 347,-115 347,-115 341,-115 335,-109 335,-103 335,-103 335,-91 335,-91 335,-85 341,-79 347,-79 347,-79 432,-79 432,-79 438,-79 444,-85 444,-91 444,-91 444,-103 444,-103 444,-109 438,-115 432,-115"/>
<text text-anchor="middle" x="389.5" y="-94.2" font-family="Helvetica" font-size="11.00">JMSSOAPClient</text>
</g>
<!-- n1&#45;&gt;n3 -->
<g id="edge4" class="edge">
<title>n1&#45;&gt;n3</title>
<path fill="none" stroke="#555555" d="M236.43,-97C262.07,-97 295.64,-97 324.72,-97"/>
<polygon fill="#555555" stroke="#555555" points="324.79,-100.5 334.79,-97 324.79,-93.5 324.79,-100.5"/>
</g>
<!-- n4 -->
<g id="node5" class="node">
<title>n4</title>
<path fill="#e8f4f8" stroke="black" d="M583,-115C583,-115 514,-115 514,-115 508,-115 502,-109 502,-103 502,-103 502,-91 502,-91 502,-85 508,-79 514,-79 514,-79 583,-79 583,-79 589,-79 595,-85 595,-91 595,-91 595,-103 595,-103 595,-109 589,-115 583,-115"/>
<text text-anchor="middle" x="548.5" y="-94.2" font-family="Helvetica" font-size="11.00">WriteToLog&#45;1</text>
</g>
<!-- n3&#45;&gt;n4 -->
<g id="edge3" class="edge">
<title>n3&#45;&gt;n4</title>
<path fill="none" stroke="#555555" d="M444.09,-97C459.54,-97 476.42,-97 491.99,-97"/>
<polygon fill="#555555" stroke="#555555" points="491.99,-100.5 501.99,-97 491.99,-93.5 491.99,-100.5"/>
</g>
<!-- n5 -->
<g id="node6" class="node">
<title>n5</title>
<path fill="#ffccbc" stroke="black" d="M695,-115C695,-115 665,-115 665,-115 659,-115 653,-109 653,-103 653,-103 653,-91 653,-91 653,-85 659,-79 665,-79 665,-79 695,-79 695,-79 701,-79 707,-85 707,-91 707,-91 707,-103 707,-103 707,-109 701,-115 695,-115"/>
<text text-anchor="middle" x="680" y="-94.2" font-family="Helvetica" font-size="11.00">End</text>
</g>
<!-- n4&#45;&gt;n5 -->
<g id="edge5" class="edge">
<title>n4&#45;&gt;n5</title>
<path fill="none" stroke="#555555" d="M595.16,-97C610.74,-97 627.95,-97 642.7,-97"/>
<polygon fill="#555555" stroke="#555555" points="642.95,-100.5 652.95,-97 642.95,-93.5 642.95,-100.5"/>
</g>
</g>
</svg>
