<?xml version="1.0" encoding="UTF-8" standalone="no"?>
<!DOCTYPE svg PUBLIC "-//W3C//DTD SVG 1.1//EN"
 "http://www.w3.org/Graphics/SVG/1.1/DTD/svg11.dtd">
<!-- Generated by graphviz version 2.44.0 (0)
 -->
<!-- Title: process Pages: 1 -->
<svg width="577pt" height="108pt"
 viewBox="0.00 0.00 577.00 108.00" xmlns="http://www.w3.org/2000/svg" xmlns:xlink="http://www.w3.org/1999/xlink">
<g id="graph0" class="graph" transform="scale(1 1) rotate(0) translate(36 72)">
<title>process</title>
<polygon fill="#ffffff" stroke="transparent" points="-36,36 -36,-72 541,-72 541,36 -36,36"/>
<!-- n0 -->
<g id="node1" class="node">
<title>n0</title>
<path fill="#e8f4f8" stroke="black" d="M44,-36C44,-36 12,-36 12,-36 6,-36 0,-30 0,-24 0,-24 0,-12 0,-12 0,-6 6,0 12,0 12,0 44,0 44,0 50,0 56,-6 56,-12 56,-12 56,-24 56,-24 56,-30 50,-36 44,-36"/>
<text text-anchor="middle" x="28" y="-15.2" font-family="Helvetica" font-size="11.00">Timer</text>
</g>
<!-- n1 -->
<g id="node2" class="node">
<title>n1</title>
<path fill="#e8f4f8" stroke="black" d="M198,-36C198,-36 126,-36 126,-36 120,-36 114,-30 114,-24 114,-24 114,-12 114,-12 114,-6 120,0 126,0 126,0 198,0 198,0 204,0 210,-6 210,-12 210,-12 210,-24 210,-24 210,-30 204,-36 198,-36"/>
<text text-anchor="middle" x="162" y="-15.2" font-family="Helvetica" font-size="11.00">Render JSON</text>
</g>
<!-- n0&#45;&gt;n1 -->
<g id="edge1" class="edge">
<title>n0&#45;&gt;n1</title>
<path fill="none" stroke="#555555" d="M56.03,-18C69.83,-18 87.18,-18 103.78,-18"/>
<polygon fill="#555555" stroke="#555555" points="103.97,-21.5 113.97,-18 103.97,-14.5 103.97,-21.5"/>
</g>
<!-- n2 -->
<g id="node3" class="node">
<title>n2</title>
<path fill="#e8f4f8" stroke="black" d="M381,-36C381,-36 280,-36 280,-36 274,-36 268,-30 268,-24 268,-24 268,-12 268,-12 268,-6 274,0 280,0 280,0 381,0 381,0 387,0 393,-6 393,-12 393,-12 393,-24 393,-24 393,-30 387,-36 381,-36"/>
<text text-anchor="middle" x="330.5" y="-15.2" font-family="Helvetica" font-size="11.00">JMS Queue Sender</text>
</g>
<!-- n1&#45;&gt;n2 -->
<g id="edge2" class="edge">
<title>n1&#45;&gt;n2</title>
<path fill="none" stroke="#555555" d="M210.27,-18C224.94,-18 241.45,-18 257.41,-18"/>
<polygon fill="#555555" stroke="#555555" points="257.79,-21.5 267.79,-18 257.79,-14.5 257.79,-21.5"/>
</g>
<!-- n3 -->
<g id="node4" class="node">
<title>n3</title>
<path fill="#ffccbc" stroke="black" d="M493,-36C493,-36 463,-36 463,-36 457,-36 451,-30 451,-24 451,-24 451,-12 451,-12 451,-6 457,0 463,0 463,0 493,0 493,0 499,0 505,-6 505,-12 505,-12 505,-24 505,-24 505,-30 499,-36 493,-36"/>
<text text-anchor="middle" x="478" y="-15.2" font-family="Helvetica" font-size="11.00">End</text>
</g>
<!-- n2&#45;&gt;n3 -->
<g id="edge3" class="edge">
<title>n2&#45;&gt;n3</title>
<path fill="none" stroke="#555555" d="M393.21,-18C409.25,-18 426.03,-18 440.33,-18"/>
<polygon fill="#555555" stroke="#555555" points="440.72,-21.5 450.72,-18 440.72,-14.5 440.72,-21.5"/>
</g>
</g>
</svg>
