<?xml version="1.0" encoding="UTF-8" standalone="no"?>
<!DOCTYPE svg PUBLIC "-//W3C//DTD SVG 1.1//EN"
 "http://www.w3.org/Graphics/SVG/1.1/DTD/svg11.dtd">
<!-- Generated by graphviz version 2.44.0 (0)
 -->
<!-- Title: process Pages: 1 -->
<svg width="3361pt" height="557pt"
 viewBox="0.00 0.00 3361.00 556.81" xmlns="http://www.w3.org/2000/svg" xmlns:xlink="http://www.w3.org/1999/xlink">
<g id="graph0" class="graph" transform="scale(1 1) rotate(0) translate(36 520.81)">
<title>process</title>
<polygon fill="#ffffff" stroke="transparent" points="-36,36 -36,-520.81 3325,-520.81 3325,36 -36,36"/>
<!-- n0 -->
<g id="node1" class="node">
<title>n0</title>
<path fill="#e8f4f8" stroke="black" d="M1253,-285C1253,-285 1220,-285 1220,-285 1214,-285 1208,-279 1208,-273 1208,-273 1208,-261 1208,-261 1208,-255 1214,-249 1220,-249 1220,-249 1253,-249 1253,-249 1259,-249 1265,-255 1265,-261 1265,-261 1265,-273 1265,-273 1265,-279 1259,-285 1253,-285"/>
<text text-anchor="middle" x="1236.5" y="-264.2" font-family="Helvetica" font-size="11.00">Null&#45;3</text>
</g>
<!-- n1 -->
<g id="node2" class="node">
<title>n1</title>
<path fill="#e8f4f8" stroke="black" d="M1664,-368C1664,-368 1562,-368 1562,-368 1556,-368 1550,-362 1550,-356 1550,-356 1550,-344 1550,-344 1550,-338 1556,-332 1562,-332 1562,-332 1664,-332 1664,-332 1670,-332 1676,-338 1676,-344 1676,-344 1676,-356 1676,-356 1676,-362 1670,-368 1664,-368"/>
<text text-anchor="middle" x="1613" y="-347.2" font-family="Helvetica" font-size="11.00">GetBalanceForBRM</text>
</g>
<!-- n0&#45;&gt;n1 -->
<g id="edge1" class="edge">
<title>n0&#45;&gt;n1</title>
<path fill="none" stroke="#555555" d="M1265.07,-278.25C1287.79,-287.15 1321.05,-299.32 1351,-307 1414,-323.16 1487.17,-334.6 1539.98,-341.6"/>
<polygon fill="#555555" stroke="#555555" points="1539.56,-345.07 1549.93,-342.89 1540.47,-338.13 1539.56,-345.07"/>
</g>
<!-- n29 -->
<g id="node23" class="node">
<title>n29</title>
<path fill="#e8f4f8" stroke="black" d="M1467,-285C1467,-285 1363,-285 1363,-285 1357,-285 1351,-279 1351,-273 1351,-273 1351,-261 1351,-261 1351,-255 1357,-249 1363,-249 1363,-249 1467,-249 1467,-249 1473,-249 1479,-255 1479,-261 1479,-261 1479,-273 1479,-273 1479,-279 1473,-285 1467,-285"/>
<text text-anchor="middle" x="1415" y="-264.2" font-family="Helvetica" font-size="11.00">GetServiceSummary</text>
</g>
<!-- n0&#45;&gt;n29 -->
<g id="edge38" class="edge">
<title>n0&#45;&gt;n29</title>
<path fill="none" stroke="#555555" d="M1265.08,-267C1285.37,-267 1313.95,-267 1340.66,-267"/>
<polygon fill="#555555" stroke="#555555" points="1340.78,-270.5 1350.78,-267 1340.78,-263.5 1340.78,-270.5"/>
</g>
<!-- n2 -->
<g id="node13" class="node">
<title>n2</title>
<path fill="#e8f4f8" stroke="black" d="M1833.5,-285C1833.5,-285 1800.5,-285 1800.5,-285 1794.5,-285 1788.5,-279 1788.5,-273 1788.5,-273 1788.5,-261 1788.5,-261 1788.5,-255 1794.5,-249 1800.5,-249 1800.5,-249 1833.5,-249 1833.5,-249 1839.5,-249 1845.5,-255 1845.5,-261 1845.5,-261 1845.5,-273 1845.5,-273 1845.5,-279 1839.5,-285 1833.5,-285"/>
<text text-anchor="middle" x="1817" y="-264.2" font-family="Helvetica" font-size="11.00">Null&#45;4</text>
</g>
<!-- n1&#45;&gt;n2 -->
<g id="edge2" class="edge">
<title>n1&#45;&gt;n2</title>
<path fill="none" stroke="#555555" d="M1657.83,-331.99C1693.95,-317.15 1744.61,-296.33 1778.78,-282.29"/>
<polygon fill="#555555" stroke="#555555" points="1780.47,-285.38 1788.39,-278.34 1777.81,-278.91 1780.47,-285.38"/>
</g>
<!-- n6 -->
<g id="node27" class="node">
<title>n6</title>
<path fill="#e8f4f8" stroke="black" d="M1862,-368C1862,-368 1772,-368 1772,-368 1766,-368 1760,-362 1760,-356 1760,-356 1760,-344 1760,-344 1760,-338 1766,-332 1772,-332 1772,-332 1862,-332 1862,-332 1868,-332 1874,-338 1874,-344 1874,-344 1874,-356 1874,-356 1874,-362 1868,-368 1862,-368"/>
<text text-anchor="middle" x="1817" y="-347.2" font-family="Helvetica" font-size="11.00">WriteToLog_BRM</text>
</g>
<!-- n1&#45;&gt;n6 -->
<g id="edge5" class="edge">
<title>n1&#45;&gt;n6</title>
<path fill="none" stroke="#555555" d="M1676.25,-350C1699.48,-350 1725.93,-350 1749.52,-350"/>
<polygon fill="#555555" stroke="#555555" points="1749.78,-353.5 1759.78,-350 1749.78,-346.5 1749.78,-353.5"/>
</g>
<!-- n7 -->
<g id="node28" class="node">
<title>n7</title>
<path fill="#e8f4f8" stroke="black" d="M2053,-451C2053,-451 1957,-451 1957,-451 1951,-451 1945,-445 1945,-439 1945,-439 1945,-427 1945,-427 1945,-421 1951,-415 1957,-415 1957,-415 2053,-415 2053,-415 2059,-415 2065,-421 2065,-427 2065,-427 2065,-439 2065,-439 2065,-445 2059,-451 2053,-451"/>
<text text-anchor="middle" x="2005" y="-430.2" font-family="Helvetica" font-size="11.00">ResourceIDtoUOM</text>
</g>
<!-- n1&#45;&gt;n7 -->
<g id="edge23" class="edge">
<title>n1&#45;&gt;n7</title>
<path fill="none" stroke="#555555" d="M1668.26,-368.01C1692.21,-375.52 1720.82,-383.9 1747,-390 1809.99,-404.68 1882.78,-416.37 1934.78,-423.84"/>
<polygon fill="#555555" stroke="#555555" points="1934.5,-427.33 1944.89,-425.28 1935.48,-420.4 1934.5,-427.33"/>
</g>
<!-- n10 -->
<g id="node3" class="node">
<title>n10</title>
<path fill="#e8f4f8" stroke="black" d="M2664,-330C2664,-330 2538,-330 2538,-330 2532,-330 2526,-324 2526,-318 2526,-318 2526,-306 2526,-306 2526,-300 2532,-294 2538,-294 2538,-294 2664,-294 2664,-294 2670,-294 2676,-300 2676,-306 2676,-306 2676,-318 2676,-318 2676,-324 2670,-330 2664,-330"/>
<text text-anchor="middle" x="2601" y="-309.2" font-family="Helvetica" font-size="11.00">Merge Resource Balance</text>
</g>
<!-- n11 -->
<g id="node4" class="node">
<title>n11</title>
<path fill="#ffccbc" stroke="black" d="M2864,-330C2864,-330 2746,-330 2746,-330 2740,-330 2734,-324 2734,-318 2734,-318 2734,-306 2734,-306 2734,-300 2740,-294 2746,-294 2746,-294 2864,-294 2864,-294 2870,-294 2876,-300 2876,-306 2876,-306 2876,-318 2876,-318 2876,-324 2870,-330 2864,-330"/>
<text text-anchor="middle" x="2805" y="-309.2" font-family="Helvetica" font-size="11.00">Map Postpay Response</text>
</g>
<!-- n10&#45;&gt;n11 -->
<g id="edge9" class="edge">
<title>n10&#45;&gt;n11</title>
<path fill="none" stroke="#555555" d="M2676.07,-312C2691.59,-312 2708.02,-312 2723.75,-312"/>
<polygon fill="#555555" stroke="#555555" points="2723.97,-315.5 2733.97,-312 2723.97,-308.5 2723.97,-315.5"/>
</g>
<!-- n12 -->
<g id="node5" class="node">
<title>n12</title>
<path fill="#e8f4f8" stroke="black" d="M2979,-330C2979,-330 2946,-330 2946,-330 2940,-330 2934,-324 2934,-318 2934,-318 2934,-306 2934,-306 2934,-300 2940,-294 2946,-294 2946,-294 2979,-294 2979,-294 2985,-294 2991,-300 2991,-306 2991,-306 2991,-318 2991,-318 2991,-324 2985,-330 2979,-330"/>
<text text-anchor="middle" x="2962.5" y="-309.2" font-family="Helvetica" font-size="11.00">Null&#45;8</text>
</g>
<!-- n11&#45;&gt;n12 -->
<g id="edge8" class="edge">
<title>n11&#45;&gt;n12</title>
<path fill="none" stroke="#555555" d="M2876.02,-312C2892.49,-312 2909.44,-312 2923.85,-312"/>
<polygon fill="#555555" stroke="#555555" points="2923.86,-315.5 2933.86,-312 2923.86,-308.5 2923.86,-315.5"/>
</g>
<!-- n14 -->
<g id="node7" class="node">
<title>n14</title>
<path fill="#e8f4f8" stroke="black" d="M3165,-372C3165,-372 3061,-372 3061,-372 3055,-372 3049,-366 3049,-360 3049,-360 3049,-348 3049,-348 3049,-342 3055,-336 3061,-336 3061,-336 3165,-336 3165,-336 3171,-336 3177,-342 3177,-348 3177,-348 3177,-360 3177,-360 3177,-366 3171,-372 3165,-372"/>
<text text-anchor="middle" x="3113" y="-351.2" font-family="Helvetica" font-size="11.00">WriteToLog_PostPay</text>
</g>
<!-- n12&#45;&gt;n14 -->
<g id="edge21" class="edge">
<title>n12&#45;&gt;n14</title>
<path fill="none" stroke="#555555" d="M2991.08,-319.8C3004.69,-323.65 3021.8,-328.49 3038.84,-333.31"/>
<polygon fill="#555555" stroke="#555555" points="3038.26,-336.78 3048.84,-336.14 3040.17,-330.05 3038.26,-336.78"/>
</g>
<!-- n15 -->
<g id="node8" class="node">
<title>n15</title>
<path fill="#ffccbc" stroke="black" d="M3277,-289C3277,-289 3247,-289 3247,-289 3241,-289 3235,-283 3235,-277 3235,-277 3235,-265 3235,-265 3235,-259 3241,-253 3247,-253 3247,-253 3277,-253 3277,-253 3283,-253 3289,-259 3289,-265 3289,-265 3289,-277 3289,-277 3289,-283 3283,-289 3277,-289"/>
<text text-anchor="middle" x="3262" y="-268.2" font-family="Helvetica" font-size="11.00">End</text>
</g>
<!-- n12&#45;&gt;n15 -->
<g id="edge22" class="edge">
<title>n12&#45;&gt;n15</title>
<path fill="none" stroke="#555555" d="M2991.22,-308.18C3045.24,-300.73 3164.58,-284.29 3224.77,-275.99"/>
<polygon fill="#555555" stroke="#555555" points="3225.52,-279.42 3234.95,-274.59 3224.57,-272.49 3225.52,-279.42"/>
</g>
<!-- n13 -->
<g id="node6" class="node">
<title>n13</title>
<path fill="#ffcdd2" stroke="black" d="M2166.5,-285C2166.5,-285 2136.5,-285 2136.5,-285 2130.5,-285 2124.5,-279 2124.5,-273 2124.5,-273 2124.5,-261 2124.5,-261 2124.5,-255 2130.5,-249 2136.5,-249 2136.5,-249 2166.5,-249 2166.5,-249 2172.5,-249 2178.5,-255 2178.5,-261 2178.5,-261 2178.5,-273 2178.5,-273 2178.5,-279 2172.5,-285 2166.5,-285"/>
<text text-anchor="middle" x="2151.5" y="-264.2" font-family="Helvetica" font-size="11.00">Error</text>
</g>
<!-- n14&#45;&gt;n15 -->
<g id="edge12" class="edge">
<title>n14&#45;&gt;n15</title>
<path fill="none" stroke="#555555" d="M3145.9,-335.99C3169.41,-322.72 3201.39,-304.66 3225.67,-290.95"/>
<polygon fill="#555555" stroke="#555555" points="3227.58,-293.89 3234.57,-285.92 3224.14,-287.79 3227.58,-293.89"/>
</g>
<!-- n16 -->
<g id="node9" class="node">
<title>n16</title>
<path fill="#e8f4f8" stroke="black" d="M2341,-451C2341,-451 2250,-451 2250,-451 2244,-451 2238,-445 2238,-439 2238,-439 2238,-427 2238,-427 2238,-421 2244,-415 2250,-415 2250,-415 2341,-415 2341,-415 2347,-415 2353,-421 2353,-427 2353,-427 2353,-439 2353,-439 2353,-445 2347,-451 2341,-451"/>
<text text-anchor="middle" x="2295.5" y="-430.2" font-family="Helvetica" font-size="11.00">WriteToLog_UOM</text>
</g>
<!-- n9 -->
<g id="node30" class="node">
<title>n9</title>
<path fill="#e8f4f8" stroke="black" d="M2456,-409C2456,-409 2423,-409 2423,-409 2417,-409 2411,-403 2411,-397 2411,-397 2411,-385 2411,-385 2411,-379 2417,-373 2423,-373 2423,-373 2456,-373 2456,-373 2462,-373 2468,-379 2468,-385 2468,-385 2468,-397 2468,-397 2468,-403 2462,-409 2456,-409"/>
<text text-anchor="middle" x="2439.5" y="-388.2" font-family="Helvetica" font-size="11.00">Null&#45;6</text>
</g>
<!-- n16&#45;&gt;n9 -->
<g id="edge13" class="edge">
<title>n16&#45;&gt;n9</title>
<path fill="none" stroke="#555555" d="M2353.03,-416.28C2369.24,-411.48 2386.51,-406.38 2401.24,-402.02"/>
<polygon fill="#555555" stroke="#555555" points="2402.4,-405.33 2411,-399.13 2400.42,-398.61 2402.4,-405.33"/>
</g>
<!-- n17 -->
<g id="node10" class="node">
<title>n17</title>
<path fill="#e8f4f8" stroke="black" d="M1110,-160C1110,-160 1033,-160 1033,-160 1027,-160 1021,-154 1021,-148 1021,-148 1021,-136 1021,-136 1021,-130 1027,-124 1033,-124 1033,-124 1110,-124 1110,-124 1116,-124 1122,-130 1122,-136 1122,-136 1122,-148 1122,-148 1122,-154 1116,-160 1110,-160"/>
<text text-anchor="middle" x="1071.5" y="-139.2" font-family="Helvetica" font-size="11.00">PrepayPostpay</text>
</g>
<!-- n17&#45;&gt;n0 -->
<g id="edge30" class="edge">
<title>n17&#45;&gt;n0</title>
<path fill="none" stroke="#555555" d="M1096.2,-160.18C1124.57,-181.93 1172.19,-218.45 1203.73,-242.63"/>
<polygon fill="#555555" stroke="#555555" points="1201.7,-245.49 1211.77,-248.8 1205.96,-239.94 1201.7,-245.49"/>
</g>
<!-- n18 -->
<g id="node11" class="node">
<title>n18</title>
<path fill="#e8f4f8" stroke="black" d="M1462,-202C1462,-202 1368,-202 1368,-202 1362,-202 1356,-196 1356,-190 1356,-190 1356,-178 1356,-178 1356,-172 1362,-166 1368,-166 1368,-166 1462,-166 1462,-166 1468,-166 1474,-172 1474,-178 1474,-178 1474,-190 1474,-190 1474,-196 1468,-202 1462,-202"/>
<text text-anchor="middle" x="1415" y="-181.2" font-family="Helvetica" font-size="11.00">GetBalanceDetails</text>
</g>
<!-- n17&#45;&gt;n18 -->
<g id="edge15" class="edge">
<title>n17&#45;&gt;n18</title>
<path fill="none" stroke="#555555" d="M1122.16,-148.11C1181.07,-155.35 1279.6,-167.47 1345.68,-175.6"/>
<polygon fill="#555555" stroke="#555555" points="1345.64,-179.12 1355.99,-176.87 1346.49,-172.17 1345.64,-179.12"/>
</g>
<!-- n19 -->
<g id="node12" class="node">
<title>n19</title>
<path fill="#e8f4f8" stroke="black" d="M1269,-119C1269,-119 1204,-119 1204,-119 1198,-119 1192,-113 1192,-107 1192,-107 1192,-95 1192,-95 1192,-89 1198,-83 1204,-83 1204,-83 1269,-83 1269,-83 1275,-83 1281,-89 1281,-95 1281,-95 1281,-107 1281,-107 1281,-113 1275,-119 1269,-119"/>
<text text-anchor="middle" x="1236.5" y="-98.2" font-family="Helvetica" font-size="11.00">RR_PostPay</text>
</g>
<!-- n17&#45;&gt;n19 -->
<g id="edge16" class="edge">
<title>n17&#45;&gt;n19</title>
<path fill="none" stroke="#555555" d="M1122.29,-129.48C1141.19,-124.72 1162.78,-119.29 1182,-114.46"/>
<polygon fill="#555555" stroke="#555555" points="1182.96,-117.82 1191.81,-111.99 1181.26,-111.03 1182.96,-117.82"/>
</g>
<!-- n25 -->
<g id="node19" class="node">
<title>n25</title>
<path fill="#e8f4f8" stroke="black" d="M1281,-40C1281,-40 1192,-40 1192,-40 1186,-40 1180,-34 1180,-28 1180,-28 1180,-16 1180,-16 1180,-10 1186,-4 1192,-4 1192,-4 1281,-4 1281,-4 1287,-4 1293,-10 1293,-16 1293,-16 1293,-28 1293,-28 1293,-34 1287,-40 1281,-40"/>
<text text-anchor="middle" x="1236.5" y="-19.2" font-family="Helvetica" font-size="11.00">No matching type</text>
</g>
<!-- n17&#45;&gt;n25 -->
<g id="edge26" class="edge">
<title>n17&#45;&gt;n25</title>
<path fill="none" stroke="#555555" d="M1096.76,-123.78C1118.49,-107.5 1151.28,-83.03 1180,-62 1187.09,-56.8 1194.73,-51.27 1201.99,-46.02"/>
<polygon fill="#555555" stroke="#555555" points="1204.23,-48.72 1210.3,-40.04 1200.14,-43.04 1204.23,-48.72"/>
</g>
<!-- n26 -->
<g id="node20" class="node">
<title>n26</title>
<path fill="#e8f4f8" stroke="black" d="M1636.5,-202C1636.5,-202 1589.5,-202 1589.5,-202 1583.5,-202 1577.5,-196 1577.5,-190 1577.5,-190 1577.5,-178 1577.5,-178 1577.5,-172 1583.5,-166 1589.5,-166 1589.5,-166 1636.5,-166 1636.5,-166 1642.5,-166 1648.5,-172 1648.5,-178 1648.5,-178 1648.5,-190 1648.5,-190 1648.5,-196 1642.5,-202 1636.5,-202"/>
<text text-anchor="middle" x="1613" y="-181.2" font-family="Helvetica" font-size="11.00">Assign&#45;2</text>
</g>
<!-- n18&#45;&gt;n26 -->
<g id="edge36" class="edge">
<title>n18&#45;&gt;n26</title>
<path fill="none" stroke="#555555" d="M1474.01,-184C1503.84,-184 1539.63,-184 1567.29,-184"/>
<polygon fill="#555555" stroke="#555555" points="1567.46,-187.5 1577.46,-184 1567.46,-180.5 1567.46,-187.5"/>
</g>
<!-- n28 -->
<g id="node22" class="node">
<title>n28</title>
<path fill="#e8f4f8" stroke="black" d="M1677,-123C1677,-123 1549,-123 1549,-123 1543,-123 1537,-117 1537,-111 1537,-111 1537,-99 1537,-99 1537,-93 1543,-87 1549,-87 1549,-87 1677,-87 1677,-87 1683,-87 1689,-93 1689,-99 1689,-99 1689,-111 1689,-111 1689,-117 1683,-123 1677,-123"/>
<text text-anchor="middle" x="1613" y="-102.2" font-family="Helvetica" font-size="11.00">Merge Resource SurePay</text>
</g>
<!-- n18&#45;&gt;n28 -->
<g id="edge32" class="edge">
<title>n18&#45;&gt;n28</title>
<path fill="none" stroke="#555555" d="M1460.97,-165.88C1489.73,-154.28 1527.2,-139.18 1557.63,-126.91"/>
<polygon fill="#555555" stroke="#555555" points="1559.28,-130.02 1567.24,-123.04 1556.66,-123.53 1559.28,-130.02"/>
</g>
<!-- n3 -->
<g id="node24" class="node">
<title>n3</title>
<path fill="#e8f4f8" stroke="black" d="M2023.5,-285C2023.5,-285 1986.5,-285 1986.5,-285 1980.5,-285 1974.5,-279 1974.5,-273 1974.5,-273 1974.5,-261 1974.5,-261 1974.5,-255 1980.5,-249 1986.5,-249 1986.5,-249 2023.5,-249 2023.5,-249 2029.5,-249 2035.5,-255 2035.5,-261 2035.5,-261 2035.5,-273 2035.5,-273 2035.5,-279 2029.5,-285 2023.5,-285"/>
<text text-anchor="middle" x="2005" y="-264.2" font-family="Helvetica" font-size="11.00">Assign</text>
</g>
<!-- n2&#45;&gt;n3 -->
<g id="edge3" class="edge">
<title>n2&#45;&gt;n3</title>
<path fill="none" stroke="#555555" d="M1845.85,-267C1877.3,-267 1928.73,-267 1964.37,-267"/>
<polygon fill="#555555" stroke="#555555" points="1964.42,-270.5 1974.42,-267 1964.42,-263.5 1964.42,-270.5"/>
</g>
<!-- n20 -->
<g id="node14" class="node">
<title>n20</title>
<path fill="#e8f4f8" stroke="black" d="M724,-119C724,-119 640,-119 640,-119 634,-119 628,-113 628,-107 628,-107 628,-95 628,-95 628,-89 634,-83 640,-83 640,-83 724,-83 724,-83 730,-83 736,-89 736,-95 736,-95 736,-107 736,-107 736,-113 730,-119 724,-119"/>
<text text-anchor="middle" x="682" y="-98.2" font-family="Helvetica" font-size="11.00">QuerySIMRTDB</text>
</g>
<!-- n20&#45;&gt;n17 -->
<g id="edge28" class="edge">
<title>n20&#45;&gt;n17</title>
<path fill="none" stroke="#555555" d="M736.07,-106.61C807.83,-114.21 935.46,-127.71 1010.59,-135.66"/>
<polygon fill="#555555" stroke="#555555" points="1010.52,-139.17 1020.83,-136.74 1011.25,-132.21 1010.52,-139.17"/>
</g>
<!-- n21 -->
<g id="node15" class="node">
<title>n21</title>
<path fill="#e8f4f8" stroke="black" d="M951,-202C951,-202 806,-202 806,-202 800,-202 794,-196 794,-190 794,-190 794,-178 794,-178 794,-172 800,-166 806,-166 806,-166 951,-166 951,-166 957,-166 963,-172 963,-178 963,-178 963,-190 963,-190 963,-196 957,-202 951,-202"/>
<text text-anchor="middle" x="878.5" y="-181.2" font-family="Helvetica" font-size="11.00">WriteToLog_QuerySIMRTDB</text>
</g>
<!-- n20&#45;&gt;n21 -->
<g id="edge17" class="edge">
<title>n20&#45;&gt;n21</title>
<path fill="none" stroke="#555555" d="M725.2,-119.01C754.67,-131.58 794.18,-148.45 825.58,-161.84"/>
<polygon fill="#555555" stroke="#555555" points="824.47,-165.18 835.04,-165.88 827.22,-158.74 824.47,-165.18"/>
</g>
<!-- n22 -->
<g id="node16" class="node">
<title>n22</title>
<path fill="#e8f4f8" stroke="black" d="M936,-36C936,-36 821,-36 821,-36 815,-36 809,-30 809,-24 809,-24 809,-12 809,-12 809,-6 815,0 821,0 821,0 936,0 936,0 942,0 948,-6 948,-12 948,-12 948,-24 948,-24 948,-30 942,-36 936,-36"/>
<text text-anchor="middle" x="878.5" y="-15.2" font-family="Helvetica" font-size="11.00">QuerySIMRTDB_Error</text>
</g>
<!-- n20&#45;&gt;n22 -->
<g id="edge18" class="edge">
<title>n20&#45;&gt;n22</title>
<path fill="none" stroke="#555555" d="M725.2,-82.99C754.67,-70.42 794.18,-53.55 825.58,-40.16"/>
<polygon fill="#555555" stroke="#555555" points="827.22,-43.26 835.04,-36.12 824.47,-36.82 827.22,-43.26"/>
</g>
<!-- n21&#45;&gt;n17 -->
<g id="edge27" class="edge">
<title>n21&#45;&gt;n17</title>
<path fill="none" stroke="#555555" d="M961.61,-165.94C978.11,-162.32 995.16,-158.57 1010.73,-155.14"/>
<polygon fill="#555555" stroke="#555555" points="1011.72,-158.51 1020.73,-152.94 1010.21,-151.67 1011.72,-158.51"/>
</g>
<!-- n23 -->
<g id="node17" class="node">
<title>n23</title>
<path fill="#c8e6c9" stroke="black" d="M42,-119C42,-119 12,-119 12,-119 6,-119 0,-113 0,-107 0,-107 0,-95 0,-95 0,-89 6,-83 12,-83 12,-83 42,-83 42,-83 48,-83 54,-89 54,-95 54,-95 54,-107 54,-107 54,-113 48,-119 42,-119"/>
<text text-anchor="middle" x="27" y="-98.2" font-family="Helvetica" font-size="11.00">Start</text>
</g>
<!-- n24 -->
<g id="node18" class="node">
<title>n24</title>
<path fill="#e8f4f8" stroke="black" d="M190,-119C190,-119 124,-119 124,-119 118,-119 112,-113 112,-107 112,-107 112,-95 112,-95 112,-89 118,-83 124,-83 124,-83 190,-83 190,-83 196,-83 202,-89 202,-95 202,-95 202,-107 202,-107 202,-113 196,-119 190,-119"/>
<text text-anchor="middle" x="157" y="-98.2" font-family="Helvetica" font-size="11.00">Assign&#45;1&#45;1&#45;1</text>
</g>
<!-- n23&#45;&gt;n24 -->
<g id="edge24" class="edge">
<title>n23&#45;&gt;n24</title>
<path fill="none" stroke="#555555" d="M54.21,-101C67.96,-101 85.34,-101 101.82,-101"/>
<polygon fill="#555555" stroke="#555555" points="101.93,-104.5 111.93,-101 101.93,-97.5 101.93,-104.5"/>
</g>
<!-- n4 -->
<g id="node25" class="node">
<title>n4</title>
<path fill="#e8f4f8" stroke="black" d="M388,-119C388,-119 272,-119 272,-119 266,-119 260,-113 260,-107 260,-107 260,-95 260,-95 260,-89 266,-83 272,-83 272,-83 388,-83 388,-83 394,-83 400,-89 400,-95 400,-95 400,-107 400,-107 400,-113 394,-119 388,-119"/>
<text text-anchor="middle" x="330" y="-98.2" font-family="Helvetica" font-size="11.00">NormalizeSurepayCTN</text>
</g>
<!-- n24&#45;&gt;n4 -->
<g id="edge25" class="edge">
<title>n24&#45;&gt;n4</title>
<path fill="none" stroke="#555555" d="M202.04,-101C216.62,-101 233.34,-101 249.74,-101"/>
<polygon fill="#555555" stroke="#555555" points="249.89,-104.5 259.89,-101 249.89,-97.5 249.89,-104.5"/>
</g>
<!-- n26&#45;&gt;n2 -->
<g id="edge29" class="edge">
<title>n26&#45;&gt;n2</title>
<path fill="none" stroke="#555555" d="M1648.73,-198.27C1684.97,-213.16 1741.59,-236.43 1778.75,-251.69"/>
<polygon fill="#555555" stroke="#555555" points="1777.64,-255.02 1788.22,-255.58 1780.3,-248.55 1777.64,-255.02"/>
</g>
<!-- n27 -->
<g id="node21" class="node">
<title>n27</title>
<path fill="#ffccbc" stroke="black" d="M1875,-202C1875,-202 1759,-202 1759,-202 1753,-202 1747,-196 1747,-190 1747,-190 1747,-178 1747,-178 1747,-172 1753,-166 1759,-166 1759,-166 1875,-166 1875,-166 1881,-166 1887,-172 1887,-178 1887,-178 1887,-190 1887,-190 1887,-196 1881,-202 1875,-202"/>
<text text-anchor="middle" x="1817" y="-181.2" font-family="Helvetica" font-size="11.00">Map&#45;Prepay&#45;Response</text>
</g>
<!-- n26&#45;&gt;n27 -->
<g id="edge31" class="edge">
<title>n26&#45;&gt;n27</title>
<path fill="none" stroke="#555555" d="M1648.73,-184C1672.85,-184 1705.99,-184 1736.42,-184"/>
<polygon fill="#555555" stroke="#555555" points="1736.62,-187.5 1746.62,-184 1736.62,-180.5 1736.62,-187.5"/>
</g>
<!-- n27&#45;&gt;n15 -->
<g id="edge35" class="edge">
<title>n27&#45;&gt;n15</title>
<path fill="none" stroke="#555555" d="M1887.09,-184C1954.35,-184 2059.44,-184 2150.5,-184 2150.5,-184 2150.5,-184 2963.5,-184 3061.48,-184 3170.57,-228.01 3225.41,-253.42"/>
<polygon fill="#555555" stroke="#555555" points="3224.15,-256.7 3234.69,-257.79 3227.13,-250.36 3224.15,-256.7"/>
</g>
<!-- n28&#45;&gt;n10 -->
<g id="edge34" class="edge">
<title>n28&#45;&gt;n10</title>
<path fill="none" stroke="#555555" d="M1689.12,-102.55C1767.65,-100.19 1894.46,-97 2004,-97 2004,-97 2004,-97 2296.5,-97 2425.48,-97 2537.96,-227.89 2581.16,-285.42"/>
<polygon fill="#555555" stroke="#555555" points="2578.5,-287.71 2587.26,-293.67 2584.13,-283.55 2578.5,-287.71"/>
</g>
<!-- n28&#45;&gt;n27 -->
<g id="edge33" class="edge">
<title>n28&#45;&gt;n27</title>
<path fill="none" stroke="#555555" d="M1660.09,-123.03C1689.85,-134.66 1728.74,-149.87 1760.24,-162.19"/>
<polygon fill="#555555" stroke="#555555" points="1759.17,-165.53 1769.76,-165.92 1761.72,-159.01 1759.17,-165.53"/>
</g>
<!-- n29&#45;&gt;n1 -->
<g id="edge39" class="edge">
<title>n29&#45;&gt;n1</title>
<path fill="none" stroke="#555555" d="M1458.53,-285.01C1488.22,-297.58 1528.04,-314.45 1559.68,-327.84"/>
<polygon fill="#555555" stroke="#555555" points="1558.64,-331.21 1569.22,-331.88 1561.37,-324.76 1558.64,-331.21"/>
</g>
<!-- n29&#45;&gt;n2 -->
<g id="edge40" class="edge">
<title>n29&#45;&gt;n2</title>
<path fill="none" stroke="#555555" d="M1479.38,-267C1563.44,-267 1709.18,-267 1777.97,-267"/>
<polygon fill="#555555" stroke="#555555" points="1778.33,-270.5 1788.33,-267 1778.33,-263.5 1778.33,-270.5"/>
</g>
<!-- n3&#45;&gt;n13 -->
<g id="edge11" class="edge">
<title>n3&#45;&gt;n13</title>
<path fill="none" stroke="#555555" d="M2035.59,-267C2058.32,-267 2089.82,-267 2114.1,-267"/>
<polygon fill="#555555" stroke="#555555" points="2114.35,-270.5 2124.35,-267 2114.35,-263.5 2114.35,-270.5"/>
</g>
<!-- n3&#45;&gt;n9 -->
<g id="edge10" class="edge">
<title>n3&#45;&gt;n9</title>
<path fill="none" stroke="#555555" d="M2035.63,-277.76C2059.17,-286.16 2093.01,-297.89 2123,-307 2222.52,-337.22 2341.45,-367.27 2400.85,-381.87"/>
<polygon fill="#555555" stroke="#555555" points="2400.34,-385.35 2410.89,-384.33 2402.01,-378.55 2400.34,-385.35"/>
</g>
<!-- n5 -->
<g id="node26" class="node">
<title>n5</title>
<path fill="#e8f4f8" stroke="black" d="M558,-119C558,-119 470,-119 470,-119 464,-119 458,-113 458,-107 458,-107 458,-95 458,-95 458,-89 464,-83 470,-83 470,-83 558,-83 558,-83 564,-83 570,-89 570,-95 570,-95 570,-107 570,-107 570,-113 564,-119 558,-119"/>
<text text-anchor="middle" x="514" y="-98.2" font-family="Helvetica" font-size="11.00">CallReferenceDB</text>
</g>
<!-- n4&#45;&gt;n5 -->
<g id="edge4" class="edge">
<title>n4&#45;&gt;n5</title>
<path fill="none" stroke="#555555" d="M400.07,-101C415.74,-101 432.34,-101 447.84,-101"/>
<polygon fill="#555555" stroke="#555555" points="447.85,-104.5 457.85,-101 447.85,-97.5 447.85,-104.5"/>
</g>
<!-- n5&#45;&gt;n20 -->
<g id="edge37" class="edge">
<title>n5&#45;&gt;n20</title>
<path fill="none" stroke="#555555" d="M570.28,-101C585.52,-101 602.17,-101 617.82,-101"/>
<polygon fill="#555555" stroke="#555555" points="617.94,-104.5 627.94,-101 617.94,-97.5 617.94,-104.5"/>
</g>
<!-- n6&#45;&gt;n7 -->
<g id="edge14" class="edge">
<title>n6&#45;&gt;n7</title>
<path fill="none" stroke="#555555" d="M1858.36,-368.01C1886.41,-380.53 1924,-397.3 1953.96,-410.67"/>
<polygon fill="#555555" stroke="#555555" points="1952.84,-414 1963.4,-414.88 1955.69,-407.61 1952.84,-414"/>
</g>
<!-- n8 -->
<g id="node29" class="node">
<title>n8</title>
<path fill="#e8f4f8" stroke="black" d="M2168,-451C2168,-451 2135,-451 2135,-451 2129,-451 2123,-445 2123,-439 2123,-439 2123,-427 2123,-427 2123,-421 2129,-415 2135,-415 2135,-415 2168,-415 2168,-415 2174,-415 2180,-421 2180,-427 2180,-427 2180,-439 2180,-439 2180,-445 2174,-451 2168,-451"/>
<text text-anchor="middle" x="2151.5" y="-430.2" font-family="Helvetica" font-size="11.00">Null&#45;7</text>
</g>
<!-- n7&#45;&gt;n8 -->
<g id="edge6" class="edge">
<title>n7&#45;&gt;n8</title>
<path fill="none" stroke="#555555" d="M2065.19,-433C2081.25,-433 2098.19,-433 2112.71,-433"/>
<polygon fill="#555555" stroke="#555555" points="2112.81,-436.5 2122.81,-433 2112.81,-429.5 2112.81,-436.5"/>
</g>
<!-- n8&#45;&gt;n16 -->
<g id="edge20" class="edge">
<title>n8&#45;&gt;n16</title>
<path fill="none" stroke="#555555" d="M2180.22,-433C2193.78,-433 2210.76,-433 2227.45,-433"/>
<polygon fill="#555555" stroke="#555555" points="2227.77,-436.5 2237.77,-433 2227.77,-429.5 2227.77,-436.5"/>
</g>
<!-- n8&#45;&gt;n9 -->
<g id="edge19" class="edge">
<title>n8&#45;&gt;n9</title>
<path fill="none" stroke="#555555" d="M2180.27,-449.79C2196.48,-458.6 2217.68,-468.48 2238,-473 2287.89,-484.09 2305.58,-492.07 2353,-473 2380.88,-461.79 2404.79,-436.66 2420.18,-417.15"/>
<polygon fill="#555555" stroke="#555555" points="2422.97,-419.27 2426.24,-409.2 2417.4,-415.03 2422.97,-419.27"/>
</g>
<!-- n9&#45;&gt;n10 -->
<g id="edge7" class="edge">
<title>n9&#45;&gt;n10</title>
<path fill="none" stroke="#555555" d="M2468.28,-377.24C2492.02,-365.48 2526.63,-348.34 2554.42,-334.58"/>
<polygon fill="#555555" stroke="#555555" points="2556.15,-337.62 2563.56,-330.05 2553.04,-331.35 2556.15,-337.62"/>
</g>
</g>
</svg>
