<?xml version="1.0" encoding="UTF-8" standalone="no"?>
<!DOCTYPE svg PUBLIC "-//W3C//DTD SVG 1.1//EN"
 "http://www.w3.org/Graphics/SVG/1.1/DTD/svg11.dtd">
<!-- Generated by graphviz version 2.44.0 (0)
 -->
<!-- Title: process Pages: 1 -->
<svg width="600pt" height="187pt"
 viewBox="0.00 0.00 600.00 187.00" xmlns="http://www.w3.org/2000/svg" xmlns:xlink="http://www.w3.org/1999/xlink">
<g id="graph0" class="graph" transform="scale(1 1) rotate(0) translate(36 151)">
<title>process</title>
<polygon fill="#ffffff" stroke="transparent" points="-36,36 -36,-151 564,-151 564,36 -36,36"/>
<!-- n0 -->
<g id="node1" class="node">
<title>n0</title>
<path fill="#e8f4f8" stroke="black" d="M263,-75C263,-75 126,-75 126,-75 120,-75 114,-69 114,-63 114,-63 114,-51 114,-51 114,-45 120,-39 126,-39 126,-39 263,-39 263,-39 269,-39 275,-45 275,-51 275,-51 275,-63 275,-63 275,-69 269,-75 263,-75"/>
<text text-anchor="middle" x="194.5" y="-54.2" font-family="Helvetica" font-size="11.00">LoadAllSurepayErrorCodes</text>
</g>
<!-- n1 -->
<g id="node2" class="node">
<title>n1</title>
<path fill="#e8f4f8" stroke="black" d="M398,-115C398,-115 351,-115 351,-115 345,-115 339,-109 339,-103 339,-103 339,-91 339,-91 339,-85 345,-79 351,-79 351,-79 398,-79 398,-79 404,-79 410,-85 410,-91 410,-91 410,-103 410,-103 410,-109 404,-115 398,-115"/>
<text text-anchor="middle" x="374.5" y="-94.2" font-family="Helvetica" font-size="11.00">LogError</text>
</g>
<!-- n0&#45;&gt;n1 -->
<g id="edge1" class="edge">
<title>n0&#45;&gt;n1</title>
<path fill="none" stroke="#555555" d="M275.13,-74.89C293.68,-79.06 312.78,-83.35 329.16,-87.04"/>
<polygon fill="#555555" stroke="#555555" points="328.45,-90.46 338.97,-89.24 329.98,-83.63 328.45,-90.46"/>
</g>
<!-- n2 -->
<g id="node3" class="node">
<title>n2</title>
<path fill="#e8f4f8" stroke="black" d="M404,-36C404,-36 345,-36 345,-36 339,-36 333,-30 333,-24 333,-24 333,-12 333,-12 333,-6 339,0 345,0 345,0 404,0 404,0 410,0 416,-6 416,-12 416,-12 416,-24 416,-24 416,-30 410,-36 404,-36"/>
<text text-anchor="middle" x="374.5" y="-15.2" font-family="Helvetica" font-size="11.00">WriteToLog</text>
</g>
<!-- n0&#45;&gt;n2 -->
<g id="edge2" class="edge">
<title>n0&#45;&gt;n2</title>
<path fill="none" stroke="#555555" d="M275.13,-39.55C291.37,-35.99 308.04,-32.34 322.93,-29.08"/>
<polygon fill="#555555" stroke="#555555" points="323.91,-32.45 332.93,-26.89 322.41,-25.61 323.91,-32.45"/>
</g>
<!-- n3 -->
<g id="node4" class="node">
<title>n3</title>
<path fill="#ffccbc" stroke="black" d="M516,-75C516,-75 486,-75 486,-75 480,-75 474,-69 474,-63 474,-63 474,-51 474,-51 474,-45 480,-39 486,-39 486,-39 516,-39 516,-39 522,-39 528,-45 528,-51 528,-51 528,-63 528,-63 528,-69 522,-75 516,-75"/>
<text text-anchor="middle" x="501" y="-54.2" font-family="Helvetica" font-size="11.00">End</text>
</g>
<!-- n1&#45;&gt;n3 -->
<g id="edge3" class="edge">
<title>n1&#45;&gt;n3</title>
<path fill="none" stroke="#555555" d="M410.18,-85.86C427.02,-80.45 447.24,-73.95 464.22,-68.5"/>
<polygon fill="#555555" stroke="#555555" points="465.35,-71.81 473.8,-65.42 463.21,-65.15 465.35,-71.81"/>
</g>
<!-- n2&#45;&gt;n3 -->
<g id="edge5" class="edge">
<title>n2&#45;&gt;n3</title>
<path fill="none" stroke="#555555" d="M416.27,-30.77C431.59,-35.57 448.9,-40.99 463.79,-45.66"/>
<polygon fill="#555555" stroke="#555555" points="463.06,-49.1 473.65,-48.75 465.15,-42.42 463.06,-49.1"/>
</g>
<!-- n4 -->
<g id="node5" class="node">
<title>n4</title>
<path fill="#e8f4f8" stroke="black" d="M44,-75C44,-75 12,-75 12,-75 6,-75 0,-69 0,-63 0,-63 0,-51 0,-51 0,-45 6,-39 12,-39 12,-39 44,-39 44,-39 50,-39 56,-45 56,-51 56,-51 56,-63 56,-63 56,-69 50,-75 44,-75"/>
<text text-anchor="middle" x="28" y="-54.2" font-family="Helvetica" font-size="11.00">Timer</text>
</g>
<!-- n4&#45;&gt;n0 -->
<g id="edge4" class="edge">
<title>n4&#45;&gt;n0</title>
<path fill="none" stroke="#555555" d="M56.16,-57C69.44,-57 86.25,-57 103.53,-57"/>
<polygon fill="#555555" stroke="#555555" points="103.73,-60.5 113.73,-57 103.73,-53.5 103.73,-60.5"/>
</g>
</g>
</svg>
