<?xml version="1.0" encoding="UTF-8" standalone="no"?>
<!DOCTYPE svg PUBLIC "-//W3C//DTD SVG 1.1//EN"
 "http://www.w3.org/Graphics/SVG/1.1/DTD/svg11.dtd">
<!-- Generated by graphviz version 2.44.0 (0)
 -->
<!-- Title: process Pages: 1 -->
<svg width="2402pt" height="480pt"
 viewBox="0.00 0.00 2402.00 480.00" xmlns="http://www.w3.org/2000/svg" xmlns:xlink="http://www.w3.org/1999/xlink">
<g id="graph0" class="graph" transform="scale(1 1) rotate(0) translate(36 444)">
<title>process</title>
<polygon fill="#ffffff" stroke="transparent" points="-36,36 -36,-444 2366,-444 2366,36 -36,36"/>
<!-- n0 -->
<g id="node1" class="node">
<title>n0</title>
<path fill="#ffcdd2" stroke="black" d="M712,-325C712,-325 560,-325 560,-325 554,-325 548,-319 548,-313 548,-313 548,-301 548,-301 548,-295 554,-289 560,-289 560,-289 712,-289 712,-289 718,-289 724,-295 724,-301 724,-301 724,-313 724,-313 724,-319 718,-325 712,-325"/>
<text text-anchor="middle" x="636" y="-304.2" font-family="Helvetica" font-size="11.00">Call System Exception Handler</text>
</g>
<!-- n1 -->
<g id="node2" class="node">
<title>n1</title>
<path fill="#e8f4f8" stroke="black" d="M856,-408C856,-408 794,-408 794,-408 788,-408 782,-402 782,-396 782,-396 782,-384 782,-384 782,-378 788,-372 794,-372 794,-372 856,-372 856,-372 862,-372 868,-378 868,-384 868,-384 868,-396 868,-396 868,-402 862,-408 856,-408"/>
<text text-anchor="middle" x="825" y="-387.2" font-family="Helvetica" font-size="11.00">LogEnd&#45;1&#45;1</text>
</g>
<!-- n0&#45;&gt;n1 -->
<g id="edge1" class="edge">
<title>n0&#45;&gt;n1</title>
<path fill="none" stroke="#555555" d="M677.58,-325.01C705.78,-337.53 743.57,-354.3 773.69,-367.67"/>
<polygon fill="#555555" stroke="#555555" points="772.62,-371.02 783.18,-371.88 775.46,-364.63 772.62,-371.02"/>
</g>
<!-- n4 -->
<g id="node23" class="node">
<title>n4</title>
<path fill="#e8f4f8" stroke="black" d="M1848.5,-163C1848.5,-163 1802.5,-163 1802.5,-163 1796.5,-163 1790.5,-157 1790.5,-151 1790.5,-151 1790.5,-139 1790.5,-139 1790.5,-133 1796.5,-127 1802.5,-127 1802.5,-127 1848.5,-127 1848.5,-127 1854.5,-127 1860.5,-133 1860.5,-139 1860.5,-139 1860.5,-151 1860.5,-151 1860.5,-157 1854.5,-163 1848.5,-163"/>
<text text-anchor="middle" x="1825.5" y="-142.2" font-family="Helvetica" font-size="11.00">LogFatal</text>
</g>
<!-- n0&#45;&gt;n4 -->
<g id="edge3" class="edge">
<title>n0&#45;&gt;n4</title>
<path fill="none" stroke="#555555" d="M724.22,-307C794.29,-307 895.22,-307 983.5,-307 983.5,-307 983.5,-307 1402,-307 1528.78,-307 1575.55,-329.66 1684,-264 1721.26,-241.44 1708.53,-212.88 1742,-185 1753.42,-175.49 1767.48,-167.6 1780.73,-161.41"/>
<polygon fill="#555555" stroke="#555555" points="1782.48,-164.46 1790.2,-157.2 1779.64,-158.07 1782.48,-164.46"/>
</g>
<!-- n23 -->
<g id="node17" class="node">
<title>n23</title>
<path fill="#e8f4f8" stroke="black" d="M1031,-408C1031,-408 938,-408 938,-408 932,-408 926,-402 926,-396 926,-396 926,-384 926,-384 926,-378 932,-372 938,-372 938,-372 1031,-372 1031,-372 1037,-372 1043,-378 1043,-384 1043,-384 1043,-396 1043,-396 1043,-402 1037,-408 1031,-408"/>
<text text-anchor="middle" x="984.5" y="-387.2" font-family="Helvetica" font-size="11.00">SendSOAPFault&#45;1</text>
</g>
<!-- n1&#45;&gt;n23 -->
<g id="edge22" class="edge">
<title>n1&#45;&gt;n23</title>
<path fill="none" stroke="#555555" d="M868.21,-390C882.71,-390 899.33,-390 915.36,-390"/>
<polygon fill="#555555" stroke="#555555" points="915.78,-393.5 925.78,-390 915.78,-386.5 915.78,-393.5"/>
</g>
<!-- n10 -->
<g id="node3" class="node">
<title>n10</title>
<path fill="#e8f4f8" stroke="black" d="M1022,-155C1022,-155 947,-155 947,-155 941,-155 935,-149 935,-143 935,-143 935,-131 935,-131 935,-125 941,-119 947,-119 947,-119 1022,-119 1022,-119 1028,-119 1034,-125 1034,-131 1034,-131 1034,-143 1034,-143 1034,-149 1028,-155 1022,-155"/>
<text text-anchor="middle" x="984.5" y="-134.2" font-family="Helvetica" font-size="11.00">CheckRequest</text>
</g>
<!-- n2 -->
<g id="node13" class="node">
<title>n2</title>
<path fill="#ffcdd2" stroke="black" d="M1477,-159C1477,-159 1325,-159 1325,-159 1319,-159 1313,-153 1313,-147 1313,-147 1313,-135 1313,-135 1313,-129 1319,-123 1325,-123 1325,-123 1477,-123 1477,-123 1483,-123 1489,-129 1489,-135 1489,-135 1489,-147 1489,-147 1489,-153 1483,-159 1477,-159"/>
<text text-anchor="middle" x="1401" y="-138.2" font-family="Helvetica" font-size="11.00">Call Service Exception Handler</text>
</g>
<!-- n10&#45;&gt;n2 -->
<g id="edge24" class="edge">
<title>n10&#45;&gt;n2</title>
<path fill="none" stroke="#555555" d="M1034.27,-137.47C1099.97,-138.1 1218.39,-139.25 1302.67,-140.06"/>
<polygon fill="#555555" stroke="#555555" points="1302.74,-143.56 1312.77,-140.16 1302.81,-136.56 1302.74,-143.56"/>
</g>
<!-- n6 -->
<g id="node25" class="node">
<title>n6</title>
<path fill="#e8f4f8" stroke="black" d="M1243,-72C1243,-72 1113,-72 1113,-72 1107,-72 1101,-66 1101,-60 1101,-60 1101,-48 1101,-48 1101,-42 1107,-36 1113,-36 1113,-36 1243,-36 1243,-36 1249,-36 1255,-42 1255,-48 1255,-48 1255,-60 1255,-60 1255,-66 1249,-72 1243,-72"/>
<text text-anchor="middle" x="1178" y="-51.2" font-family="Helvetica" font-size="11.00">Call Service Main Process</text>
</g>
<!-- n10&#45;&gt;n6 -->
<g id="edge23" class="edge">
<title>n10&#45;&gt;n6</title>
<path fill="none" stroke="#555555" d="M1027.05,-118.99C1056.06,-106.42 1094.97,-89.55 1125.88,-76.16"/>
<polygon fill="#555555" stroke="#555555" points="1127.41,-79.31 1135.2,-72.12 1124.63,-72.88 1127.41,-79.31"/>
</g>
<!-- n11 -->
<g id="node4" class="node">
<title>n11</title>
<path fill="#e8f4f8" stroke="black" d="M2206,-122C2206,-122 2164,-122 2164,-122 2158,-122 2152,-116 2152,-110 2152,-110 2152,-98 2152,-98 2152,-92 2158,-86 2164,-86 2164,-86 2206,-86 2206,-86 2212,-86 2218,-92 2218,-98 2218,-98 2218,-110 2218,-110 2218,-116 2212,-122 2206,-122"/>
<text text-anchor="middle" x="2185" y="-101.2" font-family="Helvetica" font-size="11.00">LogEnd</text>
</g>
<!-- n12 -->
<g id="node5" class="node">
<title>n12</title>
<path fill="#ffccbc" stroke="black" d="M2318,-122C2318,-122 2288,-122 2288,-122 2282,-122 2276,-116 2276,-110 2276,-110 2276,-98 2276,-98 2276,-92 2282,-86 2288,-86 2288,-86 2318,-86 2318,-86 2324,-86 2330,-92 2330,-98 2330,-98 2330,-110 2330,-110 2330,-116 2324,-122 2318,-122"/>
<text text-anchor="middle" x="2303" y="-101.2" font-family="Helvetica" font-size="11.00">End</text>
</g>
<!-- n11&#45;&gt;n12 -->
<g id="edge10" class="edge">
<title>n11&#45;&gt;n12</title>
<path fill="none" stroke="#555555" d="M2218,-104C2232.83,-104 2250.5,-104 2265.81,-104"/>
<polygon fill="#555555" stroke="#555555" points="2265.96,-107.5 2275.96,-104 2265.96,-100.5 2265.96,-107.5"/>
</g>
<!-- n13 -->
<g id="node6" class="node">
<title>n13</title>
<path fill="#e8f4f8" stroke="black" d="M1897,-242C1897,-242 1754,-242 1754,-242 1748,-242 1742,-236 1742,-230 1742,-230 1742,-218 1742,-218 1742,-212 1748,-206 1754,-206 1754,-206 1897,-206 1897,-206 1903,-206 1909,-212 1909,-218 1909,-218 1909,-230 1909,-230 1909,-236 1903,-242 1897,-242"/>
<text text-anchor="middle" x="1825.5" y="-221.2" font-family="Helvetica" font-size="11.00">GenerateResponseHeader&#45;1</text>
</g>
<!-- n14 -->
<g id="node7" class="node">
<title>n14</title>
<path fill="#e8f4f8" stroke="black" d="M2064.5,-242C2064.5,-242 1996.5,-242 1996.5,-242 1990.5,-242 1984.5,-236 1984.5,-230 1984.5,-230 1984.5,-218 1984.5,-218 1984.5,-212 1990.5,-206 1996.5,-206 1996.5,-206 2064.5,-206 2064.5,-206 2070.5,-206 2076.5,-212 2076.5,-218 2076.5,-218 2076.5,-230 2076.5,-230 2076.5,-236 2070.5,-242 2064.5,-242"/>
<text text-anchor="middle" x="2030.5" y="-221.2" font-family="Helvetica" font-size="11.00">SetContext&#45;2</text>
</g>
<!-- n13&#45;&gt;n14 -->
<g id="edge12" class="edge">
<title>n13&#45;&gt;n14</title>
<path fill="none" stroke="#555555" d="M1909.07,-224C1930.94,-224 1954.03,-224 1974.08,-224"/>
<polygon fill="#555555" stroke="#555555" points="1974.26,-227.5 1984.26,-224 1974.26,-220.5 1974.26,-227.5"/>
</g>
<!-- n14&#45;&gt;n11 -->
<g id="edge19" class="edge">
<title>n14&#45;&gt;n11</title>
<path fill="none" stroke="#555555" d="M2062.73,-205.99C2072.95,-199.72 2084.19,-192.39 2094,-185 2116.86,-167.79 2140.86,-145.97 2158.33,-129.32"/>
<polygon fill="#555555" stroke="#555555" points="2161.08,-131.52 2165.86,-122.07 2156.23,-126.48 2161.08,-131.52"/>
</g>
<!-- n15 -->
<g id="node8" class="node">
<title>n15</title>
<path fill="#c8e6c9" stroke="black" d="M42,-277C42,-277 12,-277 12,-277 6,-277 0,-271 0,-265 0,-265 0,-253 0,-253 0,-247 6,-241 12,-241 12,-241 42,-241 42,-241 48,-241 54,-247 54,-253 54,-253 54,-265 54,-265 54,-271 48,-277 42,-277"/>
<text text-anchor="middle" x="27" y="-256.2" font-family="Helvetica" font-size="11.00">Start</text>
</g>
<!-- n16 -->
<g id="node9" class="node">
<title>n16</title>
<path fill="#e8f4f8" stroke="black" d="M265,-319C265,-319 124,-319 124,-319 118,-319 112,-313 112,-307 112,-307 112,-295 112,-295 112,-289 118,-283 124,-283 124,-283 265,-283 265,-283 271,-283 277,-289 277,-295 277,-295 277,-307 277,-307 277,-313 271,-319 265,-319"/>
<text text-anchor="middle" x="194.5" y="-298.2" font-family="Helvetica" font-size="11.00">GenerateInvocationDetails&#45;1</text>
</g>
<!-- n15&#45;&gt;n16 -->
<g id="edge13" class="edge">
<title>n15&#45;&gt;n16</title>
<path fill="none" stroke="#555555" d="M54.22,-265.66C70.19,-269.71 91.53,-275.12 112.71,-280.5"/>
<polygon fill="#555555" stroke="#555555" points="111.85,-283.89 122.4,-282.96 113.57,-277.11 111.85,-283.89"/>
</g>
<!-- n17 -->
<g id="node10" class="node">
<title>n17</title>
<path fill="#e8f4f8" stroke="black" d="M252.5,-238C252.5,-238 136.5,-238 136.5,-238 130.5,-238 124.5,-232 124.5,-226 124.5,-226 124.5,-214 124.5,-214 124.5,-208 130.5,-202 136.5,-202 136.5,-202 252.5,-202 252.5,-202 258.5,-202 264.5,-208 264.5,-214 264.5,-214 264.5,-226 264.5,-226 264.5,-232 258.5,-238 252.5,-238"/>
<text text-anchor="middle" x="194.5" y="-217.2" font-family="Helvetica" font-size="11.00">GetBusinessResources</text>
</g>
<!-- n15&#45;&gt;n17 -->
<g id="edge14" class="edge">
<title>n15&#45;&gt;n17</title>
<path fill="none" stroke="#555555" d="M54.22,-252.82C70.59,-248.96 92.59,-243.78 114.28,-238.67"/>
<polygon fill="#555555" stroke="#555555" points="115.27,-242.03 124.2,-236.33 113.66,-235.22 115.27,-242.03"/>
</g>
<!-- n20 -->
<g id="node14" class="node">
<title>n20</title>
<path fill="#e8f4f8" stroke="black" d="M436,-323C436,-323 389,-323 389,-323 383,-323 377,-317 377,-311 377,-311 377,-299 377,-299 377,-293 383,-287 389,-287 389,-287 436,-287 436,-287 442,-287 448,-293 448,-299 448,-299 448,-311 448,-311 448,-317 442,-323 436,-323"/>
<text text-anchor="middle" x="412.5" y="-302.2" font-family="Helvetica" font-size="11.00">Assign&#45;1</text>
</g>
<!-- n16&#45;&gt;n20 -->
<g id="edge26" class="edge">
<title>n16&#45;&gt;n20</title>
<path fill="none" stroke="#555555" d="M277.16,-302.51C307.51,-303.07 340.81,-303.69 366.66,-304.17"/>
<polygon fill="#555555" stroke="#555555" points="366.83,-307.67 376.9,-304.36 366.96,-300.67 366.83,-307.67"/>
</g>
<!-- n24 -->
<g id="node18" class="node">
<title>n24</title>
<path fill="#e8f4f8" stroke="black" d="M478,-157C478,-157 347,-157 347,-157 341,-157 335,-151 335,-145 335,-145 335,-133 335,-133 335,-127 341,-121 347,-121 347,-121 478,-121 478,-121 484,-121 490,-127 490,-133 490,-133 490,-145 490,-145 490,-151 484,-157 478,-157"/>
<text text-anchor="middle" x="412.5" y="-136.2" font-family="Helvetica" font-size="11.00">GenerateInvocationDetails</text>
</g>
<!-- n17&#45;&gt;n24 -->
<g id="edge27" class="edge">
<title>n17&#45;&gt;n24</title>
<path fill="none" stroke="#555555" d="M243.71,-201.92C276.32,-189.69 319.57,-173.47 353.98,-160.57"/>
<polygon fill="#555555" stroke="#555555" points="355.31,-163.81 363.44,-157.02 352.85,-157.26 355.31,-163.81"/>
</g>
<!-- n25 -->
<g id="node19" class="node">
<title>n25</title>
<path fill="#e8f4f8" stroke="black" d="M458.5,-238C458.5,-238 366.5,-238 366.5,-238 360.5,-238 354.5,-232 354.5,-226 354.5,-226 354.5,-214 354.5,-214 354.5,-208 360.5,-202 366.5,-202 366.5,-202 458.5,-202 458.5,-202 464.5,-202 470.5,-208 470.5,-214 470.5,-214 470.5,-226 470.5,-226 470.5,-232 464.5,-238 458.5,-238"/>
<text text-anchor="middle" x="412.5" y="-217.2" font-family="Helvetica" font-size="11.00">MapAnyException</text>
</g>
<!-- n17&#45;&gt;n25 -->
<g id="edge28" class="edge">
<title>n17&#45;&gt;n25</title>
<path fill="none" stroke="#555555" d="M264.74,-220C290.11,-220 318.78,-220 344.01,-220"/>
<polygon fill="#555555" stroke="#555555" points="344.22,-223.5 354.22,-220 344.22,-216.5 344.22,-223.5"/>
</g>
<!-- n18 -->
<g id="node11" class="node">
<title>n18</title>
<path fill="#e8f4f8" stroke="black" d="M2060,-43C2060,-43 2001,-43 2001,-43 1995,-43 1989,-37 1989,-31 1989,-31 1989,-19 1989,-19 1989,-13 1995,-7 2001,-7 2001,-7 2060,-7 2060,-7 2066,-7 2072,-13 2072,-19 2072,-19 2072,-31 2072,-31 2072,-37 2066,-43 2060,-43"/>
<text text-anchor="middle" x="2030.5" y="-22.2" font-family="Helvetica" font-size="11.00">SetContext</text>
</g>
<!-- n18&#45;&gt;n11 -->
<g id="edge20" class="edge">
<title>n18&#45;&gt;n11</title>
<path fill="none" stroke="#555555" d="M2066.49,-43.12C2089.15,-54.87 2118.79,-70.22 2142.62,-82.56"/>
<polygon fill="#555555" stroke="#555555" points="2141.29,-85.82 2151.78,-87.31 2144.51,-79.6 2141.29,-85.82"/>
</g>
<!-- n19 -->
<g id="node12" class="node">
<title>n19</title>
<path fill="#e8f4f8" stroke="black" d="M654.5,-156C654.5,-156 617.5,-156 617.5,-156 611.5,-156 605.5,-150 605.5,-144 605.5,-144 605.5,-132 605.5,-132 605.5,-126 611.5,-120 617.5,-120 617.5,-120 654.5,-120 654.5,-120 660.5,-120 666.5,-126 666.5,-132 666.5,-132 666.5,-144 666.5,-144 666.5,-150 660.5,-156 654.5,-156"/>
<text text-anchor="middle" x="636" y="-135.2" font-family="Helvetica" font-size="11.00">Assign</text>
</g>
<!-- n9 -->
<g id="node28" class="node">
<title>n9</title>
<path fill="#e8f4f8" stroke="black" d="M848,-155C848,-155 802,-155 802,-155 796,-155 790,-149 790,-143 790,-143 790,-131 790,-131 790,-125 796,-119 802,-119 802,-119 848,-119 848,-119 854,-119 860,-125 860,-131 860,-131 860,-143 860,-143 860,-149 854,-155 848,-155"/>
<text text-anchor="middle" x="825" y="-134.2" font-family="Helvetica" font-size="11.00">LogStart</text>
</g>
<!-- n19&#45;&gt;n9 -->
<g id="edge16" class="edge">
<title>n19&#45;&gt;n9</title>
<path fill="none" stroke="#555555" d="M666.63,-137.84C696.96,-137.68 744.47,-137.43 779.36,-137.24"/>
<polygon fill="#555555" stroke="#555555" points="779.77,-140.74 789.75,-137.18 779.73,-133.74 779.77,-140.74"/>
</g>
<!-- n21 -->
<g id="node15" class="node">
<title>n21</title>
<path fill="#e8f4f8" stroke="black" d="M1641.5,-84C1641.5,-84 1589.5,-84 1589.5,-84 1583.5,-84 1577.5,-78 1577.5,-72 1577.5,-72 1577.5,-60 1577.5,-60 1577.5,-54 1583.5,-48 1589.5,-48 1589.5,-48 1641.5,-48 1641.5,-48 1647.5,-48 1653.5,-54 1653.5,-60 1653.5,-60 1653.5,-72 1653.5,-72 1653.5,-78 1647.5,-84 1641.5,-84"/>
<text text-anchor="middle" x="1615.5" y="-63.2" font-family="Helvetica" font-size="11.00">LogEnd&#45;1</text>
</g>
<!-- n2&#45;&gt;n21 -->
<g id="edge18" class="edge">
<title>n2&#45;&gt;n21</title>
<path fill="none" stroke="#555555" d="M1453.17,-122.94C1488.04,-110.63 1533.86,-94.46 1567.75,-82.5"/>
<polygon fill="#555555" stroke="#555555" points="1569.16,-85.72 1577.42,-79.09 1566.83,-79.11 1569.16,-85.72"/>
</g>
<!-- n3 -->
<g id="node22" class="node">
<title>n3</title>
<path fill="#e8f4f8" stroke="black" d="M1672,-242C1672,-242 1559,-242 1559,-242 1553,-242 1547,-236 1547,-230 1547,-230 1547,-218 1547,-218 1547,-212 1553,-206 1559,-206 1559,-206 1672,-206 1672,-206 1678,-206 1684,-212 1684,-218 1684,-218 1684,-230 1684,-230 1684,-236 1678,-242 1672,-242"/>
<text text-anchor="middle" x="1615.5" y="-221.2" font-family="Helvetica" font-size="11.00">RenderErrorResponse</text>
</g>
<!-- n2&#45;&gt;n3 -->
<g id="edge2" class="edge">
<title>n2&#45;&gt;n3</title>
<path fill="none" stroke="#555555" d="M1448.11,-159.01C1480.58,-171.69 1524.22,-188.74 1558.66,-202.19"/>
<polygon fill="#555555" stroke="#555555" points="1557.53,-205.5 1568.11,-205.88 1560.07,-198.98 1557.53,-205.5"/>
</g>
<!-- n5 -->
<g id="node24" class="node">
<title>n5</title>
<path fill="#e8f4f8" stroke="black" d="M1632,-163C1632,-163 1599,-163 1599,-163 1593,-163 1587,-157 1587,-151 1587,-151 1587,-139 1587,-139 1587,-133 1593,-127 1599,-127 1599,-127 1632,-127 1632,-127 1638,-127 1644,-133 1644,-139 1644,-139 1644,-151 1644,-151 1644,-157 1638,-163 1632,-163"/>
<text text-anchor="middle" x="1615.5" y="-142.2" font-family="Helvetica" font-size="11.00">Null&#45;1</text>
</g>
<!-- n2&#45;&gt;n5 -->
<g id="edge4" class="edge">
<title>n2&#45;&gt;n5</title>
<path fill="none" stroke="#555555" d="M1489.05,-142.64C1519.6,-143.21 1552.34,-143.83 1576.71,-144.29"/>
<polygon fill="#555555" stroke="#555555" points="1576.88,-147.79 1586.95,-144.48 1577.02,-140.79 1576.88,-147.79"/>
</g>
<!-- n20&#45;&gt;n0 -->
<g id="edge17" class="edge">
<title>n20&#45;&gt;n0</title>
<path fill="none" stroke="#555555" d="M448.11,-305.31C472.15,-305.53 505.48,-305.83 537.34,-306.12"/>
<polygon fill="#555555" stroke="#555555" points="537.59,-309.62 547.62,-306.21 537.65,-302.62 537.59,-309.62"/>
</g>
<!-- n22 -->
<g id="node16" class="node">
<title>n22</title>
<path fill="#e8f4f8" stroke="black" d="M1867,-84C1867,-84 1784,-84 1784,-84 1778,-84 1772,-78 1772,-72 1772,-72 1772,-60 1772,-60 1772,-54 1778,-48 1784,-48 1784,-48 1867,-48 1867,-48 1873,-48 1879,-54 1879,-60 1879,-60 1879,-72 1879,-72 1879,-78 1873,-84 1867,-84"/>
<text text-anchor="middle" x="1825.5" y="-63.2" font-family="Helvetica" font-size="11.00">SendSOAPFault</text>
</g>
<!-- n21&#45;&gt;n22 -->
<g id="edge21" class="edge">
<title>n21&#45;&gt;n22</title>
<path fill="none" stroke="#555555" d="M1653.69,-66C1683.57,-66 1726.22,-66 1761.43,-66"/>
<polygon fill="#555555" stroke="#555555" points="1761.62,-69.5 1771.62,-66 1761.62,-62.5 1761.62,-69.5"/>
</g>
<!-- n24&#45;&gt;n19 -->
<g id="edge25" class="edge">
<title>n24&#45;&gt;n19</title>
<path fill="none" stroke="#555555" d="M490.04,-138.65C525.45,-138.49 566.04,-138.31 595.25,-138.18"/>
<polygon fill="#555555" stroke="#555555" points="595.48,-141.68 605.46,-138.13 595.45,-134.68 595.48,-141.68"/>
</g>
<!-- n26 -->
<g id="node20" class="node">
<title>n26</title>
<path fill="#e8f4f8" stroke="black" d="M711.5,-238C711.5,-238 560.5,-238 560.5,-238 554.5,-238 548.5,-232 548.5,-226 548.5,-226 548.5,-214 548.5,-214 548.5,-208 554.5,-202 560.5,-202 560.5,-202 711.5,-202 711.5,-202 717.5,-202 723.5,-208 723.5,-214 723.5,-214 723.5,-226 723.5,-226 723.5,-232 717.5,-238 711.5,-238"/>
<text text-anchor="middle" x="636" y="-217.2" font-family="Helvetica" font-size="11.00">GenerateInvocationDetails&#45;1&#45;1</text>
</g>
<!-- n25&#45;&gt;n26 -->
<g id="edge29" class="edge">
<title>n25&#45;&gt;n26</title>
<path fill="none" stroke="#555555" d="M470.54,-220C491.2,-220 515.14,-220 538.26,-220"/>
<polygon fill="#555555" stroke="#555555" points="538.46,-223.5 548.46,-220 538.46,-216.5 538.46,-223.5"/>
</g>
<!-- n27 -->
<g id="node21" class="node">
<title>n27</title>
<path fill="#e8f4f8" stroke="black" d="M1206,-238C1206,-238 1150,-238 1150,-238 1144,-238 1138,-232 1138,-226 1138,-226 1138,-214 1138,-214 1138,-208 1144,-202 1150,-202 1150,-202 1206,-202 1206,-202 1212,-202 1218,-208 1218,-214 1218,-214 1218,-226 1218,-226 1218,-232 1212,-238 1206,-238"/>
<text text-anchor="middle" x="1178" y="-217.2" font-family="Helvetica" font-size="11.00">Assign&#45;1&#45;1</text>
</g>
<!-- n26&#45;&gt;n27 -->
<g id="edge30" class="edge">
<title>n26&#45;&gt;n27</title>
<path fill="none" stroke="#555555" d="M723.76,-220C838.3,-220 1036.15,-220 1127.79,-220"/>
<polygon fill="#555555" stroke="#555555" points="1127.9,-223.5 1137.9,-220 1127.9,-216.5 1127.9,-223.5"/>
</g>
<!-- n27&#45;&gt;n2 -->
<g id="edge31" class="edge">
<title>n27&#45;&gt;n2</title>
<path fill="none" stroke="#555555" d="M1218,-206.06C1251.7,-194.01 1300.95,-176.41 1339.72,-162.55"/>
<polygon fill="#555555" stroke="#555555" points="1341.1,-165.77 1349.33,-159.11 1338.74,-159.18 1341.1,-165.77"/>
</g>
<!-- n3&#45;&gt;n13 -->
<g id="edge11" class="edge">
<title>n3&#45;&gt;n13</title>
<path fill="none" stroke="#555555" d="M1684.03,-224C1699.11,-224 1715.37,-224 1731.28,-224"/>
<polygon fill="#555555" stroke="#555555" points="1731.68,-227.5 1741.68,-224 1731.68,-220.5 1731.68,-227.5"/>
</g>
<!-- n8 -->
<g id="node27" class="node">
<title>n8</title>
<path fill="#e8f4f8" stroke="black" d="M2082,-163C2082,-163 1979,-163 1979,-163 1973,-163 1967,-157 1967,-151 1967,-151 1967,-139 1967,-139 1967,-133 1973,-127 1979,-127 1979,-127 2082,-127 2082,-127 2088,-127 2094,-133 2094,-139 2094,-139 2094,-151 2094,-151 2094,-157 2088,-163 2082,-163"/>
<text text-anchor="middle" x="2030.5" y="-142.2" font-family="Helvetica" font-size="11.00">SendSOAPFault&#45;1&#45;1</text>
</g>
<!-- n4&#45;&gt;n8 -->
<g id="edge8" class="edge">
<title>n4&#45;&gt;n8</title>
<path fill="none" stroke="#555555" d="M1860.94,-145C1887.07,-145 1923.93,-145 1956.52,-145"/>
<polygon fill="#555555" stroke="#555555" points="1956.94,-148.5 1966.94,-145 1956.94,-141.5 1956.94,-148.5"/>
</g>
<!-- n5&#45;&gt;n4 -->
<g id="edge5" class="edge">
<title>n5&#45;&gt;n4</title>
<path fill="none" stroke="#555555" d="M1644.12,-145C1678.86,-145 1738.94,-145 1780.15,-145"/>
<polygon fill="#555555" stroke="#555555" points="1780.19,-148.5 1790.19,-145 1780.19,-141.5 1780.19,-148.5"/>
</g>
<!-- n6&#45;&gt;n2 -->
<g id="edge7" class="edge">
<title>n6&#45;&gt;n2</title>
<path fill="none" stroke="#555555" d="M1224.79,-72.03C1259.61,-85.73 1307.66,-104.65 1344.64,-119.21"/>
<polygon fill="#555555" stroke="#555555" points="1343.68,-122.59 1354.27,-123 1346.24,-116.08 1343.68,-122.59"/>
</g>
<!-- n7 -->
<g id="node26" class="node">
<title>n7</title>
<path fill="#e8f4f8" stroke="black" d="M1468,-36C1468,-36 1334,-36 1334,-36 1328,-36 1322,-30 1322,-24 1322,-24 1322,-12 1322,-12 1322,-6 1328,0 1334,0 1334,0 1468,0 1468,0 1474,0 1480,-6 1480,-12 1480,-12 1480,-24 1480,-24 1480,-30 1474,-36 1468,-36"/>
<text text-anchor="middle" x="1401" y="-15.2" font-family="Helvetica" font-size="11.00">GenerateResponseHeader</text>
</g>
<!-- n6&#45;&gt;n7 -->
<g id="edge6" class="edge">
<title>n6&#45;&gt;n7</title>
<path fill="none" stroke="#555555" d="M1255.06,-41.61C1273.37,-38.63 1293.08,-35.42 1311.89,-32.35"/>
<polygon fill="#555555" stroke="#555555" points="1312.62,-35.78 1321.93,-30.72 1311.49,-28.87 1312.62,-35.78"/>
</g>
<!-- n7&#45;&gt;n18 -->
<g id="edge15" class="edge">
<title>n7&#45;&gt;n18</title>
<path fill="none" stroke="#555555" d="M1480.2,-18.87C1610.7,-20.33 1869.29,-23.21 1978.71,-24.43"/>
<polygon fill="#555555" stroke="#555555" points="1978.78,-27.93 1988.82,-24.55 1978.86,-20.93 1978.78,-27.93"/>
</g>
<!-- n9&#45;&gt;n10 -->
<g id="edge9" class="edge">
<title>n9&#45;&gt;n10</title>
<path fill="none" stroke="#555555" d="M860.18,-137C879,-137 902.89,-137 924.62,-137"/>
<polygon fill="#555555" stroke="#555555" points="924.75,-140.5 934.75,-137 924.75,-133.5 924.75,-140.5"/>
</g>
</g>
</svg>
