<?xml version="1.0" encoding="UTF-8" standalone="no"?>
<!DOCTYPE svg PUBLIC "-//W3C//DTD SVG 1.1//EN"
 "http://www.w3.org/Graphics/SVG/1.1/DTD/svg11.dtd">
<!-- Generated by graphviz version 2.44.0 (0)
 -->
<!-- Title: process Pages: 1 -->
<svg width="956pt" height="268pt"
 viewBox="0.00 0.00 956.00 268.00" xmlns="http://www.w3.org/2000/svg" xmlns:xlink="http://www.w3.org/1999/xlink">
<g id="graph0" class="graph" transform="scale(1 1) rotate(0) translate(36 232)">
<title>process</title>
<polygon fill="#ffffff" stroke="transparent" points="-36,36 -36,-232 920,-232 920,36 -36,36"/>
<!-- n0 -->
<g id="node1" class="node">
<title>n0</title>
<path fill="#e8f4f8" stroke="black" d="M496.5,-117C496.5,-117 463.5,-117 463.5,-117 457.5,-117 451.5,-111 451.5,-105 451.5,-105 451.5,-93 451.5,-93 451.5,-87 457.5,-81 463.5,-81 463.5,-81 496.5,-81 496.5,-81 502.5,-81 508.5,-87 508.5,-93 508.5,-93 508.5,-105 508.5,-105 508.5,-111 502.5,-117 496.5,-117"/>
<text text-anchor="middle" x="480" y="-96.2" font-family="Helvetica" font-size="11.00">Null&#45;1</text>
</g>
<!-- n1 -->
<g id="node2" class="node">
<title>n1</title>
<path fill="#ffccbc" stroke="black" d="M681.5,-196C681.5,-196 651.5,-196 651.5,-196 645.5,-196 639.5,-190 639.5,-184 639.5,-184 639.5,-172 639.5,-172 639.5,-166 645.5,-160 651.5,-160 651.5,-160 681.5,-160 681.5,-160 687.5,-160 693.5,-166 693.5,-172 693.5,-172 693.5,-184 693.5,-184 693.5,-190 687.5,-196 681.5,-196"/>
<text text-anchor="middle" x="666.5" y="-175.2" font-family="Helvetica" font-size="11.00">End</text>
</g>
<!-- n0&#45;&gt;n1 -->
<g id="edge1" class="edge">
<title>n0&#45;&gt;n1</title>
<path fill="none" stroke="#555555" d="M508.62,-110.83C540.97,-124.68 594.61,-147.65 630.01,-162.8"/>
<polygon fill="#555555" stroke="#555555" points="628.91,-166.14 639.48,-166.86 631.67,-159.71 628.91,-166.14"/>
</g>
<!-- n2 -->
<g id="node3" class="node">
<title>n2</title>
<path fill="#e8f4f8" stroke="black" d="M713,-117C713,-117 620,-117 620,-117 614,-117 608,-111 608,-105 608,-105 608,-93 608,-93 608,-87 614,-81 620,-81 620,-81 713,-81 713,-81 719,-81 725,-87 725,-93 725,-93 725,-105 725,-105 725,-111 719,-117 713,-117"/>
<text text-anchor="middle" x="666.5" y="-96.2" font-family="Helvetica" font-size="11.00">ErrorInvalidSyntax</text>
</g>
<!-- n0&#45;&gt;n2 -->
<g id="edge2" class="edge">
<title>n0&#45;&gt;n2</title>
<path fill="none" stroke="#555555" d="M508.62,-99C532.1,-99 566.81,-99 597.62,-99"/>
<polygon fill="#555555" stroke="#555555" points="597.89,-102.5 607.89,-99 597.89,-95.5 597.89,-102.5"/>
</g>
<!-- n7 -->
<g id="node8" class="node">
<title>n7</title>
<path fill="#ffcdd2" stroke="black" d="M872,-75C872,-75 795,-75 795,-75 789,-75 783,-69 783,-63 783,-63 783,-51 783,-51 783,-45 789,-39 795,-39 795,-39 872,-39 872,-39 878,-39 884,-45 884,-51 884,-51 884,-63 884,-63 884,-69 878,-75 872,-75"/>
<text text-anchor="middle" x="833.5" y="-54.2" font-family="Helvetica" font-size="11.00">Generate Error</text>
</g>
<!-- n2&#45;&gt;n7 -->
<g id="edge8" class="edge">
<title>n2&#45;&gt;n7</title>
<path fill="none" stroke="#555555" d="M725.21,-84.31C740.61,-80.39 757.28,-76.15 772.78,-72.2"/>
<polygon fill="#555555" stroke="#555555" points="773.95,-75.52 782.78,-69.66 772.22,-68.73 773.95,-75.52"/>
</g>
<!-- n3 -->
<g id="node4" class="node">
<title>n3</title>
<path fill="#e8f4f8" stroke="black" d="M340,-75C340,-75 310,-75 310,-75 304,-75 298,-69 298,-63 298,-63 298,-51 298,-51 298,-45 304,-39 310,-39 310,-39 340,-39 340,-39 346,-39 352,-45 352,-51 352,-51 352,-63 352,-63 352,-69 346,-75 340,-75"/>
<text text-anchor="middle" x="325" y="-54.2" font-family="Helvetica" font-size="11.00">Null</text>
</g>
<!-- n3&#45;&gt;n0 -->
<g id="edge3" class="edge">
<title>n3&#45;&gt;n0</title>
<path fill="none" stroke="#555555" d="M352.3,-64.22C376.96,-70.99 414.07,-81.17 441.76,-88.78"/>
<polygon fill="#555555" stroke="#555555" points="440.93,-92.18 451.49,-91.45 442.78,-85.43 440.93,-92.18"/>
</g>
<!-- n6 -->
<g id="node7" class="node">
<title>n6</title>
<path fill="#e8f4f8" stroke="black" d="M538,-36C538,-36 422,-36 422,-36 416,-36 410,-30 410,-24 410,-24 410,-12 410,-12 410,-6 416,0 422,0 422,0 538,0 538,0 544,0 550,-6 550,-12 550,-12 550,-24 550,-24 550,-30 544,-36 538,-36"/>
<text text-anchor="middle" x="480" y="-15.2" font-family="Helvetica" font-size="11.00">ErrorMissingMandatory</text>
</g>
<!-- n3&#45;&gt;n6 -->
<g id="edge6" class="edge">
<title>n3&#45;&gt;n6</title>
<path fill="none" stroke="#555555" d="M352.3,-50.3C365.66,-46.89 382.67,-42.56 399.86,-38.17"/>
<polygon fill="#555555" stroke="#555555" points="401.15,-41.46 409.97,-35.6 399.42,-34.67 401.15,-41.46"/>
</g>
<!-- n4 -->
<g id="node5" class="node">
<title>n4</title>
<path fill="#c8e6c9" stroke="black" d="M42,-75C42,-75 12,-75 12,-75 6,-75 0,-69 0,-63 0,-63 0,-51 0,-51 0,-45 6,-39 12,-39 12,-39 42,-39 42,-39 48,-39 54,-45 54,-51 54,-51 54,-63 54,-63 54,-69 48,-75 42,-75"/>
<text text-anchor="middle" x="27" y="-54.2" font-family="Helvetica" font-size="11.00">Start</text>
</g>
<!-- n5 -->
<g id="node6" class="node">
<title>n5</title>
<path fill="#e8f4f8" stroke="black" d="M228,-75C228,-75 124,-75 124,-75 118,-75 112,-69 112,-63 112,-63 112,-51 112,-51 112,-45 118,-39 124,-39 124,-39 228,-39 228,-39 234,-39 240,-45 240,-51 240,-51 240,-63 240,-63 240,-69 234,-75 228,-75"/>
<text text-anchor="middle" x="176" y="-54.2" font-family="Helvetica" font-size="11.00">DefaultErrorSchema</text>
</g>
<!-- n4&#45;&gt;n5 -->
<g id="edge4" class="edge">
<title>n4&#45;&gt;n5</title>
<path fill="none" stroke="#555555" d="M54.28,-57C67.74,-57 84.87,-57 101.96,-57"/>
<polygon fill="#555555" stroke="#555555" points="101.99,-60.5 111.99,-57 101.99,-53.5 101.99,-60.5"/>
</g>
<!-- n5&#45;&gt;n3 -->
<g id="edge5" class="edge">
<title>n5&#45;&gt;n3</title>
<path fill="none" stroke="#555555" d="M240.19,-57C256.32,-57 273.11,-57 287.4,-57"/>
<polygon fill="#555555" stroke="#555555" points="287.78,-60.5 297.78,-57 287.78,-53.5 287.78,-60.5"/>
</g>
<!-- n6&#45;&gt;n7 -->
<g id="edge7" class="edge">
<title>n6&#45;&gt;n7</title>
<path fill="none" stroke="#555555" d="M550.03,-25.66C614.99,-32.87 711.26,-43.55 772.94,-50.39"/>
<polygon fill="#555555" stroke="#555555" points="772.58,-53.87 782.9,-51.5 773.35,-46.92 772.58,-53.87"/>
</g>
</g>
</svg>
