<?xml version="1.0" encoding="UTF-8" standalone="no"?>
<!DOCTYPE svg PUBLIC "-//W3C//DTD SVG 1.1//EN"
 "http://www.w3.org/Graphics/SVG/1.1/DTD/svg11.dtd">
<!-- Generated by graphviz version 2.44.0 (0)
 -->
<!-- Title: process Pages: 1 -->
<svg width="412pt" height="187pt"
 viewBox="0.00 0.00 412.00 187.00" xmlns="http://www.w3.org/2000/svg" xmlns:xlink="http://www.w3.org/1999/xlink">
<g id="graph0" class="graph" transform="scale(1 1) rotate(0) translate(36 151)">
<title>process</title>
<polygon fill="#ffffff" stroke="transparent" points="-36,36 -36,-151 376,-151 376,36 -36,36"/>
<!-- n0 -->
<g id="node1" class="node">
<title>n0</title>
<path fill="#c8e6c9" stroke="black" d="M42,-75C42,-75 12,-75 12,-75 6,-75 0,-69 0,-63 0,-63 0,-51 0,-51 0,-45 6,-39 12,-39 12,-39 42,-39 42,-39 48,-39 54,-45 54,-51 54,-51 54,-63 54,-63 54,-69 48,-75 42,-75"/>
<text text-anchor="middle" x="27" y="-54.2" font-family="Helvetica" font-size="11.00">Start</text>
</g>
<!-- n1 -->
<g id="node2" class="node">
<title>n1</title>
<path fill="#e8f4f8" stroke="black" d="M169,-75C169,-75 124,-75 124,-75 118,-75 112,-69 112,-63 112,-63 112,-51 112,-51 112,-45 118,-39 124,-39 124,-39 169,-39 169,-39 175,-39 181,-45 181,-51 181,-51 181,-63 181,-63 181,-69 175,-75 169,-75"/>
<text text-anchor="middle" x="146.5" y="-54.2" font-family="Helvetica" font-size="11.00">Blowfish</text>
</g>
<!-- n0&#45;&gt;n1 -->
<g id="edge1" class="edge">
<title>n0&#45;&gt;n1</title>
<path fill="none" stroke="#555555" d="M54.08,-57C68.05,-57 85.65,-57 101.66,-57"/>
<polygon fill="#555555" stroke="#555555" points="101.9,-60.5 111.9,-57 101.9,-53.5 101.9,-60.5"/>
</g>
<!-- n2 -->
<g id="node3" class="node">
<title>n2</title>
<path fill="#ffccbc" stroke="black" d="M304.5,-115C304.5,-115 274.5,-115 274.5,-115 268.5,-115 262.5,-109 262.5,-103 262.5,-103 262.5,-91 262.5,-91 262.5,-85 268.5,-79 274.5,-79 274.5,-79 304.5,-79 304.5,-79 310.5,-79 316.5,-85 316.5,-91 316.5,-91 316.5,-103 316.5,-103 316.5,-109 310.5,-115 304.5,-115"/>
<text text-anchor="middle" x="289.5" y="-94.2" font-family="Helvetica" font-size="11.00">End</text>
</g>
<!-- n1&#45;&gt;n2 -->
<g id="edge2" class="edge">
<title>n1&#45;&gt;n2</title>
<path fill="none" stroke="#555555" d="M181.27,-66.58C202.65,-72.65 230.29,-80.49 252.15,-86.69"/>
<polygon fill="#555555" stroke="#555555" points="251.48,-90.13 262.05,-89.5 253.39,-83.4 251.48,-90.13"/>
</g>
<!-- n3 -->
<g id="node4" class="node">
<title>n3</title>
<path fill="#ffcdd2" stroke="black" d="M328,-36C328,-36 251,-36 251,-36 245,-36 239,-30 239,-24 239,-24 239,-12 239,-12 239,-6 245,0 251,0 251,0 328,0 328,0 334,0 340,-6 340,-12 340,-12 340,-24 340,-24 340,-30 334,-36 328,-36"/>
<text text-anchor="middle" x="289.5" y="-15.2" font-family="Helvetica" font-size="11.00">Generate Error</text>
</g>
<!-- n1&#45;&gt;n3 -->
<g id="edge3" class="edge">
<title>n1&#45;&gt;n3</title>
<path fill="none" stroke="#555555" d="M181.27,-47.66C195.58,-43.7 212.68,-38.97 228.98,-34.46"/>
<polygon fill="#555555" stroke="#555555" points="230.28,-37.73 238.99,-31.69 228.42,-30.99 230.28,-37.73"/>
</g>
</g>
</svg>
