<?xml version="1.0" encoding="UTF-8" standalone="no"?>
<!DOCTYPE svg PUBLIC "-//W3C//DTD SVG 1.1//EN"
 "http://www.w3.org/Graphics/SVG/1.1/DTD/svg11.dtd">
<!-- Generated by graphviz version 2.44.0 (0)
 -->
<!-- Title: process Pages: 1 -->
<svg width="956pt" height="268pt"
 viewBox="0.00 0.00 956.00 268.00" xmlns="http://www.w3.org/2000/svg" xmlns:xlink="http://www.w3.org/1999/xlink">
<g id="graph0" class="graph" transform="scale(1 1) rotate(0) translate(36 232)">
<title>process</title>
<polygon fill="#ffffff" stroke="transparent" points="-36,36 -36,-232 920,-232 920,36 -36,36"/>
<!-- n0 -->
<g id="node1" class="node">
<title>n0</title>
<path fill="#e8f4f8" stroke="black" d="M340,-154C340,-154 310,-154 310,-154 304,-154 298,-148 298,-142 298,-142 298,-130 298,-130 298,-124 304,-118 310,-118 310,-118 340,-118 340,-118 346,-118 352,-124 352,-130 352,-130 352,-142 352,-142 352,-148 346,-154 340,-154"/>
<text text-anchor="middle" x="325" y="-133.2" font-family="Helvetica" font-size="11.00">Null</text>
</g>
<!-- n1 -->
<g id="node2" class="node">
<title>n1</title>
<path fill="#e8f4f8" stroke="black" d="M538,-196C538,-196 422,-196 422,-196 416,-196 410,-190 410,-184 410,-184 410,-172 410,-172 410,-166 416,-160 422,-160 422,-160 538,-160 538,-160 544,-160 550,-166 550,-172 550,-172 550,-184 550,-184 550,-190 544,-196 538,-196"/>
<text text-anchor="middle" x="480" y="-175.2" font-family="Helvetica" font-size="11.00">ErrorMissingMandatory</text>
</g>
<!-- n0&#45;&gt;n1 -->
<g id="edge1" class="edge">
<title>n0&#45;&gt;n1</title>
<path fill="none" stroke="#555555" d="M352.3,-143.22C366.57,-147.14 385.01,-152.2 403.38,-157.24"/>
<polygon fill="#555555" stroke="#555555" points="402.68,-160.68 413.25,-159.95 404.53,-153.93 402.68,-160.68"/>
</g>
<!-- n2 -->
<g id="node3" class="node">
<title>n2</title>
<path fill="#e8f4f8" stroke="black" d="M496.5,-115C496.5,-115 463.5,-115 463.5,-115 457.5,-115 451.5,-109 451.5,-103 451.5,-103 451.5,-91 451.5,-91 451.5,-85 457.5,-79 463.5,-79 463.5,-79 496.5,-79 496.5,-79 502.5,-79 508.5,-85 508.5,-91 508.5,-91 508.5,-103 508.5,-103 508.5,-109 502.5,-115 496.5,-115"/>
<text text-anchor="middle" x="480" y="-94.2" font-family="Helvetica" font-size="11.00">Null&#45;1</text>
</g>
<!-- n0&#45;&gt;n2 -->
<g id="edge4" class="edge">
<title>n0&#45;&gt;n2</title>
<path fill="none" stroke="#555555" d="M352.3,-129.3C376.96,-123.01 414.07,-113.55 441.76,-106.49"/>
<polygon fill="#555555" stroke="#555555" points="442.67,-109.87 451.49,-104.01 440.94,-103.09 442.67,-109.87"/>
</g>
<!-- n6 -->
<g id="node7" class="node">
<title>n6</title>
<path fill="#ffcdd2" stroke="black" d="M872,-117C872,-117 795,-117 795,-117 789,-117 783,-111 783,-105 783,-105 783,-93 783,-93 783,-87 789,-81 795,-81 795,-81 872,-81 872,-81 878,-81 884,-87 884,-93 884,-93 884,-105 884,-105 884,-111 878,-117 872,-117"/>
<text text-anchor="middle" x="833.5" y="-96.2" font-family="Helvetica" font-size="11.00">Generate Error</text>
</g>
<!-- n1&#45;&gt;n6 -->
<g id="edge5" class="edge">
<title>n1&#45;&gt;n6</title>
<path fill="none" stroke="#555555" d="M550.03,-169.65C599.26,-162.91 666.78,-152.06 725,-137 742.3,-132.52 760.77,-126.48 777.43,-120.53"/>
<polygon fill="#555555" stroke="#555555" points="778.8,-123.75 787.01,-117.05 776.41,-117.17 778.8,-123.75"/>
</g>
<!-- n3 -->
<g id="node4" class="node">
<title>n3</title>
<path fill="#ffccbc" stroke="black" d="M681.5,-115C681.5,-115 651.5,-115 651.5,-115 645.5,-115 639.5,-109 639.5,-103 639.5,-103 639.5,-91 639.5,-91 639.5,-85 645.5,-79 651.5,-79 651.5,-79 681.5,-79 681.5,-79 687.5,-79 693.5,-85 693.5,-91 693.5,-91 693.5,-103 693.5,-103 693.5,-109 687.5,-115 681.5,-115"/>
<text text-anchor="middle" x="666.5" y="-94.2" font-family="Helvetica" font-size="11.00">End</text>
</g>
<!-- n2&#45;&gt;n3 -->
<g id="edge2" class="edge">
<title>n2&#45;&gt;n3</title>
<path fill="none" stroke="#555555" d="M508.62,-97C540.69,-97 593.7,-97 629.1,-97"/>
<polygon fill="#555555" stroke="#555555" points="629.48,-100.5 639.48,-97 629.48,-93.5 629.48,-100.5"/>
</g>
<!-- n7 -->
<g id="node8" class="node">
<title>n7</title>
<path fill="#e8f4f8" stroke="black" d="M713,-36C713,-36 620,-36 620,-36 614,-36 608,-30 608,-24 608,-24 608,-12 608,-12 608,-6 614,0 620,0 620,0 713,0 713,0 719,0 725,-6 725,-12 725,-12 725,-24 725,-24 725,-30 719,-36 713,-36"/>
<text text-anchor="middle" x="666.5" y="-15.2" font-family="Helvetica" font-size="11.00">ErrorInvalidSyntax</text>
</g>
<!-- n2&#45;&gt;n7 -->
<g id="edge6" class="edge">
<title>n2&#45;&gt;n7</title>
<path fill="none" stroke="#555555" d="M508.62,-85.17C536.37,-73.29 579.8,-54.7 613.94,-40.08"/>
<polygon fill="#555555" stroke="#555555" points="615.48,-43.22 623.3,-36.07 612.73,-36.79 615.48,-43.22"/>
</g>
<!-- n4 -->
<g id="node5" class="node">
<title>n4</title>
<path fill="#c8e6c9" stroke="black" d="M42,-154C42,-154 12,-154 12,-154 6,-154 0,-148 0,-142 0,-142 0,-130 0,-130 0,-124 6,-118 12,-118 12,-118 42,-118 42,-118 48,-118 54,-124 54,-130 54,-130 54,-142 54,-142 54,-148 48,-154 42,-154"/>
<text text-anchor="middle" x="27" y="-133.2" font-family="Helvetica" font-size="11.00">Start</text>
</g>
<!-- n5 -->
<g id="node6" class="node">
<title>n5</title>
<path fill="#e8f4f8" stroke="black" d="M228,-154C228,-154 124,-154 124,-154 118,-154 112,-148 112,-142 112,-142 112,-130 112,-130 112,-124 118,-118 124,-118 124,-118 228,-118 228,-118 234,-118 240,-124 240,-130 240,-130 240,-142 240,-142 240,-148 234,-154 228,-154"/>
<text text-anchor="middle" x="176" y="-133.2" font-family="Helvetica" font-size="11.00">DefaultErrorSchema</text>
</g>
<!-- n4&#45;&gt;n5 -->
<g id="edge3" class="edge">
<title>n4&#45;&gt;n5</title>
<path fill="none" stroke="#555555" d="M54.28,-136C67.74,-136 84.87,-136 101.96,-136"/>
<polygon fill="#555555" stroke="#555555" points="101.99,-139.5 111.99,-136 101.99,-132.5 101.99,-139.5"/>
</g>
<!-- n5&#45;&gt;n0 -->
<g id="edge7" class="edge">
<title>n5&#45;&gt;n0</title>
<path fill="none" stroke="#555555" d="M240.19,-136C256.32,-136 273.11,-136 287.4,-136"/>
<polygon fill="#555555" stroke="#555555" points="287.78,-139.5 297.78,-136 287.78,-132.5 287.78,-139.5"/>
</g>
<!-- n7&#45;&gt;n6 -->
<g id="edge8" class="edge">
<title>n7&#45;&gt;n6</title>
<path fill="none" stroke="#555555" d="M704.53,-36.18C728.73,-48.06 760.53,-63.67 786.37,-76.35"/>
<polygon fill="#555555" stroke="#555555" points="785.08,-79.62 795.59,-80.88 788.16,-73.33 785.08,-79.62"/>
</g>
</g>
</svg>
