<?xml version="1.0" encoding="UTF-8" standalone="no"?>
<!DOCTYPE svg PUBLIC "-//W3C//DTD SVG 1.1//EN"
 "http://www.w3.org/Graphics/SVG/1.1/DTD/svg11.dtd">
<!-- Generated by graphviz version 2.44.0 (0)
 -->
<!-- Title: process Pages: 1 -->
<svg width="777pt" height="440pt"
 viewBox="0.00 0.00 777.00 440.00" xmlns="http://www.w3.org/2000/svg" xmlns:xlink="http://www.w3.org/1999/xlink">
<g id="graph0" class="graph" transform="scale(1 1) rotate(0) translate(36 404)">
<title>process</title>
<polygon fill="#ffffff" stroke="transparent" points="-36,36 -36,-404 741,-404 741,36 -36,36"/>
<!-- n0 -->
<g id="node1" class="node">
<title>n0</title>
<path fill="#c8e6c9" stroke="black" d="M42,-160C42,-160 12,-160 12,-160 6,-160 0,-154 0,-148 0,-148 0,-136 0,-136 0,-130 6,-124 12,-124 12,-124 42,-124 42,-124 48,-124 54,-130 54,-136 54,-136 54,-148 54,-148 54,-154 48,-160 42,-160"/>
<text text-anchor="middle" x="27" y="-139.2" font-family="Helvetica" font-size="11.00">start</text>
</g>
<!-- n1 -->
<g id="node2" class="node">
<title>n1</title>
<path fill="#e8f4f8" stroke="black" d="M538.5,-202C538.5,-202 503.5,-202 503.5,-202 497.5,-202 491.5,-196 491.5,-190 491.5,-190 491.5,-178 491.5,-178 491.5,-172 497.5,-166 503.5,-166 503.5,-166 538.5,-166 538.5,-166 544.5,-166 550.5,-172 550.5,-178 550.5,-178 550.5,-190 550.5,-190 550.5,-196 544.5,-202 538.5,-202"/>
<text text-anchor="middle" x="521" y="-181.2" font-family="Helvetica" font-size="11.00">Group</text>
</g>
<!-- n0&#45;&gt;n1 -->
<g id="edge1" class="edge">
<title>n0&#45;&gt;n1</title>
<path fill="none" stroke="#555555" d="M40.28,-160.33C54.75,-180.09 80.81,-210.41 112,-223 239.88,-274.61 407.96,-225.73 482.09,-198.93"/>
<polygon fill="#555555" stroke="#555555" points="483.32,-202.21 491.5,-195.46 480.9,-195.64 483.32,-202.21"/>
</g>
<!-- n2 -->
<g id="node6" class="node">
<title>n2</title>
<path fill="#e8f4f8" stroke="black" d="M205.5,-202C205.5,-202 146.5,-202 146.5,-202 140.5,-202 134.5,-196 134.5,-190 134.5,-190 134.5,-178 134.5,-178 134.5,-172 140.5,-166 146.5,-166 146.5,-166 205.5,-166 205.5,-166 211.5,-166 217.5,-172 217.5,-178 217.5,-178 217.5,-190 217.5,-190 217.5,-196 211.5,-202 205.5,-202"/>
<text text-anchor="middle" x="176" y="-181.2" font-family="Helvetica" font-size="11.00">WriteToLog</text>
</g>
<!-- n0&#45;&gt;n2 -->
<g id="edge2" class="edge">
<title>n0&#45;&gt;n2</title>
<path fill="none" stroke="#555555" d="M54.28,-149.51C73.72,-155.06 100.8,-162.8 124.38,-169.54"/>
<polygon fill="#555555" stroke="#555555" points="123.67,-172.97 134.25,-172.36 125.59,-166.24 123.67,-172.97"/>
</g>
<!-- n5 -->
<g id="node9" class="node">
<title>n5</title>
<path fill="#e8f4f8" stroke="black" d="M581,-119C581,-119 461,-119 461,-119 455,-119 449,-113 449,-107 449,-107 449,-95 449,-95 449,-89 455,-83 461,-83 461,-83 581,-83 581,-83 587,-83 593,-89 593,-95 593,-95 593,-107 593,-107 593,-113 587,-119 581,-119"/>
<text text-anchor="middle" x="521" y="-98.2" font-family="Helvetica" font-size="11.00">SendRequestOneGroup</text>
</g>
<!-- n0&#45;&gt;n5 -->
<g id="edge6" class="edge">
<title>n0&#45;&gt;n5</title>
<path fill="none" stroke="#555555" d="M54.1,-139.82C125.36,-133.89 325.42,-117.22 438.85,-107.76"/>
<polygon fill="#555555" stroke="#555555" points="439.2,-111.25 448.88,-106.93 438.62,-104.27 439.2,-111.25"/>
</g>
<!-- n6 -->
<g id="node10" class="node">
<title>n6</title>
<path fill="#e8f4f8" stroke="black" d="M210.5,-36C210.5,-36 141.5,-36 141.5,-36 135.5,-36 129.5,-30 129.5,-24 129.5,-24 129.5,-12 129.5,-12 129.5,-6 135.5,0 141.5,0 141.5,0 210.5,0 210.5,0 216.5,0 222.5,-6 222.5,-12 222.5,-12 222.5,-24 222.5,-24 222.5,-30 216.5,-36 210.5,-36"/>
<text text-anchor="middle" x="176" y="-15.2" font-family="Helvetica" font-size="11.00">WriteToLog&#45;1</text>
</g>
<!-- n0&#45;&gt;n6 -->
<g id="edge7" class="edge">
<title>n0&#45;&gt;n6</title>
<path fill="none" stroke="#555555" d="M48.54,-123.8C65.44,-108.9 90.09,-87.38 112,-69 122.38,-60.29 133.86,-50.92 144.15,-42.62"/>
<polygon fill="#555555" stroke="#555555" points="146.5,-45.22 152.1,-36.22 142.11,-39.77 146.5,-45.22"/>
</g>
<!-- n3 -->
<g id="node7" class="node">
<title>n3</title>
<path fill="#ffccbc" stroke="black" d="M693,-161C693,-161 663,-161 663,-161 657,-161 651,-155 651,-149 651,-149 651,-137 651,-137 651,-131 657,-125 663,-125 663,-125 693,-125 693,-125 699,-125 705,-131 705,-137 705,-137 705,-149 705,-149 705,-155 699,-161 693,-161"/>
<text text-anchor="middle" x="678" y="-140.2" font-family="Helvetica" font-size="11.00">end</text>
</g>
<!-- n1&#45;&gt;n3 -->
<g id="edge3" class="edge">
<title>n1&#45;&gt;n3</title>
<path fill="none" stroke="#555555" d="M550.79,-176.38C576.25,-169.65 613.51,-159.79 640.95,-152.54"/>
<polygon fill="#555555" stroke="#555555" points="642.17,-155.83 650.94,-149.89 640.38,-149.07 642.17,-155.83"/>
</g>
<!-- n10 -->
<g id="node3" class="node">
<title>n10</title>
<path fill="#e8f4f8" stroke="black" d="M379,-368C379,-368 310,-368 310,-368 304,-368 298,-362 298,-356 298,-356 298,-344 298,-344 298,-338 304,-332 310,-332 310,-332 379,-332 379,-332 385,-332 391,-338 391,-344 391,-344 391,-356 391,-356 391,-362 385,-368 379,-368"/>
<text text-anchor="middle" x="344.5" y="-347.2" font-family="Helvetica" font-size="11.00">Prepare Data</text>
</g>
<!-- n11 -->
<g id="node4" class="node">
<title>n11</title>
<path fill="#e8f4f8" stroke="black" d="M536,-368C536,-368 506,-368 506,-368 500,-368 494,-362 494,-356 494,-356 494,-344 494,-344 494,-338 500,-332 506,-332 506,-332 536,-332 536,-332 542,-332 548,-338 548,-344 548,-344 548,-356 548,-356 548,-362 542,-368 536,-368"/>
<text text-anchor="middle" x="521" y="-347.2" font-family="Helvetica" font-size="11.00">loops</text>
</g>
<!-- n10&#45;&gt;n11 -->
<g id="edge13" class="edge">
<title>n10&#45;&gt;n11</title>
<path fill="none" stroke="#555555" d="M391.35,-350C420.23,-350 456.99,-350 483.82,-350"/>
<polygon fill="#555555" stroke="#555555" points="483.93,-353.5 493.93,-350 483.93,-346.5 483.93,-353.5"/>
</g>
<!-- n12 -->
<g id="node5" class="node">
<title>n12</title>
<path fill="#ffccbc" stroke="black" d="M693,-368C693,-368 663,-368 663,-368 657,-368 651,-362 651,-356 651,-356 651,-344 651,-344 651,-338 657,-332 663,-332 663,-332 693,-332 693,-332 699,-332 705,-338 705,-344 705,-344 705,-356 705,-356 705,-362 699,-368 693,-368"/>
<text text-anchor="middle" x="678" y="-347.2" font-family="Helvetica" font-size="11.00">End</text>
</g>
<!-- n11&#45;&gt;n12 -->
<g id="edge14" class="edge">
<title>n11&#45;&gt;n12</title>
<path fill="none" stroke="#555555" d="M548.29,-350C573.64,-350 612.23,-350 640.54,-350"/>
<polygon fill="#555555" stroke="#555555" points="640.84,-353.5 650.84,-350 640.84,-346.5 640.84,-353.5"/>
</g>
<!-- n4 -->
<g id="node8" class="node">
<title>n4</title>
<path fill="#e8f4f8" stroke="black" d="M365.5,-202C365.5,-202 323.5,-202 323.5,-202 317.5,-202 311.5,-196 311.5,-190 311.5,-190 311.5,-178 311.5,-178 311.5,-172 317.5,-166 323.5,-166 323.5,-166 365.5,-166 365.5,-166 371.5,-166 377.5,-172 377.5,-178 377.5,-178 377.5,-190 377.5,-190 377.5,-196 371.5,-202 365.5,-202"/>
<text text-anchor="middle" x="344.5" y="-181.2" font-family="Helvetica" font-size="11.00">Sleep&#45;1</text>
</g>
<!-- n2&#45;&gt;n4 -->
<g id="edge5" class="edge">
<title>n2&#45;&gt;n4</title>
<path fill="none" stroke="#555555" d="M217.73,-184C243.03,-184 275.49,-184 301.1,-184"/>
<polygon fill="#555555" stroke="#555555" points="301.26,-187.5 311.26,-184 301.26,-180.5 301.26,-187.5"/>
</g>
<!-- n4&#45;&gt;n1 -->
<g id="edge4" class="edge">
<title>n4&#45;&gt;n1</title>
<path fill="none" stroke="#555555" d="M377.51,-184C406.77,-184 450.11,-184 481.3,-184"/>
<polygon fill="#555555" stroke="#555555" points="481.38,-187.5 491.38,-184 481.38,-180.5 481.38,-187.5"/>
</g>
<!-- n5&#45;&gt;n3 -->
<g id="edge8" class="edge">
<title>n5&#45;&gt;n3</title>
<path fill="none" stroke="#555555" d="M588.63,-119.06C606.67,-123.94 625.51,-129.05 641.14,-133.28"/>
<polygon fill="#555555" stroke="#555555" points="640.34,-136.69 650.9,-135.93 642.17,-129.94 640.34,-136.69"/>
</g>
<!-- n7 -->
<g id="node11" class="node">
<title>n7</title>
<path fill="#e8f4f8" stroke="black" d="M360.5,-36C360.5,-36 328.5,-36 328.5,-36 322.5,-36 316.5,-30 316.5,-24 316.5,-24 316.5,-12 316.5,-12 316.5,-6 322.5,0 328.5,0 328.5,0 360.5,0 360.5,0 366.5,0 372.5,-6 372.5,-12 372.5,-12 372.5,-24 372.5,-24 372.5,-30 366.5,-36 360.5,-36"/>
<text text-anchor="middle" x="344.5" y="-15.2" font-family="Helvetica" font-size="11.00">Sleep</text>
</g>
<!-- n6&#45;&gt;n7 -->
<g id="edge10" class="edge">
<title>n6&#45;&gt;n7</title>
<path fill="none" stroke="#555555" d="M222.94,-18C249.22,-18 281.75,-18 306.39,-18"/>
<polygon fill="#555555" stroke="#555555" points="306.43,-21.5 316.43,-18 306.43,-14.5 306.43,-21.5"/>
</g>
<!-- n7&#45;&gt;n5 -->
<g id="edge9" class="edge">
<title>n7&#45;&gt;n5</title>
<path fill="none" stroke="#555555" d="M372.77,-30.97C399.46,-43.67 440.68,-63.27 472.72,-78.51"/>
<polygon fill="#555555" stroke="#555555" points="471.39,-81.75 481.92,-82.89 474.39,-75.43 471.39,-81.75"/>
</g>
<!-- n8 -->
<g id="node12" class="node">
<title>n8</title>
<path fill="#c8e6c9" stroke="black" d="M42,-368C42,-368 12,-368 12,-368 6,-368 0,-362 0,-356 0,-356 0,-344 0,-344 0,-338 6,-332 12,-332 12,-332 42,-332 42,-332 48,-332 54,-338 54,-344 54,-344 54,-356 54,-356 54,-362 48,-368 42,-368"/>
<text text-anchor="middle" x="27" y="-347.2" font-family="Helvetica" font-size="11.00">Start</text>
</g>
<!-- n9 -->
<g id="node13" class="node">
<title>n9</title>
<path fill="#e8f4f8" stroke="black" d="M228,-368C228,-368 124,-368 124,-368 118,-368 112,-362 112,-356 112,-356 112,-344 112,-344 112,-338 118,-332 124,-332 124,-332 228,-332 228,-332 234,-332 240,-338 240,-344 240,-344 240,-356 240,-356 240,-362 234,-368 228,-368"/>
<text text-anchor="middle" x="176" y="-347.2" font-family="Helvetica" font-size="11.00">Get Connection Plan</text>
</g>
<!-- n8&#45;&gt;n9 -->
<g id="edge11" class="edge">
<title>n8&#45;&gt;n9</title>
<path fill="none" stroke="#555555" d="M54.28,-350C67.74,-350 84.87,-350 101.96,-350"/>
<polygon fill="#555555" stroke="#555555" points="101.99,-353.5 111.99,-350 101.99,-346.5 101.99,-353.5"/>
</g>
<!-- n9&#45;&gt;n10 -->
<g id="edge12" class="edge">
<title>n9&#45;&gt;n10</title>
<path fill="none" stroke="#555555" d="M240.42,-350C255.95,-350 272.46,-350 287.61,-350"/>
<polygon fill="#555555" stroke="#555555" points="287.85,-353.5 297.85,-350 287.85,-346.5 287.85,-353.5"/>
</g>
</g>
</svg>
