<?xml version="1.0" encoding="UTF-8" standalone="no"?>
<!DOCTYPE svg PUBLIC "-//W3C//DTD SVG 1.1//EN"
 "http://www.w3.org/Graphics/SVG/1.1/DTD/svg11.dtd">
<!-- Generated by graphviz version 2.44.0 (0)
 -->
<!-- Title: process Pages: 1 -->
<svg width="847pt" height="187pt"
 viewBox="0.00 0.00 847.00 187.00" xmlns="http://www.w3.org/2000/svg" xmlns:xlink="http://www.w3.org/1999/xlink">
<g id="graph0" class="graph" transform="scale(1 1) rotate(0) translate(36 151)">
<title>process</title>
<polygon fill="#ffffff" stroke="transparent" points="-36,36 -36,-151 811,-151 811,36 -36,36"/>
<!-- n0 -->
<g id="node1" class="node">
<title>n0</title>
<path fill="#c8e6c9" stroke="black" d="M53,-36C53,-36 23,-36 23,-36 17,-36 11,-30 11,-24 11,-24 11,-12 11,-12 11,-6 17,0 23,0 23,0 53,0 53,0 59,0 65,-6 65,-12 65,-12 65,-24 65,-24 65,-30 59,-36 53,-36"/>
<text text-anchor="middle" x="38" y="-15.2" font-family="Helvetica" font-size="11.00">start</text>
</g>
<!-- n1 -->
<g id="node2" class="node">
<title>n1</title>
<path fill="#e8f4f8" stroke="black" d="M267,-36C267,-36 146,-36 146,-36 140,-36 134,-30 134,-24 134,-24 134,-12 134,-12 134,-6 140,0 146,0 146,0 267,0 267,0 273,0 279,-6 279,-12 279,-12 279,-24 279,-24 279,-30 273,-36 267,-36"/>
<text text-anchor="middle" x="206.5" y="-15.2" font-family="Helvetica" font-size="11.00">Read Debit Balance File</text>
</g>
<!-- n0&#45;&gt;n1 -->
<g id="edge1" class="edge">
<title>n0&#45;&gt;n1</title>
<path fill="none" stroke="#555555" d="M65.02,-18C80.96,-18 102.35,-18 123.61,-18"/>
<polygon fill="#555555" stroke="#555555" points="123.68,-21.5 133.68,-18 123.68,-14.5 123.68,-21.5"/>
</g>
<!-- n4 -->
<g id="node5" class="node">
<title>n4</title>
<path fill="#e8f4f8" stroke="black" d="M452,-36C452,-36 349,-36 349,-36 343,-36 337,-30 337,-24 337,-24 337,-12 337,-12 337,-6 343,0 349,0 349,0 452,0 452,0 458,0 464,-6 464,-12 464,-12 464,-24 464,-24 464,-30 458,-36 452,-36"/>
<text text-anchor="middle" x="400.5" y="-15.2" font-family="Helvetica" font-size="11.00">Parse Debit Balance</text>
</g>
<!-- n1&#45;&gt;n4 -->
<g id="edge3" class="edge">
<title>n1&#45;&gt;n4</title>
<path fill="none" stroke="#555555" d="M279.27,-18C294.82,-18 311.28,-18 326.87,-18"/>
<polygon fill="#555555" stroke="#555555" points="326.96,-21.5 336.96,-18 326.96,-14.5 326.96,-21.5"/>
</g>
<!-- n2 -->
<g id="node3" class="node">
<title>n2</title>
<path fill="#e8f4f8" stroke="black" d="M651,-36C651,-36 534,-36 534,-36 528,-36 522,-30 522,-24 522,-24 522,-12 522,-12 522,-6 528,0 534,0 534,0 651,0 651,0 657,0 663,-6 663,-12 663,-12 663,-24 663,-24 663,-30 657,-36 651,-36"/>
<text text-anchor="middle" x="592.5" y="-15.2" font-family="Helvetica" font-size="11.00">SetDebitBalanceCodes</text>
</g>
<!-- n3 -->
<g id="node4" class="node">
<title>n3</title>
<path fill="#ffccbc" stroke="black" d="M763,-36C763,-36 733,-36 733,-36 727,-36 721,-30 721,-24 721,-24 721,-12 721,-12 721,-6 727,0 733,0 733,0 763,0 763,0 769,0 775,-6 775,-12 775,-12 775,-24 775,-24 775,-30 769,-36 763,-36"/>
<text text-anchor="middle" x="748" y="-15.2" font-family="Helvetica" font-size="11.00">end</text>
</g>
<!-- n2&#45;&gt;n3 -->
<g id="edge2" class="edge">
<title>n2&#45;&gt;n3</title>
<path fill="none" stroke="#555555" d="M663.06,-18C679.37,-18 696.12,-18 710.32,-18"/>
<polygon fill="#555555" stroke="#555555" points="710.63,-21.5 720.63,-18 710.63,-14.5 710.63,-21.5"/>
</g>
<!-- n4&#45;&gt;n2 -->
<g id="edge4" class="edge">
<title>n4&#45;&gt;n2</title>
<path fill="none" stroke="#555555" d="M464.24,-18C479.4,-18 495.81,-18 511.64,-18"/>
<polygon fill="#555555" stroke="#555555" points="511.94,-21.5 521.94,-18 511.94,-14.5 511.94,-21.5"/>
</g>
<!-- n5 -->
<g id="node6" class="node">
<title>n5</title>
<path fill="#e8f4f8" stroke="black" d="M241,-115C241,-115 172,-115 172,-115 166,-115 160,-109 160,-103 160,-103 160,-91 160,-91 160,-85 166,-79 172,-79 172,-79 241,-79 241,-79 247,-79 253,-85 253,-91 253,-91 253,-103 253,-103 253,-109 247,-115 241,-115"/>
<text text-anchor="middle" x="206.5" y="-94.2" font-family="Helvetica" font-size="11.00">DebitBalance</text>
</g>
<!-- n6 -->
<g id="node7" class="node">
<title>n6</title>
<path fill="#ffccbc" stroke="black" d="M415.5,-115C415.5,-115 385.5,-115 385.5,-115 379.5,-115 373.5,-109 373.5,-103 373.5,-103 373.5,-91 373.5,-91 373.5,-85 379.5,-79 385.5,-79 385.5,-79 415.5,-79 415.5,-79 421.5,-79 427.5,-85 427.5,-91 427.5,-91 427.5,-103 427.5,-103 427.5,-109 421.5,-115 415.5,-115"/>
<text text-anchor="middle" x="400.5" y="-94.2" font-family="Helvetica" font-size="11.00">End</text>
</g>
<!-- n5&#45;&gt;n6 -->
<g id="edge5" class="edge">
<title>n5&#45;&gt;n6</title>
<path fill="none" stroke="#555555" d="M253,-97C286.68,-97 331.94,-97 363.2,-97"/>
<polygon fill="#555555" stroke="#555555" points="363.23,-100.5 373.23,-97 363.23,-93.5 363.23,-100.5"/>
</g>
<!-- n7 -->
<g id="node8" class="node">
<title>n7</title>
<path fill="#e8f4f8" stroke="black" d="M64,-115C64,-115 12,-115 12,-115 6,-115 0,-109 0,-103 0,-103 0,-91 0,-91 0,-85 6,-79 12,-79 12,-79 64,-79 64,-79 70,-79 76,-85 76,-91 76,-91 76,-103 76,-103 76,-109 70,-115 64,-115"/>
<text text-anchor="middle" x="38" y="-94.2" font-family="Helvetica" font-size="11.00">onStartup</text>
</g>
<!-- n7&#45;&gt;n5 -->
<g id="edge6" class="edge">
<title>n7&#45;&gt;n5</title>
<path fill="none" stroke="#555555" d="M76.37,-97C98.01,-97 125.67,-97 149.84,-97"/>
<polygon fill="#555555" stroke="#555555" points="149.95,-100.5 159.95,-97 149.95,-93.5 149.95,-100.5"/>
</g>
</g>
</svg>
