<?xml version="1.0" encoding="UTF-8" standalone="no"?>
<!DOCTYPE svg PUBLIC "-//W3C//DTD SVG 1.1//EN"
 "http://www.w3.org/Graphics/SVG/1.1/DTD/svg11.dtd">
<!-- Generated by graphviz version 2.44.0 (0)
 -->
<!-- Title: process Pages: 1 -->
<svg width="1007pt" height="353pt"
 viewBox="0.00 0.00 1007.00 353.00" xmlns="http://www.w3.org/2000/svg" xmlns:xlink="http://www.w3.org/1999/xlink">
<g id="graph0" class="graph" transform="scale(1 1) rotate(0) translate(36 317)">
<title>process</title>
<polygon fill="#ffffff" stroke="transparent" points="-36,36 -36,-317 971,-317 971,36 -36,36"/>
<!-- n0 -->
<g id="node1" class="node">
<title>n0</title>
<path fill="#c8e6c9" stroke="black" d="M42,-36C42,-36 12,-36 12,-36 6,-36 0,-30 0,-24 0,-24 0,-12 0,-12 0,-6 6,0 12,0 12,0 42,0 42,0 48,0 54,-6 54,-12 54,-12 54,-24 54,-24 54,-30 48,-36 42,-36"/>
<text text-anchor="middle" x="27" y="-15.2" font-family="Helvetica" font-size="11.00">start</text>
</g>
<!-- n1 -->
<g id="node2" class="node">
<title>n1</title>
<path fill="#e8f4f8" stroke="black" d="M222,-36C222,-36 151,-36 151,-36 145,-36 139,-30 139,-24 139,-24 139,-12 139,-12 139,-6 145,0 151,0 151,0 222,0 222,0 228,0 234,-6 234,-12 234,-12 234,-24 234,-24 234,-30 228,-36 222,-36"/>
<text text-anchor="middle" x="186.5" y="-15.2" font-family="Helvetica" font-size="11.00">StartDateSort</text>
</g>
<!-- n0&#45;&gt;n1 -->
<g id="edge1" class="edge">
<title>n0&#45;&gt;n1</title>
<path fill="none" stroke="#555555" d="M54.01,-18C74.2,-18 102.97,-18 128.44,-18"/>
<polygon fill="#555555" stroke="#555555" points="128.75,-21.5 138.75,-18 128.75,-14.5 128.75,-21.5"/>
</g>
<!-- n4 -->
<g id="node7" class="node">
<title>n4</title>
<path fill="#e8f4f8" stroke="black" d="M382,-36C382,-36 331,-36 331,-36 325,-36 319,-30 319,-24 319,-24 319,-12 319,-12 319,-6 325,0 331,0 331,0 382,0 382,0 388,0 394,-6 394,-12 394,-12 394,-24 394,-24 394,-30 388,-36 382,-36"/>
<text text-anchor="middle" x="356.5" y="-15.2" font-family="Helvetica" font-size="11.00">Map Data</text>
</g>
<!-- n1&#45;&gt;n4 -->
<g id="edge5" class="edge">
<title>n1&#45;&gt;n4</title>
<path fill="none" stroke="#555555" d="M234.3,-18C257.45,-18 285.33,-18 308.51,-18"/>
<polygon fill="#555555" stroke="#555555" points="308.8,-21.5 318.8,-18 308.8,-14.5 308.8,-21.5"/>
</g>
<!-- n10 -->
<g id="node3" class="node">
<title>n10</title>
<path fill="#ffccbc" stroke="black" d="M761,-201C761,-201 731,-201 731,-201 725,-201 719,-195 719,-189 719,-189 719,-177 719,-177 719,-171 725,-165 731,-165 731,-165 761,-165 761,-165 767,-165 773,-171 773,-177 773,-177 773,-189 773,-189 773,-195 767,-201 761,-201"/>
<text text-anchor="middle" x="746" y="-180.2" font-family="Helvetica" font-size="11.00">End</text>
</g>
<!-- n11 -->
<g id="node4" class="node">
<title>n11</title>
<path fill="#e8f4f8" stroke="black" d="M217,-281C217,-281 156,-281 156,-281 150,-281 144,-275 144,-269 144,-269 144,-257 144,-257 144,-251 150,-245 156,-245 156,-245 217,-245 217,-245 223,-245 229,-251 229,-257 229,-257 229,-269 229,-269 229,-275 223,-281 217,-281"/>
<text text-anchor="middle" x="186.5" y="-260.2" font-family="Helvetica" font-size="11.00">Data UOMs</text>
</g>
<!-- n8 -->
<g id="node11" class="node">
<title>n8</title>
<path fill="#e8f4f8" stroke="black" d="M374,-202C374,-202 339,-202 339,-202 333,-202 327,-196 327,-190 327,-190 327,-178 327,-178 327,-172 333,-166 339,-166 339,-166 374,-166 374,-166 380,-166 386,-172 386,-178 386,-178 386,-190 386,-190 386,-196 380,-202 374,-202"/>
<text text-anchor="middle" x="356.5" y="-181.2" font-family="Helvetica" font-size="11.00">Group</text>
</g>
<!-- n11&#45;&gt;n8 -->
<g id="edge12" class="edge">
<title>n11&#45;&gt;n8</title>
<path fill="none" stroke="#555555" d="M226.04,-244.88C253.51,-231.96 290.26,-214.68 317.59,-201.83"/>
<polygon fill="#555555" stroke="#555555" points="319.27,-204.9 326.83,-197.48 316.29,-198.57 319.27,-204.9"/>
</g>
<!-- n2 -->
<g id="node5" class="node">
<title>n2</title>
<path fill="#e8f4f8" stroke="black" d="M811,-36C811,-36 681,-36 681,-36 675,-36 669,-30 669,-24 669,-24 669,-12 669,-12 669,-6 675,0 681,0 681,0 811,0 811,0 817,0 823,-6 823,-12 823,-12 823,-24 823,-24 823,-30 817,-36 811,-36"/>
<text text-anchor="middle" x="746" y="-15.2" font-family="Helvetica" font-size="11.00">CommercialProductGroup</text>
</g>
<!-- n3 -->
<g id="node6" class="node">
<title>n3</title>
<path fill="#ffccbc" stroke="black" d="M923,-36C923,-36 893,-36 893,-36 887,-36 881,-30 881,-24 881,-24 881,-12 881,-12 881,-6 887,0 893,0 893,0 923,0 923,0 929,0 935,-6 935,-12 935,-12 935,-24 935,-24 935,-30 929,-36 923,-36"/>
<text text-anchor="middle" x="908" y="-15.2" font-family="Helvetica" font-size="11.00">end</text>
</g>
<!-- n2&#45;&gt;n3 -->
<g id="edge2" class="edge">
<title>n2&#45;&gt;n3</title>
<path fill="none" stroke="#555555" d="M823.25,-18C839.8,-18 856.56,-18 870.7,-18"/>
<polygon fill="#555555" stroke="#555555" points="870.95,-21.5 880.95,-18 870.95,-14.5 870.95,-21.5"/>
</g>
<!-- n5 -->
<g id="node8" class="node">
<title>n5</title>
<path fill="#e8f4f8" stroke="black" d="M590,-36C590,-36 473,-36 473,-36 467,-36 461,-30 461,-24 461,-24 461,-12 461,-12 461,-6 467,0 473,0 473,0 590,0 590,0 596,0 602,-6 602,-12 602,-12 602,-24 602,-24 602,-30 596,-36 590,-36"/>
<text text-anchor="middle" x="531.5" y="-15.2" font-family="Helvetica" font-size="11.00">TechnicalProductGroup</text>
</g>
<!-- n4&#45;&gt;n5 -->
<g id="edge3" class="edge">
<title>n4&#45;&gt;n5</title>
<path fill="none" stroke="#555555" d="M394.19,-18C410.66,-18 430.78,-18 450.46,-18"/>
<polygon fill="#555555" stroke="#555555" points="450.69,-21.5 460.69,-18 450.69,-14.5 450.69,-21.5"/>
</g>
<!-- n5&#45;&gt;n2 -->
<g id="edge4" class="edge">
<title>n5&#45;&gt;n2</title>
<path fill="none" stroke="#555555" d="M602.08,-18C620.14,-18 639.81,-18 658.62,-18"/>
<polygon fill="#555555" stroke="#555555" points="658.66,-21.5 668.66,-18 658.66,-14.5 658.66,-21.5"/>
</g>
<!-- n6 -->
<g id="node9" class="node">
<title>n6</title>
<path fill="#c8e6c9" stroke="black" d="M42,-202C42,-202 12,-202 12,-202 6,-202 0,-196 0,-190 0,-190 0,-178 0,-178 0,-172 6,-166 12,-166 12,-166 42,-166 42,-166 48,-166 54,-172 54,-178 54,-178 54,-190 54,-190 54,-196 48,-202 42,-202"/>
<text text-anchor="middle" x="27" y="-181.2" font-family="Helvetica" font-size="11.00">Start</text>
</g>
<!-- n6&#45;&gt;n11 -->
<g id="edge13" class="edge">
<title>n6&#45;&gt;n11</title>
<path fill="none" stroke="#555555" d="M54.01,-197.05C77.4,-208.78 112.28,-226.28 140.24,-240.3"/>
<polygon fill="#555555" stroke="#555555" points="138.93,-243.55 149.43,-244.91 142.06,-237.3 138.93,-243.55"/>
</g>
<!-- n7 -->
<g id="node10" class="node">
<title>n7</title>
<path fill="#e8f4f8" stroke="black" d="M249,-202C249,-202 124,-202 124,-202 118,-202 112,-196 112,-190 112,-190 112,-178 112,-178 112,-172 118,-166 124,-166 124,-166 249,-166 249,-166 255,-166 261,-172 261,-178 261,-178 261,-190 261,-190 261,-196 255,-202 249,-202"/>
<text text-anchor="middle" x="186.5" y="-181.2" font-family="Helvetica" font-size="11.00">WriteToLog_CombineList</text>
</g>
<!-- n6&#45;&gt;n7 -->
<g id="edge6" class="edge">
<title>n6&#45;&gt;n7</title>
<path fill="none" stroke="#555555" d="M54.01,-184C67.3,-184 84.3,-184 101.64,-184"/>
<polygon fill="#555555" stroke="#555555" points="101.86,-187.5 111.86,-184 101.86,-180.5 101.86,-187.5"/>
</g>
<!-- n6&#45;&gt;n8 -->
<g id="edge10" class="edge">
<title>n6&#45;&gt;n8</title>
<path fill="none" stroke="#555555" d="M54.18,-168.23C70.25,-159.49 91.59,-149.51 112,-145 176.66,-130.72 196.04,-132.12 261,-145 280.21,-148.81 300.42,-156.58 317.19,-164.19"/>
<polygon fill="#555555" stroke="#555555" points="316.1,-167.54 326.64,-168.62 319.07,-161.21 316.1,-167.54"/>
</g>
<!-- n7&#45;&gt;n8 -->
<g id="edge8" class="edge">
<title>n7&#45;&gt;n8</title>
<path fill="none" stroke="#555555" d="M261.19,-184C280.28,-184 300.09,-184 316.6,-184"/>
<polygon fill="#555555" stroke="#555555" points="316.94,-187.5 326.94,-184 316.94,-180.5 316.94,-187.5"/>
</g>
<!-- n8&#45;&gt;n10 -->
<g id="edge11" class="edge">
<title>n8&#45;&gt;n10</title>
<path fill="none" stroke="#555555" d="M386.31,-183.93C455.75,-183.75 632.25,-183.29 708.73,-183.09"/>
<polygon fill="#555555" stroke="#555555" points="708.85,-186.59 718.84,-183.07 708.83,-179.59 708.85,-186.59"/>
</g>
<!-- n9 -->
<g id="node12" class="node">
<title>n9</title>
<path fill="#e8f4f8" stroke="black" d="M599,-160C599,-160 464,-160 464,-160 458,-160 452,-154 452,-148 452,-148 452,-136 452,-136 452,-130 458,-124 464,-124 464,-124 599,-124 599,-124 605,-124 611,-130 611,-136 611,-136 611,-148 611,-148 611,-154 605,-160 599,-160"/>
<text text-anchor="middle" x="531.5" y="-139.2" font-family="Helvetica" font-size="11.00">WriteToLog_CombineList&#45;1</text>
</g>
<!-- n8&#45;&gt;n9 -->
<g id="edge7" class="edge">
<title>n8&#45;&gt;n9</title>
<path fill="none" stroke="#555555" d="M386.07,-177.06C402.71,-173.02 424.65,-167.7 446.39,-162.42"/>
<polygon fill="#555555" stroke="#555555" points="447.46,-165.76 456.35,-160 445.8,-158.96 447.46,-165.76"/>
</g>
<!-- n9&#45;&gt;n10 -->
<g id="edge9" class="edge">
<title>n9&#45;&gt;n10</title>
<path fill="none" stroke="#555555" d="M611.02,-157.15C644.42,-163.59 681.75,-170.8 708.51,-175.96"/>
<polygon fill="#555555" stroke="#555555" points="708.09,-179.44 718.57,-177.9 709.41,-172.57 708.09,-179.44"/>
</g>
</g>
</svg>
