<?xml version="1.0" encoding="UTF-8" standalone="no"?>
<!DOCTYPE svg PUBLIC "-//W3C//DTD SVG 1.1//EN"
 "http://www.w3.org/Graphics/SVG/1.1/DTD/svg11.dtd">
<!-- Generated by graphviz version 2.44.0 (0)
 -->
<!-- Title: process Pages: 1 -->
<svg width="809pt" height="189pt"
 viewBox="0.00 0.00 809.00 189.00" xmlns="http://www.w3.org/2000/svg" xmlns:xlink="http://www.w3.org/1999/xlink">
<g id="graph0" class="graph" transform="scale(1 1) rotate(0) translate(36 153)">
<title>process</title>
<polygon fill="#ffffff" stroke="transparent" points="-36,36 -36,-153 773,-153 773,36 -36,36"/>
<!-- n0 -->
<g id="node1" class="node">
<title>n0</title>
<path fill="#c8e6c9" stroke="black" d="M42,-75C42,-75 12,-75 12,-75 6,-75 0,-69 0,-63 0,-63 0,-51 0,-51 0,-45 6,-39 12,-39 12,-39 42,-39 42,-39 48,-39 54,-45 54,-51 54,-51 54,-63 54,-63 54,-69 48,-75 42,-75"/>
<text text-anchor="middle" x="27" y="-54.2" font-family="Helvetica" font-size="11.00">Start</text>
</g>
<!-- n1 -->
<g id="node2" class="node">
<title>n1</title>
<path fill="#c8e6c9" stroke="black" d="M156,-75C156,-75 124,-75 124,-75 118,-75 112,-69 112,-63 112,-63 112,-51 112,-51 112,-45 118,-39 124,-39 124,-39 156,-39 156,-39 162,-39 168,-45 168,-51 168,-51 168,-63 168,-63 168,-69 162,-75 156,-75"/>
<text text-anchor="middle" x="140" y="-54.2" font-family="Helvetica" font-size="11.00">Begin</text>
</g>
<!-- n0&#45;&gt;n1 -->
<g id="edge1" class="edge">
<title>n0&#45;&gt;n1</title>
<path fill="none" stroke="#555555" d="M54.02,-57C68.19,-57 85.95,-57 101.58,-57"/>
<polygon fill="#555555" stroke="#555555" points="101.98,-60.5 111.98,-57 101.98,-53.5 101.98,-60.5"/>
</g>
<!-- n2 -->
<g id="node3" class="node">
<title>n2</title>
<path fill="#e8f4f8" stroke="black" d="M363,-75C363,-75 238,-75 238,-75 232,-75 226,-69 226,-63 226,-63 226,-51 226,-51 226,-45 232,-39 238,-39 238,-39 363,-39 363,-39 369,-39 375,-45 375,-51 375,-51 375,-63 375,-63 375,-69 369,-75 363,-75"/>
<text text-anchor="middle" x="300.5" y="-54.2" font-family="Helvetica" font-size="11.00">ServiceExceptionHandler</text>
</g>
<!-- n1&#45;&gt;n2 -->
<g id="edge2" class="edge">
<title>n1&#45;&gt;n2</title>
<path fill="none" stroke="#555555" d="M168.25,-57C181.64,-57 198.58,-57 215.8,-57"/>
<polygon fill="#555555" stroke="#555555" points="215.95,-60.5 225.95,-57 215.95,-53.5 215.95,-60.5"/>
</g>
<!-- n3 -->
<g id="node4" class="node">
<title>n3</title>
<path fill="#ffccbc" stroke="black" d="M478,-117C478,-117 445,-117 445,-117 439,-117 433,-111 433,-105 433,-105 433,-93 433,-93 433,-87 439,-81 445,-81 445,-81 478,-81 478,-81 484,-81 490,-87 490,-93 490,-93 490,-105 490,-105 490,-111 484,-117 478,-117"/>
<text text-anchor="middle" x="461.5" y="-96.2" font-family="Helvetica" font-size="11.00">Finish</text>
</g>
<!-- n2&#45;&gt;n3 -->
<g id="edge5" class="edge">
<title>n2&#45;&gt;n3</title>
<path fill="none" stroke="#555555" d="M369.85,-75.06C388.08,-79.87 407.11,-84.9 422.99,-89.09"/>
<polygon fill="#555555" stroke="#555555" points="422.38,-92.55 432.94,-91.72 424.17,-85.78 422.38,-92.55"/>
</g>
<!-- n6 -->
<g id="node7" class="node">
<title>n6</title>
<path fill="#ffccbc" stroke="black" d="M608,-36C608,-36 565,-36 565,-36 559,-36 553,-30 553,-24 553,-24 553,-12 553,-12 553,-6 559,0 565,0 565,0 608,0 608,0 614,0 620,-6 620,-12 620,-12 620,-24 620,-24 620,-30 614,-36 608,-36"/>
<text text-anchor="middle" x="586.5" y="-15.2" font-family="Helvetica" font-size="11.00">Finish&#45;1</text>
</g>
<!-- n2&#45;&gt;n6 -->
<g id="edge6" class="edge">
<title>n2&#45;&gt;n6</title>
<path fill="none" stroke="#555555" d="M375.01,-46.91C428.26,-39.59 498.41,-29.96 542.75,-23.87"/>
<polygon fill="#555555" stroke="#555555" points="543.46,-27.31 552.89,-22.48 542.51,-20.37 543.46,-27.31"/>
</g>
<!-- n4 -->
<g id="node5" class="node">
<title>n4</title>
<path fill="#e8f4f8" stroke="black" d="M613,-116C613,-116 560,-116 560,-116 554,-116 548,-110 548,-104 548,-104 548,-92 548,-92 548,-86 554,-80 560,-80 560,-80 613,-80 613,-80 619,-80 625,-86 625,-92 625,-92 625,-104 625,-104 625,-110 619,-116 613,-116"/>
<text text-anchor="middle" x="586.5" y="-95.2" font-family="Helvetica" font-size="11.00">Shutdown</text>
</g>
<!-- n3&#45;&gt;n4 -->
<g id="edge3" class="edge">
<title>n3&#45;&gt;n4</title>
<path fill="none" stroke="#555555" d="M490.1,-98.78C504.05,-98.66 521.37,-98.52 537.42,-98.39"/>
<polygon fill="#555555" stroke="#555555" points="537.76,-101.89 547.73,-98.31 537.7,-94.89 537.76,-101.89"/>
</g>
<!-- n5 -->
<g id="node6" class="node">
<title>n5</title>
<path fill="#ffccbc" stroke="black" d="M725,-75C725,-75 695,-75 695,-75 689,-75 683,-69 683,-63 683,-63 683,-51 683,-51 683,-45 689,-39 695,-39 695,-39 725,-39 725,-39 731,-39 737,-45 737,-51 737,-51 737,-63 737,-63 737,-69 731,-75 725,-75"/>
<text text-anchor="middle" x="710" y="-54.2" font-family="Helvetica" font-size="11.00">End</text>
</g>
<!-- n4&#45;&gt;n5 -->
<g id="edge4" class="edge">
<title>n4&#45;&gt;n5</title>
<path fill="none" stroke="#555555" d="M625.28,-85.25C640.59,-80.08 658.19,-74.15 673.29,-69.05"/>
<polygon fill="#555555" stroke="#555555" points="674.44,-72.35 682.8,-65.84 672.21,-65.72 674.44,-72.35"/>
</g>
<!-- n6&#45;&gt;n5 -->
<g id="edge7" class="edge">
<title>n6&#45;&gt;n5</title>
<path fill="none" stroke="#555555" d="M620.06,-28.45C636.36,-33.68 656.14,-40.03 672.9,-45.41"/>
<polygon fill="#555555" stroke="#555555" points="672.3,-48.89 682.89,-48.62 674.44,-42.23 672.3,-48.89"/>
</g>
</g>
</svg>
