<?xml version="1.0" encoding="UTF-8" standalone="no"?>
<!DOCTYPE svg PUBLIC "-//W3C//DTD SVG 1.1//EN"
 "http://www.w3.org/Graphics/SVG/1.1/DTD/svg11.dtd">
<!-- Generated by graphviz version 2.44.0 (0)
 -->
<!-- Title: process Pages: 1 -->
<svg width="2058pt" height="349pt"
 viewBox="0.00 0.00 2058.00 349.00" xmlns="http://www.w3.org/2000/svg" xmlns:xlink="http://www.w3.org/1999/xlink">
<g id="graph0" class="graph" transform="scale(1 1) rotate(0) translate(36 313)">
<title>process</title>
<polygon fill="#ffffff" stroke="transparent" points="-36,36 -36,-313 2022,-313 2022,36 -36,36"/>
<!-- n0 -->
<g id="node1" class="node">
<title>n0</title>
<path fill="#e8f4f8" stroke="black" d="M240,-158C240,-158 124,-158 124,-158 118,-158 112,-152 112,-146 112,-146 112,-134 112,-134 112,-128 118,-122 124,-122 124,-122 240,-122 240,-122 246,-122 252,-128 252,-134 252,-134 252,-146 252,-146 252,-152 246,-158 240,-158"/>
<text text-anchor="middle" x="182" y="-137.2" font-family="Helvetica" font-size="11.00">NormalizeSurepayCTN</text>
</g>
<!-- n1 -->
<g id="node2" class="node">
<title>n1</title>
<path fill="#e8f4f8" stroke="black" d="M406,-158C406,-158 322,-158 322,-158 316,-158 310,-152 310,-146 310,-146 310,-134 310,-134 310,-128 316,-122 322,-122 322,-122 406,-122 406,-122 412,-122 418,-128 418,-134 418,-134 418,-146 418,-146 418,-152 412,-158 406,-158"/>
<text text-anchor="middle" x="364" y="-137.2" font-family="Helvetica" font-size="11.00">QuerySIMRTDB</text>
</g>
<!-- n0&#45;&gt;n1 -->
<g id="edge1" class="edge">
<title>n0&#45;&gt;n1</title>
<path fill="none" stroke="#555555" d="M252.08,-140C267.62,-140 284.05,-140 299.37,-140"/>
<polygon fill="#555555" stroke="#555555" points="299.76,-143.5 309.76,-140 299.76,-136.5 299.76,-143.5"/>
</g>
<!-- n10 -->
<g id="node3" class="node">
<title>n10</title>
<path fill="#e8f4f8" stroke="black" d="M621.5,-277C621.5,-277 499.5,-277 499.5,-277 493.5,-277 487.5,-271 487.5,-265 487.5,-265 487.5,-253 487.5,-253 487.5,-247 493.5,-241 499.5,-241 499.5,-241 621.5,-241 621.5,-241 627.5,-241 633.5,-247 633.5,-253 633.5,-253 633.5,-265 633.5,-265 633.5,-271 627.5,-277 621.5,-277"/>
<text text-anchor="middle" x="560.5" y="-256.2" font-family="Helvetica" font-size="11.00">Invalid_SubscriptionType</text>
</g>
<!-- n1&#45;&gt;n10 -->
<g id="edge10" class="edge">
<title>n1&#45;&gt;n10</title>
<path fill="none" stroke="#555555" d="M387.53,-158.17C409.37,-175.31 443.84,-201.12 476,-220 485.93,-225.83 496.87,-231.46 507.47,-236.54"/>
<polygon fill="#555555" stroke="#555555" points="506.12,-239.78 516.66,-240.86 509.1,-233.44 506.12,-239.78"/>
</g>
<!-- n12 -->
<g id="node5" class="node">
<title>n12</title>
<path fill="#e8f4f8" stroke="black" d="M618,-198C618,-198 503,-198 503,-198 497,-198 491,-192 491,-186 491,-186 491,-174 491,-174 491,-168 497,-162 503,-162 503,-162 618,-162 618,-162 624,-162 630,-168 630,-174 630,-174 630,-186 630,-186 630,-192 624,-198 618,-198"/>
<text text-anchor="middle" x="560.5" y="-177.2" font-family="Helvetica" font-size="11.00">QuerySIMRTDB_Error</text>
</g>
<!-- n1&#45;&gt;n12 -->
<g id="edge16" class="edge">
<title>n1&#45;&gt;n12</title>
<path fill="none" stroke="#555555" d="M418.15,-150.93C437.47,-154.9 459.74,-159.48 480.8,-163.82"/>
<polygon fill="#555555" stroke="#555555" points="480.2,-167.27 490.7,-165.85 481.61,-160.41 480.2,-167.27"/>
</g>
<!-- n4 -->
<g id="node8" class="node">
<title>n4</title>
<path fill="#e8f4f8" stroke="black" d="M633,-119C633,-119 488,-119 488,-119 482,-119 476,-113 476,-107 476,-107 476,-95 476,-95 476,-89 482,-83 488,-83 488,-83 633,-83 633,-83 639,-83 645,-89 645,-95 645,-95 645,-107 645,-107 645,-113 639,-119 633,-119"/>
<text text-anchor="middle" x="560.5" y="-98.2" font-family="Helvetica" font-size="11.00">WriteToLog_QuerySIMRTDB</text>
</g>
<!-- n1&#45;&gt;n4 -->
<g id="edge3" class="edge">
<title>n1&#45;&gt;n4</title>
<path fill="none" stroke="#555555" d="M418.15,-129.34C432.86,-126.39 449.29,-123.1 465.59,-119.83"/>
<polygon fill="#555555" stroke="#555555" points="466.59,-123.2 475.71,-117.8 465.22,-116.34 466.59,-123.2"/>
</g>
<!-- n7 -->
<g id="node11" class="node">
<title>n7</title>
<path fill="#e8f4f8" stroke="black" d="M843,-77C843,-77 715,-77 715,-77 709,-77 703,-71 703,-65 703,-65 703,-53 703,-53 703,-47 709,-41 715,-41 715,-41 843,-41 843,-41 849,-41 855,-47 855,-53 855,-53 855,-65 855,-65 855,-71 849,-77 843,-77"/>
<text text-anchor="middle" x="779" y="-56.2" font-family="Helvetica" font-size="11.00">GetFilteredProductDetails</text>
</g>
<!-- n1&#45;&gt;n7 -->
<g id="edge11" class="edge">
<title>n1&#45;&gt;n7</title>
<path fill="none" stroke="#555555" d="M383.03,-121.7C403.49,-102.35 438.86,-73 476,-61 546.42,-38.24 630.99,-39.97 692.7,-46.1"/>
<polygon fill="#555555" stroke="#555555" points="692.48,-49.6 702.79,-47.17 693.21,-42.64 692.48,-49.6"/>
</g>
<!-- n11 -->
<g id="node4" class="node">
<title>n11</title>
<path fill="#c8e6c9" stroke="black" d="M42,-158C42,-158 12,-158 12,-158 6,-158 0,-152 0,-146 0,-146 0,-134 0,-134 0,-128 6,-122 12,-122 12,-122 42,-122 42,-122 48,-122 54,-128 54,-134 54,-134 54,-146 54,-146 54,-152 48,-158 42,-158"/>
<text text-anchor="middle" x="27" y="-137.2" font-family="Helvetica" font-size="11.00">Start</text>
</g>
<!-- n11&#45;&gt;n0 -->
<g id="edge15" class="edge">
<title>n11&#45;&gt;n0</title>
<path fill="none" stroke="#555555" d="M54.3,-140C67.66,-140 84.67,-140 101.86,-140"/>
<polygon fill="#555555" stroke="#555555" points="101.97,-143.5 111.97,-140 101.97,-136.5 101.97,-143.5"/>
</g>
<!-- n2 -->
<g id="node6" class="node">
<title>n2</title>
<path fill="#e8f4f8" stroke="black" d="M1862,-119C1862,-119 1752,-119 1752,-119 1746,-119 1740,-113 1740,-107 1740,-107 1740,-95 1740,-95 1740,-89 1746,-83 1752,-83 1752,-83 1862,-83 1862,-83 1868,-83 1874,-89 1874,-95 1874,-95 1874,-107 1874,-107 1874,-113 1868,-119 1862,-119"/>
<text text-anchor="middle" x="1807" y="-98.2" font-family="Helvetica" font-size="11.00">WriteToLog_SuretPay</text>
</g>
<!-- n3 -->
<g id="node7" class="node">
<title>n3</title>
<path fill="#ffccbc" stroke="black" d="M1974,-77C1974,-77 1944,-77 1944,-77 1938,-77 1932,-71 1932,-65 1932,-65 1932,-53 1932,-53 1932,-47 1938,-41 1944,-41 1944,-41 1974,-41 1974,-41 1980,-41 1986,-47 1986,-53 1986,-53 1986,-65 1986,-65 1986,-71 1980,-77 1974,-77"/>
<text text-anchor="middle" x="1959" y="-56.2" font-family="Helvetica" font-size="11.00">End</text>
</g>
<!-- n2&#45;&gt;n3 -->
<g id="edge2" class="edge">
<title>n2&#45;&gt;n3</title>
<path fill="none" stroke="#555555" d="M1872.48,-82.94C1889.39,-78.21 1907.02,-73.28 1921.85,-69.12"/>
<polygon fill="#555555" stroke="#555555" points="1922.94,-72.45 1931.63,-66.38 1921.05,-65.71 1922.94,-72.45"/>
</g>
<!-- n4&#45;&gt;n7 -->
<g id="edge12" class="edge">
<title>n4&#45;&gt;n7</title>
<path fill="none" stroke="#555555" d="M645.2,-84.76C660.72,-81.75 676.95,-78.6 692.53,-75.58"/>
<polygon fill="#555555" stroke="#555555" points="693.5,-78.96 702.65,-73.62 692.17,-72.09 693.5,-78.96"/>
</g>
<!-- n5 -->
<g id="node9" class="node">
<title>n5</title>
<path fill="#e8f4f8" stroke="black" d="M1225,-77C1225,-77 1160,-77 1160,-77 1154,-77 1148,-71 1148,-65 1148,-65 1148,-53 1148,-53 1148,-47 1154,-41 1160,-41 1160,-41 1225,-41 1225,-41 1231,-41 1237,-47 1237,-53 1237,-53 1237,-65 1237,-65 1237,-71 1231,-77 1225,-77"/>
<text text-anchor="middle" x="1192.5" y="-56.2" font-family="Helvetica" font-size="11.00">QueryRTDB</text>
</g>
<!-- n6 -->
<g id="node10" class="node">
<title>n6</title>
<path fill="#ffccbc" stroke="black" d="M1670,-77C1670,-77 1514,-77 1514,-77 1508,-77 1502,-71 1502,-65 1502,-65 1502,-53 1502,-53 1502,-47 1508,-41 1514,-41 1514,-41 1670,-41 1670,-41 1676,-41 1682,-47 1682,-53 1682,-53 1682,-65 1682,-65 1682,-71 1676,-77 1670,-77"/>
<text text-anchor="middle" x="1592" y="-56.2" font-family="Helvetica" font-size="11.00">MapGetOutOfBundle Response</text>
</g>
<!-- n5&#45;&gt;n6 -->
<g id="edge4" class="edge">
<title>n5&#45;&gt;n6</title>
<path fill="none" stroke="#555555" d="M1237.18,-59C1298,-59 1409.94,-59 1491.67,-59"/>
<polygon fill="#555555" stroke="#555555" points="1491.99,-62.5 1501.99,-59 1491.99,-55.5 1491.99,-62.5"/>
</g>
<!-- n9 -->
<g id="node13" class="node">
<title>n9</title>
<path fill="#e8f4f8" stroke="black" d="M1432,-36C1432,-36 1307,-36 1307,-36 1301,-36 1295,-30 1295,-24 1295,-24 1295,-12 1295,-12 1295,-6 1301,0 1307,0 1307,0 1432,0 1432,0 1438,0 1444,-6 1444,-12 1444,-12 1444,-24 1444,-24 1444,-30 1438,-36 1432,-36"/>
<text text-anchor="middle" x="1369.5" y="-15.2" font-family="Helvetica" font-size="11.00">WriteToLog_QueryRTDB</text>
</g>
<!-- n5&#45;&gt;n9 -->
<g id="edge8" class="edge">
<title>n5&#45;&gt;n9</title>
<path fill="none" stroke="#555555" d="M1237.21,-48.76C1251.63,-45.38 1268.19,-41.5 1284.58,-37.66"/>
<polygon fill="#555555" stroke="#555555" points="1285.8,-40.97 1294.74,-35.28 1284.21,-34.15 1285.8,-40.97"/>
</g>
<!-- n6&#45;&gt;n2 -->
<g id="edge13" class="edge">
<title>n6&#45;&gt;n2</title>
<path fill="none" stroke="#555555" d="M1682.1,-76.57C1697.99,-79.7 1714.42,-82.94 1729.92,-86"/>
<polygon fill="#555555" stroke="#555555" points="1729.46,-89.47 1739.95,-87.98 1730.81,-82.61 1729.46,-89.47"/>
</g>
<!-- n6&#45;&gt;n3 -->
<g id="edge14" class="edge">
<title>n6&#45;&gt;n3</title>
<path fill="none" stroke="#555555" d="M1682.29,-59C1759.22,-59 1866.35,-59 1921.69,-59"/>
<polygon fill="#555555" stroke="#555555" points="1921.73,-62.5 1931.73,-59 1921.73,-55.5 1921.73,-62.5"/>
</g>
<!-- n7&#45;&gt;n5 -->
<g id="edge5" class="edge">
<title>n7&#45;&gt;n5</title>
<path fill="none" stroke="#555555" d="M855.48,-59C937.19,-59 1065.48,-59 1137.6,-59"/>
<polygon fill="#555555" stroke="#555555" points="1137.82,-62.5 1147.82,-59 1137.82,-55.5 1137.82,-62.5"/>
</g>
<!-- n8 -->
<g id="node12" class="node">
<title>n8</title>
<path fill="#e8f4f8" stroke="black" d="M1078,-36C1078,-36 925,-36 925,-36 919,-36 913,-30 913,-24 913,-24 913,-12 913,-12 913,-6 919,0 925,0 925,0 1078,0 1078,0 1084,0 1090,-6 1090,-12 1090,-12 1090,-24 1090,-24 1090,-30 1084,-36 1078,-36"/>
<text text-anchor="middle" x="1001.5" y="-15.2" font-family="Helvetica" font-size="11.00">WriteToLog_GetProductDetails</text>
</g>
<!-- n7&#45;&gt;n8 -->
<g id="edge6" class="edge">
<title>n7&#45;&gt;n8</title>
<path fill="none" stroke="#555555" d="M855.27,-45C870.56,-42.16 886.85,-39.13 902.79,-36.17"/>
<polygon fill="#555555" stroke="#555555" points="903.46,-39.6 912.65,-34.33 902.18,-32.72 903.46,-39.6"/>
</g>
<!-- n8&#45;&gt;n5 -->
<g id="edge7" class="edge">
<title>n8&#45;&gt;n5</title>
<path fill="none" stroke="#555555" d="M1085.67,-36.04C1103.47,-39.9 1121.81,-43.88 1138.12,-47.42"/>
<polygon fill="#555555" stroke="#555555" points="1137.48,-50.86 1147.99,-49.56 1138.96,-44.02 1137.48,-50.86"/>
</g>
<!-- n9&#45;&gt;n6 -->
<g id="edge9" class="edge">
<title>n9&#45;&gt;n6</title>
<path fill="none" stroke="#555555" d="M1444.23,-31.71C1459.47,-34.54 1475.76,-37.57 1491.74,-40.54"/>
<polygon fill="#555555" stroke="#555555" points="1491.17,-44 1501.64,-42.38 1492.45,-37.11 1491.17,-44"/>
</g>
</g>
</svg>
