<?xml version="1.0" encoding="UTF-8" standalone="no"?>
<!DOCTYPE svg PUBLIC "-//W3C//DTD SVG 1.1//EN"
 "http://www.w3.org/Graphics/SVG/1.1/DTD/svg11.dtd">
<!-- Generated by graphviz version 2.44.0 (0)
 -->
<!-- Title: process Pages: 1 -->
<svg width="1130pt" height="226pt"
 viewBox="0.00 0.00 1130.00 226.00" xmlns="http://www.w3.org/2000/svg" xmlns:xlink="http://www.w3.org/1999/xlink">
<g id="graph0" class="graph" transform="scale(1 1) rotate(0) translate(36 190)">
<title>process</title>
<polygon fill="#ffffff" stroke="transparent" points="-36,36 -36,-190 1094,-190 1094,36 -36,36"/>
<!-- n0 -->
<g id="node1" class="node">
<title>n0</title>
<path fill="#c8e6c9" stroke="black" d="M42,-36C42,-36 12,-36 12,-36 6,-36 0,-30 0,-24 0,-24 0,-12 0,-12 0,-6 6,0 12,0 12,0 42,0 42,0 48,0 54,-6 54,-12 54,-12 54,-24 54,-24 54,-30 48,-36 42,-36"/>
<text text-anchor="middle" x="27" y="-15.2" font-family="Helvetica" font-size="11.00">start</text>
</g>
<!-- n1 -->
<g id="node2" class="node">
<title>n1</title>
<path fill="#e8f4f8" stroke="black" d="M251,-36C251,-36 124,-36 124,-36 118,-36 112,-30 112,-24 112,-24 112,-12 112,-12 112,-6 118,0 124,0 124,0 251,0 251,0 257,0 263,-6 263,-12 263,-12 263,-24 263,-24 263,-30 257,-36 251,-36"/>
<text text-anchor="middle" x="187.5" y="-15.2" font-family="Helvetica" font-size="11.00">Query Product Catalogue</text>
</g>
<!-- n0&#45;&gt;n1 -->
<g id="edge1" class="edge">
<title>n0&#45;&gt;n1</title>
<path fill="none" stroke="#555555" d="M54.17,-18C67.4,-18 84.29,-18 101.53,-18"/>
<polygon fill="#555555" stroke="#555555" points="101.7,-21.5 111.7,-18 101.7,-14.5 101.7,-21.5"/>
</g>
<!-- n2 -->
<g id="node6" class="node">
<title>n2</title>
<path fill="#e8f4f8" stroke="black" d="M440,-36C440,-36 333,-36 333,-36 327,-36 321,-30 321,-24 321,-24 321,-12 321,-12 321,-6 327,0 333,0 333,0 440,0 440,0 446,0 452,-6 452,-12 452,-12 452,-24 452,-24 452,-30 446,-36 440,-36"/>
<text text-anchor="middle" x="386.5" y="-15.2" font-family="Helvetica" font-size="11.00">SetProductCatalogue</text>
</g>
<!-- n1&#45;&gt;n2 -->
<g id="edge3" class="edge">
<title>n1&#45;&gt;n2</title>
<path fill="none" stroke="#555555" d="M263.26,-18C278.79,-18 295.17,-18 310.71,-18"/>
<polygon fill="#555555" stroke="#555555" points="310.78,-21.5 320.78,-18 310.78,-14.5 310.78,-21.5"/>
</g>
<!-- n10 -->
<g id="node3" class="node">
<title>n10</title>
<path fill="#ffcdd2" stroke="black" d="M1046,-75C1046,-75 969,-75 969,-75 963,-75 957,-69 957,-63 957,-63 957,-51 957,-51 957,-45 963,-39 969,-39 969,-39 1046,-39 1046,-39 1052,-39 1058,-45 1058,-51 1058,-51 1058,-63 1058,-63 1058,-69 1052,-75 1046,-75"/>
<text text-anchor="middle" x="1007.5" y="-54.2" font-family="Helvetica" font-size="11.00">Generate Error</text>
</g>
<!-- n11 -->
<g id="node4" class="node">
<title>n11</title>
<path fill="#c8e6c9" stroke="black" d="M425,-115C425,-115 348,-115 348,-115 342,-115 336,-109 336,-103 336,-103 336,-91 336,-91 336,-85 342,-79 348,-79 348,-79 425,-79 425,-79 431,-79 437,-85 437,-91 437,-91 437,-103 437,-103 437,-109 431,-115 425,-115"/>
<text text-anchor="middle" x="386.5" y="-94.2" font-family="Helvetica" font-size="11.00">Start Log Audit</text>
</g>
<!-- n6 -->
<g id="node10" class="node">
<title>n6</title>
<path fill="#ffcdd2" stroke="black" d="M584,-115C584,-115 522,-115 522,-115 516,-115 510,-109 510,-103 510,-103 510,-91 510,-91 510,-85 516,-79 522,-79 522,-79 584,-79 584,-79 590,-79 596,-85 596,-91 596,-91 596,-103 596,-103 596,-109 590,-115 584,-115"/>
<text text-anchor="middle" x="553" y="-94.2" font-family="Helvetica" font-size="11.00">Error Group</text>
</g>
<!-- n11&#45;&gt;n6 -->
<g id="edge10" class="edge">
<title>n11&#45;&gt;n6</title>
<path fill="none" stroke="#555555" d="M437.3,-97C457.03,-97 479.73,-97 499.69,-97"/>
<polygon fill="#555555" stroke="#555555" points="499.86,-100.5 509.86,-97 499.86,-93.5 499.86,-100.5"/>
</g>
<!-- n12 -->
<g id="node5" class="node">
<title>n12</title>
<path fill="#ffccbc" stroke="black" d="M878.5,-154C878.5,-154 848.5,-154 848.5,-154 842.5,-154 836.5,-148 836.5,-142 836.5,-142 836.5,-130 836.5,-130 836.5,-124 842.5,-118 848.5,-118 848.5,-118 878.5,-118 878.5,-118 884.5,-118 890.5,-124 890.5,-130 890.5,-130 890.5,-142 890.5,-142 890.5,-148 884.5,-154 878.5,-154"/>
<text text-anchor="middle" x="863.5" y="-133.2" font-family="Helvetica" font-size="11.00">End</text>
</g>
<!-- n3 -->
<g id="node7" class="node">
<title>n3</title>
<path fill="#ffccbc" stroke="black" d="M568,-36C568,-36 538,-36 538,-36 532,-36 526,-30 526,-24 526,-24 526,-12 526,-12 526,-6 532,0 538,0 538,0 568,0 568,0 574,0 580,-6 580,-12 580,-12 580,-24 580,-24 580,-30 574,-36 568,-36"/>
<text text-anchor="middle" x="553" y="-15.2" font-family="Helvetica" font-size="11.00">end</text>
</g>
<!-- n2&#45;&gt;n3 -->
<g id="edge2" class="edge">
<title>n2&#45;&gt;n3</title>
<path fill="none" stroke="#555555" d="M452.04,-18C473.66,-18 497,-18 515.68,-18"/>
<polygon fill="#555555" stroke="#555555" points="515.81,-21.5 525.81,-18 515.81,-14.5 515.81,-21.5"/>
</g>
<!-- n4 -->
<g id="node8" class="node">
<title>n4</title>
<path fill="#c8e6c9" stroke="black" d="M42,-115C42,-115 12,-115 12,-115 6,-115 0,-109 0,-103 0,-103 0,-91 0,-91 0,-85 6,-79 12,-79 12,-79 42,-79 42,-79 48,-79 54,-85 54,-91 54,-91 54,-103 54,-103 54,-109 48,-115 42,-115"/>
<text text-anchor="middle" x="27" y="-94.2" font-family="Helvetica" font-size="11.00">Start</text>
</g>
<!-- n5 -->
<g id="node9" class="node">
<title>n5</title>
<path fill="#ffcdd2" stroke="black" d="M238,-115C238,-115 137,-115 137,-115 131,-115 125,-109 125,-103 125,-103 125,-91 125,-91 125,-85 131,-79 137,-79 137,-79 238,-79 238,-79 244,-79 250,-85 250,-91 250,-91 250,-103 250,-103 250,-109 244,-115 238,-115"/>
<text text-anchor="middle" x="187.5" y="-94.2" font-family="Helvetica" font-size="11.00">Prep Error Handling</text>
</g>
<!-- n4&#45;&gt;n5 -->
<g id="edge4" class="edge">
<title>n4&#45;&gt;n5</title>
<path fill="none" stroke="#555555" d="M54.17,-97C70.72,-97 92.98,-97 114.52,-97"/>
<polygon fill="#555555" stroke="#555555" points="114.67,-100.5 124.67,-97 114.67,-93.5 114.67,-100.5"/>
</g>
<!-- n5&#45;&gt;n11 -->
<g id="edge9" class="edge">
<title>n5&#45;&gt;n11</title>
<path fill="none" stroke="#555555" d="M250.02,-97C274.22,-97 301.91,-97 325.92,-97"/>
<polygon fill="#555555" stroke="#555555" points="325.96,-100.5 335.96,-97 325.96,-93.5 325.96,-100.5"/>
</g>
<!-- n7 -->
<g id="node11" class="node">
<title>n7</title>
<path fill="#ffccbc" stroke="black" d="M748.5,-154C748.5,-154 675.5,-154 675.5,-154 669.5,-154 663.5,-148 663.5,-142 663.5,-142 663.5,-130 663.5,-130 663.5,-124 669.5,-118 675.5,-118 675.5,-118 748.5,-118 748.5,-118 754.5,-118 760.5,-124 760.5,-130 760.5,-130 760.5,-142 760.5,-142 760.5,-148 754.5,-154 748.5,-154"/>
<text text-anchor="middle" x="712" y="-133.2" font-family="Helvetica" font-size="11.00">End Audit Log</text>
</g>
<!-- n6&#45;&gt;n7 -->
<g id="edge5" class="edge">
<title>n6&#45;&gt;n7</title>
<path fill="none" stroke="#555555" d="M596.07,-107.45C613.71,-111.83 634.5,-117 653.51,-121.72"/>
<polygon fill="#555555" stroke="#555555" points="652.71,-125.13 663.26,-124.14 654.4,-118.33 652.71,-125.13"/>
</g>
<!-- n8 -->
<g id="node12" class="node">
<title>n8</title>
<path fill="#e8f4f8" stroke="black" d="M758,-75C758,-75 666,-75 666,-75 660,-75 654,-69 654,-63 654,-63 654,-51 654,-51 654,-45 660,-39 666,-39 666,-39 758,-39 758,-39 764,-39 770,-45 770,-51 770,-51 770,-63 770,-63 770,-69 764,-75 758,-75"/>
<text text-anchor="middle" x="712" y="-54.2" font-family="Helvetica" font-size="11.00">MapAnyException</text>
</g>
<!-- n6&#45;&gt;n8 -->
<g id="edge6" class="edge">
<title>n6&#45;&gt;n8</title>
<path fill="none" stroke="#555555" d="M596.07,-86.28C610.74,-82.54 627.59,-78.25 643.78,-74.13"/>
<polygon fill="#555555" stroke="#555555" points="644.93,-77.45 653.76,-71.58 643.2,-70.66 644.93,-77.45"/>
</g>
<!-- n7&#45;&gt;n12 -->
<g id="edge11" class="edge">
<title>n7&#45;&gt;n12</title>
<path fill="none" stroke="#555555" d="M760.71,-136C781.86,-136 806.35,-136 826.01,-136"/>
<polygon fill="#555555" stroke="#555555" points="826.09,-139.5 836.09,-136 826.09,-132.5 826.09,-139.5"/>
</g>
<!-- n9 -->
<g id="node13" class="node">
<title>n9</title>
<path fill="#e8f4f8" stroke="black" d="M887,-75C887,-75 840,-75 840,-75 834,-75 828,-69 828,-63 828,-63 828,-51 828,-51 828,-45 834,-39 840,-39 840,-39 887,-39 887,-39 893,-39 899,-45 899,-51 899,-51 899,-63 899,-63 899,-69 893,-75 887,-75"/>
<text text-anchor="middle" x="863.5" y="-54.2" font-family="Helvetica" font-size="11.00">LogError</text>
</g>
<!-- n8&#45;&gt;n9 -->
<g id="edge7" class="edge">
<title>n8&#45;&gt;n9</title>
<path fill="none" stroke="#555555" d="M770.37,-57C786.01,-57 802.72,-57 817.56,-57"/>
<polygon fill="#555555" stroke="#555555" points="817.99,-60.5 827.99,-57 817.99,-53.5 817.99,-60.5"/>
</g>
<!-- n9&#45;&gt;n10 -->
<g id="edge8" class="edge">
<title>n9&#45;&gt;n10</title>
<path fill="none" stroke="#555555" d="M899.24,-57C913.45,-57 930.31,-57 946.41,-57"/>
<polygon fill="#555555" stroke="#555555" points="946.84,-60.5 956.84,-57 946.84,-53.5 946.84,-60.5"/>
</g>
</g>
</svg>
