<?xml version="1.0" encoding="UTF-8" standalone="no"?>
<!DOCTYPE svg PUBLIC "-//W3C//DTD SVG 1.1//EN"
 "http://www.w3.org/Graphics/SVG/1.1/DTD/svg11.dtd">
<!-- Generated by graphviz version 2.44.0 (0)
 -->
<!-- Title: process Pages: 1 -->
<svg width="579pt" height="187pt"
 viewBox="0.00 0.00 579.00 187.00" xmlns="http://www.w3.org/2000/svg" xmlns:xlink="http://www.w3.org/1999/xlink">
<g id="graph0" class="graph" transform="scale(1 1) rotate(0) translate(36 151)">
<title>process</title>
<polygon fill="#ffffff" stroke="transparent" points="-36,36 -36,-151 543,-151 543,36 -36,36"/>
<!-- n0 -->
<g id="node1" class="node">
<title>n0</title>
<path fill="#e8f4f8" stroke="black" d="M242,-75C242,-75 126,-75 126,-75 120,-75 114,-69 114,-63 114,-63 114,-51 114,-51 114,-45 120,-39 126,-39 126,-39 242,-39 242,-39 248,-39 254,-45 254,-51 254,-51 254,-63 254,-63 254,-69 248,-75 242,-75"/>
<text text-anchor="middle" x="184" y="-54.2" font-family="Helvetica" font-size="11.00">LoadPartnerOperations</text>
</g>
<!-- n1 -->
<g id="node2" class="node">
<title>n1</title>
<path fill="#e8f4f8" stroke="black" d="M377,-115C377,-115 330,-115 330,-115 324,-115 318,-109 318,-103 318,-103 318,-91 318,-91 318,-85 324,-79 330,-79 330,-79 377,-79 377,-79 383,-79 389,-85 389,-91 389,-91 389,-103 389,-103 389,-109 383,-115 377,-115"/>
<text text-anchor="middle" x="353.5" y="-94.2" font-family="Helvetica" font-size="11.00">LogError</text>
</g>
<!-- n0&#45;&gt;n1 -->
<g id="edge1" class="edge">
<title>n0&#45;&gt;n1</title>
<path fill="none" stroke="#555555" d="M254.1,-73.5C272.3,-77.85 291.47,-82.43 308,-86.37"/>
<polygon fill="#555555" stroke="#555555" points="307.38,-89.82 317.91,-88.74 309,-83.01 307.38,-89.82"/>
</g>
<!-- n2 -->
<g id="node3" class="node">
<title>n2</title>
<path fill="#e8f4f8" stroke="black" d="M383,-36C383,-36 324,-36 324,-36 318,-36 312,-30 312,-24 312,-24 312,-12 312,-12 312,-6 318,0 324,0 324,0 383,0 383,0 389,0 395,-6 395,-12 395,-12 395,-24 395,-24 395,-30 389,-36 383,-36"/>
<text text-anchor="middle" x="353.5" y="-15.2" font-family="Helvetica" font-size="11.00">WriteToLog</text>
</g>
<!-- n0&#45;&gt;n2 -->
<g id="edge2" class="edge">
<title>n0&#45;&gt;n2</title>
<path fill="none" stroke="#555555" d="M254.1,-40.91C270.06,-37.2 286.75,-33.31 301.76,-29.81"/>
<polygon fill="#555555" stroke="#555555" points="302.91,-33.14 311.86,-27.46 301.32,-26.32 302.91,-33.14"/>
</g>
<!-- n3 -->
<g id="node4" class="node">
<title>n3</title>
<path fill="#ffccbc" stroke="black" d="M495,-75C495,-75 465,-75 465,-75 459,-75 453,-69 453,-63 453,-63 453,-51 453,-51 453,-45 459,-39 465,-39 465,-39 495,-39 495,-39 501,-39 507,-45 507,-51 507,-51 507,-63 507,-63 507,-69 501,-75 495,-75"/>
<text text-anchor="middle" x="480" y="-54.2" font-family="Helvetica" font-size="11.00">End</text>
</g>
<!-- n1&#45;&gt;n3 -->
<g id="edge3" class="edge">
<title>n1&#45;&gt;n3</title>
<path fill="none" stroke="#555555" d="M389.18,-85.86C406.02,-80.45 426.24,-73.95 443.22,-68.5"/>
<polygon fill="#555555" stroke="#555555" points="444.35,-71.81 452.8,-65.42 442.21,-65.15 444.35,-71.81"/>
</g>
<!-- n2&#45;&gt;n3 -->
<g id="edge5" class="edge">
<title>n2&#45;&gt;n3</title>
<path fill="none" stroke="#555555" d="M395.27,-30.77C410.59,-35.57 427.9,-40.99 442.79,-45.66"/>
<polygon fill="#555555" stroke="#555555" points="442.06,-49.1 452.65,-48.75 444.15,-42.42 442.06,-49.1"/>
</g>
<!-- n4 -->
<g id="node5" class="node">
<title>n4</title>
<path fill="#e8f4f8" stroke="black" d="M44,-75C44,-75 12,-75 12,-75 6,-75 0,-69 0,-63 0,-63 0,-51 0,-51 0,-45 6,-39 12,-39 12,-39 44,-39 44,-39 50,-39 56,-45 56,-51 56,-51 56,-63 56,-63 56,-69 50,-75 44,-75"/>
<text text-anchor="middle" x="28" y="-54.2" font-family="Helvetica" font-size="11.00">Timer</text>
</g>
<!-- n4&#45;&gt;n0 -->
<g id="edge4" class="edge">
<title>n4&#45;&gt;n0</title>
<path fill="none" stroke="#555555" d="M56.18,-57C69.6,-57 86.57,-57 103.69,-57"/>
<polygon fill="#555555" stroke="#555555" points="103.76,-60.5 113.76,-57 103.76,-53.5 103.76,-60.5"/>
</g>
</g>
</svg>
