<?xml version="1.0" encoding="UTF-8" standalone="no"?>
<!DOCTYPE svg PUBLIC "-//W3C//DTD SVG 1.1//EN"
 "http://www.w3.org/Graphics/SVG/1.1/DTD/svg11.dtd">
<!-- Generated by graphviz version 2.44.0 (0)
 -->
<!-- Title: process Pages: 1 -->
<svg width="1034pt" height="266pt"
 viewBox="0.00 0.00 1034.00 266.00" xmlns="http://www.w3.org/2000/svg" xmlns:xlink="http://www.w3.org/1999/xlink">
<g id="graph0" class="graph" transform="scale(1 1) rotate(0) translate(36 230)">
<title>process</title>
<polygon fill="#ffffff" stroke="transparent" points="-36,36 -36,-230 998,-230 998,36 -36,36"/>
<!-- n0 -->
<g id="node1" class="node">
<title>n0</title>
<path fill="#c8e6c9" stroke="black" d="M42,-36C42,-36 12,-36 12,-36 6,-36 0,-30 0,-24 0,-24 0,-12 0,-12 0,-6 6,0 12,0 12,0 42,0 42,0 48,0 54,-6 54,-12 54,-12 54,-24 54,-24 54,-30 48,-36 42,-36"/>
<text text-anchor="middle" x="27" y="-15.2" font-family="Helvetica" font-size="11.00">start</text>
</g>
<!-- n1 -->
<g id="node2" class="node">
<title>n1</title>
<path fill="#e8f4f8" stroke="black" d="M278,-36C278,-36 124,-36 124,-36 118,-36 112,-30 112,-24 112,-24 112,-12 112,-12 112,-6 118,0 124,0 124,0 278,0 278,0 284,0 290,-6 290,-12 290,-12 290,-24 290,-24 290,-30 284,-36 278,-36"/>
<text text-anchor="middle" x="201" y="-15.2" font-family="Helvetica" font-size="11.00">Get SUREPAY Codes from DB</text>
</g>
<!-- n0&#45;&gt;n1 -->
<g id="edge1" class="edge">
<title>n0&#45;&gt;n1</title>
<path fill="none" stroke="#555555" d="M54.12,-18C67.24,-18 84.05,-18 101.57,-18"/>
<polygon fill="#555555" stroke="#555555" points="101.94,-21.5 111.94,-18 101.94,-14.5 101.94,-21.5"/>
</g>
<!-- n4 -->
<g id="node7" class="node">
<title>n4</title>
<path fill="#e8f4f8" stroke="black" d="M437,-36C437,-36 375,-36 375,-36 369,-36 363,-30 363,-24 363,-24 363,-12 363,-12 363,-6 369,0 375,0 375,0 437,0 437,0 443,0 449,-6 449,-12 449,-12 449,-24 449,-24 449,-30 443,-36 437,-36"/>
<text text-anchor="middle" x="406" y="-15.2" font-family="Helvetica" font-size="11.00">StoreCodes</text>
</g>
<!-- n1&#45;&gt;n4 -->
<g id="edge3" class="edge">
<title>n1&#45;&gt;n4</title>
<path fill="none" stroke="#555555" d="M290.15,-18C311.46,-18 333.56,-18 352.62,-18"/>
<polygon fill="#555555" stroke="#555555" points="352.87,-21.5 362.87,-18 352.87,-14.5 352.87,-21.5"/>
</g>
<!-- n10 -->
<g id="node3" class="node">
<title>n10</title>
<path fill="#ffcdd2" stroke="black" d="M638,-115C638,-115 561,-115 561,-115 555,-115 549,-109 549,-103 549,-103 549,-91 549,-91 549,-85 555,-79 561,-79 561,-79 638,-79 638,-79 644,-79 650,-85 650,-91 650,-91 650,-103 650,-103 650,-109 644,-115 638,-115"/>
<text text-anchor="middle" x="599.5" y="-94.2" font-family="Helvetica" font-size="11.00">Generate Error</text>
</g>
<!-- n11 -->
<g id="node4" class="node">
<title>n11</title>
<path fill="#ffccbc" stroke="black" d="M614.5,-194C614.5,-194 584.5,-194 584.5,-194 578.5,-194 572.5,-188 572.5,-182 572.5,-182 572.5,-170 572.5,-170 572.5,-164 578.5,-158 584.5,-158 584.5,-158 614.5,-158 614.5,-158 620.5,-158 626.5,-164 626.5,-170 626.5,-170 626.5,-182 626.5,-182 626.5,-188 620.5,-194 614.5,-194"/>
<text text-anchor="middle" x="599.5" y="-173.2" font-family="Helvetica" font-size="11.00">End</text>
</g>
<!-- n2 -->
<g id="node5" class="node">
<title>n2</title>
<path fill="#e8f4f8" stroke="black" d="M838,-36C838,-36 747,-36 747,-36 741,-36 735,-30 735,-24 735,-24 735,-12 735,-12 735,-6 741,0 747,0 747,0 838,0 838,0 844,0 850,-6 850,-12 850,-12 850,-24 850,-24 850,-30 844,-36 838,-36"/>
<text text-anchor="middle" x="792.5" y="-15.2" font-family="Helvetica" font-size="11.00">StoreLDAPCodes</text>
</g>
<!-- n3 -->
<g id="node6" class="node">
<title>n3</title>
<path fill="#ffccbc" stroke="black" d="M950,-36C950,-36 920,-36 920,-36 914,-36 908,-30 908,-24 908,-24 908,-12 908,-12 908,-6 914,0 920,0 920,0 950,0 950,0 956,0 962,-6 962,-12 962,-12 962,-24 962,-24 962,-30 956,-36 950,-36"/>
<text text-anchor="middle" x="935" y="-15.2" font-family="Helvetica" font-size="11.00">end</text>
</g>
<!-- n2&#45;&gt;n3 -->
<g id="edge2" class="edge">
<title>n2&#45;&gt;n3</title>
<path fill="none" stroke="#555555" d="M850.24,-18C866.3,-18 883.33,-18 897.82,-18"/>
<polygon fill="#555555" stroke="#555555" points="897.87,-21.5 907.87,-18 897.87,-14.5 897.87,-21.5"/>
</g>
<!-- n5 -->
<g id="node8" class="node">
<title>n5</title>
<path fill="#e8f4f8" stroke="black" d="M665,-36C665,-36 534,-36 534,-36 528,-36 522,-30 522,-24 522,-24 522,-12 522,-12 522,-6 528,0 534,0 534,0 665,0 665,0 671,0 677,-6 677,-12 677,-12 677,-24 677,-24 677,-30 671,-36 665,-36"/>
<text text-anchor="middle" x="599.5" y="-15.2" font-family="Helvetica" font-size="11.00">Get LDAP Codes from DB</text>
</g>
<!-- n4&#45;&gt;n5 -->
<g id="edge4" class="edge">
<title>n4&#45;&gt;n5</title>
<path fill="none" stroke="#555555" d="M449.03,-18C467.46,-18 489.83,-18 511.59,-18"/>
<polygon fill="#555555" stroke="#555555" points="511.86,-21.5 521.86,-18 511.86,-14.5 511.86,-21.5"/>
</g>
<!-- n5&#45;&gt;n2 -->
<g id="edge5" class="edge">
<title>n5&#45;&gt;n2</title>
<path fill="none" stroke="#555555" d="M677.09,-18C692.77,-18 709.16,-18 724.48,-18"/>
<polygon fill="#555555" stroke="#555555" points="724.89,-21.5 734.89,-18 724.89,-14.5 724.89,-21.5"/>
</g>
<!-- n6 -->
<g id="node9" class="node">
<title>n6</title>
<path fill="#c8e6c9" stroke="black" d="M42,-154C42,-154 12,-154 12,-154 6,-154 0,-148 0,-142 0,-142 0,-130 0,-130 0,-124 6,-118 12,-118 12,-118 42,-118 42,-118 48,-118 54,-124 54,-130 54,-130 54,-142 54,-142 54,-148 48,-154 42,-154"/>
<text text-anchor="middle" x="27" y="-133.2" font-family="Helvetica" font-size="11.00">Start</text>
</g>
<!-- n7 -->
<g id="node10" class="node">
<title>n7</title>
<path fill="#ffcdd2" stroke="black" d="M232,-154C232,-154 170,-154 170,-154 164,-154 158,-148 158,-142 158,-142 158,-130 158,-130 158,-124 164,-118 170,-118 170,-118 232,-118 232,-118 238,-118 244,-124 244,-130 244,-130 244,-142 244,-142 244,-148 238,-154 232,-154"/>
<text text-anchor="middle" x="201" y="-133.2" font-family="Helvetica" font-size="11.00">Error Group</text>
</g>
<!-- n6&#45;&gt;n7 -->
<g id="edge6" class="edge">
<title>n6&#45;&gt;n7</title>
<path fill="none" stroke="#555555" d="M54.12,-136C78.86,-136 116.72,-136 147.68,-136"/>
<polygon fill="#555555" stroke="#555555" points="147.88,-139.5 157.88,-136 147.88,-132.5 147.88,-139.5"/>
</g>
<!-- n8 -->
<g id="node11" class="node">
<title>n8</title>
<path fill="#e8f4f8" stroke="black" d="M448.5,-194C448.5,-194 363.5,-194 363.5,-194 357.5,-194 351.5,-188 351.5,-182 351.5,-182 351.5,-170 351.5,-170 351.5,-164 357.5,-158 363.5,-158 363.5,-158 448.5,-158 448.5,-158 454.5,-158 460.5,-164 460.5,-170 460.5,-170 460.5,-182 460.5,-182 460.5,-188 454.5,-194 448.5,-194"/>
<text text-anchor="middle" x="406" y="-173.2" font-family="Helvetica" font-size="11.00">LoadErrorCodes</text>
</g>
<!-- n7&#45;&gt;n8 -->
<g id="edge7" class="edge">
<title>n7&#45;&gt;n8</title>
<path fill="none" stroke="#555555" d="M244.06,-144.29C272.15,-149.82 309.6,-157.2 341.32,-163.45"/>
<polygon fill="#555555" stroke="#555555" points="340.9,-166.94 351.39,-165.44 342.26,-160.07 340.9,-166.94"/>
</g>
<!-- n9 -->
<g id="node12" class="node">
<title>n9</title>
<path fill="#e8f4f8" stroke="black" d="M452,-115C452,-115 360,-115 360,-115 354,-115 348,-109 348,-103 348,-103 348,-91 348,-91 348,-85 354,-79 360,-79 360,-79 452,-79 452,-79 458,-79 464,-85 464,-91 464,-91 464,-103 464,-103 464,-109 458,-115 452,-115"/>
<text text-anchor="middle" x="406" y="-94.2" font-family="Helvetica" font-size="11.00">MapAnyException</text>
</g>
<!-- n7&#45;&gt;n9 -->
<g id="edge8" class="edge">
<title>n7&#45;&gt;n9</title>
<path fill="none" stroke="#555555" d="M244.06,-127.92C271.2,-122.7 307.1,-115.81 338.1,-109.85"/>
<polygon fill="#555555" stroke="#555555" points="338.82,-113.28 347.98,-107.95 337.5,-106.4 338.82,-113.28"/>
</g>
<!-- n8&#45;&gt;n11 -->
<g id="edge10" class="edge">
<title>n8&#45;&gt;n11</title>
<path fill="none" stroke="#555555" d="M460.6,-176C493.12,-176 533.74,-176 562.45,-176"/>
<polygon fill="#555555" stroke="#555555" points="562.45,-179.5 572.45,-176 562.45,-172.5 562.45,-179.5"/>
</g>
<!-- n9&#45;&gt;n10 -->
<g id="edge9" class="edge">
<title>n9&#45;&gt;n10</title>
<path fill="none" stroke="#555555" d="M464.2,-97C487.62,-97 514.74,-97 538.45,-97"/>
<polygon fill="#555555" stroke="#555555" points="538.73,-100.5 548.73,-97 538.73,-93.5 538.73,-100.5"/>
</g>
</g>
</svg>
