<?xml version="1.0" encoding="UTF-8" standalone="no"?>
<!DOCTYPE svg PUBLIC "-//W3C//DTD SVG 1.1//EN"
 "http://www.w3.org/Graphics/SVG/1.1/DTD/svg11.dtd">
<!-- Generated by graphviz version 2.44.0 (0)
 -->
<!-- Title: process Pages: 1 -->
<svg width="809pt" height="187pt"
 viewBox="0.00 0.00 809.00 187.00" xmlns="http://www.w3.org/2000/svg" xmlns:xlink="http://www.w3.org/1999/xlink">
<g id="graph0" class="graph" transform="scale(1 1) rotate(0) translate(36 151)">
<title>process</title>
<polygon fill="#ffffff" stroke="transparent" points="-36,36 -36,-151 773,-151 773,36 -36,36"/>
<!-- n0 -->
<g id="node1" class="node">
<title>n0</title>
<path fill="#e8f4f8" stroke="black" d="M64,-75C64,-75 12,-75 12,-75 6,-75 0,-69 0,-63 0,-63 0,-51 0,-51 0,-45 6,-39 12,-39 12,-39 64,-39 64,-39 70,-39 76,-45 76,-51 76,-51 76,-63 76,-63 76,-69 70,-75 64,-75"/>
<text text-anchor="middle" x="38" y="-54.2" font-family="Helvetica" font-size="11.00">onStartup</text>
</g>
<!-- n1 -->
<g id="node2" class="node">
<title>n1</title>
<path fill="#c8e6c9" stroke="black" d="M223,-75C223,-75 146,-75 146,-75 140,-75 134,-69 134,-63 134,-63 134,-51 134,-51 134,-45 140,-39 146,-39 146,-39 223,-39 223,-39 229,-39 235,-45 235,-51 235,-51 235,-63 235,-63 235,-69 229,-75 223,-75"/>
<text text-anchor="middle" x="184.5" y="-54.2" font-family="Helvetica" font-size="11.00">Start Log Audit</text>
</g>
<!-- n0&#45;&gt;n1 -->
<g id="edge1" class="edge">
<title>n0&#45;&gt;n1</title>
<path fill="none" stroke="#555555" d="M76.21,-57C90.62,-57 107.47,-57 123.5,-57"/>
<polygon fill="#555555" stroke="#555555" points="123.88,-60.5 133.88,-57 123.88,-53.5 123.88,-60.5"/>
</g>
<!-- n2 -->
<g id="node3" class="node">
<title>n2</title>
<path fill="#e8f4f8" stroke="black" d="M424,-75C424,-75 305,-75 305,-75 299,-75 293,-69 293,-63 293,-63 293,-51 293,-51 293,-45 299,-39 305,-39 305,-39 424,-39 424,-39 430,-39 436,-45 436,-51 436,-51 436,-63 436,-63 436,-69 430,-75 424,-75"/>
<text text-anchor="middle" x="364.5" y="-54.2" font-family="Helvetica" font-size="11.00">LoadHTTPStatusCodes</text>
</g>
<!-- n1&#45;&gt;n2 -->
<g id="edge2" class="edge">
<title>n1&#45;&gt;n2</title>
<path fill="none" stroke="#555555" d="M235.08,-57C249.91,-57 266.56,-57 282.83,-57"/>
<polygon fill="#555555" stroke="#555555" points="282.9,-60.5 292.9,-57 282.9,-53.5 282.9,-60.5"/>
</g>
<!-- n3 -->
<g id="node4" class="node">
<title>n3</title>
<path fill="#ffccbc" stroke="black" d="M596,-115C596,-115 523,-115 523,-115 517,-115 511,-109 511,-103 511,-103 511,-91 511,-91 511,-85 517,-79 523,-79 523,-79 596,-79 596,-79 602,-79 608,-85 608,-91 608,-91 608,-103 608,-103 608,-109 602,-115 596,-115"/>
<text text-anchor="middle" x="559.5" y="-94.2" font-family="Helvetica" font-size="11.00">End Audit Log</text>
</g>
<!-- n2&#45;&gt;n3 -->
<g id="edge3" class="edge">
<title>n2&#45;&gt;n3</title>
<path fill="none" stroke="#555555" d="M436.27,-71.67C457.53,-76.07 480.59,-80.85 500.89,-85.06"/>
<polygon fill="#555555" stroke="#555555" points="500.42,-88.54 510.92,-87.14 501.84,-81.68 500.42,-88.54"/>
</g>
<!-- n5 -->
<g id="node6" class="node">
<title>n5</title>
<path fill="#e8f4f8" stroke="black" d="M613,-36C613,-36 506,-36 506,-36 500,-36 494,-30 494,-24 494,-24 494,-12 494,-12 494,-6 500,0 506,0 506,0 613,0 613,0 619,0 625,-6 625,-12 625,-12 625,-24 625,-24 625,-30 619,-36 613,-36"/>
<text text-anchor="middle" x="559.5" y="-15.2" font-family="Helvetica" font-size="11.00">Shutdown BWEngine</text>
</g>
<!-- n2&#45;&gt;n5 -->
<g id="edge5" class="edge">
<title>n2&#45;&gt;n5</title>
<path fill="none" stroke="#555555" d="M436.27,-42.7C451.71,-39.58 468.11,-36.27 483.7,-33.11"/>
<polygon fill="#555555" stroke="#555555" points="484.71,-36.48 493.82,-31.07 483.32,-29.62 484.71,-36.48"/>
</g>
<!-- n4 -->
<g id="node5" class="node">
<title>n4</title>
<path fill="#ffccbc" stroke="black" d="M725,-75C725,-75 695,-75 695,-75 689,-75 683,-69 683,-63 683,-63 683,-51 683,-51 683,-45 689,-39 695,-39 695,-39 725,-39 725,-39 731,-39 737,-45 737,-51 737,-51 737,-63 737,-63 737,-69 731,-75 725,-75"/>
<text text-anchor="middle" x="710" y="-54.2" font-family="Helvetica" font-size="11.00">End</text>
</g>
<!-- n3&#45;&gt;n4 -->
<g id="edge4" class="edge">
<title>n3&#45;&gt;n4</title>
<path fill="none" stroke="#555555" d="M608.3,-84.12C629.39,-78.44 653.74,-71.88 673.22,-66.64"/>
<polygon fill="#555555" stroke="#555555" points="674.17,-70.01 682.92,-64.03 672.35,-63.25 674.17,-70.01"/>
</g>
<!-- n5&#45;&gt;n4 -->
<g id="edge6" class="edge">
<title>n5&#45;&gt;n4</title>
<path fill="none" stroke="#555555" d="M625.2,-34.99C641.55,-39.29 658.54,-43.75 672.9,-47.52"/>
<polygon fill="#555555" stroke="#555555" points="672.29,-50.98 682.85,-50.13 674.07,-44.21 672.29,-50.98"/>
</g>
</g>
</svg>
