<?xml version="1.0" encoding="UTF-8" standalone="no"?>
<!DOCTYPE svg PUBLIC "-//W3C//DTD SVG 1.1//EN"
 "http://www.w3.org/Graphics/SVG/1.1/DTD/svg11.dtd">
<!-- Generated by graphviz version 2.44.0 (0)
 -->
<!-- Title: process Pages: 1 -->
<svg width="806pt" height="187pt"
 viewBox="0.00 0.00 806.00 187.00" xmlns="http://www.w3.org/2000/svg" xmlns:xlink="http://www.w3.org/1999/xlink">
<g id="graph0" class="graph" transform="scale(1 1) rotate(0) translate(36 151)">
<title>process</title>
<polygon fill="#ffffff" stroke="transparent" points="-36,36 -36,-151 770,-151 770,36 -36,36"/>
<!-- n0 -->
<g id="node1" class="node">
<title>n0</title>
<path fill="#e8f4f8" stroke="black" d="M64,-75C64,-75 12,-75 12,-75 6,-75 0,-69 0,-63 0,-63 0,-51 0,-51 0,-45 6,-39 12,-39 12,-39 64,-39 64,-39 70,-39 76,-45 76,-51 76,-51 76,-63 76,-63 76,-69 70,-75 64,-75"/>
<text text-anchor="middle" x="38" y="-54.2" font-family="Helvetica" font-size="11.00">onStartup</text>
</g>
<!-- n1 -->
<g id="node2" class="node">
<title>n1</title>
<path fill="#c8e6c9" stroke="black" d="M223,-75C223,-75 146,-75 146,-75 140,-75 134,-69 134,-63 134,-63 134,-51 134,-51 134,-45 140,-39 146,-39 146,-39 223,-39 223,-39 229,-39 235,-45 235,-51 235,-51 235,-63 235,-63 235,-69 229,-75 223,-75"/>
<text text-anchor="middle" x="184.5" y="-54.2" font-family="Helvetica" font-size="11.00">Start Log Audit</text>
</g>
<!-- n0&#45;&gt;n1 -->
<g id="edge1" class="edge">
<title>n0&#45;&gt;n1</title>
<path fill="none" stroke="#555555" d="M76.21,-57C90.62,-57 107.47,-57 123.5,-57"/>
<polygon fill="#555555" stroke="#555555" points="123.88,-60.5 133.88,-57 123.88,-53.5 123.88,-60.5"/>
</g>
<!-- n5 -->
<g id="node6" class="node">
<title>n5</title>
<path fill="#e8f4f8" stroke="black" d="M421,-75C421,-75 305,-75 305,-75 299,-75 293,-69 293,-63 293,-63 293,-51 293,-51 293,-45 299,-39 305,-39 305,-39 421,-39 421,-39 427,-39 433,-45 433,-51 433,-51 433,-63 433,-63 433,-69 427,-75 421,-75"/>
<text text-anchor="middle" x="363" y="-54.2" font-family="Helvetica" font-size="11.00">TilProductUsageConfig</text>
</g>
<!-- n1&#45;&gt;n5 -->
<g id="edge4" class="edge">
<title>n1&#45;&gt;n5</title>
<path fill="none" stroke="#555555" d="M235.13,-57C250,-57 266.68,-57 282.94,-57"/>
<polygon fill="#555555" stroke="#555555" points="282.99,-60.5 292.99,-57 282.99,-53.5 282.99,-60.5"/>
</g>
<!-- n2 -->
<g id="node3" class="node">
<title>n2</title>
<path fill="#e8f4f8" stroke="black" d="M610,-115C610,-115 503,-115 503,-115 497,-115 491,-109 491,-103 491,-103 491,-91 491,-91 491,-85 497,-79 503,-79 503,-79 610,-79 610,-79 616,-79 622,-85 622,-91 622,-91 622,-103 622,-103 622,-109 616,-115 610,-115"/>
<text text-anchor="middle" x="556.5" y="-94.2" font-family="Helvetica" font-size="11.00">Shutdown BWEngine</text>
</g>
<!-- n3 -->
<g id="node4" class="node">
<title>n3</title>
<path fill="#ffccbc" stroke="black" d="M722,-75C722,-75 692,-75 692,-75 686,-75 680,-69 680,-63 680,-63 680,-51 680,-51 680,-45 686,-39 692,-39 692,-39 722,-39 722,-39 728,-39 734,-45 734,-51 734,-51 734,-63 734,-63 734,-69 728,-75 722,-75"/>
<text text-anchor="middle" x="707" y="-54.2" font-family="Helvetica" font-size="11.00">End</text>
</g>
<!-- n2&#45;&gt;n3 -->
<g id="edge2" class="edge">
<title>n2&#45;&gt;n3</title>
<path fill="none" stroke="#555555" d="M622.2,-79.57C638.55,-75.17 655.54,-70.59 669.9,-66.72"/>
<polygon fill="#555555" stroke="#555555" points="671.11,-70.02 679.85,-64.04 669.29,-63.26 671.11,-70.02"/>
</g>
<!-- n4 -->
<g id="node5" class="node">
<title>n4</title>
<path fill="#ffccbc" stroke="black" d="M593,-36C593,-36 520,-36 520,-36 514,-36 508,-30 508,-24 508,-24 508,-12 508,-12 508,-6 514,0 520,0 520,0 593,0 593,0 599,0 605,-6 605,-12 605,-12 605,-24 605,-24 605,-30 599,-36 593,-36"/>
<text text-anchor="middle" x="556.5" y="-15.2" font-family="Helvetica" font-size="11.00">End Audit Log</text>
</g>
<!-- n4&#45;&gt;n3 -->
<g id="edge3" class="edge">
<title>n4&#45;&gt;n3</title>
<path fill="none" stroke="#555555" d="M605.3,-30.55C626.39,-36.09 650.74,-42.49 670.22,-47.6"/>
<polygon fill="#555555" stroke="#555555" points="669.35,-50.99 679.92,-50.15 671.13,-44.22 669.35,-50.99"/>
</g>
<!-- n5&#45;&gt;n2 -->
<g id="edge6" class="edge">
<title>n5&#45;&gt;n2</title>
<path fill="none" stroke="#555555" d="M433.14,-71.44C448.6,-74.67 465.08,-78.11 480.76,-81.39"/>
<polygon fill="#555555" stroke="#555555" points="480.43,-84.89 490.93,-83.51 481.86,-78.04 480.43,-84.89"/>
</g>
<!-- n5&#45;&gt;n4 -->
<g id="edge5" class="edge">
<title>n5&#45;&gt;n4</title>
<path fill="none" stroke="#555555" d="M433.14,-42.92C454.31,-38.61 477.36,-33.91 497.7,-29.77"/>
<polygon fill="#555555" stroke="#555555" points="498.65,-33.15 507.75,-27.73 497.25,-26.29 498.65,-33.15"/>
</g>
</g>
</svg>
