<?xml version="1.0" encoding="UTF-8" standalone="no"?>
<!DOCTYPE svg PUBLIC "-//W3C//DTD SVG 1.1//EN"
 "http://www.w3.org/Graphics/SVG/1.1/DTD/svg11.dtd">
<!-- Generated by graphviz version 2.44.0 (0)
 -->
<!-- Title: process Pages: 1 -->
<svg width="359pt" height="108pt"
 viewBox="0.00 0.00 359.00 108.00" xmlns="http://www.w3.org/2000/svg" xmlns:xlink="http://www.w3.org/1999/xlink">
<g id="graph0" class="graph" transform="scale(1 1) rotate(0) translate(36 72)">
<title>process</title>
<polygon fill="#ffffff" stroke="transparent" points="-36,36 -36,-72 323,-72 323,36 -36,36"/>
<!-- n0 -->
<g id="node1" class="node">
<title>n0</title>
<path fill="#c8e6c9" stroke="black" d="M42,-36C42,-36 12,-36 12,-36 6,-36 0,-30 0,-24 0,-24 0,-12 0,-12 0,-6 6,0 12,0 12,0 42,0 42,0 48,0 54,-6 54,-12 54,-12 54,-24 54,-24 54,-30 48,-36 42,-36"/>
<text text-anchor="middle" x="27" y="-15.2" font-family="Helvetica" font-size="11.00">Start</text>
</g>
<!-- n1 -->
<g id="node2" class="node">
<title>n1</title>
<path fill="#e8f4f8" stroke="black" d="M163,-36C163,-36 124,-36 124,-36 118,-36 112,-30 112,-24 112,-24 112,-12 112,-12 112,-6 118,0 124,0 124,0 163,0 163,0 169,0 175,-6 175,-12 175,-12 175,-24 175,-24 175,-30 169,-36 163,-36"/>
<text text-anchor="middle" x="143.5" y="-15.2" font-family="Helvetica" font-size="11.00">Search</text>
</g>
<!-- n0&#45;&gt;n1 -->
<g id="edge1" class="edge">
<title>n0&#45;&gt;n1</title>
<path fill="none" stroke="#555555" d="M54.27,-18C68.35,-18 86.01,-18 101.82,-18"/>
<polygon fill="#555555" stroke="#555555" points="101.89,-21.5 111.89,-18 101.89,-14.5 101.89,-21.5"/>
</g>
<!-- n2 -->
<g id="node3" class="node">
<title>n2</title>
<path fill="#ffccbc" stroke="black" d="M275,-36C275,-36 245,-36 245,-36 239,-36 233,-30 233,-24 233,-24 233,-12 233,-12 233,-6 239,0 245,0 245,0 275,0 275,0 281,0 287,-6 287,-12 287,-12 287,-24 287,-24 287,-30 281,-36 275,-36"/>
<text text-anchor="middle" x="260" y="-15.2" font-family="Helvetica" font-size="11.00">End</text>
</g>
<!-- n1&#45;&gt;n2 -->
<g id="edge2" class="edge">
<title>n1&#45;&gt;n2</title>
<path fill="none" stroke="#555555" d="M175.18,-18C189.82,-18 207.44,-18 222.74,-18"/>
<polygon fill="#555555" stroke="#555555" points="222.89,-21.5 232.89,-18 222.89,-14.5 222.89,-21.5"/>
</g>
</g>
</svg>
