<?xml version="1.0" encoding="UTF-8" standalone="no"?>
<!DOCTYPE svg PUBLIC "-//W3C//DTD SVG 1.1//EN"
 "http://www.w3.org/Graphics/SVG/1.1/DTD/svg11.dtd">
<!-- Generated by graphviz version 2.44.0 (0)
 -->
<!-- Title: process Pages: 1 -->
<svg width="2395pt" height="366pt"
 viewBox="0.00 0.00 2395.00 366.00" xmlns="http://www.w3.org/2000/svg" xmlns:xlink="http://www.w3.org/1999/xlink">
<g id="graph0" class="graph" transform="scale(1 1) rotate(0) translate(36 330)">
<title>process</title>
<polygon fill="#ffffff" stroke="transparent" points="-36,36 -36,-330 2359,-330 2359,36 -36,36"/>
<!-- n0 -->
<g id="node1" class="node">
<title>n0</title>
<path fill="#c8e6c9" stroke="black" d="M42,-61C42,-61 12,-61 12,-61 6,-61 0,-55 0,-49 0,-49 0,-37 0,-37 0,-31 6,-25 12,-25 12,-25 42,-25 42,-25 48,-25 54,-31 54,-37 54,-37 54,-49 54,-49 54,-55 48,-61 42,-61"/>
<text text-anchor="middle" x="27" y="-40.2" font-family="Helvetica" font-size="11.00">start</text>
</g>
<!-- n1 -->
<g id="node2" class="node">
<title>n1</title>
<path fill="#e8f4f8" stroke="black" d="M252,-61C252,-61 124,-61 124,-61 118,-61 112,-55 112,-49 112,-49 112,-37 112,-37 112,-31 118,-25 124,-25 124,-25 252,-25 252,-25 258,-25 264,-31 264,-37 264,-37 264,-49 264,-49 264,-55 258,-61 252,-61"/>
<text text-anchor="middle" x="188" y="-40.2" font-family="Helvetica" font-size="11.00">QueryRTDBLoop_Bucket</text>
</g>
<!-- n0&#45;&gt;n1 -->
<g id="edge1" class="edge">
<title>n0&#45;&gt;n1</title>
<path fill="none" stroke="#555555" d="M54.26,-43C67.53,-43 84.46,-43 101.76,-43"/>
<polygon fill="#555555" stroke="#555555" points="101.97,-46.5 111.97,-43 101.97,-39.5 101.97,-46.5"/>
</g>
<!-- n2 -->
<g id="node13" class="node">
<title>n2</title>
<path fill="#ffccbc" stroke="black" d="M386.5,-61C386.5,-61 356.5,-61 356.5,-61 350.5,-61 344.5,-55 344.5,-49 344.5,-49 344.5,-37 344.5,-37 344.5,-31 350.5,-25 356.5,-25 356.5,-25 386.5,-25 386.5,-25 392.5,-25 398.5,-31 398.5,-37 398.5,-37 398.5,-49 398.5,-49 398.5,-55 392.5,-61 386.5,-61"/>
<text text-anchor="middle" x="371.5" y="-40.2" font-family="Helvetica" font-size="11.00">end</text>
</g>
<!-- n1&#45;&gt;n2 -->
<g id="edge2" class="edge">
<title>n1&#45;&gt;n2</title>
<path fill="none" stroke="#555555" d="M264.13,-43C288.27,-43 313.93,-43 334,-43"/>
<polygon fill="#555555" stroke="#555555" points="334.23,-46.5 344.23,-43 334.23,-39.5 334.23,-46.5"/>
</g>
<!-- n10 -->
<g id="node3" class="node">
<title>n10</title>
<path fill="#ffccbc" stroke="black" d="M2311,-77C2311,-77 2281,-77 2281,-77 2275,-77 2269,-71 2269,-65 2269,-65 2269,-53 2269,-53 2269,-47 2275,-41 2281,-41 2281,-41 2311,-41 2311,-41 2317,-41 2323,-47 2323,-53 2323,-53 2323,-65 2323,-65 2323,-71 2317,-77 2311,-77"/>
<text text-anchor="middle" x="2296" y="-56.2" font-family="Helvetica" font-size="11.00">End</text>
</g>
<!-- n11 -->
<g id="node4" class="node">
<title>n11</title>
<path fill="#e8f4f8" stroke="black" d="M1106,-216C1106,-216 1047,-216 1047,-216 1041,-216 1035,-210 1035,-204 1035,-204 1035,-192 1035,-192 1035,-186 1041,-180 1047,-180 1047,-180 1106,-180 1106,-180 1112,-180 1118,-186 1118,-192 1118,-192 1118,-204 1118,-204 1118,-210 1112,-216 1106,-216"/>
<text text-anchor="middle" x="1076.5" y="-195.2" font-family="Helvetica" font-size="11.00">WriteToLog</text>
</g>
<!-- n15 -->
<g id="node8" class="node">
<title>n15</title>
<path fill="#e8f4f8" stroke="black" d="M1306.5,-294C1306.5,-294 1214.5,-294 1214.5,-294 1208.5,-294 1202.5,-288 1202.5,-282 1202.5,-282 1202.5,-270 1202.5,-270 1202.5,-264 1208.5,-258 1214.5,-258 1214.5,-258 1306.5,-258 1306.5,-258 1312.5,-258 1318.5,-264 1318.5,-270 1318.5,-270 1318.5,-282 1318.5,-282 1318.5,-288 1312.5,-294 1306.5,-294"/>
<text text-anchor="middle" x="1260.5" y="-273.2" font-family="Helvetica" font-size="11.00">MapAnyException</text>
</g>
<!-- n11&#45;&gt;n15 -->
<g id="edge16" class="edge">
<title>n11&#45;&gt;n15</title>
<path fill="none" stroke="#555555" d="M1118.34,-215.5C1144.8,-226.84 1179.49,-241.71 1207.86,-253.87"/>
<polygon fill="#555555" stroke="#555555" points="1206.64,-257.15 1217.21,-257.88 1209.4,-250.72 1206.64,-257.15"/>
</g>
<!-- n16 -->
<g id="node9" class="node">
<title>n16</title>
<path fill="#ffcdd2" stroke="black" d="M1502,-252C1502,-252 1415,-252 1415,-252 1409,-252 1403,-246 1403,-240 1403,-240 1403,-228 1403,-228 1403,-222 1409,-216 1415,-216 1415,-216 1502,-216 1502,-216 1508,-216 1514,-222 1514,-228 1514,-228 1514,-240 1514,-240 1514,-246 1508,-252 1502,-252"/>
<text text-anchor="middle" x="1458.5" y="-231.2" font-family="Helvetica" font-size="11.00">Generate&#45;Error&#45;1</text>
</g>
<!-- n11&#45;&gt;n16 -->
<g id="edge17" class="edge">
<title>n11&#45;&gt;n16</title>
<path fill="none" stroke="#555555" d="M1118.17,-201.85C1183.86,-208.08 1313.88,-220.39 1392.52,-227.84"/>
<polygon fill="#555555" stroke="#555555" points="1392.51,-231.36 1402.8,-228.82 1393.17,-224.39 1392.51,-231.36"/>
</g>
<!-- n12 -->
<g id="node5" class="node">
<title>n12</title>
<path fill="#e8f4f8" stroke="black" d="M1091.5,-97C1091.5,-97 1061.5,-97 1061.5,-97 1055.5,-97 1049.5,-91 1049.5,-85 1049.5,-85 1049.5,-73 1049.5,-73 1049.5,-67 1055.5,-61 1061.5,-61 1061.5,-61 1091.5,-61 1091.5,-61 1097.5,-61 1103.5,-67 1103.5,-73 1103.5,-73 1103.5,-85 1103.5,-85 1103.5,-91 1097.5,-97 1091.5,-97"/>
<text text-anchor="middle" x="1076.5" y="-76.2" font-family="Helvetica" font-size="11.00">Null</text>
</g>
<!-- n17 -->
<g id="node10" class="node">
<title>n17</title>
<path fill="#e8f4f8" stroke="black" d="M1333,-118C1333,-118 1188,-118 1188,-118 1182,-118 1176,-112 1176,-106 1176,-106 1176,-94 1176,-94 1176,-88 1182,-82 1188,-82 1188,-82 1333,-82 1333,-82 1339,-82 1345,-88 1345,-94 1345,-94 1345,-106 1345,-106 1345,-112 1339,-118 1333,-118"/>
<text text-anchor="middle" x="1260.5" y="-97.2" font-family="Helvetica" font-size="11.00">WriteToLog_QueryRTDB&#45;1&#45;1</text>
</g>
<!-- n12&#45;&gt;n17 -->
<g id="edge19" class="edge">
<title>n12&#45;&gt;n17</title>
<path fill="none" stroke="#555555" d="M1103.58,-82.01C1120.19,-83.93 1142.82,-86.54 1165.69,-89.18"/>
<polygon fill="#555555" stroke="#555555" points="1165.5,-92.68 1175.84,-90.35 1166.3,-85.72 1165.5,-92.68"/>
</g>
<!-- n5 -->
<g id="node16" class="node">
<title>n5</title>
<path fill="#e8f4f8" stroke="black" d="M1492.5,-77C1492.5,-77 1424.5,-77 1424.5,-77 1418.5,-77 1412.5,-71 1412.5,-65 1412.5,-65 1412.5,-53 1412.5,-53 1412.5,-47 1418.5,-41 1424.5,-41 1424.5,-41 1492.5,-41 1492.5,-41 1498.5,-41 1504.5,-47 1504.5,-53 1504.5,-53 1504.5,-65 1504.5,-65 1504.5,-71 1498.5,-77 1492.5,-77"/>
<text text-anchor="middle" x="1458.5" y="-56.2" font-family="Helvetica" font-size="11.00">BucketQuery</text>
</g>
<!-- n12&#45;&gt;n5 -->
<g id="edge13" class="edge">
<title>n12&#45;&gt;n5</title>
<path fill="none" stroke="#555555" d="M1103.67,-72.94C1123.42,-68.67 1151.25,-63.33 1176,-61 1254.1,-53.64 1344.93,-54.73 1401.82,-56.56"/>
<polygon fill="#555555" stroke="#555555" points="1401.92,-60.06 1412.04,-56.91 1402.16,-53.07 1401.92,-60.06"/>
</g>
<!-- n13 -->
<g id="node6" class="node">
<title>n13</title>
<path fill="#e8f4f8" stroke="black" d="M409,-140C409,-140 334,-140 334,-140 328,-140 322,-134 322,-128 322,-128 322,-116 322,-116 322,-110 328,-104 334,-104 334,-104 409,-104 409,-104 415,-104 421,-110 421,-116 421,-116 421,-128 421,-128 421,-134 415,-140 409,-140"/>
<text text-anchor="middle" x="371.5" y="-119.2" font-family="Helvetica" font-size="11.00">SurepayQuery</text>
</g>
<!-- n14 -->
<g id="node7" class="node">
<title>n14</title>
<path fill="#e8f4f8" stroke="black" d="M646,-181C646,-181 491,-181 491,-181 485,-181 479,-175 479,-169 479,-169 479,-157 479,-157 479,-151 485,-145 491,-145 491,-145 646,-145 646,-145 652,-145 658,-151 658,-157 658,-157 658,-169 658,-169 658,-175 652,-181 646,-181"/>
<text text-anchor="middle" x="568.5" y="-160.2" font-family="Helvetica" font-size="11.00">WriteToLog_QueryRTDB&#45;1&#45;1&#45;1</text>
</g>
<!-- n13&#45;&gt;n14 -->
<g id="edge14" class="edge">
<title>n13&#45;&gt;n14</title>
<path fill="none" stroke="#555555" d="M421.2,-132.24C436.57,-135.47 454.13,-139.16 471.61,-142.84"/>
<polygon fill="#555555" stroke="#555555" points="471.37,-146.36 481.88,-145 472.81,-139.51 471.37,-146.36"/>
</g>
<!-- n3 -->
<g id="node14" class="node">
<title>n3</title>
<path fill="#e8f4f8" stroke="black" d="M832,-139C832,-139 728,-139 728,-139 722,-139 716,-133 716,-127 716,-127 716,-115 716,-115 716,-109 722,-103 728,-103 728,-103 832,-103 832,-103 838,-103 844,-109 844,-115 844,-115 844,-127 844,-127 844,-133 838,-139 832,-139"/>
<text text-anchor="middle" x="780" y="-118.2" font-family="Helvetica" font-size="11.00">QueryRTDB_Bucket</text>
</g>
<!-- n13&#45;&gt;n3 -->
<g id="edge22" class="edge">
<title>n13&#45;&gt;n3</title>
<path fill="none" stroke="#555555" d="M421.13,-121.88C491.83,-121.71 623.54,-121.38 705.95,-121.18"/>
<polygon fill="#555555" stroke="#555555" points="706,-124.68 715.99,-121.15 705.98,-117.68 706,-124.68"/>
</g>
<!-- n14&#45;&gt;n3 -->
<g id="edge21" class="edge">
<title>n14&#45;&gt;n3</title>
<path fill="none" stroke="#555555" d="M658.04,-145.25C673.98,-142.05 690.44,-138.76 705.88,-135.66"/>
<polygon fill="#555555" stroke="#555555" points="706.75,-139.06 715.86,-133.66 705.37,-132.19 706.75,-139.06"/>
</g>
<!-- n15&#45;&gt;n16 -->
<g id="edge18" class="edge">
<title>n15&#45;&gt;n16</title>
<path fill="none" stroke="#555555" d="M1318.72,-263.74C1341.95,-258.76 1368.91,-252.98 1392.85,-247.85"/>
<polygon fill="#555555" stroke="#555555" points="1393.86,-251.22 1402.91,-245.7 1392.39,-244.37 1393.86,-251.22"/>
</g>
<!-- n17&#45;&gt;n5 -->
<g id="edge20" class="edge">
<title>n17&#45;&gt;n5</title>
<path fill="none" stroke="#555555" d="M1345.19,-82.49C1364.5,-78.45 1384.57,-74.26 1402.3,-70.55"/>
<polygon fill="#555555" stroke="#555555" points="1403.38,-73.9 1412.45,-68.42 1401.95,-67.04 1403.38,-73.9"/>
</g>
<!-- n18 -->
<g id="node11" class="node">
<title>n18</title>
<path fill="#c8e6c9" stroke="black" d="M42,-140C42,-140 12,-140 12,-140 6,-140 0,-134 0,-128 0,-128 0,-116 0,-116 0,-110 6,-104 12,-104 12,-104 42,-104 42,-104 48,-104 54,-110 54,-116 54,-116 54,-128 54,-128 54,-134 48,-140 42,-140"/>
<text text-anchor="middle" x="27" y="-119.2" font-family="Helvetica" font-size="11.00">Start</text>
</g>
<!-- n19 -->
<g id="node12" class="node">
<title>n19</title>
<path fill="#e8f4f8" stroke="black" d="M231,-140C231,-140 145,-140 145,-140 139,-140 133,-134 133,-128 133,-128 133,-116 133,-116 133,-110 139,-104 145,-104 145,-104 231,-104 231,-104 237,-104 243,-110 243,-116 243,-116 243,-128 243,-128 243,-134 237,-140 231,-140"/>
<text text-anchor="middle" x="188" y="-119.2" font-family="Helvetica" font-size="11.00">GetProductClass</text>
</g>
<!-- n18&#45;&gt;n19 -->
<g id="edge24" class="edge">
<title>n18&#45;&gt;n19</title>
<path fill="none" stroke="#555555" d="M54.26,-122C72.93,-122 98.87,-122 122.86,-122"/>
<polygon fill="#555555" stroke="#555555" points="123,-125.5 133,-122 123,-118.5 123,-125.5"/>
</g>
<!-- n19&#45;&gt;n13 -->
<g id="edge25" class="edge">
<title>n19&#45;&gt;n13</title>
<path fill="none" stroke="#555555" d="M243.46,-122C265,-122 289.81,-122 311.76,-122"/>
<polygon fill="#555555" stroke="#555555" points="311.95,-125.5 321.95,-122 311.95,-118.5 311.95,-125.5"/>
</g>
<!-- n3&#45;&gt;n11 -->
<g id="edge10" class="edge">
<title>n3&#45;&gt;n11</title>
<path fill="none" stroke="#555555" d="M831.55,-139.08C853.1,-146.43 878.62,-154.66 902,-161 942.99,-172.11 990.16,-181.99 1024.96,-188.73"/>
<polygon fill="#555555" stroke="#555555" points="1024.4,-192.19 1034.88,-190.64 1025.72,-185.32 1024.4,-192.19"/>
</g>
<!-- n3&#45;&gt;n12 -->
<g id="edge11" class="edge">
<title>n3&#45;&gt;n12</title>
<path fill="none" stroke="#555555" d="M826.18,-102.94C848.59,-94.89 876.31,-86.27 902,-82 948.86,-74.22 1003.82,-74.89 1039.12,-76.54"/>
<polygon fill="#555555" stroke="#555555" points="1039.25,-80.06 1049.42,-77.08 1039.61,-73.07 1039.25,-80.06"/>
</g>
<!-- n4 -->
<g id="node15" class="node">
<title>n4</title>
<path fill="#e8f4f8" stroke="black" d="M965,-139C965,-139 914,-139 914,-139 908,-139 902,-133 902,-127 902,-127 902,-115 902,-115 902,-109 908,-103 914,-103 914,-103 965,-103 965,-103 971,-103 977,-109 977,-115 977,-115 977,-127 977,-127 977,-133 971,-139 965,-139"/>
<text text-anchor="middle" x="939.5" y="-118.2" font-family="Helvetica" font-size="11.00">Group (1)</text>
</g>
<!-- n3&#45;&gt;n4 -->
<g id="edge3" class="edge">
<title>n3&#45;&gt;n4</title>
<path fill="none" stroke="#555555" d="M844.15,-121C859.86,-121 876.42,-121 891.21,-121"/>
<polygon fill="#555555" stroke="#555555" points="891.63,-124.5 901.63,-121 891.63,-117.5 891.63,-124.5"/>
</g>
<!-- n4&#45;&gt;n11 -->
<g id="edge15" class="edge">
<title>n4&#45;&gt;n11</title>
<path fill="none" stroke="#555555" d="M972.15,-139.05C990.8,-149.69 1014.6,-163.27 1034.66,-174.71"/>
<polygon fill="#555555" stroke="#555555" points="1033.16,-177.88 1043.58,-179.79 1036.63,-171.8 1033.16,-177.88"/>
</g>
<!-- n4&#45;&gt;n12 -->
<g id="edge12" class="edge">
<title>n4&#45;&gt;n12</title>
<path fill="none" stroke="#555555" d="M977.03,-109.63C996.45,-103.59 1020.23,-96.19 1039.56,-90.18"/>
<polygon fill="#555555" stroke="#555555" points="1040.7,-93.49 1049.21,-87.18 1038.62,-86.81 1040.7,-93.49"/>
</g>
<!-- n6 -->
<g id="node17" class="node">
<title>n6</title>
<path fill="#e8f4f8" stroke="black" d="M1719,-119C1719,-119 1584,-119 1584,-119 1578,-119 1572,-113 1572,-107 1572,-107 1572,-95 1572,-95 1572,-89 1578,-83 1584,-83 1584,-83 1719,-83 1719,-83 1725,-83 1731,-89 1731,-95 1731,-95 1731,-107 1731,-107 1731,-113 1725,-119 1719,-119"/>
<text text-anchor="middle" x="1651.5" y="-98.2" font-family="Helvetica" font-size="11.00">WriteToLog_QueryRTDB&#45;1</text>
</g>
<!-- n5&#45;&gt;n6 -->
<g id="edge4" class="edge">
<title>n5&#45;&gt;n6</title>
<path fill="none" stroke="#555555" d="M1504.76,-68.95C1521.94,-72.73 1542.15,-77.17 1561.95,-81.53"/>
<polygon fill="#555555" stroke="#555555" points="1561.42,-85 1571.94,-83.72 1562.92,-78.16 1561.42,-85"/>
</g>
<!-- n9 -->
<g id="node20" class="node">
<title>n9</title>
<path fill="#e8f4f8" stroke="black" d="M1862,-77C1862,-77 1801,-77 1801,-77 1795,-77 1789,-71 1789,-65 1789,-65 1789,-53 1789,-53 1789,-47 1795,-41 1801,-41 1801,-41 1862,-41 1862,-41 1868,-41 1874,-47 1874,-53 1874,-53 1874,-65 1874,-65 1874,-71 1868,-77 1862,-77"/>
<text text-anchor="middle" x="1831.5" y="-56.2" font-family="Helvetica" font-size="11.00">Data UOMs</text>
</g>
<!-- n5&#45;&gt;n9 -->
<g id="edge9" class="edge">
<title>n5&#45;&gt;n9</title>
<path fill="none" stroke="#555555" d="M1504.62,-59C1573.73,-59 1705.46,-59 1778.49,-59"/>
<polygon fill="#555555" stroke="#555555" points="1778.83,-62.5 1788.83,-59 1778.83,-55.5 1778.83,-62.5"/>
</g>
<!-- n6&#45;&gt;n9 -->
<g id="edge6" class="edge">
<title>n6&#45;&gt;n9</title>
<path fill="none" stroke="#555555" d="M1729.02,-82.94C1745.87,-78.97 1763.33,-74.85 1778.92,-71.17"/>
<polygon fill="#555555" stroke="#555555" points="1779.94,-74.53 1788.87,-68.82 1778.33,-67.71 1779.94,-74.53"/>
</g>
<!-- n7 -->
<g id="node18" class="node">
<title>n7</title>
<path fill="#e8f4f8" stroke="black" d="M1992,-77C1992,-77 1944,-77 1944,-77 1938,-77 1932,-71 1932,-65 1932,-65 1932,-53 1932,-53 1932,-47 1938,-41 1944,-41 1944,-41 1992,-41 1992,-41 1998,-41 2004,-47 2004,-53 2004,-53 2004,-65 2004,-65 2004,-71 1998,-77 1992,-77"/>
<text text-anchor="middle" x="1968" y="-56.2" font-family="Helvetica" font-size="11.00">Combine</text>
</g>
<!-- n7&#45;&gt;n10 -->
<g id="edge8" class="edge">
<title>n7&#45;&gt;n10</title>
<path fill="none" stroke="#555555" d="M2004.2,-59C2066.45,-59 2195.36,-59 2258.52,-59"/>
<polygon fill="#555555" stroke="#555555" points="2258.8,-62.5 2268.8,-59 2258.8,-55.5 2258.8,-62.5"/>
</g>
<!-- n8 -->
<g id="node19" class="node">
<title>n8</title>
<path fill="#e8f4f8" stroke="black" d="M2199,-36C2199,-36 2074,-36 2074,-36 2068,-36 2062,-30 2062,-24 2062,-24 2062,-12 2062,-12 2062,-6 2068,0 2074,0 2074,0 2199,0 2199,0 2205,0 2211,-6 2211,-12 2211,-12 2211,-24 2211,-24 2211,-30 2205,-36 2199,-36"/>
<text text-anchor="middle" x="2136.5" y="-15.2" font-family="Helvetica" font-size="11.00">WriteToLog_QueryRTDB</text>
</g>
<!-- n7&#45;&gt;n8 -->
<g id="edge5" class="edge">
<title>n7&#45;&gt;n8</title>
<path fill="none" stroke="#555555" d="M2004.31,-50.3C2018.43,-46.83 2035.35,-42.66 2052.27,-38.5"/>
<polygon fill="#555555" stroke="#555555" points="2053.33,-41.84 2062.21,-36.05 2051.66,-35.04 2053.33,-41.84"/>
</g>
<!-- n8&#45;&gt;n10 -->
<g id="edge7" class="edge">
<title>n8&#45;&gt;n10</title>
<path fill="none" stroke="#555555" d="M2207.04,-36.1C2224.85,-40.74 2243.3,-45.54 2258.67,-49.54"/>
<polygon fill="#555555" stroke="#555555" points="2258.22,-53.04 2268.78,-52.17 2259.98,-46.27 2258.22,-53.04"/>
</g>
<!-- n9&#45;&gt;n7 -->
<g id="edge23" class="edge">
<title>n9&#45;&gt;n7</title>
<path fill="none" stroke="#555555" d="M1874.32,-59C1889.36,-59 1906.38,-59 1921.7,-59"/>
<polygon fill="#555555" stroke="#555555" points="1921.99,-62.5 1931.99,-59 1921.99,-55.5 1921.99,-62.5"/>
</g>
</g>
</svg>
