<?xml version="1.0" encoding="UTF-8" standalone="no"?>
<!DOCTYPE svg PUBLIC "-//W3C//DTD SVG 1.1//EN"
 "http://www.w3.org/Graphics/SVG/1.1/DTD/svg11.dtd">
<!-- Generated by graphviz version 2.44.0 (0)
 -->
<!-- Title: process Pages: 1 -->
<svg width="1140pt" height="268pt"
 viewBox="0.00 0.00 1140.00 268.00" xmlns="http://www.w3.org/2000/svg" xmlns:xlink="http://www.w3.org/1999/xlink">
<g id="graph0" class="graph" transform="scale(1 1) rotate(0) translate(36 232)">
<title>process</title>
<polygon fill="#ffffff" stroke="transparent" points="-36,36 -36,-232 1104,-232 1104,36 -36,36"/>
<!-- n0 -->
<g id="node1" class="node">
<title>n0</title>
<path fill="#e8f4f8" stroke="black" d="M524,-154C524,-154 494,-154 494,-154 488,-154 482,-148 482,-142 482,-142 482,-130 482,-130 482,-124 488,-118 494,-118 494,-118 524,-118 524,-118 530,-118 536,-124 536,-130 536,-130 536,-142 536,-142 536,-148 530,-154 524,-154"/>
<text text-anchor="middle" x="509" y="-133.2" font-family="Helvetica" font-size="11.00">Null</text>
</g>
<!-- n1 -->
<g id="node2" class="node">
<title>n1</title>
<path fill="#e8f4f8" stroke="black" d="M722,-196C722,-196 606,-196 606,-196 600,-196 594,-190 594,-184 594,-184 594,-172 594,-172 594,-166 600,-160 606,-160 606,-160 722,-160 722,-160 728,-160 734,-166 734,-172 734,-172 734,-184 734,-184 734,-190 728,-196 722,-196"/>
<text text-anchor="middle" x="664" y="-175.2" font-family="Helvetica" font-size="11.00">ErrorMissingMandatory</text>
</g>
<!-- n0&#45;&gt;n1 -->
<g id="edge1" class="edge">
<title>n0&#45;&gt;n1</title>
<path fill="none" stroke="#555555" d="M536.3,-143.22C550.57,-147.14 569.01,-152.2 587.38,-157.24"/>
<polygon fill="#555555" stroke="#555555" points="586.68,-160.68 597.25,-159.95 588.53,-153.93 586.68,-160.68"/>
</g>
<!-- n2 -->
<g id="node3" class="node">
<title>n2</title>
<path fill="#e8f4f8" stroke="black" d="M680.5,-115C680.5,-115 647.5,-115 647.5,-115 641.5,-115 635.5,-109 635.5,-103 635.5,-103 635.5,-91 635.5,-91 635.5,-85 641.5,-79 647.5,-79 647.5,-79 680.5,-79 680.5,-79 686.5,-79 692.5,-85 692.5,-91 692.5,-91 692.5,-103 692.5,-103 692.5,-109 686.5,-115 680.5,-115"/>
<text text-anchor="middle" x="664" y="-94.2" font-family="Helvetica" font-size="11.00">Null&#45;1</text>
</g>
<!-- n0&#45;&gt;n2 -->
<g id="edge5" class="edge">
<title>n0&#45;&gt;n2</title>
<path fill="none" stroke="#555555" d="M536.3,-129.3C560.96,-123.01 598.07,-113.55 625.76,-106.49"/>
<polygon fill="#555555" stroke="#555555" points="626.67,-109.87 635.49,-104.01 624.94,-103.09 626.67,-109.87"/>
</g>
<!-- n7 -->
<g id="node8" class="node">
<title>n7</title>
<path fill="#ffcdd2" stroke="black" d="M1056,-117C1056,-117 979,-117 979,-117 973,-117 967,-111 967,-105 967,-105 967,-93 967,-93 967,-87 973,-81 979,-81 979,-81 1056,-81 1056,-81 1062,-81 1068,-87 1068,-93 1068,-93 1068,-105 1068,-105 1068,-111 1062,-117 1056,-117"/>
<text text-anchor="middle" x="1017.5" y="-96.2" font-family="Helvetica" font-size="11.00">Generate Error</text>
</g>
<!-- n1&#45;&gt;n7 -->
<g id="edge7" class="edge">
<title>n1&#45;&gt;n7</title>
<path fill="none" stroke="#555555" d="M734.03,-169.65C783.26,-162.91 850.78,-152.06 909,-137 926.3,-132.52 944.77,-126.48 961.43,-120.53"/>
<polygon fill="#555555" stroke="#555555" points="962.8,-123.75 971.01,-117.05 960.41,-117.17 962.8,-123.75"/>
</g>
<!-- n3 -->
<g id="node4" class="node">
<title>n3</title>
<path fill="#ffccbc" stroke="black" d="M865.5,-115C865.5,-115 835.5,-115 835.5,-115 829.5,-115 823.5,-109 823.5,-103 823.5,-103 823.5,-91 823.5,-91 823.5,-85 829.5,-79 835.5,-79 835.5,-79 865.5,-79 865.5,-79 871.5,-79 877.5,-85 877.5,-91 877.5,-91 877.5,-103 877.5,-103 877.5,-109 871.5,-115 865.5,-115"/>
<text text-anchor="middle" x="850.5" y="-94.2" font-family="Helvetica" font-size="11.00">End</text>
</g>
<!-- n2&#45;&gt;n3 -->
<g id="edge2" class="edge">
<title>n2&#45;&gt;n3</title>
<path fill="none" stroke="#555555" d="M692.62,-97C724.69,-97 777.7,-97 813.1,-97"/>
<polygon fill="#555555" stroke="#555555" points="813.48,-100.5 823.48,-97 813.48,-93.5 813.48,-100.5"/>
</g>
<!-- n8 -->
<g id="node9" class="node">
<title>n8</title>
<path fill="#e8f4f8" stroke="black" d="M897,-36C897,-36 804,-36 804,-36 798,-36 792,-30 792,-24 792,-24 792,-12 792,-12 792,-6 798,0 804,0 804,0 897,0 897,0 903,0 909,-6 909,-12 909,-12 909,-24 909,-24 909,-30 903,-36 897,-36"/>
<text text-anchor="middle" x="850.5" y="-15.2" font-family="Helvetica" font-size="11.00">ErrorInvalidSyntax</text>
</g>
<!-- n2&#45;&gt;n8 -->
<g id="edge8" class="edge">
<title>n2&#45;&gt;n8</title>
<path fill="none" stroke="#555555" d="M692.62,-85.17C720.37,-73.29 763.8,-54.7 797.94,-40.08"/>
<polygon fill="#555555" stroke="#555555" points="799.48,-43.22 807.3,-36.07 796.73,-36.79 799.48,-43.22"/>
</g>
<!-- n4 -->
<g id="node5" class="node">
<title>n4</title>
<path fill="#c8e6c9" stroke="black" d="M42,-154C42,-154 12,-154 12,-154 6,-154 0,-148 0,-142 0,-142 0,-130 0,-130 0,-124 6,-118 12,-118 12,-118 42,-118 42,-118 48,-118 54,-124 54,-130 54,-130 54,-142 54,-142 54,-148 48,-154 42,-154"/>
<text text-anchor="middle" x="27" y="-133.2" font-family="Helvetica" font-size="11.00">Start</text>
</g>
<!-- n5 -->
<g id="node6" class="node">
<title>n5</title>
<path fill="#e8f4f8" stroke="black" d="M228,-154C228,-154 124,-154 124,-154 118,-154 112,-148 112,-142 112,-142 112,-130 112,-130 112,-124 118,-118 124,-118 124,-118 228,-118 228,-118 234,-118 240,-124 240,-130 240,-130 240,-142 240,-142 240,-148 234,-154 228,-154"/>
<text text-anchor="middle" x="176" y="-133.2" font-family="Helvetica" font-size="11.00">DefaultErrorSchema</text>
</g>
<!-- n4&#45;&gt;n5 -->
<g id="edge3" class="edge">
<title>n4&#45;&gt;n5</title>
<path fill="none" stroke="#555555" d="M54.28,-136C67.74,-136 84.87,-136 101.96,-136"/>
<polygon fill="#555555" stroke="#555555" points="101.99,-139.5 111.99,-136 101.99,-132.5 101.99,-139.5"/>
</g>
<!-- n6 -->
<g id="node7" class="node">
<title>n6</title>
<path fill="#e8f4f8" stroke="black" d="M412,-154C412,-154 310,-154 310,-154 304,-154 298,-148 298,-142 298,-142 298,-130 298,-130 298,-124 304,-118 310,-118 310,-118 412,-118 412,-118 418,-118 424,-124 424,-130 424,-130 424,-142 424,-142 424,-148 418,-154 412,-154"/>
<text text-anchor="middle" x="361" y="-133.2" font-family="Helvetica" font-size="11.00">SearchReasonCode</text>
</g>
<!-- n5&#45;&gt;n6 -->
<g id="edge6" class="edge">
<title>n5&#45;&gt;n6</title>
<path fill="none" stroke="#555555" d="M240.23,-136C255.49,-136 271.91,-136 287.55,-136"/>
<polygon fill="#555555" stroke="#555555" points="287.69,-139.5 297.69,-136 287.69,-132.5 287.69,-139.5"/>
</g>
<!-- n6&#45;&gt;n0 -->
<g id="edge4" class="edge">
<title>n6&#45;&gt;n0</title>
<path fill="none" stroke="#555555" d="M424.34,-136C440.4,-136 457.16,-136 471.43,-136"/>
<polygon fill="#555555" stroke="#555555" points="471.8,-139.5 481.8,-136 471.8,-132.5 471.8,-139.5"/>
</g>
<!-- n8&#45;&gt;n7 -->
<g id="edge9" class="edge">
<title>n8&#45;&gt;n7</title>
<path fill="none" stroke="#555555" d="M888.53,-36.18C912.73,-48.06 944.53,-63.67 970.37,-76.35"/>
<polygon fill="#555555" stroke="#555555" points="969.08,-79.62 979.59,-80.88 972.16,-73.33 969.08,-79.62"/>
</g>
</g>
</svg>
