<?xml version="1.0" encoding="UTF-8" standalone="no"?>
<!DOCTYPE svg PUBLIC "-//W3C//DTD SVG 1.1//EN"
 "http://www.w3.org/Graphics/SVG/1.1/DTD/svg11.dtd">
<!-- Generated by graphviz version 2.44.0 (0)
 -->
<!-- Title: process Pages: 1 -->
<svg width="1478pt" height="192pt"
 viewBox="0.00 0.00 1478.00 192.00" xmlns="http://www.w3.org/2000/svg" xmlns:xlink="http://www.w3.org/1999/xlink">
<g id="graph0" class="graph" transform="scale(1 1) rotate(0) translate(36 156)">
<title>process</title>
<polygon fill="#ffffff" stroke="transparent" points="-36,36 -36,-156 1442,-156 1442,36 -36,36"/>
<!-- n0 -->
<g id="node1" class="node">
<title>n0</title>
<path fill="#e8f4f8" stroke="black" d="M380,-119C380,-119 275,-119 275,-119 269,-119 263,-113 263,-107 263,-107 263,-95 263,-95 263,-89 269,-83 275,-83 275,-83 380,-83 380,-83 386,-83 392,-89 392,-95 392,-95 392,-107 392,-107 392,-113 386,-119 380,-119"/>
<text text-anchor="middle" x="327.5" y="-98.2" font-family="Helvetica" font-size="11.00">Collect Process Data</text>
</g>
<!-- n1 -->
<g id="node2" class="node">
<title>n1</title>
<path fill="#e8f4f8" stroke="black" d="M519,-119C519,-119 462,-119 462,-119 456,-119 450,-113 450,-107 450,-107 450,-95 450,-95 450,-89 456,-83 462,-83 462,-83 519,-83 519,-83 525,-83 531,-89 531,-95 531,-95 531,-107 531,-107 531,-113 525,-119 519,-119"/>
<text text-anchor="middle" x="490.5" y="-98.2" font-family="Helvetica" font-size="11.00">CVV2Filter</text>
</g>
<!-- n0&#45;&gt;n1 -->
<g id="edge1" class="edge">
<title>n0&#45;&gt;n1</title>
<path fill="none" stroke="#555555" d="M392.13,-101C407.99,-101 424.75,-101 439.82,-101"/>
<polygon fill="#555555" stroke="#555555" points="439.95,-104.5 449.95,-101 439.95,-97.5 439.95,-104.5"/>
</g>
<!-- n4 -->
<g id="node5" class="node">
<title>n4</title>
<path fill="#e8f4f8" stroke="black" d="M763,-119C763,-119 601,-119 601,-119 595,-119 589,-113 589,-107 589,-107 589,-95 589,-95 589,-89 595,-83 601,-83 601,-83 763,-83 763,-83 769,-83 775,-89 775,-95 775,-95 775,-107 775,-107 775,-113 769,-119 763,-119"/>
<text text-anchor="middle" x="682" y="-98.2" font-family="Helvetica" font-size="11.00">Write process data to Debug Log</text>
</g>
<!-- n1&#45;&gt;n4 -->
<g id="edge10" class="edge">
<title>n1&#45;&gt;n4</title>
<path fill="none" stroke="#555555" d="M531.23,-101C545.16,-101 561.52,-101 578.21,-101"/>
<polygon fill="#555555" stroke="#555555" points="578.63,-104.5 588.63,-101 578.63,-97.5 578.63,-104.5"/>
</g>
<!-- n2 -->
<g id="node3" class="node">
<title>n2</title>
<path fill="#e8f4f8" stroke="black" d="M722,-36C722,-36 642,-36 642,-36 636,-36 630,-30 630,-24 630,-24 630,-12 630,-12 630,-6 636,0 642,0 642,0 722,0 722,0 728,0 734,-6 734,-12 734,-12 734,-24 734,-24 734,-30 728,-36 722,-36"/>
<text text-anchor="middle" x="682" y="-15.2" font-family="Helvetica" font-size="11.00">Log Audit Event</text>
</g>
<!-- n3 -->
<g id="node4" class="node">
<title>n3</title>
<path fill="#e8f4f8" stroke="black" d="M1105,-78C1105,-78 1031,-78 1031,-78 1025,-78 1019,-72 1019,-66 1019,-66 1019,-54 1019,-54 1019,-48 1025,-42 1031,-42 1031,-42 1105,-42 1105,-42 1111,-42 1117,-48 1117,-54 1117,-54 1117,-66 1117,-66 1117,-72 1111,-78 1105,-78"/>
<text text-anchor="middle" x="1068" y="-57.2" font-family="Helvetica" font-size="11.00">GetHostName</text>
</g>
<!-- n2&#45;&gt;n3 -->
<g id="edge2" class="edge">
<title>n2&#45;&gt;n3</title>
<path fill="none" stroke="#555555" d="M734.24,-13.02C790.41,-8.79 882.94,-5.47 961,-20 980.74,-23.67 1001.6,-30.78 1019.54,-38"/>
<polygon fill="#555555" stroke="#555555" points="1018.6,-41.4 1029.18,-41.99 1021.28,-34.93 1018.6,-41.4"/>
</g>
<!-- n5 -->
<g id="node6" class="node">
<title>n5</title>
<path fill="#e8f4f8" stroke="black" d="M949,-78C949,-78 845,-78 845,-78 839,-78 833,-72 833,-66 833,-66 833,-54 833,-54 833,-48 839,-42 845,-42 845,-42 949,-42 949,-42 955,-42 961,-48 961,-54 961,-54 961,-66 961,-66 961,-72 955,-78 949,-78"/>
<text text-anchor="middle" x="897" y="-57.2" font-family="Helvetica" font-size="11.00">Log&#45;Summary&#45;Event</text>
</g>
<!-- n2&#45;&gt;n5 -->
<g id="edge11" class="edge">
<title>n2&#45;&gt;n5</title>
<path fill="none" stroke="#555555" d="M734.02,-28.06C760.55,-33.29 793.46,-39.78 822.67,-45.54"/>
<polygon fill="#555555" stroke="#555555" points="822.34,-49.04 832.83,-47.54 823.69,-42.18 822.34,-49.04"/>
</g>
<!-- n8 -->
<g id="node9" class="node">
<title>n8</title>
<path fill="#e8f4f8" stroke="black" d="M1282,-120C1282,-120 1187,-120 1187,-120 1181,-120 1175,-114 1175,-108 1175,-108 1175,-96 1175,-96 1175,-90 1181,-84 1187,-84 1187,-84 1282,-84 1282,-84 1288,-84 1294,-90 1294,-96 1294,-96 1294,-108 1294,-108 1294,-114 1288,-120 1282,-120"/>
<text text-anchor="middle" x="1234.5" y="-99.2" font-family="Helvetica" font-size="11.00">UpdateAuditCache</text>
</g>
<!-- n3&#45;&gt;n8 -->
<g id="edge8" class="edge">
<title>n3&#45;&gt;n8</title>
<path fill="none" stroke="#555555" d="M1117.02,-72.26C1132.02,-76.09 1148.87,-80.39 1164.99,-84.51"/>
<polygon fill="#555555" stroke="#555555" points="1164.36,-87.96 1174.92,-87.04 1166.09,-81.18 1164.36,-87.96"/>
</g>
<!-- n9 -->
<g id="node10" class="node">
<title>n9</title>
<path fill="#ffccbc" stroke="black" d="M1394,-78C1394,-78 1364,-78 1364,-78 1358,-78 1352,-72 1352,-66 1352,-66 1352,-54 1352,-54 1352,-48 1358,-42 1364,-42 1364,-42 1394,-42 1394,-42 1400,-42 1406,-48 1406,-54 1406,-54 1406,-66 1406,-66 1406,-72 1400,-78 1394,-78"/>
<text text-anchor="middle" x="1379" y="-57.2" font-family="Helvetica" font-size="11.00">End</text>
</g>
<!-- n3&#45;&gt;n9 -->
<g id="edge9" class="edge">
<title>n3&#45;&gt;n9</title>
<path fill="none" stroke="#555555" d="M1117.28,-60C1179.47,-60 1286.16,-60 1341.82,-60"/>
<polygon fill="#555555" stroke="#555555" points="1341.92,-63.5 1351.92,-60 1341.92,-56.5 1341.92,-63.5"/>
</g>
<!-- n4&#45;&gt;n3 -->
<g id="edge13" class="edge">
<title>n4&#45;&gt;n3</title>
<path fill="none" stroke="#555555" d="M775.16,-108.84C829.66,-111.45 899.77,-111.28 961,-100 980.75,-96.36 1001.6,-89.26 1019.54,-82.04"/>
<polygon fill="#555555" stroke="#555555" points="1021.29,-85.11 1029.18,-78.04 1018.61,-78.64 1021.29,-85.11"/>
</g>
<!-- n4&#45;&gt;n5 -->
<g id="edge3" class="edge">
<title>n4&#45;&gt;n5</title>
<path fill="none" stroke="#555555" d="M775.19,-83.26C791.14,-80.18 807.53,-77.03 822.9,-74.07"/>
<polygon fill="#555555" stroke="#555555" points="823.67,-77.49 832.83,-72.16 822.34,-70.61 823.67,-77.49"/>
</g>
<!-- n5&#45;&gt;n3 -->
<g id="edge12" class="edge">
<title>n5&#45;&gt;n3</title>
<path fill="none" stroke="#555555" d="M961.41,-60C976.86,-60 993.31,-60 1008.52,-60"/>
<polygon fill="#555555" stroke="#555555" points="1008.82,-63.5 1018.82,-60 1008.82,-56.5 1008.82,-63.5"/>
</g>
<!-- n6 -->
<g id="node7" class="node">
<title>n6</title>
<path fill="#e8f4f8" stroke="black" d="M193,-77C193,-77 124,-77 124,-77 118,-77 112,-71 112,-65 112,-65 112,-53 112,-53 112,-47 118,-41 124,-41 124,-41 193,-41 193,-41 199,-41 205,-47 205,-53 205,-53 205,-65 205,-65 205,-71 199,-77 193,-77"/>
<text text-anchor="middle" x="158.5" y="-56.2" font-family="Helvetica" font-size="11.00">Prepare Data</text>
</g>
<!-- n6&#45;&gt;n0 -->
<g id="edge4" class="edge">
<title>n6&#45;&gt;n0</title>
<path fill="none" stroke="#555555" d="M205.13,-70.48C219.85,-74.18 236.55,-78.38 252.76,-82.46"/>
<polygon fill="#555555" stroke="#555555" points="252.22,-85.93 262.77,-84.97 253.92,-79.14 252.22,-85.93"/>
</g>
<!-- n6&#45;&gt;n2 -->
<g id="edge5" class="edge">
<title>n6&#45;&gt;n2</title>
<path fill="none" stroke="#555555" d="M205.32,-55.4C299.25,-48.01 513.68,-31.15 619.54,-22.83"/>
<polygon fill="#555555" stroke="#555555" points="620.05,-26.3 629.75,-22.03 619.51,-19.32 620.05,-26.3"/>
</g>
<!-- n7 -->
<g id="node8" class="node">
<title>n7</title>
<path fill="#c8e6c9" stroke="black" d="M42,-77C42,-77 12,-77 12,-77 6,-77 0,-71 0,-65 0,-65 0,-53 0,-53 0,-47 6,-41 12,-41 12,-41 42,-41 42,-41 48,-41 54,-47 54,-53 54,-53 54,-65 54,-65 54,-71 48,-77 42,-77"/>
<text text-anchor="middle" x="27" y="-56.2" font-family="Helvetica" font-size="11.00">Start</text>
</g>
<!-- n7&#45;&gt;n6 -->
<g id="edge6" class="edge">
<title>n7&#45;&gt;n6</title>
<path fill="none" stroke="#555555" d="M54.21,-59C67.92,-59 85.25,-59 101.78,-59"/>
<polygon fill="#555555" stroke="#555555" points="101.93,-62.5 111.93,-59 101.93,-55.5 101.93,-62.5"/>
</g>
<!-- n8&#45;&gt;n9 -->
<g id="edge7" class="edge">
<title>n8&#45;&gt;n9</title>
<path fill="none" stroke="#555555" d="M1294.28,-84.67C1310.6,-79.86 1327.82,-74.79 1342.38,-70.5"/>
<polygon fill="#555555" stroke="#555555" points="1343.38,-73.85 1351.98,-67.67 1341.4,-67.14 1343.38,-73.85"/>
</g>
</g>
</svg>
