<?xml version="1.0" encoding="UTF-8" standalone="no"?>
<!DOCTYPE svg PUBLIC "-//W3C//DTD SVG 1.1//EN"
 "http://www.w3.org/Graphics/SVG/1.1/DTD/svg11.dtd">
<!-- Generated by graphviz version 2.44.0 (0)
 -->
<!-- Title: process Pages: 1 -->
<svg width="423pt" height="187pt"
 viewBox="0.00 0.00 423.00 187.00" xmlns="http://www.w3.org/2000/svg" xmlns:xlink="http://www.w3.org/1999/xlink">
<g id="graph0" class="graph" transform="scale(1 1) rotate(0) translate(36 151)">
<title>process</title>
<polygon fill="#ffffff" stroke="transparent" points="-36,36 -36,-151 387,-151 387,36 -36,36"/>
<!-- n0 -->
<g id="node1" class="node">
<title>n0</title>
<path fill="#e8f4f8" stroke="black" d="M180,-75C180,-75 124,-75 124,-75 118,-75 112,-69 112,-63 112,-63 112,-51 112,-51 112,-45 118,-39 124,-39 124,-39 180,-39 180,-39 186,-39 192,-45 192,-51 192,-51 192,-63 192,-63 192,-69 186,-75 180,-75"/>
<text text-anchor="middle" x="152" y="-54.2" font-family="Helvetica" font-size="11.00">Encryption</text>
</g>
<!-- n1 -->
<g id="node2" class="node">
<title>n1</title>
<path fill="#ffcdd2" stroke="black" d="M339,-115C339,-115 262,-115 262,-115 256,-115 250,-109 250,-103 250,-103 250,-91 250,-91 250,-85 256,-79 262,-79 262,-79 339,-79 339,-79 345,-79 351,-85 351,-91 351,-91 351,-103 351,-103 351,-109 345,-115 339,-115"/>
<text text-anchor="middle" x="300.5" y="-94.2" font-family="Helvetica" font-size="11.00">Generate Error</text>
</g>
<!-- n0&#45;&gt;n1 -->
<g id="edge1" class="edge">
<title>n0&#45;&gt;n1</title>
<path fill="none" stroke="#555555" d="M192.26,-67.72C206.93,-71.72 223.94,-76.37 240.02,-80.76"/>
<polygon fill="#555555" stroke="#555555" points="239.32,-84.2 249.89,-83.45 241.17,-77.44 239.32,-84.2"/>
</g>
<!-- n2 -->
<g id="node3" class="node">
<title>n2</title>
<path fill="#ffccbc" stroke="black" d="M315.5,-36C315.5,-36 285.5,-36 285.5,-36 279.5,-36 273.5,-30 273.5,-24 273.5,-24 273.5,-12 273.5,-12 273.5,-6 279.5,0 285.5,0 285.5,0 315.5,0 315.5,0 321.5,0 327.5,-6 327.5,-12 327.5,-12 327.5,-24 327.5,-24 327.5,-30 321.5,-36 315.5,-36"/>
<text text-anchor="middle" x="300.5" y="-15.2" font-family="Helvetica" font-size="11.00">End</text>
</g>
<!-- n0&#45;&gt;n2 -->
<g id="edge2" class="edge">
<title>n0&#45;&gt;n2</title>
<path fill="none" stroke="#555555" d="M192.26,-46.55C214.36,-40.67 241.76,-33.37 263.33,-27.63"/>
<polygon fill="#555555" stroke="#555555" points="264.33,-30.98 273.09,-25.03 262.53,-24.22 264.33,-30.98"/>
</g>
<!-- n3 -->
<g id="node4" class="node">
<title>n3</title>
<path fill="#c8e6c9" stroke="black" d="M42,-75C42,-75 12,-75 12,-75 6,-75 0,-69 0,-63 0,-63 0,-51 0,-51 0,-45 6,-39 12,-39 12,-39 42,-39 42,-39 48,-39 54,-45 54,-51 54,-51 54,-63 54,-63 54,-69 48,-75 42,-75"/>
<text text-anchor="middle" x="27" y="-54.2" font-family="Helvetica" font-size="11.00">Start</text>
</g>
<!-- n3&#45;&gt;n0 -->
<g id="edge3" class="edge">
<title>n3&#45;&gt;n0</title>
<path fill="none" stroke="#555555" d="M54.09,-57C67.85,-57 85.21,-57 101.42,-57"/>
<polygon fill="#555555" stroke="#555555" points="101.86,-60.5 111.86,-57 101.86,-53.5 101.86,-60.5"/>
</g>
</g>
</svg>
