<?xml version="1.0" encoding="UTF-8" standalone="no"?>
<!DOCTYPE svg PUBLIC "-//W3C//DTD SVG 1.1//EN"
 "http://www.w3.org/Graphics/SVG/1.1/DTD/svg11.dtd">
<!-- Generated by graphviz version 2.44.0 (0)
 -->
<!-- Title: process Pages: 1 -->
<svg width="742pt" height="187pt"
 viewBox="0.00 0.00 742.00 187.00" xmlns="http://www.w3.org/2000/svg" xmlns:xlink="http://www.w3.org/1999/xlink">
<g id="graph0" class="graph" transform="scale(1 1) rotate(0) translate(36 151)">
<title>process</title>
<polygon fill="#ffffff" stroke="transparent" points="-36,36 -36,-151 706,-151 706,36 -36,36"/>
<!-- n0 -->
<g id="node1" class="node">
<title>n0</title>
<path fill="#e8f4f8" stroke="black" d="M325,-75C325,-75 245,-75 245,-75 239,-75 233,-69 233,-63 233,-63 233,-51 233,-51 233,-45 239,-39 245,-39 245,-39 325,-39 325,-39 331,-39 337,-45 337,-51 337,-51 337,-63 337,-63 337,-69 331,-75 325,-75"/>
<text text-anchor="middle" x="285" y="-54.2" font-family="Helvetica" font-size="11.00">ParseResponse</text>
</g>
<!-- n1 -->
<g id="node2" class="node">
<title>n1</title>
<path fill="#ffccbc" stroke="black" d="M468,-115C468,-115 438,-115 438,-115 432,-115 426,-109 426,-103 426,-103 426,-91 426,-91 426,-85 432,-79 438,-79 438,-79 468,-79 468,-79 474,-79 480,-85 480,-91 480,-91 480,-103 480,-103 480,-109 474,-115 468,-115"/>
<text text-anchor="middle" x="453" y="-94.2" font-family="Helvetica" font-size="11.00">End</text>
</g>
<!-- n0&#45;&gt;n1 -->
<g id="edge1" class="edge">
<title>n0&#45;&gt;n1</title>
<path fill="none" stroke="#555555" d="M337.16,-69.33C362.72,-75.49 393.03,-82.79 416.09,-88.35"/>
<polygon fill="#555555" stroke="#555555" points="415.27,-91.75 425.81,-90.69 416.91,-84.94 415.27,-91.75"/>
</g>
<!-- n2 -->
<g id="node3" class="node">
<title>n2</title>
<path fill="#e8f4f8" stroke="black" d="M499,-36C499,-36 407,-36 407,-36 401,-36 395,-30 395,-24 395,-24 395,-12 395,-12 395,-6 401,0 407,0 407,0 499,0 499,0 505,0 511,-6 511,-12 511,-12 511,-24 511,-24 511,-30 505,-36 499,-36"/>
<text text-anchor="middle" x="453" y="-15.2" font-family="Helvetica" font-size="11.00">MapAnyException</text>
</g>
<!-- n0&#45;&gt;n2 -->
<g id="edge2" class="edge">
<title>n0&#45;&gt;n2</title>
<path fill="none" stroke="#555555" d="M337.16,-44.98C352.31,-41.42 369.12,-37.47 385.11,-33.72"/>
<polygon fill="#555555" stroke="#555555" points="386,-37.1 394.93,-31.41 384.39,-30.29 386,-37.1"/>
</g>
<!-- n3 -->
<g id="node4" class="node">
<title>n3</title>
<path fill="#ffcdd2" stroke="black" d="M658,-36C658,-36 581,-36 581,-36 575,-36 569,-30 569,-24 569,-24 569,-12 569,-12 569,-6 575,0 581,0 581,0 658,0 658,0 664,0 670,-6 670,-12 670,-12 670,-24 670,-24 670,-30 664,-36 658,-36"/>
<text text-anchor="middle" x="619.5" y="-15.2" font-family="Helvetica" font-size="11.00">Generate Error</text>
</g>
<!-- n2&#45;&gt;n3 -->
<g id="edge3" class="edge">
<title>n2&#45;&gt;n3</title>
<path fill="none" stroke="#555555" d="M511.07,-18C526.53,-18 543.29,-18 558.88,-18"/>
<polygon fill="#555555" stroke="#555555" points="558.93,-21.5 568.93,-18 558.93,-14.5 558.93,-21.5"/>
</g>
<!-- n4 -->
<g id="node5" class="node">
<title>n4</title>
<path fill="#c8e6c9" stroke="black" d="M42,-75C42,-75 12,-75 12,-75 6,-75 0,-69 0,-63 0,-63 0,-51 0,-51 0,-45 6,-39 12,-39 12,-39 42,-39 42,-39 48,-39 54,-45 54,-51 54,-51 54,-63 54,-63 54,-69 48,-75 42,-75"/>
<text text-anchor="middle" x="27" y="-54.2" font-family="Helvetica" font-size="11.00">Start</text>
</g>
<!-- n5 -->
<g id="node6" class="node">
<title>n5</title>
<path fill="#e8f4f8" stroke="black" d="M163,-75C163,-75 124,-75 124,-75 118,-75 112,-69 112,-63 112,-63 112,-51 112,-51 112,-45 118,-39 124,-39 124,-39 163,-39 163,-39 169,-39 175,-45 175,-51 175,-51 175,-63 175,-63 175,-69 169,-75 163,-75"/>
<text text-anchor="middle" x="143.5" y="-54.2" font-family="Helvetica" font-size="11.00">Search</text>
</g>
<!-- n4&#45;&gt;n5 -->
<g id="edge4" class="edge">
<title>n4&#45;&gt;n5</title>
<path fill="none" stroke="#555555" d="M54.27,-57C68.35,-57 86.01,-57 101.82,-57"/>
<polygon fill="#555555" stroke="#555555" points="101.89,-60.5 111.89,-57 101.89,-53.5 101.89,-60.5"/>
</g>
<!-- n5&#45;&gt;n0 -->
<g id="edge5" class="edge">
<title>n5&#45;&gt;n0</title>
<path fill="none" stroke="#555555" d="M175.11,-57C189.13,-57 206.26,-57 222.75,-57"/>
<polygon fill="#555555" stroke="#555555" points="222.9,-60.5 232.9,-57 222.9,-53.5 222.9,-60.5"/>
</g>
</g>
</svg>
