<?xml version="1.0" encoding="UTF-8" standalone="no"?>
<!DOCTYPE svg PUBLIC "-//W3C//DTD SVG 1.1//EN"
 "http://www.w3.org/Graphics/SVG/1.1/DTD/svg11.dtd">
<!-- Generated by graphviz version 2.44.0 (0)
 -->
<!-- Title: process Pages: 1 -->
<svg width="751pt" height="509pt"
 viewBox="0.00 0.00 751.00 509.00" xmlns="http://www.w3.org/2000/svg" xmlns:xlink="http://www.w3.org/1999/xlink">
<g id="graph0" class="graph" transform="scale(1 1) rotate(0) translate(36 473)">
<title>process</title>
<polygon fill="#ffffff" stroke="transparent" points="-36,36 -36,-473 715,-473 715,36 -36,36"/>
<!-- n0 -->
<g id="node1" class="node">
<title>n0</title>
<path fill="#c8e6c9" stroke="black" d="M42,-115C42,-115 12,-115 12,-115 6,-115 0,-109 0,-103 0,-103 0,-91 0,-91 0,-85 6,-79 12,-79 12,-79 42,-79 42,-79 48,-79 54,-85 54,-91 54,-91 54,-103 54,-103 54,-109 48,-115 42,-115"/>
<text text-anchor="middle" x="27" y="-94.2" font-family="Helvetica" font-size="11.00">start</text>
</g>
<!-- n1 -->
<g id="node2" class="node">
<title>n1</title>
<path fill="#e8f4f8" stroke="black" d="M155.5,-115C155.5,-115 125.5,-115 125.5,-115 119.5,-115 113.5,-109 113.5,-103 113.5,-103 113.5,-91 113.5,-91 113.5,-85 119.5,-79 125.5,-79 125.5,-79 155.5,-79 155.5,-79 161.5,-79 167.5,-85 167.5,-91 167.5,-91 167.5,-103 167.5,-103 167.5,-109 161.5,-115 155.5,-115"/>
<text text-anchor="middle" x="140.5" y="-94.2" font-family="Helvetica" font-size="11.00">Null</text>
</g>
<!-- n0&#45;&gt;n1 -->
<g id="edge1" class="edge">
<title>n0&#45;&gt;n1</title>
<path fill="none" stroke="#555555" d="M54.14,-97C68.71,-97 87.09,-97 103.06,-97"/>
<polygon fill="#555555" stroke="#555555" points="103.14,-100.5 113.14,-97 103.14,-93.5 103.14,-100.5"/>
</g>
<!-- n2 -->
<g id="node9" class="node">
<title>n2</title>
<path fill="#e8f4f8" stroke="black" d="M306,-154C306,-154 267,-154 267,-154 261,-154 255,-148 255,-142 255,-142 255,-130 255,-130 255,-124 261,-118 267,-118 267,-118 306,-118 306,-118 312,-118 318,-124 318,-130 318,-130 318,-142 318,-142 318,-148 312,-154 306,-154"/>
<text text-anchor="middle" x="286.5" y="-133.2" font-family="Helvetica" font-size="11.00">Default</text>
</g>
<!-- n1&#45;&gt;n2 -->
<g id="edge4" class="edge">
<title>n1&#45;&gt;n2</title>
<path fill="none" stroke="#555555" d="M167.58,-104.06C189.16,-109.91 220.19,-118.31 245.01,-125.03"/>
<polygon fill="#555555" stroke="#555555" points="244.3,-128.47 254.87,-127.7 246.13,-121.71 244.3,-128.47"/>
</g>
<!-- n4 -->
<g id="node11" class="node">
<title>n4</title>
<path fill="#e8f4f8" stroke="black" d="M307.5,-75C307.5,-75 265.5,-75 265.5,-75 259.5,-75 253.5,-69 253.5,-63 253.5,-63 253.5,-51 253.5,-51 253.5,-45 259.5,-39 265.5,-39 265.5,-39 307.5,-39 307.5,-39 313.5,-39 319.5,-45 319.5,-51 319.5,-51 319.5,-63 319.5,-63 319.5,-69 313.5,-75 307.5,-75"/>
<text text-anchor="middle" x="286.5" y="-54.2" font-family="Helvetica" font-size="11.00">Custom</text>
</g>
<!-- n1&#45;&gt;n4 -->
<g id="edge5" class="edge">
<title>n1&#45;&gt;n4</title>
<path fill="none" stroke="#555555" d="M167.58,-89.76C188.73,-83.88 218.97,-75.48 243.53,-68.66"/>
<polygon fill="#555555" stroke="#555555" points="244.62,-71.99 253.32,-65.94 242.74,-65.24 244.62,-71.99"/>
</g>
<!-- n10 -->
<g id="node3" class="node">
<title>n10</title>
<path fill="#e8f4f8" stroke="black" d="M157,-358C157,-358 124,-358 124,-358 118,-358 112,-352 112,-346 112,-346 112,-334 112,-334 112,-328 118,-322 124,-322 124,-322 157,-322 157,-322 163,-322 169,-328 169,-334 169,-334 169,-346 169,-346 169,-352 163,-358 157,-358"/>
<text text-anchor="middle" x="140.5" y="-337.2" font-family="Helvetica" font-size="11.00">Null&#45;1</text>
</g>
<!-- n12 -->
<g id="node5" class="node">
<title>n12</title>
<path fill="#ffcdd2" stroke="black" d="M334,-437C334,-437 239,-437 239,-437 233,-437 227,-431 227,-425 227,-425 227,-413 227,-413 227,-407 233,-401 239,-401 239,-401 334,-401 334,-401 340,-401 346,-407 346,-413 346,-413 346,-425 346,-425 346,-431 340,-437 334,-437"/>
<text text-anchor="middle" x="286.5" y="-416.2" font-family="Helvetica" font-size="11.00">No Resource Error</text>
</g>
<!-- n10&#45;&gt;n12 -->
<g id="edge12" class="edge">
<title>n10&#45;&gt;n12</title>
<path fill="none" stroke="#555555" d="M169.26,-355.23C190.35,-366.8 219.71,-382.91 243.64,-396.04"/>
<polygon fill="#555555" stroke="#555555" points="242.07,-399.17 252.52,-400.91 245.44,-393.03 242.07,-399.17"/>
</g>
<!-- n13 -->
<g id="node6" class="node">
<title>n13</title>
<path fill="#ffcdd2" stroke="black" d="M317.5,-358C317.5,-358 255.5,-358 255.5,-358 249.5,-358 243.5,-352 243.5,-346 243.5,-346 243.5,-334 243.5,-334 243.5,-328 249.5,-322 255.5,-322 255.5,-322 317.5,-322 317.5,-322 323.5,-322 329.5,-328 329.5,-334 329.5,-334 329.5,-346 329.5,-346 329.5,-352 323.5,-358 317.5,-358"/>
<text text-anchor="middle" x="286.5" y="-337.2" font-family="Helvetica" font-size="11.00">Error Group</text>
</g>
<!-- n10&#45;&gt;n13 -->
<g id="edge14" class="edge">
<title>n10&#45;&gt;n13</title>
<path fill="none" stroke="#555555" d="M169.26,-340C187.4,-340 211.64,-340 233.29,-340"/>
<polygon fill="#555555" stroke="#555555" points="233.35,-343.5 243.35,-340 233.35,-336.5 233.35,-343.5"/>
</g>
<!-- n11 -->
<g id="node4" class="node">
<title>n11</title>
<path fill="#ffccbc" stroke="black" d="M477,-277C477,-277 447,-277 447,-277 441,-277 435,-271 435,-265 435,-265 435,-253 435,-253 435,-247 441,-241 447,-241 447,-241 477,-241 477,-241 483,-241 489,-247 489,-253 489,-253 489,-265 489,-265 489,-271 483,-277 477,-277"/>
<text text-anchor="middle" x="462" y="-256.2" font-family="Helvetica" font-size="11.00">End</text>
</g>
<!-- n13&#45;&gt;n11 -->
<g id="edge13" class="edge">
<title>n13&#45;&gt;n11</title>
<path fill="none" stroke="#555555" d="M326.44,-321.82C356.15,-307.95 396.74,-289 425.55,-275.55"/>
<polygon fill="#555555" stroke="#555555" points="427.26,-278.62 434.84,-271.21 424.3,-272.27 427.26,-278.62"/>
</g>
<!-- n14 -->
<g id="node7" class="node">
<title>n14</title>
<path fill="#e8f4f8" stroke="black" d="M508,-358C508,-358 416,-358 416,-358 410,-358 404,-352 404,-346 404,-346 404,-334 404,-334 404,-328 410,-322 416,-322 416,-322 508,-322 508,-322 514,-322 520,-328 520,-334 520,-334 520,-346 520,-346 520,-352 514,-358 508,-358"/>
<text text-anchor="middle" x="462" y="-337.2" font-family="Helvetica" font-size="11.00">MapAnyException</text>
</g>
<!-- n13&#45;&gt;n14 -->
<g id="edge15" class="edge">
<title>n13&#45;&gt;n14</title>
<path fill="none" stroke="#555555" d="M329.94,-340C349.17,-340 372.36,-340 393.86,-340"/>
<polygon fill="#555555" stroke="#555555" points="393.93,-343.5 403.93,-340 393.93,-336.5 393.93,-343.5"/>
</g>
<!-- n15 -->
<g id="node8" class="node">
<title>n15</title>
<path fill="#ffcdd2" stroke="black" d="M667,-358C667,-358 590,-358 590,-358 584,-358 578,-352 578,-346 578,-346 578,-334 578,-334 578,-328 584,-322 590,-322 590,-322 667,-322 667,-322 673,-322 679,-328 679,-334 679,-334 679,-346 679,-346 679,-352 673,-358 667,-358"/>
<text text-anchor="middle" x="628.5" y="-337.2" font-family="Helvetica" font-size="11.00">Generate Error</text>
</g>
<!-- n14&#45;&gt;n15 -->
<g id="edge16" class="edge">
<title>n14&#45;&gt;n15</title>
<path fill="none" stroke="#555555" d="M520.07,-340C535.53,-340 552.29,-340 567.88,-340"/>
<polygon fill="#555555" stroke="#555555" points="567.93,-343.5 577.93,-340 567.93,-336.5 567.93,-343.5"/>
</g>
<!-- n3 -->
<g id="node10" class="node">
<title>n3</title>
<path fill="#ffccbc" stroke="black" d="M477,-115C477,-115 447,-115 447,-115 441,-115 435,-109 435,-103 435,-103 435,-91 435,-91 435,-85 441,-79 447,-79 447,-79 477,-79 477,-79 483,-79 489,-85 489,-91 489,-91 489,-103 489,-103 489,-109 483,-115 477,-115"/>
<text text-anchor="middle" x="462" y="-94.2" font-family="Helvetica" font-size="11.00">end</text>
</g>
<!-- n2&#45;&gt;n3 -->
<g id="edge2" class="edge">
<title>n2&#45;&gt;n3</title>
<path fill="none" stroke="#555555" d="M318.12,-129.12C347.92,-122.42 393.22,-112.24 424.79,-105.14"/>
<polygon fill="#555555" stroke="#555555" points="425.94,-108.47 434.93,-102.86 424.41,-101.64 425.94,-108.47"/>
</g>
<!-- n6 -->
<g id="node13" class="node">
<title>n6</title>
<path fill="#e8f4f8" stroke="black" d="M491.5,-194C491.5,-194 432.5,-194 432.5,-194 426.5,-194 420.5,-188 420.5,-182 420.5,-182 420.5,-170 420.5,-170 420.5,-164 426.5,-158 432.5,-158 432.5,-158 491.5,-158 491.5,-158 497.5,-158 503.5,-164 503.5,-170 503.5,-170 503.5,-182 503.5,-182 503.5,-188 497.5,-194 491.5,-194"/>
<text text-anchor="middle" x="462" y="-173.2" font-family="Helvetica" font-size="11.00">WriteToLog</text>
</g>
<!-- n2&#45;&gt;n6 -->
<g id="edge7" class="edge">
<title>n2&#45;&gt;n6</title>
<path fill="none" stroke="#555555" d="M318.12,-143.06C343.64,-148.94 380.52,-157.45 410.42,-164.34"/>
<polygon fill="#555555" stroke="#555555" points="409.73,-167.77 420.26,-166.61 411.31,-160.95 409.73,-167.77"/>
</g>
<!-- n4&#45;&gt;n3 -->
<g id="edge3" class="edge">
<title>n4&#45;&gt;n3</title>
<path fill="none" stroke="#555555" d="M319.73,-64.43C349.57,-71.31 393.9,-81.53 424.92,-88.68"/>
<polygon fill="#555555" stroke="#555555" points="424.36,-92.14 434.89,-90.98 425.93,-85.32 424.36,-92.14"/>
</g>
<!-- n5 -->
<g id="node12" class="node">
<title>n5</title>
<path fill="#e8f4f8" stroke="black" d="M496.5,-36C496.5,-36 427.5,-36 427.5,-36 421.5,-36 415.5,-30 415.5,-24 415.5,-24 415.5,-12 415.5,-12 415.5,-6 421.5,0 427.5,0 427.5,0 496.5,0 496.5,0 502.5,0 508.5,-6 508.5,-12 508.5,-12 508.5,-24 508.5,-24 508.5,-30 502.5,-36 496.5,-36"/>
<text text-anchor="middle" x="462" y="-15.2" font-family="Helvetica" font-size="11.00">WriteToLog&#45;1</text>
</g>
<!-- n4&#45;&gt;n5 -->
<g id="edge6" class="edge">
<title>n4&#45;&gt;n5</title>
<path fill="none" stroke="#555555" d="M319.73,-49.76C343.75,-44.36 377.14,-36.85 405.44,-30.49"/>
<polygon fill="#555555" stroke="#555555" points="406.22,-33.9 415.21,-28.29 404.68,-27.07 406.22,-33.9"/>
</g>
<!-- n8 -->
<g id="node15" class="node">
<title>n8</title>
<path fill="#ffcdd2" stroke="black" d="M660,-36C660,-36 597,-36 597,-36 591,-36 585,-30 585,-24 585,-24 585,-12 585,-12 585,-6 591,0 597,0 597,0 660,0 660,0 666,0 672,-6 672,-12 672,-12 672,-24 672,-24 672,-30 666,-36 660,-36"/>
<text text-anchor="middle" x="628.5" y="-15.2" font-family="Helvetica" font-size="11.00">Invalid Error</text>
</g>
<!-- n5&#45;&gt;n8 -->
<g id="edge9" class="edge">
<title>n5&#45;&gt;n8</title>
<path fill="none" stroke="#555555" d="M508.82,-18C529.25,-18 553.43,-18 574.61,-18"/>
<polygon fill="#555555" stroke="#555555" points="574.75,-21.5 584.75,-18 574.75,-14.5 574.75,-21.5"/>
</g>
<!-- n7 -->
<g id="node14" class="node">
<title>n7</title>
<path fill="#ffcdd2" stroke="black" d="M665,-194C665,-194 592,-194 592,-194 586,-194 580,-188 580,-182 580,-182 580,-170 580,-170 580,-164 586,-158 592,-158 592,-158 665,-158 665,-158 671,-158 677,-164 677,-170 677,-170 677,-182 677,-182 677,-188 671,-194 665,-194"/>
<text text-anchor="middle" x="628.5" y="-173.2" font-family="Helvetica" font-size="11.00">Invalid&#45;Error&#45;1</text>
</g>
<!-- n6&#45;&gt;n7 -->
<g id="edge8" class="edge">
<title>n6&#45;&gt;n7</title>
<path fill="none" stroke="#555555" d="M503.66,-176C523.54,-176 547.81,-176 569.59,-176"/>
<polygon fill="#555555" stroke="#555555" points="569.72,-179.5 579.72,-176 569.72,-172.5 569.72,-179.5"/>
</g>
<!-- n9 -->
<g id="node16" class="node">
<title>n9</title>
<path fill="#c8e6c9" stroke="black" d="M42,-316C42,-316 12,-316 12,-316 6,-316 0,-310 0,-304 0,-304 0,-292 0,-292 0,-286 6,-280 12,-280 12,-280 42,-280 42,-280 48,-280 54,-286 54,-292 54,-292 54,-304 54,-304 54,-310 48,-316 42,-316"/>
<text text-anchor="middle" x="27" y="-295.2" font-family="Helvetica" font-size="11.00">Start</text>
</g>
<!-- n9&#45;&gt;n10 -->
<g id="edge10" class="edge">
<title>n9&#45;&gt;n10</title>
<path fill="none" stroke="#555555" d="M54.14,-307.85C68.53,-313.27 86.63,-320.09 102.46,-326.05"/>
<polygon fill="#555555" stroke="#555555" points="101.37,-329.38 111.97,-329.63 103.84,-322.83 101.37,-329.38"/>
</g>
<!-- n9&#45;&gt;n11 -->
<g id="edge11" class="edge">
<title>n9&#45;&gt;n11</title>
<path fill="none" stroke="#555555" d="M54.11,-295.65C128.18,-288.98 339.76,-269.92 424.88,-262.25"/>
<polygon fill="#555555" stroke="#555555" points="425.21,-265.74 434.86,-261.35 424.58,-258.77 425.21,-265.74"/>
</g>
</g>
</svg>
