<?xml version="1.0" encoding="UTF-8" standalone="no"?>
<!DOCTYPE svg PUBLIC "-//W3C//DTD SVG 1.1//EN"
 "http://www.w3.org/Graphics/SVG/1.1/DTD/svg11.dtd">
<!-- Generated by graphviz version 2.44.0 (0)
 -->
<!-- Title: process Pages: 1 -->
<svg width="381pt" height="108pt"
 viewBox="0.00 0.00 381.00 108.00" xmlns="http://www.w3.org/2000/svg" xmlns:xlink="http://www.w3.org/1999/xlink">
<g id="graph0" class="graph" transform="scale(1 1) rotate(0) translate(36 72)">
<title>process</title>
<polygon fill="#ffffff" stroke="transparent" points="-36,36 -36,-72 345,-72 345,36 -36,36"/>
<!-- n0 -->
<g id="node1" class="node">
<title>n0</title>
<path fill="#c8e6c9" stroke="black" d="M42,-36C42,-36 12,-36 12,-36 6,-36 0,-30 0,-24 0,-24 0,-12 0,-12 0,-6 6,0 12,0 12,0 42,0 42,0 48,0 54,-6 54,-12 54,-12 54,-24 54,-24 54,-30 48,-36 42,-36"/>
<text text-anchor="middle" x="27" y="-15.2" font-family="Helvetica" font-size="11.00">Start</text>
</g>
<!-- n1 -->
<g id="node2" class="node">
<title>n1</title>
<path fill="#e8f4f8" stroke="black" d="M185,-36C185,-36 124,-36 124,-36 118,-36 112,-30 112,-24 112,-24 112,-12 112,-12 112,-6 118,0 124,0 124,0 185,0 185,0 191,0 197,-6 197,-12 197,-12 197,-24 197,-24 197,-30 191,-36 185,-36"/>
<text text-anchor="middle" x="154.5" y="-15.2" font-family="Helvetica" font-size="11.00">GetBalance</text>
</g>
<!-- n0&#45;&gt;n1 -->
<g id="edge1" class="edge">
<title>n0&#45;&gt;n1</title>
<path fill="none" stroke="#555555" d="M54,-18C67.8,-18 85.25,-18 101.67,-18"/>
<polygon fill="#555555" stroke="#555555" points="101.72,-21.5 111.72,-18 101.72,-14.5 101.72,-21.5"/>
</g>
<!-- n2 -->
<g id="node3" class="node">
<title>n2</title>
<path fill="#ffccbc" stroke="black" d="M297,-36C297,-36 267,-36 267,-36 261,-36 255,-30 255,-24 255,-24 255,-12 255,-12 255,-6 261,0 267,0 267,0 297,0 297,0 303,0 309,-6 309,-12 309,-12 309,-24 309,-24 309,-30 303,-36 297,-36"/>
<text text-anchor="middle" x="282" y="-15.2" font-family="Helvetica" font-size="11.00">End</text>
</g>
<!-- n1&#45;&gt;n2 -->
<g id="edge2" class="edge">
<title>n1&#45;&gt;n2</title>
<path fill="none" stroke="#555555" d="M197.29,-18C212.55,-18 229.68,-18 244.45,-18"/>
<polygon fill="#555555" stroke="#555555" points="244.73,-21.5 254.73,-18 244.73,-14.5 244.73,-21.5"/>
</g>
</g>
</svg>
