<?xml version="1.0" encoding="UTF-8" standalone="no"?>
<!DOCTYPE svg PUBLIC "-//W3C//DTD SVG 1.1//EN"
 "http://www.w3.org/Graphics/SVG/1.1/DTD/svg11.dtd">
<!-- Generated by graphviz version 2.44.0 (0)
 -->
<!-- Title: process Pages: 1 -->
<svg width="630pt" height="150pt"
 viewBox="0.00 0.00 630.00 150.00" xmlns="http://www.w3.org/2000/svg" xmlns:xlink="http://www.w3.org/1999/xlink">
<g id="graph0" class="graph" transform="scale(1 1) rotate(0) translate(36 114)">
<title>process</title>
<polygon fill="#ffffff" stroke="transparent" points="-36,36 -36,-114 594,-114 594,36 -36,36"/>
<!-- n0 -->
<g id="node1" class="node">
<title>n0</title>
<path fill="#e8f4f8" stroke="black" d="M64,-36C64,-36 12,-36 12,-36 6,-36 0,-30 0,-24 0,-24 0,-12 0,-12 0,-6 6,0 12,0 12,0 64,0 64,0 70,0 76,-6 76,-12 76,-12 76,-24 76,-24 76,-30 70,-36 64,-36"/>
<text text-anchor="middle" x="38" y="-15.2" font-family="Helvetica" font-size="11.00">onStartup</text>
</g>
<!-- n1 -->
<g id="node2" class="node">
<title>n1</title>
<path fill="#e8f4f8" stroke="black" d="M245,-36C245,-36 146,-36 146,-36 140,-36 134,-30 134,-24 134,-24 134,-12 134,-12 134,-6 140,0 146,0 146,0 245,0 245,0 251,0 257,-6 257,-12 257,-12 257,-24 257,-24 257,-30 251,-36 245,-36"/>
<text text-anchor="middle" x="195.5" y="-15.2" font-family="Helvetica" font-size="11.00">LoadProductDetails</text>
</g>
<!-- n0&#45;&gt;n1 -->
<g id="edge1" class="edge">
<title>n0&#45;&gt;n1</title>
<path fill="none" stroke="#555555" d="M76.25,-18C90.53,-18 107.35,-18 123.75,-18"/>
<polygon fill="#555555" stroke="#555555" points="123.88,-21.5 133.88,-18 123.88,-14.5 123.88,-21.5"/>
</g>
<!-- n2 -->
<g id="node3" class="node">
<title>n2</title>
<path fill="#e8f4f8" stroke="black" d="M434,-78C434,-78 327,-78 327,-78 321,-78 315,-72 315,-66 315,-66 315,-54 315,-54 315,-48 321,-42 327,-42 327,-42 434,-42 434,-42 440,-42 446,-48 446,-54 446,-54 446,-66 446,-66 446,-72 440,-78 434,-78"/>
<text text-anchor="middle" x="380.5" y="-57.2" font-family="Helvetica" font-size="11.00">Shutdown BWEngine</text>
</g>
<!-- n1&#45;&gt;n2 -->
<g id="edge3" class="edge">
<title>n1&#45;&gt;n2</title>
<path fill="none" stroke="#555555" d="M257.18,-31.93C272.52,-35.45 289.16,-39.27 305.09,-42.92"/>
<polygon fill="#555555" stroke="#555555" points="304.37,-46.35 314.9,-45.17 305.93,-39.52 304.37,-46.35"/>
</g>
<!-- n3 -->
<g id="node4" class="node">
<title>n3</title>
<path fill="#ffccbc" stroke="black" d="M546,-36C546,-36 516,-36 516,-36 510,-36 504,-30 504,-24 504,-24 504,-12 504,-12 504,-6 510,0 516,0 516,0 546,0 546,0 552,0 558,-6 558,-12 558,-12 558,-24 558,-24 558,-30 552,-36 546,-36"/>
<text text-anchor="middle" x="531" y="-15.2" font-family="Helvetica" font-size="11.00">End</text>
</g>
<!-- n1&#45;&gt;n3 -->
<g id="edge4" class="edge">
<title>n1&#45;&gt;n3</title>
<path fill="none" stroke="#555555" d="M257.28,-18C326.29,-18 436.65,-18 493.51,-18"/>
<polygon fill="#555555" stroke="#555555" points="493.81,-21.5 503.81,-18 493.81,-14.5 493.81,-21.5"/>
</g>
<!-- n2&#45;&gt;n3 -->
<g id="edge2" class="edge">
<title>n2&#45;&gt;n3</title>
<path fill="none" stroke="#555555" d="M445.34,-41.94C462.07,-37.21 479.53,-32.28 494.21,-28.12"/>
<polygon fill="#555555" stroke="#555555" points="495.22,-31.47 503.89,-25.38 493.31,-24.74 495.22,-31.47"/>
</g>
</g>
</svg>
