<?xml version="1.0" encoding="UTF-8" standalone="no"?>
<!DOCTYPE svg PUBLIC "-//W3C//DTD SVG 1.1//EN"
 "http://www.w3.org/Graphics/SVG/1.1/DTD/svg11.dtd">
<!-- Generated by graphviz version 2.44.0 (0)
 -->
<!-- Title: process Pages: 1 -->
<svg width="760pt" height="268pt"
 viewBox="0.00 0.00 760.00 268.00" xmlns="http://www.w3.org/2000/svg" xmlns:xlink="http://www.w3.org/1999/xlink">
<g id="graph0" class="graph" transform="scale(1 1) rotate(0) translate(36 232)">
<title>process</title>
<polygon fill="#ffffff" stroke="transparent" points="-36,36 -36,-232 724,-232 724,36 -36,36"/>
<!-- n0 -->
<g id="node1" class="node">
<title>n0</title>
<path fill="#e8f4f8" stroke="black" d="M564,-115C564,-115 475,-115 475,-115 469,-115 463,-109 463,-103 463,-103 463,-91 463,-91 463,-85 469,-79 475,-79 475,-79 564,-79 564,-79 570,-79 576,-85 576,-91 576,-91 576,-103 576,-103 576,-109 570,-115 564,-115"/>
<text text-anchor="middle" x="519.5" y="-94.2" font-family="Helvetica" font-size="11.00">ValidateResource</text>
</g>
<!-- n1 -->
<g id="node2" class="node">
<title>n1</title>
<path fill="#ffccbc" stroke="black" d="M676,-115C676,-115 646,-115 646,-115 640,-115 634,-109 634,-103 634,-103 634,-91 634,-91 634,-85 640,-79 646,-79 646,-79 676,-79 676,-79 682,-79 688,-85 688,-91 688,-91 688,-103 688,-103 688,-109 682,-115 676,-115"/>
<text text-anchor="middle" x="661" y="-94.2" font-family="Helvetica" font-size="11.00">End</text>
</g>
<!-- n0&#45;&gt;n1 -->
<g id="edge1" class="edge">
<title>n0&#45;&gt;n1</title>
<path fill="none" stroke="#555555" d="M576.03,-97C592.05,-97 609.12,-97 623.65,-97"/>
<polygon fill="#555555" stroke="#555555" points="623.73,-100.5 633.73,-97 623.73,-93.5 623.73,-100.5"/>
</g>
<!-- n2 -->
<g id="node3" class="node">
<title>n2</title>
<path fill="#c8e6c9" stroke="black" d="M42,-154C42,-154 12,-154 12,-154 6,-154 0,-148 0,-142 0,-142 0,-130 0,-130 0,-124 6,-118 12,-118 12,-118 42,-118 42,-118 48,-118 54,-124 54,-130 54,-130 54,-142 54,-142 54,-148 48,-154 42,-154"/>
<text text-anchor="middle" x="27" y="-133.2" font-family="Helvetica" font-size="11.00">Start</text>
</g>
<!-- n3 -->
<g id="node4" class="node">
<title>n3</title>
<path fill="#e8f4f8" stroke="black" d="M240,-154C240,-154 124,-154 124,-154 118,-154 112,-148 112,-142 112,-142 112,-130 112,-130 112,-124 118,-118 124,-118 124,-118 240,-118 240,-118 246,-118 252,-124 252,-130 252,-130 252,-142 252,-142 252,-148 246,-154 240,-154"/>
<text text-anchor="middle" x="182" y="-133.2" font-family="Helvetica" font-size="11.00">RequestRequiresToken</text>
</g>
<!-- n2&#45;&gt;n3 -->
<g id="edge2" class="edge">
<title>n2&#45;&gt;n3</title>
<path fill="none" stroke="#555555" d="M54.3,-136C67.66,-136 84.67,-136 101.86,-136"/>
<polygon fill="#555555" stroke="#555555" points="101.97,-139.5 111.97,-136 101.97,-132.5 101.97,-139.5"/>
</g>
<!-- n4 -->
<g id="node5" class="node">
<title>n4</title>
<path fill="#e8f4f8" stroke="black" d="M392,-196C392,-196 323,-196 323,-196 317,-196 311,-190 311,-184 311,-184 311,-172 311,-172 311,-166 317,-160 323,-160 323,-160 392,-160 392,-160 398,-160 404,-166 404,-172 404,-172 404,-184 404,-184 404,-190 398,-196 392,-196"/>
<text text-anchor="middle" x="357.5" y="-175.2" font-family="Helvetica" font-size="11.00">WriteToLog&#45;1</text>
</g>
<!-- n3&#45;&gt;n4 -->
<g id="edge3" class="edge">
<title>n3&#45;&gt;n4</title>
<path fill="none" stroke="#555555" d="M252.07,-152.72C268.27,-156.64 285.33,-160.77 300.86,-164.53"/>
<polygon fill="#555555" stroke="#555555" points="300.28,-167.99 310.82,-166.94 301.92,-161.19 300.28,-167.99"/>
</g>
<!-- n5 -->
<g id="node6" class="node">
<title>n5</title>
<path fill="#e8f4f8" stroke="black" d="M393,-115C393,-115 322,-115 322,-115 316,-115 310,-109 310,-103 310,-103 310,-91 310,-91 310,-85 316,-79 322,-79 322,-79 393,-79 393,-79 399,-79 405,-85 405,-91 405,-91 405,-103 405,-103 405,-109 399,-115 393,-115"/>
<text text-anchor="middle" x="357.5" y="-94.2" font-family="Helvetica" font-size="11.00">Extract Token</text>
</g>
<!-- n3&#45;&gt;n5 -->
<g id="edge5" class="edge">
<title>n3&#45;&gt;n5</title>
<path fill="none" stroke="#555555" d="M252.07,-120.47C267.96,-116.9 284.68,-113.14 299.97,-109.71"/>
<polygon fill="#555555" stroke="#555555" points="300.79,-113.11 309.78,-107.5 299.26,-106.28 300.79,-113.11"/>
</g>
<!-- n4&#45;&gt;n1 -->
<g id="edge4" class="edge">
<title>n4&#45;&gt;n1</title>
<path fill="none" stroke="#555555" d="M404.34,-172.85C448.96,-167.04 518.28,-155.83 576,-137 592.5,-131.62 609.95,-123.7 624.64,-116.33"/>
<polygon fill="#555555" stroke="#555555" points="626.57,-119.28 633.86,-111.6 623.37,-113.06 626.57,-119.28"/>
</g>
<!-- n5&#45;&gt;n0 -->
<g id="edge6" class="edge">
<title>n5&#45;&gt;n0</title>
<path fill="none" stroke="#555555" d="M405.21,-97C420.04,-97 436.73,-97 452.64,-97"/>
<polygon fill="#555555" stroke="#555555" points="452.96,-100.5 462.96,-97 452.96,-93.5 452.96,-100.5"/>
</g>
<!-- n6 -->
<g id="node7" class="node">
<title>n6</title>
<path fill="#e8f4f8" stroke="black" d="M549,-36C549,-36 490,-36 490,-36 484,-36 478,-30 478,-24 478,-24 478,-12 478,-12 478,-6 484,0 490,0 490,0 549,0 549,0 555,0 561,-6 561,-12 561,-12 561,-24 561,-24 561,-30 555,-36 549,-36"/>
<text text-anchor="middle" x="519.5" y="-15.2" font-family="Helvetica" font-size="11.00">WriteToLog</text>
</g>
<!-- n5&#45;&gt;n6 -->
<g id="edge7" class="edge">
<title>n5&#45;&gt;n6</title>
<path fill="none" stroke="#555555" d="M395.21,-78.88C418.28,-67.48 448.22,-52.7 472.82,-40.55"/>
<polygon fill="#555555" stroke="#555555" points="474.55,-43.61 481.96,-36.04 471.45,-37.33 474.55,-43.61"/>
</g>
<!-- n6&#45;&gt;n1 -->
<g id="edge8" class="edge">
<title>n6&#45;&gt;n1</title>
<path fill="none" stroke="#555555" d="M552.5,-36.12C574.14,-48.38 602.7,-64.55 624.95,-77.15"/>
<polygon fill="#555555" stroke="#555555" points="623.33,-80.25 633.75,-82.14 626.78,-74.16 623.33,-80.25"/>
</g>
</g>
</svg>
