<?xml version="1.0" encoding="UTF-8" standalone="no"?>
<!DOCTYPE svg PUBLIC "-//W3C//DTD SVG 1.1//EN"
 "http://www.w3.org/Graphics/SVG/1.1/DTD/svg11.dtd">
<!-- Generated by graphviz version 2.44.0 (0)
 -->
<!-- Title: process Pages: 1 -->
<svg width="1990pt" height="479pt"
 viewBox="0.00 0.00 1990.00 479.00" xmlns="http://www.w3.org/2000/svg" xmlns:xlink="http://www.w3.org/1999/xlink">
<g id="graph0" class="graph" transform="scale(1 1) rotate(0) translate(36 443)">
<title>process</title>
<polygon fill="#ffffff" stroke="transparent" points="-36,36 -36,-443 1954,-443 1954,36 -36,36"/>
<!-- n0 -->
<g id="node1" class="node">
<title>n0</title>
<path fill="#c8e6c9" stroke="black" d="M84,-76C84,-76 54,-76 54,-76 48,-76 42,-70 42,-64 42,-64 42,-52 42,-52 42,-46 48,-40 54,-40 54,-40 84,-40 84,-40 90,-40 96,-46 96,-52 96,-52 96,-64 96,-64 96,-70 90,-76 84,-76"/>
<text text-anchor="middle" x="69" y="-55.2" font-family="Helvetica" font-size="11.00">start</text>
</g>
<!-- n1 -->
<g id="node2" class="node">
<title>n1</title>
<path fill="#e8f4f8" stroke="black" d="M297.5,-115C297.5,-115 232.5,-115 232.5,-115 226.5,-115 220.5,-109 220.5,-103 220.5,-103 220.5,-91 220.5,-91 220.5,-85 226.5,-79 232.5,-79 232.5,-79 297.5,-79 297.5,-79 303.5,-79 309.5,-85 309.5,-91 309.5,-91 309.5,-103 309.5,-103 309.5,-109 303.5,-115 297.5,-115"/>
<text text-anchor="middle" x="265" y="-94.2" font-family="Helvetica" font-size="11.00">Render XML</text>
</g>
<!-- n0&#45;&gt;n1 -->
<g id="edge1" class="edge">
<title>n0&#45;&gt;n1</title>
<path fill="none" stroke="#555555" d="M96.16,-63.26C125.28,-69.11 173.12,-78.73 210.29,-86.2"/>
<polygon fill="#555555" stroke="#555555" points="209.98,-89.71 220.47,-88.25 211.36,-82.85 209.98,-89.71"/>
</g>
<!-- n4 -->
<g id="node18" class="node">
<title>n4</title>
<path fill="#ffcdd2" stroke="black" d="M311.5,-36C311.5,-36 218.5,-36 218.5,-36 212.5,-36 206.5,-30 206.5,-24 206.5,-24 206.5,-12 206.5,-12 206.5,-6 212.5,0 218.5,0 218.5,0 311.5,0 311.5,0 317.5,0 323.5,-6 323.5,-12 323.5,-12 323.5,-24 323.5,-24 323.5,-30 317.5,-36 311.5,-36"/>
<text text-anchor="middle" x="265" y="-15.2" font-family="Helvetica" font-size="11.00">Render Error XML</text>
</g>
<!-- n0&#45;&gt;n4 -->
<g id="edge4" class="edge">
<title>n0&#45;&gt;n4</title>
<path fill="none" stroke="#555555" d="M96.16,-52.61C121.77,-47.33 161.85,-39.06 196.42,-31.93"/>
<polygon fill="#555555" stroke="#555555" points="197.4,-35.31 206.48,-29.86 195.98,-28.45 197.4,-35.31"/>
</g>
<!-- n2 -->
<g id="node13" class="node">
<title>n2</title>
<path fill="#e8f4f8" stroke="black" d="M488,-115C488,-115 409,-115 409,-115 403,-115 397,-109 397,-103 397,-103 397,-91 397,-91 397,-85 403,-79 409,-79 409,-79 488,-79 488,-79 494,-79 500,-85 500,-91 500,-91 500,-103 500,-103 500,-109 494,-115 488,-115"/>
<text text-anchor="middle" x="448.5" y="-94.2" font-family="Helvetica" font-size="11.00">OperationReply</text>
</g>
<!-- n1&#45;&gt;n2 -->
<g id="edge3" class="edge">
<title>n1&#45;&gt;n2</title>
<path fill="none" stroke="#555555" d="M309.94,-97C332.99,-97 361.59,-97 386.73,-97"/>
<polygon fill="#555555" stroke="#555555" points="386.9,-100.5 396.9,-97 386.9,-93.5 386.9,-100.5"/>
</g>
<!-- n10 -->
<g id="node3" class="node">
<title>n10</title>
<path fill="#e8f4f8" stroke="black" d="M633,-285C633,-285 575,-285 575,-285 569,-285 563,-279 563,-273 563,-273 563,-261 563,-261 563,-255 569,-249 575,-249 575,-249 633,-249 633,-249 639,-249 645,-255 645,-261 645,-261 645,-273 645,-273 645,-279 639,-285 633,-285"/>
<text text-anchor="middle" x="604" y="-264.2" font-family="Helvetica" font-size="11.00">Parse XML</text>
</g>
<!-- n15 -->
<g id="node8" class="node">
<title>n15</title>
<path fill="#e8f4f8" stroke="black" d="M837,-285C837,-285 715,-285 715,-285 709,-285 703,-279 703,-273 703,-273 703,-261 703,-261 703,-255 709,-249 715,-249 715,-249 837,-249 837,-249 843,-249 849,-255 849,-261 849,-261 849,-273 849,-273 849,-279 843,-285 837,-285"/>
<text text-anchor="middle" x="776" y="-264.2" font-family="Helvetica" font-size="11.00">Comp Invocation Details</text>
</g>
<!-- n10&#45;&gt;n15 -->
<g id="edge14" class="edge">
<title>n10&#45;&gt;n15</title>
<path fill="none" stroke="#555555" d="M645.29,-267C659.52,-267 676.08,-267 692.52,-267"/>
<polygon fill="#555555" stroke="#555555" points="692.72,-270.5 702.72,-267 692.72,-263.5 692.72,-270.5"/>
</g>
<!-- n6 -->
<g id="node20" class="node">
<title>n6</title>
<path fill="#e8f4f8" stroke="black" d="M791,-198C791,-198 761,-198 761,-198 755,-198 749,-192 749,-186 749,-186 749,-174 749,-174 749,-168 755,-162 761,-162 761,-162 791,-162 791,-162 797,-162 803,-168 803,-174 803,-174 803,-186 803,-186 803,-192 797,-198 791,-198"/>
<text text-anchor="middle" x="776" y="-177.2" font-family="Helvetica" font-size="11.00">Null</text>
</g>
<!-- n10&#45;&gt;n6 -->
<g id="edge15" class="edge">
<title>n10&#45;&gt;n6</title>
<path fill="none" stroke="#555555" d="M640.22,-248.97C669.45,-234.02 710.79,-212.86 739.96,-197.93"/>
<polygon fill="#555555" stroke="#555555" points="741.67,-200.99 748.97,-193.32 738.48,-194.76 741.67,-200.99"/>
</g>
<!-- n11 -->
<g id="node4" class="node">
<title>n11</title>
<path fill="#ffcdd2" stroke="black" d="M1525,-245C1525,-245 1373,-245 1373,-245 1367,-245 1361,-239 1361,-233 1361,-233 1361,-221 1361,-221 1361,-215 1367,-209 1373,-209 1373,-209 1525,-209 1525,-209 1531,-209 1537,-215 1537,-221 1537,-221 1537,-233 1537,-233 1537,-239 1531,-245 1525,-245"/>
<text text-anchor="middle" x="1449" y="-224.2" font-family="Helvetica" font-size="11.00">Call Service Exception Handler</text>
</g>
<!-- n12 -->
<g id="node5" class="node">
<title>n12</title>
<path fill="#e8f4f8" stroke="black" d="M1653,-158C1653,-158 1620,-158 1620,-158 1614,-158 1608,-152 1608,-146 1608,-146 1608,-134 1608,-134 1608,-128 1614,-122 1620,-122 1620,-122 1653,-122 1653,-122 1659,-122 1665,-128 1665,-134 1665,-134 1665,-146 1665,-146 1665,-152 1659,-158 1653,-158"/>
<text text-anchor="middle" x="1636.5" y="-137.2" font-family="Helvetica" font-size="11.00">Null&#45;1</text>
</g>
<!-- n11&#45;&gt;n12 -->
<g id="edge11" class="edge">
<title>n11&#45;&gt;n12</title>
<path fill="none" stroke="#555555" d="M1488.44,-208.97C1520.75,-193.82 1566.64,-172.29 1598.54,-157.34"/>
<polygon fill="#555555" stroke="#555555" points="1600.39,-160.33 1607.95,-152.92 1597.41,-154 1600.39,-160.33"/>
</g>
<!-- n17 -->
<g id="node10" class="node">
<title>n17</title>
<path fill="#ffccbc" stroke="black" d="M1666,-324C1666,-324 1607,-324 1607,-324 1601,-324 1595,-318 1595,-312 1595,-312 1595,-300 1595,-300 1595,-294 1601,-288 1607,-288 1607,-288 1666,-288 1666,-288 1672,-288 1678,-294 1678,-300 1678,-300 1678,-312 1678,-312 1678,-318 1672,-324 1666,-324"/>
<text text-anchor="middle" x="1636.5" y="-303.2" font-family="Helvetica" font-size="11.00">Reply Error</text>
</g>
<!-- n11&#45;&gt;n17 -->
<g id="edge17" class="edge">
<title>n11&#45;&gt;n17</title>
<path fill="none" stroke="#555555" d="M1492.56,-245.12C1520.14,-256.87 1556.19,-272.23 1585.19,-284.57"/>
<polygon fill="#555555" stroke="#555555" points="1584.16,-287.94 1594.73,-288.64 1586.9,-281.5 1584.16,-287.94"/>
</g>
<!-- n13 -->
<g id="node6" class="node">
<title>n13</title>
<path fill="#e8f4f8" stroke="black" d="M1794,-241C1794,-241 1748,-241 1748,-241 1742,-241 1736,-235 1736,-229 1736,-229 1736,-217 1736,-217 1736,-211 1742,-205 1748,-205 1748,-205 1794,-205 1794,-205 1800,-205 1806,-211 1806,-217 1806,-217 1806,-229 1806,-229 1806,-235 1800,-241 1794,-241"/>
<text text-anchor="middle" x="1771" y="-220.2" font-family="Helvetica" font-size="11.00">LogFatal</text>
</g>
<!-- n12&#45;&gt;n13 -->
<g id="edge12" class="edge">
<title>n12&#45;&gt;n13</title>
<path fill="none" stroke="#555555" d="M1665.28,-157.4C1684.75,-169.6 1711.01,-186.05 1732.37,-199.43"/>
<polygon fill="#555555" stroke="#555555" points="1730.55,-202.42 1740.88,-204.76 1734.27,-196.49 1730.55,-202.42"/>
</g>
<!-- n18 -->
<g id="node11" class="node">
<title>n18</title>
<path fill="#ffccbc" stroke="black" d="M1906,-324C1906,-324 1876,-324 1876,-324 1870,-324 1864,-318 1864,-312 1864,-312 1864,-300 1864,-300 1864,-294 1870,-288 1876,-288 1876,-288 1906,-288 1906,-288 1912,-288 1918,-294 1918,-300 1918,-300 1918,-312 1918,-312 1918,-318 1912,-324 1906,-324"/>
<text text-anchor="middle" x="1891" y="-303.2" font-family="Helvetica" font-size="11.00">End</text>
</g>
<!-- n13&#45;&gt;n18 -->
<g id="edge25" class="edge">
<title>n13&#45;&gt;n18</title>
<path fill="none" stroke="#555555" d="M1797.6,-241.01C1814.65,-253 1837.24,-268.89 1855.82,-281.96"/>
<polygon fill="#555555" stroke="#555555" points="1853.85,-284.85 1864.04,-287.74 1857.87,-279.12 1853.85,-284.85"/>
</g>
<!-- n14 -->
<g id="node7" class="node">
<title>n14</title>
<path fill="#e8f4f8" stroke="black" d="M472,-368C472,-368 425,-368 425,-368 419,-368 413,-362 413,-356 413,-356 413,-344 413,-344 413,-338 419,-332 425,-332 425,-332 472,-332 472,-332 478,-332 484,-338 484,-344 484,-344 484,-356 484,-356 484,-362 478,-368 472,-368"/>
<text text-anchor="middle" x="448.5" y="-347.2" font-family="Helvetica" font-size="11.00">LogError</text>
</g>
<!-- n14&#45;&gt;n10 -->
<g id="edge26" class="edge">
<title>n14&#45;&gt;n10</title>
<path fill="none" stroke="#555555" d="M482.81,-331.99C505.56,-319.69 535.91,-303.28 560.41,-290.03"/>
<polygon fill="#555555" stroke="#555555" points="562.36,-292.95 569.49,-285.12 559.03,-286.8 562.36,-292.95"/>
</g>
<!-- n19 -->
<g id="node12" class="node">
<title>n19</title>
<path fill="#e8f4f8" stroke="black" d="M965,-285C965,-285 919,-285 919,-285 913,-285 907,-279 907,-273 907,-273 907,-261 907,-261 907,-255 913,-249 919,-249 919,-249 965,-249 965,-249 971,-249 977,-255 977,-261 977,-261 977,-273 977,-273 977,-279 971,-285 965,-285"/>
<text text-anchor="middle" x="942" y="-264.2" font-family="Helvetica" font-size="11.00">LogStart</text>
</g>
<!-- n15&#45;&gt;n19 -->
<g id="edge29" class="edge">
<title>n15&#45;&gt;n19</title>
<path fill="none" stroke="#555555" d="M849.41,-267C865.43,-267 881.94,-267 896.46,-267"/>
<polygon fill="#555555" stroke="#555555" points="896.65,-270.5 906.65,-267 896.65,-263.5 896.65,-270.5"/>
</g>
<!-- n16 -->
<g id="node9" class="node">
<title>n16</title>
<path fill="#e8f4f8" stroke="black" d="M1177,-285C1177,-285 1047,-285 1047,-285 1041,-285 1035,-279 1035,-273 1035,-273 1035,-261 1035,-261 1035,-255 1041,-249 1047,-249 1047,-249 1177,-249 1177,-249 1183,-249 1189,-255 1189,-261 1189,-261 1189,-273 1189,-273 1189,-279 1183,-285 1177,-285"/>
<text text-anchor="middle" x="1112" y="-264.2" font-family="Helvetica" font-size="11.00">Call Service Main Process</text>
</g>
<!-- n16&#45;&gt;n11 -->
<g id="edge16" class="edge">
<title>n16&#45;&gt;n11</title>
<path fill="none" stroke="#555555" d="M1189.02,-257.92C1236.89,-252.21 1299.13,-244.77 1350.61,-238.63"/>
<polygon fill="#555555" stroke="#555555" points="1351.24,-242.08 1360.75,-237.42 1350.41,-235.13 1351.24,-242.08"/>
</g>
<!-- n21 -->
<g id="node15" class="node">
<title>n21</title>
<path fill="#ffccbc" stroke="black" d="M1291,-368C1291,-368 1259,-368 1259,-368 1253,-368 1247,-362 1247,-356 1247,-356 1247,-344 1247,-344 1247,-338 1253,-332 1259,-332 1259,-332 1291,-332 1291,-332 1297,-332 1303,-338 1303,-344 1303,-344 1303,-356 1303,-356 1303,-362 1297,-368 1291,-368"/>
<text text-anchor="middle" x="1275" y="-347.2" font-family="Helvetica" font-size="11.00">Reply</text>
</g>
<!-- n16&#45;&gt;n21 -->
<g id="edge22" class="edge">
<title>n16&#45;&gt;n21</title>
<path fill="none" stroke="#555555" d="M1147.93,-285.01C1174.49,-298.7 1210.91,-317.48 1237.78,-331.33"/>
<polygon fill="#555555" stroke="#555555" points="1236.36,-334.53 1246.85,-336 1239.57,-328.31 1236.36,-334.53"/>
</g>
<!-- n17&#45;&gt;n13 -->
<g id="edge19" class="edge">
<title>n17&#45;&gt;n13</title>
<path fill="none" stroke="#555555" d="M1666.25,-287.99C1685.56,-275.89 1711.22,-259.82 1732.18,-246.69"/>
<polygon fill="#555555" stroke="#555555" points="1734.23,-249.54 1740.85,-241.26 1730.52,-243.6 1734.23,-249.54"/>
</g>
<!-- n17&#45;&gt;n18 -->
<g id="edge18" class="edge">
<title>n17&#45;&gt;n18</title>
<path fill="none" stroke="#555555" d="M1678.07,-306C1726.57,-306 1807.01,-306 1853.59,-306"/>
<polygon fill="#555555" stroke="#555555" points="1853.83,-309.5 1863.83,-306 1853.83,-302.5 1853.83,-309.5"/>
</g>
<!-- n20 -->
<g id="node14" class="node">
<title>n20</title>
<path fill="#e8f4f8" stroke="black" d="M1792,-407C1792,-407 1750,-407 1750,-407 1744,-407 1738,-401 1738,-395 1738,-395 1738,-383 1738,-383 1738,-377 1744,-371 1750,-371 1750,-371 1792,-371 1792,-371 1798,-371 1804,-377 1804,-383 1804,-383 1804,-395 1804,-395 1804,-401 1798,-407 1792,-407"/>
<text text-anchor="middle" x="1771" y="-386.2" font-family="Helvetica" font-size="11.00">LogEnd</text>
</g>
<!-- n17&#45;&gt;n20 -->
<g id="edge31" class="edge">
<title>n17&#45;&gt;n20</title>
<path fill="none" stroke="#555555" d="M1666.25,-324.01C1685.56,-336.11 1711.22,-352.18 1732.18,-365.31"/>
<polygon fill="#555555" stroke="#555555" points="1730.52,-368.4 1740.85,-370.74 1734.23,-362.46 1730.52,-368.4"/>
</g>
<!-- n19&#45;&gt;n16 -->
<g id="edge20" class="edge">
<title>n19&#45;&gt;n16</title>
<path fill="none" stroke="#555555" d="M977.4,-267C991.16,-267 1007.67,-267 1024.33,-267"/>
<polygon fill="#555555" stroke="#555555" points="1024.7,-270.5 1034.7,-267 1024.7,-263.5 1024.7,-270.5"/>
</g>
<!-- n3 -->
<g id="node17" class="node">
<title>n3</title>
<path fill="#ffccbc" stroke="black" d="M619,-75C619,-75 589,-75 589,-75 583,-75 577,-69 577,-63 577,-63 577,-51 577,-51 577,-45 583,-39 589,-39 589,-39 619,-39 619,-39 625,-39 631,-45 631,-51 631,-51 631,-63 631,-63 631,-69 625,-75 619,-75"/>
<text text-anchor="middle" x="604" y="-54.2" font-family="Helvetica" font-size="11.00">end</text>
</g>
<!-- n2&#45;&gt;n3 -->
<g id="edge2" class="edge">
<title>n2&#45;&gt;n3</title>
<path fill="none" stroke="#555555" d="M500.19,-83.79C522.05,-78.09 547.11,-71.56 567.02,-66.38"/>
<polygon fill="#555555" stroke="#555555" points="568.12,-69.71 576.92,-63.8 566.36,-62.93 568.12,-69.71"/>
</g>
<!-- n20&#45;&gt;n18 -->
<g id="edge21" class="edge">
<title>n20&#45;&gt;n18</title>
<path fill="none" stroke="#555555" d="M1797.6,-370.99C1814.65,-359 1837.24,-343.11 1855.82,-330.04"/>
<polygon fill="#555555" stroke="#555555" points="1857.87,-332.88 1864.04,-324.26 1853.85,-327.15 1857.87,-332.88"/>
</g>
<!-- n21&#45;&gt;n20 -->
<g id="edge23" class="edge">
<title>n21&#45;&gt;n20</title>
<path fill="none" stroke="#555555" d="M1303.26,-352.15C1385.03,-358.61 1628.66,-377.84 1727.57,-385.65"/>
<polygon fill="#555555" stroke="#555555" points="1727.54,-389.16 1737.79,-386.46 1728.09,-382.18 1727.54,-389.16"/>
</g>
<!-- n22 -->
<g id="node16" class="node">
<title>n22</title>
<path fill="#ffcdd2" stroke="black" d="M1525,-324C1525,-324 1373,-324 1373,-324 1367,-324 1361,-318 1361,-312 1361,-312 1361,-300 1361,-300 1361,-294 1367,-288 1373,-288 1373,-288 1525,-288 1525,-288 1531,-288 1537,-294 1537,-300 1537,-300 1537,-312 1537,-312 1537,-318 1531,-324 1525,-324"/>
<text text-anchor="middle" x="1449" y="-303.2" font-family="Helvetica" font-size="11.00">Call System Exception Handler</text>
</g>
<!-- n21&#45;&gt;n22 -->
<g id="edge24" class="edge">
<title>n21&#45;&gt;n22</title>
<path fill="none" stroke="#555555" d="M1303.25,-343.03C1320.74,-338.55 1344.44,-332.49 1367.59,-326.57"/>
<polygon fill="#555555" stroke="#555555" points="1368.64,-329.91 1377.46,-324.04 1366.91,-323.13 1368.64,-329.91"/>
</g>
<!-- n22&#45;&gt;n13 -->
<g id="edge28" class="edge">
<title>n22&#45;&gt;n13</title>
<path fill="none" stroke="#555555" d="M1516.35,-287.91C1541.02,-281.25 1569.27,-273.7 1595,-267 1639.43,-255.44 1690.33,-242.7 1725.74,-233.91"/>
<polygon fill="#555555" stroke="#555555" points="1726.89,-237.24 1735.75,-231.43 1725.21,-230.44 1726.89,-237.24"/>
</g>
<!-- n22&#45;&gt;n17 -->
<g id="edge27" class="edge">
<title>n22&#45;&gt;n17</title>
<path fill="none" stroke="#555555" d="M1537.05,-306C1553.26,-306 1569.7,-306 1584.39,-306"/>
<polygon fill="#555555" stroke="#555555" points="1584.74,-309.5 1594.74,-306 1584.74,-302.5 1584.74,-309.5"/>
</g>
<!-- n5 -->
<g id="node19" class="node">
<title>n5</title>
<path fill="#e8f4f8" stroke="black" d="M493,-36C493,-36 404,-36 404,-36 398,-36 392,-30 392,-24 392,-24 392,-12 392,-12 392,-6 398,0 404,0 404,0 493,0 493,0 499,0 505,-6 505,-12 505,-12 505,-24 505,-24 505,-30 499,-36 493,-36"/>
<text text-anchor="middle" x="448.5" y="-15.2" font-family="Helvetica" font-size="11.00">OperationReply&#45;1</text>
</g>
<!-- n4&#45;&gt;n5 -->
<g id="edge6" class="edge">
<title>n4&#45;&gt;n5</title>
<path fill="none" stroke="#555555" d="M323.68,-18C342.15,-18 362.75,-18 381.76,-18"/>
<polygon fill="#555555" stroke="#555555" points="381.83,-21.5 391.83,-18 381.83,-14.5 381.83,-21.5"/>
</g>
<!-- n5&#45;&gt;n3 -->
<g id="edge5" class="edge">
<title>n5&#45;&gt;n3</title>
<path fill="none" stroke="#555555" d="M505.35,-32.19C525.89,-37.41 548.6,-43.18 566.94,-47.84"/>
<polygon fill="#555555" stroke="#555555" points="566.08,-51.23 576.64,-50.3 567.81,-44.45 566.08,-51.23"/>
</g>
<!-- n7 -->
<g id="node21" class="node">
<title>n7</title>
<path fill="#e8f4f8" stroke="black" d="M1155,-198C1155,-198 1069,-198 1069,-198 1063,-198 1057,-192 1057,-186 1057,-186 1057,-174 1057,-174 1057,-168 1063,-162 1069,-162 1069,-162 1155,-162 1155,-162 1161,-162 1167,-168 1167,-174 1167,-174 1167,-186 1167,-186 1167,-192 1161,-198 1155,-198"/>
<text text-anchor="middle" x="1112" y="-177.2" font-family="Helvetica" font-size="11.00">InvocationDetails</text>
</g>
<!-- n6&#45;&gt;n7 -->
<g id="edge7" class="edge">
<title>n6&#45;&gt;n7</title>
<path fill="none" stroke="#555555" d="M803.21,-180C855.2,-180 972.74,-180 1046.59,-180"/>
<polygon fill="#555555" stroke="#555555" points="1046.71,-183.5 1056.71,-180 1046.71,-176.5 1046.71,-183.5"/>
</g>
<!-- n7&#45;&gt;n22 -->
<g id="edge30" class="edge">
<title>n7&#45;&gt;n22</title>
<path fill="none" stroke="#555555" d="M1161,-198.05C1221.57,-220.84 1325.65,-259.98 1390.44,-284.35"/>
<polygon fill="#555555" stroke="#555555" points="1389.5,-287.74 1400.09,-287.98 1391.96,-281.18 1389.5,-287.74"/>
</g>
<!-- n8 -->
<g id="node22" class="node">
<title>n8</title>
<path fill="#c8e6c9" stroke="black" d="M126,-241C126,-241 12,-241 12,-241 6,-241 0,-235 0,-229 0,-229 0,-217 0,-217 0,-211 6,-205 12,-205 12,-205 126,-205 126,-205 132,-205 138,-211 138,-217 138,-217 138,-229 138,-229 138,-235 132,-241 126,-241"/>
<text text-anchor="middle" x="69" y="-220.2" font-family="Helvetica" font-size="11.00">Receive JMS Message</text>
</g>
<!-- n8&#45;&gt;n6 -->
<g id="edge8" class="edge">
<title>n8&#45;&gt;n6</title>
<path fill="none" stroke="#555555" d="M138.24,-218.84C285.03,-209.88 626.57,-189.05 738.65,-182.22"/>
<polygon fill="#555555" stroke="#555555" points="739,-185.7 748.77,-181.6 738.57,-178.72 739,-185.7"/>
</g>
<!-- n9 -->
<g id="node23" class="node">
<title>n9</title>
<path fill="#e8f4f8" stroke="black" d="M322,-285C322,-285 208,-285 208,-285 202,-285 196,-279 196,-273 196,-273 196,-261 196,-261 196,-255 202,-249 208,-249 208,-249 322,-249 322,-249 328,-249 334,-255 334,-261 334,-261 334,-273 334,-273 334,-279 328,-285 322,-285"/>
<text text-anchor="middle" x="265" y="-264.2" font-family="Helvetica" font-size="11.00">Confirm JMS Message</text>
</g>
<!-- n8&#45;&gt;n9 -->
<g id="edge10" class="edge">
<title>n8&#45;&gt;n9</title>
<path fill="none" stroke="#555555" d="M138.12,-238.45C153.58,-241.96 170.12,-245.71 185.96,-249.3"/>
<polygon fill="#555555" stroke="#555555" points="185.19,-252.71 195.71,-251.51 186.73,-245.89 185.19,-252.71"/>
</g>
<!-- n9&#45;&gt;n10 -->
<g id="edge9" class="edge">
<title>n9&#45;&gt;n10</title>
<path fill="none" stroke="#555555" d="M334.2,-267C398.97,-267 494.83,-267 552.86,-267"/>
<polygon fill="#555555" stroke="#555555" points="552.89,-270.5 562.89,-267 552.89,-263.5 552.89,-270.5"/>
</g>
<!-- n9&#45;&gt;n14 -->
<g id="edge13" class="edge">
<title>n9&#45;&gt;n14</title>
<path fill="none" stroke="#555555" d="M305.38,-285.01C334.26,-298.22 373.5,-316.16 403.42,-329.84"/>
<polygon fill="#555555" stroke="#555555" points="402.24,-333.15 412.79,-334.13 405.15,-326.78 402.24,-333.15"/>
</g>
</g>
</svg>
