<?xml version="1.0" encoding="UTF-8" standalone="no"?>
<!DOCTYPE svg PUBLIC "-//W3C//DTD SVG 1.1//EN"
 "http://www.w3.org/Graphics/SVG/1.1/DTD/svg11.dtd">
<!-- Generated by graphviz version 2.44.0 (0)
 -->
<!-- Title: process Pages: 1 -->
<svg width="827pt" height="187pt"
 viewBox="0.00 0.00 827.00 187.00" xmlns="http://www.w3.org/2000/svg" xmlns:xlink="http://www.w3.org/1999/xlink">
<g id="graph0" class="graph" transform="scale(1 1) rotate(0) translate(36 151)">
<title>process</title>
<polygon fill="#ffffff" stroke="transparent" points="-36,36 -36,-151 791,-151 791,36 -36,36"/>
<!-- n0 -->
<g id="node1" class="node">
<title>n0</title>
<path fill="#e8f4f8" stroke="black" d="M64,-75C64,-75 12,-75 12,-75 6,-75 0,-69 0,-63 0,-63 0,-51 0,-51 0,-45 6,-39 12,-39 12,-39 64,-39 64,-39 70,-39 76,-45 76,-51 76,-51 76,-63 76,-63 76,-69 70,-75 64,-75"/>
<text text-anchor="middle" x="38" y="-54.2" font-family="Helvetica" font-size="11.00">onStartup</text>
</g>
<!-- n1 -->
<g id="node2" class="node">
<title>n1</title>
<path fill="#c8e6c9" stroke="black" d="M223,-75C223,-75 146,-75 146,-75 140,-75 134,-69 134,-63 134,-63 134,-51 134,-51 134,-45 140,-39 146,-39 146,-39 223,-39 223,-39 229,-39 235,-45 235,-51 235,-51 235,-63 235,-63 235,-69 229,-75 223,-75"/>
<text text-anchor="middle" x="184.5" y="-54.2" font-family="Helvetica" font-size="11.00">Start Log Audit</text>
</g>
<!-- n0&#45;&gt;n1 -->
<g id="edge1" class="edge">
<title>n0&#45;&gt;n1</title>
<path fill="none" stroke="#555555" d="M76.21,-57C90.62,-57 107.47,-57 123.5,-57"/>
<polygon fill="#555555" stroke="#555555" points="123.88,-60.5 133.88,-57 123.88,-53.5 123.88,-60.5"/>
</g>
<!-- n5 -->
<g id="node6" class="node">
<title>n5</title>
<path fill="#e8f4f8" stroke="black" d="M442,-75C442,-75 305,-75 305,-75 299,-75 293,-69 293,-63 293,-63 293,-51 293,-51 293,-45 299,-39 305,-39 305,-39 442,-39 442,-39 448,-39 454,-45 454,-51 454,-51 454,-63 454,-63 454,-69 448,-75 442,-75"/>
<text text-anchor="middle" x="373.5" y="-54.2" font-family="Helvetica" font-size="11.00">LoadAllSurepayErrorCodes</text>
</g>
<!-- n1&#45;&gt;n5 -->
<g id="edge4" class="edge">
<title>n1&#45;&gt;n5</title>
<path fill="none" stroke="#555555" d="M235.12,-57C249.82,-57 266.38,-57 282.79,-57"/>
<polygon fill="#555555" stroke="#555555" points="282.97,-60.5 292.97,-57 282.97,-53.5 282.97,-60.5"/>
</g>
<!-- n2 -->
<g id="node3" class="node">
<title>n2</title>
<path fill="#e8f4f8" stroke="black" d="M631,-115C631,-115 524,-115 524,-115 518,-115 512,-109 512,-103 512,-103 512,-91 512,-91 512,-85 518,-79 524,-79 524,-79 631,-79 631,-79 637,-79 643,-85 643,-91 643,-91 643,-103 643,-103 643,-109 637,-115 631,-115"/>
<text text-anchor="middle" x="577.5" y="-94.2" font-family="Helvetica" font-size="11.00">Shutdown BWEngine</text>
</g>
<!-- n3 -->
<g id="node4" class="node">
<title>n3</title>
<path fill="#ffccbc" stroke="black" d="M743,-75C743,-75 713,-75 713,-75 707,-75 701,-69 701,-63 701,-63 701,-51 701,-51 701,-45 707,-39 713,-39 713,-39 743,-39 743,-39 749,-39 755,-45 755,-51 755,-51 755,-63 755,-63 755,-69 749,-75 743,-75"/>
<text text-anchor="middle" x="728" y="-54.2" font-family="Helvetica" font-size="11.00">End</text>
</g>
<!-- n2&#45;&gt;n3 -->
<g id="edge2" class="edge">
<title>n2&#45;&gt;n3</title>
<path fill="none" stroke="#555555" d="M643.2,-79.57C659.55,-75.17 676.54,-70.59 690.9,-66.72"/>
<polygon fill="#555555" stroke="#555555" points="692.11,-70.02 700.85,-64.04 690.29,-63.26 692.11,-70.02"/>
</g>
<!-- n4 -->
<g id="node5" class="node">
<title>n4</title>
<path fill="#ffccbc" stroke="black" d="M614,-36C614,-36 541,-36 541,-36 535,-36 529,-30 529,-24 529,-24 529,-12 529,-12 529,-6 535,0 541,0 541,0 614,0 614,0 620,0 626,-6 626,-12 626,-12 626,-24 626,-24 626,-30 620,-36 614,-36"/>
<text text-anchor="middle" x="577.5" y="-15.2" font-family="Helvetica" font-size="11.00">End Audit Log</text>
</g>
<!-- n4&#45;&gt;n3 -->
<g id="edge3" class="edge">
<title>n4&#45;&gt;n3</title>
<path fill="none" stroke="#555555" d="M626.3,-30.55C647.39,-36.09 671.74,-42.49 691.22,-47.6"/>
<polygon fill="#555555" stroke="#555555" points="690.35,-50.99 700.92,-50.15 692.13,-44.22 690.35,-50.99"/>
</g>
<!-- n5&#45;&gt;n2 -->
<g id="edge6" class="edge">
<title>n5&#45;&gt;n2</title>
<path fill="none" stroke="#555555" d="M454.05,-72.75C469.8,-75.87 486.29,-79.14 501.88,-82.22"/>
<polygon fill="#555555" stroke="#555555" points="501.49,-85.71 511.98,-84.22 502.85,-78.85 501.49,-85.71"/>
</g>
<!-- n5&#45;&gt;n4 -->
<g id="edge5" class="edge">
<title>n5&#45;&gt;n4</title>
<path fill="none" stroke="#555555" d="M454.05,-41.64C475.67,-37.47 498.68,-33.02 518.84,-29.13"/>
<polygon fill="#555555" stroke="#555555" points="519.64,-32.54 528.8,-27.21 518.31,-25.67 519.64,-32.54"/>
</g>
</g>
</svg>
