<?xml version="1.0" encoding="UTF-8" standalone="no"?>
<!DOCTYPE svg PUBLIC "-//W3C//DTD SVG 1.1//EN"
 "http://www.w3.org/Graphics/SVG/1.1/DTD/svg11.dtd">
<!-- Generated by graphviz version 2.44.0 (0)
 -->
<!-- Title: process Pages: 1 -->
<svg width="392pt" height="108pt"
 viewBox="0.00 0.00 392.00 108.00" xmlns="http://www.w3.org/2000/svg" xmlns:xlink="http://www.w3.org/1999/xlink">
<g id="graph0" class="graph" transform="scale(1 1) rotate(0) translate(36 72)">
<title>process</title>
<polygon fill="#ffffff" stroke="transparent" points="-36,36 -36,-72 356,-72 356,36 -36,36"/>
<!-- n0 -->
<g id="node1" class="node">
<title>n0</title>
<path fill="#c8e6c9" stroke="black" d="M42,-36C42,-36 12,-36 12,-36 6,-36 0,-30 0,-24 0,-24 0,-12 0,-12 0,-6 6,0 12,0 12,0 42,0 42,0 48,0 54,-6 54,-12 54,-12 54,-24 54,-24 54,-30 48,-36 42,-36"/>
<text text-anchor="middle" x="27" y="-15.2" font-family="Helvetica" font-size="11.00">Start</text>
</g>
<!-- n1 -->
<g id="node2" class="node">
<title>n1</title>
<path fill="#e8f4f8" stroke="black" d="M196,-36C196,-36 124,-36 124,-36 118,-36 112,-30 112,-24 112,-24 112,-12 112,-12 112,-6 118,0 124,0 124,0 196,0 196,0 202,0 208,-6 208,-12 208,-12 208,-24 208,-24 208,-30 202,-36 196,-36"/>
<text text-anchor="middle" x="160" y="-15.2" font-family="Helvetica" font-size="11.00">Render JSON</text>
</g>
<!-- n0&#45;&gt;n1 -->
<g id="edge1" class="edge">
<title>n0&#45;&gt;n1</title>
<path fill="none" stroke="#555555" d="M54.19,-18C67.86,-18 85.15,-18 101.72,-18"/>
<polygon fill="#555555" stroke="#555555" points="101.91,-21.5 111.91,-18 101.91,-14.5 101.91,-21.5"/>
</g>
<!-- n2 -->
<g id="node3" class="node">
<title>n2</title>
<path fill="#ffccbc" stroke="black" d="M308,-36C308,-36 278,-36 278,-36 272,-36 266,-30 266,-24 266,-24 266,-12 266,-12 266,-6 272,0 278,0 278,0 308,0 308,0 314,0 320,-6 320,-12 320,-12 320,-24 320,-24 320,-30 314,-36 308,-36"/>
<text text-anchor="middle" x="293" y="-15.2" font-family="Helvetica" font-size="11.00">End</text>
</g>
<!-- n1&#45;&gt;n2 -->
<g id="edge2" class="edge">
<title>n1&#45;&gt;n2</title>
<path fill="none" stroke="#555555" d="M208.29,-18C223.86,-18 240.92,-18 255.56,-18"/>
<polygon fill="#555555" stroke="#555555" points="255.73,-21.5 265.73,-18 255.73,-14.5 255.73,-21.5"/>
</g>
</g>
</svg>
