<?xml version="1.0" encoding="UTF-8" standalone="no"?>
<!DOCTYPE svg PUBLIC "-//W3C//DTD SVG 1.1//EN"
 "http://www.w3.org/Graphics/SVG/1.1/DTD/svg11.dtd">
<!-- Generated by graphviz version 2.44.0 (0)
 -->
<!-- Title: process Pages: 1 -->
<svg width="713pt" height="226pt"
 viewBox="0.00 0.00 713.00 226.00" xmlns="http://www.w3.org/2000/svg" xmlns:xlink="http://www.w3.org/1999/xlink">
<g id="graph0" class="graph" transform="scale(1 1) rotate(0) translate(36 190)">
<title>process</title>
<polygon fill="#ffffff" stroke="transparent" points="-36,36 -36,-190 677,-190 677,36 -36,36"/>
<!-- n0 -->
<g id="node1" class="node">
<title>n0</title>
<path fill="#e8f4f8" stroke="black" d="M154,-75C154,-75 124,-75 124,-75 118,-75 112,-69 112,-63 112,-63 112,-51 112,-51 112,-45 118,-39 124,-39 124,-39 154,-39 154,-39 160,-39 166,-45 166,-51 166,-51 166,-63 166,-63 166,-69 160,-75 154,-75"/>
<text text-anchor="middle" x="139" y="-54.2" font-family="Helvetica" font-size="11.00">Null</text>
</g>
<!-- n1 -->
<g id="node2" class="node">
<title>n1</title>
<path fill="#e8f4f8" stroke="black" d="M300,-115C300,-115 267,-115 267,-115 261,-115 255,-109 255,-103 255,-103 255,-91 255,-91 255,-85 261,-79 267,-79 267,-79 300,-79 300,-79 306,-79 312,-85 312,-91 312,-91 312,-103 312,-103 312,-109 306,-115 300,-115"/>
<text text-anchor="middle" x="283.5" y="-94.2" font-family="Helvetica" font-size="11.00">Null&#45;2</text>
</g>
<!-- n0&#45;&gt;n1 -->
<g id="edge1" class="edge">
<title>n0&#45;&gt;n1</title>
<path fill="none" stroke="#555555" d="M166.14,-64.34C188.17,-70.52 219.98,-79.45 244.78,-86.41"/>
<polygon fill="#555555" stroke="#555555" points="244.01,-89.83 254.58,-89.16 245.9,-83.09 244.01,-89.83"/>
</g>
<!-- n2 -->
<g id="node3" class="node">
<title>n2</title>
<path fill="#e8f4f8" stroke="black" d="M331,-36C331,-36 236,-36 236,-36 230,-36 224,-30 224,-24 224,-24 224,-12 224,-12 224,-6 230,0 236,0 236,0 331,0 331,0 337,0 343,-6 343,-12 343,-12 343,-24 343,-24 343,-30 337,-36 331,-36"/>
<text text-anchor="middle" x="283.5" y="-15.2" font-family="Helvetica" font-size="11.00">MissingJMSDetails</text>
</g>
<!-- n0&#45;&gt;n2 -->
<g id="edge2" class="edge">
<title>n0&#45;&gt;n2</title>
<path fill="none" stroke="#555555" d="M166.14,-49.85C179.64,-46.15 196.81,-41.45 213.79,-36.81"/>
<polygon fill="#555555" stroke="#555555" points="215.01,-40.1 223.73,-34.08 213.16,-33.35 215.01,-40.1"/>
</g>
<!-- n3 -->
<g id="node4" class="node">
<title>n3</title>
<path fill="#e8f4f8" stroke="black" d="M517,-154C517,-154 413,-154 413,-154 407,-154 401,-148 401,-142 401,-142 401,-130 401,-130 401,-124 407,-118 413,-118 413,-118 517,-118 517,-118 523,-118 529,-124 529,-130 529,-130 529,-142 529,-142 529,-148 523,-154 517,-154"/>
<text text-anchor="middle" x="465" y="-133.2" font-family="Helvetica" font-size="11.00">CheckSecurityToken</text>
</g>
<!-- n1&#45;&gt;n3 -->
<g id="edge6" class="edge">
<title>n1&#45;&gt;n3</title>
<path fill="none" stroke="#555555" d="M312.15,-103.01C333.17,-107.58 363.11,-114.08 390.85,-120.11"/>
<polygon fill="#555555" stroke="#555555" points="390.44,-123.6 400.95,-122.3 391.92,-116.76 390.44,-123.6"/>
</g>
<!-- n5 -->
<g id="node6" class="node">
<title>n5</title>
<path fill="#e8f4f8" stroke="black" d="M514,-75C514,-75 416,-75 416,-75 410,-75 404,-69 404,-63 404,-63 404,-51 404,-51 404,-45 410,-39 416,-39 416,-39 514,-39 514,-39 520,-39 526,-45 526,-51 526,-51 526,-63 526,-63 526,-69 520,-75 514,-75"/>
<text text-anchor="middle" x="465" y="-54.2" font-family="Helvetica" font-size="11.00">MissingJMSSender</text>
</g>
<!-- n1&#45;&gt;n5 -->
<g id="edge4" class="edge">
<title>n1&#45;&gt;n5</title>
<path fill="none" stroke="#555555" d="M312.15,-90.84C333.97,-85.98 365.39,-78.97 393.99,-72.6"/>
<polygon fill="#555555" stroke="#555555" points="394.97,-75.97 403.97,-70.38 393.45,-69.14 394.97,-75.97"/>
</g>
<!-- n4 -->
<g id="node5" class="node">
<title>n4</title>
<path fill="#ffccbc" stroke="black" d="M629,-154C629,-154 599,-154 599,-154 593,-154 587,-148 587,-142 587,-142 587,-130 587,-130 587,-124 593,-118 599,-118 599,-118 629,-118 629,-118 635,-118 641,-124 641,-130 641,-130 641,-142 641,-142 641,-148 635,-154 629,-154"/>
<text text-anchor="middle" x="614" y="-133.2" font-family="Helvetica" font-size="11.00">End</text>
</g>
<!-- n3&#45;&gt;n4 -->
<g id="edge3" class="edge">
<title>n3&#45;&gt;n4</title>
<path fill="none" stroke="#555555" d="M529.19,-136C545.32,-136 562.11,-136 576.4,-136"/>
<polygon fill="#555555" stroke="#555555" points="576.78,-139.5 586.78,-136 576.78,-132.5 576.78,-139.5"/>
</g>
<!-- n6 -->
<g id="node7" class="node">
<title>n6</title>
<path fill="#c8e6c9" stroke="black" d="M42,-75C42,-75 12,-75 12,-75 6,-75 0,-69 0,-63 0,-63 0,-51 0,-51 0,-45 6,-39 12,-39 12,-39 42,-39 42,-39 48,-39 54,-45 54,-51 54,-51 54,-63 54,-63 54,-69 48,-75 42,-75"/>
<text text-anchor="middle" x="27" y="-54.2" font-family="Helvetica" font-size="11.00">Start</text>
</g>
<!-- n6&#45;&gt;n0 -->
<g id="edge5" class="edge">
<title>n6&#45;&gt;n0</title>
<path fill="none" stroke="#555555" d="M54.07,-57C68.21,-57 85.92,-57 101.43,-57"/>
<polygon fill="#555555" stroke="#555555" points="101.74,-60.5 111.74,-57 101.74,-53.5 101.74,-60.5"/>
</g>
</g>
</svg>
