<?xml version="1.0" encoding="UTF-8" standalone="no"?>
<!DOCTYPE svg PUBLIC "-//W3C//DTD SVG 1.1//EN"
 "http://www.w3.org/Graphics/SVG/1.1/DTD/svg11.dtd">
<!-- Generated by graphviz version 2.44.0 (0)
 -->
<!-- Title: process Pages: 1 -->
<svg width="948pt" height="345pt"
 viewBox="0.00 0.00 948.00 345.00" xmlns="http://www.w3.org/2000/svg" xmlns:xlink="http://www.w3.org/1999/xlink">
<g id="graph0" class="graph" transform="scale(1 1) rotate(0) translate(36 309)">
<title>process</title>
<polygon fill="#ffffff" stroke="transparent" points="-36,36 -36,-309 912,-309 912,36 -36,36"/>
<!-- n0 -->
<g id="node1" class="node">
<title>n0</title>
<path fill="#e8f4f8" stroke="black" d="M741.5,-117C741.5,-117 667.5,-117 667.5,-117 661.5,-117 655.5,-111 655.5,-105 655.5,-105 655.5,-93 655.5,-93 655.5,-87 661.5,-81 667.5,-81 667.5,-81 741.5,-81 741.5,-81 747.5,-81 753.5,-87 753.5,-93 753.5,-93 753.5,-105 753.5,-105 753.5,-111 747.5,-117 741.5,-117"/>
<text text-anchor="middle" x="704.5" y="-96.2" font-family="Helvetica" font-size="11.00">BusinessLogic</text>
</g>
<!-- n1 -->
<g id="node2" class="node">
<title>n1</title>
<path fill="#ffccbc" stroke="black" d="M864,-156C864,-156 834,-156 834,-156 828,-156 822,-150 822,-144 822,-144 822,-132 822,-132 822,-126 828,-120 834,-120 834,-120 864,-120 864,-120 870,-120 876,-126 876,-132 876,-132 876,-144 876,-144 876,-150 870,-156 864,-156"/>
<text text-anchor="middle" x="849" y="-135.2" font-family="Helvetica" font-size="11.00">End</text>
</g>
<!-- n0&#45;&gt;n1 -->
<g id="edge1" class="edge">
<title>n0&#45;&gt;n1</title>
<path fill="none" stroke="#555555" d="M753.74,-112.2C772.78,-117.41 794.27,-123.29 811.91,-128.12"/>
<polygon fill="#555555" stroke="#555555" points="811.24,-131.57 821.81,-130.83 813.09,-124.82 811.24,-131.57"/>
</g>
<!-- n2 -->
<g id="node3" class="node">
<title>n2</title>
<path fill="#c8e6c9" stroke="black" d="M42,-194C42,-194 12,-194 12,-194 6,-194 0,-188 0,-182 0,-182 0,-170 0,-170 0,-164 6,-158 12,-158 12,-158 42,-158 42,-158 48,-158 54,-164 54,-170 54,-170 54,-182 54,-182 54,-188 48,-194 42,-194"/>
<text text-anchor="middle" x="27" y="-173.2" font-family="Helvetica" font-size="11.00">Start</text>
</g>
<!-- n3 -->
<g id="node4" class="node">
<title>n3</title>
<path fill="#ffcdd2" stroke="black" d="M291.5,-273C291.5,-273 127.5,-273 127.5,-273 121.5,-273 115.5,-267 115.5,-261 115.5,-261 115.5,-249 115.5,-249 115.5,-243 121.5,-237 127.5,-237 127.5,-237 291.5,-237 291.5,-237 297.5,-237 303.5,-243 303.5,-249 303.5,-249 303.5,-261 303.5,-261 303.5,-267 297.5,-273 291.5,-273"/>
<text text-anchor="middle" x="209.5" y="-252.2" font-family="Helvetica" font-size="11.00">Generate Error for MSISDN FLN</text>
</g>
<!-- n2&#45;&gt;n3 -->
<g id="edge2" class="edge">
<title>n2&#45;&gt;n3</title>
<path fill="none" stroke="#555555" d="M54.29,-189.02C70.76,-197.05 92.48,-207.42 112,-216 125.04,-221.74 139.21,-227.64 152.57,-233.06"/>
<polygon fill="#555555" stroke="#555555" points="151.54,-236.42 162.12,-236.92 154.16,-229.93 151.54,-236.42"/>
</g>
<!-- n4 -->
<g id="node5" class="node">
<title>n4</title>
<path fill="#ffcdd2" stroke="black" d="M295,-194C295,-194 124,-194 124,-194 118,-194 112,-188 112,-182 112,-182 112,-170 112,-170 112,-164 118,-158 124,-158 124,-158 295,-158 295,-158 301,-158 307,-164 307,-170 307,-170 307,-182 307,-182 307,-188 301,-194 295,-194"/>
<text text-anchor="middle" x="209.5" y="-173.2" font-family="Helvetica" font-size="11.00">Generate&#45;Error for ResponseCode</text>
</g>
<!-- n2&#45;&gt;n4 -->
<g id="edge3" class="edge">
<title>n2&#45;&gt;n4</title>
<path fill="none" stroke="#555555" d="M54.25,-176C67.24,-176 83.89,-176 101.41,-176"/>
<polygon fill="#555555" stroke="#555555" points="101.8,-179.5 111.8,-176 101.8,-172.5 101.8,-179.5"/>
</g>
<!-- n6 -->
<g id="node7" class="node">
<title>n6</title>
<path fill="#e8f4f8" stroke="black" d="M224.5,-115C224.5,-115 194.5,-115 194.5,-115 188.5,-115 182.5,-109 182.5,-103 182.5,-103 182.5,-91 182.5,-91 182.5,-85 188.5,-79 194.5,-79 194.5,-79 224.5,-79 224.5,-79 230.5,-79 236.5,-85 236.5,-91 236.5,-91 236.5,-103 236.5,-103 236.5,-109 230.5,-115 224.5,-115"/>
<text text-anchor="middle" x="209.5" y="-94.2" font-family="Helvetica" font-size="11.00">Null</text>
</g>
<!-- n2&#45;&gt;n6 -->
<g id="edge5" class="edge">
<title>n2&#45;&gt;n6</title>
<path fill="none" stroke="#555555" d="M54.29,-162.98C70.76,-154.95 92.48,-144.58 112,-136 131.91,-127.25 154.43,-118.1 172.71,-110.87"/>
<polygon fill="#555555" stroke="#555555" points="174.08,-114.09 182.11,-107.17 171.52,-107.58 174.08,-114.09"/>
</g>
<!-- n5 -->
<g id="node6" class="node">
<title>n5</title>
<path fill="#e8f4f8" stroke="black" d="M752,-197C752,-197 657,-197 657,-197 651,-197 645,-191 645,-185 645,-185 645,-173 645,-173 645,-167 651,-161 657,-161 657,-161 752,-161 752,-161 758,-161 764,-167 764,-173 764,-173 764,-185 764,-185 764,-191 758,-197 752,-197"/>
<text text-anchor="middle" x="704.5" y="-176.2" font-family="Helvetica" font-size="11.00">FLNBusinessLogic</text>
</g>
<!-- n5&#45;&gt;n1 -->
<g id="edge4" class="edge">
<title>n5&#45;&gt;n1</title>
<path fill="none" stroke="#555555" d="M764.28,-162.09C780.45,-157.44 797.49,-152.53 811.96,-148.37"/>
<polygon fill="#555555" stroke="#555555" points="813.34,-151.62 821.98,-145.49 811.4,-144.89 813.34,-151.62"/>
</g>
<!-- n6&#45;&gt;n5 -->
<g id="edge7" class="edge">
<title>n6&#45;&gt;n5</title>
<path fill="none" stroke="#555555" d="M236.53,-104.6C267.07,-113.27 319.33,-127.37 365,-136 457.6,-153.5 565.83,-165.86 634.5,-172.7"/>
<polygon fill="#555555" stroke="#555555" points="634.47,-176.22 644.76,-173.71 635.15,-169.25 634.47,-176.22"/>
</g>
<!-- n7 -->
<g id="node8" class="node">
<title>n7</title>
<path fill="#e8f4f8" stroke="black" d="M527.5,-115C527.5,-115 424.5,-115 424.5,-115 418.5,-115 412.5,-109 412.5,-103 412.5,-103 412.5,-91 412.5,-91 412.5,-85 418.5,-79 424.5,-79 424.5,-79 527.5,-79 527.5,-79 533.5,-79 539.5,-85 539.5,-91 539.5,-91 539.5,-103 539.5,-103 539.5,-109 533.5,-115 527.5,-115"/>
<text text-anchor="middle" x="476" y="-94.2" font-family="Helvetica" font-size="11.00">GetPrimaryMSISDN</text>
</g>
<!-- n6&#45;&gt;n7 -->
<g id="edge6" class="edge">
<title>n6&#45;&gt;n7</title>
<path fill="none" stroke="#555555" d="M236.83,-97C275.08,-97 347.47,-97 402.44,-97"/>
<polygon fill="#555555" stroke="#555555" points="402.49,-100.5 412.49,-97 402.49,-93.5 402.49,-100.5"/>
</g>
<!-- n8 -->
<g id="node9" class="node">
<title>n8</title>
<path fill="#ffcdd2" stroke="black" d="M575,-36C575,-36 377,-36 377,-36 371,-36 365,-30 365,-24 365,-24 365,-12 365,-12 365,-6 371,0 377,0 377,0 575,0 575,0 581,0 587,-6 587,-12 587,-12 587,-24 587,-24 587,-30 581,-36 575,-36"/>
<text text-anchor="middle" x="476" y="-15.2" font-family="Helvetica" font-size="11.00">Generate&#45;Error for MSISDN FLN format</text>
</g>
<!-- n6&#45;&gt;n8 -->
<g id="edge8" class="edge">
<title>n6&#45;&gt;n8</title>
<path fill="none" stroke="#555555" d="M236.83,-89.14C275.66,-77.54 349.64,-55.44 404.9,-38.94"/>
<polygon fill="#555555" stroke="#555555" points="406.05,-42.25 414.63,-36.03 404.05,-35.54 406.05,-42.25"/>
</g>
<!-- n7&#45;&gt;n0 -->
<g id="edge9" class="edge">
<title>n7&#45;&gt;n0</title>
<path fill="none" stroke="#555555" d="M539.79,-97.55C572.75,-97.85 612.88,-98.2 645.16,-98.48"/>
<polygon fill="#555555" stroke="#555555" points="645.31,-101.99 655.34,-98.57 645.37,-94.99 645.31,-101.99"/>
</g>
</g>
</svg>
