<?xml version="1.0" encoding="UTF-8" standalone="no"?>
<!DOCTYPE svg PUBLIC "-//W3C//DTD SVG 1.1//EN"
 "http://www.w3.org/Graphics/SVG/1.1/DTD/svg11.dtd">
<!-- Generated by graphviz version 2.44.0 (0)
 -->
<!-- Title: process Pages: 1 -->
<svg width="1860pt" height="482pt"
 viewBox="0.00 0.00 1860.00 481.68" xmlns="http://www.w3.org/2000/svg" xmlns:xlink="http://www.w3.org/1999/xlink">
<g id="graph0" class="graph" transform="scale(1 1) rotate(0) translate(36 445.68)">
<title>process</title>
<polygon fill="#ffffff" stroke="transparent" points="-36,36 -36,-445.68 1824,-445.68 1824,36 -36,36"/>
<!-- n0 -->
<g id="node1" class="node">
<title>n0</title>
<path fill="#e8f4f8" stroke="black" d="M216,-334C216,-334 151,-334 151,-334 145,-334 139,-328 139,-322 139,-322 139,-310 139,-310 139,-304 145,-298 151,-298 151,-298 216,-298 216,-298 222,-298 228,-304 228,-310 228,-310 228,-322 228,-322 228,-328 222,-334 216,-334"/>
<text text-anchor="middle" x="183.5" y="-313.2" font-family="Helvetica" font-size="11.00">QueryRTDB</text>
</g>
<!-- n1 -->
<g id="node2" class="node">
<title>n1</title>
<path fill="#e8f4f8" stroke="black" d="M636,-376C636,-376 535,-376 535,-376 529,-376 523,-370 523,-364 523,-364 523,-352 523,-352 523,-346 529,-340 535,-340 535,-340 636,-340 636,-340 642,-340 648,-346 648,-352 648,-352 648,-364 648,-364 648,-370 642,-376 636,-376"/>
<text text-anchor="middle" x="585.5" y="-355.2" font-family="Helvetica" font-size="11.00">TranslateGroupData</text>
</g>
<!-- n0&#45;&gt;n1 -->
<g id="edge1" class="edge">
<title>n0&#45;&gt;n1</title>
<path fill="none" stroke="#555555" d="M204.91,-334.35C228.82,-354.49 270.57,-385.62 313,-398 377.85,-416.93 398.32,-408.86 465,-398 487.56,-394.33 511.6,-386.99 532.16,-379.59"/>
<polygon fill="#555555" stroke="#555555" points="533.48,-382.84 541.65,-376.09 531.06,-376.27 533.48,-382.84"/>
</g>
<!-- n11 -->
<g id="node4" class="node">
<title>n11</title>
<path fill="#e8f4f8" stroke="black" d="M453,-376C453,-376 325,-376 325,-376 319,-376 313,-370 313,-364 313,-364 313,-352 313,-352 313,-346 319,-340 325,-340 325,-340 453,-340 453,-340 459,-340 465,-346 465,-352 465,-352 465,-364 465,-364 465,-370 459,-376 453,-376"/>
<text text-anchor="middle" x="389" y="-355.2" font-family="Helvetica" font-size="11.00">WriteToLog_GroupDetails</text>
</g>
<!-- n0&#45;&gt;n11 -->
<g id="edge12" class="edge">
<title>n0&#45;&gt;n11</title>
<path fill="none" stroke="#555555" d="M228.16,-325.01C249.91,-329.5 276.99,-335.09 302.65,-340.38"/>
<polygon fill="#555555" stroke="#555555" points="302.27,-343.88 312.77,-342.47 303.69,-337.02 302.27,-343.88"/>
</g>
<!-- n12 -->
<g id="node5" class="node">
<title>n12</title>
<path fill="#e8f4f8" stroke="black" d="M807.5,-227C807.5,-227 774.5,-227 774.5,-227 768.5,-227 762.5,-221 762.5,-215 762.5,-215 762.5,-203 762.5,-203 762.5,-197 768.5,-191 774.5,-191 774.5,-191 807.5,-191 807.5,-191 813.5,-191 819.5,-197 819.5,-203 819.5,-203 819.5,-215 819.5,-215 819.5,-221 813.5,-227 807.5,-227"/>
<text text-anchor="middle" x="791" y="-206.2" font-family="Helvetica" font-size="11.00">Null&#45;1</text>
</g>
<!-- n0&#45;&gt;n12 -->
<g id="edge16" class="edge">
<title>n0&#45;&gt;n12</title>
<path fill="none" stroke="#555555" d="M228.05,-308.3C341.68,-288.22 645.74,-234.49 752.39,-215.65"/>
<polygon fill="#555555" stroke="#555555" points="753.14,-219.07 762.38,-213.88 751.92,-212.17 753.14,-219.07"/>
</g>
<!-- n1&#45;&gt;n12 -->
<g id="edge20" class="edge">
<title>n1&#45;&gt;n12</title>
<path fill="none" stroke="#555555" d="M611.45,-339.73C648.02,-312.96 716.21,-263.03 756.91,-233.23"/>
<polygon fill="#555555" stroke="#555555" points="759.16,-235.92 765.16,-227.19 755.03,-230.27 759.16,-235.92"/>
</g>
<!-- n5 -->
<g id="node10" class="node">
<title>n5</title>
<path fill="#e8f4f8" stroke="black" d="M1452,-227C1452,-227 1384,-227 1384,-227 1378,-227 1372,-221 1372,-215 1372,-215 1372,-203 1372,-203 1372,-197 1378,-191 1384,-191 1384,-191 1452,-191 1452,-191 1458,-191 1464,-197 1464,-203 1464,-203 1464,-215 1464,-215 1464,-221 1458,-227 1452,-227"/>
<text text-anchor="middle" x="1418" y="-206.2" font-family="Helvetica" font-size="11.00">sharer output</text>
</g>
<!-- n1&#45;&gt;n5 -->
<g id="edge7" class="edge">
<title>n1&#45;&gt;n5</title>
<path fill="none" stroke="#555555" d="M648.39,-351.05C774.64,-336.22 1070.51,-298.1 1314,-241 1329.7,-237.32 1346.5,-232.49 1361.87,-227.71"/>
<polygon fill="#555555" stroke="#555555" points="1363.27,-230.94 1371.75,-224.58 1361.16,-224.26 1363.27,-230.94"/>
</g>
<!-- n10 -->
<g id="node3" class="node">
<title>n10</title>
<path fill="#e8f4f8" stroke="black" d="M1664,-269C1664,-269 1534,-269 1534,-269 1528,-269 1522,-263 1522,-257 1522,-257 1522,-245 1522,-245 1522,-239 1528,-233 1534,-233 1534,-233 1664,-233 1664,-233 1670,-233 1676,-239 1676,-245 1676,-245 1676,-257 1676,-257 1676,-263 1670,-269 1664,-269"/>
<text text-anchor="middle" x="1599" y="-248.2" font-family="Helvetica" font-size="11.00">WriteToLog_Combinedata</text>
</g>
<!-- n6 -->
<g id="node11" class="node">
<title>n6</title>
<path fill="#ffccbc" stroke="black" d="M1776,-227C1776,-227 1746,-227 1746,-227 1740,-227 1734,-221 1734,-215 1734,-215 1734,-203 1734,-203 1734,-197 1740,-191 1746,-191 1746,-191 1776,-191 1776,-191 1782,-191 1788,-197 1788,-203 1788,-203 1788,-215 1788,-215 1788,-221 1782,-227 1776,-227"/>
<text text-anchor="middle" x="1761" y="-206.2" font-family="Helvetica" font-size="11.00">End</text>
</g>
<!-- n10&#45;&gt;n6 -->
<g id="edge15" class="edge">
<title>n10&#45;&gt;n6</title>
<path fill="none" stroke="#555555" d="M1668.78,-232.94C1687.86,-227.94 1707.81,-222.7 1724.17,-218.41"/>
<polygon fill="#555555" stroke="#555555" points="1725.06,-221.79 1733.85,-215.86 1723.29,-215.02 1725.06,-221.79"/>
</g>
<!-- n11&#45;&gt;n1 -->
<g id="edge13" class="edge">
<title>n11&#45;&gt;n1</title>
<path fill="none" stroke="#555555" d="M465.2,-358C480.81,-358 497.22,-358 512.7,-358"/>
<polygon fill="#555555" stroke="#555555" points="512.72,-361.5 522.72,-358 512.72,-354.5 512.72,-361.5"/>
</g>
<!-- n12&#45;&gt;n5 -->
<g id="edge18" class="edge">
<title>n12&#45;&gt;n5</title>
<path fill="none" stroke="#555555" d="M819.66,-209C915.23,-209 1232.7,-209 1361.74,-209"/>
<polygon fill="#555555" stroke="#555555" points="1361.8,-212.5 1371.8,-209 1361.8,-205.5 1361.8,-212.5"/>
</g>
<!-- n13 -->
<g id="node6" class="node">
<title>n13</title>
<path fill="#e8f4f8" stroke="black" d="M1302,-142C1302,-142 1153,-142 1153,-142 1147,-142 1141,-136 1141,-130 1141,-130 1141,-118 1141,-118 1141,-112 1147,-106 1153,-106 1153,-106 1302,-106 1302,-106 1308,-106 1314,-112 1314,-118 1314,-118 1314,-130 1314,-130 1314,-136 1308,-142 1302,-142"/>
<text text-anchor="middle" x="1227.5" y="-121.2" font-family="Helvetica" font-size="11.00">Determine RedPlus BDS Type</text>
</g>
<!-- n13&#45;&gt;n5 -->
<g id="edge22" class="edge">
<title>n13&#45;&gt;n5</title>
<path fill="none" stroke="#555555" d="M1268.48,-142.03C1297.47,-155.1 1336.85,-172.86 1367.78,-186.8"/>
<polygon fill="#555555" stroke="#555555" points="1366.53,-190.08 1377.08,-191 1369.4,-183.7 1366.53,-190.08"/>
</g>
<!-- n2 -->
<g id="node7" class="node">
<title>n2</title>
<path fill="#e8f4f8" stroke="black" d="M243,-163C243,-163 124,-163 124,-163 118,-163 112,-157 112,-151 112,-151 112,-139 112,-139 112,-133 118,-127 124,-127 124,-127 243,-127 243,-127 249,-127 255,-133 255,-139 255,-139 255,-151 255,-151 255,-157 249,-163 243,-163"/>
<text text-anchor="middle" x="183.5" y="-142.2" font-family="Helvetica" font-size="11.00">QueryRTDB_Threshold</text>
</g>
<!-- n2&#45;&gt;n12 -->
<g id="edge17" class="edge">
<title>n2&#45;&gt;n12</title>
<path fill="none" stroke="#555555" d="M255.14,-152.47C383.97,-166.08 652.92,-194.51 752.16,-205"/>
<polygon fill="#555555" stroke="#555555" points="752,-208.5 762.32,-206.07 752.74,-201.54 752,-208.5"/>
</g>
<!-- n3 -->
<g id="node8" class="node">
<title>n3</title>
<path fill="#e8f4f8" stroke="black" d="M450,-119C450,-119 328,-119 328,-119 322,-119 316,-113 316,-107 316,-107 316,-95 316,-95 316,-89 322,-83 328,-83 328,-83 450,-83 450,-83 456,-83 462,-89 462,-95 462,-95 462,-107 462,-107 462,-113 456,-119 450,-119"/>
<text text-anchor="middle" x="389" y="-98.2" font-family="Helvetica" font-size="11.00">Translate ThresholdData</text>
</g>
<!-- n2&#45;&gt;n3 -->
<g id="edge2" class="edge">
<title>n2&#45;&gt;n3</title>
<path fill="none" stroke="#555555" d="M255.1,-129.73C271.51,-126.19 289.12,-122.38 305.97,-118.74"/>
<polygon fill="#555555" stroke="#555555" points="306.76,-122.15 315.8,-116.61 305.28,-115.3 306.76,-122.15"/>
</g>
<!-- n4 -->
<g id="node9" class="node">
<title>n4</title>
<path fill="#e8f4f8" stroke="black" d="M600.5,-36C600.5,-36 570.5,-36 570.5,-36 564.5,-36 558.5,-30 558.5,-24 558.5,-24 558.5,-12 558.5,-12 558.5,-6 564.5,0 570.5,0 570.5,0 600.5,0 600.5,0 606.5,0 612.5,-6 612.5,-12 612.5,-12 612.5,-24 612.5,-24 612.5,-30 606.5,-36 600.5,-36"/>
<text text-anchor="middle" x="585.5" y="-15.2" font-family="Helvetica" font-size="11.00">Null</text>
</g>
<!-- n2&#45;&gt;n4 -->
<g id="edge5" class="edge">
<title>n2&#45;&gt;n4</title>
<path fill="none" stroke="#555555" d="M206.16,-126.95C230.54,-107.66 272.1,-77.73 313,-62 393.22,-31.15 494.86,-21.93 548.13,-19.18"/>
<polygon fill="#555555" stroke="#555555" points="548.3,-22.67 558.12,-18.71 547.97,-15.68 548.3,-22.67"/>
</g>
<!-- n3&#45;&gt;n12 -->
<g id="edge19" class="edge">
<title>n3&#45;&gt;n12</title>
<path fill="none" stroke="#555555" d="M462.16,-113.44C514.29,-123.13 586.11,-137.96 648,-156 684.27,-166.57 724.52,-181.96 752.88,-193.43"/>
<polygon fill="#555555" stroke="#555555" points="751.81,-196.77 762.39,-197.31 754.45,-190.29 751.81,-196.77"/>
</g>
<!-- n3&#45;&gt;n4 -->
<g id="edge3" class="edge">
<title>n3&#45;&gt;n4</title>
<path fill="none" stroke="#555555" d="M432.2,-82.99C467.18,-68.06 516.33,-47.09 549.24,-33.05"/>
<polygon fill="#555555" stroke="#555555" points="550.66,-36.25 558.48,-29.1 547.91,-29.81 550.66,-36.25"/>
</g>
<!-- n8 -->
<g id="node13" class="node">
<title>n8</title>
<path fill="#e8f4f8" stroke="black" d="M1071,-119C1071,-119 946,-119 946,-119 940,-119 934,-113 934,-107 934,-107 934,-95 934,-95 934,-89 940,-83 946,-83 946,-83 1071,-83 1071,-83 1077,-83 1083,-89 1083,-95 1083,-95 1083,-107 1083,-107 1083,-113 1077,-119 1071,-119"/>
<text text-anchor="middle" x="1008.5" y="-98.2" font-family="Helvetica" font-size="11.00">Parse RedPlus BDS GVs</text>
</g>
<!-- n4&#45;&gt;n8 -->
<g id="edge9" class="edge">
<title>n4&#45;&gt;n8</title>
<path fill="none" stroke="#555555" d="M612.68,-28.3C636.63,-37.34 673.21,-50.24 706,-58 778.62,-75.18 862.81,-86.49 923.74,-93.18"/>
<polygon fill="#555555" stroke="#555555" points="923.38,-96.66 933.7,-94.25 924.13,-89.7 923.38,-96.66"/>
</g>
<!-- n9 -->
<g id="node14" class="node">
<title>n9</title>
<path fill="#e8f4f8" stroke="black" d="M864,-36C864,-36 718,-36 718,-36 712,-36 706,-30 706,-24 706,-24 706,-12 706,-12 706,-6 712,0 718,0 718,0 864,0 864,0 870,0 876,-6 876,-12 876,-12 876,-24 876,-24 876,-30 870,-36 864,-36"/>
<text text-anchor="middle" x="791" y="-15.2" font-family="Helvetica" font-size="11.00">WriteToLog_ThresholdDetails</text>
</g>
<!-- n4&#45;&gt;n9 -->
<g id="edge10" class="edge">
<title>n4&#45;&gt;n9</title>
<path fill="none" stroke="#555555" d="M612.69,-18C633.91,-18 665.17,-18 695.55,-18"/>
<polygon fill="#555555" stroke="#555555" points="695.81,-21.5 705.81,-18 695.81,-14.5 695.81,-21.5"/>
</g>
<!-- n5&#45;&gt;n10 -->
<g id="edge11" class="edge">
<title>n5&#45;&gt;n10</title>
<path fill="none" stroke="#555555" d="M1464.17,-219.6C1478.66,-223 1495.23,-226.89 1511.66,-230.74"/>
<polygon fill="#555555" stroke="#555555" points="1511.32,-234.26 1521.85,-233.13 1512.92,-227.44 1511.32,-234.26"/>
</g>
<!-- n5&#45;&gt;n6 -->
<g id="edge4" class="edge">
<title>n5&#45;&gt;n6</title>
<path fill="none" stroke="#555555" d="M1464.28,-209C1532.62,-209 1660.75,-209 1723.5,-209"/>
<polygon fill="#555555" stroke="#555555" points="1723.71,-212.5 1733.71,-209 1723.71,-205.5 1723.71,-212.5"/>
</g>
<!-- n7 -->
<g id="node12" class="node">
<title>n7</title>
<path fill="#c8e6c9" stroke="black" d="M42,-228C42,-228 12,-228 12,-228 6,-228 0,-222 0,-216 0,-216 0,-204 0,-204 0,-198 6,-192 12,-192 12,-192 42,-192 42,-192 48,-192 54,-198 54,-204 54,-204 54,-216 54,-216 54,-222 48,-228 42,-228"/>
<text text-anchor="middle" x="27" y="-207.2" font-family="Helvetica" font-size="11.00">Start</text>
</g>
<!-- n7&#45;&gt;n0 -->
<g id="edge6" class="edge">
<title>n7&#45;&gt;n0</title>
<path fill="none" stroke="#555555" d="M54.21,-227.98C79.96,-245.65 119.4,-272.7 147.75,-292.16"/>
<polygon fill="#555555" stroke="#555555" points="145.94,-295.16 156.16,-297.93 149.9,-289.39 145.94,-295.16"/>
</g>
<!-- n7&#45;&gt;n2 -->
<g id="edge8" class="edge">
<title>n7&#45;&gt;n2</title>
<path fill="none" stroke="#555555" d="M54.21,-198.97C74.99,-190.23 104.69,-177.74 130.28,-166.97"/>
<polygon fill="#555555" stroke="#555555" points="131.63,-170.2 139.49,-163.09 128.92,-163.75 131.63,-170.2"/>
</g>
<!-- n8&#45;&gt;n13 -->
<g id="edge21" class="edge">
<title>n8&#45;&gt;n13</title>
<path fill="none" stroke="#555555" d="M1083.27,-108.82C1098.49,-110.43 1114.73,-112.15 1130.6,-113.84"/>
<polygon fill="#555555" stroke="#555555" points="1130.65,-117.36 1140.97,-114.93 1131.39,-110.4 1130.65,-117.36"/>
</g>
<!-- n9&#45;&gt;n8 -->
<g id="edge14" class="edge">
<title>n9&#45;&gt;n8</title>
<path fill="none" stroke="#555555" d="M838.76,-36.01C871.69,-48.69 915.94,-65.74 950.87,-79.19"/>
<polygon fill="#555555" stroke="#555555" points="949.87,-82.55 960.46,-82.88 952.39,-76.02 949.87,-82.55"/>
</g>
</g>
</svg>
