<?xml version="1.0" encoding="UTF-8" standalone="no"?>
<!DOCTYPE svg PUBLIC "-//W3C//DTD SVG 1.1//EN"
 "http://www.w3.org/Graphics/SVG/1.1/DTD/svg11.dtd">
<!-- Generated by graphviz version 2.44.0 (0)
 -->
<!-- Title: process Pages: 1 -->
<svg width="2506pt" height="442pt"
 viewBox="0.00 0.00 2506.00 442.00" xmlns="http://www.w3.org/2000/svg" xmlns:xlink="http://www.w3.org/1999/xlink">
<g id="graph0" class="graph" transform="scale(1 1) rotate(0) translate(36 406)">
<title>process</title>
<polygon fill="#ffffff" stroke="transparent" points="-36,36 -36,-406 2470,-406 2470,36 -36,36"/>
<!-- n0 -->
<g id="node1" class="node">
<title>n0</title>
<path fill="#c8e6c9" stroke="black" d="M84,-105C84,-105 54,-105 54,-105 48,-105 42,-99 42,-93 42,-93 42,-81 42,-81 42,-75 48,-69 54,-69 54,-69 84,-69 84,-69 90,-69 96,-75 96,-81 96,-81 96,-93 96,-93 96,-99 90,-105 84,-105"/>
<text text-anchor="middle" x="69" y="-84.2" font-family="Helvetica" font-size="11.00">start</text>
</g>
<!-- n1 -->
<g id="node2" class="node">
<title>n1</title>
<path fill="#e8f4f8" stroke="black" d="M328.5,-115C328.5,-115 220.5,-115 220.5,-115 214.5,-115 208.5,-109 208.5,-103 208.5,-103 208.5,-91 208.5,-91 208.5,-85 214.5,-79 220.5,-79 220.5,-79 328.5,-79 328.5,-79 334.5,-79 340.5,-85 340.5,-91 340.5,-91 340.5,-103 340.5,-103 340.5,-109 334.5,-115 328.5,-115"/>
<text text-anchor="middle" x="274.5" y="-94.2" font-family="Helvetica" font-size="11.00">Custom&#45;RenderReply</text>
</g>
<!-- n0&#45;&gt;n1 -->
<g id="edge1" class="edge">
<title>n0&#45;&gt;n1</title>
<path fill="none" stroke="#555555" d="M96.19,-88.29C121.79,-89.54 162,-91.52 197.67,-93.27"/>
<polygon fill="#555555" stroke="#555555" points="197.92,-96.79 208.08,-93.79 198.26,-89.8 197.92,-96.79"/>
</g>
<!-- n4 -->
<g id="node20" class="node">
<title>n4</title>
<path fill="#e8f4f8" stroke="black" d="M341,-36C341,-36 208,-36 208,-36 202,-36 196,-30 196,-24 196,-24 196,-12 196,-12 196,-6 202,0 208,0 208,0 341,0 341,0 347,0 353,-6 353,-12 353,-12 353,-24 353,-24 353,-30 347,-36 341,-36"/>
<text text-anchor="middle" x="274.5" y="-15.2" font-family="Helvetica" font-size="11.00">Custom&#45;RenderErrorReply</text>
</g>
<!-- n0&#45;&gt;n4 -->
<g id="edge4" class="edge">
<title>n0&#45;&gt;n4</title>
<path fill="none" stroke="#555555" d="M96.19,-78.12C124.99,-68.36 172.28,-52.32 210.79,-39.26"/>
<polygon fill="#555555" stroke="#555555" points="212.03,-42.54 220.37,-36.01 209.78,-35.91 212.03,-42.54"/>
</g>
<!-- n2 -->
<g id="node13" class="node">
<title>n2</title>
<path fill="#e8f4f8" stroke="black" d="M519,-115C519,-115 440,-115 440,-115 434,-115 428,-109 428,-103 428,-103 428,-91 428,-91 428,-85 434,-79 440,-79 440,-79 519,-79 519,-79 525,-79 531,-85 531,-91 531,-91 531,-103 531,-103 531,-109 525,-115 519,-115"/>
<text text-anchor="middle" x="479.5" y="-94.2" font-family="Helvetica" font-size="11.00">OperationReply</text>
</g>
<!-- n1&#45;&gt;n2 -->
<g id="edge3" class="edge">
<title>n1&#45;&gt;n2</title>
<path fill="none" stroke="#555555" d="M340.57,-97C365.33,-97 393.42,-97 417.76,-97"/>
<polygon fill="#555555" stroke="#555555" points="417.95,-100.5 427.95,-97 417.95,-93.5 417.95,-100.5"/>
</g>
<!-- n10 -->
<g id="node3" class="node">
<title>n10</title>
<path fill="#ffccbc" stroke="black" d="M2422,-287C2422,-287 2392,-287 2392,-287 2386,-287 2380,-281 2380,-275 2380,-275 2380,-263 2380,-263 2380,-257 2386,-251 2392,-251 2392,-251 2422,-251 2422,-251 2428,-251 2434,-257 2434,-263 2434,-263 2434,-275 2434,-275 2434,-281 2428,-287 2422,-287"/>
<text text-anchor="middle" x="2407" y="-266.2" font-family="Helvetica" font-size="11.00">End</text>
</g>
<!-- n11 -->
<g id="node4" class="node">
<title>n11</title>
<path fill="#e8f4f8" stroke="black" d="M332.5,-204C332.5,-204 216.5,-204 216.5,-204 210.5,-204 204.5,-198 204.5,-192 204.5,-192 204.5,-180 204.5,-180 204.5,-174 210.5,-168 216.5,-168 216.5,-168 332.5,-168 332.5,-168 338.5,-168 344.5,-174 344.5,-180 344.5,-180 344.5,-192 344.5,-192 344.5,-198 338.5,-204 332.5,-204"/>
<text text-anchor="middle" x="274.5" y="-183.2" font-family="Helvetica" font-size="11.00">Prep Invocation Details</text>
</g>
<!-- n24 -->
<g id="node18" class="node">
<title>n24</title>
<path fill="#e8f4f8" stroke="black" d="M536,-204C536,-204 423,-204 423,-204 417,-204 411,-198 411,-192 411,-192 411,-180 411,-180 411,-174 417,-168 423,-168 423,-168 536,-168 536,-168 542,-168 548,-174 548,-180 548,-180 548,-192 548,-192 548,-198 542,-204 536,-204"/>
<text text-anchor="middle" x="479.5" y="-183.2" font-family="Helvetica" font-size="11.00">Custom&#45;ParseRequest</text>
</g>
<!-- n11&#45;&gt;n24 -->
<g id="edge29" class="edge">
<title>n11&#45;&gt;n24</title>
<path fill="none" stroke="#555555" d="M344.51,-186C362.55,-186 382.12,-186 400.58,-186"/>
<polygon fill="#555555" stroke="#555555" points="400.71,-189.5 410.71,-186 400.71,-182.5 400.71,-189.5"/>
</g>
<!-- n12 -->
<g id="node5" class="node">
<title>n12</title>
<path fill="#ffcdd2" stroke="black" d="M1482,-162C1482,-162 1330,-162 1330,-162 1324,-162 1318,-156 1318,-150 1318,-150 1318,-138 1318,-138 1318,-132 1324,-126 1330,-126 1330,-126 1482,-126 1482,-126 1488,-126 1494,-132 1494,-138 1494,-138 1494,-150 1494,-150 1494,-156 1488,-162 1482,-162"/>
<text text-anchor="middle" x="1406" y="-141.2" font-family="Helvetica" font-size="11.00">Call Service Exception Handler</text>
</g>
<!-- n13 -->
<g id="node6" class="node">
<title>n13</title>
<path fill="#e8f4f8" stroke="black" d="M1844,-119C1844,-119 1811,-119 1811,-119 1805,-119 1799,-113 1799,-107 1799,-107 1799,-95 1799,-95 1799,-89 1805,-83 1811,-83 1811,-83 1844,-83 1844,-83 1850,-83 1856,-89 1856,-95 1856,-95 1856,-107 1856,-107 1856,-113 1850,-119 1844,-119"/>
<text text-anchor="middle" x="1827.5" y="-98.2" font-family="Helvetica" font-size="11.00">Null&#45;1</text>
</g>
<!-- n12&#45;&gt;n13 -->
<g id="edge11" class="edge">
<title>n12&#45;&gt;n13</title>
<path fill="none" stroke="#555555" d="M1494.18,-135.06C1584.87,-125.77 1722.66,-111.64 1788.66,-104.88"/>
<polygon fill="#555555" stroke="#555555" points="1789.03,-108.36 1798.62,-103.86 1788.32,-101.4 1789.03,-108.36"/>
</g>
<!-- n19 -->
<g id="node12" class="node">
<title>n19</title>
<path fill="#ffccbc" stroke="black" d="M1857,-287C1857,-287 1798,-287 1798,-287 1792,-287 1786,-281 1786,-275 1786,-275 1786,-263 1786,-263 1786,-257 1792,-251 1798,-251 1798,-251 1857,-251 1857,-251 1863,-251 1869,-257 1869,-263 1869,-263 1869,-275 1869,-275 1869,-281 1863,-287 1857,-287"/>
<text text-anchor="middle" x="1827.5" y="-266.2" font-family="Helvetica" font-size="11.00">Reply Error</text>
</g>
<!-- n12&#45;&gt;n19 -->
<g id="edge16" class="edge">
<title>n12&#45;&gt;n19</title>
<path fill="none" stroke="#555555" d="M1484.27,-162.05C1549.75,-177.97 1645.83,-202.83 1728,-230 1743.91,-235.26 1760.97,-241.72 1776.34,-247.85"/>
<polygon fill="#555555" stroke="#555555" points="1775.09,-251.12 1785.67,-251.61 1777.71,-244.63 1775.09,-251.12"/>
</g>
<!-- n14 -->
<g id="node7" class="node">
<title>n14</title>
<path fill="#e8f4f8" stroke="black" d="M1985,-204C1985,-204 1939,-204 1939,-204 1933,-204 1927,-198 1927,-192 1927,-192 1927,-180 1927,-180 1927,-174 1933,-168 1939,-168 1939,-168 1985,-168 1985,-168 1991,-168 1997,-174 1997,-180 1997,-180 1997,-192 1997,-192 1997,-198 1991,-204 1985,-204"/>
<text text-anchor="middle" x="1962" y="-183.2" font-family="Helvetica" font-size="11.00">LogFatal</text>
</g>
<!-- n13&#45;&gt;n14 -->
<g id="edge12" class="edge">
<title>n13&#45;&gt;n14</title>
<path fill="none" stroke="#555555" d="M1856.28,-118.82C1876.02,-131.48 1902.74,-148.62 1924.24,-162.42"/>
<polygon fill="#555555" stroke="#555555" points="1922.5,-165.46 1932.8,-167.91 1926.28,-159.57 1922.5,-165.46"/>
</g>
<!-- n9 -->
<g id="node25" class="node">
<title>n9</title>
<path fill="#e8f4f8" stroke="black" d="M2181,-287C2181,-287 2067,-287 2067,-287 2061,-287 2055,-281 2055,-275 2055,-275 2055,-263 2055,-263 2055,-257 2061,-251 2067,-251 2067,-251 2181,-251 2181,-251 2187,-251 2193,-257 2193,-263 2193,-263 2193,-275 2193,-275 2193,-281 2187,-287 2181,-287"/>
<text text-anchor="middle" x="2124" y="-266.2" font-family="Helvetica" font-size="11.00">Confirm JMS Message</text>
</g>
<!-- n14&#45;&gt;n9 -->
<g id="edge24" class="edge">
<title>n14&#45;&gt;n9</title>
<path fill="none" stroke="#555555" d="M1997.32,-203.81C2021.2,-216.19 2053.25,-232.82 2079,-246.18"/>
<polygon fill="#555555" stroke="#555555" points="2077.69,-249.44 2088.18,-250.94 2080.92,-243.23 2077.69,-249.44"/>
</g>
<!-- n15 -->
<g id="node8" class="node">
<title>n15</title>
<path fill="#e8f4f8" stroke="black" d="M2310,-329C2310,-329 2263,-329 2263,-329 2257,-329 2251,-323 2251,-317 2251,-317 2251,-305 2251,-305 2251,-299 2257,-293 2263,-293 2263,-293 2310,-293 2310,-293 2316,-293 2322,-299 2322,-305 2322,-305 2322,-317 2322,-317 2322,-323 2316,-329 2310,-329"/>
<text text-anchor="middle" x="2286.5" y="-308.2" font-family="Helvetica" font-size="11.00">LogError</text>
</g>
<!-- n15&#45;&gt;n10 -->
<g id="edge30" class="edge">
<title>n15&#45;&gt;n10</title>
<path fill="none" stroke="#555555" d="M2322.09,-298.74C2337.22,-293.38 2354.97,-287.09 2370.23,-281.68"/>
<polygon fill="#555555" stroke="#555555" points="2371.59,-284.91 2379.85,-278.27 2369.25,-278.31 2371.59,-284.91"/>
</g>
<!-- n16 -->
<g id="node9" class="node">
<title>n16</title>
<path fill="#e8f4f8" stroke="black" d="M740,-204C740,-204 618,-204 618,-204 612,-204 606,-198 606,-192 606,-192 606,-180 606,-180 606,-174 612,-168 618,-168 618,-168 740,-168 740,-168 746,-168 752,-174 752,-180 752,-180 752,-192 752,-192 752,-198 746,-204 740,-204"/>
<text text-anchor="middle" x="679" y="-183.2" font-family="Helvetica" font-size="11.00">Comp Invocation Details</text>
</g>
<!-- n17 -->
<g id="node10" class="node">
<title>n17</title>
<path fill="#e8f4f8" stroke="black" d="M868,-204C868,-204 822,-204 822,-204 816,-204 810,-198 810,-192 810,-192 810,-180 810,-180 810,-174 816,-168 822,-168 822,-168 868,-168 868,-168 874,-168 880,-174 880,-180 880,-180 880,-192 880,-192 880,-198 874,-204 868,-204"/>
<text text-anchor="middle" x="845" y="-183.2" font-family="Helvetica" font-size="11.00">LogStart</text>
</g>
<!-- n16&#45;&gt;n17 -->
<g id="edge14" class="edge">
<title>n16&#45;&gt;n17</title>
<path fill="none" stroke="#555555" d="M752.41,-186C768.43,-186 784.94,-186 799.46,-186"/>
<polygon fill="#555555" stroke="#555555" points="799.65,-189.5 809.65,-186 799.65,-182.5 799.65,-189.5"/>
</g>
<!-- n20 -->
<g id="node14" class="node">
<title>n20</title>
<path fill="#e8f4f8" stroke="black" d="M1030.5,-204C1030.5,-204 955.5,-204 955.5,-204 949.5,-204 943.5,-198 943.5,-192 943.5,-192 943.5,-180 943.5,-180 943.5,-174 949.5,-168 955.5,-168 955.5,-168 1030.5,-168 1030.5,-168 1036.5,-168 1042.5,-174 1042.5,-180 1042.5,-180 1042.5,-192 1042.5,-192 1042.5,-198 1036.5,-204 1030.5,-204"/>
<text text-anchor="middle" x="993" y="-183.2" font-family="Helvetica" font-size="11.00">CheckRequest</text>
</g>
<!-- n17&#45;&gt;n20 -->
<g id="edge19" class="edge">
<title>n17&#45;&gt;n20</title>
<path fill="none" stroke="#555555" d="M880.23,-186C896.02,-186 915.21,-186 933.2,-186"/>
<polygon fill="#555555" stroke="#555555" points="933.33,-189.5 943.33,-186 933.33,-182.5 933.33,-189.5"/>
</g>
<!-- n18 -->
<g id="node11" class="node">
<title>n18</title>
<path fill="#e8f4f8" stroke="black" d="M1248,-204C1248,-204 1118,-204 1118,-204 1112,-204 1106,-198 1106,-192 1106,-192 1106,-180 1106,-180 1106,-174 1112,-168 1118,-168 1118,-168 1248,-168 1248,-168 1254,-168 1260,-174 1260,-180 1260,-180 1260,-192 1260,-192 1260,-198 1254,-204 1248,-204"/>
<text text-anchor="middle" x="1183" y="-183.2" font-family="Helvetica" font-size="11.00">Call Service Main Process</text>
</g>
<!-- n18&#45;&gt;n12 -->
<g id="edge15" class="edge">
<title>n18&#45;&gt;n12</title>
<path fill="none" stroke="#555555" d="M1260.06,-171.55C1275.46,-168.62 1291.86,-165.5 1307.88,-162.46"/>
<polygon fill="#555555" stroke="#555555" points="1308.62,-165.88 1317.79,-160.57 1307.31,-159 1308.62,-165.88"/>
</g>
<!-- n22 -->
<g id="node16" class="node">
<title>n22</title>
<path fill="#ffccbc" stroke="black" d="M1422,-370C1422,-370 1390,-370 1390,-370 1384,-370 1378,-364 1378,-358 1378,-358 1378,-346 1378,-346 1378,-340 1384,-334 1390,-334 1390,-334 1422,-334 1422,-334 1428,-334 1434,-340 1434,-346 1434,-346 1434,-358 1434,-358 1434,-364 1428,-370 1422,-370"/>
<text text-anchor="middle" x="1406" y="-349.2" font-family="Helvetica" font-size="11.00">Reply</text>
</g>
<!-- n18&#45;&gt;n22 -->
<g id="edge21" class="edge">
<title>n18&#45;&gt;n22</title>
<path fill="none" stroke="#555555" d="M1208.07,-204.08C1248.01,-234.08 1327.99,-294.16 1372.76,-327.78"/>
<polygon fill="#555555" stroke="#555555" points="1370.86,-330.73 1380.96,-333.94 1375.06,-325.14 1370.86,-330.73"/>
</g>
<!-- n19&#45;&gt;n14 -->
<g id="edge18" class="edge">
<title>n19&#45;&gt;n14</title>
<path fill="none" stroke="#555555" d="M1857.25,-250.99C1876.56,-238.89 1902.22,-222.82 1923.18,-209.69"/>
<polygon fill="#555555" stroke="#555555" points="1925.23,-212.54 1931.85,-204.26 1921.52,-206.6 1925.23,-212.54"/>
</g>
<!-- n21 -->
<g id="node15" class="node">
<title>n21</title>
<path fill="#e8f4f8" stroke="black" d="M1983,-370C1983,-370 1941,-370 1941,-370 1935,-370 1929,-364 1929,-358 1929,-358 1929,-346 1929,-346 1929,-340 1935,-334 1941,-334 1941,-334 1983,-334 1983,-334 1989,-334 1995,-340 1995,-346 1995,-346 1995,-358 1995,-358 1995,-364 1989,-370 1983,-370"/>
<text text-anchor="middle" x="1962" y="-349.2" font-family="Helvetica" font-size="11.00">LogEnd</text>
</g>
<!-- n19&#45;&gt;n21 -->
<g id="edge32" class="edge">
<title>n19&#45;&gt;n21</title>
<path fill="none" stroke="#555555" d="M1857.25,-287.01C1876.56,-299.11 1902.22,-315.18 1923.18,-328.31"/>
<polygon fill="#555555" stroke="#555555" points="1921.52,-331.4 1931.85,-333.74 1925.23,-325.46 1921.52,-331.4"/>
</g>
<!-- n19&#45;&gt;n9 -->
<g id="edge17" class="edge">
<title>n19&#45;&gt;n9</title>
<path fill="none" stroke="#555555" d="M1869.14,-269C1914.22,-269 1988.04,-269 2044.49,-269"/>
<polygon fill="#555555" stroke="#555555" points="2044.82,-272.5 2054.82,-269 2044.82,-265.5 2044.82,-272.5"/>
</g>
<!-- n3 -->
<g id="node19" class="node">
<title>n3</title>
<path fill="#ffccbc" stroke="black" d="M694,-75C694,-75 664,-75 664,-75 658,-75 652,-69 652,-63 652,-63 652,-51 652,-51 652,-45 658,-39 664,-39 664,-39 694,-39 694,-39 700,-39 706,-45 706,-51 706,-51 706,-63 706,-63 706,-69 700,-75 694,-75"/>
<text text-anchor="middle" x="679" y="-54.2" font-family="Helvetica" font-size="11.00">end</text>
</g>
<!-- n2&#45;&gt;n3 -->
<g id="edge2" class="edge">
<title>n2&#45;&gt;n3</title>
<path fill="none" stroke="#555555" d="M531.1,-86.75C565.71,-79.74 610.76,-70.62 641.79,-64.33"/>
<polygon fill="#555555" stroke="#555555" points="642.64,-67.73 651.75,-62.32 641.25,-60.87 642.64,-67.73"/>
</g>
<!-- n20&#45;&gt;n12 -->
<g id="edge34" class="edge">
<title>n20&#45;&gt;n12</title>
<path fill="none" stroke="#555555" d="M1034.06,-167.99C1055.03,-159.52 1081.4,-150.35 1106,-146 1172.69,-134.22 1249.05,-133.93 1307.91,-136.47"/>
<polygon fill="#555555" stroke="#555555" points="1307.8,-139.97 1317.95,-136.94 1308.12,-132.98 1307.8,-139.97"/>
</g>
<!-- n20&#45;&gt;n18 -->
<g id="edge33" class="edge">
<title>n20&#45;&gt;n18</title>
<path fill="none" stroke="#555555" d="M1042.9,-186C1059.06,-186 1077.55,-186 1095.65,-186"/>
<polygon fill="#555555" stroke="#555555" points="1095.65,-189.5 1105.65,-186 1095.65,-182.5 1095.65,-189.5"/>
</g>
<!-- n21&#45;&gt;n9 -->
<g id="edge20" class="edge">
<title>n21&#45;&gt;n9</title>
<path fill="none" stroke="#555555" d="M1995.38,-335.2C2019.47,-322.7 2052.63,-305.5 2079.11,-291.77"/>
<polygon fill="#555555" stroke="#555555" points="2080.91,-294.78 2088.17,-287.07 2077.69,-288.56 2080.91,-294.78"/>
</g>
<!-- n22&#45;&gt;n21 -->
<g id="edge22" class="edge">
<title>n22&#45;&gt;n21</title>
<path fill="none" stroke="#555555" d="M1434.1,-352C1523.55,-352 1809.94,-352 1918.63,-352"/>
<polygon fill="#555555" stroke="#555555" points="1918.88,-355.5 1928.88,-352 1918.88,-348.5 1918.88,-355.5"/>
</g>
<!-- n23 -->
<g id="node17" class="node">
<title>n23</title>
<path fill="#ffcdd2" stroke="black" d="M1716,-287C1716,-287 1564,-287 1564,-287 1558,-287 1552,-281 1552,-275 1552,-275 1552,-263 1552,-263 1552,-257 1558,-251 1564,-251 1564,-251 1716,-251 1716,-251 1722,-251 1728,-257 1728,-263 1728,-263 1728,-275 1728,-275 1728,-281 1722,-287 1716,-287"/>
<text text-anchor="middle" x="1640" y="-266.2" font-family="Helvetica" font-size="11.00">Call System Exception Handler</text>
</g>
<!-- n22&#45;&gt;n23 -->
<g id="edge23" class="edge">
<title>n22&#45;&gt;n23</title>
<path fill="none" stroke="#555555" d="M1434.07,-342.32C1469.4,-329.67 1532.26,-307.19 1579.07,-290.44"/>
<polygon fill="#555555" stroke="#555555" points="1580.27,-293.73 1588.5,-287.07 1577.91,-287.14 1580.27,-293.73"/>
</g>
<!-- n23&#45;&gt;n14 -->
<g id="edge26" class="edge">
<title>n23&#45;&gt;n14</title>
<path fill="none" stroke="#555555" d="M1707.35,-250.91C1732.02,-244.25 1760.27,-236.7 1786,-230 1830.43,-218.44 1881.33,-205.7 1916.74,-196.91"/>
<polygon fill="#555555" stroke="#555555" points="1917.89,-200.24 1926.75,-194.43 1916.21,-193.44 1917.89,-200.24"/>
</g>
<!-- n23&#45;&gt;n19 -->
<g id="edge25" class="edge">
<title>n23&#45;&gt;n19</title>
<path fill="none" stroke="#555555" d="M1728.05,-269C1744.26,-269 1760.7,-269 1775.39,-269"/>
<polygon fill="#555555" stroke="#555555" points="1775.74,-272.5 1785.74,-269 1775.74,-265.5 1775.74,-272.5"/>
</g>
<!-- n24&#45;&gt;n16 -->
<g id="edge27" class="edge">
<title>n24&#45;&gt;n16</title>
<path fill="none" stroke="#555555" d="M548.19,-186C563.4,-186 579.7,-186 595.43,-186"/>
<polygon fill="#555555" stroke="#555555" points="595.67,-189.5 605.67,-186 595.67,-182.5 595.67,-189.5"/>
</g>
<!-- n6 -->
<g id="node22" class="node">
<title>n6</title>
<path fill="#e8f4f8" stroke="black" d="M694,-287C694,-287 664,-287 664,-287 658,-287 652,-281 652,-275 652,-275 652,-263 652,-263 652,-257 658,-251 664,-251 664,-251 694,-251 694,-251 700,-251 706,-257 706,-263 706,-263 706,-275 706,-275 706,-281 700,-287 694,-287"/>
<text text-anchor="middle" x="679" y="-266.2" font-family="Helvetica" font-size="11.00">Null</text>
</g>
<!-- n24&#45;&gt;n6 -->
<g id="edge28" class="edge">
<title>n24&#45;&gt;n6</title>
<path fill="none" stroke="#555555" d="M523.35,-204.01C558.98,-218.98 609.07,-240.03 642.49,-254.08"/>
<polygon fill="#555555" stroke="#555555" points="641.29,-257.37 651.87,-258.02 644,-250.92 641.29,-257.37"/>
</g>
<!-- n5 -->
<g id="node21" class="node">
<title>n5</title>
<path fill="#e8f4f8" stroke="black" d="M524,-36C524,-36 435,-36 435,-36 429,-36 423,-30 423,-24 423,-24 423,-12 423,-12 423,-6 429,0 435,0 435,0 524,0 524,0 530,0 536,-6 536,-12 536,-12 536,-24 536,-24 536,-30 530,-36 524,-36"/>
<text text-anchor="middle" x="479.5" y="-15.2" font-family="Helvetica" font-size="11.00">OperationReply&#45;1</text>
</g>
<!-- n4&#45;&gt;n5 -->
<g id="edge6" class="edge">
<title>n4&#45;&gt;n5</title>
<path fill="none" stroke="#555555" d="M353.11,-18C372.75,-18 393.66,-18 412.65,-18"/>
<polygon fill="#555555" stroke="#555555" points="412.69,-21.5 422.69,-18 412.69,-14.5 412.69,-21.5"/>
</g>
<!-- n5&#45;&gt;n3 -->
<g id="edge5" class="edge">
<title>n5&#45;&gt;n3</title>
<path fill="none" stroke="#555555" d="M536.04,-28.97C569.92,-35.66 612.26,-44.02 641.85,-49.86"/>
<polygon fill="#555555" stroke="#555555" points="641.26,-53.31 651.74,-51.82 642.61,-46.44 641.26,-53.31"/>
</g>
<!-- n7 -->
<g id="node23" class="node">
<title>n7</title>
<path fill="#e8f4f8" stroke="black" d="M1036,-287C1036,-287 950,-287 950,-287 944,-287 938,-281 938,-275 938,-275 938,-263 938,-263 938,-257 944,-251 950,-251 950,-251 1036,-251 1036,-251 1042,-251 1048,-257 1048,-263 1048,-263 1048,-275 1048,-275 1048,-281 1042,-287 1036,-287"/>
<text text-anchor="middle" x="993" y="-266.2" font-family="Helvetica" font-size="11.00">InvocationDetails</text>
</g>
<!-- n6&#45;&gt;n7 -->
<g id="edge7" class="edge">
<title>n6&#45;&gt;n7</title>
<path fill="none" stroke="#555555" d="M706.06,-269C754.4,-269 859.24,-269 927.65,-269"/>
<polygon fill="#555555" stroke="#555555" points="927.89,-272.5 937.89,-269 927.89,-265.5 927.89,-272.5"/>
</g>
<!-- n7&#45;&gt;n23 -->
<g id="edge31" class="edge">
<title>n7&#45;&gt;n23</title>
<path fill="none" stroke="#555555" d="M1048.16,-269C1157.1,-269 1404.06,-269 1541.71,-269"/>
<polygon fill="#555555" stroke="#555555" points="1541.84,-272.5 1551.84,-269 1541.84,-265.5 1541.84,-272.5"/>
</g>
<!-- n8 -->
<g id="node24" class="node">
<title>n8</title>
<path fill="#c8e6c9" stroke="black" d="M126,-223C126,-223 12,-223 12,-223 6,-223 0,-217 0,-211 0,-211 0,-199 0,-199 0,-193 6,-187 12,-187 12,-187 126,-187 126,-187 132,-187 138,-193 138,-199 138,-199 138,-211 138,-211 138,-217 132,-223 126,-223"/>
<text text-anchor="middle" x="69" y="-202.2" font-family="Helvetica" font-size="11.00">Receive JMS Message</text>
</g>
<!-- n8&#45;&gt;n11 -->
<g id="edge10" class="edge">
<title>n8&#45;&gt;n11</title>
<path fill="none" stroke="#555555" d="M138.05,-198.65C156.08,-196.96 175.71,-195.13 194.28,-193.4"/>
<polygon fill="#555555" stroke="#555555" points="194.85,-196.86 204.48,-192.44 194.2,-189.89 194.85,-196.86"/>
</g>
<!-- n8&#45;&gt;n6 -->
<g id="edge8" class="edge">
<title>n8&#45;&gt;n6</title>
<path fill="none" stroke="#555555" d="M138.2,-217.34C156.89,-220.46 177.19,-223.6 196,-226 361.89,-247.19 561.23,-261.43 641.69,-266.71"/>
<polygon fill="#555555" stroke="#555555" points="641.59,-270.21 651.8,-267.37 642.05,-263.23 641.59,-270.21"/>
</g>
<!-- n9&#45;&gt;n10 -->
<g id="edge9" class="edge">
<title>n9&#45;&gt;n10</title>
<path fill="none" stroke="#555555" d="M2193.02,-269C2248.66,-269 2325.18,-269 2369.74,-269"/>
<polygon fill="#555555" stroke="#555555" points="2369.81,-272.5 2379.81,-269 2369.81,-265.5 2369.81,-272.5"/>
</g>
<!-- n9&#45;&gt;n15 -->
<g id="edge13" class="edge">
<title>n9&#45;&gt;n15</title>
<path fill="none" stroke="#555555" d="M2193.07,-286.81C2209.17,-291.03 2225.95,-295.42 2240.72,-299.28"/>
<polygon fill="#555555" stroke="#555555" points="2240.03,-302.72 2250.59,-301.86 2241.8,-295.95 2240.03,-302.72"/>
</g>
</g>
</svg>
