<?xml version="1.0" encoding="UTF-8" standalone="no"?>
<!DOCTYPE svg PUBLIC "-//W3C//DTD SVG 1.1//EN"
 "http://www.w3.org/Graphics/SVG/1.1/DTD/svg11.dtd">
<!-- Generated by graphviz version 2.44.0 (0)
 -->
<!-- Title: process Pages: 1 -->
<svg width="795pt" height="187pt"
 viewBox="0.00 0.00 795.00 187.00" xmlns="http://www.w3.org/2000/svg" xmlns:xlink="http://www.w3.org/1999/xlink">
<g id="graph0" class="graph" transform="scale(1 1) rotate(0) translate(36 151)">
<title>process</title>
<polygon fill="#ffffff" stroke="transparent" points="-36,36 -36,-151 759,-151 759,36 -36,36"/>
<!-- n0 -->
<g id="node1" class="node">
<title>n0</title>
<path fill="#e8f4f8" stroke="black" d="M599,-115C599,-115 474,-115 474,-115 468,-115 462,-109 462,-103 462,-103 462,-91 462,-91 462,-85 468,-79 474,-79 474,-79 599,-79 599,-79 605,-79 611,-85 611,-91 611,-91 611,-103 611,-103 611,-109 605,-115 599,-115"/>
<text text-anchor="middle" x="536.5" y="-94.2" font-family="Helvetica" font-size="11.00">GetOutOfBundleCharges</text>
</g>
<!-- n1 -->
<g id="node2" class="node">
<title>n1</title>
<path fill="#ffccbc" stroke="black" d="M711,-115C711,-115 681,-115 681,-115 675,-115 669,-109 669,-103 669,-103 669,-91 669,-91 669,-85 675,-79 681,-79 681,-79 711,-79 711,-79 717,-79 723,-85 723,-91 723,-91 723,-103 723,-103 723,-109 717,-115 711,-115"/>
<text text-anchor="middle" x="696" y="-94.2" font-family="Helvetica" font-size="11.00">End</text>
</g>
<!-- n0&#45;&gt;n1 -->
<g id="edge1" class="edge">
<title>n0&#45;&gt;n1</title>
<path fill="none" stroke="#555555" d="M611.18,-97C627.64,-97 644.39,-97 658.56,-97"/>
<polygon fill="#555555" stroke="#555555" points="658.83,-100.5 668.83,-97 658.83,-93.5 658.83,-100.5"/>
</g>
<!-- n2 -->
<g id="node3" class="node">
<title>n2</title>
<path fill="#e8f4f8" stroke="black" d="M392,-115C392,-115 289,-115 289,-115 283,-115 277,-109 277,-103 277,-103 277,-91 277,-91 277,-85 283,-79 289,-79 289,-79 392,-79 392,-79 398,-79 404,-85 404,-91 404,-91 404,-103 404,-103 404,-109 398,-115 392,-115"/>
<text text-anchor="middle" x="340.5" y="-94.2" font-family="Helvetica" font-size="11.00">GetPrimaryMSISDN</text>
</g>
<!-- n2&#45;&gt;n0 -->
<g id="edge2" class="edge">
<title>n2&#45;&gt;n0</title>
<path fill="none" stroke="#555555" d="M404.22,-97C419.29,-97 435.64,-97 451.5,-97"/>
<polygon fill="#555555" stroke="#555555" points="451.85,-100.5 461.85,-97 451.85,-93.5 451.85,-100.5"/>
</g>
<!-- n3 -->
<g id="node4" class="node">
<title>n3</title>
<path fill="#c8e6c9" stroke="black" d="M42,-75C42,-75 12,-75 12,-75 6,-75 0,-69 0,-63 0,-63 0,-51 0,-51 0,-45 6,-39 12,-39 12,-39 42,-39 42,-39 48,-39 54,-45 54,-51 54,-51 54,-63 54,-63 54,-69 48,-75 42,-75"/>
<text text-anchor="middle" x="27" y="-54.2" font-family="Helvetica" font-size="11.00">Start</text>
</g>
<!-- n4 -->
<g id="node5" class="node">
<title>n4</title>
<path fill="#e8f4f8" stroke="black" d="M207,-75C207,-75 124,-75 124,-75 118,-75 112,-69 112,-63 112,-63 112,-51 112,-51 112,-45 118,-39 124,-39 124,-39 207,-39 207,-39 213,-39 219,-45 219,-51 219,-51 219,-63 219,-63 219,-69 213,-75 207,-75"/>
<text text-anchor="middle" x="165.5" y="-54.2" font-family="Helvetica" font-size="11.00">ValidateRequest</text>
</g>
<!-- n3&#45;&gt;n4 -->
<g id="edge3" class="edge">
<title>n3&#45;&gt;n4</title>
<path fill="none" stroke="#555555" d="M54.32,-57C67.86,-57 84.99,-57 101.68,-57"/>
<polygon fill="#555555" stroke="#555555" points="101.98,-60.5 111.98,-57 101.98,-53.5 101.98,-60.5"/>
</g>
<!-- n4&#45;&gt;n2 -->
<g id="edge4" class="edge">
<title>n4&#45;&gt;n2</title>
<path fill="none" stroke="#555555" d="M219.35,-69.22C234.4,-72.7 251.08,-76.56 267.09,-80.26"/>
<polygon fill="#555555" stroke="#555555" points="266.42,-83.69 276.95,-82.54 267.99,-76.87 266.42,-83.69"/>
</g>
<!-- n5 -->
<g id="node6" class="node">
<title>n5</title>
<path fill="#ffcdd2" stroke="black" d="M379,-36C379,-36 302,-36 302,-36 296,-36 290,-30 290,-24 290,-24 290,-12 290,-12 290,-6 296,0 302,0 302,0 379,0 379,0 385,0 391,-6 391,-12 391,-12 391,-24 391,-24 391,-30 385,-36 379,-36"/>
<text text-anchor="middle" x="340.5" y="-15.2" font-family="Helvetica" font-size="11.00">Generate Error</text>
</g>
<!-- n4&#45;&gt;n5 -->
<g id="edge5" class="edge">
<title>n4&#45;&gt;n5</title>
<path fill="none" stroke="#555555" d="M219.35,-45.09C238.56,-40.76 260.39,-35.83 280.13,-31.38"/>
<polygon fill="#555555" stroke="#555555" points="280.95,-34.79 289.93,-29.17 279.41,-27.96 280.95,-34.79"/>
</g>
</g>
</svg>
