<?xml version="1.0" encoding="UTF-8" standalone="no"?>
<!DOCTYPE svg PUBLIC "-//W3C//DTD SVG 1.1//EN"
 "http://www.w3.org/Graphics/SVG/1.1/DTD/svg11.dtd">
<!-- Generated by graphviz version 2.44.0 (0)
 -->
<!-- Title: process Pages: 1 -->
<svg width="1741pt" height="430pt"
 viewBox="0.00 0.00 1741.00 430.00" xmlns="http://www.w3.org/2000/svg" xmlns:xlink="http://www.w3.org/1999/xlink">
<g id="graph0" class="graph" transform="scale(1 1) rotate(0) translate(36 394)">
<title>process</title>
<polygon fill="#ffffff" stroke="transparent" points="-36,36 -36,-394 1705,-394 1705,36 -36,36"/>
<!-- n0 -->
<g id="node1" class="node">
<title>n0</title>
<path fill="#ffcdd2" stroke="black" d="M1545,-151C1545,-151 1495,-151 1495,-151 1489,-151 1483,-145 1483,-139 1483,-139 1483,-127 1483,-127 1483,-121 1489,-115 1495,-115 1495,-115 1545,-115 1545,-115 1551,-115 1557,-121 1557,-127 1557,-127 1557,-139 1557,-139 1557,-145 1551,-151 1545,-151"/>
<text text-anchor="middle" x="1520" y="-130.2" font-family="Helvetica" font-size="11.00">Log Error</text>
</g>
<!-- n1 -->
<g id="node2" class="node">
<title>n1</title>
<path fill="#ffccbc" stroke="black" d="M1657,-109C1657,-109 1627,-109 1627,-109 1621,-109 1615,-103 1615,-97 1615,-97 1615,-85 1615,-85 1615,-79 1621,-73 1627,-73 1627,-73 1657,-73 1657,-73 1663,-73 1669,-79 1669,-85 1669,-85 1669,-97 1669,-97 1669,-103 1663,-109 1657,-109"/>
<text text-anchor="middle" x="1642" y="-88.2" font-family="Helvetica" font-size="11.00">End</text>
</g>
<!-- n0&#45;&gt;n1 -->
<g id="edge1" class="edge">
<title>n0&#45;&gt;n1</title>
<path fill="none" stroke="#555555" d="M1557,-120.4C1572.29,-115.05 1590.07,-108.82 1605.33,-103.49"/>
<polygon fill="#555555" stroke="#555555" points="1606.65,-106.73 1614.94,-100.12 1604.34,-100.12 1606.65,-106.73"/>
</g>
<!-- n10 -->
<g id="node3" class="node">
<title>n10</title>
<path fill="#e8f4f8" stroke="black" d="M1102,-192C1102,-192 998,-192 998,-192 992,-192 986,-186 986,-180 986,-180 986,-168 986,-168 986,-162 992,-156 998,-156 998,-156 1102,-156 1102,-156 1108,-156 1114,-162 1114,-168 1114,-168 1114,-180 1114,-180 1114,-186 1108,-192 1102,-192"/>
<text text-anchor="middle" x="1050" y="-171.2" font-family="Helvetica" font-size="11.00">MapOperationStatus</text>
</g>
<!-- n12 -->
<g id="node5" class="node">
<title>n12</title>
<path fill="#e8f4f8" stroke="black" d="M1255,-192C1255,-192 1184,-192 1184,-192 1178,-192 1172,-186 1172,-180 1172,-180 1172,-168 1172,-168 1172,-162 1178,-156 1184,-156 1184,-156 1255,-156 1255,-156 1261,-156 1267,-162 1267,-168 1267,-168 1267,-180 1267,-180 1267,-186 1261,-192 1255,-192"/>
<text text-anchor="middle" x="1219.5" y="-171.2" font-family="Helvetica" font-size="11.00">MapOpStatus</text>
</g>
<!-- n10&#45;&gt;n12 -->
<g id="edge16" class="edge">
<title>n10&#45;&gt;n12</title>
<path fill="none" stroke="#555555" d="M1114.32,-174C1129.83,-174 1146.33,-174 1161.52,-174"/>
<polygon fill="#555555" stroke="#555555" points="1161.8,-177.5 1171.8,-174 1161.8,-170.5 1161.8,-177.5"/>
</g>
<!-- n4 -->
<g id="node9" class="node">
<title>n4</title>
<path fill="#e8f4f8" stroke="black" d="M1413,-109C1413,-109 1337,-109 1337,-109 1331,-109 1325,-103 1325,-97 1325,-97 1325,-85 1325,-85 1325,-79 1331,-73 1337,-73 1337,-73 1413,-73 1413,-73 1419,-73 1425,-79 1425,-85 1425,-85 1425,-97 1425,-97 1425,-103 1419,-109 1413,-109"/>
<text text-anchor="middle" x="1375" y="-88.2" font-family="Helvetica" font-size="11.00">AuditEndEvent</text>
</g>
<!-- n10&#45;&gt;n4 -->
<g id="edge15" class="edge">
<title>n10&#45;&gt;n4</title>
<path fill="none" stroke="#555555" d="M1101.55,-155.92C1123.1,-148.57 1148.62,-140.33 1172,-134 1219.54,-121.12 1274.22,-109.69 1314.69,-101.85"/>
<polygon fill="#555555" stroke="#555555" points="1315.5,-105.26 1324.66,-99.94 1314.18,-98.38 1315.5,-105.26"/>
</g>
<!-- n11 -->
<g id="node4" class="node">
<title>n11</title>
<path fill="#e8f4f8" stroke="black" d="M762,-192C762,-192 671,-192 671,-192 665,-192 659,-186 659,-180 659,-180 659,-168 659,-168 659,-162 665,-156 671,-156 671,-156 762,-156 762,-156 768,-156 774,-162 774,-168 774,-168 774,-180 774,-180 774,-186 768,-192 762,-192"/>
<text text-anchor="middle" x="716.5" y="-171.2" font-family="Helvetica" font-size="11.00">Parse&#45;JSON&#45;TMF</text>
</g>
<!-- n11&#45;&gt;n10 -->
<g id="edge13" class="edge">
<title>n11&#45;&gt;n10</title>
<path fill="none" stroke="#555555" d="M774.11,-174C829.7,-174 914.77,-174 975.55,-174"/>
<polygon fill="#555555" stroke="#555555" points="975.84,-177.5 985.84,-174 975.84,-170.5 975.84,-177.5"/>
</g>
<!-- n7 -->
<g id="node12" class="node">
<title>n7</title>
<path fill="#e8f4f8" stroke="black" d="M916,-275C916,-275 844,-275 844,-275 838,-275 832,-269 832,-263 832,-263 832,-251 832,-251 832,-245 838,-239 844,-239 844,-239 916,-239 916,-239 922,-239 928,-245 928,-251 928,-251 928,-263 928,-263 928,-269 922,-275 916,-275"/>
<text text-anchor="middle" x="880" y="-254.2" font-family="Helvetica" font-size="11.00">ErrorScenario</text>
</g>
<!-- n11&#45;&gt;n7 -->
<g id="edge14" class="edge">
<title>n11&#45;&gt;n7</title>
<path fill="none" stroke="#555555" d="M752.54,-192.01C776.59,-204.37 808.69,-220.87 834.54,-234.15"/>
<polygon fill="#555555" stroke="#555555" points="833.25,-237.42 843.75,-238.88 836.45,-231.2 833.25,-237.42"/>
</g>
<!-- n12&#45;&gt;n4 -->
<g id="edge17" class="edge">
<title>n12&#45;&gt;n4</title>
<path fill="none" stroke="#555555" d="M1253.81,-155.99C1276.56,-143.69 1306.91,-127.28 1331.41,-114.03"/>
<polygon fill="#555555" stroke="#555555" points="1333.36,-116.95 1340.49,-109.12 1330.03,-110.8 1333.36,-116.95"/>
</g>
<!-- n13 -->
<g id="node6" class="node">
<title>n13</title>
<path fill="#e8f4f8" stroke="black" d="M589,-92C589,-92 496,-92 496,-92 490,-92 484,-86 484,-80 484,-80 484,-68 484,-68 484,-62 490,-56 496,-56 496,-56 589,-56 589,-56 595,-56 601,-62 601,-68 601,-68 601,-80 601,-80 601,-86 595,-92 589,-92"/>
<text text-anchor="middle" x="542.5" y="-71.2" font-family="Helvetica" font-size="11.00">SummaryDisabled</text>
</g>
<!-- n13&#45;&gt;n4 -->
<g id="edge20" class="edge">
<title>n13&#45;&gt;n4</title>
<path fill="none" stroke="#555555" d="M593.05,-55.99C657.86,-34.09 775.36,0 879,0 879,0 879,0 1051,0 1151.92,0 1264.16,-41.67 1326.19,-68.61"/>
<polygon fill="#555555" stroke="#555555" points="1325.14,-71.98 1335.71,-72.8 1327.96,-65.57 1325.14,-71.98"/>
</g>
<!-- n2 -->
<g id="node7" class="node">
<title>n2</title>
<path fill="#c8e6c9" stroke="black" d="M42,-172C42,-172 12,-172 12,-172 6,-172 0,-166 0,-160 0,-160 0,-148 0,-148 0,-142 6,-136 12,-136 12,-136 42,-136 42,-136 48,-136 54,-142 54,-148 54,-148 54,-160 54,-160 54,-166 48,-172 42,-172"/>
<text text-anchor="middle" x="27" y="-151.2" font-family="Helvetica" font-size="11.00">Start</text>
</g>
<!-- n3 -->
<g id="node8" class="node">
<title>n3</title>
<path fill="#e8f4f8" stroke="black" d="M244,-172C244,-172 124,-172 124,-172 118,-172 112,-166 112,-160 112,-160 112,-148 112,-148 112,-142 118,-136 124,-136 124,-136 244,-136 244,-136 250,-136 256,-142 256,-148 256,-148 256,-160 256,-160 256,-166 250,-172 244,-172"/>
<text text-anchor="middle" x="184" y="-151.2" font-family="Helvetica" font-size="11.00">CheckSummaryLogging</text>
</g>
<!-- n2&#45;&gt;n3 -->
<g id="edge2" class="edge">
<title>n2&#45;&gt;n3</title>
<path fill="none" stroke="#555555" d="M54.29,-154C67.58,-154 84.5,-154 101.67,-154"/>
<polygon fill="#555555" stroke="#555555" points="101.78,-157.5 111.78,-154 101.78,-150.5 101.78,-157.5"/>
</g>
<!-- n3&#45;&gt;n13 -->
<g id="edge19" class="edge">
<title>n3&#45;&gt;n13</title>
<path fill="none" stroke="#555555" d="M256.29,-138C319.61,-123.79 411.52,-103.17 473.75,-89.2"/>
<polygon fill="#555555" stroke="#555555" points="474.87,-92.54 483.86,-86.93 473.33,-85.71 474.87,-92.54"/>
</g>
<!-- n5 -->
<g id="node10" class="node">
<title>n5</title>
<path fill="#e8f4f8" stroke="black" d="M414,-244C414,-244 326,-244 326,-244 320,-244 314,-238 314,-232 314,-232 314,-220 314,-220 314,-214 320,-208 326,-208 326,-208 414,-208 414,-208 420,-208 426,-214 426,-220 426,-220 426,-232 426,-232 426,-238 420,-244 414,-244"/>
<text text-anchor="middle" x="370" y="-223.2" font-family="Helvetica" font-size="11.00">InterfaceIdentifier</text>
</g>
<!-- n3&#45;&gt;n5 -->
<g id="edge18" class="edge">
<title>n3&#45;&gt;n5</title>
<path fill="none" stroke="#555555" d="M231.43,-172.17C256.37,-181.93 287.28,-194.02 313.48,-204.28"/>
<polygon fill="#555555" stroke="#555555" points="312.32,-207.58 322.9,-207.96 314.87,-201.06 312.32,-207.58"/>
</g>
<!-- n4&#45;&gt;n0 -->
<g id="edge3" class="edge">
<title>n4&#45;&gt;n0</title>
<path fill="none" stroke="#555555" d="M1425.21,-105.45C1440.72,-110.01 1457.78,-115.02 1473.05,-119.51"/>
<polygon fill="#555555" stroke="#555555" points="1472.22,-122.91 1482.8,-122.37 1474.19,-116.19 1472.22,-122.91"/>
</g>
<!-- n4&#45;&gt;n1 -->
<g id="edge4" class="edge">
<title>n4&#45;&gt;n1</title>
<path fill="none" stroke="#555555" d="M1425.22,-91C1477.3,-91 1558.23,-91 1604.76,-91"/>
<polygon fill="#555555" stroke="#555555" points="1604.98,-94.5 1614.98,-91 1604.98,-87.5 1604.98,-94.5"/>
</g>
<!-- n6 -->
<g id="node11" class="node">
<title>n6</title>
<path fill="#e8f4f8" stroke="black" d="M745.5,-358C745.5,-358 687.5,-358 687.5,-358 681.5,-358 675.5,-352 675.5,-346 675.5,-346 675.5,-334 675.5,-334 675.5,-328 681.5,-322 687.5,-322 687.5,-322 745.5,-322 745.5,-322 751.5,-322 757.5,-328 757.5,-334 757.5,-334 757.5,-346 757.5,-346 757.5,-352 751.5,-358 745.5,-358"/>
<text text-anchor="middle" x="716.5" y="-337.2" font-family="Helvetica" font-size="11.00">Parse XML</text>
</g>
<!-- n5&#45;&gt;n6 -->
<g id="edge5" class="edge">
<title>n5&#45;&gt;n6</title>
<path fill="none" stroke="#555555" d="M398.22,-244.17C420.45,-258.25 453.13,-277.28 484,-289 544.22,-311.86 617.34,-325.83 665.07,-333.23"/>
<polygon fill="#555555" stroke="#555555" points="664.75,-336.72 675.16,-334.76 665.79,-329.8 664.75,-336.72"/>
</g>
<!-- n5&#45;&gt;n7 -->
<g id="edge6" class="edge">
<title>n5&#45;&gt;n7</title>
<path fill="none" stroke="#555555" d="M426.33,-229.38C523.44,-235.3 723.56,-247.51 821.9,-253.52"/>
<polygon fill="#555555" stroke="#555555" points="821.76,-257.01 831.95,-254.13 822.18,-250.03 821.76,-257.01"/>
</g>
<!-- n8 -->
<g id="node13" class="node">
<title>n8</title>
<path fill="#e8f4f8" stroke="black" d="M572,-192C572,-192 513,-192 513,-192 507,-192 501,-186 501,-180 501,-180 501,-168 501,-168 501,-162 507,-156 513,-156 513,-156 572,-156 572,-156 578,-156 584,-162 584,-168 584,-168 584,-180 584,-180 584,-186 578,-192 572,-192"/>
<text text-anchor="middle" x="542.5" y="-171.2" font-family="Helvetica" font-size="11.00">JSON&#45;TMF</text>
</g>
<!-- n5&#45;&gt;n8 -->
<g id="edge7" class="edge">
<title>n5&#45;&gt;n8</title>
<path fill="none" stroke="#555555" d="M426.36,-209.12C447.16,-202.77 470.69,-195.6 491.03,-189.39"/>
<polygon fill="#555555" stroke="#555555" points="492.19,-192.7 500.73,-186.43 490.15,-186 492.19,-192.7"/>
</g>
<!-- n6&#45;&gt;n10 -->
<g id="edge22" class="edge">
<title>n6&#45;&gt;n10</title>
<path fill="none" stroke="#555555" d="M757.88,-338.7C802.1,-335.75 873.92,-326.37 928,-297 971.42,-273.42 1009.12,-229.17 1030.44,-200.67"/>
<polygon fill="#555555" stroke="#555555" points="1033.44,-202.5 1036.52,-192.37 1027.79,-198.37 1033.44,-202.5"/>
</g>
<!-- n6&#45;&gt;n7 -->
<g id="edge21" class="edge">
<title>n6&#45;&gt;n7</title>
<path fill="none" stroke="#555555" d="M752.54,-321.99C776.59,-309.63 808.69,-293.13 834.54,-279.85"/>
<polygon fill="#555555" stroke="#555555" points="836.45,-282.8 843.75,-275.12 833.25,-276.58 836.45,-282.8"/>
</g>
<!-- n7&#45;&gt;n10 -->
<g id="edge10" class="edge">
<title>n7&#45;&gt;n10</title>
<path fill="none" stroke="#555555" d="M917.45,-238.99C942.57,-226.58 976.15,-209.99 1003.1,-196.68"/>
<polygon fill="#555555" stroke="#555555" points="1004.91,-199.69 1012.33,-192.12 1001.81,-193.41 1004.91,-199.69"/>
</g>
<!-- n8&#45;&gt;n11 -->
<g id="edge12" class="edge">
<title>n8&#45;&gt;n11</title>
<path fill="none" stroke="#555555" d="M584.26,-174C603.47,-174 626.89,-174 648.6,-174"/>
<polygon fill="#555555" stroke="#555555" points="648.76,-177.5 658.76,-174 648.76,-170.5 648.76,-177.5"/>
</g>
<!-- n9 -->
<g id="node14" class="node">
<title>n9</title>
<path fill="#e8f4f8" stroke="black" d="M749,-113C749,-113 684,-113 684,-113 678,-113 672,-107 672,-101 672,-101 672,-89 672,-89 672,-83 678,-77 684,-77 684,-77 749,-77 749,-77 755,-77 761,-83 761,-89 761,-89 761,-101 761,-101 761,-107 755,-113 749,-113"/>
<text text-anchor="middle" x="716.5" y="-92.2" font-family="Helvetica" font-size="11.00">Parse JSON</text>
</g>
<!-- n8&#45;&gt;n9 -->
<g id="edge11" class="edge">
<title>n8&#45;&gt;n9</title>
<path fill="none" stroke="#555555" d="M582.96,-155.88C607.98,-144.38 640.52,-129.44 667.09,-117.23"/>
<polygon fill="#555555" stroke="#555555" points="668.6,-120.39 676.22,-113.04 665.68,-114.03 668.6,-120.39"/>
</g>
<!-- n9&#45;&gt;n10 -->
<g id="edge8" class="edge">
<title>n9&#45;&gt;n10</title>
<path fill="none" stroke="#555555" d="M761.18,-105.41C815.86,-118.44 910.32,-140.95 976.05,-156.62"/>
<polygon fill="#555555" stroke="#555555" points="975.4,-160.06 985.94,-158.97 977.02,-153.25 975.4,-160.06"/>
</g>
<!-- n9&#45;&gt;n7 -->
<g id="edge9" class="edge">
<title>n9&#45;&gt;n7</title>
<path fill="none" stroke="#555555" d="M746.75,-113.07C755.86,-119.24 765.68,-126.49 774,-134 807.15,-163.91 839.63,-204.13 859.48,-230.3"/>
<polygon fill="#555555" stroke="#555555" points="856.91,-232.7 865.71,-238.6 862.51,-228.5 856.91,-232.7"/>
</g>
</g>
</svg>
