<?xml version="1.0" encoding="UTF-8" standalone="no"?>
<!DOCTYPE svg PUBLIC "-//W3C//DTD SVG 1.1//EN"
 "http://www.w3.org/Graphics/SVG/1.1/DTD/svg11.dtd">
<!-- Generated by graphviz version 2.44.0 (0)
 -->
<!-- Title: process Pages: 1 -->
<svg width="798pt" height="149pt"
 viewBox="0.00 0.00 798.00 149.00" xmlns="http://www.w3.org/2000/svg" xmlns:xlink="http://www.w3.org/1999/xlink">
<g id="graph0" class="graph" transform="scale(1 1) rotate(0) translate(36 113)">
<title>process</title>
<polygon fill="#ffffff" stroke="transparent" points="-36,36 -36,-113 762,-113 762,36 -36,36"/>
<!-- n0 -->
<g id="node1" class="node">
<title>n0</title>
<path fill="#e8f4f8" stroke="black" d="M461,-77C461,-77 365,-77 365,-77 359,-77 353,-71 353,-65 353,-65 353,-53 353,-53 353,-47 359,-41 365,-41 365,-41 461,-41 461,-41 467,-41 473,-47 473,-53 473,-53 473,-65 473,-65 473,-71 467,-77 461,-77"/>
<text text-anchor="middle" x="413" y="-56.2" font-family="Helvetica" font-size="11.00">ResourceIDtoUOM</text>
</g>
<!-- n1 -->
<g id="node2" class="node">
<title>n1</title>
<path fill="#ffccbc" stroke="black" d="M714,-77C714,-77 684,-77 684,-77 678,-77 672,-71 672,-65 672,-65 672,-53 672,-53 672,-47 678,-41 684,-41 684,-41 714,-41 714,-41 720,-41 726,-47 726,-53 726,-53 726,-65 726,-65 726,-71 720,-77 714,-77"/>
<text text-anchor="middle" x="699" y="-56.2" font-family="Helvetica" font-size="11.00">End</text>
</g>
<!-- n0&#45;&gt;n1 -->
<g id="edge1" class="edge">
<title>n0&#45;&gt;n1</title>
<path fill="none" stroke="#555555" d="M473.19,-59C530.02,-59 614.04,-59 661.63,-59"/>
<polygon fill="#555555" stroke="#555555" points="661.78,-62.5 671.78,-59 661.78,-55.5 661.78,-62.5"/>
</g>
<!-- n2 -->
<g id="node3" class="node">
<title>n2</title>
<path fill="#e8f4f8" stroke="black" d="M602,-36C602,-36 543,-36 543,-36 537,-36 531,-30 531,-24 531,-24 531,-12 531,-12 531,-6 537,0 543,0 543,0 602,0 602,0 608,0 614,-6 614,-12 614,-12 614,-24 614,-24 614,-30 608,-36 602,-36"/>
<text text-anchor="middle" x="572.5" y="-15.2" font-family="Helvetica" font-size="11.00">WriteToLog</text>
</g>
<!-- n0&#45;&gt;n2 -->
<g id="edge2" class="edge">
<title>n0&#45;&gt;n2</title>
<path fill="none" stroke="#555555" d="M473.1,-43.62C488.85,-39.52 505.72,-35.12 520.97,-31.15"/>
<polygon fill="#555555" stroke="#555555" points="521.93,-34.52 530.73,-28.61 520.17,-27.75 521.93,-34.52"/>
</g>
<!-- n2&#45;&gt;n1 -->
<g id="edge3" class="edge">
<title>n2&#45;&gt;n1</title>
<path fill="none" stroke="#555555" d="M614.27,-31.42C629.59,-36.47 646.9,-42.17 661.79,-47.07"/>
<polygon fill="#555555" stroke="#555555" points="661.06,-50.52 671.65,-50.32 663.25,-43.87 661.06,-50.52"/>
</g>
<!-- n3 -->
<g id="node4" class="node">
<title>n3</title>
<path fill="#e8f4f8" stroke="black" d="M283,-77C283,-77 124,-77 124,-77 118,-77 112,-71 112,-65 112,-65 112,-53 112,-53 112,-47 118,-41 124,-41 124,-41 283,-41 283,-41 289,-41 295,-47 295,-53 295,-53 295,-65 295,-65 295,-71 289,-77 283,-77"/>
<text text-anchor="middle" x="203.5" y="-56.2" font-family="Helvetica" font-size="11.00">BRMResourceID UOM Mapping</text>
</g>
<!-- n3&#45;&gt;n0 -->
<g id="edge4" class="edge">
<title>n3&#45;&gt;n0</title>
<path fill="none" stroke="#555555" d="M295.21,-59C311.07,-59 327.34,-59 342.52,-59"/>
<polygon fill="#555555" stroke="#555555" points="342.83,-62.5 352.83,-59 342.83,-55.5 342.83,-62.5"/>
</g>
<!-- n4 -->
<g id="node5" class="node">
<title>n4</title>
<path fill="#c8e6c9" stroke="black" d="M42,-77C42,-77 12,-77 12,-77 6,-77 0,-71 0,-65 0,-65 0,-53 0,-53 0,-47 6,-41 12,-41 12,-41 42,-41 42,-41 48,-41 54,-47 54,-53 54,-53 54,-65 54,-65 54,-71 48,-77 42,-77"/>
<text text-anchor="middle" x="27" y="-56.2" font-family="Helvetica" font-size="11.00">Start</text>
</g>
<!-- n4&#45;&gt;n3 -->
<g id="edge5" class="edge">
<title>n4&#45;&gt;n3</title>
<path fill="none" stroke="#555555" d="M54.12,-59C67.16,-59 83.85,-59 101.31,-59"/>
<polygon fill="#555555" stroke="#555555" points="101.65,-62.5 111.65,-59 101.65,-55.5 101.65,-62.5"/>
</g>
</g>
</svg>
