<?xml version="1.0" encoding="UTF-8" standalone="no"?>
<!DOCTYPE svg PUBLIC "-//W3C//DTD SVG 1.1//EN"
 "http://www.w3.org/Graphics/SVG/1.1/DTD/svg11.dtd">
<!-- Generated by graphviz version 2.44.0 (0)
 -->
<!-- Title: process Pages: 1 -->
<svg width="2786pt" height="518pt"
 viewBox="0.00 0.00 2786.00 518.00" xmlns="http://www.w3.org/2000/svg" xmlns:xlink="http://www.w3.org/1999/xlink">
<g id="graph0" class="graph" transform="scale(1 1) rotate(0) translate(36 482)">
<title>process</title>
<polygon fill="#ffffff" stroke="transparent" points="-36,36 -36,-482 2750,-482 2750,36 -36,36"/>
<!-- n0 -->
<g id="node1" class="node">
<title>n0</title>
<path fill="#c8e6c9" stroke="black" d="M84,-76C84,-76 54,-76 54,-76 48,-76 42,-70 42,-64 42,-64 42,-52 42,-52 42,-46 48,-40 54,-40 54,-40 84,-40 84,-40 90,-40 96,-46 96,-52 96,-52 96,-64 96,-64 96,-70 90,-76 84,-76"/>
<text text-anchor="middle" x="69" y="-55.2" font-family="Helvetica" font-size="11.00">start</text>
</g>
<!-- n1 -->
<g id="node2" class="node">
<title>n1</title>
<path fill="#e8f4f8" stroke="black" d="M328.5,-115C328.5,-115 220.5,-115 220.5,-115 214.5,-115 208.5,-109 208.5,-103 208.5,-103 208.5,-91 208.5,-91 208.5,-85 214.5,-79 220.5,-79 220.5,-79 328.5,-79 328.5,-79 334.5,-79 340.5,-85 340.5,-91 340.5,-91 340.5,-103 340.5,-103 340.5,-109 334.5,-115 328.5,-115"/>
<text text-anchor="middle" x="274.5" y="-94.2" font-family="Helvetica" font-size="11.00">Custom&#45;RenderReply</text>
</g>
<!-- n0&#45;&gt;n1 -->
<g id="edge1" class="edge">
<title>n0&#45;&gt;n1</title>
<path fill="none" stroke="#555555" d="M96.19,-63.02C121.9,-67.95 162.35,-75.7 198.13,-82.55"/>
<polygon fill="#555555" stroke="#555555" points="197.6,-86.02 208.08,-84.46 198.91,-79.14 197.6,-86.02"/>
</g>
<!-- n4 -->
<g id="node21" class="node">
<title>n4</title>
<path fill="#e8f4f8" stroke="black" d="M341,-36C341,-36 208,-36 208,-36 202,-36 196,-30 196,-24 196,-24 196,-12 196,-12 196,-6 202,0 208,0 208,0 341,0 341,0 347,0 353,-6 353,-12 353,-12 353,-24 353,-24 353,-30 347,-36 341,-36"/>
<text text-anchor="middle" x="274.5" y="-15.2" font-family="Helvetica" font-size="11.00">Custom&#45;RenderErrorReply</text>
</g>
<!-- n0&#45;&gt;n4 -->
<g id="edge4" class="edge">
<title>n0&#45;&gt;n4</title>
<path fill="none" stroke="#555555" d="M96.19,-52.85C118.95,-48.38 153.28,-41.63 185.68,-35.26"/>
<polygon fill="#555555" stroke="#555555" points="186.52,-38.66 195.66,-33.3 185.17,-31.79 186.52,-38.66"/>
</g>
<!-- n2 -->
<g id="node13" class="node">
<title>n2</title>
<path fill="#e8f4f8" stroke="black" d="M507,-115C507,-115 428,-115 428,-115 422,-115 416,-109 416,-103 416,-103 416,-91 416,-91 416,-85 422,-79 428,-79 428,-79 507,-79 507,-79 513,-79 519,-85 519,-91 519,-91 519,-103 519,-103 519,-109 513,-115 507,-115"/>
<text text-anchor="middle" x="467.5" y="-94.2" font-family="Helvetica" font-size="11.00">OperationReply</text>
</g>
<!-- n1&#45;&gt;n2 -->
<g id="edge3" class="edge">
<title>n1&#45;&gt;n2</title>
<path fill="none" stroke="#555555" d="M340.7,-97C361.68,-97 384.85,-97 405.52,-97"/>
<polygon fill="#555555" stroke="#555555" points="405.76,-100.5 415.76,-97 405.76,-93.5 405.76,-100.5"/>
</g>
<!-- n10 -->
<g id="node3" class="node">
<title>n10</title>
<path fill="#e8f4f8" stroke="black" d="M710,-277C710,-277 594,-277 594,-277 588,-277 582,-271 582,-265 582,-265 582,-253 582,-253 582,-247 588,-241 594,-241 594,-241 710,-241 710,-241 716,-241 722,-247 722,-253 722,-253 722,-265 722,-265 722,-271 716,-277 710,-277"/>
<text text-anchor="middle" x="652" y="-256.2" font-family="Helvetica" font-size="11.00">Prep Invocation Details</text>
</g>
<!-- n24 -->
<g id="node18" class="node">
<title>n24</title>
<path fill="#e8f4f8" stroke="black" d="M905,-279C905,-279 792,-279 792,-279 786,-279 780,-273 780,-267 780,-267 780,-255 780,-255 780,-249 786,-243 792,-243 792,-243 905,-243 905,-243 911,-243 917,-249 917,-255 917,-255 917,-267 917,-267 917,-273 911,-279 905,-279"/>
<text text-anchor="middle" x="848.5" y="-258.2" font-family="Helvetica" font-size="11.00">Custom&#45;ParseRequest</text>
</g>
<!-- n10&#45;&gt;n24 -->
<g id="edge29" class="edge">
<title>n10&#45;&gt;n24</title>
<path fill="none" stroke="#555555" d="M722.12,-259.71C737.53,-259.87 753.96,-260.04 769.69,-260.2"/>
<polygon fill="#555555" stroke="#555555" points="769.87,-263.7 779.91,-260.3 769.94,-256.7 769.87,-263.7"/>
</g>
<!-- n11 -->
<g id="node4" class="node">
<title>n11</title>
<path fill="#ffcdd2" stroke="black" d="M2087,-238C2087,-238 1935,-238 1935,-238 1929,-238 1923,-232 1923,-226 1923,-226 1923,-214 1923,-214 1923,-208 1929,-202 1935,-202 1935,-202 2087,-202 2087,-202 2093,-202 2099,-208 2099,-214 2099,-214 2099,-226 2099,-226 2099,-232 2093,-238 2087,-238"/>
<text text-anchor="middle" x="2011" y="-217.2" font-family="Helvetica" font-size="11.00">Call Service Exception Handler</text>
</g>
<!-- n12 -->
<g id="node5" class="node">
<title>n12</title>
<path fill="#e8f4f8" stroke="black" d="M2449,-195C2449,-195 2416,-195 2416,-195 2410,-195 2404,-189 2404,-183 2404,-183 2404,-171 2404,-171 2404,-165 2410,-159 2416,-159 2416,-159 2449,-159 2449,-159 2455,-159 2461,-165 2461,-171 2461,-171 2461,-183 2461,-183 2461,-189 2455,-195 2449,-195"/>
<text text-anchor="middle" x="2432.5" y="-174.2" font-family="Helvetica" font-size="11.00">Null&#45;1</text>
</g>
<!-- n11&#45;&gt;n12 -->
<g id="edge11" class="edge">
<title>n11&#45;&gt;n12</title>
<path fill="none" stroke="#555555" d="M2099.18,-211.06C2189.87,-201.77 2327.66,-187.64 2393.66,-180.88"/>
<polygon fill="#555555" stroke="#555555" points="2394.03,-184.36 2403.62,-179.86 2393.32,-177.4 2394.03,-184.36"/>
</g>
<!-- n18 -->
<g id="node11" class="node">
<title>n18</title>
<path fill="#ffccbc" stroke="black" d="M2462,-363C2462,-363 2403,-363 2403,-363 2397,-363 2391,-357 2391,-351 2391,-351 2391,-339 2391,-339 2391,-333 2397,-327 2403,-327 2403,-327 2462,-327 2462,-327 2468,-327 2474,-333 2474,-339 2474,-339 2474,-351 2474,-351 2474,-357 2468,-363 2462,-363"/>
<text text-anchor="middle" x="2432.5" y="-342.2" font-family="Helvetica" font-size="11.00">Reply Error</text>
</g>
<!-- n11&#45;&gt;n18 -->
<g id="edge16" class="edge">
<title>n11&#45;&gt;n18</title>
<path fill="none" stroke="#555555" d="M2089.27,-238.05C2154.75,-253.97 2250.83,-278.83 2333,-306 2348.91,-311.26 2365.97,-317.72 2381.34,-323.85"/>
<polygon fill="#555555" stroke="#555555" points="2380.09,-327.12 2390.67,-327.61 2382.71,-320.63 2380.09,-327.12"/>
</g>
<!-- n13 -->
<g id="node6" class="node">
<title>n13</title>
<path fill="#e8f4f8" stroke="black" d="M2590,-280C2590,-280 2544,-280 2544,-280 2538,-280 2532,-274 2532,-268 2532,-268 2532,-256 2532,-256 2532,-250 2538,-244 2544,-244 2544,-244 2590,-244 2590,-244 2596,-244 2602,-250 2602,-256 2602,-256 2602,-268 2602,-268 2602,-274 2596,-280 2590,-280"/>
<text text-anchor="middle" x="2567" y="-259.2" font-family="Helvetica" font-size="11.00">LogFatal</text>
</g>
<!-- n12&#45;&gt;n13 -->
<g id="edge12" class="edge">
<title>n12&#45;&gt;n13</title>
<path fill="none" stroke="#555555" d="M2461.28,-194.82C2481.02,-207.48 2507.74,-224.62 2529.24,-238.42"/>
<polygon fill="#555555" stroke="#555555" points="2527.5,-241.46 2537.8,-243.91 2531.28,-235.57 2527.5,-241.46"/>
</g>
<!-- n19 -->
<g id="node12" class="node">
<title>n19</title>
<path fill="#ffccbc" stroke="black" d="M2702,-363C2702,-363 2672,-363 2672,-363 2666,-363 2660,-357 2660,-351 2660,-351 2660,-339 2660,-339 2660,-333 2666,-327 2672,-327 2672,-327 2702,-327 2702,-327 2708,-327 2714,-333 2714,-339 2714,-339 2714,-351 2714,-351 2714,-357 2708,-363 2702,-363"/>
<text text-anchor="middle" x="2687" y="-342.2" font-family="Helvetica" font-size="11.00">End</text>
</g>
<!-- n13&#45;&gt;n19 -->
<g id="edge24" class="edge">
<title>n13&#45;&gt;n19</title>
<path fill="none" stroke="#555555" d="M2593.6,-280.01C2610.65,-292 2633.24,-307.89 2651.82,-320.96"/>
<polygon fill="#555555" stroke="#555555" points="2649.85,-323.85 2660.04,-326.74 2653.87,-318.12 2649.85,-323.85"/>
</g>
<!-- n14 -->
<g id="node7" class="node">
<title>n14</title>
<path fill="#e8f4f8" stroke="black" d="M491,-194C491,-194 444,-194 444,-194 438,-194 432,-188 432,-182 432,-182 432,-170 432,-170 432,-164 438,-158 444,-158 444,-158 491,-158 491,-158 497,-158 503,-164 503,-170 503,-170 503,-182 503,-182 503,-188 497,-194 491,-194"/>
<text text-anchor="middle" x="467.5" y="-173.2" font-family="Helvetica" font-size="11.00">LogError</text>
</g>
<!-- n14&#45;&gt;n10 -->
<g id="edge25" class="edge">
<title>n14&#45;&gt;n10</title>
<path fill="none" stroke="#555555" d="M503.26,-191.81C531.19,-204.51 570.76,-222.51 601.92,-236.68"/>
<polygon fill="#555555" stroke="#555555" points="600.74,-239.99 611.3,-240.94 603.64,-233.62 600.74,-239.99"/>
</g>
<!-- n15 -->
<g id="node8" class="node">
<title>n15</title>
<path fill="#e8f4f8" stroke="black" d="M1316,-279C1316,-279 1194,-279 1194,-279 1188,-279 1182,-273 1182,-267 1182,-267 1182,-255 1182,-255 1182,-249 1188,-243 1194,-243 1194,-243 1316,-243 1316,-243 1322,-243 1328,-249 1328,-255 1328,-255 1328,-267 1328,-267 1328,-273 1322,-279 1316,-279"/>
<text text-anchor="middle" x="1255" y="-258.2" font-family="Helvetica" font-size="11.00">Comp Invocation Details</text>
</g>
<!-- n16 -->
<g id="node9" class="node">
<title>n16</title>
<path fill="#e8f4f8" stroke="black" d="M1464,-279C1464,-279 1418,-279 1418,-279 1412,-279 1406,-273 1406,-267 1406,-267 1406,-255 1406,-255 1406,-249 1412,-243 1418,-243 1418,-243 1464,-243 1464,-243 1470,-243 1476,-249 1476,-255 1476,-255 1476,-267 1476,-267 1476,-273 1470,-279 1464,-279"/>
<text text-anchor="middle" x="1441" y="-258.2" font-family="Helvetica" font-size="11.00">LogStart</text>
</g>
<!-- n15&#45;&gt;n16 -->
<g id="edge14" class="edge">
<title>n15&#45;&gt;n16</title>
<path fill="none" stroke="#555555" d="M1328.19,-261C1351,-261 1375.51,-261 1395.75,-261"/>
<polygon fill="#555555" stroke="#555555" points="1395.92,-264.5 1405.92,-261 1395.92,-257.5 1395.92,-264.5"/>
</g>
<!-- n20 -->
<g id="node14" class="node">
<title>n20</title>
<path fill="#e8f4f8" stroke="black" d="M1641,-279C1641,-279 1566,-279 1566,-279 1560,-279 1554,-273 1554,-267 1554,-267 1554,-255 1554,-255 1554,-249 1560,-243 1566,-243 1566,-243 1641,-243 1641,-243 1647,-243 1653,-249 1653,-255 1653,-255 1653,-267 1653,-267 1653,-273 1647,-279 1641,-279"/>
<text text-anchor="middle" x="1603.5" y="-258.2" font-family="Helvetica" font-size="11.00">CheckRequest</text>
</g>
<!-- n16&#45;&gt;n20 -->
<g id="edge19" class="edge">
<title>n16&#45;&gt;n20</title>
<path fill="none" stroke="#555555" d="M1476.04,-261C1495.67,-261 1520.89,-261 1543.65,-261"/>
<polygon fill="#555555" stroke="#555555" points="1543.9,-264.5 1553.9,-261 1543.9,-257.5 1543.9,-264.5"/>
</g>
<!-- n17 -->
<g id="node10" class="node">
<title>n17</title>
<path fill="#e8f4f8" stroke="black" d="M1853,-280C1853,-280 1723,-280 1723,-280 1717,-280 1711,-274 1711,-268 1711,-268 1711,-256 1711,-256 1711,-250 1717,-244 1723,-244 1723,-244 1853,-244 1853,-244 1859,-244 1865,-250 1865,-256 1865,-256 1865,-268 1865,-268 1865,-274 1859,-280 1853,-280"/>
<text text-anchor="middle" x="1788" y="-259.2" font-family="Helvetica" font-size="11.00">Call Service Main Process</text>
</g>
<!-- n17&#45;&gt;n11 -->
<g id="edge15" class="edge">
<title>n17&#45;&gt;n11</title>
<path fill="none" stroke="#555555" d="M1865.06,-247.55C1880.46,-244.62 1896.86,-241.5 1912.88,-238.46"/>
<polygon fill="#555555" stroke="#555555" points="1913.62,-241.88 1922.79,-236.57 1912.31,-235 1913.62,-241.88"/>
</g>
<!-- n22 -->
<g id="node16" class="node">
<title>n22</title>
<path fill="#ffccbc" stroke="black" d="M2027,-446C2027,-446 1995,-446 1995,-446 1989,-446 1983,-440 1983,-434 1983,-434 1983,-422 1983,-422 1983,-416 1989,-410 1995,-410 1995,-410 2027,-410 2027,-410 2033,-410 2039,-416 2039,-422 2039,-422 2039,-434 2039,-434 2039,-440 2033,-446 2027,-446"/>
<text text-anchor="middle" x="2011" y="-425.2" font-family="Helvetica" font-size="11.00">Reply</text>
</g>
<!-- n17&#45;&gt;n22 -->
<g id="edge21" class="edge">
<title>n17&#45;&gt;n22</title>
<path fill="none" stroke="#555555" d="M1813.07,-280.08C1853.01,-310.08 1932.99,-370.16 1977.76,-403.78"/>
<polygon fill="#555555" stroke="#555555" points="1975.86,-406.73 1985.96,-409.94 1980.06,-401.14 1975.86,-406.73"/>
</g>
<!-- n18&#45;&gt;n13 -->
<g id="edge18" class="edge">
<title>n18&#45;&gt;n13</title>
<path fill="none" stroke="#555555" d="M2462.25,-326.99C2481.56,-314.89 2507.22,-298.82 2528.18,-285.69"/>
<polygon fill="#555555" stroke="#555555" points="2530.23,-288.54 2536.85,-280.26 2526.52,-282.6 2530.23,-288.54"/>
</g>
<!-- n18&#45;&gt;n19 -->
<g id="edge17" class="edge">
<title>n18&#45;&gt;n19</title>
<path fill="none" stroke="#555555" d="M2474.07,-345C2522.57,-345 2603.01,-345 2649.59,-345"/>
<polygon fill="#555555" stroke="#555555" points="2649.83,-348.5 2659.83,-345 2649.83,-341.5 2649.83,-348.5"/>
</g>
<!-- n21 -->
<g id="node15" class="node">
<title>n21</title>
<path fill="#e8f4f8" stroke="black" d="M2588,-446C2588,-446 2546,-446 2546,-446 2540,-446 2534,-440 2534,-434 2534,-434 2534,-422 2534,-422 2534,-416 2540,-410 2546,-410 2546,-410 2588,-410 2588,-410 2594,-410 2600,-416 2600,-422 2600,-422 2600,-434 2600,-434 2600,-440 2594,-446 2588,-446"/>
<text text-anchor="middle" x="2567" y="-425.2" font-family="Helvetica" font-size="11.00">LogEnd</text>
</g>
<!-- n18&#45;&gt;n21 -->
<g id="edge31" class="edge">
<title>n18&#45;&gt;n21</title>
<path fill="none" stroke="#555555" d="M2462.25,-363.01C2481.56,-375.11 2507.22,-391.18 2528.18,-404.31"/>
<polygon fill="#555555" stroke="#555555" points="2526.52,-407.4 2536.85,-409.74 2530.23,-401.46 2526.52,-407.4"/>
</g>
<!-- n3 -->
<g id="node20" class="node">
<title>n3</title>
<path fill="#ffccbc" stroke="black" d="M667,-75C667,-75 637,-75 637,-75 631,-75 625,-69 625,-63 625,-63 625,-51 625,-51 625,-45 631,-39 637,-39 637,-39 667,-39 667,-39 673,-39 679,-45 679,-51 679,-51 679,-63 679,-63 679,-69 673,-75 667,-75"/>
<text text-anchor="middle" x="652" y="-54.2" font-family="Helvetica" font-size="11.00">end</text>
</g>
<!-- n2&#45;&gt;n3 -->
<g id="edge2" class="edge">
<title>n2&#45;&gt;n3</title>
<path fill="none" stroke="#555555" d="M519.34,-85.86C549.73,-79.2 587.62,-70.89 614.94,-64.9"/>
<polygon fill="#555555" stroke="#555555" points="615.84,-68.29 624.86,-62.73 614.34,-61.45 615.84,-68.29"/>
</g>
<!-- n20&#45;&gt;n11 -->
<g id="edge35" class="edge">
<title>n20&#45;&gt;n11</title>
<path fill="none" stroke="#555555" d="M1645.1,-242.92C1664.61,-235.17 1688.58,-227 1711,-223 1777.67,-211.12 1854.04,-210.57 1912.9,-212.88"/>
<polygon fill="#555555" stroke="#555555" points="1912.8,-216.38 1922.94,-213.31 1913.1,-209.39 1912.8,-216.38"/>
</g>
<!-- n20&#45;&gt;n17 -->
<g id="edge34" class="edge">
<title>n20&#45;&gt;n17</title>
<path fill="none" stroke="#555555" d="M1653.41,-261.27C1668.01,-261.35 1684.47,-261.44 1700.72,-261.53"/>
<polygon fill="#555555" stroke="#555555" points="1700.77,-265.03 1710.79,-261.58 1700.81,-258.03 1700.77,-265.03"/>
</g>
<!-- n21&#45;&gt;n19 -->
<g id="edge20" class="edge">
<title>n21&#45;&gt;n19</title>
<path fill="none" stroke="#555555" d="M2593.6,-409.99C2610.65,-398 2633.24,-382.11 2651.82,-369.04"/>
<polygon fill="#555555" stroke="#555555" points="2653.87,-371.88 2660.04,-363.26 2649.85,-366.15 2653.87,-371.88"/>
</g>
<!-- n22&#45;&gt;n21 -->
<g id="edge22" class="edge">
<title>n22&#45;&gt;n21</title>
<path fill="none" stroke="#555555" d="M2039.1,-428C2128.55,-428 2414.94,-428 2523.63,-428"/>
<polygon fill="#555555" stroke="#555555" points="2523.88,-431.5 2533.88,-428 2523.88,-424.5 2523.88,-431.5"/>
</g>
<!-- n23 -->
<g id="node17" class="node">
<title>n23</title>
<path fill="#ffcdd2" stroke="black" d="M2321,-363C2321,-363 2169,-363 2169,-363 2163,-363 2157,-357 2157,-351 2157,-351 2157,-339 2157,-339 2157,-333 2163,-327 2169,-327 2169,-327 2321,-327 2321,-327 2327,-327 2333,-333 2333,-339 2333,-339 2333,-351 2333,-351 2333,-357 2327,-363 2321,-363"/>
<text text-anchor="middle" x="2245" y="-342.2" font-family="Helvetica" font-size="11.00">Call System Exception Handler</text>
</g>
<!-- n22&#45;&gt;n23 -->
<g id="edge23" class="edge">
<title>n22&#45;&gt;n23</title>
<path fill="none" stroke="#555555" d="M2039.07,-418.32C2074.4,-405.67 2137.26,-383.19 2184.07,-366.44"/>
<polygon fill="#555555" stroke="#555555" points="2185.27,-369.73 2193.5,-363.07 2182.91,-363.14 2185.27,-369.73"/>
</g>
<!-- n23&#45;&gt;n13 -->
<g id="edge27" class="edge">
<title>n23&#45;&gt;n13</title>
<path fill="none" stroke="#555555" d="M2312.35,-326.91C2337.02,-320.25 2365.27,-312.7 2391,-306 2435.43,-294.44 2486.33,-281.7 2521.74,-272.91"/>
<polygon fill="#555555" stroke="#555555" points="2522.89,-276.24 2531.75,-270.43 2521.21,-269.44 2522.89,-276.24"/>
</g>
<!-- n23&#45;&gt;n18 -->
<g id="edge26" class="edge">
<title>n23&#45;&gt;n18</title>
<path fill="none" stroke="#555555" d="M2333.05,-345C2349.26,-345 2365.7,-345 2380.39,-345"/>
<polygon fill="#555555" stroke="#555555" points="2380.74,-348.5 2390.74,-345 2380.74,-341.5 2380.74,-348.5"/>
</g>
<!-- n25 -->
<g id="node19" class="node">
<title>n25</title>
<path fill="#e8f4f8" stroke="black" d="M1112,-279C1112,-279 987,-279 987,-279 981,-279 975,-273 975,-267 975,-267 975,-255 975,-255 975,-249 981,-243 987,-243 987,-243 1112,-243 1112,-243 1118,-243 1124,-249 1124,-255 1124,-255 1124,-267 1124,-267 1124,-273 1118,-279 1112,-279"/>
<text text-anchor="middle" x="1049.5" y="-258.2" font-family="Helvetica" font-size="11.00">GetBusinessResources.3</text>
</g>
<!-- n24&#45;&gt;n25 -->
<g id="edge32" class="edge">
<title>n24&#45;&gt;n25</title>
<path fill="none" stroke="#555555" d="M917.15,-261C932.4,-261 948.77,-261 964.6,-261"/>
<polygon fill="#555555" stroke="#555555" points="964.9,-264.5 974.9,-261 964.9,-257.5 964.9,-264.5"/>
</g>
<!-- n6 -->
<g id="node23" class="node">
<title>n6</title>
<path fill="#e8f4f8" stroke="black" d="M1064.5,-363C1064.5,-363 1034.5,-363 1034.5,-363 1028.5,-363 1022.5,-357 1022.5,-351 1022.5,-351 1022.5,-339 1022.5,-339 1022.5,-333 1028.5,-327 1034.5,-327 1034.5,-327 1064.5,-327 1064.5,-327 1070.5,-327 1076.5,-333 1076.5,-339 1076.5,-339 1076.5,-351 1076.5,-351 1076.5,-357 1070.5,-363 1064.5,-363"/>
<text text-anchor="middle" x="1049.5" y="-342.2" font-family="Helvetica" font-size="11.00">Null</text>
</g>
<!-- n24&#45;&gt;n6 -->
<g id="edge28" class="edge">
<title>n24&#45;&gt;n6</title>
<path fill="none" stroke="#555555" d="M892.19,-279.02C928.16,-294.2 979.01,-315.67 1012.84,-329.95"/>
<polygon fill="#555555" stroke="#555555" points="1011.75,-333.29 1022.32,-333.95 1014.47,-326.84 1011.75,-333.29"/>
</g>
<!-- n25&#45;&gt;n15 -->
<g id="edge33" class="edge">
<title>n25&#45;&gt;n15</title>
<path fill="none" stroke="#555555" d="M1124.26,-261C1139.65,-261 1155.97,-261 1171.66,-261"/>
<polygon fill="#555555" stroke="#555555" points="1171.86,-264.5 1181.86,-261 1171.86,-257.5 1171.86,-264.5"/>
</g>
<!-- n5 -->
<g id="node22" class="node">
<title>n5</title>
<path fill="#e8f4f8" stroke="black" d="M512,-36C512,-36 423,-36 423,-36 417,-36 411,-30 411,-24 411,-24 411,-12 411,-12 411,-6 417,0 423,0 423,0 512,0 512,0 518,0 524,-6 524,-12 524,-12 524,-24 524,-24 524,-30 518,-36 512,-36"/>
<text text-anchor="middle" x="467.5" y="-15.2" font-family="Helvetica" font-size="11.00">OperationReply&#45;1</text>
</g>
<!-- n4&#45;&gt;n5 -->
<g id="edge6" class="edge">
<title>n4&#45;&gt;n5</title>
<path fill="none" stroke="#555555" d="M353.19,-18C368.88,-18 385.24,-18 400.48,-18"/>
<polygon fill="#555555" stroke="#555555" points="400.84,-21.5 410.84,-18 400.84,-14.5 400.84,-21.5"/>
</g>
<!-- n5&#45;&gt;n3 -->
<g id="edge5" class="edge">
<title>n5&#45;&gt;n3</title>
<path fill="none" stroke="#555555" d="M524.25,-29.91C553.55,-36.17 588.63,-43.67 614.45,-49.19"/>
<polygon fill="#555555" stroke="#555555" points="614.04,-52.68 624.55,-51.35 615.51,-45.84 614.04,-52.68"/>
</g>
<!-- n7 -->
<g id="node24" class="node">
<title>n7</title>
<path fill="#e8f4f8" stroke="black" d="M1484,-363C1484,-363 1398,-363 1398,-363 1392,-363 1386,-357 1386,-351 1386,-351 1386,-339 1386,-339 1386,-333 1392,-327 1398,-327 1398,-327 1484,-327 1484,-327 1490,-327 1496,-333 1496,-339 1496,-339 1496,-351 1496,-351 1496,-357 1490,-363 1484,-363"/>
<text text-anchor="middle" x="1441" y="-342.2" font-family="Helvetica" font-size="11.00">InvocationDetails</text>
</g>
<!-- n6&#45;&gt;n7 -->
<g id="edge7" class="edge">
<title>n6&#45;&gt;n7</title>
<path fill="none" stroke="#555555" d="M1076.66,-345C1137.29,-345 1288.83,-345 1375.85,-345"/>
<polygon fill="#555555" stroke="#555555" points="1375.88,-348.5 1385.88,-345 1375.88,-341.5 1375.88,-348.5"/>
</g>
<!-- n7&#45;&gt;n23 -->
<g id="edge30" class="edge">
<title>n7&#45;&gt;n23</title>
<path fill="none" stroke="#555555" d="M1496.18,-345C1629.72,-345 1976.14,-345 2146.5,-345"/>
<polygon fill="#555555" stroke="#555555" points="2146.72,-348.5 2156.72,-345 2146.72,-341.5 2146.72,-348.5"/>
</g>
<!-- n8 -->
<g id="node25" class="node">
<title>n8</title>
<path fill="#c8e6c9" stroke="black" d="M126,-320C126,-320 12,-320 12,-320 6,-320 0,-314 0,-308 0,-308 0,-296 0,-296 0,-290 6,-284 12,-284 12,-284 126,-284 126,-284 132,-284 138,-290 138,-296 138,-296 138,-308 138,-308 138,-314 132,-320 126,-320"/>
<text text-anchor="middle" x="69" y="-299.2" font-family="Helvetica" font-size="11.00">Receive JMS Message</text>
</g>
<!-- n8&#45;&gt;n6 -->
<g id="edge8" class="edge">
<title>n8&#45;&gt;n6</title>
<path fill="none" stroke="#555555" d="M138.15,-314.2C216.95,-327.22 350.66,-346 466.5,-346 466.5,-346 466.5,-346 653,-346 785.25,-346 942.38,-345.43 1012.09,-345.15"/>
<polygon fill="#555555" stroke="#555555" points="1012.13,-348.65 1022.12,-345.11 1012.1,-341.65 1012.13,-348.65"/>
</g>
<!-- n9 -->
<g id="node26" class="node">
<title>n9</title>
<path fill="#e8f4f8" stroke="black" d="M331.5,-277C331.5,-277 217.5,-277 217.5,-277 211.5,-277 205.5,-271 205.5,-265 205.5,-265 205.5,-253 205.5,-253 205.5,-247 211.5,-241 217.5,-241 217.5,-241 331.5,-241 331.5,-241 337.5,-241 343.5,-247 343.5,-253 343.5,-253 343.5,-265 343.5,-265 343.5,-271 337.5,-277 331.5,-277"/>
<text text-anchor="middle" x="274.5" y="-256.2" font-family="Helvetica" font-size="11.00">Confirm JMS Message</text>
</g>
<!-- n8&#45;&gt;n9 -->
<g id="edge10" class="edge">
<title>n8&#45;&gt;n9</title>
<path fill="none" stroke="#555555" d="M138.05,-287.62C156.36,-283.75 176.32,-279.53 195.15,-275.56"/>
<polygon fill="#555555" stroke="#555555" points="196.11,-278.93 205.17,-273.44 194.66,-272.08 196.11,-278.93"/>
</g>
<!-- n9&#45;&gt;n10 -->
<g id="edge9" class="edge">
<title>n9&#45;&gt;n10</title>
<path fill="none" stroke="#555555" d="M343.5,-259C407.73,-259 504.04,-259 571.73,-259"/>
<polygon fill="#555555" stroke="#555555" points="571.92,-262.5 581.92,-259 571.92,-255.5 571.92,-262.5"/>
</g>
<!-- n9&#45;&gt;n14 -->
<g id="edge13" class="edge">
<title>n9&#45;&gt;n14</title>
<path fill="none" stroke="#555555" d="M316.94,-240.99C348.07,-227.47 390.61,-208.98 422.36,-195.18"/>
<polygon fill="#555555" stroke="#555555" points="424.07,-198.25 431.85,-191.06 421.28,-191.83 424.07,-198.25"/>
</g>
</g>
</svg>
