<?xml version="1.0" encoding="UTF-8" standalone="no"?>
<!DOCTYPE svg PUBLIC "-//W3C//DTD SVG 1.1//EN"
 "http://www.w3.org/Graphics/SVG/1.1/DTD/svg11.dtd">
<!-- Generated by graphviz version 2.44.0 (0)
 -->
<!-- Title: process Pages: 1 -->
<svg width="776pt" height="187pt"
 viewBox="0.00 0.00 776.00 187.00" xmlns="http://www.w3.org/2000/svg" xmlns:xlink="http://www.w3.org/1999/xlink">
<g id="graph0" class="graph" transform="scale(1 1) rotate(0) translate(36 151)">
<title>process</title>
<polygon fill="#ffffff" stroke="transparent" points="-36,36 -36,-151 740,-151 740,36 -36,36"/>
<!-- n0 -->
<g id="node1" class="node">
<title>n0</title>
<path fill="#e8f4f8" stroke="black" d="M398,-75C398,-75 328,-75 328,-75 322,-75 316,-69 316,-63 316,-63 316,-51 316,-51 316,-45 322,-39 328,-39 328,-39 398,-39 398,-39 404,-39 410,-45 410,-51 410,-51 410,-63 410,-63 410,-69 404,-75 398,-75"/>
<text text-anchor="middle" x="363" y="-54.2" font-family="Helvetica" font-size="11.00">SendRequest</text>
</g>
<!-- n1 -->
<g id="node2" class="node">
<title>n1</title>
<path fill="#e8f4f8" stroke="black" d="M580,-115C580,-115 480,-115 480,-115 474,-115 468,-109 468,-103 468,-103 468,-91 468,-91 468,-85 474,-79 480,-79 480,-79 580,-79 580,-79 586,-79 592,-85 592,-91 592,-91 592,-103 592,-103 592,-109 586,-115 580,-115"/>
<text text-anchor="middle" x="530" y="-94.2" font-family="Helvetica" font-size="11.00">Parse Account Data</text>
</g>
<!-- n0&#45;&gt;n1 -->
<g id="edge1" class="edge">
<title>n0&#45;&gt;n1</title>
<path fill="none" stroke="#555555" d="M410.4,-68.25C425.16,-71.83 441.84,-75.87 457.93,-79.77"/>
<polygon fill="#555555" stroke="#555555" points="457.31,-83.22 467.85,-82.18 458.96,-76.42 457.31,-83.22"/>
</g>
<!-- n5 -->
<g id="node6" class="node">
<title>n5</title>
<path fill="#ffcdd2" stroke="black" d="M568.5,-36C568.5,-36 491.5,-36 491.5,-36 485.5,-36 479.5,-30 479.5,-24 479.5,-24 479.5,-12 479.5,-12 479.5,-6 485.5,0 491.5,0 491.5,0 568.5,0 568.5,0 574.5,0 580.5,-6 580.5,-12 580.5,-12 580.5,-24 580.5,-24 580.5,-30 574.5,-36 568.5,-36"/>
<text text-anchor="middle" x="530" y="-15.2" font-family="Helvetica" font-size="11.00">Generate Error</text>
</g>
<!-- n0&#45;&gt;n5 -->
<g id="edge5" class="edge">
<title>n0&#45;&gt;n5</title>
<path fill="none" stroke="#555555" d="M410.4,-46.03C428.75,-41.7 450.06,-36.66 469.51,-32.06"/>
<polygon fill="#555555" stroke="#555555" points="470.56,-35.41 479.49,-29.7 468.95,-28.6 470.56,-35.41"/>
</g>
<!-- n2 -->
<g id="node3" class="node">
<title>n2</title>
<path fill="#ffccbc" stroke="black" d="M692,-115C692,-115 662,-115 662,-115 656,-115 650,-109 650,-103 650,-103 650,-91 650,-91 650,-85 656,-79 662,-79 662,-79 692,-79 692,-79 698,-79 704,-85 704,-91 704,-91 704,-103 704,-103 704,-109 698,-115 692,-115"/>
<text text-anchor="middle" x="677" y="-94.2" font-family="Helvetica" font-size="11.00">End</text>
</g>
<!-- n1&#45;&gt;n2 -->
<g id="edge2" class="edge">
<title>n1&#45;&gt;n2</title>
<path fill="none" stroke="#555555" d="M592.07,-97C608.11,-97 624.91,-97 639.23,-97"/>
<polygon fill="#555555" stroke="#555555" points="639.64,-100.5 649.64,-97 639.64,-93.5 639.64,-100.5"/>
</g>
<!-- n3 -->
<g id="node4" class="node">
<title>n3</title>
<path fill="#e8f4f8" stroke="black" d="M246,-75C246,-75 124,-75 124,-75 118,-75 112,-69 112,-63 112,-63 112,-51 112,-51 112,-45 118,-39 124,-39 124,-39 246,-39 246,-39 252,-39 258,-45 258,-51 258,-51 258,-63 258,-63 258,-69 252,-75 246,-75"/>
<text text-anchor="middle" x="185" y="-54.2" font-family="Helvetica" font-size="11.00">NormalizeSurepayCTNs</text>
</g>
<!-- n3&#45;&gt;n0 -->
<g id="edge3" class="edge">
<title>n3&#45;&gt;n0</title>
<path fill="none" stroke="#555555" d="M258.09,-57C273.98,-57 290.59,-57 305.74,-57"/>
<polygon fill="#555555" stroke="#555555" points="305.98,-60.5 315.98,-57 305.98,-53.5 305.98,-60.5"/>
</g>
<!-- n4 -->
<g id="node5" class="node">
<title>n4</title>
<path fill="#c8e6c9" stroke="black" d="M42,-75C42,-75 12,-75 12,-75 6,-75 0,-69 0,-63 0,-63 0,-51 0,-51 0,-45 6,-39 12,-39 12,-39 42,-39 42,-39 48,-39 54,-45 54,-51 54,-51 54,-63 54,-63 54,-69 48,-75 42,-75"/>
<text text-anchor="middle" x="27" y="-54.2" font-family="Helvetica" font-size="11.00">Start</text>
</g>
<!-- n4&#45;&gt;n3 -->
<g id="edge4" class="edge">
<title>n4&#45;&gt;n3</title>
<path fill="none" stroke="#555555" d="M54.11,-57C67.38,-57 84.31,-57 101.54,-57"/>
<polygon fill="#555555" stroke="#555555" points="101.69,-60.5 111.69,-57 101.69,-53.5 101.69,-60.5"/>
</g>
</g>
</svg>
