<?xml version="1.0" encoding="UTF-8" standalone="no"?>
<!DOCTYPE svg PUBLIC "-//W3C//DTD SVG 1.1//EN"
 "http://www.w3.org/Graphics/SVG/1.1/DTD/svg11.dtd">
<!-- Generated by graphviz version 2.44.0 (0)
 -->
<!-- Title: process Pages: 1 -->
<svg width="426pt" height="187pt"
 viewBox="0.00 0.00 426.00 187.00" xmlns="http://www.w3.org/2000/svg" xmlns:xlink="http://www.w3.org/1999/xlink">
<g id="graph0" class="graph" transform="scale(1 1) rotate(0) translate(36 151)">
<title>process</title>
<polygon fill="#ffffff" stroke="transparent" points="-36,36 -36,-151 390,-151 390,36 -36,36"/>
<!-- n0 -->
<g id="node1" class="node">
<title>n0</title>
<path fill="#c8e6c9" stroke="black" d="M42,-75C42,-75 12,-75 12,-75 6,-75 0,-69 0,-63 0,-63 0,-51 0,-51 0,-45 6,-39 12,-39 12,-39 42,-39 42,-39 48,-39 54,-45 54,-51 54,-51 54,-63 54,-63 54,-69 48,-75 42,-75"/>
<text text-anchor="middle" x="27" y="-54.2" font-family="Helvetica" font-size="11.00">Start</text>
</g>
<!-- n1 -->
<g id="node2" class="node">
<title>n1</title>
<path fill="#e8f4f8" stroke="black" d="M213,-115C213,-115 141,-115 141,-115 135,-115 129,-109 129,-103 129,-103 129,-91 129,-91 129,-85 135,-79 141,-79 141,-79 213,-79 213,-79 219,-79 225,-85 225,-91 225,-91 225,-103 225,-103 225,-109 219,-115 213,-115"/>
<text text-anchor="middle" x="177" y="-94.2" font-family="Helvetica" font-size="11.00">Render JSON</text>
</g>
<!-- n0&#45;&gt;n1 -->
<g id="edge1" class="edge">
<title>n0&#45;&gt;n1</title>
<path fill="none" stroke="#555555" d="M54.12,-64.06C72.12,-68.92 96.74,-75.58 119.15,-81.63"/>
<polygon fill="#555555" stroke="#555555" points="118.35,-85.04 128.92,-84.27 120.18,-78.29 118.35,-85.04"/>
</g>
<!-- n3 -->
<g id="node4" class="node">
<title>n3</title>
<path fill="#e8f4f8" stroke="black" d="M230,-36C230,-36 124,-36 124,-36 118,-36 112,-30 112,-24 112,-24 112,-12 112,-12 112,-6 118,0 124,0 124,0 230,0 230,0 236,0 242,-6 242,-12 242,-12 242,-24 242,-24 242,-30 236,-36 230,-36"/>
<text text-anchor="middle" x="177" y="-15.2" font-family="Helvetica" font-size="11.00">Render&#45;JSON&#45;Partial</text>
</g>
<!-- n0&#45;&gt;n3 -->
<g id="edge3" class="edge">
<title>n0&#45;&gt;n3</title>
<path fill="none" stroke="#555555" d="M54.12,-50.12C67.58,-46.57 84.74,-42.05 101.9,-37.53"/>
<polygon fill="#555555" stroke="#555555" points="103.21,-40.8 111.98,-34.87 101.42,-34.03 103.21,-40.8"/>
</g>
<!-- n2 -->
<g id="node3" class="node">
<title>n2</title>
<path fill="#ffccbc" stroke="black" d="M342,-75C342,-75 312,-75 312,-75 306,-75 300,-69 300,-63 300,-63 300,-51 300,-51 300,-45 306,-39 312,-39 312,-39 342,-39 342,-39 348,-39 354,-45 354,-51 354,-51 354,-63 354,-63 354,-69 348,-75 342,-75"/>
<text text-anchor="middle" x="327" y="-54.2" font-family="Helvetica" font-size="11.00">End</text>
</g>
<!-- n1&#45;&gt;n2 -->
<g id="edge2" class="edge">
<title>n1&#45;&gt;n2</title>
<path fill="none" stroke="#555555" d="M225.24,-84.23C246.27,-78.55 270.64,-71.96 290.14,-66.69"/>
<polygon fill="#555555" stroke="#555555" points="291.12,-70.05 299.86,-64.07 289.29,-63.3 291.12,-70.05"/>
</g>
<!-- n3&#45;&gt;n2 -->
<g id="edge4" class="edge">
<title>n3&#45;&gt;n2</title>
<path fill="none" stroke="#555555" d="M242.05,-34.88C258.4,-39.19 275.4,-43.67 289.8,-47.46"/>
<polygon fill="#555555" stroke="#555555" points="289.21,-50.92 299.77,-50.09 290.99,-44.16 289.21,-50.92"/>
</g>
</g>
</svg>
