<?xml version="1.0" encoding="UTF-8" standalone="no"?>
<!DOCTYPE svg PUBLIC "-//W3C//DTD SVG 1.1//EN"
 "http://www.w3.org/Graphics/SVG/1.1/DTD/svg11.dtd">
<!-- Generated by graphviz version 2.44.0 (0)
 -->
<!-- Title: process Pages: 1 -->
<svg width="896pt" height="108pt"
 viewBox="0.00 0.00 896.00 108.00" xmlns="http://www.w3.org/2000/svg" xmlns:xlink="http://www.w3.org/1999/xlink">
<g id="graph0" class="graph" transform="scale(1 1) rotate(0) translate(36 72)">
<title>process</title>
<polygon fill="#ffffff" stroke="transparent" points="-36,36 -36,-72 860,-72 860,36 -36,36"/>
<!-- n0 -->
<g id="node1" class="node">
<title>n0</title>
<path fill="#ffccbc" stroke="black" d="M700,-36C700,-36 623,-36 623,-36 617,-36 611,-30 611,-24 611,-24 611,-12 611,-12 611,-6 617,0 623,0 623,0 700,0 700,0 706,0 712,-6 712,-12 712,-12 712,-24 712,-24 712,-30 706,-36 700,-36"/>
<text text-anchor="middle" x="661.5" y="-15.2" font-family="Helvetica" font-size="11.00">Map&#45;Response</text>
</g>
<!-- n1 -->
<g id="node2" class="node">
<title>n1</title>
<path fill="#ffccbc" stroke="black" d="M812,-36C812,-36 782,-36 782,-36 776,-36 770,-30 770,-24 770,-24 770,-12 770,-12 770,-6 776,0 782,0 782,0 812,0 812,0 818,0 824,-6 824,-12 824,-12 824,-24 824,-24 824,-30 818,-36 812,-36"/>
<text text-anchor="middle" x="797" y="-15.2" font-family="Helvetica" font-size="11.00">End</text>
</g>
<!-- n0&#45;&gt;n1 -->
<g id="edge1" class="edge">
<title>n0&#45;&gt;n1</title>
<path fill="none" stroke="#555555" d="M712.21,-18C727.96,-18 745.06,-18 759.69,-18"/>
<polygon fill="#555555" stroke="#555555" points="759.84,-21.5 769.84,-18 759.84,-14.5 759.84,-21.5"/>
</g>
<!-- n2 -->
<g id="node3" class="node">
<title>n2</title>
<path fill="#c8e6c9" stroke="black" d="M42,-36C42,-36 12,-36 12,-36 6,-36 0,-30 0,-24 0,-24 0,-12 0,-12 0,-6 6,0 12,0 12,0 42,0 42,0 48,0 54,-6 54,-12 54,-12 54,-24 54,-24 54,-30 48,-36 42,-36"/>
<text text-anchor="middle" x="27" y="-15.2" font-family="Helvetica" font-size="11.00">Start</text>
</g>
<!-- n3 -->
<g id="node4" class="node">
<title>n3</title>
<path fill="#e8f4f8" stroke="black" d="M216,-36C216,-36 124,-36 124,-36 118,-36 112,-30 112,-24 112,-24 112,-12 112,-12 112,-6 118,0 124,0 124,0 216,0 216,0 222,0 228,-6 228,-12 228,-12 228,-24 228,-24 228,-30 222,-36 216,-36"/>
<text text-anchor="middle" x="170" y="-15.2" font-family="Helvetica" font-size="11.00">GetProductDetails</text>
</g>
<!-- n2&#45;&gt;n3 -->
<g id="edge2" class="edge">
<title>n2&#45;&gt;n3</title>
<path fill="none" stroke="#555555" d="M54.19,-18C67.64,-18 84.72,-18 101.56,-18"/>
<polygon fill="#555555" stroke="#555555" points="101.98,-21.5 111.98,-18 101.98,-14.5 101.98,-21.5"/>
</g>
<!-- n4 -->
<g id="node5" class="node">
<title>n4</title>
<path fill="#e8f4f8" stroke="black" d="M414,-36C414,-36 298,-36 298,-36 292,-36 286,-30 286,-24 286,-24 286,-12 286,-12 286,-6 292,0 298,0 298,0 414,0 414,0 420,0 426,-6 426,-12 426,-12 426,-24 426,-24 426,-30 420,-36 414,-36"/>
<text text-anchor="middle" x="356" y="-15.2" font-family="Helvetica" font-size="11.00">TilProductUsageConfig</text>
</g>
<!-- n3&#45;&gt;n4 -->
<g id="edge3" class="edge">
<title>n3&#45;&gt;n4</title>
<path fill="none" stroke="#555555" d="M228.21,-18C243.18,-18 259.59,-18 275.5,-18"/>
<polygon fill="#555555" stroke="#555555" points="275.86,-21.5 285.86,-18 275.86,-14.5 275.86,-21.5"/>
</g>
<!-- n5 -->
<g id="node6" class="node">
<title>n5</title>
<path fill="#e8f4f8" stroke="black" d="M541,-36C541,-36 496,-36 496,-36 490,-36 484,-30 484,-24 484,-24 484,-12 484,-12 484,-6 490,0 496,0 496,0 541,0 541,0 547,0 553,-6 553,-12 553,-12 553,-24 553,-24 553,-30 547,-36 541,-36"/>
<text text-anchor="middle" x="518.5" y="-15.2" font-family="Helvetica" font-size="11.00">OOBList</text>
</g>
<!-- n4&#45;&gt;n5 -->
<g id="edge4" class="edge">
<title>n4&#45;&gt;n5</title>
<path fill="none" stroke="#555555" d="M426.46,-18C442.42,-18 458.95,-18 473.48,-18"/>
<polygon fill="#555555" stroke="#555555" points="473.66,-21.5 483.66,-18 473.66,-14.5 473.66,-21.5"/>
</g>
<!-- n5&#45;&gt;n0 -->
<g id="edge5" class="edge">
<title>n5&#45;&gt;n0</title>
<path fill="none" stroke="#555555" d="M553.27,-18C567.58,-18 584.68,-18 600.98,-18"/>
<polygon fill="#555555" stroke="#555555" points="600.99,-21.5 610.99,-18 600.99,-14.5 600.99,-21.5"/>
</g>
</g>
</svg>
