<?xml version="1.0" encoding="UTF-8" standalone="no"?>
<!DOCTYPE svg PUBLIC "-//W3C//DTD SVG 1.1//EN"
 "http://www.w3.org/Graphics/SVG/1.1/DTD/svg11.dtd">
<!-- Generated by graphviz version 2.44.0 (0)
 -->
<!-- Title: process Pages: 1 -->
<svg width="1073pt" height="187pt"
 viewBox="0.00 0.00 1073.00 187.00" xmlns="http://www.w3.org/2000/svg" xmlns:xlink="http://www.w3.org/1999/xlink">
<g id="graph0" class="graph" transform="scale(1 1) rotate(0) translate(36 151)">
<title>process</title>
<polygon fill="#ffffff" stroke="transparent" points="-36,36 -36,-151 1037,-151 1037,36 -36,36"/>
<!-- n0 -->
<g id="node1" class="node">
<title>n0</title>
<path fill="#c8e6c9" stroke="black" d="M42,-75C42,-75 12,-75 12,-75 6,-75 0,-69 0,-63 0,-63 0,-51 0,-51 0,-45 6,-39 12,-39 12,-39 42,-39 42,-39 48,-39 54,-45 54,-51 54,-51 54,-63 54,-63 54,-69 48,-75 42,-75"/>
<text text-anchor="middle" x="27" y="-54.2" font-family="Helvetica" font-size="11.00">Start</text>
</g>
<!-- n1 -->
<g id="node2" class="node">
<title>n1</title>
<path fill="#e8f4f8" stroke="black" d="M246,-75C246,-75 124,-75 124,-75 118,-75 112,-69 112,-63 112,-63 112,-51 112,-51 112,-45 118,-39 124,-39 124,-39 246,-39 246,-39 252,-39 258,-45 258,-51 258,-51 258,-63 258,-63 258,-69 252,-75 246,-75"/>
<text text-anchor="middle" x="185" y="-54.2" font-family="Helvetica" font-size="11.00">NormalizeSurepayCTNs</text>
</g>
<!-- n0&#45;&gt;n1 -->
<g id="edge1" class="edge">
<title>n0&#45;&gt;n1</title>
<path fill="none" stroke="#555555" d="M54.11,-57C67.38,-57 84.31,-57 101.54,-57"/>
<polygon fill="#555555" stroke="#555555" points="101.69,-60.5 111.69,-57 101.69,-53.5 101.69,-60.5"/>
</g>
<!-- n2 -->
<g id="node3" class="node">
<title>n2</title>
<path fill="#e8f4f8" stroke="black" d="M432,-75C432,-75 328,-75 328,-75 322,-75 316,-69 316,-63 316,-63 316,-51 316,-51 316,-45 322,-39 328,-39 328,-39 432,-39 432,-39 438,-39 444,-45 444,-51 444,-51 444,-63 444,-63 444,-69 438,-75 432,-75"/>
<text text-anchor="middle" x="380" y="-54.2" font-family="Helvetica" font-size="11.00">Get Connection Plan</text>
</g>
<!-- n1&#45;&gt;n2 -->
<g id="edge3" class="edge">
<title>n1&#45;&gt;n2</title>
<path fill="none" stroke="#555555" d="M258.14,-57C273.69,-57 290.13,-57 305.72,-57"/>
<polygon fill="#555555" stroke="#555555" points="305.82,-60.5 315.82,-57 305.82,-53.5 305.82,-60.5"/>
</g>
<!-- n3 -->
<g id="node4" class="node">
<title>n3</title>
<path fill="#e8f4f8" stroke="black" d="M566,-75C566,-75 514,-75 514,-75 508,-75 502,-69 502,-63 502,-63 502,-51 502,-51 502,-45 508,-39 514,-39 514,-39 566,-39 566,-39 572,-39 578,-45 578,-51 578,-51 578,-63 578,-63 578,-69 572,-75 566,-75"/>
<text text-anchor="middle" x="540" y="-54.2" font-family="Helvetica" font-size="11.00">CCR Msg</text>
</g>
<!-- n2&#45;&gt;n3 -->
<g id="edge2" class="edge">
<title>n2&#45;&gt;n3</title>
<path fill="none" stroke="#555555" d="M444.35,-57C459.97,-57 476.43,-57 491.17,-57"/>
<polygon fill="#555555" stroke="#555555" points="491.56,-60.5 501.56,-57 491.56,-53.5 491.56,-60.5"/>
</g>
<!-- n4 -->
<g id="node5" class="node">
<title>n4</title>
<path fill="#e8f4f8" stroke="black" d="M718,-75C718,-75 648,-75 648,-75 642,-75 636,-69 636,-63 636,-63 636,-51 636,-51 636,-45 642,-39 648,-39 648,-39 718,-39 718,-39 724,-39 730,-45 730,-51 730,-51 730,-63 730,-63 730,-69 724,-75 718,-75"/>
<text text-anchor="middle" x="683" y="-54.2" font-family="Helvetica" font-size="11.00">SendRequest</text>
</g>
<!-- n3&#45;&gt;n4 -->
<g id="edge4" class="edge">
<title>n3&#45;&gt;n4</title>
<path fill="none" stroke="#555555" d="M578.05,-57C592.57,-57 609.56,-57 625.55,-57"/>
<polygon fill="#555555" stroke="#555555" points="625.87,-60.5 635.87,-57 625.87,-53.5 625.87,-60.5"/>
</g>
<!-- n5 -->
<g id="node6" class="node">
<title>n5</title>
<path fill="#ffccbc" stroke="black" d="M866,-115C866,-115 811,-115 811,-115 805,-115 799,-109 799,-103 799,-103 799,-91 799,-91 799,-85 805,-79 811,-79 811,-79 866,-79 866,-79 872,-79 878,-85 878,-91 878,-91 878,-103 878,-103 878,-109 872,-115 866,-115"/>
<text text-anchor="middle" x="838.5" y="-94.2" font-family="Helvetica" font-size="11.00">Reply Msg</text>
</g>
<!-- n4&#45;&gt;n5 -->
<g id="edge5" class="edge">
<title>n4&#45;&gt;n5</title>
<path fill="none" stroke="#555555" d="M730.06,-69C748.69,-73.86 770.23,-79.47 789.1,-84.39"/>
<polygon fill="#555555" stroke="#555555" points="788.42,-87.83 798.98,-86.96 790.19,-81.05 788.42,-87.83"/>
</g>
<!-- n7 -->
<g id="node8" class="node">
<title>n7</title>
<path fill="#ffcdd2" stroke="black" d="M877,-36C877,-36 800,-36 800,-36 794,-36 788,-30 788,-24 788,-24 788,-12 788,-12 788,-6 794,0 800,0 800,0 877,0 877,0 883,0 889,-6 889,-12 889,-12 889,-24 889,-24 889,-30 883,-36 877,-36"/>
<text text-anchor="middle" x="838.5" y="-15.2" font-family="Helvetica" font-size="11.00">Generate Error</text>
</g>
<!-- n4&#45;&gt;n7 -->
<g id="edge7" class="edge">
<title>n4&#45;&gt;n7</title>
<path fill="none" stroke="#555555" d="M730.06,-45.3C745.12,-41.47 762.07,-37.16 777.99,-33.12"/>
<polygon fill="#555555" stroke="#555555" points="778.9,-36.5 787.73,-30.64 777.18,-29.71 778.9,-36.5"/>
</g>
<!-- n6 -->
<g id="node7" class="node">
<title>n6</title>
<path fill="#ffccbc" stroke="black" d="M989,-115C989,-115 959,-115 959,-115 953,-115 947,-109 947,-103 947,-103 947,-91 947,-91 947,-85 953,-79 959,-79 959,-79 989,-79 989,-79 995,-79 1001,-85 1001,-91 1001,-91 1001,-103 1001,-103 1001,-109 995,-115 989,-115"/>
<text text-anchor="middle" x="974" y="-94.2" font-family="Helvetica" font-size="11.00">End</text>
</g>
<!-- n5&#45;&gt;n6 -->
<g id="edge6" class="edge">
<title>n5&#45;&gt;n6</title>
<path fill="none" stroke="#555555" d="M878.11,-97C896.52,-97 918.43,-97 936.55,-97"/>
<polygon fill="#555555" stroke="#555555" points="936.73,-100.5 946.73,-97 936.73,-93.5 936.73,-100.5"/>
</g>
</g>
</svg>
