<?xml version="1.0" encoding="UTF-8" standalone="no"?>
<!DOCTYPE svg PUBLIC "-//W3C//DTD SVG 1.1//EN"
 "http://www.w3.org/Graphics/SVG/1.1/DTD/svg11.dtd">
<!-- Generated by graphviz version 2.44.0 (0)
 -->
<!-- Title: process Pages: 1 -->
<svg width="2262pt" height="479pt"
 viewBox="0.00 0.00 2262.00 479.00" xmlns="http://www.w3.org/2000/svg" xmlns:xlink="http://www.w3.org/1999/xlink">
<g id="graph0" class="graph" transform="scale(1 1) rotate(0) translate(36 443)">
<title>process</title>
<polygon fill="#ffffff" stroke="transparent" points="-36,36 -36,-443 2226,-443 2226,36 -36,36"/>
<!-- n0 -->
<g id="node1" class="node">
<title>n0</title>
<path fill="#c8e6c9" stroke="black" d="M84,-76C84,-76 54,-76 54,-76 48,-76 42,-70 42,-64 42,-64 42,-52 42,-52 42,-46 48,-40 54,-40 54,-40 84,-40 84,-40 90,-40 96,-46 96,-52 96,-52 96,-64 96,-64 96,-70 90,-76 84,-76"/>
<text text-anchor="middle" x="69" y="-55.2" font-family="Helvetica" font-size="11.00">start</text>
</g>
<!-- n1 -->
<g id="node2" class="node">
<title>n1</title>
<path fill="#e8f4f8" stroke="black" d="M328.5,-115C328.5,-115 220.5,-115 220.5,-115 214.5,-115 208.5,-109 208.5,-103 208.5,-103 208.5,-91 208.5,-91 208.5,-85 214.5,-79 220.5,-79 220.5,-79 328.5,-79 328.5,-79 334.5,-79 340.5,-85 340.5,-91 340.5,-91 340.5,-103 340.5,-103 340.5,-109 334.5,-115 328.5,-115"/>
<text text-anchor="middle" x="274.5" y="-94.2" font-family="Helvetica" font-size="11.00">Custom&#45;RenderReply</text>
</g>
<!-- n0&#45;&gt;n1 -->
<g id="edge1" class="edge">
<title>n0&#45;&gt;n1</title>
<path fill="none" stroke="#555555" d="M96.19,-63.02C121.9,-67.95 162.35,-75.7 198.13,-82.55"/>
<polygon fill="#555555" stroke="#555555" points="197.6,-86.02 208.08,-84.46 198.91,-79.14 197.6,-86.02"/>
</g>
<!-- n4 -->
<g id="node19" class="node">
<title>n4</title>
<path fill="#e8f4f8" stroke="black" d="M341,-36C341,-36 208,-36 208,-36 202,-36 196,-30 196,-24 196,-24 196,-12 196,-12 196,-6 202,0 208,0 208,0 341,0 341,0 347,0 353,-6 353,-12 353,-12 353,-24 353,-24 353,-30 347,-36 341,-36"/>
<text text-anchor="middle" x="274.5" y="-15.2" font-family="Helvetica" font-size="11.00">Custom&#45;RenderErrorReply</text>
</g>
<!-- n0&#45;&gt;n4 -->
<g id="edge4" class="edge">
<title>n0&#45;&gt;n4</title>
<path fill="none" stroke="#555555" d="M96.19,-52.85C118.95,-48.38 153.28,-41.63 185.68,-35.26"/>
<polygon fill="#555555" stroke="#555555" points="186.52,-38.66 195.66,-33.3 185.17,-31.79 186.52,-38.66"/>
</g>
<!-- n2 -->
<g id="node13" class="node">
<title>n2</title>
<path fill="#e8f4f8" stroke="black" d="M507,-115C507,-115 428,-115 428,-115 422,-115 416,-109 416,-103 416,-103 416,-91 416,-91 416,-85 422,-79 428,-79 428,-79 507,-79 507,-79 513,-79 519,-85 519,-91 519,-91 519,-103 519,-103 519,-109 513,-115 507,-115"/>
<text text-anchor="middle" x="467.5" y="-94.2" font-family="Helvetica" font-size="11.00">OperationReply</text>
</g>
<!-- n1&#45;&gt;n2 -->
<g id="edge3" class="edge">
<title>n1&#45;&gt;n2</title>
<path fill="none" stroke="#555555" d="M340.7,-97C361.68,-97 384.85,-97 405.52,-97"/>
<polygon fill="#555555" stroke="#555555" points="405.76,-100.5 415.76,-97 405.76,-93.5 405.76,-100.5"/>
</g>
<!-- n10 -->
<g id="node3" class="node">
<title>n10</title>
<path fill="#e8f4f8" stroke="black" d="M710,-285C710,-285 594,-285 594,-285 588,-285 582,-279 582,-273 582,-273 582,-261 582,-261 582,-255 588,-249 594,-249 594,-249 710,-249 710,-249 716,-249 722,-255 722,-261 722,-261 722,-273 722,-273 722,-279 716,-285 710,-285"/>
<text text-anchor="middle" x="652" y="-264.2" font-family="Helvetica" font-size="11.00">Prep Invocation Details</text>
</g>
<!-- n23 -->
<g id="node17" class="node">
<title>n23</title>
<path fill="#e8f4f8" stroke="black" d="M905,-285C905,-285 792,-285 792,-285 786,-285 780,-279 780,-273 780,-273 780,-261 780,-261 780,-255 786,-249 792,-249 792,-249 905,-249 905,-249 911,-249 917,-255 917,-261 917,-261 917,-273 917,-273 917,-279 911,-285 905,-285"/>
<text text-anchor="middle" x="848.5" y="-264.2" font-family="Helvetica" font-size="11.00">Custom&#45;ParseRequest</text>
</g>
<!-- n10&#45;&gt;n23 -->
<g id="edge30" class="edge">
<title>n10&#45;&gt;n23</title>
<path fill="none" stroke="#555555" d="M722.12,-267C737.53,-267 753.96,-267 769.69,-267"/>
<polygon fill="#555555" stroke="#555555" points="769.91,-270.5 779.91,-267 769.91,-263.5 769.91,-270.5"/>
</g>
<!-- n11 -->
<g id="node4" class="node">
<title>n11</title>
<path fill="#ffcdd2" stroke="black" d="M1797,-245C1797,-245 1645,-245 1645,-245 1639,-245 1633,-239 1633,-233 1633,-233 1633,-221 1633,-221 1633,-215 1639,-209 1645,-209 1645,-209 1797,-209 1797,-209 1803,-209 1809,-215 1809,-221 1809,-221 1809,-233 1809,-233 1809,-239 1803,-245 1797,-245"/>
<text text-anchor="middle" x="1721" y="-224.2" font-family="Helvetica" font-size="11.00">Call Service Exception Handler</text>
</g>
<!-- n12 -->
<g id="node5" class="node">
<title>n12</title>
<path fill="#e8f4f8" stroke="black" d="M1925,-158C1925,-158 1892,-158 1892,-158 1886,-158 1880,-152 1880,-146 1880,-146 1880,-134 1880,-134 1880,-128 1886,-122 1892,-122 1892,-122 1925,-122 1925,-122 1931,-122 1937,-128 1937,-134 1937,-134 1937,-146 1937,-146 1937,-152 1931,-158 1925,-158"/>
<text text-anchor="middle" x="1908.5" y="-137.2" font-family="Helvetica" font-size="11.00">Null&#45;1</text>
</g>
<!-- n11&#45;&gt;n12 -->
<g id="edge11" class="edge">
<title>n11&#45;&gt;n12</title>
<path fill="none" stroke="#555555" d="M1760.44,-208.97C1792.75,-193.82 1838.64,-172.29 1870.54,-157.34"/>
<polygon fill="#555555" stroke="#555555" points="1872.39,-160.33 1879.95,-152.92 1869.41,-154 1872.39,-160.33"/>
</g>
<!-- n18 -->
<g id="node11" class="node">
<title>n18</title>
<path fill="#ffccbc" stroke="black" d="M1938,-324C1938,-324 1879,-324 1879,-324 1873,-324 1867,-318 1867,-312 1867,-312 1867,-300 1867,-300 1867,-294 1873,-288 1879,-288 1879,-288 1938,-288 1938,-288 1944,-288 1950,-294 1950,-300 1950,-300 1950,-312 1950,-312 1950,-318 1944,-324 1938,-324"/>
<text text-anchor="middle" x="1908.5" y="-303.2" font-family="Helvetica" font-size="11.00">Reply Error</text>
</g>
<!-- n11&#45;&gt;n18 -->
<g id="edge16" class="edge">
<title>n11&#45;&gt;n18</title>
<path fill="none" stroke="#555555" d="M1764.56,-245.12C1792.14,-256.87 1828.19,-272.23 1857.19,-284.57"/>
<polygon fill="#555555" stroke="#555555" points="1856.16,-287.94 1866.73,-288.64 1858.9,-281.5 1856.16,-287.94"/>
</g>
<!-- n13 -->
<g id="node6" class="node">
<title>n13</title>
<path fill="#e8f4f8" stroke="black" d="M2066,-241C2066,-241 2020,-241 2020,-241 2014,-241 2008,-235 2008,-229 2008,-229 2008,-217 2008,-217 2008,-211 2014,-205 2020,-205 2020,-205 2066,-205 2066,-205 2072,-205 2078,-211 2078,-217 2078,-217 2078,-229 2078,-229 2078,-235 2072,-241 2066,-241"/>
<text text-anchor="middle" x="2043" y="-220.2" font-family="Helvetica" font-size="11.00">LogFatal</text>
</g>
<!-- n12&#45;&gt;n13 -->
<g id="edge12" class="edge">
<title>n12&#45;&gt;n13</title>
<path fill="none" stroke="#555555" d="M1937.28,-157.4C1956.75,-169.6 1983.01,-186.05 2004.37,-199.43"/>
<polygon fill="#555555" stroke="#555555" points="2002.55,-202.42 2012.88,-204.76 2006.27,-196.49 2002.55,-202.42"/>
</g>
<!-- n19 -->
<g id="node12" class="node">
<title>n19</title>
<path fill="#ffccbc" stroke="black" d="M2178,-324C2178,-324 2148,-324 2148,-324 2142,-324 2136,-318 2136,-312 2136,-312 2136,-300 2136,-300 2136,-294 2142,-288 2148,-288 2148,-288 2178,-288 2178,-288 2184,-288 2190,-294 2190,-300 2190,-300 2190,-312 2190,-312 2190,-318 2184,-324 2178,-324"/>
<text text-anchor="middle" x="2163" y="-303.2" font-family="Helvetica" font-size="11.00">End</text>
</g>
<!-- n13&#45;&gt;n19 -->
<g id="edge24" class="edge">
<title>n13&#45;&gt;n19</title>
<path fill="none" stroke="#555555" d="M2069.6,-241.01C2086.65,-253 2109.24,-268.89 2127.82,-281.96"/>
<polygon fill="#555555" stroke="#555555" points="2125.85,-284.85 2136.04,-287.74 2129.87,-279.12 2125.85,-284.85"/>
</g>
<!-- n14 -->
<g id="node7" class="node">
<title>n14</title>
<path fill="#e8f4f8" stroke="black" d="M491,-368C491,-368 444,-368 444,-368 438,-368 432,-362 432,-356 432,-356 432,-344 432,-344 432,-338 438,-332 444,-332 444,-332 491,-332 491,-332 497,-332 503,-338 503,-344 503,-344 503,-356 503,-356 503,-362 497,-368 491,-368"/>
<text text-anchor="middle" x="467.5" y="-347.2" font-family="Helvetica" font-size="11.00">LogError</text>
</g>
<!-- n14&#45;&gt;n10 -->
<g id="edge25" class="edge">
<title>n14&#45;&gt;n10</title>
<path fill="none" stroke="#555555" d="M503.26,-334.19C531.19,-321.49 570.76,-303.49 601.92,-289.32"/>
<polygon fill="#555555" stroke="#555555" points="603.64,-292.38 611.3,-285.06 600.74,-286.01 603.64,-292.38"/>
</g>
<!-- n15 -->
<g id="node8" class="node">
<title>n15</title>
<path fill="#e8f4f8" stroke="black" d="M1109,-285C1109,-285 987,-285 987,-285 981,-285 975,-279 975,-273 975,-273 975,-261 975,-261 975,-255 981,-249 987,-249 987,-249 1109,-249 1109,-249 1115,-249 1121,-255 1121,-261 1121,-261 1121,-273 1121,-273 1121,-279 1115,-285 1109,-285"/>
<text text-anchor="middle" x="1048" y="-264.2" font-family="Helvetica" font-size="11.00">Comp Invocation Details</text>
</g>
<!-- n16 -->
<g id="node9" class="node">
<title>n16</title>
<path fill="#e8f4f8" stroke="black" d="M1237,-285C1237,-285 1191,-285 1191,-285 1185,-285 1179,-279 1179,-273 1179,-273 1179,-261 1179,-261 1179,-255 1185,-249 1191,-249 1191,-249 1237,-249 1237,-249 1243,-249 1249,-255 1249,-261 1249,-261 1249,-273 1249,-273 1249,-279 1243,-285 1237,-285"/>
<text text-anchor="middle" x="1214" y="-264.2" font-family="Helvetica" font-size="11.00">LogStart</text>
</g>
<!-- n15&#45;&gt;n16 -->
<g id="edge14" class="edge">
<title>n15&#45;&gt;n16</title>
<path fill="none" stroke="#555555" d="M1121.41,-267C1137.43,-267 1153.94,-267 1168.46,-267"/>
<polygon fill="#555555" stroke="#555555" points="1168.65,-270.5 1178.65,-267 1168.65,-263.5 1168.65,-270.5"/>
</g>
<!-- n17 -->
<g id="node10" class="node">
<title>n17</title>
<path fill="#e8f4f8" stroke="black" d="M1449,-285C1449,-285 1319,-285 1319,-285 1313,-285 1307,-279 1307,-273 1307,-273 1307,-261 1307,-261 1307,-255 1313,-249 1319,-249 1319,-249 1449,-249 1449,-249 1455,-249 1461,-255 1461,-261 1461,-261 1461,-273 1461,-273 1461,-279 1455,-285 1449,-285"/>
<text text-anchor="middle" x="1384" y="-264.2" font-family="Helvetica" font-size="11.00">Call Service Main Process</text>
</g>
<!-- n16&#45;&gt;n17 -->
<g id="edge19" class="edge">
<title>n16&#45;&gt;n17</title>
<path fill="none" stroke="#555555" d="M1249.4,-267C1263.16,-267 1279.67,-267 1296.33,-267"/>
<polygon fill="#555555" stroke="#555555" points="1296.7,-270.5 1306.7,-267 1296.7,-263.5 1296.7,-270.5"/>
</g>
<!-- n17&#45;&gt;n11 -->
<g id="edge15" class="edge">
<title>n17&#45;&gt;n11</title>
<path fill="none" stroke="#555555" d="M1461.02,-257.92C1508.89,-252.21 1571.13,-244.77 1622.61,-238.63"/>
<polygon fill="#555555" stroke="#555555" points="1623.24,-242.08 1632.75,-237.42 1622.41,-235.13 1623.24,-242.08"/>
</g>
<!-- n21 -->
<g id="node15" class="node">
<title>n21</title>
<path fill="#ffccbc" stroke="black" d="M1563,-368C1563,-368 1531,-368 1531,-368 1525,-368 1519,-362 1519,-356 1519,-356 1519,-344 1519,-344 1519,-338 1525,-332 1531,-332 1531,-332 1563,-332 1563,-332 1569,-332 1575,-338 1575,-344 1575,-344 1575,-356 1575,-356 1575,-362 1569,-368 1563,-368"/>
<text text-anchor="middle" x="1547" y="-347.2" font-family="Helvetica" font-size="11.00">Reply</text>
</g>
<!-- n17&#45;&gt;n21 -->
<g id="edge21" class="edge">
<title>n17&#45;&gt;n21</title>
<path fill="none" stroke="#555555" d="M1419.93,-285.01C1446.49,-298.7 1482.91,-317.48 1509.78,-331.33"/>
<polygon fill="#555555" stroke="#555555" points="1508.36,-334.53 1518.85,-336 1511.57,-328.31 1508.36,-334.53"/>
</g>
<!-- n18&#45;&gt;n13 -->
<g id="edge18" class="edge">
<title>n18&#45;&gt;n13</title>
<path fill="none" stroke="#555555" d="M1938.25,-287.99C1957.56,-275.89 1983.22,-259.82 2004.18,-246.69"/>
<polygon fill="#555555" stroke="#555555" points="2006.23,-249.54 2012.85,-241.26 2002.52,-243.6 2006.23,-249.54"/>
</g>
<!-- n18&#45;&gt;n19 -->
<g id="edge17" class="edge">
<title>n18&#45;&gt;n19</title>
<path fill="none" stroke="#555555" d="M1950.07,-306C1998.57,-306 2079.01,-306 2125.59,-306"/>
<polygon fill="#555555" stroke="#555555" points="2125.83,-309.5 2135.83,-306 2125.83,-302.5 2125.83,-309.5"/>
</g>
<!-- n20 -->
<g id="node14" class="node">
<title>n20</title>
<path fill="#e8f4f8" stroke="black" d="M2064,-407C2064,-407 2022,-407 2022,-407 2016,-407 2010,-401 2010,-395 2010,-395 2010,-383 2010,-383 2010,-377 2016,-371 2022,-371 2022,-371 2064,-371 2064,-371 2070,-371 2076,-377 2076,-383 2076,-383 2076,-395 2076,-395 2076,-401 2070,-407 2064,-407"/>
<text text-anchor="middle" x="2043" y="-386.2" font-family="Helvetica" font-size="11.00">LogEnd</text>
</g>
<!-- n18&#45;&gt;n20 -->
<g id="edge32" class="edge">
<title>n18&#45;&gt;n20</title>
<path fill="none" stroke="#555555" d="M1938.25,-324.01C1957.56,-336.11 1983.22,-352.18 2004.18,-365.31"/>
<polygon fill="#555555" stroke="#555555" points="2002.52,-368.4 2012.85,-370.74 2006.23,-362.46 2002.52,-368.4"/>
</g>
<!-- n3 -->
<g id="node18" class="node">
<title>n3</title>
<path fill="#ffccbc" stroke="black" d="M667,-75C667,-75 637,-75 637,-75 631,-75 625,-69 625,-63 625,-63 625,-51 625,-51 625,-45 631,-39 637,-39 637,-39 667,-39 667,-39 673,-39 679,-45 679,-51 679,-51 679,-63 679,-63 679,-69 673,-75 667,-75"/>
<text text-anchor="middle" x="652" y="-54.2" font-family="Helvetica" font-size="11.00">end</text>
</g>
<!-- n2&#45;&gt;n3 -->
<g id="edge2" class="edge">
<title>n2&#45;&gt;n3</title>
<path fill="none" stroke="#555555" d="M519.34,-85.86C549.73,-79.2 587.62,-70.89 614.94,-64.9"/>
<polygon fill="#555555" stroke="#555555" points="615.84,-68.29 624.86,-62.73 614.34,-61.45 615.84,-68.29"/>
</g>
<!-- n20&#45;&gt;n19 -->
<g id="edge20" class="edge">
<title>n20&#45;&gt;n19</title>
<path fill="none" stroke="#555555" d="M2069.6,-370.99C2086.65,-359 2109.24,-343.11 2127.82,-330.04"/>
<polygon fill="#555555" stroke="#555555" points="2129.87,-332.88 2136.04,-324.26 2125.85,-327.15 2129.87,-332.88"/>
</g>
<!-- n21&#45;&gt;n20 -->
<g id="edge22" class="edge">
<title>n21&#45;&gt;n20</title>
<path fill="none" stroke="#555555" d="M1575.26,-352.15C1657.03,-358.61 1900.66,-377.84 1999.57,-385.65"/>
<polygon fill="#555555" stroke="#555555" points="1999.54,-389.16 2009.79,-386.46 2000.09,-382.18 1999.54,-389.16"/>
</g>
<!-- n22 -->
<g id="node16" class="node">
<title>n22</title>
<path fill="#ffcdd2" stroke="black" d="M1797,-324C1797,-324 1645,-324 1645,-324 1639,-324 1633,-318 1633,-312 1633,-312 1633,-300 1633,-300 1633,-294 1639,-288 1645,-288 1645,-288 1797,-288 1797,-288 1803,-288 1809,-294 1809,-300 1809,-300 1809,-312 1809,-312 1809,-318 1803,-324 1797,-324"/>
<text text-anchor="middle" x="1721" y="-303.2" font-family="Helvetica" font-size="11.00">Call System Exception Handler</text>
</g>
<!-- n21&#45;&gt;n22 -->
<g id="edge23" class="edge">
<title>n21&#45;&gt;n22</title>
<path fill="none" stroke="#555555" d="M1575.25,-343.03C1592.74,-338.55 1616.44,-332.49 1639.59,-326.57"/>
<polygon fill="#555555" stroke="#555555" points="1640.64,-329.91 1649.46,-324.04 1638.91,-323.13 1640.64,-329.91"/>
</g>
<!-- n22&#45;&gt;n13 -->
<g id="edge27" class="edge">
<title>n22&#45;&gt;n13</title>
<path fill="none" stroke="#555555" d="M1788.35,-287.91C1813.02,-281.25 1841.27,-273.7 1867,-267 1911.43,-255.44 1962.33,-242.7 1997.74,-233.91"/>
<polygon fill="#555555" stroke="#555555" points="1998.89,-237.24 2007.75,-231.43 1997.21,-230.44 1998.89,-237.24"/>
</g>
<!-- n22&#45;&gt;n18 -->
<g id="edge26" class="edge">
<title>n22&#45;&gt;n18</title>
<path fill="none" stroke="#555555" d="M1809.05,-306C1825.26,-306 1841.7,-306 1856.39,-306"/>
<polygon fill="#555555" stroke="#555555" points="1856.74,-309.5 1866.74,-306 1856.74,-302.5 1856.74,-309.5"/>
</g>
<!-- n23&#45;&gt;n15 -->
<g id="edge28" class="edge">
<title>n23&#45;&gt;n15</title>
<path fill="none" stroke="#555555" d="M917.19,-267C932.4,-267 948.7,-267 964.43,-267"/>
<polygon fill="#555555" stroke="#555555" points="964.67,-270.5 974.67,-267 964.67,-263.5 964.67,-270.5"/>
</g>
<!-- n6 -->
<g id="node21" class="node">
<title>n6</title>
<path fill="#e8f4f8" stroke="black" d="M1063,-198C1063,-198 1033,-198 1033,-198 1027,-198 1021,-192 1021,-186 1021,-186 1021,-174 1021,-174 1021,-168 1027,-162 1033,-162 1033,-162 1063,-162 1063,-162 1069,-162 1075,-168 1075,-174 1075,-174 1075,-186 1075,-186 1075,-192 1069,-198 1063,-198"/>
<text text-anchor="middle" x="1048" y="-177.2" font-family="Helvetica" font-size="11.00">Null</text>
</g>
<!-- n23&#45;&gt;n6 -->
<g id="edge29" class="edge">
<title>n23&#45;&gt;n6</title>
<path fill="none" stroke="#555555" d="M890.42,-248.97C926.11,-233.25 977.34,-210.68 1011.37,-195.7"/>
<polygon fill="#555555" stroke="#555555" points="1013.17,-198.73 1020.91,-191.49 1010.35,-192.32 1013.17,-198.73"/>
</g>
<!-- n5 -->
<g id="node20" class="node">
<title>n5</title>
<path fill="#e8f4f8" stroke="black" d="M512,-36C512,-36 423,-36 423,-36 417,-36 411,-30 411,-24 411,-24 411,-12 411,-12 411,-6 417,0 423,0 423,0 512,0 512,0 518,0 524,-6 524,-12 524,-12 524,-24 524,-24 524,-30 518,-36 512,-36"/>
<text text-anchor="middle" x="467.5" y="-15.2" font-family="Helvetica" font-size="11.00">OperationReply&#45;1</text>
</g>
<!-- n4&#45;&gt;n5 -->
<g id="edge6" class="edge">
<title>n4&#45;&gt;n5</title>
<path fill="none" stroke="#555555" d="M353.19,-18C368.88,-18 385.24,-18 400.48,-18"/>
<polygon fill="#555555" stroke="#555555" points="400.84,-21.5 410.84,-18 400.84,-14.5 400.84,-21.5"/>
</g>
<!-- n5&#45;&gt;n3 -->
<g id="edge5" class="edge">
<title>n5&#45;&gt;n3</title>
<path fill="none" stroke="#555555" d="M524.25,-29.91C553.55,-36.17 588.63,-43.67 614.45,-49.19"/>
<polygon fill="#555555" stroke="#555555" points="614.04,-52.68 624.55,-51.35 615.51,-45.84 614.04,-52.68"/>
</g>
<!-- n7 -->
<g id="node22" class="node">
<title>n7</title>
<path fill="#e8f4f8" stroke="black" d="M1427,-198C1427,-198 1341,-198 1341,-198 1335,-198 1329,-192 1329,-186 1329,-186 1329,-174 1329,-174 1329,-168 1335,-162 1341,-162 1341,-162 1427,-162 1427,-162 1433,-162 1439,-168 1439,-174 1439,-174 1439,-186 1439,-186 1439,-192 1433,-198 1427,-198"/>
<text text-anchor="middle" x="1384" y="-177.2" font-family="Helvetica" font-size="11.00">InvocationDetails</text>
</g>
<!-- n6&#45;&gt;n7 -->
<g id="edge7" class="edge">
<title>n6&#45;&gt;n7</title>
<path fill="none" stroke="#555555" d="M1075.21,-180C1127.2,-180 1244.74,-180 1318.59,-180"/>
<polygon fill="#555555" stroke="#555555" points="1318.71,-183.5 1328.71,-180 1318.71,-176.5 1318.71,-183.5"/>
</g>
<!-- n7&#45;&gt;n22 -->
<g id="edge31" class="edge">
<title>n7&#45;&gt;n22</title>
<path fill="none" stroke="#555555" d="M1433,-198.05C1493.57,-220.84 1597.65,-259.98 1662.44,-284.35"/>
<polygon fill="#555555" stroke="#555555" points="1661.5,-287.74 1672.09,-287.98 1663.96,-281.18 1661.5,-287.74"/>
</g>
<!-- n8 -->
<g id="node23" class="node">
<title>n8</title>
<path fill="#c8e6c9" stroke="black" d="M126,-241C126,-241 12,-241 12,-241 6,-241 0,-235 0,-229 0,-229 0,-217 0,-217 0,-211 6,-205 12,-205 12,-205 126,-205 126,-205 132,-205 138,-211 138,-217 138,-217 138,-229 138,-229 138,-235 132,-241 126,-241"/>
<text text-anchor="middle" x="69" y="-220.2" font-family="Helvetica" font-size="11.00">Receive JMS Message</text>
</g>
<!-- n8&#45;&gt;n6 -->
<g id="edge8" class="edge">
<title>n8&#45;&gt;n6</title>
<path fill="none" stroke="#555555" d="M138.17,-211.08C216.97,-198.35 350.7,-180 466.5,-180 466.5,-180 466.5,-180 653,-180 784.48,-180 940.64,-180 1010.3,-180"/>
<polygon fill="#555555" stroke="#555555" points="1010.72,-183.5 1020.72,-180 1010.72,-176.5 1010.72,-183.5"/>
</g>
<!-- n9 -->
<g id="node24" class="node">
<title>n9</title>
<path fill="#e8f4f8" stroke="black" d="M331.5,-285C331.5,-285 217.5,-285 217.5,-285 211.5,-285 205.5,-279 205.5,-273 205.5,-273 205.5,-261 205.5,-261 205.5,-255 211.5,-249 217.5,-249 217.5,-249 331.5,-249 331.5,-249 337.5,-249 343.5,-255 343.5,-261 343.5,-261 343.5,-273 343.5,-273 343.5,-279 337.5,-285 331.5,-285"/>
<text text-anchor="middle" x="274.5" y="-264.2" font-family="Helvetica" font-size="11.00">Confirm JMS Message</text>
</g>
<!-- n8&#45;&gt;n9 -->
<g id="edge10" class="edge">
<title>n8&#45;&gt;n9</title>
<path fill="none" stroke="#555555" d="M138.05,-237.71C156.36,-241.67 176.32,-245.99 195.15,-250.06"/>
<polygon fill="#555555" stroke="#555555" points="194.66,-253.53 205.17,-252.23 196.14,-246.69 194.66,-253.53"/>
</g>
<!-- n9&#45;&gt;n10 -->
<g id="edge9" class="edge">
<title>n9&#45;&gt;n10</title>
<path fill="none" stroke="#555555" d="M343.5,-267C407.73,-267 504.04,-267 571.73,-267"/>
<polygon fill="#555555" stroke="#555555" points="571.92,-270.5 581.92,-267 571.92,-263.5 571.92,-270.5"/>
</g>
<!-- n9&#45;&gt;n14 -->
<g id="edge13" class="edge">
<title>n9&#45;&gt;n14</title>
<path fill="none" stroke="#555555" d="M316.94,-285.01C348.07,-298.53 390.61,-317.02 422.36,-330.82"/>
<polygon fill="#555555" stroke="#555555" points="421.28,-334.17 431.85,-334.94 424.07,-327.75 421.28,-334.17"/>
</g>
</g>
</svg>
