<?xml version="1.0" encoding="UTF-8" standalone="no"?>
<!DOCTYPE svg PUBLIC "-//W3C//DTD SVG 1.1//EN"
 "http://www.w3.org/Graphics/SVG/1.1/DTD/svg11.dtd">
<!-- Generated by graphviz version 2.44.0 (0)
 -->
<!-- Title: process Pages: 1 -->
<svg width="772pt" height="345pt"
 viewBox="0.00 0.00 772.00 345.00" xmlns="http://www.w3.org/2000/svg" xmlns:xlink="http://www.w3.org/1999/xlink">
<g id="graph0" class="graph" transform="scale(1 1) rotate(0) translate(36 309)">
<title>process</title>
<polygon fill="#ffffff" stroke="transparent" points="-36,36 -36,-309 736,-309 736,36 -36,36"/>
<!-- n0 -->
<g id="node1" class="node">
<title>n0</title>
<path fill="#c8e6c9" stroke="black" d="M42,-154C42,-154 12,-154 12,-154 6,-154 0,-148 0,-142 0,-142 0,-130 0,-130 0,-124 6,-118 12,-118 12,-118 42,-118 42,-118 48,-118 54,-124 54,-130 54,-130 54,-142 54,-142 54,-148 48,-154 42,-154"/>
<text text-anchor="middle" x="27" y="-133.2" font-family="Helvetica" font-size="11.00">Start</text>
</g>
<!-- n1 -->
<g id="node2" class="node">
<title>n1</title>
<path fill="#e8f4f8" stroke="black" d="M193,-154C193,-154 124,-154 124,-154 118,-154 112,-148 112,-142 112,-142 112,-130 112,-130 112,-124 118,-118 124,-118 124,-118 193,-118 193,-118 199,-118 205,-124 205,-130 205,-130 205,-142 205,-142 205,-148 199,-154 193,-154"/>
<text text-anchor="middle" x="158.5" y="-133.2" font-family="Helvetica" font-size="11.00">Prepare Data</text>
</g>
<!-- n0&#45;&gt;n1 -->
<g id="edge1" class="edge">
<title>n0&#45;&gt;n1</title>
<path fill="none" stroke="#555555" d="M54.21,-136C67.92,-136 85.25,-136 101.78,-136"/>
<polygon fill="#555555" stroke="#555555" points="101.93,-139.5 111.93,-136 101.93,-132.5 101.93,-139.5"/>
</g>
<!-- n7 -->
<g id="node8" class="node">
<title>n7</title>
<path fill="#e8f4f8" stroke="black" d="M392,-154C392,-154 275,-154 275,-154 269,-154 263,-148 263,-142 263,-142 263,-130 263,-130 263,-124 269,-118 275,-118 275,-118 392,-118 392,-118 398,-118 404,-124 404,-130 404,-130 404,-142 404,-142 404,-148 398,-154 392,-154"/>
<text text-anchor="middle" x="333.5" y="-133.2" font-family="Helvetica" font-size="11.00">Prepare Msg and Code</text>
</g>
<!-- n1&#45;&gt;n7 -->
<g id="edge6" class="edge">
<title>n1&#45;&gt;n7</title>
<path fill="none" stroke="#555555" d="M205.41,-136C220,-136 236.58,-136 252.84,-136"/>
<polygon fill="#555555" stroke="#555555" points="252.9,-139.5 262.9,-136 252.9,-132.5 252.9,-139.5"/>
</g>
<!-- n2 -->
<g id="node3" class="node">
<title>n2</title>
<path fill="#e8f4f8" stroke="black" d="M576,-273C576,-273 474,-273 474,-273 468,-273 462,-267 462,-261 462,-261 462,-249 462,-249 462,-243 468,-237 474,-237 474,-237 576,-237 576,-237 582,-237 588,-243 588,-249 588,-249 588,-261 588,-261 588,-267 582,-273 576,-273"/>
<text text-anchor="middle" x="525" y="-252.2" font-family="Helvetica" font-size="11.00">WriteToLog&#45;DEBUG</text>
</g>
<!-- n3 -->
<g id="node4" class="node">
<title>n3</title>
<path fill="#ffccbc" stroke="black" d="M688,-154C688,-154 658,-154 658,-154 652,-154 646,-148 646,-142 646,-142 646,-130 646,-130 646,-124 652,-118 658,-118 658,-118 688,-118 688,-118 694,-118 700,-124 700,-130 700,-130 700,-142 700,-142 700,-148 694,-154 688,-154"/>
<text text-anchor="middle" x="673" y="-133.2" font-family="Helvetica" font-size="11.00">End</text>
</g>
<!-- n2&#45;&gt;n3 -->
<g id="edge2" class="edge">
<title>n2&#45;&gt;n3</title>
<path fill="none" stroke="#555555" d="M557.41,-236.93C567.47,-230.7 578.47,-223.42 588,-216 609.5,-199.27 631.74,-177.88 647.92,-161.43"/>
<polygon fill="#555555" stroke="#555555" points="650.44,-163.86 654.91,-154.25 645.43,-158.98 650.44,-163.86"/>
</g>
<!-- n4 -->
<g id="node5" class="node">
<title>n4</title>
<path fill="#e8f4f8" stroke="black" d="M573.5,-194C573.5,-194 476.5,-194 476.5,-194 470.5,-194 464.5,-188 464.5,-182 464.5,-182 464.5,-170 464.5,-170 464.5,-164 470.5,-158 476.5,-158 476.5,-158 573.5,-158 573.5,-158 579.5,-158 585.5,-164 585.5,-170 585.5,-170 585.5,-182 585.5,-182 585.5,-188 579.5,-194 573.5,-194"/>
<text text-anchor="middle" x="525" y="-173.2" font-family="Helvetica" font-size="11.00">WriteToLog&#45;WARN</text>
</g>
<!-- n4&#45;&gt;n3 -->
<g id="edge3" class="edge">
<title>n4&#45;&gt;n3</title>
<path fill="none" stroke="#555555" d="M585.81,-159.62C602.82,-154.95 620.83,-150.02 635.97,-145.87"/>
<polygon fill="#555555" stroke="#555555" points="637.21,-149.16 645.93,-143.14 635.36,-142.41 637.21,-149.16"/>
</g>
<!-- n5 -->
<g id="node6" class="node">
<title>n5</title>
<path fill="#e8f4f8" stroke="black" d="M569.5,-115C569.5,-115 480.5,-115 480.5,-115 474.5,-115 468.5,-109 468.5,-103 468.5,-103 468.5,-91 468.5,-91 468.5,-85 474.5,-79 480.5,-79 480.5,-79 569.5,-79 569.5,-79 575.5,-79 581.5,-85 581.5,-91 581.5,-91 581.5,-103 581.5,-103 581.5,-109 575.5,-115 569.5,-115"/>
<text text-anchor="middle" x="525" y="-94.2" font-family="Helvetica" font-size="11.00">WriteToLog&#45;INFO</text>
</g>
<!-- n5&#45;&gt;n3 -->
<g id="edge4" class="edge">
<title>n5&#45;&gt;n3</title>
<path fill="none" stroke="#555555" d="M581.61,-111.86C599.9,-116.74 619.73,-122.04 636.14,-126.42"/>
<polygon fill="#555555" stroke="#555555" points="635.31,-129.82 645.88,-129.02 637.12,-123.06 635.31,-129.82"/>
</g>
<!-- n6 -->
<g id="node7" class="node">
<title>n6</title>
<path fill="#ffcdd2" stroke="black" d="M576,-36C576,-36 474,-36 474,-36 468,-36 462,-30 462,-24 462,-24 462,-12 462,-12 462,-6 468,0 474,0 474,0 576,0 576,0 582,0 588,-6 588,-12 588,-12 588,-24 588,-24 588,-30 582,-36 576,-36"/>
<text text-anchor="middle" x="525" y="-15.2" font-family="Helvetica" font-size="11.00">WriteToLog&#45;ERROR</text>
</g>
<!-- n6&#45;&gt;n3 -->
<g id="edge5" class="edge">
<title>n6&#45;&gt;n3</title>
<path fill="none" stroke="#555555" d="M556.37,-36.1C566.68,-42.63 578.09,-50.3 588,-58 608.93,-74.27 630.82,-94.72 647.01,-110.61"/>
<polygon fill="#555555" stroke="#555555" points="644.9,-113.44 654.47,-118 649.83,-108.47 644.9,-113.44"/>
</g>
<!-- n7&#45;&gt;n2 -->
<g id="edge7" class="edge">
<title>n7&#45;&gt;n2</title>
<path fill="none" stroke="#555555" d="M363.28,-154.07C396.21,-174.75 450.25,-208.69 486.46,-231.43"/>
<polygon fill="#555555" stroke="#555555" points="484.93,-234.6 495.26,-236.95 488.65,-228.67 484.93,-234.6"/>
</g>
<!-- n7&#45;&gt;n4 -->
<g id="edge9" class="edge">
<title>n7&#45;&gt;n4</title>
<path fill="none" stroke="#555555" d="M404.26,-150.72C420.6,-154.17 438.01,-157.85 454.35,-161.3"/>
<polygon fill="#555555" stroke="#555555" points="453.86,-164.77 464.36,-163.41 455.3,-157.92 453.86,-164.77"/>
</g>
<!-- n7&#45;&gt;n5 -->
<g id="edge8" class="edge">
<title>n7&#45;&gt;n5</title>
<path fill="none" stroke="#555555" d="M404.26,-121.64C421.9,-118.01 440.79,-114.13 458.23,-110.54"/>
<polygon fill="#555555" stroke="#555555" points="459.22,-113.91 468.31,-108.46 457.81,-107.05 459.22,-113.91"/>
</g>
<!-- n7&#45;&gt;n6 -->
<g id="edge10" class="edge">
<title>n7&#45;&gt;n6</title>
<path fill="none" stroke="#555555" d="M363.69,-117.82C396.62,-97.32 450.26,-63.92 486.32,-41.46"/>
<polygon fill="#555555" stroke="#555555" points="488.45,-44.26 495.08,-36.01 484.74,-38.32 488.45,-44.26"/>
</g>
</g>
</svg>
