<?xml version="1.0" encoding="UTF-8" standalone="no"?>
<!DOCTYPE svg PUBLIC "-//W3C//DTD SVG 1.1//EN"
 "http://www.w3.org/Graphics/SVG/1.1/DTD/svg11.dtd">
<!-- Generated by graphviz version 2.44.0 (0)
 -->
<!-- Title: process Pages: 1 -->
<svg width="484pt" height="187pt"
 viewBox="0.00 0.00 484.00 187.00" xmlns="http://www.w3.org/2000/svg" xmlns:xlink="http://www.w3.org/1999/xlink">
<g id="graph0" class="graph" transform="scale(1 1) rotate(0) translate(36 151)">
<title>process</title>
<polygon fill="#ffffff" stroke="transparent" points="-36,36 -36,-151 448,-151 448,36 -36,36"/>
<!-- n0 -->
<g id="node1" class="node">
<title>n0</title>
<path fill="#e8f4f8" stroke="black" d="M44,-75C44,-75 12,-75 12,-75 6,-75 0,-69 0,-63 0,-63 0,-51 0,-51 0,-45 6,-39 12,-39 12,-39 44,-39 44,-39 50,-39 56,-45 56,-51 56,-51 56,-63 56,-63 56,-69 50,-75 44,-75"/>
<text text-anchor="middle" x="28" y="-54.2" font-family="Helvetica" font-size="11.00">Timer</text>
</g>
<!-- n1 -->
<g id="node2" class="node">
<title>n1</title>
<path fill="#e8f4f8" stroke="black" d="M241,-75C241,-75 126,-75 126,-75 120,-75 114,-69 114,-63 114,-63 114,-51 114,-51 114,-45 120,-39 126,-39 126,-39 241,-39 241,-39 247,-39 253,-45 253,-51 253,-51 253,-63 253,-63 253,-69 247,-75 241,-75"/>
<text text-anchor="middle" x="183.5" y="-54.2" font-family="Helvetica" font-size="11.00">LoadProductCatalouge</text>
</g>
<!-- n0&#45;&gt;n1 -->
<g id="edge1" class="edge">
<title>n0&#45;&gt;n1</title>
<path fill="none" stroke="#555555" d="M56.09,-57C69.54,-57 86.57,-57 103.72,-57"/>
<polygon fill="#555555" stroke="#555555" points="103.81,-60.5 113.81,-57 103.81,-53.5 103.81,-60.5"/>
</g>
<!-- n2 -->
<g id="node3" class="node">
<title>n2</title>
<path fill="#ffccbc" stroke="black" d="M376.5,-115C376.5,-115 346.5,-115 346.5,-115 340.5,-115 334.5,-109 334.5,-103 334.5,-103 334.5,-91 334.5,-91 334.5,-85 340.5,-79 346.5,-79 346.5,-79 376.5,-79 376.5,-79 382.5,-79 388.5,-85 388.5,-91 388.5,-91 388.5,-103 388.5,-103 388.5,-109 382.5,-115 376.5,-115"/>
<text text-anchor="middle" x="361.5" y="-94.2" font-family="Helvetica" font-size="11.00">End</text>
</g>
<!-- n1&#45;&gt;n2 -->
<g id="edge2" class="edge">
<title>n1&#45;&gt;n2</title>
<path fill="none" stroke="#555555" d="M253.05,-72.58C277.33,-78.1 303.68,-84.09 324.21,-88.75"/>
<polygon fill="#555555" stroke="#555555" points="323.56,-92.19 334.08,-91 325.11,-85.37 323.56,-92.19"/>
</g>
<!-- n3 -->
<g id="node4" class="node">
<title>n3</title>
<path fill="#ffcdd2" stroke="black" d="M400,-36C400,-36 323,-36 323,-36 317,-36 311,-30 311,-24 311,-24 311,-12 311,-12 311,-6 317,0 323,0 323,0 400,0 400,0 406,0 412,-6 412,-12 412,-12 412,-24 412,-24 412,-30 406,-36 400,-36"/>
<text text-anchor="middle" x="361.5" y="-15.2" font-family="Helvetica" font-size="11.00">Generate Error</text>
</g>
<!-- n1&#45;&gt;n3 -->
<g id="edge3" class="edge">
<title>n1&#45;&gt;n3</title>
<path fill="none" stroke="#555555" d="M253.05,-41.81C268.89,-38.3 285.61,-34.6 301.02,-31.18"/>
<polygon fill="#555555" stroke="#555555" points="301.93,-34.56 310.93,-28.98 300.41,-27.73 301.93,-34.56"/>
</g>
</g>
</svg>
