<?xml version="1.0" encoding="UTF-8" standalone="no"?>
<!DOCTYPE svg PUBLIC "-//W3C//DTD SVG 1.1//EN"
 "http://www.w3.org/Graphics/SVG/1.1/DTD/svg11.dtd">
<!-- Generated by graphviz version 2.44.0 (0)
 -->
<!-- Title: process Pages: 1 -->
<svg width="783pt" height="187pt"
 viewBox="0.00 0.00 783.00 187.00" xmlns="http://www.w3.org/2000/svg" xmlns:xlink="http://www.w3.org/1999/xlink">
<g id="graph0" class="graph" transform="scale(1 1) rotate(0) translate(36 151)">
<title>process</title>
<polygon fill="#ffffff" stroke="transparent" points="-36,36 -36,-151 747,-151 747,36 -36,36"/>
<!-- n0 -->
<g id="node1" class="node">
<title>n0</title>
<path fill="#e8f4f8" stroke="black" d="M64,-75C64,-75 12,-75 12,-75 6,-75 0,-69 0,-63 0,-63 0,-51 0,-51 0,-45 6,-39 12,-39 12,-39 64,-39 64,-39 70,-39 76,-45 76,-51 76,-51 76,-63 76,-63 76,-69 70,-75 64,-75"/>
<text text-anchor="middle" x="38" y="-54.2" font-family="Helvetica" font-size="11.00">onStartup</text>
</g>
<!-- n1 -->
<g id="node2" class="node">
<title>n1</title>
<path fill="#c8e6c9" stroke="black" d="M223,-75C223,-75 146,-75 146,-75 140,-75 134,-69 134,-63 134,-63 134,-51 134,-51 134,-45 140,-39 146,-39 146,-39 223,-39 223,-39 229,-39 235,-45 235,-51 235,-51 235,-63 235,-63 235,-69 229,-75 223,-75"/>
<text text-anchor="middle" x="184.5" y="-54.2" font-family="Helvetica" font-size="11.00">Start Log Audit</text>
</g>
<!-- n0&#45;&gt;n1 -->
<g id="edge1" class="edge">
<title>n0&#45;&gt;n1</title>
<path fill="none" stroke="#555555" d="M76.21,-57C90.62,-57 107.47,-57 123.5,-57"/>
<polygon fill="#555555" stroke="#555555" points="123.88,-60.5 133.88,-57 123.88,-53.5 123.88,-60.5"/>
</g>
<!-- n5 -->
<g id="node6" class="node">
<title>n5</title>
<path fill="#e8f4f8" stroke="black" d="M398,-75C398,-75 305,-75 305,-75 299,-75 293,-69 293,-63 293,-63 293,-51 293,-51 293,-45 299,-39 305,-39 305,-39 398,-39 398,-39 404,-39 410,-45 410,-51 410,-51 410,-63 410,-63 410,-69 404,-75 398,-75"/>
<text text-anchor="middle" x="351.5" y="-54.2" font-family="Helvetica" font-size="11.00">ProductClassLoad</text>
</g>
<!-- n1&#45;&gt;n5 -->
<g id="edge4" class="edge">
<title>n1&#45;&gt;n5</title>
<path fill="none" stroke="#555555" d="M235.01,-57C249.96,-57 266.64,-57 282.57,-57"/>
<polygon fill="#555555" stroke="#555555" points="282.91,-60.5 292.91,-57 282.91,-53.5 282.91,-60.5"/>
</g>
<!-- n2 -->
<g id="node3" class="node">
<title>n2</title>
<path fill="#e8f4f8" stroke="black" d="M587,-115C587,-115 480,-115 480,-115 474,-115 468,-109 468,-103 468,-103 468,-91 468,-91 468,-85 474,-79 480,-79 480,-79 587,-79 587,-79 593,-79 599,-85 599,-91 599,-91 599,-103 599,-103 599,-109 593,-115 587,-115"/>
<text text-anchor="middle" x="533.5" y="-94.2" font-family="Helvetica" font-size="11.00">Shutdown BWEngine</text>
</g>
<!-- n3 -->
<g id="node4" class="node">
<title>n3</title>
<path fill="#ffccbc" stroke="black" d="M699,-75C699,-75 669,-75 669,-75 663,-75 657,-69 657,-63 657,-63 657,-51 657,-51 657,-45 663,-39 669,-39 669,-39 699,-39 699,-39 705,-39 711,-45 711,-51 711,-51 711,-63 711,-63 711,-69 705,-75 699,-75"/>
<text text-anchor="middle" x="684" y="-54.2" font-family="Helvetica" font-size="11.00">End</text>
</g>
<!-- n2&#45;&gt;n3 -->
<g id="edge2" class="edge">
<title>n2&#45;&gt;n3</title>
<path fill="none" stroke="#555555" d="M599.2,-79.57C615.55,-75.17 632.54,-70.59 646.9,-66.72"/>
<polygon fill="#555555" stroke="#555555" points="648.11,-70.02 656.85,-64.04 646.29,-63.26 648.11,-70.02"/>
</g>
<!-- n4 -->
<g id="node5" class="node">
<title>n4</title>
<path fill="#ffccbc" stroke="black" d="M570,-36C570,-36 497,-36 497,-36 491,-36 485,-30 485,-24 485,-24 485,-12 485,-12 485,-6 491,0 497,0 497,0 570,0 570,0 576,0 582,-6 582,-12 582,-12 582,-24 582,-24 582,-30 576,-36 570,-36"/>
<text text-anchor="middle" x="533.5" y="-15.2" font-family="Helvetica" font-size="11.00">End Audit Log</text>
</g>
<!-- n4&#45;&gt;n3 -->
<g id="edge3" class="edge">
<title>n4&#45;&gt;n3</title>
<path fill="none" stroke="#555555" d="M582.3,-30.55C603.39,-36.09 627.74,-42.49 647.22,-47.6"/>
<polygon fill="#555555" stroke="#555555" points="646.35,-50.99 656.92,-50.15 648.13,-44.22 646.35,-50.99"/>
</g>
<!-- n5&#45;&gt;n2 -->
<g id="edge6" class="edge">
<title>n5&#45;&gt;n2</title>
<path fill="none" stroke="#555555" d="M410.44,-69.88C425.59,-73.24 442.14,-76.92 458.02,-80.45"/>
<polygon fill="#555555" stroke="#555555" points="457.28,-83.87 467.8,-82.62 458.8,-77.04 457.28,-83.87"/>
</g>
<!-- n5&#45;&gt;n4 -->
<g id="edge5" class="edge">
<title>n5&#45;&gt;n4</title>
<path fill="none" stroke="#555555" d="M410.44,-44.45C431.11,-39.97 454.37,-34.93 475,-30.46"/>
<polygon fill="#555555" stroke="#555555" points="475.86,-33.85 484.89,-28.31 474.38,-27.01 475.86,-33.85"/>
</g>
</g>
</svg>
