<?xml version="1.0" encoding="UTF-8" standalone="no"?>
<!DOCTYPE svg PUBLIC "-//W3C//DTD SVG 1.1//EN"
 "http://www.w3.org/Graphics/SVG/1.1/DTD/svg11.dtd">
<!-- Generated by graphviz version 2.44.0 (0)
 -->
<!-- Title: process Pages: 1 -->
<svg width="530pt" height="187pt"
 viewBox="0.00 0.00 530.00 187.00" xmlns="http://www.w3.org/2000/svg" xmlns:xlink="http://www.w3.org/1999/xlink">
<g id="graph0" class="graph" transform="scale(1 1) rotate(0) translate(36 151)">
<title>process</title>
<polygon fill="#ffffff" stroke="transparent" points="-36,36 -36,-151 494,-151 494,36 -36,36"/>
<!-- n0 -->
<g id="node1" class="node">
<title>n0</title>
<path fill="#c8e6c9" stroke="black" d="M42,-75C42,-75 12,-75 12,-75 6,-75 0,-69 0,-63 0,-63 0,-51 0,-51 0,-45 6,-39 12,-39 12,-39 42,-39 42,-39 48,-39 54,-45 54,-51 54,-51 54,-63 54,-63 54,-69 48,-75 42,-75"/>
<text text-anchor="middle" x="27" y="-54.2" font-family="Helvetica" font-size="11.00">Start</text>
</g>
<!-- n1 -->
<g id="node2" class="node">
<title>n1</title>
<path fill="#e8f4f8" stroke="black" d="M175,-75C175,-75 124,-75 124,-75 118,-75 112,-69 112,-63 112,-63 112,-51 112,-51 112,-45 118,-39 124,-39 124,-39 175,-39 175,-39 181,-39 187,-45 187,-51 187,-51 187,-63 187,-63 187,-69 181,-75 175,-75"/>
<text text-anchor="middle" x="149.5" y="-54.2" font-family="Helvetica" font-size="11.00">Map Data</text>
</g>
<!-- n0&#45;&gt;n1 -->
<g id="edge1" class="edge">
<title>n0&#45;&gt;n1</title>
<path fill="none" stroke="#555555" d="M54.15,-57C68,-57 85.44,-57 101.55,-57"/>
<polygon fill="#555555" stroke="#555555" points="101.89,-60.5 111.89,-57 101.89,-53.5 101.89,-60.5"/>
</g>
<!-- n2 -->
<g id="node3" class="node">
<title>n2</title>
<path fill="#e8f4f8" stroke="black" d="M326,-115C326,-115 265,-115 265,-115 259,-115 253,-109 253,-103 253,-103 253,-91 253,-91 253,-85 259,-79 265,-79 265,-79 326,-79 326,-79 332,-79 338,-85 338,-91 338,-91 338,-103 338,-103 338,-109 332,-115 326,-115"/>
<text text-anchor="middle" x="295.5" y="-94.2" font-family="Helvetica" font-size="11.00">GetBalance</text>
</g>
<!-- n1&#45;&gt;n2 -->
<g id="edge3" class="edge">
<title>n1&#45;&gt;n2</title>
<path fill="none" stroke="#555555" d="M187.21,-67.2C204.16,-71.91 224.58,-77.58 243.04,-82.7"/>
<polygon fill="#555555" stroke="#555555" points="242.19,-86.1 252.76,-85.41 244.07,-79.36 242.19,-86.1"/>
</g>
<!-- n4 -->
<g id="node5" class="node">
<title>n4</title>
<path fill="#ffcdd2" stroke="black" d="M334,-36C334,-36 257,-36 257,-36 251,-36 245,-30 245,-24 245,-24 245,-12 245,-12 245,-6 251,0 257,0 257,0 334,0 334,0 340,0 346,-6 346,-12 346,-12 346,-24 346,-24 346,-30 340,-36 334,-36"/>
<text text-anchor="middle" x="295.5" y="-15.2" font-family="Helvetica" font-size="11.00">Generate Error</text>
</g>
<!-- n1&#45;&gt;n4 -->
<g id="edge4" class="edge">
<title>n1&#45;&gt;n4</title>
<path fill="none" stroke="#555555" d="M187.21,-47.06C201.7,-43.13 218.73,-38.52 234.89,-34.14"/>
<polygon fill="#555555" stroke="#555555" points="236.08,-37.45 244.82,-31.46 234.25,-30.69 236.08,-37.45"/>
</g>
<!-- n3 -->
<g id="node4" class="node">
<title>n3</title>
<path fill="#ffccbc" stroke="black" d="M446,-115C446,-115 416,-115 416,-115 410,-115 404,-109 404,-103 404,-103 404,-91 404,-91 404,-85 410,-79 416,-79 416,-79 446,-79 446,-79 452,-79 458,-85 458,-91 458,-91 458,-103 458,-103 458,-109 452,-115 446,-115"/>
<text text-anchor="middle" x="431" y="-94.2" font-family="Helvetica" font-size="11.00">End</text>
</g>
<!-- n2&#45;&gt;n3 -->
<g id="edge2" class="edge">
<title>n2&#45;&gt;n3</title>
<path fill="none" stroke="#555555" d="M338.01,-97C355.76,-97 376.3,-97 393.46,-97"/>
<polygon fill="#555555" stroke="#555555" points="393.65,-100.5 403.65,-97 393.65,-93.5 393.65,-100.5"/>
</g>
</g>
</svg>
