<?xml version="1.0" encoding="UTF-8" standalone="no"?>
<!DOCTYPE svg PUBLIC "-//W3C//DTD SVG 1.1//EN"
 "http://www.w3.org/Graphics/SVG/1.1/DTD/svg11.dtd">
<!-- Generated by graphviz version 2.44.0 (0)
 -->
<!-- Title: process Pages: 1 -->
<svg width="657pt" height="266pt"
 viewBox="0.00 0.00 657.00 266.00" xmlns="http://www.w3.org/2000/svg" xmlns:xlink="http://www.w3.org/1999/xlink">
<g id="graph0" class="graph" transform="scale(1 1) rotate(0) translate(36 230)">
<title>process</title>
<polygon fill="#ffffff" stroke="transparent" points="-36,36 -36,-230 621,-230 621,36 -36,36"/>
<!-- n0 -->
<g id="node1" class="node">
<title>n0</title>
<path fill="#c8e6c9" stroke="black" d="M42,-36C42,-36 12,-36 12,-36 6,-36 0,-30 0,-24 0,-24 0,-12 0,-12 0,-6 6,0 12,0 12,0 42,0 42,0 48,0 54,-6 54,-12 54,-12 54,-24 54,-24 54,-30 48,-36 42,-36"/>
<text text-anchor="middle" x="27" y="-15.2" font-family="Helvetica" font-size="11.00">start</text>
</g>
<!-- n1 -->
<g id="node2" class="node">
<title>n1</title>
<path fill="#e8f4f8" stroke="black" d="M216,-36C216,-36 124,-36 124,-36 118,-36 112,-30 112,-24 112,-24 112,-12 112,-12 112,-6 118,0 124,0 124,0 216,0 216,0 222,0 228,-6 228,-12 228,-12 228,-24 228,-24 228,-30 222,-36 216,-36"/>
<text text-anchor="middle" x="170" y="-15.2" font-family="Helvetica" font-size="11.00">Message from DB</text>
</g>
<!-- n0&#45;&gt;n1 -->
<g id="edge1" class="edge">
<title>n0&#45;&gt;n1</title>
<path fill="none" stroke="#555555" d="M54.19,-18C67.64,-18 84.72,-18 101.56,-18"/>
<polygon fill="#555555" stroke="#555555" points="101.98,-21.5 111.98,-18 101.98,-14.5 101.98,-21.5"/>
</g>
<!-- n2 -->
<g id="node3" class="node">
<title>n2</title>
<path fill="#e8f4f8" stroke="black" d="M414,-36C414,-36 298,-36 298,-36 292,-36 286,-30 286,-24 286,-24 286,-12 286,-12 286,-6 292,0 298,0 298,0 414,0 414,0 420,0 426,-6 426,-12 426,-12 426,-24 426,-24 426,-30 420,-36 414,-36"/>
<text text-anchor="middle" x="356" y="-15.2" font-family="Helvetica" font-size="11.00">TilProductUsageConfig</text>
</g>
<!-- n1&#45;&gt;n2 -->
<g id="edge3" class="edge">
<title>n1&#45;&gt;n2</title>
<path fill="none" stroke="#555555" d="M228.21,-18C243.18,-18 259.59,-18 275.5,-18"/>
<polygon fill="#555555" stroke="#555555" points="275.86,-21.5 285.86,-18 275.86,-14.5 275.86,-21.5"/>
</g>
<!-- n3 -->
<g id="node4" class="node">
<title>n3</title>
<path fill="#ffccbc" stroke="black" d="M549.5,-36C549.5,-36 519.5,-36 519.5,-36 513.5,-36 507.5,-30 507.5,-24 507.5,-24 507.5,-12 507.5,-12 507.5,-6 513.5,0 519.5,0 519.5,0 549.5,0 549.5,0 555.5,0 561.5,-6 561.5,-12 561.5,-12 561.5,-24 561.5,-24 561.5,-30 555.5,-36 549.5,-36"/>
<text text-anchor="middle" x="534.5" y="-15.2" font-family="Helvetica" font-size="11.00">end</text>
</g>
<!-- n2&#45;&gt;n3 -->
<g id="edge2" class="edge">
<title>n2&#45;&gt;n3</title>
<path fill="none" stroke="#555555" d="M426.25,-18C450.43,-18 476.61,-18 497.05,-18"/>
<polygon fill="#555555" stroke="#555555" points="497.17,-21.5 507.17,-18 497.17,-14.5 497.17,-21.5"/>
</g>
<!-- n4 -->
<g id="node5" class="node">
<title>n4</title>
<path fill="#ffcdd2" stroke="black" d="M201,-154C201,-154 139,-154 139,-154 133,-154 127,-148 127,-142 127,-142 127,-130 127,-130 127,-124 133,-118 139,-118 139,-118 201,-118 201,-118 207,-118 213,-124 213,-130 213,-130 213,-142 213,-142 213,-148 207,-154 201,-154"/>
<text text-anchor="middle" x="170" y="-133.2" font-family="Helvetica" font-size="11.00">Error Group</text>
</g>
<!-- n5 -->
<g id="node6" class="node">
<title>n5</title>
<path fill="#ffccbc" stroke="black" d="M371,-194C371,-194 341,-194 341,-194 335,-194 329,-188 329,-182 329,-182 329,-170 329,-170 329,-164 335,-158 341,-158 341,-158 371,-158 371,-158 377,-158 383,-164 383,-170 383,-170 383,-182 383,-182 383,-188 377,-194 371,-194"/>
<text text-anchor="middle" x="356" y="-173.2" font-family="Helvetica" font-size="11.00">End</text>
</g>
<!-- n4&#45;&gt;n5 -->
<g id="edge4" class="edge">
<title>n4&#45;&gt;n5</title>
<path fill="none" stroke="#555555" d="M213.21,-145.18C245.1,-152.11 288.41,-161.52 318.75,-168.12"/>
<polygon fill="#555555" stroke="#555555" points="318.38,-171.62 328.89,-170.32 319.87,-164.78 318.38,-171.62"/>
</g>
<!-- n6 -->
<g id="node7" class="node">
<title>n6</title>
<path fill="#e8f4f8" stroke="black" d="M402,-115C402,-115 310,-115 310,-115 304,-115 298,-109 298,-103 298,-103 298,-91 298,-91 298,-85 304,-79 310,-79 310,-79 402,-79 402,-79 408,-79 414,-85 414,-91 414,-91 414,-103 414,-103 414,-109 408,-115 402,-115"/>
<text text-anchor="middle" x="356" y="-94.2" font-family="Helvetica" font-size="11.00">MapAnyException</text>
</g>
<!-- n4&#45;&gt;n6 -->
<g id="edge5" class="edge">
<title>n4&#45;&gt;n6</title>
<path fill="none" stroke="#555555" d="M213.21,-127.05C235.41,-122.35 263.15,-116.47 288.18,-111.16"/>
<polygon fill="#555555" stroke="#555555" points="288.93,-114.58 297.99,-109.08 287.48,-107.73 288.93,-114.58"/>
</g>
<!-- n7 -->
<g id="node8" class="node">
<title>n7</title>
<path fill="#ffcdd2" stroke="black" d="M573,-115C573,-115 496,-115 496,-115 490,-115 484,-109 484,-103 484,-103 484,-91 484,-91 484,-85 490,-79 496,-79 496,-79 573,-79 573,-79 579,-79 585,-85 585,-91 585,-91 585,-103 585,-103 585,-109 579,-115 573,-115"/>
<text text-anchor="middle" x="534.5" y="-94.2" font-family="Helvetica" font-size="11.00">Generate Error</text>
</g>
<!-- n6&#45;&gt;n7 -->
<g id="edge6" class="edge">
<title>n6&#45;&gt;n7</title>
<path fill="none" stroke="#555555" d="M414.3,-97C433.33,-97 454.56,-97 473.76,-97"/>
<polygon fill="#555555" stroke="#555555" points="473.9,-100.5 483.9,-97 473.9,-93.5 473.9,-100.5"/>
</g>
<!-- n8 -->
<g id="node9" class="node">
<title>n8</title>
<path fill="#c8e6c9" stroke="black" d="M42,-154C42,-154 12,-154 12,-154 6,-154 0,-148 0,-142 0,-142 0,-130 0,-130 0,-124 6,-118 12,-118 12,-118 42,-118 42,-118 48,-118 54,-124 54,-130 54,-130 54,-142 54,-142 54,-148 48,-154 42,-154"/>
<text text-anchor="middle" x="27" y="-133.2" font-family="Helvetica" font-size="11.00">Start</text>
</g>
<!-- n8&#45;&gt;n4 -->
<g id="edge7" class="edge">
<title>n8&#45;&gt;n4</title>
<path fill="none" stroke="#555555" d="M54.19,-136C71.71,-136 95.37,-136 116.66,-136"/>
<polygon fill="#555555" stroke="#555555" points="116.89,-139.5 126.89,-136 116.89,-132.5 116.89,-139.5"/>
</g>
</g>
</svg>
