<?xml version="1.0" encoding="UTF-8" standalone="no"?>
<!DOCTYPE svg PUBLIC "-//W3C//DTD SVG 1.1//EN"
 "http://www.w3.org/Graphics/SVG/1.1/DTD/svg11.dtd">
<!-- Generated by graphviz version 2.44.0 (0)
 -->
<!-- Title: process Pages: 1 -->
<svg width="1084pt" height="226pt"
 viewBox="0.00 0.00 1084.00 226.00" xmlns="http://www.w3.org/2000/svg" xmlns:xlink="http://www.w3.org/1999/xlink">
<g id="graph0" class="graph" transform="scale(1 1) rotate(0) translate(36 190)">
<title>process</title>
<polygon fill="#ffffff" stroke="transparent" points="-36,36 -36,-190 1048,-190 1048,36 -36,36"/>
<!-- n0 -->
<g id="node1" class="node">
<title>n0</title>
<path fill="#c8e6c9" stroke="black" d="M42,-36C42,-36 12,-36 12,-36 6,-36 0,-30 0,-24 0,-24 0,-12 0,-12 0,-6 6,0 12,0 12,0 42,0 42,0 48,0 54,-6 54,-12 54,-12 54,-24 54,-24 54,-30 48,-36 42,-36"/>
<text text-anchor="middle" x="27" y="-15.2" font-family="Helvetica" font-size="11.00">start</text>
</g>
<!-- n1 -->
<g id="node2" class="node">
<title>n1</title>
<path fill="#e8f4f8" stroke="black" d="M192,-36C192,-36 157,-36 157,-36 151,-36 145,-30 145,-24 145,-24 145,-12 145,-12 145,-6 151,0 157,0 157,0 192,0 192,0 198,0 204,-6 204,-12 204,-12 204,-24 204,-24 204,-30 198,-36 192,-36"/>
<text text-anchor="middle" x="174.5" y="-15.2" font-family="Helvetica" font-size="11.00">Query</text>
</g>
<!-- n0&#45;&gt;n1 -->
<g id="edge1" class="edge">
<title>n0&#45;&gt;n1</title>
<path fill="none" stroke="#555555" d="M54.01,-18C76.5,-18 109.32,-18 134.87,-18"/>
<polygon fill="#555555" stroke="#555555" points="134.97,-21.5 144.97,-18 134.97,-14.5 134.97,-21.5"/>
</g>
<!-- n2 -->
<g id="node6" class="node">
<title>n2</title>
<path fill="#e8f4f8" stroke="black" d="M391,-36C391,-36 307,-36 307,-36 301,-36 295,-30 295,-24 295,-24 295,-12 295,-12 295,-6 301,0 307,0 307,0 391,0 391,0 397,0 403,-6 403,-12 403,-12 403,-24 403,-24 403,-30 397,-36 391,-36"/>
<text text-anchor="middle" x="349" y="-15.2" font-family="Helvetica" font-size="11.00">Set UOM Codes</text>
</g>
<!-- n1&#45;&gt;n2 -->
<g id="edge3" class="edge">
<title>n1&#45;&gt;n2</title>
<path fill="none" stroke="#555555" d="M204.37,-18C226.23,-18 257.08,-18 284.6,-18"/>
<polygon fill="#555555" stroke="#555555" points="284.95,-21.5 294.95,-18 284.95,-14.5 284.95,-21.5"/>
</g>
<!-- n10 -->
<g id="node3" class="node">
<title>n10</title>
<path fill="#e8f4f8" stroke="black" d="M709,-154C709,-154 617,-154 617,-154 611,-154 605,-148 605,-142 605,-142 605,-130 605,-130 605,-124 611,-118 617,-118 617,-118 709,-118 709,-118 715,-118 721,-124 721,-130 721,-130 721,-142 721,-142 721,-148 715,-154 709,-154"/>
<text text-anchor="middle" x="663" y="-133.2" font-family="Helvetica" font-size="11.00">MapAnyException</text>
</g>
<!-- n11 -->
<g id="node4" class="node">
<title>n11</title>
<path fill="#ffcdd2" stroke="black" d="M841,-154C841,-154 791,-154 791,-154 785,-154 779,-148 779,-142 779,-142 779,-130 779,-130 779,-124 785,-118 791,-118 791,-118 841,-118 841,-118 847,-118 853,-124 853,-130 853,-130 853,-142 853,-142 853,-148 847,-154 841,-154"/>
<text text-anchor="middle" x="816" y="-133.2" font-family="Helvetica" font-size="11.00">Log Error</text>
</g>
<!-- n10&#45;&gt;n11 -->
<g id="edge10" class="edge">
<title>n10&#45;&gt;n11</title>
<path fill="none" stroke="#555555" d="M721.09,-136C736.83,-136 753.71,-136 768.76,-136"/>
<polygon fill="#555555" stroke="#555555" points="768.84,-139.5 778.84,-136 768.84,-132.5 768.84,-139.5"/>
</g>
<!-- n12 -->
<g id="node5" class="node">
<title>n12</title>
<path fill="#ffcdd2" stroke="black" d="M1000,-154C1000,-154 923,-154 923,-154 917,-154 911,-148 911,-142 911,-142 911,-130 911,-130 911,-124 917,-118 923,-118 923,-118 1000,-118 1000,-118 1006,-118 1012,-124 1012,-130 1012,-130 1012,-142 1012,-142 1012,-148 1006,-154 1000,-154"/>
<text text-anchor="middle" x="961.5" y="-133.2" font-family="Helvetica" font-size="11.00">Generate Error</text>
</g>
<!-- n11&#45;&gt;n12 -->
<g id="edge11" class="edge">
<title>n11&#45;&gt;n12</title>
<path fill="none" stroke="#555555" d="M853.21,-136C867.51,-136 884.34,-136 900.37,-136"/>
<polygon fill="#555555" stroke="#555555" points="900.75,-139.5 910.75,-136 900.75,-132.5 900.75,-139.5"/>
</g>
<!-- n3 -->
<g id="node7" class="node">
<title>n3</title>
<path fill="#ffccbc" stroke="black" d="M519,-36C519,-36 489,-36 489,-36 483,-36 477,-30 477,-24 477,-24 477,-12 477,-12 477,-6 483,0 489,0 489,0 519,0 519,0 525,0 531,-6 531,-12 531,-12 531,-24 531,-24 531,-30 525,-36 519,-36"/>
<text text-anchor="middle" x="504" y="-15.2" font-family="Helvetica" font-size="11.00">end</text>
</g>
<!-- n2&#45;&gt;n3 -->
<g id="edge2" class="edge">
<title>n2&#45;&gt;n3</title>
<path fill="none" stroke="#555555" d="M403.08,-18C424.06,-18 447.63,-18 466.61,-18"/>
<polygon fill="#555555" stroke="#555555" points="466.63,-21.5 476.63,-18 466.63,-14.5 466.63,-21.5"/>
</g>
<!-- n4 -->
<g id="node8" class="node">
<title>n4</title>
<path fill="#c8e6c9" stroke="black" d="M42,-115C42,-115 12,-115 12,-115 6,-115 0,-109 0,-103 0,-103 0,-91 0,-91 0,-85 6,-79 12,-79 12,-79 42,-79 42,-79 48,-79 54,-85 54,-91 54,-91 54,-103 54,-103 54,-109 48,-115 42,-115"/>
<text text-anchor="middle" x="27" y="-94.2" font-family="Helvetica" font-size="11.00">Start</text>
</g>
<!-- n5 -->
<g id="node9" class="node">
<title>n5</title>
<path fill="#ffcdd2" stroke="black" d="M225,-115C225,-115 124,-115 124,-115 118,-115 112,-109 112,-103 112,-103 112,-91 112,-91 112,-85 118,-79 124,-79 124,-79 225,-79 225,-79 231,-79 237,-85 237,-91 237,-91 237,-103 237,-103 237,-109 231,-115 225,-115"/>
<text text-anchor="middle" x="174.5" y="-94.2" font-family="Helvetica" font-size="11.00">Prep Error Handling</text>
</g>
<!-- n4&#45;&gt;n5 -->
<g id="edge4" class="edge">
<title>n4&#45;&gt;n5</title>
<path fill="none" stroke="#555555" d="M54.01,-97C67.47,-97 84.64,-97 101.73,-97"/>
<polygon fill="#555555" stroke="#555555" points="101.75,-100.5 111.75,-97 101.75,-93.5 101.75,-100.5"/>
</g>
<!-- n6 -->
<g id="node10" class="node">
<title>n6</title>
<path fill="#c8e6c9" stroke="black" d="M387.5,-115C387.5,-115 310.5,-115 310.5,-115 304.5,-115 298.5,-109 298.5,-103 298.5,-103 298.5,-91 298.5,-91 298.5,-85 304.5,-79 310.5,-79 310.5,-79 387.5,-79 387.5,-79 393.5,-79 399.5,-85 399.5,-91 399.5,-91 399.5,-103 399.5,-103 399.5,-109 393.5,-115 387.5,-115"/>
<text text-anchor="middle" x="349" y="-94.2" font-family="Helvetica" font-size="11.00">Start Log Audit</text>
</g>
<!-- n5&#45;&gt;n6 -->
<g id="edge5" class="edge">
<title>n5&#45;&gt;n6</title>
<path fill="none" stroke="#555555" d="M237.29,-97C253.86,-97 271.75,-97 288.21,-97"/>
<polygon fill="#555555" stroke="#555555" points="288.25,-100.5 298.25,-97 288.25,-93.5 288.25,-100.5"/>
</g>
<!-- n9 -->
<g id="node13" class="node">
<title>n9</title>
<path fill="#ffcdd2" stroke="black" d="M535,-115C535,-115 473,-115 473,-115 467,-115 461,-109 461,-103 461,-103 461,-91 461,-91 461,-85 467,-79 473,-79 473,-79 535,-79 535,-79 541,-79 547,-85 547,-91 547,-91 547,-103 547,-103 547,-109 541,-115 535,-115"/>
<text text-anchor="middle" x="504" y="-94.2" font-family="Helvetica" font-size="11.00">Error Group</text>
</g>
<!-- n6&#45;&gt;n9 -->
<g id="edge7" class="edge">
<title>n6&#45;&gt;n9</title>
<path fill="none" stroke="#555555" d="M399.67,-97C416.01,-97 434.2,-97 450.72,-97"/>
<polygon fill="#555555" stroke="#555555" points="450.76,-100.5 460.76,-97 450.76,-93.5 450.76,-100.5"/>
</g>
<!-- n7 -->
<g id="node11" class="node">
<title>n7</title>
<path fill="#ffccbc" stroke="black" d="M699.5,-75C699.5,-75 626.5,-75 626.5,-75 620.5,-75 614.5,-69 614.5,-63 614.5,-63 614.5,-51 614.5,-51 614.5,-45 620.5,-39 626.5,-39 626.5,-39 699.5,-39 699.5,-39 705.5,-39 711.5,-45 711.5,-51 711.5,-51 711.5,-63 711.5,-63 711.5,-69 705.5,-75 699.5,-75"/>
<text text-anchor="middle" x="663" y="-54.2" font-family="Helvetica" font-size="11.00">End Audit Log</text>
</g>
<!-- n8 -->
<g id="node12" class="node">
<title>n8</title>
<path fill="#ffccbc" stroke="black" d="M831,-75C831,-75 801,-75 801,-75 795,-75 789,-69 789,-63 789,-63 789,-51 789,-51 789,-45 795,-39 801,-39 801,-39 831,-39 831,-39 837,-39 843,-45 843,-51 843,-51 843,-63 843,-63 843,-69 837,-75 831,-75"/>
<text text-anchor="middle" x="816" y="-54.2" font-family="Helvetica" font-size="11.00">End</text>
</g>
<!-- n7&#45;&gt;n8 -->
<g id="edge6" class="edge">
<title>n7&#45;&gt;n8</title>
<path fill="none" stroke="#555555" d="M711.78,-57C733.31,-57 758.34,-57 778.35,-57"/>
<polygon fill="#555555" stroke="#555555" points="778.61,-60.5 788.61,-57 778.61,-53.5 778.61,-60.5"/>
</g>
<!-- n9&#45;&gt;n10 -->
<g id="edge9" class="edge">
<title>n9&#45;&gt;n10</title>
<path fill="none" stroke="#555555" d="M547.07,-107.45C561.74,-111.09 578.59,-115.28 594.78,-119.3"/>
<polygon fill="#555555" stroke="#555555" points="594.21,-122.77 604.76,-121.78 595.89,-115.97 594.21,-122.77"/>
</g>
<!-- n9&#45;&gt;n7 -->
<g id="edge8" class="edge">
<title>n9&#45;&gt;n7</title>
<path fill="none" stroke="#555555" d="M547.07,-86.28C564.71,-81.79 585.5,-76.49 604.51,-71.65"/>
<polygon fill="#555555" stroke="#555555" points="605.44,-75.02 614.26,-69.16 603.71,-68.24 605.44,-75.02"/>
</g>
</g>
</svg>
