<?xml version="1.0" encoding="UTF-8" standalone="no"?>
<!DOCTYPE svg PUBLIC "-//W3C//DTD SVG 1.1//EN"
 "http://www.w3.org/Graphics/SVG/1.1/DTD/svg11.dtd">
<!-- Generated by graphviz version 2.44.0 (0)
 -->
<!-- Title: process Pages: 1 -->
<svg width="3647pt" height="713pt"
 viewBox="0.00 0.00 3647.00 712.94" xmlns="http://www.w3.org/2000/svg" xmlns:xlink="http://www.w3.org/1999/xlink">
<g id="graph0" class="graph" transform="scale(1 1) rotate(0) translate(36 676.94)">
<title>process</title>
<polygon fill="#ffffff" stroke="transparent" points="-36,36 -36,-676.94 3611,-676.94 3611,36 -36,36"/>
<!-- n0 -->
<g id="node1" class="node">
<title>n0</title>
<path fill="#e8f4f8" stroke="black" d="M767,-360.94C767,-360.94 651,-360.94 651,-360.94 645,-360.94 639,-354.94 639,-348.94 639,-348.94 639,-336.94 639,-336.94 639,-330.94 645,-324.94 651,-324.94 651,-324.94 767,-324.94 767,-324.94 773,-324.94 779,-330.94 779,-336.94 779,-336.94 779,-348.94 779,-348.94 779,-354.94 773,-360.94 767,-360.94"/>
<text text-anchor="middle" x="709" y="-340.14" font-family="Helvetica" font-size="11.00">NormalizeSurepayCTN</text>
</g>
<!-- n1 -->
<g id="node2" class="node">
<title>n1</title>
<path fill="#e8f4f8" stroke="black" d="M886,-360.94C886,-360.94 849,-360.94 849,-360.94 843,-360.94 837,-354.94 837,-348.94 837,-348.94 837,-336.94 837,-336.94 837,-330.94 843,-324.94 849,-324.94 849,-324.94 886,-324.94 886,-324.94 892,-324.94 898,-330.94 898,-336.94 898,-336.94 898,-348.94 898,-348.94 898,-354.94 892,-360.94 886,-360.94"/>
<text text-anchor="middle" x="867.5" y="-340.14" font-family="Helvetica" font-size="11.00">Assign</text>
</g>
<!-- n0&#45;&gt;n1 -->
<g id="edge1" class="edge">
<title>n0&#45;&gt;n1</title>
<path fill="none" stroke="#555555" d="M779.1,-342.94C795.44,-342.94 812.32,-342.94 826.84,-342.94"/>
<polygon fill="#555555" stroke="#555555" points="826.95,-346.44 836.95,-342.94 826.95,-339.44 826.95,-346.44"/>
</g>
<!-- n24 -->
<g id="node18" class="node">
<title>n24</title>
<path fill="#e8f4f8" stroke="black" d="M1536,-317.94C1536,-317.94 1497,-317.94 1497,-317.94 1491,-317.94 1485,-311.94 1485,-305.94 1485,-305.94 1485,-293.94 1485,-293.94 1485,-287.94 1491,-281.94 1497,-281.94 1497,-281.94 1536,-281.94 1536,-281.94 1542,-281.94 1548,-287.94 1548,-293.94 1548,-293.94 1548,-305.94 1548,-305.94 1548,-311.94 1542,-317.94 1536,-317.94"/>
<text text-anchor="middle" x="1516.5" y="-297.14" font-family="Helvetica" font-size="11.00">Null&#45;11</text>
</g>
<!-- n1&#45;&gt;n24 -->
<g id="edge35" class="edge">
<title>n1&#45;&gt;n24</title>
<path fill="none" stroke="#555555" d="M898.21,-345.73C982.16,-352.88 1227.95,-368.85 1427,-331.94 1443.21,-328.94 1460.39,-323.33 1475.26,-317.64"/>
<polygon fill="#555555" stroke="#555555" points="1476.65,-320.85 1484.66,-313.91 1474.07,-314.34 1476.65,-320.85"/>
</g>
<!-- n33 -->
<g id="node28" class="node">
<title>n33</title>
<path fill="#e8f4f8" stroke="black" d="M1049,-317.94C1049,-317.94 968,-317.94 968,-317.94 962,-317.94 956,-311.94 956,-305.94 956,-305.94 956,-293.94 956,-293.94 956,-287.94 962,-281.94 968,-281.94 968,-281.94 1049,-281.94 1049,-281.94 1055,-281.94 1061,-287.94 1061,-293.94 1061,-293.94 1061,-305.94 1061,-305.94 1061,-311.94 1055,-317.94 1049,-317.94"/>
<text text-anchor="middle" x="1008.5" y="-297.14" font-family="Helvetica" font-size="11.00">RefreshBalance</text>
</g>
<!-- n1&#45;&gt;n33 -->
<g id="edge48" class="edge">
<title>n1&#45;&gt;n33</title>
<path fill="none" stroke="#555555" d="M898.32,-333.72C912.32,-329.38 929.56,-324.05 946.16,-318.91"/>
<polygon fill="#555555" stroke="#555555" points="947.32,-322.22 955.84,-315.92 945.25,-315.53 947.32,-322.22"/>
</g>
<!-- n10 -->
<g id="node3" class="node">
<title>n10</title>
<path fill="#e8f4f8" stroke="black" d="M3306,-488.94C3306,-488.94 3202,-488.94 3202,-488.94 3196,-488.94 3190,-482.94 3190,-476.94 3190,-476.94 3190,-464.94 3190,-464.94 3190,-458.94 3196,-452.94 3202,-452.94 3202,-452.94 3306,-452.94 3306,-452.94 3312,-452.94 3318,-458.94 3318,-464.94 3318,-464.94 3318,-476.94 3318,-476.94 3318,-482.94 3312,-488.94 3306,-488.94"/>
<text text-anchor="middle" x="3254" y="-468.14" font-family="Helvetica" font-size="11.00">WriteToLog_PostPay</text>
</g>
<!-- n3 -->
<g id="node24" class="node">
<title>n3</title>
<path fill="#e8f4f8" stroke="black" d="M3451,-361.94C3451,-361.94 3388,-361.94 3388,-361.94 3382,-361.94 3376,-355.94 3376,-349.94 3376,-349.94 3376,-337.94 3376,-337.94 3376,-331.94 3382,-325.94 3388,-325.94 3388,-325.94 3451,-325.94 3451,-325.94 3457,-325.94 3463,-331.94 3463,-337.94 3463,-337.94 3463,-349.94 3463,-349.94 3463,-355.94 3457,-361.94 3451,-361.94"/>
<text text-anchor="middle" x="3419.5" y="-341.14" font-family="Helvetica" font-size="11.00">CSAuditEnd</text>
</g>
<!-- n10&#45;&gt;n3 -->
<g id="edge9" class="edge">
<title>n10&#45;&gt;n3</title>
<path fill="none" stroke="#555555" d="M3278.43,-452.74C3306.96,-430.58 3355.27,-393.06 3387.03,-368.39"/>
<polygon fill="#555555" stroke="#555555" points="3389.37,-371 3395.12,-362.1 3385.07,-365.47 3389.37,-371"/>
</g>
<!-- n11 -->
<g id="node4" class="node">
<title>n11</title>
<path fill="#e8f4f8" stroke="black" d="M2502,-316.94C2502,-316.94 2437,-316.94 2437,-316.94 2431,-316.94 2425,-310.94 2425,-304.94 2425,-304.94 2425,-292.94 2425,-292.94 2425,-286.94 2431,-280.94 2437,-280.94 2437,-280.94 2502,-280.94 2502,-280.94 2508,-280.94 2514,-286.94 2514,-292.94 2514,-292.94 2514,-304.94 2514,-304.94 2514,-310.94 2508,-316.94 2502,-316.94"/>
<text text-anchor="middle" x="2469.5" y="-296.14" font-family="Helvetica" font-size="11.00">CombineList</text>
</g>
<!-- n6 -->
<g id="node34" class="node">
<title>n6</title>
<path fill="#e8f4f8" stroke="black" d="M2712,-318.94C2712,-318.94 2584,-318.94 2584,-318.94 2578,-318.94 2572,-312.94 2572,-306.94 2572,-306.94 2572,-294.94 2572,-294.94 2572,-288.94 2578,-282.94 2584,-282.94 2584,-282.94 2712,-282.94 2712,-282.94 2718,-282.94 2724,-288.94 2724,-294.94 2724,-294.94 2724,-306.94 2724,-306.94 2724,-312.94 2718,-318.94 2712,-318.94"/>
<text text-anchor="middle" x="2648" y="-298.14" font-family="Helvetica" font-size="11.00">Merge Resource SurePay</text>
</g>
<!-- n11&#45;&gt;n6 -->
<g id="edge10" class="edge">
<title>n11&#45;&gt;n6</title>
<path fill="none" stroke="#555555" d="M2514.13,-299.43C2528.59,-299.6 2545.21,-299.79 2561.7,-299.97"/>
<polygon fill="#555555" stroke="#555555" points="2561.88,-303.48 2571.92,-300.09 2561.96,-296.48 2561.88,-303.48"/>
</g>
<!-- n12 -->
<g id="node5" class="node">
<title>n12</title>
<path fill="#e8f4f8" stroke="black" d="M2355,-71.94C2355,-71.94 2211,-71.94 2211,-71.94 2205,-71.94 2199,-65.94 2199,-59.94 2199,-59.94 2199,-47.94 2199,-47.94 2199,-41.94 2205,-35.94 2211,-35.94 2211,-35.94 2355,-35.94 2355,-35.94 2361,-35.94 2367,-41.94 2367,-47.94 2367,-47.94 2367,-59.94 2367,-59.94 2367,-65.94 2361,-71.94 2355,-71.94"/>
<text text-anchor="middle" x="2283" y="-51.14" font-family="Helvetica" font-size="11.00">WriteToLog_RequestBalance</text>
</g>
<!-- n13 -->
<g id="node6" class="node">
<title>n13</title>
<path fill="#e8f4f8" stroke="black" d="M2489,-71.94C2489,-71.94 2450,-71.94 2450,-71.94 2444,-71.94 2438,-65.94 2438,-59.94 2438,-59.94 2438,-47.94 2438,-47.94 2438,-41.94 2444,-35.94 2450,-35.94 2450,-35.94 2489,-35.94 2489,-35.94 2495,-35.94 2501,-41.94 2501,-47.94 2501,-47.94 2501,-59.94 2501,-59.94 2501,-65.94 2495,-71.94 2489,-71.94"/>
<text text-anchor="middle" x="2469.5" y="-51.14" font-family="Helvetica" font-size="11.00">Prepay</text>
</g>
<!-- n12&#45;&gt;n13 -->
<g id="edge11" class="edge">
<title>n12&#45;&gt;n13</title>
<path fill="none" stroke="#555555" d="M2367.07,-53.94C2388.18,-53.94 2409.94,-53.94 2427.86,-53.94"/>
<polygon fill="#555555" stroke="#555555" points="2427.94,-57.44 2437.94,-53.94 2427.94,-50.44 2427.94,-57.44"/>
</g>
<!-- n28 -->
<g id="node22" class="node">
<title>n28</title>
<path fill="#e8f4f8" stroke="black" d="M2663,-72.94C2663,-72.94 2633,-72.94 2633,-72.94 2627,-72.94 2621,-66.94 2621,-60.94 2621,-60.94 2621,-48.94 2621,-48.94 2621,-42.94 2627,-36.94 2633,-36.94 2633,-36.94 2663,-36.94 2663,-36.94 2669,-36.94 2675,-42.94 2675,-48.94 2675,-48.94 2675,-60.94 2675,-60.94 2675,-66.94 2669,-72.94 2663,-72.94"/>
<text text-anchor="middle" x="2648" y="-52.14" font-family="Helvetica" font-size="11.00">Pad</text>
</g>
<!-- n13&#45;&gt;n28 -->
<g id="edge31" class="edge">
<title>n13&#45;&gt;n28</title>
<path fill="none" stroke="#555555" d="M2501.24,-54.11C2531.68,-54.29 2578.28,-54.55 2610.56,-54.73"/>
<polygon fill="#555555" stroke="#555555" points="2610.9,-58.24 2620.92,-54.79 2610.94,-51.24 2610.9,-58.24"/>
</g>
<!-- n14 -->
<g id="node7" class="node">
<title>n14</title>
<path fill="#e8f4f8" stroke="black" d="M2120,-112.94C2120,-112.94 2037,-112.94 2037,-112.94 2031,-112.94 2025,-106.94 2025,-100.94 2025,-100.94 2025,-88.94 2025,-88.94 2025,-82.94 2031,-76.94 2037,-76.94 2037,-76.94 2120,-76.94 2120,-76.94 2126,-76.94 2132,-82.94 2132,-88.94 2132,-88.94 2132,-100.94 2132,-100.94 2132,-106.94 2126,-112.94 2120,-112.94"/>
<text text-anchor="middle" x="2078.5" y="-92.14" font-family="Helvetica" font-size="11.00">RequestBalance</text>
</g>
<!-- n14&#45;&gt;n12 -->
<g id="edge30" class="edge">
<title>n14&#45;&gt;n12</title>
<path fill="none" stroke="#555555" d="M2132.18,-84.28C2149.62,-80.74 2169.58,-76.7 2189.13,-72.74"/>
<polygon fill="#555555" stroke="#555555" points="2189.88,-76.16 2198.98,-70.75 2188.49,-69.3 2189.88,-76.16"/>
</g>
<!-- n14&#45;&gt;n13 -->
<g id="edge29" class="edge">
<title>n14&#45;&gt;n13</title>
<path fill="none" stroke="#555555" d="M2098.28,-76.83C2120.32,-56.95 2158.99,-26.22 2199,-13.94 2270.38,7.97 2293.64,-0.01 2367,-13.94 2388.07,-17.94 2410.37,-26.23 2428.68,-34.23"/>
<polygon fill="#555555" stroke="#555555" points="2427.31,-37.45 2437.86,-38.37 2430.18,-31.07 2427.31,-37.45"/>
</g>
<!-- n15 -->
<g id="node8" class="node">
<title>n15</title>
<path fill="#e8f4f8" stroke="black" d="M2671.5,-152.94C2671.5,-152.94 2624.5,-152.94 2624.5,-152.94 2618.5,-152.94 2612.5,-146.94 2612.5,-140.94 2612.5,-140.94 2612.5,-128.94 2612.5,-128.94 2612.5,-122.94 2618.5,-116.94 2624.5,-116.94 2624.5,-116.94 2671.5,-116.94 2671.5,-116.94 2677.5,-116.94 2683.5,-122.94 2683.5,-128.94 2683.5,-128.94 2683.5,-140.94 2683.5,-140.94 2683.5,-146.94 2677.5,-152.94 2671.5,-152.94"/>
<text text-anchor="middle" x="2648" y="-132.14" font-family="Helvetica" font-size="11.00">Assign&#45;1</text>
</g>
<!-- n14&#45;&gt;n15 -->
<g id="edge12" class="edge">
<title>n14&#45;&gt;n15</title>
<path fill="none" stroke="#555555" d="M2132.13,-98.65C2242.9,-106.46 2498.46,-124.47 2602.11,-131.78"/>
<polygon fill="#555555" stroke="#555555" points="2602.01,-135.28 2612.23,-132.49 2602.51,-128.3 2602.01,-135.28"/>
</g>
<!-- n5 -->
<g id="node33" class="node">
<title>n5</title>
<path fill="#ffccbc" stroke="black" d="M2915,-235.94C2915,-235.94 2799,-235.94 2799,-235.94 2793,-235.94 2787,-229.94 2787,-223.94 2787,-223.94 2787,-211.94 2787,-211.94 2787,-205.94 2793,-199.94 2799,-199.94 2799,-199.94 2915,-199.94 2915,-199.94 2921,-199.94 2927,-205.94 2927,-211.94 2927,-211.94 2927,-223.94 2927,-223.94 2927,-229.94 2921,-235.94 2915,-235.94"/>
<text text-anchor="middle" x="2857" y="-215.14" font-family="Helvetica" font-size="11.00">Map&#45;Prepay&#45;Response</text>
</g>
<!-- n15&#45;&gt;n5 -->
<g id="edge36" class="edge">
<title>n15&#45;&gt;n5</title>
<path fill="none" stroke="#555555" d="M2683.65,-148.83C2715.77,-161.71 2764.07,-181.08 2801.38,-196.04"/>
<polygon fill="#555555" stroke="#555555" points="2800.52,-199.46 2811.1,-199.94 2803.12,-192.97 2800.52,-199.46"/>
</g>
<!-- n16 -->
<g id="node9" class="node">
<title>n16</title>
<path fill="#c8e6c9" stroke="black" d="M42,-320.94C42,-320.94 12,-320.94 12,-320.94 6,-320.94 0,-314.94 0,-308.94 0,-308.94 0,-296.94 0,-296.94 0,-290.94 6,-284.94 12,-284.94 12,-284.94 42,-284.94 42,-284.94 48,-284.94 54,-290.94 54,-296.94 54,-296.94 54,-308.94 54,-308.94 54,-314.94 48,-320.94 42,-320.94"/>
<text text-anchor="middle" x="27" y="-300.14" font-family="Helvetica" font-size="11.00">Start</text>
</g>
<!-- n17 -->
<g id="node10" class="node">
<title>n17</title>
<path fill="#e8f4f8" stroke="black" d="M196,-360.94C196,-360.94 129,-360.94 129,-360.94 123,-360.94 117,-354.94 117,-348.94 117,-348.94 117,-336.94 117,-336.94 117,-330.94 123,-324.94 129,-324.94 129,-324.94 196,-324.94 196,-324.94 202,-324.94 208,-330.94 208,-336.94 208,-336.94 208,-348.94 208,-348.94 208,-354.94 202,-360.94 196,-360.94"/>
<text text-anchor="middle" x="162.5" y="-340.14" font-family="Helvetica" font-size="11.00">CSAuditStart</text>
</g>
<!-- n16&#45;&gt;n17 -->
<g id="edge13" class="edge">
<title>n16&#45;&gt;n17</title>
<path fill="none" stroke="#555555" d="M54.06,-310.75C69.17,-315.28 88.79,-321.15 107.12,-326.65"/>
<polygon fill="#555555" stroke="#555555" points="106.26,-330.04 116.84,-329.56 108.27,-323.34 106.26,-330.04"/>
</g>
<!-- n30 -->
<g id="node25" class="node">
<title>n30</title>
<path fill="#ffcdd2" stroke="black" d="M201,-281.94C201,-281.94 124,-281.94 124,-281.94 118,-281.94 112,-275.94 112,-269.94 112,-269.94 112,-257.94 112,-257.94 112,-251.94 118,-245.94 124,-245.94 124,-245.94 201,-245.94 201,-245.94 207,-245.94 213,-251.94 213,-257.94 213,-257.94 213,-269.94 213,-269.94 213,-275.94 207,-281.94 201,-281.94"/>
<text text-anchor="middle" x="162.5" y="-261.14" font-family="Helvetica" font-size="11.00">Generate Error</text>
</g>
<!-- n16&#45;&gt;n30 -->
<g id="edge45" class="edge">
<title>n16&#45;&gt;n30</title>
<path fill="none" stroke="#555555" d="M54.06,-295.33C67.82,-291.31 85.32,-286.2 102.18,-281.27"/>
<polygon fill="#555555" stroke="#555555" points="103.38,-284.57 112,-278.4 101.42,-277.85 103.38,-284.57"/>
</g>
<!-- n31 -->
<g id="node26" class="node">
<title>n31</title>
<path fill="#e8f4f8" stroke="black" d="M371,-360.94C371,-360.94 283,-360.94 283,-360.94 277,-360.94 271,-354.94 271,-348.94 271,-348.94 271,-336.94 271,-336.94 271,-330.94 277,-324.94 283,-324.94 283,-324.94 371,-324.94 371,-324.94 377,-324.94 383,-330.94 383,-336.94 383,-336.94 383,-348.94 383,-348.94 383,-354.94 377,-360.94 371,-360.94"/>
<text text-anchor="middle" x="327" y="-340.14" font-family="Helvetica" font-size="11.00">CallReferenceDB</text>
</g>
<!-- n17&#45;&gt;n31 -->
<g id="edge46" class="edge">
<title>n17&#45;&gt;n31</title>
<path fill="none" stroke="#555555" d="M208.33,-342.94C224.51,-342.94 243.12,-342.94 260.69,-342.94"/>
<polygon fill="#555555" stroke="#555555" points="260.89,-346.44 270.89,-342.94 260.89,-339.44 260.89,-346.44"/>
</g>
<!-- n18 -->
<g id="node11" class="node">
<title>n18</title>
<path fill="#e8f4f8" stroke="black" d="M1710,-517.94C1710,-517.94 1618,-517.94 1618,-517.94 1612,-517.94 1606,-511.94 1606,-505.94 1606,-505.94 1606,-493.94 1606,-493.94 1606,-487.94 1612,-481.94 1618,-481.94 1618,-481.94 1710,-481.94 1710,-481.94 1716,-481.94 1722,-487.94 1722,-493.94 1722,-493.94 1722,-505.94 1722,-505.94 1722,-511.94 1716,-517.94 1710,-517.94"/>
<text text-anchor="middle" x="1664" y="-497.14" font-family="Helvetica" font-size="11.00">RequestGroupInfo</text>
</g>
<!-- n19 -->
<g id="node12" class="node">
<title>n19</title>
<path fill="#e8f4f8" stroke="black" d="M2129,-640.94C2129,-640.94 2028,-640.94 2028,-640.94 2022,-640.94 2016,-634.94 2016,-628.94 2016,-628.94 2016,-616.94 2016,-616.94 2016,-610.94 2022,-604.94 2028,-604.94 2028,-604.94 2129,-604.94 2129,-604.94 2135,-604.94 2141,-610.94 2141,-616.94 2141,-616.94 2141,-628.94 2141,-628.94 2141,-634.94 2135,-640.94 2129,-640.94"/>
<text text-anchor="middle" x="2078.5" y="-620.14" font-family="Helvetica" font-size="11.00">Sharer_Subprocess</text>
</g>
<!-- n18&#45;&gt;n19 -->
<g id="edge14" class="edge">
<title>n18&#45;&gt;n19</title>
<path fill="none" stroke="#555555" d="M1684.9,-518.18C1706.58,-536.94 1743.12,-565.4 1780,-579.94 1853.46,-608.91 1944.03,-618.66 2005.81,-621.78"/>
<polygon fill="#555555" stroke="#555555" points="2005.7,-625.28 2015.85,-622.25 2006.02,-618.29 2005.7,-625.28"/>
</g>
<!-- n20 -->
<g id="node14" class="node">
<title>n20</title>
<path fill="#e8f4f8" stroke="black" d="M1892.5,-478.94C1892.5,-478.94 1845.5,-478.94 1845.5,-478.94 1839.5,-478.94 1833.5,-472.94 1833.5,-466.94 1833.5,-466.94 1833.5,-454.94 1833.5,-454.94 1833.5,-448.94 1839.5,-442.94 1845.5,-442.94 1845.5,-442.94 1892.5,-442.94 1892.5,-442.94 1898.5,-442.94 1904.5,-448.94 1904.5,-454.94 1904.5,-454.94 1904.5,-466.94 1904.5,-466.94 1904.5,-472.94 1898.5,-478.94 1892.5,-478.94"/>
<text text-anchor="middle" x="1869" y="-458.14" font-family="Helvetica" font-size="11.00">Assign&#45;2</text>
</g>
<!-- n18&#45;&gt;n20 -->
<g id="edge16" class="edge">
<title>n18&#45;&gt;n20</title>
<path fill="none" stroke="#555555" d="M1722.09,-488.97C1754.08,-482.83 1793.41,-475.27 1823.17,-469.55"/>
<polygon fill="#555555" stroke="#555555" points="1824.11,-472.94 1833.27,-467.61 1822.79,-466.06 1824.11,-472.94"/>
</g>
<!-- n22 -->
<g id="node16" class="node">
<title>n22</title>
<path fill="#e8f4f8" stroke="black" d="M1946,-557.94C1946,-557.94 1792,-557.94 1792,-557.94 1786,-557.94 1780,-551.94 1780,-545.94 1780,-545.94 1780,-533.94 1780,-533.94 1780,-527.94 1786,-521.94 1792,-521.94 1792,-521.94 1946,-521.94 1946,-521.94 1952,-521.94 1958,-527.94 1958,-533.94 1958,-533.94 1958,-545.94 1958,-545.94 1958,-551.94 1952,-557.94 1946,-557.94"/>
<text text-anchor="middle" x="1869" y="-537.14" font-family="Helvetica" font-size="11.00">WriteToLog_RequestBalance&#45;1</text>
</g>
<!-- n18&#45;&gt;n22 -->
<g id="edge18" class="edge">
<title>n18&#45;&gt;n22</title>
<path fill="none" stroke="#555555" d="M1722.09,-511.19C1736.95,-514.12 1753.39,-517.36 1769.71,-520.57"/>
<polygon fill="#555555" stroke="#555555" points="1769.36,-524.07 1779.85,-522.57 1770.72,-517.2 1769.36,-524.07"/>
</g>
<!-- n21 -->
<g id="node15" class="node">
<title>n21</title>
<path fill="#e8f4f8" stroke="black" d="M2493,-561.94C2493,-561.94 2446,-561.94 2446,-561.94 2440,-561.94 2434,-555.94 2434,-549.94 2434,-549.94 2434,-537.94 2434,-537.94 2434,-531.94 2440,-525.94 2446,-525.94 2446,-525.94 2493,-525.94 2493,-525.94 2499,-525.94 2505,-531.94 2505,-537.94 2505,-537.94 2505,-549.94 2505,-549.94 2505,-555.94 2499,-561.94 2493,-561.94"/>
<text text-anchor="middle" x="2469.5" y="-541.14" font-family="Helvetica" font-size="11.00">Assign&#45;3</text>
</g>
<!-- n19&#45;&gt;n21 -->
<g id="edge17" class="edge">
<title>n19&#45;&gt;n21</title>
<path fill="none" stroke="#555555" d="M2141.18,-618.88C2199.97,-614.01 2290.6,-603.87 2367,-583.94 2386.33,-578.9 2406.96,-571.22 2424.54,-563.94"/>
<polygon fill="#555555" stroke="#555555" points="2426.12,-567.07 2433.96,-559.95 2423.39,-560.62 2426.12,-567.07"/>
</g>
<!-- n23 -->
<g id="node17" class="node">
<title>n23</title>
<path fill="#e8f4f8" stroke="black" d="M2298,-561.94C2298,-561.94 2268,-561.94 2268,-561.94 2262,-561.94 2256,-555.94 2256,-549.94 2256,-549.94 2256,-537.94 2256,-537.94 2256,-531.94 2262,-525.94 2268,-525.94 2268,-525.94 2298,-525.94 2298,-525.94 2304,-525.94 2310,-531.94 2310,-537.94 2310,-537.94 2310,-549.94 2310,-549.94 2310,-555.94 2304,-561.94 2298,-561.94"/>
<text text-anchor="middle" x="2283" y="-541.14" font-family="Helvetica" font-size="11.00">Null</text>
</g>
<!-- n19&#45;&gt;n23 -->
<g id="edge20" class="edge">
<title>n19&#45;&gt;n23</title>
<path fill="none" stroke="#555555" d="M2125.7,-604.92C2162.36,-590.62 2212.84,-570.92 2246.4,-557.83"/>
<polygon fill="#555555" stroke="#555555" points="2247.77,-561.05 2255.82,-554.16 2245.23,-554.53 2247.77,-561.05"/>
</g>
<!-- n4 -->
<g id="node32" class="node">
<title>n4</title>
<path fill="#e8f4f8" stroke="black" d="M2920,-486.94C2920,-486.94 2794,-486.94 2794,-486.94 2788,-486.94 2782,-480.94 2782,-474.94 2782,-474.94 2782,-462.94 2782,-462.94 2782,-456.94 2788,-450.94 2794,-450.94 2794,-450.94 2920,-450.94 2920,-450.94 2926,-450.94 2932,-456.94 2932,-462.94 2932,-462.94 2932,-474.94 2932,-474.94 2932,-480.94 2926,-486.94 2920,-486.94"/>
<text text-anchor="middle" x="2857" y="-466.14" font-family="Helvetica" font-size="11.00">Merge Resource Balance</text>
</g>
<!-- n19&#45;&gt;n4 -->
<g id="edge15" class="edge">
<title>n19&#45;&gt;n4</title>
<path fill="none" stroke="#555555" d="M2141.03,-630.64C2199.51,-636.5 2289.76,-641.74 2367,-629.94 2533.92,-604.43 2720.78,-528.89 2807.25,-491.06"/>
<polygon fill="#555555" stroke="#555555" points="2808.8,-494.2 2816.54,-486.97 2805.98,-487.79 2808.8,-494.2"/>
</g>
<!-- n2 -->
<g id="node13" class="node">
<title>n2</title>
<path fill="#ffccbc" stroke="black" d="M3120,-486.94C3120,-486.94 3002,-486.94 3002,-486.94 2996,-486.94 2990,-480.94 2990,-474.94 2990,-474.94 2990,-462.94 2990,-462.94 2990,-456.94 2996,-450.94 3002,-450.94 3002,-450.94 3120,-450.94 3120,-450.94 3126,-450.94 3132,-456.94 3132,-462.94 3132,-462.94 3132,-474.94 3132,-474.94 3132,-480.94 3126,-486.94 3120,-486.94"/>
<text text-anchor="middle" x="3061" y="-466.14" font-family="Helvetica" font-size="11.00">Map Postpay Response</text>
</g>
<!-- n2&#45;&gt;n10 -->
<g id="edge24" class="edge">
<title>n2&#45;&gt;n10</title>
<path fill="none" stroke="#555555" d="M3132.04,-469.67C3147.58,-469.84 3164.1,-470.01 3179.77,-470.17"/>
<polygon fill="#555555" stroke="#555555" points="3179.89,-473.67 3189.93,-470.28 3179.96,-466.68 3179.89,-473.67"/>
</g>
<!-- n2&#45;&gt;n3 -->
<g id="edge2" class="edge">
<title>n2&#45;&gt;n3</title>
<path fill="none" stroke="#555555" d="M3113.46,-450.9C3180.91,-427.25 3298.57,-385.99 3366.36,-362.22"/>
<polygon fill="#555555" stroke="#555555" points="3367.71,-365.46 3375.99,-358.85 3365.39,-358.85 3367.71,-365.46"/>
</g>
<!-- n29 -->
<g id="node23" class="node">
<title>n29</title>
<path fill="#ffcdd2" stroke="black" d="M2680.5,-486.94C2680.5,-486.94 2615.5,-486.94 2615.5,-486.94 2609.5,-486.94 2603.5,-480.94 2603.5,-474.94 2603.5,-474.94 2603.5,-462.94 2603.5,-462.94 2603.5,-456.94 2609.5,-450.94 2615.5,-450.94 2615.5,-450.94 2680.5,-450.94 2680.5,-450.94 2686.5,-450.94 2692.5,-456.94 2692.5,-462.94 2692.5,-462.94 2692.5,-474.94 2692.5,-474.94 2692.5,-480.94 2686.5,-486.94 2680.5,-486.94"/>
<text text-anchor="middle" x="2648" y="-466.14" font-family="Helvetica" font-size="11.00">Sharer Error</text>
</g>
<!-- n20&#45;&gt;n29 -->
<g id="edge37" class="edge">
<title>n20&#45;&gt;n29</title>
<path fill="none" stroke="#555555" d="M1904.64,-461.3C2027.59,-462.56 2443.6,-466.85 2593.01,-468.38"/>
<polygon fill="#555555" stroke="#555555" points="2593.27,-471.89 2603.3,-468.49 2593.34,-464.89 2593.27,-471.89"/>
</g>
<!-- n21&#45;&gt;n29 -->
<g id="edge39" class="edge">
<title>n21&#45;&gt;n29</title>
<path fill="none" stroke="#555555" d="M2505.37,-529.12C2530.91,-518.27 2566.02,-503.35 2594.88,-491.09"/>
<polygon fill="#555555" stroke="#555555" points="2596.57,-494.17 2604.41,-487.04 2593.84,-487.73 2596.57,-494.17"/>
</g>
<!-- n22&#45;&gt;n19 -->
<g id="edge19" class="edge">
<title>n22&#45;&gt;n19</title>
<path fill="none" stroke="#555555" d="M1915.02,-557.95C1946.59,-570.58 1988.98,-587.53 2022.54,-600.96"/>
<polygon fill="#555555" stroke="#555555" points="2021.62,-604.36 2032.21,-604.82 2024.22,-597.86 2021.62,-604.36"/>
</g>
<!-- n23&#45;&gt;n21 -->
<g id="edge40" class="edge">
<title>n23&#45;&gt;n21</title>
<path fill="none" stroke="#555555" d="M2310.04,-543.94C2339.52,-543.94 2388.04,-543.94 2423.64,-543.94"/>
<polygon fill="#555555" stroke="#555555" points="2423.78,-547.44 2433.78,-543.94 2423.78,-540.44 2423.78,-547.44"/>
</g>
<!-- n24&#45;&gt;n14 -->
<g id="edge22" class="edge">
<title>n24&#45;&gt;n14</title>
<path fill="none" stroke="#555555" d="M1548.01,-288.77C1637.47,-256.02 1900.3,-159.81 2018.6,-116.5"/>
<polygon fill="#555555" stroke="#555555" points="2020.04,-119.7 2028.23,-112.98 2017.64,-113.13 2020.04,-119.7"/>
</g>
<!-- n24&#45;&gt;n18 -->
<g id="edge23" class="edge">
<title>n24&#45;&gt;n18</title>
<path fill="none" stroke="#555555" d="M1530.67,-318.04C1556.47,-353.5 1613.75,-432.24 1643.78,-473.52"/>
<polygon fill="#555555" stroke="#555555" points="1641.04,-475.71 1649.76,-481.74 1646.7,-471.59 1641.04,-475.71"/>
</g>
<!-- n25 -->
<g id="node19" class="node">
<title>n25</title>
<path fill="#e8f4f8" stroke="black" d="M2095,-317.94C2095,-317.94 2062,-317.94 2062,-317.94 2056,-317.94 2050,-311.94 2050,-305.94 2050,-305.94 2050,-293.94 2050,-293.94 2050,-287.94 2056,-281.94 2062,-281.94 2062,-281.94 2095,-281.94 2095,-281.94 2101,-281.94 2107,-287.94 2107,-293.94 2107,-293.94 2107,-305.94 2107,-305.94 2107,-311.94 2101,-317.94 2095,-317.94"/>
<text text-anchor="middle" x="2078.5" y="-297.14" font-family="Helvetica" font-size="11.00">Null&#45;4</text>
</g>
<!-- n24&#45;&gt;n25 -->
<g id="edge21" class="edge">
<title>n24&#45;&gt;n25</title>
<path fill="none" stroke="#555555" d="M1548.01,-299.94C1643.33,-299.94 1935.47,-299.94 2039.9,-299.94"/>
<polygon fill="#555555" stroke="#555555" points="2039.98,-303.44 2049.98,-299.94 2039.98,-296.44 2039.98,-303.44"/>
</g>
<!-- n26 -->
<g id="node20" class="node">
<title>n26</title>
<path fill="#e8f4f8" stroke="black" d="M2341,-356.94C2341,-356.94 2225,-356.94 2225,-356.94 2219,-356.94 2213,-350.94 2213,-344.94 2213,-344.94 2213,-332.94 2213,-332.94 2213,-326.94 2219,-320.94 2225,-320.94 2225,-320.94 2341,-320.94 2341,-320.94 2347,-320.94 2353,-326.94 2353,-332.94 2353,-332.94 2353,-344.94 2353,-344.94 2353,-350.94 2347,-356.94 2341,-356.94"/>
<text text-anchor="middle" x="2283" y="-336.14" font-family="Helvetica" font-size="11.00">QueryRTDB&#45;QBundles</text>
</g>
<!-- n25&#45;&gt;n26 -->
<g id="edge34" class="edge">
<title>n25&#45;&gt;n26</title>
<path fill="none" stroke="#555555" d="M2107.23,-305.28C2131.88,-310.03 2169.14,-317.2 2202.93,-323.71"/>
<polygon fill="#555555" stroke="#555555" points="2202.34,-327.16 2212.82,-325.62 2203.66,-320.29 2202.34,-327.16"/>
</g>
<!-- n7 -->
<g id="node35" class="node">
<title>n7</title>
<path fill="#e8f4f8" stroke="black" d="M2315.5,-277.94C2315.5,-277.94 2250.5,-277.94 2250.5,-277.94 2244.5,-277.94 2238.5,-271.94 2238.5,-265.94 2238.5,-265.94 2238.5,-253.94 2238.5,-253.94 2238.5,-247.94 2244.5,-241.94 2250.5,-241.94 2250.5,-241.94 2315.5,-241.94 2315.5,-241.94 2321.5,-241.94 2327.5,-247.94 2327.5,-253.94 2327.5,-253.94 2327.5,-265.94 2327.5,-265.94 2327.5,-271.94 2321.5,-277.94 2315.5,-277.94"/>
<text text-anchor="middle" x="2283" y="-257.14" font-family="Helvetica" font-size="11.00">QueryRTDB</text>
</g>
<!-- n25&#45;&gt;n7 -->
<g id="edge33" class="edge">
<title>n25&#45;&gt;n7</title>
<path fill="none" stroke="#555555" d="M2107.23,-294.46C2138.26,-288.33 2189.26,-278.26 2228.18,-270.57"/>
<polygon fill="#555555" stroke="#555555" points="2229.17,-273.94 2238.3,-268.57 2227.81,-267.08 2229.17,-273.94"/>
</g>
<!-- n26&#45;&gt;n11 -->
<g id="edge27" class="edge">
<title>n26&#45;&gt;n11</title>
<path fill="none" stroke="#555555" d="M2353.23,-323.93C2373.69,-319.5 2395.76,-314.71 2415.07,-310.52"/>
<polygon fill="#555555" stroke="#555555" points="2415.86,-313.94 2424.89,-308.4 2414.37,-307.09 2415.86,-313.94"/>
</g>
<!-- n27 -->
<g id="node21" class="node">
<title>n27</title>
<path fill="#e8f4f8" stroke="black" d="M2493,-395.94C2493,-395.94 2446,-395.94 2446,-395.94 2440,-395.94 2434,-389.94 2434,-383.94 2434,-383.94 2434,-371.94 2434,-371.94 2434,-365.94 2440,-359.94 2446,-359.94 2446,-359.94 2493,-359.94 2493,-359.94 2499,-359.94 2505,-365.94 2505,-371.94 2505,-371.94 2505,-383.94 2505,-383.94 2505,-389.94 2499,-395.94 2493,-395.94"/>
<text text-anchor="middle" x="2469.5" y="-375.14" font-family="Helvetica" font-size="11.00">Assign&#45;5</text>
</g>
<!-- n26&#45;&gt;n27 -->
<g id="edge28" class="edge">
<title>n26&#45;&gt;n27</title>
<path fill="none" stroke="#555555" d="M2353.23,-353.57C2376.86,-358.57 2402.66,-364.02 2423.84,-368.5"/>
<polygon fill="#555555" stroke="#555555" points="2423.33,-371.97 2433.84,-370.61 2424.78,-365.12 2423.33,-371.97"/>
</g>
<!-- n27&#45;&gt;n5 -->
<g id="edge44" class="edge">
<title>n27&#45;&gt;n5</title>
<path fill="none" stroke="#555555" d="M2505.17,-379.04C2555.79,-379.3 2651.78,-374.6 2724,-339.94 2770.86,-317.45 2812.62,-272.58 2836.08,-243.98"/>
<polygon fill="#555555" stroke="#555555" points="2838.94,-246 2842.48,-236.02 2833.49,-241.62 2838.94,-246"/>
</g>
<!-- n27&#45;&gt;n6 -->
<g id="edge42" class="edge">
<title>n27&#45;&gt;n6</title>
<path fill="none" stroke="#555555" d="M2505.37,-362.73C2531.39,-351.38 2567.32,-335.7 2596.48,-322.98"/>
<polygon fill="#555555" stroke="#555555" points="2597.92,-326.17 2605.69,-318.96 2595.12,-319.75 2597.92,-326.17"/>
</g>
<!-- n28&#45;&gt;n5 -->
<g id="edge32" class="edge">
<title>n28&#45;&gt;n5</title>
<path fill="none" stroke="#555555" d="M2675.32,-66.88C2690.17,-74.12 2708.75,-84.05 2724,-94.94 2765.3,-124.43 2807.19,-165.85 2832.39,-192.3"/>
<polygon fill="#555555" stroke="#555555" points="2829.93,-194.8 2839.34,-199.67 2835.02,-189.99 2829.93,-194.8"/>
</g>
<!-- n29&#45;&gt;n4 -->
<g id="edge38" class="edge">
<title>n29&#45;&gt;n4</title>
<path fill="none" stroke="#555555" d="M2692.65,-468.94C2715.58,-468.94 2744.48,-468.94 2771.57,-468.94"/>
<polygon fill="#555555" stroke="#555555" points="2771.85,-472.44 2781.85,-468.94 2771.85,-465.44 2771.85,-472.44"/>
</g>
<!-- n32 -->
<g id="node27" class="node">
<title>n32</title>
<path fill="#ffccbc" stroke="black" d="M3563,-361.94C3563,-361.94 3533,-361.94 3533,-361.94 3527,-361.94 3521,-355.94 3521,-349.94 3521,-349.94 3521,-337.94 3521,-337.94 3521,-331.94 3527,-325.94 3533,-325.94 3533,-325.94 3563,-325.94 3563,-325.94 3569,-325.94 3575,-331.94 3575,-337.94 3575,-337.94 3575,-349.94 3575,-349.94 3575,-355.94 3569,-361.94 3563,-361.94"/>
<text text-anchor="middle" x="3548" y="-341.14" font-family="Helvetica" font-size="11.00">End</text>
</g>
<!-- n3&#45;&gt;n32 -->
<g id="edge47" class="edge">
<title>n3&#45;&gt;n32</title>
<path fill="none" stroke="#555555" d="M3463.33,-343.94C3478.67,-343.94 3495.81,-343.94 3510.56,-343.94"/>
<polygon fill="#555555" stroke="#555555" points="3510.82,-347.44 3520.82,-343.94 3510.82,-340.44 3510.82,-347.44"/>
</g>
<!-- n36 -->
<g id="node31" class="node">
<title>n36</title>
<path fill="#e8f4f8" stroke="black" d="M569,-360.94C569,-360.94 453,-360.94 453,-360.94 447,-360.94 441,-354.94 441,-348.94 441,-348.94 441,-336.94 441,-336.94 441,-330.94 447,-324.94 453,-324.94 453,-324.94 569,-324.94 569,-324.94 575,-324.94 581,-330.94 581,-336.94 581,-336.94 581,-348.94 581,-348.94 581,-354.94 575,-360.94 569,-360.94"/>
<text text-anchor="middle" x="511" y="-340.14" font-family="Helvetica" font-size="11.00">GetAllowedUOMCodes</text>
</g>
<!-- n31&#45;&gt;n36 -->
<g id="edge53" class="edge">
<title>n31&#45;&gt;n36</title>
<path fill="none" stroke="#555555" d="M383.1,-342.94C398.03,-342.94 414.5,-342.94 430.49,-342.94"/>
<polygon fill="#555555" stroke="#555555" points="430.91,-346.44 440.91,-342.94 430.91,-339.44 430.91,-346.44"/>
</g>
<!-- n33&#45;&gt;n24 -->
<g id="edge52" class="edge">
<title>n33&#45;&gt;n24</title>
<path fill="none" stroke="#555555" d="M1061.27,-299.94C1162.19,-299.94 1383.29,-299.94 1474.7,-299.94"/>
<polygon fill="#555555" stroke="#555555" points="1474.94,-303.44 1484.94,-299.94 1474.94,-296.44 1474.94,-303.44"/>
</g>
<!-- n34 -->
<g id="node29" class="node">
<title>n34</title>
<path fill="#e8f4f8" stroke="black" d="M1273,-234.94C1273,-234.94 1131,-234.94 1131,-234.94 1125,-234.94 1119,-228.94 1119,-222.94 1119,-222.94 1119,-210.94 1119,-210.94 1119,-204.94 1125,-198.94 1131,-198.94 1131,-198.94 1273,-198.94 1273,-198.94 1279,-198.94 1285,-204.94 1285,-210.94 1285,-210.94 1285,-222.94 1285,-222.94 1285,-228.94 1279,-234.94 1273,-234.94"/>
<text text-anchor="middle" x="1202" y="-214.14" font-family="Helvetica" font-size="11.00">WriteToLog_RefreshBalance</text>
</g>
<!-- n33&#45;&gt;n34 -->
<g id="edge49" class="edge">
<title>n33&#45;&gt;n34</title>
<path fill="none" stroke="#555555" d="M1051.05,-281.93C1080.06,-269.36 1118.97,-252.49 1149.88,-239.1"/>
<polygon fill="#555555" stroke="#555555" points="1151.41,-242.25 1159.2,-235.06 1148.63,-235.82 1151.41,-242.25"/>
</g>
<!-- n35 -->
<g id="node30" class="node">
<title>n35</title>
<path fill="#e8f4f8" stroke="black" d="M1415,-234.94C1415,-234.94 1355,-234.94 1355,-234.94 1349,-234.94 1343,-228.94 1343,-222.94 1343,-222.94 1343,-210.94 1343,-210.94 1343,-204.94 1349,-198.94 1355,-198.94 1355,-198.94 1415,-198.94 1415,-198.94 1421,-198.94 1427,-204.94 1427,-210.94 1427,-210.94 1427,-222.94 1427,-222.94 1427,-228.94 1421,-234.94 1415,-234.94"/>
<text text-anchor="middle" x="1385" y="-214.14" font-family="Helvetica" font-size="11.00">IgnoreError</text>
</g>
<!-- n34&#45;&gt;n35 -->
<g id="edge50" class="edge">
<title>n34&#45;&gt;n35</title>
<path fill="none" stroke="#555555" d="M1285.03,-216.94C1301.13,-216.94 1317.6,-216.94 1332.37,-216.94"/>
<polygon fill="#555555" stroke="#555555" points="1332.79,-220.44 1342.79,-216.94 1332.79,-213.44 1332.79,-220.44"/>
</g>
<!-- n35&#45;&gt;n24 -->
<g id="edge51" class="edge">
<title>n35&#45;&gt;n24</title>
<path fill="none" stroke="#555555" d="M1414.1,-234.95C1432.98,-247.05 1458.05,-263.12 1478.54,-276.25"/>
<polygon fill="#555555" stroke="#555555" points="1476.7,-279.23 1487.01,-281.68 1480.48,-273.34 1476.7,-279.23"/>
</g>
<!-- n36&#45;&gt;n0 -->
<g id="edge54" class="edge">
<title>n36&#45;&gt;n0</title>
<path fill="none" stroke="#555555" d="M581.1,-342.94C596.47,-342.94 612.88,-342.94 628.63,-342.94"/>
<polygon fill="#555555" stroke="#555555" points="628.86,-346.44 638.86,-342.94 628.86,-339.44 628.86,-346.44"/>
</g>
<!-- n4&#45;&gt;n2 -->
<g id="edge3" class="edge">
<title>n4&#45;&gt;n2</title>
<path fill="none" stroke="#555555" d="M2932.07,-468.94C2947.59,-468.94 2964.02,-468.94 2979.75,-468.94"/>
<polygon fill="#555555" stroke="#555555" points="2979.97,-472.44 2989.97,-468.94 2979.97,-465.44 2979.97,-472.44"/>
</g>
<!-- n5&#45;&gt;n3 -->
<g id="edge4" class="edge">
<title>n5&#45;&gt;n3</title>
<path fill="none" stroke="#555555" d="M2927.15,-234.35C2947.4,-239.11 2969.57,-244.28 2990,-248.94 3125.36,-279.84 3285.11,-314.88 3365.95,-332.51"/>
<polygon fill="#555555" stroke="#555555" points="3365.37,-335.97 3375.89,-334.68 3366.86,-329.13 3365.37,-335.97"/>
</g>
<!-- n9 -->
<g id="node37" class="node">
<title>n9</title>
<path fill="#e8f4f8" stroke="black" d="M3304,-233.94C3304,-233.94 3204,-233.94 3204,-233.94 3198,-233.94 3192,-227.94 3192,-221.94 3192,-221.94 3192,-209.94 3192,-209.94 3192,-203.94 3198,-197.94 3204,-197.94 3204,-197.94 3304,-197.94 3304,-197.94 3310,-197.94 3316,-203.94 3316,-209.94 3316,-209.94 3316,-221.94 3316,-221.94 3316,-227.94 3310,-233.94 3304,-233.94"/>
<text text-anchor="middle" x="3254" y="-213.14" font-family="Helvetica" font-size="11.00">WriteToLog_Prepay</text>
</g>
<!-- n5&#45;&gt;n9 -->
<g id="edge25" class="edge">
<title>n5&#45;&gt;n9</title>
<path fill="none" stroke="#555555" d="M2927.26,-217.59C2998.64,-217.23 3109.41,-216.67 3181.58,-216.3"/>
<polygon fill="#555555" stroke="#555555" points="3181.95,-219.8 3191.94,-216.25 3181.92,-212.8 3181.95,-219.8"/>
</g>
<!-- n6&#45;&gt;n4 -->
<g id="edge6" class="edge">
<title>n6&#45;&gt;n4</title>
<path fill="none" stroke="#555555" d="M2671.55,-319.24C2708.97,-349.62 2783.95,-410.47 2825.87,-444.49"/>
<polygon fill="#555555" stroke="#555555" points="2823.82,-447.33 2833.79,-450.92 2828.24,-441.9 2823.82,-447.33"/>
</g>
<!-- n6&#45;&gt;n5 -->
<g id="edge5" class="edge">
<title>n6&#45;&gt;n5</title>
<path fill="none" stroke="#555555" d="M2693.92,-282.93C2725.41,-270.3 2767.69,-253.35 2801.18,-239.92"/>
<polygon fill="#555555" stroke="#555555" points="2802.84,-243.03 2810.81,-236.06 2800.23,-236.53 2802.84,-243.03"/>
</g>
<!-- n7&#45;&gt;n11 -->
<g id="edge26" class="edge">
<title>n7&#45;&gt;n11</title>
<path fill="none" stroke="#555555" d="M2327.72,-269.18C2353.82,-274.7 2387.17,-281.75 2414.85,-287.6"/>
<polygon fill="#555555" stroke="#555555" points="2414.26,-291.05 2424.77,-289.7 2415.71,-284.2 2414.26,-291.05"/>
</g>
<!-- n8 -->
<g id="node36" class="node">
<title>n8</title>
<path fill="#e8f4f8" stroke="black" d="M2493,-237.94C2493,-237.94 2446,-237.94 2446,-237.94 2440,-237.94 2434,-231.94 2434,-225.94 2434,-225.94 2434,-213.94 2434,-213.94 2434,-207.94 2440,-201.94 2446,-201.94 2446,-201.94 2493,-201.94 2493,-201.94 2499,-201.94 2505,-207.94 2505,-213.94 2505,-213.94 2505,-225.94 2505,-225.94 2505,-231.94 2499,-237.94 2493,-237.94"/>
<text text-anchor="middle" x="2469.5" y="-217.14" font-family="Helvetica" font-size="11.00">Assign&#45;4</text>
</g>
<!-- n7&#45;&gt;n8 -->
<g id="edge7" class="edge">
<title>n7&#45;&gt;n8</title>
<path fill="none" stroke="#555555" d="M2327.72,-250.46C2356.7,-244.18 2394.61,-235.96 2423.79,-229.63"/>
<polygon fill="#555555" stroke="#555555" points="2424.68,-233.02 2433.72,-227.48 2423.2,-226.18 2424.68,-233.02"/>
</g>
<!-- n8&#45;&gt;n5 -->
<g id="edge43" class="edge">
<title>n8&#45;&gt;n5</title>
<path fill="none" stroke="#555555" d="M2505.05,-219.76C2565.81,-219.45 2693.26,-218.78 2776.69,-218.35"/>
<polygon fill="#555555" stroke="#555555" points="2776.91,-221.85 2786.89,-218.3 2776.87,-214.85 2776.91,-221.85"/>
</g>
<!-- n8&#45;&gt;n6 -->
<g id="edge41" class="edge">
<title>n8&#45;&gt;n6</title>
<path fill="none" stroke="#555555" d="M2505.37,-235.94C2531.93,-248.13 2568.83,-265.06 2598.3,-278.59"/>
<polygon fill="#555555" stroke="#555555" points="2597.04,-281.86 2607.59,-282.85 2599.96,-275.5 2597.04,-281.86"/>
</g>
<!-- n9&#45;&gt;n3 -->
<g id="edge8" class="edge">
<title>n9&#45;&gt;n3</title>
<path fill="none" stroke="#555555" d="M3278.08,-234.01C3306.6,-256.34 3355.27,-294.44 3387.15,-319.4"/>
<polygon fill="#555555" stroke="#555555" points="3385.24,-322.35 3395.27,-325.76 3389.56,-316.84 3385.24,-322.35"/>
</g>
</g>
</svg>
