<?xml version="1.0" encoding="UTF-8" standalone="no"?>
<!DOCTYPE svg PUBLIC "-//W3C//DTD SVG 1.1//EN"
 "http://www.w3.org/Graphics/SVG/1.1/DTD/svg11.dtd">
<!-- Generated by graphviz version 2.44.0 (0)
 -->
<!-- Title: process Pages: 1 -->
<svg width="1666pt" height="362pt"
 viewBox="0.00 0.00 1666.00 361.82" xmlns="http://www.w3.org/2000/svg" xmlns:xlink="http://www.w3.org/1999/xlink">
<g id="graph0" class="graph" transform="scale(1 1) rotate(0) translate(36 325.82)">
<title>process</title>
<polygon fill="#ffffff" stroke="transparent" points="-36,36 -36,-325.82 1630,-325.82 1630,36 -36,36"/>
<!-- n0 -->
<g id="node1" class="node">
<title>n0</title>
<path fill="#c8e6c9" stroke="black" d="M42,-36C42,-36 12,-36 12,-36 6,-36 0,-30 0,-24 0,-24 0,-12 0,-12 0,-6 6,0 12,0 12,0 42,0 42,0 48,0 54,-6 54,-12 54,-12 54,-24 54,-24 54,-30 48,-36 42,-36"/>
<text text-anchor="middle" x="27" y="-15.2" font-family="Helvetica" font-size="11.00">start</text>
</g>
<!-- n1 -->
<g id="node2" class="node">
<title>n1</title>
<path fill="#e8f4f8" stroke="black" d="M213.5,-36C213.5,-36 154.5,-36 154.5,-36 148.5,-36 142.5,-30 142.5,-24 142.5,-24 142.5,-12 142.5,-12 142.5,-6 148.5,0 154.5,0 154.5,0 213.5,0 213.5,0 219.5,0 225.5,-6 225.5,-12 225.5,-12 225.5,-24 225.5,-24 225.5,-30 219.5,-36 213.5,-36"/>
<text text-anchor="middle" x="184" y="-15.2" font-family="Helvetica" font-size="11.00">WriteToLog</text>
</g>
<!-- n0&#45;&gt;n1 -->
<g id="edge1" class="edge">
<title>n0&#45;&gt;n1</title>
<path fill="none" stroke="#555555" d="M54.29,-18C75.57,-18 106.16,-18 132.18,-18"/>
<polygon fill="#555555" stroke="#555555" points="132.27,-21.5 142.27,-18 132.27,-14.5 132.27,-21.5"/>
</g>
<!-- n5 -->
<g id="node12" class="node">
<title>n5</title>
<path fill="#e8f4f8" stroke="black" d="M403,-36C403,-36 371,-36 371,-36 365,-36 359,-30 359,-24 359,-24 359,-12 359,-12 359,-6 365,0 371,0 371,0 403,0 403,0 409,0 415,-6 415,-12 415,-12 415,-24 415,-24 415,-30 409,-36 403,-36"/>
<text text-anchor="middle" x="387" y="-15.2" font-family="Helvetica" font-size="11.00">Sleep</text>
</g>
<!-- n1&#45;&gt;n5 -->
<g id="edge4" class="edge">
<title>n1&#45;&gt;n5</title>
<path fill="none" stroke="#555555" d="M225.68,-18C261.64,-18 313.69,-18 348.63,-18"/>
<polygon fill="#555555" stroke="#555555" points="348.89,-21.5 358.89,-18 348.89,-14.5 348.89,-21.5"/>
</g>
<!-- n10 -->
<g id="node3" class="node">
<title>n10</title>
<path fill="#e8f4f8" stroke="black" d="M612,-244C612,-244 582,-244 582,-244 576,-244 570,-238 570,-232 570,-232 570,-220 570,-220 570,-214 576,-208 582,-208 582,-208 612,-208 612,-208 618,-208 624,-214 624,-220 624,-220 624,-232 624,-232 624,-238 618,-244 612,-244"/>
<text text-anchor="middle" x="597" y="-223.2" font-family="Helvetica" font-size="11.00">Null</text>
</g>
<!-- n11 -->
<g id="node4" class="node">
<title>n11</title>
<path fill="#e8f4f8" stroke="black" d="M861,-244C861,-244 762,-244 762,-244 756,-244 750,-238 750,-232 750,-232 750,-220 750,-220 750,-214 756,-208 762,-208 762,-208 861,-208 861,-208 867,-208 873,-214 873,-220 873,-220 873,-232 873,-232 873,-238 867,-244 861,-244"/>
<text text-anchor="middle" x="811.5" y="-223.2" font-family="Helvetica" font-size="11.00">Get Connection List</text>
</g>
<!-- n10&#45;&gt;n11 -->
<g id="edge10" class="edge">
<title>n10&#45;&gt;n11</title>
<path fill="none" stroke="#555555" d="M624.06,-226C652.71,-226 699.95,-226 739.71,-226"/>
<polygon fill="#555555" stroke="#555555" points="739.91,-229.5 749.91,-226 739.91,-222.5 739.91,-229.5"/>
</g>
<!-- n13 -->
<g id="node6" class="node">
<title>n13</title>
<path fill="#e8f4f8" stroke="black" d="M1413,-285C1413,-285 1321,-285 1321,-285 1315,-285 1309,-279 1309,-273 1309,-273 1309,-261 1309,-261 1309,-255 1315,-249 1321,-249 1321,-249 1413,-249 1413,-249 1419,-249 1425,-255 1425,-261 1425,-261 1425,-273 1425,-273 1425,-279 1419,-285 1413,-285"/>
<text text-anchor="middle" x="1367" y="-264.2" font-family="Helvetica" font-size="11.00">MapAnyException</text>
</g>
<!-- n10&#45;&gt;n13 -->
<g id="edge12" class="edge">
<title>n10&#45;&gt;n13</title>
<path fill="none" stroke="#555555" d="M624.12,-235.85C651.17,-245.53 694.87,-259.74 734,-266 960.95,-302.34 1021.42,-288.95 1251,-278 1266.45,-277.26 1283.02,-275.97 1298.65,-274.53"/>
<polygon fill="#555555" stroke="#555555" points="1299.13,-278 1308.75,-273.56 1298.46,-271.03 1299.13,-278"/>
</g>
<!-- n12 -->
<g id="node5" class="node">
<title>n12</title>
<path fill="#e8f4f8" stroke="black" d="M1045,-244C1045,-244 959,-244 959,-244 953,-244 947,-238 947,-232 947,-232 947,-220 947,-220 947,-214 953,-208 959,-208 959,-208 1045,-208 1045,-208 1051,-208 1057,-214 1057,-220 1057,-220 1057,-232 1057,-232 1057,-238 1051,-244 1045,-244"/>
<text text-anchor="middle" x="1002" y="-223.2" font-family="Helvetica" font-size="11.00">Number of URLs</text>
</g>
<!-- n11&#45;&gt;n12 -->
<g id="edge11" class="edge">
<title>n11&#45;&gt;n12</title>
<path fill="none" stroke="#555555" d="M873.18,-226C893.44,-226 916.07,-226 936.6,-226"/>
<polygon fill="#555555" stroke="#555555" points="936.8,-229.5 946.8,-226 936.8,-222.5 936.8,-229.5"/>
</g>
<!-- n12&#45;&gt;n13 -->
<g id="edge13" class="edge">
<title>n12&#45;&gt;n13</title>
<path fill="none" stroke="#555555" d="M1057.34,-232.14C1121.82,-239.42 1229.3,-251.56 1298.9,-259.42"/>
<polygon fill="#555555" stroke="#555555" points="1298.56,-262.9 1308.89,-260.55 1299.34,-255.95 1298.56,-262.9"/>
</g>
<!-- n14 -->
<g id="node7" class="node">
<title>n14</title>
<path fill="#e8f4f8" stroke="black" d="M1239,-202C1239,-202 1127,-202 1127,-202 1121,-202 1115,-196 1115,-190 1115,-190 1115,-178 1115,-178 1115,-172 1121,-166 1127,-166 1127,-166 1239,-166 1239,-166 1245,-166 1251,-172 1251,-178 1251,-178 1251,-190 1251,-190 1251,-196 1245,-202 1239,-202"/>
<text text-anchor="middle" x="1183" y="-181.2" font-family="Helvetica" font-size="11.00">Try Secondary URL(s)</text>
</g>
<!-- n12&#45;&gt;n14 -->
<g id="edge14" class="edge">
<title>n12&#45;&gt;n14</title>
<path fill="none" stroke="#555555" d="M1057.19,-213.28C1072.19,-209.77 1088.76,-205.88 1104.8,-202.11"/>
<polygon fill="#555555" stroke="#555555" points="1105.76,-205.48 1114.69,-199.79 1104.16,-198.67 1105.76,-205.48"/>
</g>
<!-- n15 -->
<g id="node8" class="node">
<title>n15</title>
<path fill="#ffcdd2" stroke="black" d="M1582,-285C1582,-285 1495,-285 1495,-285 1489,-285 1483,-279 1483,-273 1483,-273 1483,-261 1483,-261 1483,-255 1489,-249 1495,-249 1495,-249 1582,-249 1582,-249 1588,-249 1594,-255 1594,-261 1594,-261 1594,-273 1594,-273 1594,-279 1588,-285 1582,-285"/>
<text text-anchor="middle" x="1538.5" y="-264.2" font-family="Helvetica" font-size="11.00">Generate&#45;Error&#45;1</text>
</g>
<!-- n13&#45;&gt;n15 -->
<g id="edge16" class="edge">
<title>n13&#45;&gt;n15</title>
<path fill="none" stroke="#555555" d="M1425.38,-267C1440.59,-267 1457.11,-267 1472.68,-267"/>
<polygon fill="#555555" stroke="#555555" points="1472.75,-270.5 1482.75,-267 1472.75,-263.5 1472.75,-270.5"/>
</g>
<!-- n14&#45;&gt;n13 -->
<g id="edge17" class="edge">
<title>n14&#45;&gt;n13</title>
<path fill="none" stroke="#555555" d="M1223.49,-202.01C1250.94,-214.53 1287.72,-231.3 1317.04,-244.67"/>
<polygon fill="#555555" stroke="#555555" points="1315.72,-247.92 1326.27,-248.88 1318.63,-241.55 1315.72,-247.92"/>
</g>
<!-- n9 -->
<g id="node16" class="node">
<title>n9</title>
<path fill="#ffccbc" stroke="black" d="M1382,-161C1382,-161 1352,-161 1352,-161 1346,-161 1340,-155 1340,-149 1340,-149 1340,-137 1340,-137 1340,-131 1346,-125 1352,-125 1352,-125 1382,-125 1382,-125 1388,-125 1394,-131 1394,-137 1394,-137 1394,-149 1394,-149 1394,-155 1388,-161 1382,-161"/>
<text text-anchor="middle" x="1367" y="-140.2" font-family="Helvetica" font-size="11.00">End</text>
</g>
<!-- n14&#45;&gt;n9 -->
<g id="edge15" class="edge">
<title>n14&#45;&gt;n9</title>
<path fill="none" stroke="#555555" d="M1251.25,-168.85C1277.95,-162.84 1307.57,-156.16 1330.04,-151.1"/>
<polygon fill="#555555" stroke="#555555" points="1330.83,-154.51 1339.81,-148.9 1329.29,-147.68 1330.83,-154.51"/>
</g>
<!-- n2 -->
<g id="node9" class="node">
<title>n2</title>
<path fill="#e8f4f8" stroke="black" d="M877,-36C877,-36 746,-36 746,-36 740,-36 734,-30 734,-24 734,-24 734,-12 734,-12 734,-6 740,0 746,0 746,0 877,0 877,0 883,0 889,-6 889,-12 889,-12 889,-24 889,-24 889,-30 883,-36 877,-36"/>
<text text-anchor="middle" x="811.5" y="-15.2" font-family="Helvetica" font-size="11.00">SendRequestOneServer&#45;1</text>
</g>
<!-- n3 -->
<g id="node10" class="node">
<title>n3</title>
<path fill="#ffccbc" stroke="black" d="M1017,-36C1017,-36 987,-36 987,-36 981,-36 975,-30 975,-24 975,-24 975,-12 975,-12 975,-6 981,0 987,0 987,0 1017,0 1017,0 1023,0 1029,-6 1029,-12 1029,-12 1029,-24 1029,-24 1029,-30 1023,-36 1017,-36"/>
<text text-anchor="middle" x="1002" y="-15.2" font-family="Helvetica" font-size="11.00">end</text>
</g>
<!-- n2&#45;&gt;n3 -->
<g id="edge2" class="edge">
<title>n2&#45;&gt;n3</title>
<path fill="none" stroke="#555555" d="M889.17,-18C915.15,-18 942.99,-18 964.39,-18"/>
<polygon fill="#555555" stroke="#555555" points="964.64,-21.5 974.64,-18 964.64,-14.5 964.64,-21.5"/>
</g>
<!-- n4 -->
<g id="node11" class="node">
<title>n4</title>
<path fill="#e8f4f8" stroke="black" d="M664,-36C664,-36 530,-36 530,-36 524,-36 518,-30 518,-24 518,-24 518,-12 518,-12 518,-6 524,0 530,0 530,0 664,0 664,0 670,0 676,-6 676,-12 676,-12 676,-24 676,-24 676,-30 670,-36 664,-36"/>
<text text-anchor="middle" x="597" y="-15.2" font-family="Helvetica" font-size="11.00">Get Secondary Connection</text>
</g>
<!-- n4&#45;&gt;n2 -->
<g id="edge3" class="edge">
<title>n4&#45;&gt;n2</title>
<path fill="none" stroke="#555555" d="M676.22,-18C691.66,-18 707.94,-18 723.64,-18"/>
<polygon fill="#555555" stroke="#555555" points="723.86,-21.5 733.86,-18 723.86,-14.5 723.86,-21.5"/>
</g>
<!-- n5&#45;&gt;n4 -->
<g id="edge5" class="edge">
<title>n5&#45;&gt;n4</title>
<path fill="none" stroke="#555555" d="M415.19,-18C438.74,-18 474.17,-18 507.44,-18"/>
<polygon fill="#555555" stroke="#555555" points="507.68,-21.5 517.68,-18 507.68,-14.5 507.68,-21.5"/>
</g>
<!-- n6 -->
<g id="node13" class="node">
<title>n6</title>
<path fill="#c8e6c9" stroke="black" d="M42,-181C42,-181 12,-181 12,-181 6,-181 0,-175 0,-169 0,-169 0,-157 0,-157 0,-151 6,-145 12,-145 12,-145 42,-145 42,-145 48,-145 54,-151 54,-157 54,-157 54,-169 54,-169 54,-175 48,-181 42,-181"/>
<text text-anchor="middle" x="27" y="-160.2" font-family="Helvetica" font-size="11.00">Start</text>
</g>
<!-- n7 -->
<g id="node14" class="node">
<title>n7</title>
<path fill="#e8f4f8" stroke="black" d="M244,-181C244,-181 124,-181 124,-181 118,-181 112,-175 112,-169 112,-169 112,-157 112,-157 112,-151 118,-145 124,-145 124,-145 244,-145 244,-145 250,-145 256,-151 256,-157 256,-157 256,-169 256,-169 256,-175 250,-181 244,-181"/>
<text text-anchor="middle" x="184" y="-160.2" font-family="Helvetica" font-size="11.00">Get Primary Connection</text>
</g>
<!-- n6&#45;&gt;n7 -->
<g id="edge6" class="edge">
<title>n6&#45;&gt;n7</title>
<path fill="none" stroke="#555555" d="M54.29,-163C67.58,-163 84.5,-163 101.67,-163"/>
<polygon fill="#555555" stroke="#555555" points="101.78,-166.5 111.78,-163 101.78,-159.5 101.78,-166.5"/>
</g>
<!-- n8 -->
<g id="node15" class="node">
<title>n8</title>
<path fill="#e8f4f8" stroke="black" d="M448,-181C448,-181 326,-181 326,-181 320,-181 314,-175 314,-169 314,-169 314,-157 314,-157 314,-151 320,-145 326,-145 326,-145 448,-145 448,-145 454,-145 460,-151 460,-157 460,-157 460,-169 460,-169 460,-175 454,-181 448,-181"/>
<text text-anchor="middle" x="387" y="-160.2" font-family="Helvetica" font-size="11.00">SendRequestOneServer</text>
</g>
<!-- n7&#45;&gt;n8 -->
<g id="edge7" class="edge">
<title>n7&#45;&gt;n8</title>
<path fill="none" stroke="#555555" d="M256.15,-163C271.53,-163 287.91,-163 303.68,-163"/>
<polygon fill="#555555" stroke="#555555" points="303.93,-166.5 313.93,-163 303.93,-159.5 303.93,-166.5"/>
</g>
<!-- n8&#45;&gt;n10 -->
<g id="edge9" class="edge">
<title>n8&#45;&gt;n10</title>
<path fill="none" stroke="#555555" d="M447.6,-181.05C483.84,-192.03 528.94,-205.69 559.84,-215.05"/>
<polygon fill="#555555" stroke="#555555" points="559.16,-218.5 569.75,-218.05 561.19,-211.8 559.16,-218.5"/>
</g>
<!-- n8&#45;&gt;n9 -->
<g id="edge8" class="edge">
<title>n8&#45;&gt;n9</title>
<path fill="none" stroke="#555555" d="M460.05,-145.89C543.77,-127.54 686.32,-101 810.5,-101 810.5,-101 810.5,-101 1003,-101 1123.19,-101 1264.29,-124 1329.53,-135.96"/>
<polygon fill="#555555" stroke="#555555" points="1329.23,-139.47 1339.7,-137.85 1330.51,-132.58 1329.23,-139.47"/>
</g>
</g>
</svg>
