<?xml version="1.0" encoding="UTF-8" standalone="no"?>
<!DOCTYPE svg PUBLIC "-//W3C//DTD SVG 1.1//EN"
 "http://www.w3.org/Graphics/SVG/1.1/DTD/svg11.dtd">
<!-- Generated by graphviz version 2.44.0 (0)
 -->
<!-- Title: process Pages: 1 -->
<svg width="491pt" height="149pt"
 viewBox="0.00 0.00 491.00 149.00" xmlns="http://www.w3.org/2000/svg" xmlns:xlink="http://www.w3.org/1999/xlink">
<g id="graph0" class="graph" transform="scale(1 1) rotate(0) translate(36 113)">
<title>process</title>
<polygon fill="#ffffff" stroke="transparent" points="-36,36 -36,-113 455,-113 455,36 -36,36"/>
<!-- n0 -->
<g id="node1" class="node">
<title>n0</title>
<path fill="#c8e6c9" stroke="black" d="M42,-77C42,-77 12,-77 12,-77 6,-77 0,-71 0,-65 0,-65 0,-53 0,-53 0,-47 6,-41 12,-41 12,-41 42,-41 42,-41 48,-41 54,-47 54,-53 54,-53 54,-65 54,-65 54,-71 48,-77 42,-77"/>
<text text-anchor="middle" x="27" y="-56.2" font-family="Helvetica" font-size="11.00">Start</text>
</g>
<!-- n1 -->
<g id="node2" class="node">
<title>n1</title>
<path fill="#e8f4f8" stroke="black" d="M183,-77C183,-77 124,-77 124,-77 118,-77 112,-71 112,-65 112,-65 112,-53 112,-53 112,-47 118,-41 124,-41 124,-41 183,-41 183,-41 189,-41 195,-47 195,-53 195,-53 195,-65 195,-65 195,-71 189,-77 183,-77"/>
<text text-anchor="middle" x="153.5" y="-56.2" font-family="Helvetica" font-size="11.00">WriteToLog</text>
</g>
<!-- n0&#45;&gt;n1 -->
<g id="edge1" class="edge">
<title>n0&#45;&gt;n1</title>
<path fill="none" stroke="#555555" d="M54.1,-59C67.92,-59 85.37,-59 101.73,-59"/>
<polygon fill="#555555" stroke="#555555" points="101.73,-62.5 111.73,-59 101.73,-55.5 101.73,-62.5"/>
</g>
<!-- n2 -->
<g id="node3" class="node">
<title>n2</title>
<path fill="#ffccbc" stroke="black" d="M407,-77C407,-77 377,-77 377,-77 371,-77 365,-71 365,-65 365,-65 365,-53 365,-53 365,-47 371,-41 377,-41 377,-41 407,-41 407,-41 413,-41 419,-47 419,-53 419,-53 419,-65 419,-65 419,-71 413,-77 407,-77"/>
<text text-anchor="middle" x="392" y="-56.2" font-family="Helvetica" font-size="11.00">End</text>
</g>
<!-- n1&#45;&gt;n2 -->
<g id="edge2" class="edge">
<title>n1&#45;&gt;n2</title>
<path fill="none" stroke="#555555" d="M195.16,-59C240.05,-59 311.68,-59 354.73,-59"/>
<polygon fill="#555555" stroke="#555555" points="354.77,-62.5 364.77,-59 354.77,-55.5 354.77,-62.5"/>
</g>
<!-- n3 -->
<g id="node4" class="node">
<title>n3</title>
<path fill="#e8f4f8" stroke="black" d="M295,-36C295,-36 265,-36 265,-36 259,-36 253,-30 253,-24 253,-24 253,-12 253,-12 253,-6 259,0 265,0 265,0 295,0 295,0 301,0 307,-6 307,-12 307,-12 307,-24 307,-24 307,-30 301,-36 295,-36"/>
<text text-anchor="middle" x="280" y="-15.2" font-family="Helvetica" font-size="11.00">Null</text>
</g>
<!-- n1&#45;&gt;n3 -->
<g id="edge3" class="edge">
<title>n1&#45;&gt;n3</title>
<path fill="none" stroke="#555555" d="M195.27,-45.58C210.59,-40.53 227.9,-34.83 242.79,-29.93"/>
<polygon fill="#555555" stroke="#555555" points="244.25,-33.13 252.65,-26.68 242.06,-26.48 244.25,-33.13"/>
</g>
<!-- n3&#45;&gt;n2 -->
<g id="edge4" class="edge">
<title>n3&#45;&gt;n2</title>
<path fill="none" stroke="#555555" d="M307.07,-27.72C321.48,-33.09 339.61,-39.84 355.32,-45.7"/>
<polygon fill="#555555" stroke="#555555" points="354.14,-49 364.74,-49.21 356.59,-42.44 354.14,-49"/>
</g>
</g>
</svg>
