<?xml version="1.0" encoding="UTF-8" standalone="no"?>
<!DOCTYPE svg PUBLIC "-//W3C//DTD SVG 1.1//EN"
 "http://www.w3.org/Graphics/SVG/1.1/DTD/svg11.dtd">
<!-- Generated by graphviz version 2.44.0 (0)
 -->
<!-- Title: process Pages: 1 -->
<svg width="540pt" height="187pt"
 viewBox="0.00 0.00 540.00 187.00" xmlns="http://www.w3.org/2000/svg" xmlns:xlink="http://www.w3.org/1999/xlink">
<g id="graph0" class="graph" transform="scale(1 1) rotate(0) translate(36 151)">
<title>process</title>
<polygon fill="#ffffff" stroke="transparent" points="-36,36 -36,-151 504,-151 504,36 -36,36"/>
<!-- n0 -->
<g id="node1" class="node">
<title>n0</title>
<path fill="#e8f4f8" stroke="black" d="M203,-75C203,-75 126,-75 126,-75 120,-75 114,-69 114,-63 114,-63 114,-51 114,-51 114,-45 120,-39 126,-39 126,-39 203,-39 203,-39 209,-39 215,-45 215,-51 215,-51 215,-63 215,-63 215,-69 209,-75 203,-75"/>
<text text-anchor="middle" x="164.5" y="-54.2" font-family="Helvetica" font-size="11.00">LoadExpiration</text>
</g>
<!-- n1 -->
<g id="node2" class="node">
<title>n1</title>
<path fill="#e8f4f8" stroke="black" d="M338,-115C338,-115 291,-115 291,-115 285,-115 279,-109 279,-103 279,-103 279,-91 279,-91 279,-85 285,-79 291,-79 291,-79 338,-79 338,-79 344,-79 350,-85 350,-91 350,-91 350,-103 350,-103 350,-109 344,-115 338,-115"/>
<text text-anchor="middle" x="314.5" y="-94.2" font-family="Helvetica" font-size="11.00">LogError</text>
</g>
<!-- n0&#45;&gt;n1 -->
<g id="edge1" class="edge">
<title>n0&#45;&gt;n1</title>
<path fill="none" stroke="#555555" d="M215.19,-70.43C232.6,-75.14 252.03,-80.39 268.99,-84.97"/>
<polygon fill="#555555" stroke="#555555" points="268.09,-88.35 278.65,-87.58 269.91,-81.59 268.09,-88.35"/>
</g>
<!-- n2 -->
<g id="node3" class="node">
<title>n2</title>
<path fill="#e8f4f8" stroke="black" d="M344,-36C344,-36 285,-36 285,-36 279,-36 273,-30 273,-24 273,-24 273,-12 273,-12 273,-6 279,0 285,0 285,0 344,0 344,0 350,0 356,-6 356,-12 356,-12 356,-24 356,-24 356,-30 350,-36 344,-36"/>
<text text-anchor="middle" x="314.5" y="-15.2" font-family="Helvetica" font-size="11.00">WriteToLog</text>
</g>
<!-- n0&#45;&gt;n2 -->
<g id="edge2" class="edge">
<title>n0&#45;&gt;n2</title>
<path fill="none" stroke="#555555" d="M215.19,-43.91C230.49,-39.88 247.34,-35.43 262.7,-31.39"/>
<polygon fill="#555555" stroke="#555555" points="263.78,-34.72 272.55,-28.79 261.99,-27.95 263.78,-34.72"/>
</g>
<!-- n3 -->
<g id="node4" class="node">
<title>n3</title>
<path fill="#ffccbc" stroke="black" d="M456,-75C456,-75 426,-75 426,-75 420,-75 414,-69 414,-63 414,-63 414,-51 414,-51 414,-45 420,-39 426,-39 426,-39 456,-39 456,-39 462,-39 468,-45 468,-51 468,-51 468,-63 468,-63 468,-69 462,-75 456,-75"/>
<text text-anchor="middle" x="441" y="-54.2" font-family="Helvetica" font-size="11.00">End</text>
</g>
<!-- n1&#45;&gt;n3 -->
<g id="edge3" class="edge">
<title>n1&#45;&gt;n3</title>
<path fill="none" stroke="#555555" d="M350.18,-85.86C367.02,-80.45 387.24,-73.95 404.22,-68.5"/>
<polygon fill="#555555" stroke="#555555" points="405.35,-71.81 413.8,-65.42 403.21,-65.15 405.35,-71.81"/>
</g>
<!-- n2&#45;&gt;n3 -->
<g id="edge5" class="edge">
<title>n2&#45;&gt;n3</title>
<path fill="none" stroke="#555555" d="M356.27,-30.77C371.59,-35.57 388.9,-40.99 403.79,-45.66"/>
<polygon fill="#555555" stroke="#555555" points="403.06,-49.1 413.65,-48.75 405.15,-42.42 403.06,-49.1"/>
</g>
<!-- n4 -->
<g id="node5" class="node">
<title>n4</title>
<path fill="#e8f4f8" stroke="black" d="M44,-75C44,-75 12,-75 12,-75 6,-75 0,-69 0,-63 0,-63 0,-51 0,-51 0,-45 6,-39 12,-39 12,-39 44,-39 44,-39 50,-39 56,-45 56,-51 56,-51 56,-63 56,-63 56,-69 50,-75 44,-75"/>
<text text-anchor="middle" x="28" y="-54.2" font-family="Helvetica" font-size="11.00">Timer</text>
</g>
<!-- n4&#45;&gt;n0 -->
<g id="edge4" class="edge">
<title>n4&#45;&gt;n0</title>
<path fill="none" stroke="#555555" d="M56.22,-57C69.89,-57 87.02,-57 103.56,-57"/>
<polygon fill="#555555" stroke="#555555" points="103.74,-60.5 113.74,-57 103.74,-53.5 103.74,-60.5"/>
</g>
</g>
</svg>
