<?xml version="1.0" encoding="UTF-8" standalone="no"?>
<!DOCTYPE svg PUBLIC "-//W3C//DTD SVG 1.1//EN"
 "http://www.w3.org/Graphics/SVG/1.1/DTD/svg11.dtd">
<!-- Generated by graphviz version 2.44.0 (0)
 -->
<!-- Title: process Pages: 1 -->
<svg width="689pt" height="187pt"
 viewBox="0.00 0.00 689.00 187.00" xmlns="http://www.w3.org/2000/svg" xmlns:xlink="http://www.w3.org/1999/xlink">
<g id="graph0" class="graph" transform="scale(1 1) rotate(0) translate(36 151)">
<title>process</title>
<polygon fill="#ffffff" stroke="transparent" points="-36,36 -36,-151 653,-151 653,36 -36,36"/>
<!-- n0 -->
<g id="node1" class="node">
<title>n0</title>
<path fill="#c8e6c9" stroke="black" d="M42,-75C42,-75 12,-75 12,-75 6,-75 0,-69 0,-63 0,-63 0,-51 0,-51 0,-45 6,-39 12,-39 12,-39 42,-39 42,-39 48,-39 54,-45 54,-51 54,-51 54,-63 54,-63 54,-69 48,-75 42,-75"/>
<text text-anchor="middle" x="27" y="-54.2" font-family="Helvetica" font-size="11.00">Start</text>
</g>
<!-- n1 -->
<g id="node2" class="node">
<title>n1</title>
<path fill="#e8f4f8" stroke="black" d="M194,-75C194,-75 124,-75 124,-75 118,-75 112,-69 112,-63 112,-63 112,-51 112,-51 112,-45 118,-39 124,-39 124,-39 194,-39 194,-39 200,-39 206,-45 206,-51 206,-51 206,-63 206,-63 206,-69 200,-75 194,-75"/>
<text text-anchor="middle" x="159" y="-54.2" font-family="Helvetica" font-size="11.00">SendRequest</text>
</g>
<!-- n0&#45;&gt;n1 -->
<g id="edge1" class="edge">
<title>n0&#45;&gt;n1</title>
<path fill="none" stroke="#555555" d="M54.31,-57C68.01,-57 85.32,-57 101.85,-57"/>
<polygon fill="#555555" stroke="#555555" points="102,-60.5 112,-57 102,-53.5 102,-60.5"/>
</g>
<!-- n2 -->
<g id="node3" class="node">
<title>n2</title>
<path fill="#ffccbc" stroke="black" d="M345.5,-115C345.5,-115 283.5,-115 283.5,-115 277.5,-115 271.5,-109 271.5,-103 271.5,-103 271.5,-91 271.5,-91 271.5,-85 277.5,-79 283.5,-79 283.5,-79 345.5,-79 345.5,-79 351.5,-79 357.5,-85 357.5,-91 357.5,-91 357.5,-103 357.5,-103 357.5,-109 351.5,-115 345.5,-115"/>
<text text-anchor="middle" x="314.5" y="-94.2" font-family="Helvetica" font-size="11.00">Parse Reply</text>
</g>
<!-- n1&#45;&gt;n2 -->
<g id="edge2" class="edge">
<title>n1&#45;&gt;n2</title>
<path fill="none" stroke="#555555" d="M206.06,-69C223.57,-73.56 243.63,-78.79 261.64,-83.49"/>
<polygon fill="#555555" stroke="#555555" points="260.85,-86.9 271.4,-86.03 262.61,-80.12 260.85,-86.9"/>
</g>
<!-- n4 -->
<g id="node5" class="node">
<title>n4</title>
<path fill="#ffcdd2" stroke="black" d="M353,-36C353,-36 276,-36 276,-36 270,-36 264,-30 264,-24 264,-24 264,-12 264,-12 264,-6 270,0 276,0 276,0 353,0 353,0 359,0 365,-6 365,-12 365,-12 365,-24 365,-24 365,-30 359,-36 353,-36"/>
<text text-anchor="middle" x="314.5" y="-15.2" font-family="Helvetica" font-size="11.00">Generate Error</text>
</g>
<!-- n1&#45;&gt;n4 -->
<g id="edge4" class="edge">
<title>n1&#45;&gt;n4</title>
<path fill="none" stroke="#555555" d="M206.06,-45.3C221.12,-41.47 238.07,-37.16 253.99,-33.12"/>
<polygon fill="#555555" stroke="#555555" points="254.9,-36.5 263.73,-30.64 253.18,-29.71 254.9,-36.5"/>
</g>
<!-- n3 -->
<g id="node4" class="node">
<title>n3</title>
<path fill="#e8f4f8" stroke="black" d="M493,-115C493,-115 435,-115 435,-115 429,-115 423,-109 423,-103 423,-103 423,-91 423,-91 423,-85 429,-79 435,-79 435,-79 493,-79 493,-79 499,-79 505,-85 505,-91 505,-91 505,-103 505,-103 505,-109 499,-115 493,-115"/>
<text text-anchor="middle" x="464" y="-94.2" font-family="Helvetica" font-size="11.00">Parse XML</text>
</g>
<!-- n2&#45;&gt;n3 -->
<g id="edge3" class="edge">
<title>n2&#45;&gt;n3</title>
<path fill="none" stroke="#555555" d="M357.77,-97C374.85,-97 394.7,-97 412.53,-97"/>
<polygon fill="#555555" stroke="#555555" points="412.76,-100.5 422.76,-97 412.76,-93.5 412.76,-100.5"/>
</g>
<!-- n5 -->
<g id="node6" class="node">
<title>n5</title>
<path fill="#ffccbc" stroke="black" d="M605,-115C605,-115 575,-115 575,-115 569,-115 563,-109 563,-103 563,-103 563,-91 563,-91 563,-85 569,-79 575,-79 575,-79 605,-79 605,-79 611,-79 617,-85 617,-91 617,-91 617,-103 617,-103 617,-109 611,-115 605,-115"/>
<text text-anchor="middle" x="590" y="-94.2" font-family="Helvetica" font-size="11.00">End</text>
</g>
<!-- n3&#45;&gt;n5 -->
<g id="edge5" class="edge">
<title>n3&#45;&gt;n5</title>
<path fill="none" stroke="#555555" d="M505.26,-97C520.51,-97 537.77,-97 552.64,-97"/>
<polygon fill="#555555" stroke="#555555" points="552.98,-100.5 562.98,-97 552.98,-93.5 552.98,-100.5"/>
</g>
</g>
</svg>
