<?xml version="1.0" encoding="UTF-8" standalone="no"?>
<!DOCTYPE svg PUBLIC "-//W3C//DTD SVG 1.1//EN"
 "http://www.w3.org/Graphics/SVG/1.1/DTD/svg11.dtd">
<!-- Generated by graphviz version 2.44.0 (0)
 -->
<!-- Title: process Pages: 1 -->
<svg width="1880pt" height="391pt"
 viewBox="0.00 0.00 1880.00 390.80" xmlns="http://www.w3.org/2000/svg" xmlns:xlink="http://www.w3.org/1999/xlink">
<g id="graph0" class="graph" transform="scale(1 1) rotate(0) translate(36 354.8)">
<title>process</title>
<polygon fill="#ffffff" stroke="transparent" points="-36,36 -36,-354.8 1844,-354.8 1844,36 -36,36"/>
<!-- n0 -->
<g id="node1" class="node">
<title>n0</title>
<path fill="#e8f4f8" stroke="black" d="M1385,-100C1385,-100 1277,-100 1277,-100 1271,-100 1265,-94 1265,-88 1265,-88 1265,-76 1265,-76 1265,-70 1271,-64 1277,-64 1277,-64 1385,-64 1385,-64 1391,-64 1397,-70 1397,-76 1397,-76 1397,-88 1397,-88 1397,-94 1391,-100 1385,-100"/>
<text text-anchor="middle" x="1331" y="-79.2" font-family="Helvetica" font-size="11.00">RenderBackEndError</text>
</g>
<!-- n1 -->
<g id="node2" class="node">
<title>n1</title>
<path fill="#ffccbc" stroke="black" d="M1796,-243C1796,-243 1766,-243 1766,-243 1760,-243 1754,-237 1754,-231 1754,-231 1754,-219 1754,-219 1754,-213 1760,-207 1766,-207 1766,-207 1796,-207 1796,-207 1802,-207 1808,-213 1808,-219 1808,-219 1808,-231 1808,-231 1808,-237 1802,-243 1796,-243"/>
<text text-anchor="middle" x="1781" y="-222.2" font-family="Helvetica" font-size="11.00">End</text>
</g>
<!-- n0&#45;&gt;n1 -->
<g id="edge1" class="edge">
<title>n0&#45;&gt;n1</title>
<path fill="none" stroke="#555555" d="M1397.05,-81.71C1472.78,-83.87 1599.74,-95.35 1696,-144 1721.71,-157 1744.78,-180.55 1760.21,-198.92"/>
<polygon fill="#555555" stroke="#555555" points="1757.71,-201.4 1766.74,-206.94 1763.14,-196.98 1757.71,-201.4"/>
</g>
<!-- n17 -->
<g id="node10" class="node">
<title>n17</title>
<path fill="#e8f4f8" stroke="black" d="M1684,-36C1684,-36 1482,-36 1482,-36 1476,-36 1470,-30 1470,-24 1470,-24 1470,-12 1470,-12 1470,-6 1476,0 1482,0 1482,0 1684,0 1684,0 1690,0 1696,-6 1696,-12 1696,-12 1696,-24 1696,-24 1696,-30 1690,-36 1684,-36"/>
<text text-anchor="middle" x="1583" y="-15.2" font-family="Helvetica" font-size="11.00">Append Backend message and ReThrow</text>
</g>
<!-- n0&#45;&gt;n17 -->
<g id="edge21" class="edge">
<title>n0&#45;&gt;n17</title>
<path fill="none" stroke="#555555" d="M1397.03,-65.35C1429.03,-57.16 1467.9,-47.21 1501.73,-38.55"/>
<polygon fill="#555555" stroke="#555555" points="1502.77,-41.9 1511.59,-36.02 1501.03,-35.11 1502.77,-41.9"/>
</g>
<!-- n10 -->
<g id="node3" class="node">
<title>n10</title>
<path fill="#e8f4f8" stroke="black" d="M808,-295C808,-295 745,-295 745,-295 739,-295 733,-289 733,-283 733,-283 733,-271 733,-271 733,-265 739,-259 745,-259 745,-259 808,-259 808,-259 814,-259 820,-265 820,-271 820,-271 820,-283 820,-283 820,-289 814,-295 808,-295"/>
<text text-anchor="middle" x="776.5" y="-274.2" font-family="Helvetica" font-size="11.00">CSAuditEnd</text>
</g>
<!-- n8 -->
<g id="node17" class="node">
<title>n8</title>
<path fill="#ffcdd2" stroke="black" d="M970,-295C970,-295 911,-295 911,-295 905,-295 899,-289 899,-283 899,-283 899,-271 899,-271 899,-265 905,-259 911,-259 911,-259 970,-259 970,-259 976,-259 982,-265 982,-271 982,-271 982,-283 982,-283 982,-289 976,-295 970,-295"/>
<text text-anchor="middle" x="940.5" y="-274.2" font-family="Helvetica" font-size="11.00">Error Code</text>
</g>
<!-- n10&#45;&gt;n8 -->
<g id="edge18" class="edge">
<title>n10&#45;&gt;n8</title>
<path fill="none" stroke="#555555" d="M820.06,-277C841.11,-277 866.65,-277 888.71,-277"/>
<polygon fill="#555555" stroke="#555555" points="888.89,-280.5 898.89,-277 888.89,-273.5 888.89,-280.5"/>
</g>
<!-- n11 -->
<g id="node4" class="node">
<title>n11</title>
<path fill="#e8f4f8" stroke="black" d="M805.5,-216C805.5,-216 747.5,-216 747.5,-216 741.5,-216 735.5,-210 735.5,-204 735.5,-204 735.5,-192 735.5,-192 735.5,-186 741.5,-180 747.5,-180 747.5,-180 805.5,-180 805.5,-180 811.5,-180 817.5,-186 817.5,-192 817.5,-192 817.5,-204 817.5,-204 817.5,-210 811.5,-216 805.5,-216"/>
<text text-anchor="middle" x="776.5" y="-195.2" font-family="Helvetica" font-size="11.00">Disconnect</text>
</g>
<!-- n9 -->
<g id="node18" class="node">
<title>n9</title>
<path fill="#e8f4f8" stroke="black" d="M991,-170C991,-170 890,-170 890,-170 884,-170 878,-164 878,-158 878,-158 878,-146 878,-146 878,-140 884,-134 890,-134 890,-134 991,-134 991,-134 997,-134 1003,-140 1003,-146 1003,-146 1003,-158 1003,-158 1003,-164 997,-170 991,-170"/>
<text text-anchor="middle" x="940.5" y="-149.2" font-family="Helvetica" font-size="11.00">Release Connection</text>
</g>
<!-- n11&#45;&gt;n9 -->
<g id="edge11" class="edge">
<title>n11&#45;&gt;n9</title>
<path fill="none" stroke="#555555" d="M817.54,-186.63C832.74,-182.31 850.54,-177.26 867.78,-172.36"/>
<polygon fill="#555555" stroke="#555555" points="869.18,-175.61 877.84,-169.51 867.26,-168.87 869.18,-175.61"/>
</g>
<!-- n12 -->
<g id="node5" class="node">
<title>n12</title>
<path fill="#ffcdd2" stroke="black" d="M1180,-179C1180,-179 1073,-179 1073,-179 1067,-179 1061,-173 1061,-167 1061,-167 1061,-155 1061,-155 1061,-149 1067,-143 1073,-143 1073,-143 1180,-143 1180,-143 1186,-143 1192,-149 1192,-155 1192,-155 1192,-167 1192,-167 1192,-173 1186,-179 1180,-179"/>
<text text-anchor="middle" x="1126.5" y="-158.2" font-family="Helvetica" font-size="11.00">Communication Error</text>
</g>
<!-- n13 -->
<g id="node6" class="node">
<title>n13</title>
<path fill="#c8e6c9" stroke="black" d="M42,-255C42,-255 12,-255 12,-255 6,-255 0,-249 0,-243 0,-243 0,-231 0,-231 0,-225 6,-219 12,-219 12,-219 42,-219 42,-219 48,-219 54,-225 54,-231 54,-231 54,-243 54,-243 54,-249 48,-255 42,-255"/>
<text text-anchor="middle" x="27" y="-234.2" font-family="Helvetica" font-size="11.00">Start</text>
</g>
<!-- n14 -->
<g id="node7" class="node">
<title>n14</title>
<path fill="#e8f4f8" stroke="black" d="M165,-255C165,-255 124,-255 124,-255 118,-255 112,-249 112,-243 112,-243 112,-231 112,-231 112,-225 118,-219 124,-219 124,-219 165,-219 165,-219 171,-219 177,-225 177,-231 177,-231 177,-243 177,-243 177,-249 171,-255 165,-255"/>
<text text-anchor="middle" x="144.5" y="-234.2" font-family="Helvetica" font-size="11.00">getURL</text>
</g>
<!-- n13&#45;&gt;n14 -->
<g id="edge15" class="edge">
<title>n13&#45;&gt;n14</title>
<path fill="none" stroke="#555555" d="M54.21,-237C68.19,-237 85.72,-237 101.54,-237"/>
<polygon fill="#555555" stroke="#555555" points="101.63,-240.5 111.63,-237 101.63,-233.5 101.63,-240.5"/>
</g>
<!-- n15 -->
<g id="node8" class="node">
<title>n15</title>
<path fill="#e8f4f8" stroke="black" d="M314,-255C314,-255 247,-255 247,-255 241,-255 235,-249 235,-243 235,-243 235,-231 235,-231 235,-225 241,-219 247,-219 247,-219 314,-219 314,-219 320,-219 326,-225 326,-231 326,-231 326,-243 326,-243 326,-249 320,-255 314,-255"/>
<text text-anchor="middle" x="280.5" y="-234.2" font-family="Helvetica" font-size="11.00">CSAuditStart</text>
</g>
<!-- n14&#45;&gt;n15 -->
<g id="edge16" class="edge">
<title>n14&#45;&gt;n15</title>
<path fill="none" stroke="#555555" d="M177.26,-237C191.35,-237 208.35,-237 224.41,-237"/>
<polygon fill="#555555" stroke="#555555" points="224.79,-240.5 234.79,-237 224.79,-233.5 224.79,-240.5"/>
</g>
<!-- n3 -->
<g id="node12" class="node">
<title>n3</title>
<path fill="#e8f4f8" stroke="black" d="M469,-255C469,-255 396,-255 396,-255 390,-255 384,-249 384,-243 384,-243 384,-231 384,-231 384,-225 390,-219 396,-219 396,-219 469,-219 469,-219 475,-219 481,-225 481,-231 481,-231 481,-243 481,-243 481,-249 475,-255 469,-255"/>
<text text-anchor="middle" x="432.5" y="-234.2" font-family="Helvetica" font-size="11.00">Send Request</text>
</g>
<!-- n15&#45;&gt;n3 -->
<g id="edge17" class="edge">
<title>n15&#45;&gt;n3</title>
<path fill="none" stroke="#555555" d="M326.1,-237C341.05,-237 357.93,-237 373.74,-237"/>
<polygon fill="#555555" stroke="#555555" points="373.94,-240.5 383.94,-237 373.94,-233.5 373.94,-240.5"/>
</g>
<!-- n16 -->
<g id="node9" class="node">
<title>n16</title>
<path fill="#e8f4f8" stroke="black" d="M1598,-202C1598,-202 1568,-202 1568,-202 1562,-202 1556,-196 1556,-190 1556,-190 1556,-178 1556,-178 1556,-172 1562,-166 1568,-166 1568,-166 1598,-166 1598,-166 1604,-166 1610,-172 1610,-178 1610,-178 1610,-190 1610,-190 1610,-196 1604,-202 1598,-202"/>
<text text-anchor="middle" x="1583" y="-181.2" font-family="Helvetica" font-size="11.00">Null</text>
</g>
<!-- n16&#45;&gt;n1 -->
<g id="edge20" class="edge">
<title>n16&#45;&gt;n1</title>
<path fill="none" stroke="#555555" d="M1610.03,-189.44C1644.44,-196.64 1705.24,-209.36 1744.03,-217.48"/>
<polygon fill="#555555" stroke="#555555" points="1743.36,-220.91 1753.87,-219.53 1744.79,-214.06 1743.36,-220.91"/>
</g>
<!-- n2 -->
<g id="node11" class="node">
<title>n2</title>
<path fill="#e8f4f8" stroke="black" d="M1157,-100C1157,-100 1096,-100 1096,-100 1090,-100 1084,-94 1084,-88 1084,-88 1084,-76 1084,-76 1084,-70 1090,-64 1096,-64 1096,-64 1157,-64 1157,-64 1163,-64 1169,-70 1169,-76 1169,-76 1169,-88 1169,-88 1169,-94 1163,-100 1157,-100"/>
<text text-anchor="middle" x="1126.5" y="-79.2" font-family="Helvetica" font-size="11.00">GetVariable</text>
</g>
<!-- n2&#45;&gt;n0 -->
<g id="edge2" class="edge">
<title>n2&#45;&gt;n0</title>
<path fill="none" stroke="#555555" d="M1169.46,-82C1194.12,-82 1226.03,-82 1254.9,-82"/>
<polygon fill="#555555" stroke="#555555" points="1254.97,-85.5 1264.97,-82 1254.97,-78.5 1254.97,-85.5"/>
</g>
<!-- n4 -->
<g id="node13" class="node">
<title>n4</title>
<path fill="#e8f4f8" stroke="black" d="M663,-295C663,-295 551,-295 551,-295 545,-295 539,-289 539,-283 539,-283 539,-271 539,-271 539,-265 545,-259 551,-259 551,-259 663,-259 663,-259 669,-259 675,-265 675,-271 675,-271 675,-283 675,-283 675,-289 669,-295 663,-295"/>
<text text-anchor="middle" x="607" y="-274.2" font-family="Helvetica" font-size="11.00">Release&#45;Connection&#45;1</text>
</g>
<!-- n3&#45;&gt;n4 -->
<g id="edge3" class="edge">
<title>n3&#45;&gt;n4</title>
<path fill="none" stroke="#555555" d="M481.09,-248.04C495.88,-251.46 512.57,-255.33 528.83,-259.1"/>
<polygon fill="#555555" stroke="#555555" points="528.34,-262.58 538.87,-261.43 529.92,-255.77 528.34,-262.58"/>
</g>
<!-- n5 -->
<g id="node14" class="node">
<title>n5</title>
<path fill="#e8f4f8" stroke="black" d="M632.5,-216C632.5,-216 581.5,-216 581.5,-216 575.5,-216 569.5,-210 569.5,-204 569.5,-204 569.5,-192 569.5,-192 569.5,-186 575.5,-180 581.5,-180 581.5,-180 632.5,-180 632.5,-180 638.5,-180 644.5,-186 644.5,-192 644.5,-192 644.5,-204 644.5,-204 644.5,-210 638.5,-216 632.5,-216"/>
<text text-anchor="middle" x="607" y="-195.2" font-family="Helvetica" font-size="11.00">Map Data</text>
</g>
<!-- n3&#45;&gt;n5 -->
<g id="edge4" class="edge">
<title>n3&#45;&gt;n5</title>
<path fill="none" stroke="#555555" d="M481.09,-226.24C505.44,-220.74 534.96,-214.06 559.2,-208.58"/>
<polygon fill="#555555" stroke="#555555" points="560.24,-211.93 569.23,-206.31 558.7,-205.11 560.24,-211.93"/>
</g>
<!-- n4&#45;&gt;n10 -->
<g id="edge10" class="edge">
<title>n4&#45;&gt;n10</title>
<path fill="none" stroke="#555555" d="M675.16,-277C690.99,-277 707.64,-277 722.72,-277"/>
<polygon fill="#555555" stroke="#555555" points="722.89,-280.5 732.89,-277 722.89,-273.5 722.89,-280.5"/>
</g>
<!-- n5&#45;&gt;n11 -->
<g id="edge13" class="edge">
<title>n5&#45;&gt;n11</title>
<path fill="none" stroke="#555555" d="M644.76,-198C668.39,-198 699.41,-198 725.3,-198"/>
<polygon fill="#555555" stroke="#555555" points="725.31,-201.5 735.31,-198 725.31,-194.5 725.31,-201.5"/>
</g>
<!-- n5&#45;&gt;n9 -->
<g id="edge14" class="edge">
<title>n5&#45;&gt;n9</title>
<path fill="none" stroke="#555555" d="M644.51,-183.32C669.09,-174.19 702.46,-163.22 733,-158 777.23,-150.44 827.55,-148.83 867.44,-149.17"/>
<polygon fill="#555555" stroke="#555555" points="867.57,-152.67 877.61,-149.3 867.66,-145.67 867.57,-152.67"/>
</g>
<!-- n6 -->
<g id="node15" class="node">
<title>n6</title>
<path fill="#e8f4f8" stroke="black" d="M1162,-287C1162,-287 1091,-287 1091,-287 1085,-287 1079,-281 1079,-275 1079,-275 1079,-263 1079,-263 1079,-257 1085,-251 1091,-251 1091,-251 1162,-251 1162,-251 1168,-251 1174,-257 1174,-263 1174,-263 1174,-275 1174,-275 1174,-281 1168,-287 1162,-287"/>
<text text-anchor="middle" x="1126.5" y="-266.2" font-family="Helvetica" font-size="11.00">GetVariable&#45;1</text>
</g>
<!-- n7 -->
<g id="node16" class="node">
<title>n7</title>
<path fill="#ffccbc" stroke="black" d="M1400,-285C1400,-285 1262,-285 1262,-285 1256,-285 1250,-279 1250,-273 1250,-273 1250,-261 1250,-261 1250,-255 1256,-249 1262,-249 1262,-249 1400,-249 1400,-249 1406,-249 1412,-255 1412,-261 1412,-261 1412,-273 1412,-273 1412,-279 1406,-285 1400,-285"/>
<text text-anchor="middle" x="1331" y="-264.2" font-family="Helvetica" font-size="11.00">RenderBackEndError&#45;Reply</text>
</g>
<!-- n6&#45;&gt;n7 -->
<g id="edge5" class="edge">
<title>n6&#45;&gt;n7</title>
<path fill="none" stroke="#555555" d="M1174.21,-268.54C1193.66,-268.35 1216.93,-268.12 1239.49,-267.89"/>
<polygon fill="#555555" stroke="#555555" points="1239.82,-271.39 1249.78,-267.79 1239.75,-264.39 1239.82,-271.39"/>
</g>
<!-- n7&#45;&gt;n1 -->
<g id="edge8" class="edge">
<title>n7&#45;&gt;n1</title>
<path fill="none" stroke="#555555" d="M1412.09,-259.49C1510,-250.31 1671.53,-235.17 1743.47,-228.42"/>
<polygon fill="#555555" stroke="#555555" points="1744.19,-231.87 1753.82,-227.45 1743.54,-224.9 1744.19,-231.87"/>
</g>
<!-- n7&#45;&gt;n16 -->
<g id="edge19" class="edge">
<title>n7&#45;&gt;n16</title>
<path fill="none" stroke="#555555" d="M1386.25,-248.99C1434.77,-232.88 1504.51,-209.73 1546.33,-195.84"/>
<polygon fill="#555555" stroke="#555555" points="1547.43,-199.16 1555.82,-192.69 1545.23,-192.52 1547.43,-199.16"/>
</g>
<!-- n8&#45;&gt;n1 -->
<g id="edge7" class="edge">
<title>n8&#45;&gt;n1</title>
<path fill="none" stroke="#555555" d="M982.2,-290.3C1005.08,-297.08 1034.32,-304.6 1061,-308 1118.75,-315.37 1133.78,-308.26 1192,-308 1416.45,-306.98 1483.33,-347.76 1696,-276 1714.38,-269.8 1733,-259.05 1748.02,-249.01"/>
<polygon fill="#555555" stroke="#555555" points="1750.17,-251.78 1756.42,-243.22 1746.2,-246.01 1750.17,-251.78"/>
</g>
<!-- n8&#45;&gt;n6 -->
<g id="edge6" class="edge">
<title>n8&#45;&gt;n6</title>
<path fill="none" stroke="#555555" d="M982.34,-275.22C1007.8,-274.12 1040.92,-272.68 1068.89,-271.46"/>
<polygon fill="#555555" stroke="#555555" points="1069.1,-274.96 1078.94,-271.02 1068.8,-267.96 1069.1,-274.96"/>
</g>
<!-- n9&#45;&gt;n12 -->
<g id="edge12" class="edge">
<title>n9&#45;&gt;n12</title>
<path fill="none" stroke="#555555" d="M1003.03,-155.01C1018.28,-155.76 1034.79,-156.56 1050.61,-157.34"/>
<polygon fill="#555555" stroke="#555555" points="1050.72,-160.85 1060.88,-157.84 1051.07,-153.85 1050.72,-160.85"/>
</g>
<!-- n9&#45;&gt;n2 -->
<g id="edge9" class="edge">
<title>n9&#45;&gt;n2</title>
<path fill="none" stroke="#555555" d="M988.88,-133.97C1015.06,-124.02 1047.59,-111.64 1074.34,-101.46"/>
<polygon fill="#555555" stroke="#555555" points="1075.81,-104.65 1083.91,-97.82 1073.32,-98.11 1075.81,-104.65"/>
</g>
</g>
</svg>
