<?xml version="1.0" encoding="UTF-8" standalone="no"?>
<!DOCTYPE svg PUBLIC "-//W3C//DTD SVG 1.1//EN"
 "http://www.w3.org/Graphics/SVG/1.1/DTD/svg11.dtd">
<!-- Generated by graphviz version 2.44.0 (0)
 -->
<!-- Title: process Pages: 1 -->
<svg width="1145pt" height="231pt"
 viewBox="0.00 0.00 1145.00 231.00" xmlns="http://www.w3.org/2000/svg" xmlns:xlink="http://www.w3.org/1999/xlink">
<g id="graph0" class="graph" transform="scale(1 1) rotate(0) translate(36 195)">
<title>process</title>
<polygon fill="#ffffff" stroke="transparent" points="-36,36 -36,-195 1109,-195 1109,36 -36,36"/>
<!-- n0 -->
<g id="node1" class="node">
<title>n0</title>
<path fill="#c8e6c9" stroke="black" d="M42,-119C42,-119 12,-119 12,-119 6,-119 0,-113 0,-107 0,-107 0,-95 0,-95 0,-89 6,-83 12,-83 12,-83 42,-83 42,-83 48,-83 54,-89 54,-95 54,-95 54,-107 54,-107 54,-113 48,-119 42,-119"/>
<text text-anchor="middle" x="27" y="-98.2" font-family="Helvetica" font-size="11.00">Start</text>
</g>
<!-- n1 -->
<g id="node2" class="node">
<title>n1</title>
<path fill="#e8f4f8" stroke="black" d="M176,-119C176,-119 124,-119 124,-119 118,-119 112,-113 112,-107 112,-107 112,-95 112,-95 112,-89 118,-83 124,-83 124,-83 176,-83 176,-83 182,-83 188,-89 188,-95 188,-95 188,-107 188,-107 188,-113 182,-119 176,-119"/>
<text text-anchor="middle" x="150" y="-98.2" font-family="Helvetica" font-size="11.00">GetResult</text>
</g>
<!-- n0&#45;&gt;n1 -->
<g id="edge1" class="edge">
<title>n0&#45;&gt;n1</title>
<path fill="none" stroke="#555555" d="M54.26,-101C68.05,-101 85.39,-101 101.46,-101"/>
<polygon fill="#555555" stroke="#555555" points="101.78,-104.5 111.78,-101 101.78,-97.5 101.78,-104.5"/>
</g>
<!-- n2 -->
<g id="node3" class="node">
<title>n2</title>
<path fill="#e8f4f8" stroke="black" d="M332,-159C332,-159 258,-159 258,-159 252,-159 246,-153 246,-147 246,-147 246,-135 246,-135 246,-129 252,-123 258,-123 258,-123 332,-123 332,-123 338,-123 344,-129 344,-135 344,-135 344,-147 344,-147 344,-153 338,-159 332,-159"/>
<text text-anchor="middle" x="295" y="-138.2" font-family="Helvetica" font-size="11.00">ConstructXML</text>
</g>
<!-- n1&#45;&gt;n2 -->
<g id="edge2" class="edge">
<title>n1&#45;&gt;n2</title>
<path fill="none" stroke="#555555" d="M188.2,-111.41C202.8,-115.49 219.89,-120.27 236.03,-124.79"/>
<polygon fill="#555555" stroke="#555555" points="235.36,-128.23 245.93,-127.55 237.24,-121.49 235.36,-128.23"/>
</g>
<!-- n3 -->
<g id="node4" class="node">
<title>n3</title>
<path fill="#e8f4f8" stroke="black" d="M310,-80C310,-80 280,-80 280,-80 274,-80 268,-74 268,-68 268,-68 268,-56 268,-56 268,-50 274,-44 280,-44 280,-44 310,-44 310,-44 316,-44 322,-50 322,-56 322,-56 322,-68 322,-68 322,-74 316,-80 310,-80"/>
<text text-anchor="middle" x="295" y="-59.2" font-family="Helvetica" font-size="11.00">Null</text>
</g>
<!-- n1&#45;&gt;n3 -->
<g id="edge3" class="edge">
<title>n1&#45;&gt;n3</title>
<path fill="none" stroke="#555555" d="M188.2,-90.86C209.77,-84.97 236.81,-77.6 258.15,-71.78"/>
<polygon fill="#555555" stroke="#555555" points="259.09,-75.15 267.82,-69.14 257.25,-68.4 259.09,-75.15"/>
</g>
<!-- n9 -->
<g id="node10" class="node">
<title>n9</title>
<path fill="#e8f4f8" stroke="black" d="M479,-159C479,-159 421,-159 421,-159 415,-159 409,-153 409,-147 409,-147 409,-135 409,-135 409,-129 415,-123 421,-123 421,-123 479,-123 479,-123 485,-123 491,-129 491,-135 491,-135 491,-147 491,-147 491,-153 485,-159 479,-159"/>
<text text-anchor="middle" x="450" y="-138.2" font-family="Helvetica" font-size="11.00">Parse XML</text>
</g>
<!-- n2&#45;&gt;n9 -->
<g id="edge10" class="edge">
<title>n2&#45;&gt;n9</title>
<path fill="none" stroke="#555555" d="M344.41,-141C361.52,-141 380.81,-141 398.12,-141"/>
<polygon fill="#555555" stroke="#555555" points="398.6,-144.5 408.6,-141 398.6,-137.5 398.6,-144.5"/>
</g>
<!-- n4 -->
<g id="node5" class="node">
<title>n4</title>
<path fill="#e8f4f8" stroke="black" d="M486,-80C486,-80 414,-80 414,-80 408,-80 402,-74 402,-68 402,-68 402,-56 402,-56 402,-50 408,-44 414,-44 414,-44 486,-44 486,-44 492,-44 498,-50 498,-56 498,-56 498,-68 498,-68 498,-74 492,-80 486,-80"/>
<text text-anchor="middle" x="450" y="-59.2" font-family="Helvetica" font-size="11.00">NoDataFound</text>
</g>
<!-- n3&#45;&gt;n4 -->
<g id="edge4" class="edge">
<title>n3&#45;&gt;n4</title>
<path fill="none" stroke="#555555" d="M322.3,-62C341.37,-62 367.88,-62 391.72,-62"/>
<polygon fill="#555555" stroke="#555555" points="391.75,-65.5 401.75,-62 391.75,-58.5 391.75,-65.5"/>
</g>
<!-- n5 -->
<g id="node6" class="node">
<title>n5</title>
<path fill="#e8f4f8" stroke="black" d="M706,-36C706,-36 614,-36 614,-36 608,-36 602,-30 602,-24 602,-24 602,-12 602,-12 602,-6 608,0 614,0 614,0 706,0 706,0 712,0 718,-6 718,-12 718,-12 718,-24 718,-24 718,-30 712,-36 706,-36"/>
<text text-anchor="middle" x="660" y="-15.2" font-family="Helvetica" font-size="11.00">ProcessCURError</text>
</g>
<!-- n3&#45;&gt;n5 -->
<g id="edge5" class="edge">
<title>n3&#45;&gt;n5</title>
<path fill="none" stroke="#555555" d="M322.31,-49.52C343.34,-40.23 373.86,-28.29 402,-23 465.52,-11.05 539.44,-11.02 591.65,-13.25"/>
<polygon fill="#555555" stroke="#555555" points="591.64,-16.75 601.79,-13.72 591.96,-9.76 591.64,-16.75"/>
</g>
<!-- n6 -->
<g id="node7" class="node">
<title>n6</title>
<path fill="#ffccbc" stroke="black" d="M1061,-97C1061,-97 1031,-97 1031,-97 1025,-97 1019,-91 1019,-85 1019,-85 1019,-73 1019,-73 1019,-67 1025,-61 1031,-61 1031,-61 1061,-61 1061,-61 1067,-61 1073,-67 1073,-73 1073,-73 1073,-85 1073,-85 1073,-91 1067,-97 1061,-97"/>
<text text-anchor="middle" x="1046" y="-76.2" font-family="Helvetica" font-size="11.00">End</text>
</g>
<!-- n5&#45;&gt;n6 -->
<g id="edge6" class="edge">
<title>n5&#45;&gt;n6</title>
<path fill="none" stroke="#555555" d="M718.07,-27.07C798.19,-39.79 941.7,-62.59 1008.69,-73.23"/>
<polygon fill="#555555" stroke="#555555" points="1008.34,-76.72 1018.76,-74.83 1009.44,-69.81 1008.34,-76.72"/>
</g>
<!-- n7 -->
<g id="node8" class="node">
<title>n7</title>
<path fill="#e8f4f8" stroke="black" d="M949,-149C949,-149 834,-149 834,-149 828,-149 822,-143 822,-137 822,-137 822,-125 822,-125 822,-119 828,-113 834,-113 834,-113 949,-113 949,-113 955,-113 961,-119 961,-125 961,-125 961,-137 961,-137 961,-143 955,-149 949,-149"/>
<text text-anchor="middle" x="891.5" y="-128.2" font-family="Helvetica" font-size="11.00">DecryptFields&#45;Blowfish</text>
</g>
<!-- n7&#45;&gt;n6 -->
<g id="edge7" class="edge">
<title>n7&#45;&gt;n6</title>
<path fill="none" stroke="#555555" d="M945.41,-112.96C966.51,-105.76 990.24,-97.67 1009.25,-91.19"/>
<polygon fill="#555555" stroke="#555555" points="1010.38,-94.5 1018.72,-87.96 1008.12,-87.88 1010.38,-94.5"/>
</g>
<!-- n8 -->
<g id="node9" class="node">
<title>n8</title>
<path fill="#e8f4f8" stroke="black" d="M752,-154C752,-154 568,-154 568,-154 562,-154 556,-148 556,-142 556,-142 556,-130 556,-130 556,-124 562,-118 568,-118 568,-118 752,-118 752,-118 758,-118 764,-124 764,-130 764,-130 764,-142 764,-142 764,-148 758,-154 752,-154"/>
<text text-anchor="middle" x="660" y="-133.2" font-family="Helvetica" font-size="11.00">indexOfSubscribersWithSIPPassword</text>
</g>
<!-- n8&#45;&gt;n7 -->
<g id="edge8" class="edge">
<title>n8&#45;&gt;n7</title>
<path fill="none" stroke="#555555" d="M764,-133.76C779.88,-133.41 796.06,-133.06 811.31,-132.73"/>
<polygon fill="#555555" stroke="#555555" points="811.79,-136.22 821.71,-132.5 811.63,-129.22 811.79,-136.22"/>
</g>
<!-- n9&#45;&gt;n8 -->
<g id="edge9" class="edge">
<title>n9&#45;&gt;n8</title>
<path fill="none" stroke="#555555" d="M491.1,-140.04C506.99,-139.65 526.12,-139.19 545.69,-138.72"/>
<polygon fill="#555555" stroke="#555555" points="546.04,-142.22 555.95,-138.48 545.87,-135.22 546.04,-142.22"/>
</g>
</g>
</svg>
