<?xml version="1.0" encoding="UTF-8" standalone="no"?>
<!DOCTYPE svg PUBLIC "-//W3C//DTD SVG 1.1//EN"
 "http://www.w3.org/Graphics/SVG/1.1/DTD/svg11.dtd">
<!-- Generated by graphviz version 2.44.0 (0)
 -->
<!-- Title: process Pages: 1 -->
<svg width="693pt" height="149pt"
 viewBox="0.00 0.00 693.00 149.00" xmlns="http://www.w3.org/2000/svg" xmlns:xlink="http://www.w3.org/1999/xlink">
<g id="graph0" class="graph" transform="scale(1 1) rotate(0) translate(36 113)">
<title>process</title>
<polygon fill="#ffffff" stroke="transparent" points="-36,36 -36,-113 657,-113 657,36 -36,36"/>
<!-- n0 -->
<g id="node1" class="node">
<title>n0</title>
<path fill="#e8f4f8" stroke="black" d="M64,-77C64,-77 12,-77 12,-77 6,-77 0,-71 0,-65 0,-65 0,-53 0,-53 0,-47 6,-41 12,-41 12,-41 64,-41 64,-41 70,-41 76,-47 76,-53 76,-53 76,-65 76,-65 76,-71 70,-77 64,-77"/>
<text text-anchor="middle" x="38" y="-56.2" font-family="Helvetica" font-size="11.00">onStartup</text>
</g>
<!-- n1 -->
<g id="node2" class="node">
<title>n1</title>
<path fill="#e8f4f8" stroke="black" d="M308,-77C308,-77 146,-77 146,-77 140,-77 134,-71 134,-65 134,-65 134,-53 134,-53 134,-47 140,-41 146,-41 146,-41 308,-41 308,-41 314,-41 320,-47 320,-53 320,-53 320,-65 320,-65 320,-71 314,-77 308,-77"/>
<text text-anchor="middle" x="227" y="-56.2" font-family="Helvetica" font-size="11.00">LoadUOMCodesForResourceIds</text>
</g>
<!-- n0&#45;&gt;n1 -->
<g id="edge1" class="edge">
<title>n0&#45;&gt;n1</title>
<path fill="none" stroke="#555555" d="M76.39,-59C90.16,-59 106.51,-59 123.25,-59"/>
<polygon fill="#555555" stroke="#555555" points="123.71,-62.5 133.71,-59 123.71,-55.5 123.71,-62.5"/>
</g>
<!-- n2 -->
<g id="node3" class="node">
<title>n2</title>
<path fill="#ffccbc" stroke="black" d="M609,-77C609,-77 579,-77 579,-77 573,-77 567,-71 567,-65 567,-65 567,-53 567,-53 567,-47 573,-41 579,-41 579,-41 609,-41 609,-41 615,-41 621,-47 621,-53 621,-53 621,-65 621,-65 621,-71 615,-77 609,-77"/>
<text text-anchor="middle" x="594" y="-56.2" font-family="Helvetica" font-size="11.00">End</text>
</g>
<!-- n1&#45;&gt;n2 -->
<g id="edge2" class="edge">
<title>n1&#45;&gt;n2</title>
<path fill="none" stroke="#555555" d="M320.1,-59C396.73,-59 501.79,-59 556.51,-59"/>
<polygon fill="#555555" stroke="#555555" points="556.76,-62.5 566.76,-59 556.76,-55.5 556.76,-62.5"/>
</g>
<!-- n3 -->
<g id="node4" class="node">
<title>n3</title>
<path fill="#e8f4f8" stroke="black" d="M497,-36C497,-36 390,-36 390,-36 384,-36 378,-30 378,-24 378,-24 378,-12 378,-12 378,-6 384,0 390,0 390,0 497,0 497,0 503,0 509,-6 509,-12 509,-12 509,-24 509,-24 509,-30 503,-36 497,-36"/>
<text text-anchor="middle" x="443.5" y="-15.2" font-family="Helvetica" font-size="11.00">Shutdown BWEngine</text>
</g>
<!-- n1&#45;&gt;n3 -->
<g id="edge3" class="edge">
<title>n1&#45;&gt;n3</title>
<path fill="none" stroke="#555555" d="M320.21,-41.37C336.14,-38.33 352.52,-35.2 367.91,-32.26"/>
<polygon fill="#555555" stroke="#555555" points="368.7,-35.67 377.86,-30.36 367.38,-28.79 368.7,-35.67"/>
</g>
<!-- n3&#45;&gt;n2 -->
<g id="edge4" class="edge">
<title>n3&#45;&gt;n2</title>
<path fill="none" stroke="#555555" d="M509.2,-35.86C525.55,-40.38 542.54,-45.07 556.9,-49.03"/>
<polygon fill="#555555" stroke="#555555" points="556.28,-52.49 566.85,-51.78 558.14,-45.75 556.28,-52.49"/>
</g>
</g>
</svg>
