<?xml version="1.0" encoding="UTF-8" standalone="no"?>
<!DOCTYPE svg PUBLIC "-//W3C//DTD SVG 1.1//EN"
 "http://www.w3.org/Graphics/SVG/1.1/DTD/svg11.dtd">
<!-- Generated by graphviz version 2.44.0 (0)
 -->
<!-- Title: process Pages: 1 -->
<svg width="743pt" height="108pt"
 viewBox="0.00 0.00 743.00 108.00" xmlns="http://www.w3.org/2000/svg" xmlns:xlink="http://www.w3.org/1999/xlink">
<g id="graph0" class="graph" transform="scale(1 1) rotate(0) translate(36 72)">
<title>process</title>
<polygon fill="#ffffff" stroke="transparent" points="-36,36 -36,-72 707,-72 707,36 -36,36"/>
<!-- n0 -->
<g id="node1" class="node">
<title>n0</title>
<path fill="#c8e6c9" stroke="black" d="M42,-36C42,-36 12,-36 12,-36 6,-36 0,-30 0,-24 0,-24 0,-12 0,-12 0,-6 6,0 12,0 12,0 42,0 42,0 48,0 54,-6 54,-12 54,-12 54,-24 54,-24 54,-30 48,-36 42,-36"/>
<text text-anchor="middle" x="27" y="-15.2" font-family="Helvetica" font-size="11.00">Start</text>
</g>
<!-- n1 -->
<g id="node2" class="node">
<title>n1</title>
<path fill="#e8f4f8" stroke="black" d="M185,-36C185,-36 124,-36 124,-36 118,-36 112,-30 112,-24 112,-24 112,-12 112,-12 112,-6 118,0 124,0 124,0 185,0 185,0 191,0 197,-6 197,-12 197,-12 197,-24 197,-24 197,-30 191,-36 185,-36"/>
<text text-anchor="middle" x="154.5" y="-15.2" font-family="Helvetica" font-size="11.00">GetVariable</text>
</g>
<!-- n0&#45;&gt;n1 -->
<g id="edge1" class="edge">
<title>n0&#45;&gt;n1</title>
<path fill="none" stroke="#555555" d="M54,-18C67.8,-18 85.25,-18 101.67,-18"/>
<polygon fill="#555555" stroke="#555555" points="101.72,-21.5 111.72,-18 101.72,-14.5 101.72,-21.5"/>
</g>
<!-- n4 -->
<g id="node5" class="node">
<title>n4</title>
<path fill="#e8f4f8" stroke="black" d="M356,-36C356,-36 267,-36 267,-36 261,-36 255,-30 255,-24 255,-24 255,-12 255,-12 255,-6 261,0 267,0 267,0 356,0 356,0 362,0 368,-6 368,-12 368,-12 368,-24 368,-24 368,-30 362,-36 356,-36"/>
<text text-anchor="middle" x="311.5" y="-15.2" font-family="Helvetica" font-size="11.00">ExceptionCatcher</text>
</g>
<!-- n1&#45;&gt;n4 -->
<g id="edge4" class="edge">
<title>n1&#45;&gt;n4</title>
<path fill="none" stroke="#555555" d="M197.04,-18C211.6,-18 228.34,-18 244.42,-18"/>
<polygon fill="#555555" stroke="#555555" points="244.85,-21.5 254.85,-18 244.85,-14.5 244.85,-21.5"/>
</g>
<!-- n2 -->
<g id="node3" class="node">
<title>n2</title>
<path fill="#e8f4f8" stroke="black" d="M547,-36C547,-36 438,-36 438,-36 432,-36 426,-30 426,-24 426,-24 426,-12 426,-12 426,-6 432,0 438,0 438,0 547,0 547,0 553,0 559,-6 559,-12 559,-12 559,-24 559,-24 559,-30 553,-36 547,-36"/>
<text text-anchor="middle" x="492.5" y="-15.2" font-family="Helvetica" font-size="11.00">CreditControlRequest</text>
</g>
<!-- n3 -->
<g id="node4" class="node">
<title>n3</title>
<path fill="#ffccbc" stroke="black" d="M659,-36C659,-36 629,-36 629,-36 623,-36 617,-30 617,-24 617,-24 617,-12 617,-12 617,-6 623,0 629,0 629,0 659,0 659,0 665,0 671,-6 671,-12 671,-12 671,-24 671,-24 671,-30 665,-36 659,-36"/>
<text text-anchor="middle" x="644" y="-15.2" font-family="Helvetica" font-size="11.00">End</text>
</g>
<!-- n2&#45;&gt;n3 -->
<g id="edge2" class="edge">
<title>n2&#45;&gt;n3</title>
<path fill="none" stroke="#555555" d="M559.07,-18C575.33,-18 592.17,-18 606.46,-18"/>
<polygon fill="#555555" stroke="#555555" points="606.84,-21.5 616.84,-18 606.84,-14.5 606.84,-21.5"/>
</g>
<!-- n4&#45;&gt;n2 -->
<g id="edge3" class="edge">
<title>n4&#45;&gt;n2</title>
<path fill="none" stroke="#555555" d="M368.16,-18C383.14,-18 399.61,-18 415.5,-18"/>
<polygon fill="#555555" stroke="#555555" points="415.84,-21.5 425.84,-18 415.84,-14.5 415.84,-21.5"/>
</g>
</g>
</svg>
