<?xml version="1.0" encoding="UTF-8" standalone="no"?>
<!DOCTYPE svg PUBLIC "-//W3C//DTD SVG 1.1//EN"
 "http://www.w3.org/Graphics/SVG/1.1/DTD/svg11.dtd">
<!-- Generated by graphviz version 2.44.0 (0)
 -->
<!-- Title: process Pages: 1 -->
<svg width="1086pt" height="226pt"
 viewBox="0.00 0.00 1086.00 226.00" xmlns="http://www.w3.org/2000/svg" xmlns:xlink="http://www.w3.org/1999/xlink">
<g id="graph0" class="graph" transform="scale(1 1) rotate(0) translate(36 190)">
<title>process</title>
<polygon fill="#ffffff" stroke="transparent" points="-36,36 -36,-190 1050,-190 1050,36 -36,36"/>
<!-- n0 -->
<g id="node1" class="node">
<title>n0</title>
<path fill="#c8e6c9" stroke="black" d="M42,-36C42,-36 12,-36 12,-36 6,-36 0,-30 0,-24 0,-24 0,-12 0,-12 0,-6 6,0 12,0 12,0 42,0 42,0 48,0 54,-6 54,-12 54,-12 54,-24 54,-24 54,-30 48,-36 42,-36"/>
<text text-anchor="middle" x="27" y="-15.2" font-family="Helvetica" font-size="11.00">start</text>
</g>
<!-- n1 -->
<g id="node2" class="node">
<title>n1</title>
<path fill="#e8f4f8" stroke="black" d="M237,-36C237,-36 124,-36 124,-36 118,-36 112,-30 112,-24 112,-24 112,-12 112,-12 112,-6 118,0 124,0 124,0 237,0 237,0 243,0 249,-6 249,-12 249,-12 249,-24 249,-24 249,-30 243,-36 237,-36"/>
<text text-anchor="middle" x="180.5" y="-15.2" font-family="Helvetica" font-size="11.00">Get PartnerOperations</text>
</g>
<!-- n0&#45;&gt;n1 -->
<g id="edge1" class="edge">
<title>n0&#45;&gt;n1</title>
<path fill="none" stroke="#555555" d="M54.04,-18C67.41,-18 84.47,-18 101.68,-18"/>
<polygon fill="#555555" stroke="#555555" points="101.8,-21.5 111.8,-18 101.8,-14.5 101.8,-21.5"/>
</g>
<!-- n2 -->
<g id="node6" class="node">
<title>n2</title>
<path fill="#e8f4f8" stroke="black" d="M373,-36C373,-36 342,-36 342,-36 336,-36 330,-30 330,-24 330,-24 330,-12 330,-12 330,-6 336,0 342,0 342,0 373,0 373,0 379,0 385,-6 385,-12 385,-12 385,-24 385,-24 385,-30 379,-36 373,-36"/>
<text text-anchor="middle" x="357.5" y="-15.2" font-family="Helvetica" font-size="11.00">Store</text>
</g>
<!-- n1&#45;&gt;n2 -->
<g id="edge3" class="edge">
<title>n1&#45;&gt;n2</title>
<path fill="none" stroke="#555555" d="M249.16,-18C273.08,-18 299.08,-18 319.5,-18"/>
<polygon fill="#555555" stroke="#555555" points="319.63,-21.5 329.63,-18 319.63,-14.5 319.63,-21.5"/>
</g>
<!-- n10 -->
<g id="node3" class="node">
<title>n10</title>
<path fill="#ffcdd2" stroke="black" d="M1002,-75C1002,-75 925,-75 925,-75 919,-75 913,-69 913,-63 913,-63 913,-51 913,-51 913,-45 919,-39 925,-39 925,-39 1002,-39 1002,-39 1008,-39 1014,-45 1014,-51 1014,-51 1014,-63 1014,-63 1014,-69 1008,-75 1002,-75"/>
<text text-anchor="middle" x="963.5" y="-54.2" font-family="Helvetica" font-size="11.00">Generate Error</text>
</g>
<!-- n11 -->
<g id="node4" class="node">
<title>n11</title>
<path fill="#c8e6c9" stroke="black" d="M396,-115C396,-115 319,-115 319,-115 313,-115 307,-109 307,-103 307,-103 307,-91 307,-91 307,-85 313,-79 319,-79 319,-79 396,-79 396,-79 402,-79 408,-85 408,-91 408,-91 408,-103 408,-103 408,-109 402,-115 396,-115"/>
<text text-anchor="middle" x="357.5" y="-94.2" font-family="Helvetica" font-size="11.00">Start Log Audit</text>
</g>
<!-- n6 -->
<g id="node10" class="node">
<title>n6</title>
<path fill="#ffcdd2" stroke="black" d="M540,-115C540,-115 478,-115 478,-115 472,-115 466,-109 466,-103 466,-103 466,-91 466,-91 466,-85 472,-79 478,-79 478,-79 540,-79 540,-79 546,-79 552,-85 552,-91 552,-91 552,-103 552,-103 552,-109 546,-115 540,-115"/>
<text text-anchor="middle" x="509" y="-94.2" font-family="Helvetica" font-size="11.00">Error Group</text>
</g>
<!-- n11&#45;&gt;n6 -->
<g id="edge10" class="edge">
<title>n11&#45;&gt;n6</title>
<path fill="none" stroke="#555555" d="M408.28,-97C423.46,-97 440.2,-97 455.55,-97"/>
<polygon fill="#555555" stroke="#555555" points="455.93,-100.5 465.93,-97 455.93,-93.5 455.93,-100.5"/>
</g>
<!-- n12 -->
<g id="node5" class="node">
<title>n12</title>
<path fill="#ffccbc" stroke="black" d="M834.5,-154C834.5,-154 804.5,-154 804.5,-154 798.5,-154 792.5,-148 792.5,-142 792.5,-142 792.5,-130 792.5,-130 792.5,-124 798.5,-118 804.5,-118 804.5,-118 834.5,-118 834.5,-118 840.5,-118 846.5,-124 846.5,-130 846.5,-130 846.5,-142 846.5,-142 846.5,-148 840.5,-154 834.5,-154"/>
<text text-anchor="middle" x="819.5" y="-133.2" font-family="Helvetica" font-size="11.00">End</text>
</g>
<!-- n3 -->
<g id="node7" class="node">
<title>n3</title>
<path fill="#ffccbc" stroke="black" d="M524,-36C524,-36 494,-36 494,-36 488,-36 482,-30 482,-24 482,-24 482,-12 482,-12 482,-6 488,0 494,0 494,0 524,0 524,0 530,0 536,-6 536,-12 536,-12 536,-24 536,-24 536,-30 530,-36 524,-36"/>
<text text-anchor="middle" x="509" y="-15.2" font-family="Helvetica" font-size="11.00">end</text>
</g>
<!-- n2&#45;&gt;n3 -->
<g id="edge2" class="edge">
<title>n2&#45;&gt;n3</title>
<path fill="none" stroke="#555555" d="M385.23,-18C409.32,-18 444.97,-18 471.65,-18"/>
<polygon fill="#555555" stroke="#555555" points="471.75,-21.5 481.75,-18 471.75,-14.5 471.75,-21.5"/>
</g>
<!-- n4 -->
<g id="node8" class="node">
<title>n4</title>
<path fill="#c8e6c9" stroke="black" d="M42,-115C42,-115 12,-115 12,-115 6,-115 0,-109 0,-103 0,-103 0,-91 0,-91 0,-85 6,-79 12,-79 12,-79 42,-79 42,-79 48,-79 54,-85 54,-91 54,-91 54,-103 54,-103 54,-109 48,-115 42,-115"/>
<text text-anchor="middle" x="27" y="-94.2" font-family="Helvetica" font-size="11.00">Start</text>
</g>
<!-- n5 -->
<g id="node9" class="node">
<title>n5</title>
<path fill="#ffcdd2" stroke="black" d="M231,-115C231,-115 130,-115 130,-115 124,-115 118,-109 118,-103 118,-103 118,-91 118,-91 118,-85 124,-79 130,-79 130,-79 231,-79 231,-79 237,-79 243,-85 243,-91 243,-91 243,-103 243,-103 243,-109 237,-115 231,-115"/>
<text text-anchor="middle" x="180.5" y="-94.2" font-family="Helvetica" font-size="11.00">Prep Error Handling</text>
</g>
<!-- n4&#45;&gt;n5 -->
<g id="edge4" class="edge">
<title>n4&#45;&gt;n5</title>
<path fill="none" stroke="#555555" d="M54.04,-97C69.03,-97 88.66,-97 107.93,-97"/>
<polygon fill="#555555" stroke="#555555" points="107.95,-100.5 117.95,-97 107.95,-93.5 107.95,-100.5"/>
</g>
<!-- n5&#45;&gt;n11 -->
<g id="edge9" class="edge">
<title>n5&#45;&gt;n11</title>
<path fill="none" stroke="#555555" d="M243.2,-97C260.47,-97 279.22,-97 296.41,-97"/>
<polygon fill="#555555" stroke="#555555" points="296.87,-100.5 306.87,-97 296.87,-93.5 296.87,-100.5"/>
</g>
<!-- n7 -->
<g id="node11" class="node">
<title>n7</title>
<path fill="#ffccbc" stroke="black" d="M704.5,-154C704.5,-154 631.5,-154 631.5,-154 625.5,-154 619.5,-148 619.5,-142 619.5,-142 619.5,-130 619.5,-130 619.5,-124 625.5,-118 631.5,-118 631.5,-118 704.5,-118 704.5,-118 710.5,-118 716.5,-124 716.5,-130 716.5,-130 716.5,-142 716.5,-142 716.5,-148 710.5,-154 704.5,-154"/>
<text text-anchor="middle" x="668" y="-133.2" font-family="Helvetica" font-size="11.00">End Audit Log</text>
</g>
<!-- n6&#45;&gt;n7 -->
<g id="edge5" class="edge">
<title>n6&#45;&gt;n7</title>
<path fill="none" stroke="#555555" d="M552.07,-107.45C569.71,-111.83 590.5,-117 609.51,-121.72"/>
<polygon fill="#555555" stroke="#555555" points="608.71,-125.13 619.26,-124.14 610.4,-118.33 608.71,-125.13"/>
</g>
<!-- n8 -->
<g id="node12" class="node">
<title>n8</title>
<path fill="#e8f4f8" stroke="black" d="M714,-75C714,-75 622,-75 622,-75 616,-75 610,-69 610,-63 610,-63 610,-51 610,-51 610,-45 616,-39 622,-39 622,-39 714,-39 714,-39 720,-39 726,-45 726,-51 726,-51 726,-63 726,-63 726,-69 720,-75 714,-75"/>
<text text-anchor="middle" x="668" y="-54.2" font-family="Helvetica" font-size="11.00">MapAnyException</text>
</g>
<!-- n6&#45;&gt;n8 -->
<g id="edge6" class="edge">
<title>n6&#45;&gt;n8</title>
<path fill="none" stroke="#555555" d="M552.07,-86.28C566.74,-82.54 583.59,-78.25 599.78,-74.13"/>
<polygon fill="#555555" stroke="#555555" points="600.93,-77.45 609.76,-71.58 599.2,-70.66 600.93,-77.45"/>
</g>
<!-- n7&#45;&gt;n12 -->
<g id="edge11" class="edge">
<title>n7&#45;&gt;n12</title>
<path fill="none" stroke="#555555" d="M716.71,-136C737.86,-136 762.35,-136 782.01,-136"/>
<polygon fill="#555555" stroke="#555555" points="782.09,-139.5 792.09,-136 782.09,-132.5 782.09,-139.5"/>
</g>
<!-- n9 -->
<g id="node13" class="node">
<title>n9</title>
<path fill="#e8f4f8" stroke="black" d="M843,-75C843,-75 796,-75 796,-75 790,-75 784,-69 784,-63 784,-63 784,-51 784,-51 784,-45 790,-39 796,-39 796,-39 843,-39 843,-39 849,-39 855,-45 855,-51 855,-51 855,-63 855,-63 855,-69 849,-75 843,-75"/>
<text text-anchor="middle" x="819.5" y="-54.2" font-family="Helvetica" font-size="11.00">LogError</text>
</g>
<!-- n8&#45;&gt;n9 -->
<g id="edge7" class="edge">
<title>n8&#45;&gt;n9</title>
<path fill="none" stroke="#555555" d="M726.37,-57C742.01,-57 758.72,-57 773.56,-57"/>
<polygon fill="#555555" stroke="#555555" points="773.99,-60.5 783.99,-57 773.99,-53.5 773.99,-60.5"/>
</g>
<!-- n9&#45;&gt;n10 -->
<g id="edge8" class="edge">
<title>n9&#45;&gt;n10</title>
<path fill="none" stroke="#555555" d="M855.24,-57C869.45,-57 886.31,-57 902.41,-57"/>
<polygon fill="#555555" stroke="#555555" points="902.84,-60.5 912.84,-57 902.84,-53.5 902.84,-60.5"/>
</g>
</g>
</svg>
