<?xml version="1.0" encoding="UTF-8" standalone="no"?>
<!DOCTYPE svg PUBLIC "-//W3C//DTD SVG 1.1//EN"
 "http://www.w3.org/Graphics/SVG/1.1/DTD/svg11.dtd">
<!-- Generated by graphviz version 2.44.0 (0)
 -->
<!-- Title: process Pages: 1 -->
<svg width="412pt" height="108pt"
 viewBox="0.00 0.00 412.00 108.00" xmlns="http://www.w3.org/2000/svg" xmlns:xlink="http://www.w3.org/1999/xlink">
<g id="graph0" class="graph" transform="scale(1 1) rotate(0) translate(36 72)">
<title>process</title>
<polygon fill="#ffffff" stroke="transparent" points="-36,36 -36,-72 376,-72 376,36 -36,36"/>
<!-- n0 -->
<g id="node1" class="node">
<title>n0</title>
<path fill="#c8e6c9" stroke="black" d="M42,-36C42,-36 12,-36 12,-36 6,-36 0,-30 0,-24 0,-24 0,-12 0,-12 0,-6 6,0 12,0 12,0 42,0 42,0 48,0 54,-6 54,-12 54,-12 54,-24 54,-24 54,-30 48,-36 42,-36"/>
<text text-anchor="middle" x="27" y="-15.2" font-family="Helvetica" font-size="11.00">Start</text>
</g>
<!-- n1 -->
<g id="node2" class="node">
<title>n1</title>
<path fill="#e8f4f8" stroke="black" d="M216,-36C216,-36 124,-36 124,-36 118,-36 112,-30 112,-24 112,-24 112,-12 112,-12 112,-6 118,0 124,0 124,0 216,0 216,0 222,0 228,-6 228,-12 228,-12 228,-24 228,-24 228,-30 222,-36 216,-36"/>
<text text-anchor="middle" x="170" y="-15.2" font-family="Helvetica" font-size="11.00">GetProductDetails</text>
</g>
<!-- n0&#45;&gt;n1 -->
<g id="edge1" class="edge">
<title>n0&#45;&gt;n1</title>
<path fill="none" stroke="#555555" d="M54.19,-18C67.64,-18 84.72,-18 101.56,-18"/>
<polygon fill="#555555" stroke="#555555" points="101.98,-21.5 111.98,-18 101.98,-14.5 101.98,-21.5"/>
</g>
<!-- n2 -->
<g id="node3" class="node">
<title>n2</title>
<path fill="#ffccbc" stroke="black" d="M328,-36C328,-36 298,-36 298,-36 292,-36 286,-30 286,-24 286,-24 286,-12 286,-12 286,-6 292,0 298,0 298,0 328,0 328,0 334,0 340,-6 340,-12 340,-12 340,-24 340,-24 340,-30 334,-36 328,-36"/>
<text text-anchor="middle" x="313" y="-15.2" font-family="Helvetica" font-size="11.00">End</text>
</g>
<!-- n1&#45;&gt;n2 -->
<g id="edge2" class="edge">
<title>n1&#45;&gt;n2</title>
<path fill="none" stroke="#555555" d="M228.35,-18C244.42,-18 261.44,-18 275.91,-18"/>
<polygon fill="#555555" stroke="#555555" points="275.93,-21.5 285.93,-18 275.93,-14.5 275.93,-21.5"/>
</g>
</g>
</svg>
