<?xml version="1.0" encoding="UTF-8" standalone="no"?>
<!DOCTYPE svg PUBLIC "-//W3C//DTD SVG 1.1//EN"
 "http://www.w3.org/Graphics/SVG/1.1/DTD/svg11.dtd">
<!-- Generated by graphviz version 2.44.0 (0)
 -->
<!-- Title: process Pages: 1 -->
<svg width="1032pt" height="150pt"
 viewBox="0.00 0.00 1032.00 150.00" xmlns="http://www.w3.org/2000/svg" xmlns:xlink="http://www.w3.org/1999/xlink">
<g id="graph0" class="graph" transform="scale(1 1) rotate(0) translate(36 114)">
<title>process</title>
<polygon fill="#ffffff" stroke="transparent" points="-36,36 -36,-114 996,-114 996,36 -36,36"/>
<!-- n0 -->
<g id="node1" class="node">
<title>n0</title>
<path fill="#e8f4f8" stroke="black" d="M240,-36C240,-36 124,-36 124,-36 118,-36 112,-30 112,-24 112,-24 112,-12 112,-12 112,-6 118,0 124,0 124,0 240,0 240,0 246,0 252,-6 252,-12 252,-12 252,-24 252,-24 252,-30 246,-36 240,-36"/>
<text text-anchor="middle" x="182" y="-15.2" font-family="Helvetica" font-size="11.00">GetAllowedUOMCodes</text>
</g>
<!-- n1 -->
<g id="node2" class="node">
<title>n1</title>
<path fill="#e8f4f8" stroke="black" d="M410,-78C410,-78 322,-78 322,-78 316,-78 310,-72 310,-66 310,-66 310,-54 310,-54 310,-48 316,-42 322,-42 322,-42 410,-42 410,-42 416,-42 422,-48 422,-54 422,-54 422,-66 422,-66 422,-72 416,-78 410,-78"/>
<text text-anchor="middle" x="366" y="-57.2" font-family="Helvetica" font-size="11.00">CallReferenceDB</text>
</g>
<!-- n0&#45;&gt;n1 -->
<g id="edge1" class="edge">
<title>n0&#45;&gt;n1</title>
<path fill="none" stroke="#555555" d="M252.07,-33.94C267.74,-37.56 284.34,-41.39 299.84,-44.96"/>
<polygon fill="#555555" stroke="#555555" points="299.32,-48.43 309.85,-47.27 300.89,-41.61 299.32,-48.43"/>
</g>
<!-- n3 -->
<g id="node4" class="node">
<title>n3</title>
<path fill="#ffccbc" stroke="black" d="M948,-36C948,-36 918,-36 918,-36 912,-36 906,-30 906,-24 906,-24 906,-12 906,-12 906,-6 912,0 918,0 918,0 948,0 948,0 954,0 960,-6 960,-12 960,-12 960,-24 960,-24 960,-30 954,-36 948,-36"/>
<text text-anchor="middle" x="933" y="-15.2" font-family="Helvetica" font-size="11.00">End</text>
</g>
<!-- n0&#45;&gt;n3 -->
<g id="edge3" class="edge">
<title>n0&#45;&gt;n3</title>
<path fill="none" stroke="#555555" d="M252.12,-18C407.17,-18 778.31,-18 895.73,-18"/>
<polygon fill="#555555" stroke="#555555" points="895.97,-21.5 905.97,-18 895.97,-14.5 895.97,-21.5"/>
</g>
<!-- n4 -->
<g id="node5" class="node">
<title>n4</title>
<path fill="#e8f4f8" stroke="black" d="M587,-78C587,-78 492,-78 492,-78 486,-78 480,-72 480,-66 480,-66 480,-54 480,-54 480,-48 486,-42 492,-42 492,-42 587,-42 587,-42 593,-42 599,-48 599,-54 599,-54 599,-66 599,-66 599,-72 593,-78 587,-78"/>
<text text-anchor="middle" x="539.5" y="-57.2" font-family="Helvetica" font-size="11.00">Parse UOM Codes</text>
</g>
<!-- n1&#45;&gt;n4 -->
<g id="edge6" class="edge">
<title>n1&#45;&gt;n4</title>
<path fill="none" stroke="#555555" d="M422.21,-60C437.31,-60 453.86,-60 469.63,-60"/>
<polygon fill="#555555" stroke="#555555" points="469.85,-63.5 479.85,-60 469.85,-56.5 469.85,-63.5"/>
</g>
<!-- n2 -->
<g id="node3" class="node">
<title>n2</title>
<path fill="#c8e6c9" stroke="black" d="M42,-36C42,-36 12,-36 12,-36 6,-36 0,-30 0,-24 0,-24 0,-12 0,-12 0,-6 6,0 12,0 12,0 42,0 42,0 48,0 54,-6 54,-12 54,-12 54,-24 54,-24 54,-30 48,-36 42,-36"/>
<text text-anchor="middle" x="27" y="-15.2" font-family="Helvetica" font-size="11.00">Start</text>
</g>
<!-- n2&#45;&gt;n0 -->
<g id="edge2" class="edge">
<title>n2&#45;&gt;n0</title>
<path fill="none" stroke="#555555" d="M54.3,-18C67.66,-18 84.67,-18 101.86,-18"/>
<polygon fill="#555555" stroke="#555555" points="101.97,-21.5 111.97,-18 101.97,-14.5 101.97,-21.5"/>
</g>
<!-- n5 -->
<g id="node6" class="node">
<title>n5</title>
<path fill="#e8f4f8" stroke="black" d="M836,-78C836,-78 669,-78 669,-78 663,-78 657,-72 657,-66 657,-66 657,-54 657,-54 657,-48 663,-42 669,-42 669,-42 836,-42 836,-42 842,-42 848,-48 848,-54 848,-54 848,-66 848,-66 848,-72 842,-78 836,-78"/>
<text text-anchor="middle" x="752.5" y="-57.2" font-family="Helvetica" font-size="11.00">Set Variable &#45; AllowedUOMCodes</text>
</g>
<!-- n4&#45;&gt;n5 -->
<g id="edge4" class="edge">
<title>n4&#45;&gt;n5</title>
<path fill="none" stroke="#555555" d="M599.28,-60C614.02,-60 630.29,-60 646.54,-60"/>
<polygon fill="#555555" stroke="#555555" points="646.64,-63.5 656.64,-60 646.64,-56.5 646.64,-63.5"/>
</g>
<!-- n5&#45;&gt;n3 -->
<g id="edge5" class="edge">
<title>n5&#45;&gt;n3</title>
<path fill="none" stroke="#555555" d="M830.24,-41.94C853.04,-36.58 876.95,-30.95 895.86,-26.5"/>
<polygon fill="#555555" stroke="#555555" points="896.88,-29.86 905.82,-24.16 895.28,-23.04 896.88,-29.86"/>
</g>
</g>
</svg>
