<?xml version="1.0" encoding="UTF-8" standalone="no"?>
<!DOCTYPE svg PUBLIC "-//W3C//DTD SVG 1.1//EN"
 "http://www.w3.org/Graphics/SVG/1.1/DTD/svg11.dtd">
<!-- Generated by graphviz version 2.44.0 (0)
 -->
<!-- Title: process Pages: 1 -->
<svg width="566pt" height="187pt"
 viewBox="0.00 0.00 566.00 187.00" xmlns="http://www.w3.org/2000/svg" xmlns:xlink="http://www.w3.org/1999/xlink">
<g id="graph0" class="graph" transform="scale(1 1) rotate(0) translate(36 151)">
<title>process</title>
<polygon fill="#ffffff" stroke="transparent" points="-36,36 -36,-151 530,-151 530,36 -36,36"/>
<!-- n0 -->
<g id="node1" class="node">
<title>n0</title>
<path fill="#c8e6c9" stroke="black" d="M42,-36C42,-36 12,-36 12,-36 6,-36 0,-30 0,-24 0,-24 0,-12 0,-12 0,-6 6,0 12,0 12,0 42,0 42,0 48,0 54,-6 54,-12 54,-12 54,-24 54,-24 54,-30 48,-36 42,-36"/>
<text text-anchor="middle" x="27" y="-15.2" font-family="Helvetica" font-size="11.00">start</text>
</g>
<!-- n1 -->
<g id="node2" class="node">
<title>n1</title>
<path fill="#e8f4f8" stroke="black" d="M236,-36C236,-36 124,-36 124,-36 118,-36 112,-30 112,-24 112,-24 112,-12 112,-12 112,-6 118,0 124,0 124,0 236,0 236,0 242,0 248,-6 248,-12 248,-12 248,-24 248,-24 248,-30 242,-36 236,-36"/>
<text text-anchor="middle" x="180" y="-15.2" font-family="Helvetica" font-size="11.00">DecryptField_Blowfish</text>
</g>
<!-- n0&#45;&gt;n1 -->
<g id="edge1" class="edge">
<title>n0&#45;&gt;n1</title>
<path fill="none" stroke="#555555" d="M54.3,-18C67.65,-18 84.64,-18 101.74,-18"/>
<polygon fill="#555555" stroke="#555555" points="101.8,-21.5 111.8,-18 101.8,-14.5 101.8,-21.5"/>
</g>
<!-- n2 -->
<g id="node3" class="node">
<title>n2</title>
<path fill="#e8f4f8" stroke="black" d="M370,-36C370,-36 318,-36 318,-36 312,-36 306,-30 306,-24 306,-24 306,-12 306,-12 306,-6 312,0 318,0 318,0 370,0 370,0 376,0 382,-6 382,-12 382,-12 382,-24 382,-24 382,-30 376,-36 370,-36"/>
<text text-anchor="middle" x="344" y="-15.2" font-family="Helvetica" font-size="11.00">Map Field</text>
</g>
<!-- n1&#45;&gt;n2 -->
<g id="edge3" class="edge">
<title>n1&#45;&gt;n2</title>
<path fill="none" stroke="#555555" d="M248.3,-18C264.1,-18 280.63,-18 295.37,-18"/>
<polygon fill="#555555" stroke="#555555" points="295.75,-21.5 305.75,-18 295.75,-14.5 295.75,-21.5"/>
</g>
<!-- n3 -->
<g id="node4" class="node">
<title>n3</title>
<path fill="#ffccbc" stroke="black" d="M482,-36C482,-36 452,-36 452,-36 446,-36 440,-30 440,-24 440,-24 440,-12 440,-12 440,-6 446,0 452,0 452,0 482,0 482,0 488,0 494,-6 494,-12 494,-12 494,-24 494,-24 494,-30 488,-36 482,-36"/>
<text text-anchor="middle" x="467" y="-15.2" font-family="Helvetica" font-size="11.00">end</text>
</g>
<!-- n2&#45;&gt;n3 -->
<g id="edge2" class="edge">
<title>n2&#45;&gt;n3</title>
<path fill="none" stroke="#555555" d="M382.29,-18C397.27,-18 414.48,-18 429.38,-18"/>
<polygon fill="#555555" stroke="#555555" points="429.77,-21.5 439.77,-18 429.77,-14.5 429.77,-21.5"/>
</g>
<!-- n4 -->
<g id="node5" class="node">
<title>n4</title>
<path fill="#c8e6c9" stroke="black" d="M42,-115C42,-115 12,-115 12,-115 6,-115 0,-109 0,-103 0,-103 0,-91 0,-91 0,-85 6,-79 12,-79 12,-79 42,-79 42,-79 48,-79 54,-85 54,-91 54,-91 54,-103 54,-103 54,-109 48,-115 42,-115"/>
<text text-anchor="middle" x="27" y="-94.2" font-family="Helvetica" font-size="11.00">Start</text>
</g>
<!-- n5 -->
<g id="node6" class="node">
<title>n5</title>
<path fill="#e8f4f8" stroke="black" d="M197.5,-115C197.5,-115 162.5,-115 162.5,-115 156.5,-115 150.5,-109 150.5,-103 150.5,-103 150.5,-91 150.5,-91 150.5,-85 156.5,-79 162.5,-79 162.5,-79 197.5,-79 197.5,-79 203.5,-79 209.5,-85 209.5,-91 209.5,-91 209.5,-103 209.5,-103 209.5,-109 203.5,-115 197.5,-115"/>
<text text-anchor="middle" x="180" y="-94.2" font-family="Helvetica" font-size="11.00">Iterate</text>
</g>
<!-- n4&#45;&gt;n5 -->
<g id="edge4" class="edge">
<title>n4&#45;&gt;n5</title>
<path fill="none" stroke="#555555" d="M54.3,-97C78.02,-97 113.22,-97 140.18,-97"/>
<polygon fill="#555555" stroke="#555555" points="140.43,-100.5 150.43,-97 140.43,-93.5 140.43,-100.5"/>
</g>
<!-- n6 -->
<g id="node7" class="node">
<title>n6</title>
<path fill="#ffccbc" stroke="black" d="M359,-115C359,-115 329,-115 329,-115 323,-115 317,-109 317,-103 317,-103 317,-91 317,-91 317,-85 323,-79 329,-79 329,-79 359,-79 359,-79 365,-79 371,-85 371,-91 371,-91 371,-103 371,-103 371,-109 365,-115 359,-115"/>
<text text-anchor="middle" x="344" y="-94.2" font-family="Helvetica" font-size="11.00">End</text>
</g>
<!-- n5&#45;&gt;n6 -->
<g id="edge5" class="edge">
<title>n5&#45;&gt;n6</title>
<path fill="none" stroke="#555555" d="M209.59,-97C236.61,-97 277.27,-97 306.59,-97"/>
<polygon fill="#555555" stroke="#555555" points="306.84,-100.5 316.84,-97 306.84,-93.5 306.84,-100.5"/>
</g>
</g>
</svg>
