<?xml version="1.0" encoding="UTF-8" standalone="no"?>
<!DOCTYPE svg PUBLIC "-//W3C//DTD SVG 1.1//EN"
 "http://www.w3.org/Graphics/SVG/1.1/DTD/svg11.dtd">
<!-- Generated by graphviz version 2.44.0 (0)
 -->
<!-- Title: process Pages: 1 -->
<svg width="549pt" height="187pt"
 viewBox="0.00 0.00 549.00 187.00" xmlns="http://www.w3.org/2000/svg" xmlns:xlink="http://www.w3.org/1999/xlink">
<g id="graph0" class="graph" transform="scale(1 1) rotate(0) translate(36 151)">
<title>process</title>
<polygon fill="#ffffff" stroke="transparent" points="-36,36 -36,-151 513,-151 513,36 -36,36"/>
<!-- n0 -->
<g id="node1" class="node">
<title>n0</title>
<path fill="#c8e6c9" stroke="black" d="M42,-75C42,-75 12,-75 12,-75 6,-75 0,-69 0,-63 0,-63 0,-51 0,-51 0,-45 6,-39 12,-39 12,-39 42,-39 42,-39 48,-39 54,-45 54,-51 54,-51 54,-63 54,-63 54,-69 48,-75 42,-75"/>
<text text-anchor="middle" x="27" y="-54.2" font-family="Helvetica" font-size="11.00">Start</text>
</g>
<!-- n1 -->
<g id="node2" class="node">
<title>n1</title>
<path fill="#e8f4f8" stroke="black" d="M194,-75C194,-75 124,-75 124,-75 118,-75 112,-69 112,-63 112,-63 112,-51 112,-51 112,-45 118,-39 124,-39 124,-39 194,-39 194,-39 200,-39 206,-45 206,-51 206,-51 206,-63 206,-63 206,-69 200,-75 194,-75"/>
<text text-anchor="middle" x="159" y="-54.2" font-family="Helvetica" font-size="11.00">SendRequest</text>
</g>
<!-- n0&#45;&gt;n1 -->
<g id="edge1" class="edge">
<title>n0&#45;&gt;n1</title>
<path fill="none" stroke="#555555" d="M54.31,-57C68.01,-57 85.32,-57 101.85,-57"/>
<polygon fill="#555555" stroke="#555555" points="102,-60.5 112,-57 102,-53.5 102,-60.5"/>
</g>
<!-- n2 -->
<g id="node3" class="node">
<title>n2</title>
<path fill="#e8f4f8" stroke="black" d="M340,-115C340,-115 289,-115 289,-115 283,-115 277,-109 277,-103 277,-103 277,-91 277,-91 277,-85 283,-79 289,-79 289,-79 340,-79 340,-79 346,-79 352,-85 352,-91 352,-91 352,-103 352,-103 352,-109 346,-115 340,-115"/>
<text text-anchor="middle" x="314.5" y="-94.2" font-family="Helvetica" font-size="11.00">Map Data</text>
</g>
<!-- n1&#45;&gt;n2 -->
<g id="edge2" class="edge">
<title>n1&#45;&gt;n2</title>
<path fill="none" stroke="#555555" d="M206.06,-69C225.31,-74.02 247.64,-79.84 266.95,-84.87"/>
<polygon fill="#555555" stroke="#555555" points="266.17,-88.28 276.73,-87.42 267.94,-81.51 266.17,-88.28"/>
</g>
<!-- n3 -->
<g id="node4" class="node">
<title>n3</title>
<path fill="#ffcdd2" stroke="black" d="M353,-36C353,-36 276,-36 276,-36 270,-36 264,-30 264,-24 264,-24 264,-12 264,-12 264,-6 270,0 276,0 276,0 353,0 353,0 359,0 365,-6 365,-12 365,-12 365,-24 365,-24 365,-30 359,-36 353,-36"/>
<text text-anchor="middle" x="314.5" y="-15.2" font-family="Helvetica" font-size="11.00">Generate Error</text>
</g>
<!-- n1&#45;&gt;n3 -->
<g id="edge3" class="edge">
<title>n1&#45;&gt;n3</title>
<path fill="none" stroke="#555555" d="M206.06,-45.3C221.12,-41.47 238.07,-37.16 253.99,-33.12"/>
<polygon fill="#555555" stroke="#555555" points="254.9,-36.5 263.73,-30.64 253.18,-29.71 254.9,-36.5"/>
</g>
<!-- n4 -->
<g id="node5" class="node">
<title>n4</title>
<path fill="#ffccbc" stroke="black" d="M465,-115C465,-115 435,-115 435,-115 429,-115 423,-109 423,-103 423,-103 423,-91 423,-91 423,-85 429,-79 435,-79 435,-79 465,-79 465,-79 471,-79 477,-85 477,-91 477,-91 477,-103 477,-103 477,-109 471,-115 465,-115"/>
<text text-anchor="middle" x="450" y="-94.2" font-family="Helvetica" font-size="11.00">End</text>
</g>
<!-- n2&#45;&gt;n4 -->
<g id="edge4" class="edge">
<title>n2&#45;&gt;n4</title>
<path fill="none" stroke="#555555" d="M352.33,-97C371.13,-97 393.92,-97 412.65,-97"/>
<polygon fill="#555555" stroke="#555555" points="412.86,-100.5 422.86,-97 412.86,-93.5 412.86,-100.5"/>
</g>
</g>
</svg>
