<?xml version="1.0" encoding="UTF-8" standalone="no"?>
<!DOCTYPE svg PUBLIC "-//W3C//DTD SVG 1.1//EN"
 "http://www.w3.org/Graphics/SVG/1.1/DTD/svg11.dtd">
<!-- Generated by graphviz version 2.44.0 (0)
 -->
<!-- Title: process Pages: 1 -->
<svg width="1174pt" height="308pt"
 viewBox="0.00 0.00 1174.00 308.00" xmlns="http://www.w3.org/2000/svg" xmlns:xlink="http://www.w3.org/1999/xlink">
<g id="graph0" class="graph" transform="scale(1 1) rotate(0) translate(36 272)">
<title>process</title>
<polygon fill="#ffffff" stroke="transparent" points="-36,36 -36,-272 1138,-272 1138,36 -36,36"/>
<!-- n0 -->
<g id="node1" class="node">
<title>n0</title>
<path fill="#c8e6c9" stroke="black" d="M42,-36C42,-36 12,-36 12,-36 6,-36 0,-30 0,-24 0,-24 0,-12 0,-12 0,-6 6,0 12,0 12,0 42,0 42,0 48,0 54,-6 54,-12 54,-12 54,-24 54,-24 54,-30 48,-36 42,-36"/>
<text text-anchor="middle" x="27" y="-15.2" font-family="Helvetica" font-size="11.00">start</text>
</g>
<!-- n1 -->
<g id="node2" class="node">
<title>n1</title>
<path fill="#e8f4f8" stroke="black" d="M259,-36C259,-36 124,-36 124,-36 118,-36 112,-30 112,-24 112,-24 112,-12 112,-12 112,-6 118,0 124,0 124,0 259,0 259,0 265,0 271,-6 271,-12 271,-12 271,-24 271,-24 271,-30 265,-36 259,-36"/>
<text text-anchor="middle" x="191.5" y="-15.2" font-family="Helvetica" font-size="11.00">CreateCustomerInteraction</text>
</g>
<!-- n0&#45;&gt;n1 -->
<g id="edge1" class="edge">
<title>n0&#45;&gt;n1</title>
<path fill="none" stroke="#555555" d="M54.11,-18C67.31,-18 84.18,-18 101.53,-18"/>
<polygon fill="#555555" stroke="#555555" points="101.78,-21.5 111.78,-18 101.78,-14.5 101.78,-21.5"/>
</g>
<!-- n2 -->
<g id="node4" class="node">
<title>n2</title>
<path fill="#ffccbc" stroke="black" d="M400.5,-36C400.5,-36 370.5,-36 370.5,-36 364.5,-36 358.5,-30 358.5,-24 358.5,-24 358.5,-12 358.5,-12 358.5,-6 364.5,0 370.5,0 370.5,0 400.5,0 400.5,0 406.5,0 412.5,-6 412.5,-12 412.5,-12 412.5,-24 412.5,-24 412.5,-30 406.5,-36 400.5,-36"/>
<text text-anchor="middle" x="385.5" y="-15.2" font-family="Helvetica" font-size="11.00">end</text>
</g>
<!-- n1&#45;&gt;n2 -->
<g id="edge2" class="edge">
<title>n1&#45;&gt;n2</title>
<path fill="none" stroke="#555555" d="M271.15,-18C297.85,-18 326.4,-18 348.17,-18"/>
<polygon fill="#555555" stroke="#555555" points="348.27,-21.5 358.27,-18 348.27,-14.5 348.27,-21.5"/>
</g>
<!-- n10 -->
<g id="node3" class="node">
<title>n10</title>
<path fill="#e8f4f8" stroke="black" d="M794,-194C794,-194 677,-194 677,-194 671,-194 665,-188 665,-182 665,-182 665,-170 665,-170 665,-164 671,-158 677,-158 677,-158 794,-158 794,-158 800,-158 806,-164 806,-170 806,-170 806,-182 806,-182 806,-188 800,-194 794,-194"/>
<text text-anchor="middle" x="735.5" y="-173.2" font-family="Helvetica" font-size="11.00">SettleReservedBalance</text>
</g>
<!-- n7 -->
<g id="node9" class="node">
<title>n7</title>
<path fill="#e8f4f8" stroke="black" d="M978,-236C978,-236 876,-236 876,-236 870,-236 864,-230 864,-224 864,-224 864,-212 864,-212 864,-206 870,-200 876,-200 876,-200 978,-200 978,-200 984,-200 990,-206 990,-212 990,-212 990,-224 990,-224 990,-230 984,-236 978,-236"/>
<text text-anchor="middle" x="927" y="-215.2" font-family="Helvetica" font-size="11.00">For Each Interaction</text>
</g>
<!-- n10&#45;&gt;n7 -->
<g id="edge8" class="edge">
<title>n10&#45;&gt;n7</title>
<path fill="none" stroke="#555555" d="M806.26,-191.46C821.75,-194.89 838.21,-198.54 853.8,-202"/>
<polygon fill="#555555" stroke="#555555" points="853.38,-205.49 863.9,-204.24 854.9,-198.66 853.38,-205.49"/>
</g>
<!-- n8 -->
<g id="node10" class="node">
<title>n8</title>
<path fill="#ffccbc" stroke="black" d="M1090,-194C1090,-194 1060,-194 1060,-194 1054,-194 1048,-188 1048,-182 1048,-182 1048,-170 1048,-170 1048,-164 1054,-158 1060,-158 1060,-158 1090,-158 1090,-158 1096,-158 1102,-164 1102,-170 1102,-170 1102,-182 1102,-182 1102,-188 1096,-194 1090,-194"/>
<text text-anchor="middle" x="1075" y="-173.2" font-family="Helvetica" font-size="11.00">End</text>
</g>
<!-- n10&#45;&gt;n8 -->
<g id="edge9" class="edge">
<title>n10&#45;&gt;n8</title>
<path fill="none" stroke="#555555" d="M806.02,-176C876.36,-176 982.37,-176 1037.61,-176"/>
<polygon fill="#555555" stroke="#555555" points="1037.63,-179.5 1047.63,-176 1037.63,-172.5 1037.63,-179.5"/>
</g>
<!-- n3 -->
<g id="node5" class="node">
<title>n3</title>
<path fill="#c8e6c9" stroke="black" d="M42,-154C42,-154 12,-154 12,-154 6,-154 0,-148 0,-142 0,-142 0,-130 0,-130 0,-124 6,-118 12,-118 12,-118 42,-118 42,-118 48,-118 54,-124 54,-130 54,-130 54,-142 54,-142 54,-148 48,-154 42,-154"/>
<text text-anchor="middle" x="27" y="-133.2" font-family="Helvetica" font-size="11.00">Start</text>
</g>
<!-- n4 -->
<g id="node6" class="node">
<title>n4</title>
<path fill="#e8f4f8" stroke="black" d="M222,-194C222,-194 161,-194 161,-194 155,-194 149,-188 149,-182 149,-182 149,-170 149,-170 149,-164 155,-158 161,-158 161,-158 222,-158 222,-158 228,-158 234,-164 234,-170 234,-170 234,-182 234,-182 234,-188 228,-194 222,-194"/>
<text text-anchor="middle" x="191.5" y="-173.2" font-family="Helvetica" font-size="11.00">GetVariable</text>
</g>
<!-- n3&#45;&gt;n4 -->
<g id="edge3" class="edge">
<title>n3&#45;&gt;n4</title>
<path fill="none" stroke="#555555" d="M54.11,-142.43C76.98,-148.06 110.89,-156.4 139.18,-163.37"/>
<polygon fill="#555555" stroke="#555555" points="138.37,-166.77 148.92,-165.77 140.05,-159.98 138.37,-166.77"/>
</g>
<!-- n5 -->
<g id="node7" class="node">
<title>n5</title>
<path fill="#ffcdd2" stroke="black" d="M230,-115C230,-115 153,-115 153,-115 147,-115 141,-109 141,-103 141,-103 141,-91 141,-91 141,-85 147,-79 153,-79 153,-79 230,-79 230,-79 236,-79 242,-85 242,-91 242,-91 242,-103 242,-103 242,-109 236,-115 230,-115"/>
<text text-anchor="middle" x="191.5" y="-94.2" font-family="Helvetica" font-size="11.00">Generate Error</text>
</g>
<!-- n3&#45;&gt;n5 -->
<g id="edge4" class="edge">
<title>n3&#45;&gt;n5</title>
<path fill="none" stroke="#555555" d="M54.11,-129.73C74.79,-124.77 104.5,-117.64 130.92,-111.3"/>
<polygon fill="#555555" stroke="#555555" points="131.95,-114.65 140.85,-108.91 130.31,-107.85 131.95,-114.65"/>
</g>
<!-- n6 -->
<g id="node8" class="node">
<title>n6</title>
<path fill="#e8f4f8" stroke="black" d="M430,-194C430,-194 341,-194 341,-194 335,-194 329,-188 329,-182 329,-182 329,-170 329,-170 329,-164 335,-158 341,-158 341,-158 430,-158 430,-158 436,-158 442,-164 442,-170 442,-170 442,-182 442,-182 442,-188 436,-194 430,-194"/>
<text text-anchor="middle" x="385.5" y="-173.2" font-family="Helvetica" font-size="11.00">ExceptionCatcher</text>
</g>
<!-- n4&#45;&gt;n6 -->
<g id="edge5" class="edge">
<title>n4&#45;&gt;n6</title>
<path fill="none" stroke="#555555" d="M234.16,-176C258.82,-176 290.6,-176 318.59,-176"/>
<polygon fill="#555555" stroke="#555555" points="318.71,-179.5 328.71,-176 318.71,-172.5 318.71,-179.5"/>
</g>
<!-- n9 -->
<g id="node11" class="node">
<title>n9</title>
<path fill="#e8f4f8" stroke="black" d="M595,-194C595,-194 512,-194 512,-194 506,-194 500,-188 500,-182 500,-182 500,-170 500,-170 500,-164 506,-158 512,-158 512,-158 595,-158 595,-158 601,-158 607,-164 607,-170 607,-170 607,-182 607,-182 607,-188 601,-194 595,-194"/>
<text text-anchor="middle" x="553.5" y="-173.2" font-family="Helvetica" font-size="11.00">ReserveBalance</text>
</g>
<!-- n6&#45;&gt;n9 -->
<g id="edge10" class="edge">
<title>n6&#45;&gt;n9</title>
<path fill="none" stroke="#555555" d="M442.24,-176C457.54,-176 474.22,-176 489.88,-176"/>
<polygon fill="#555555" stroke="#555555" points="490,-179.5 500,-176 490,-172.5 490,-179.5"/>
</g>
<!-- n7&#45;&gt;n8 -->
<g id="edge6" class="edge">
<title>n7&#45;&gt;n8</title>
<path fill="none" stroke="#555555" d="M990.34,-200.07C1006.56,-195.4 1023.49,-190.53 1037.84,-186.4"/>
<polygon fill="#555555" stroke="#555555" points="1039.15,-189.67 1047.8,-183.54 1037.22,-182.94 1039.15,-189.67"/>
</g>
<!-- n9&#45;&gt;n10 -->
<g id="edge7" class="edge">
<title>n9&#45;&gt;n10</title>
<path fill="none" stroke="#555555" d="M607.05,-176C621.86,-176 638.32,-176 654.35,-176"/>
<polygon fill="#555555" stroke="#555555" points="654.81,-179.5 664.81,-176 654.81,-172.5 654.81,-179.5"/>
</g>
</g>
</svg>
