<?xml version="1.0" encoding="UTF-8" standalone="no"?>
<!DOCTYPE svg PUBLIC "-//W3C//DTD SVG 1.1//EN"
 "http://www.w3.org/Graphics/SVG/1.1/DTD/svg11.dtd">
<!-- Generated by graphviz version 2.44.0 (0)
 -->
<!-- Title: process Pages: 1 -->
<svg width="627pt" height="187pt"
 viewBox="0.00 0.00 627.00 187.00" xmlns="http://www.w3.org/2000/svg" xmlns:xlink="http://www.w3.org/1999/xlink">
<g id="graph0" class="graph" transform="scale(1 1) rotate(0) translate(36 151)">
<title>process</title>
<polygon fill="#ffffff" stroke="transparent" points="-36,36 -36,-151 591,-151 591,36 -36,36"/>
<!-- n0 -->
<g id="node1" class="node">
<title>n0</title>
<path fill="#c8e6c9" stroke="black" d="M42,-75C42,-75 12,-75 12,-75 6,-75 0,-69 0,-63 0,-63 0,-51 0,-51 0,-45 6,-39 12,-39 12,-39 42,-39 42,-39 48,-39 54,-45 54,-51 54,-51 54,-63 54,-63 54,-69 48,-75 42,-75"/>
<text text-anchor="middle" x="27" y="-54.2" font-family="Helvetica" font-size="11.00">Start</text>
</g>
<!-- n1 -->
<g id="node2" class="node">
<title>n1</title>
<path fill="#e8f4f8" stroke="black" d="M204,-75C204,-75 124,-75 124,-75 118,-75 112,-69 112,-63 112,-63 112,-51 112,-51 112,-45 118,-39 124,-39 124,-39 204,-39 204,-39 210,-39 216,-45 216,-51 216,-51 216,-63 216,-63 216,-69 210,-75 204,-75"/>
<text text-anchor="middle" x="164" y="-54.2" font-family="Helvetica" font-size="11.00">GetErrorDetails</text>
</g>
<!-- n0&#45;&gt;n1 -->
<g id="edge1" class="edge">
<title>n0&#45;&gt;n1</title>
<path fill="none" stroke="#555555" d="M54.03,-57C67.61,-57 84.84,-57 101.57,-57"/>
<polygon fill="#555555" stroke="#555555" points="101.89,-60.5 111.89,-57 101.89,-53.5 101.89,-60.5"/>
</g>
<!-- n2 -->
<g id="node3" class="node">
<title>n2</title>
<path fill="#ffccbc" stroke="black" d="M352,-115C352,-115 322,-115 322,-115 316,-115 310,-109 310,-103 310,-103 310,-91 310,-91 310,-85 316,-79 322,-79 322,-79 352,-79 352,-79 358,-79 364,-85 364,-91 364,-91 364,-103 364,-103 364,-109 358,-115 352,-115"/>
<text text-anchor="middle" x="337" y="-94.2" font-family="Helvetica" font-size="11.00">End</text>
</g>
<!-- n1&#45;&gt;n2 -->
<g id="edge2" class="edge">
<title>n1&#45;&gt;n2</title>
<path fill="none" stroke="#555555" d="M216.31,-69C243.16,-75.28 275.41,-82.83 299.66,-88.5"/>
<polygon fill="#555555" stroke="#555555" points="298.99,-91.94 309.53,-90.81 300.59,-85.12 298.99,-91.94"/>
</g>
<!-- n3 -->
<g id="node4" class="node">
<title>n3</title>
<path fill="#e8f4f8" stroke="black" d="M388,-36C388,-36 286,-36 286,-36 280,-36 274,-30 274,-24 274,-24 274,-12 274,-12 274,-6 280,0 286,0 286,0 388,0 388,0 394,0 400,-6 400,-12 400,-12 400,-24 400,-24 400,-30 394,-36 388,-36"/>
<text text-anchor="middle" x="337" y="-15.2" font-family="Helvetica" font-size="11.00">GetExceptionDetails</text>
</g>
<!-- n1&#45;&gt;n3 -->
<g id="edge3" class="edge">
<title>n1&#45;&gt;n3</title>
<path fill="none" stroke="#555555" d="M216.31,-45.3C231.3,-41.88 247.97,-38.08 263.99,-34.42"/>
<polygon fill="#555555" stroke="#555555" points="264.89,-37.81 273.86,-32.17 263.33,-30.98 264.89,-37.81"/>
</g>
<!-- n4 -->
<g id="node5" class="node">
<title>n4</title>
<path fill="#e8f4f8" stroke="black" d="M543,-36C543,-36 470,-36 470,-36 464,-36 458,-30 458,-24 458,-24 458,-12 458,-12 458,-6 464,0 470,0 470,0 543,0 543,0 549,0 555,-6 555,-12 555,-12 555,-24 555,-24 555,-30 549,-36 543,-36"/>
<text text-anchor="middle" x="506.5" y="-15.2" font-family="Helvetica" font-size="11.00">BackEndError</text>
</g>
<!-- n3&#45;&gt;n4 -->
<g id="edge4" class="edge">
<title>n3&#45;&gt;n4</title>
<path fill="none" stroke="#555555" d="M400.37,-18C415.79,-18 432.24,-18 447.44,-18"/>
<polygon fill="#555555" stroke="#555555" points="447.74,-21.5 457.74,-18 447.74,-14.5 447.74,-21.5"/>
</g>
</g>
</svg>
