<?xml version="1.0" encoding="UTF-8" standalone="no"?>
<!DOCTYPE svg PUBLIC "-//W3C//DTD SVG 1.1//EN"
 "http://www.w3.org/Graphics/SVG/1.1/DTD/svg11.dtd">
<!-- Generated by graphviz version 2.44.0 (0)
 -->
<!-- Title: process Pages: 1 -->
<svg width="716pt" height="266pt"
 viewBox="0.00 0.00 716.00 266.00" xmlns="http://www.w3.org/2000/svg" xmlns:xlink="http://www.w3.org/1999/xlink">
<g id="graph0" class="graph" transform="scale(1 1) rotate(0) translate(36 230)">
<title>process</title>
<polygon fill="#ffffff" stroke="transparent" points="-36,36 -36,-230 680,-230 680,36 -36,36"/>
<!-- n0 -->
<g id="node1" class="node">
<title>n0</title>
<path fill="#c8e6c9" stroke="black" d="M42,-36C42,-36 12,-36 12,-36 6,-36 0,-30 0,-24 0,-24 0,-12 0,-12 0,-6 6,0 12,0 12,0 42,0 42,0 48,0 54,-6 54,-12 54,-12 54,-24 54,-24 54,-30 48,-36 42,-36"/>
<text text-anchor="middle" x="27" y="-15.2" font-family="Helvetica" font-size="11.00">start</text>
</g>
<!-- n1 -->
<g id="node2" class="node">
<title>n1</title>
<path fill="#ffcdd2" stroke="black" d="M299,-36C299,-36 124,-36 124,-36 118,-36 112,-30 112,-24 112,-24 112,-12 112,-12 112,-6 118,0 124,0 124,0 299,0 299,0 305,0 311,-6 311,-12 311,-12 311,-24 311,-24 311,-30 305,-36 299,-36"/>
<text text-anchor="middle" x="211.5" y="-15.2" font-family="Helvetica" font-size="11.00">Get Diameter Error Codes from DB</text>
</g>
<!-- n0&#45;&gt;n1 -->
<g id="edge1" class="edge">
<title>n0&#45;&gt;n1</title>
<path fill="none" stroke="#555555" d="M54.15,-18C67.17,-18 83.87,-18 101.5,-18"/>
<polygon fill="#555555" stroke="#555555" points="101.96,-21.5 111.96,-18 101.96,-14.5 101.96,-21.5"/>
</g>
<!-- n2 -->
<g id="node3" class="node">
<title>n2</title>
<path fill="#e8f4f8" stroke="black" d="M458,-36C458,-36 396,-36 396,-36 390,-36 384,-30 384,-24 384,-24 384,-12 384,-12 384,-6 390,0 396,0 396,0 458,0 458,0 464,0 470,-6 470,-12 470,-12 470,-24 470,-24 470,-30 464,-36 458,-36"/>
<text text-anchor="middle" x="427" y="-15.2" font-family="Helvetica" font-size="11.00">StoreCodes</text>
</g>
<!-- n1&#45;&gt;n2 -->
<g id="edge3" class="edge">
<title>n1&#45;&gt;n2</title>
<path fill="none" stroke="#555555" d="M311.13,-18C332.7,-18 354.71,-18 373.63,-18"/>
<polygon fill="#555555" stroke="#555555" points="373.79,-21.5 383.79,-18 373.79,-14.5 373.79,-21.5"/>
</g>
<!-- n3 -->
<g id="node4" class="node">
<title>n3</title>
<path fill="#ffccbc" stroke="black" d="M608.5,-36C608.5,-36 578.5,-36 578.5,-36 572.5,-36 566.5,-30 566.5,-24 566.5,-24 566.5,-12 566.5,-12 566.5,-6 572.5,0 578.5,0 578.5,0 608.5,0 608.5,0 614.5,0 620.5,-6 620.5,-12 620.5,-12 620.5,-24 620.5,-24 620.5,-30 614.5,-36 608.5,-36"/>
<text text-anchor="middle" x="593.5" y="-15.2" font-family="Helvetica" font-size="11.00">end</text>
</g>
<!-- n2&#45;&gt;n3 -->
<g id="edge2" class="edge">
<title>n2&#45;&gt;n3</title>
<path fill="none" stroke="#555555" d="M470.36,-18C496.85,-18 530.62,-18 555.94,-18"/>
<polygon fill="#555555" stroke="#555555" points="556.22,-21.5 566.22,-18 556.22,-14.5 556.22,-21.5"/>
</g>
<!-- n4 -->
<g id="node5" class="node">
<title>n4</title>
<path fill="#c8e6c9" stroke="black" d="M42,-154C42,-154 12,-154 12,-154 6,-154 0,-148 0,-142 0,-142 0,-130 0,-130 0,-124 6,-118 12,-118 12,-118 42,-118 42,-118 48,-118 54,-124 54,-130 54,-130 54,-142 54,-142 54,-148 48,-154 42,-154"/>
<text text-anchor="middle" x="27" y="-133.2" font-family="Helvetica" font-size="11.00">Start</text>
</g>
<!-- n5 -->
<g id="node6" class="node">
<title>n5</title>
<path fill="#ffcdd2" stroke="black" d="M242.5,-154C242.5,-154 180.5,-154 180.5,-154 174.5,-154 168.5,-148 168.5,-142 168.5,-142 168.5,-130 168.5,-130 168.5,-124 174.5,-118 180.5,-118 180.5,-118 242.5,-118 242.5,-118 248.5,-118 254.5,-124 254.5,-130 254.5,-130 254.5,-142 254.5,-142 254.5,-148 248.5,-154 242.5,-154"/>
<text text-anchor="middle" x="211.5" y="-133.2" font-family="Helvetica" font-size="11.00">Error Group</text>
</g>
<!-- n4&#45;&gt;n5 -->
<g id="edge4" class="edge">
<title>n4&#45;&gt;n5</title>
<path fill="none" stroke="#555555" d="M54.15,-136C81.12,-136 123.93,-136 157.95,-136"/>
<polygon fill="#555555" stroke="#555555" points="158.19,-139.5 168.19,-136 158.19,-132.5 158.19,-139.5"/>
</g>
<!-- n6 -->
<g id="node7" class="node">
<title>n6</title>
<path fill="#ffccbc" stroke="black" d="M442,-194C442,-194 412,-194 412,-194 406,-194 400,-188 400,-182 400,-182 400,-170 400,-170 400,-164 406,-158 412,-158 412,-158 442,-158 442,-158 448,-158 454,-164 454,-170 454,-170 454,-182 454,-182 454,-188 448,-194 442,-194"/>
<text text-anchor="middle" x="427" y="-173.2" font-family="Helvetica" font-size="11.00">End</text>
</g>
<!-- n5&#45;&gt;n6 -->
<g id="edge5" class="edge">
<title>n5&#45;&gt;n6</title>
<path fill="none" stroke="#555555" d="M254.68,-143.9C294.11,-151.29 352.38,-162.21 389.76,-169.21"/>
<polygon fill="#555555" stroke="#555555" points="389.25,-172.68 399.72,-171.08 390.54,-165.8 389.25,-172.68"/>
</g>
<!-- n7 -->
<g id="node8" class="node">
<title>n7</title>
<path fill="#e8f4f8" stroke="black" d="M473,-115C473,-115 381,-115 381,-115 375,-115 369,-109 369,-103 369,-103 369,-91 369,-91 369,-85 375,-79 381,-79 381,-79 473,-79 473,-79 479,-79 485,-85 485,-91 485,-91 485,-103 485,-103 485,-109 479,-115 473,-115"/>
<text text-anchor="middle" x="427" y="-94.2" font-family="Helvetica" font-size="11.00">MapAnyException</text>
</g>
<!-- n5&#45;&gt;n7 -->
<g id="edge6" class="edge">
<title>n5&#45;&gt;n7</title>
<path fill="none" stroke="#555555" d="M254.68,-128.29C284.43,-122.86 324.91,-115.47 359.04,-109.23"/>
<polygon fill="#555555" stroke="#555555" points="359.74,-112.66 368.95,-107.42 358.48,-105.78 359.74,-112.66"/>
</g>
<!-- n8 -->
<g id="node9" class="node">
<title>n8</title>
<path fill="#ffcdd2" stroke="black" d="M632,-115C632,-115 555,-115 555,-115 549,-115 543,-109 543,-103 543,-103 543,-91 543,-91 543,-85 549,-79 555,-79 555,-79 632,-79 632,-79 638,-79 644,-85 644,-91 644,-91 644,-103 644,-103 644,-109 638,-115 632,-115"/>
<text text-anchor="middle" x="593.5" y="-94.2" font-family="Helvetica" font-size="11.00">Generate Error</text>
</g>
<!-- n7&#45;&gt;n8 -->
<g id="edge7" class="edge">
<title>n7&#45;&gt;n8</title>
<path fill="none" stroke="#555555" d="M485.07,-97C500.53,-97 517.29,-97 532.88,-97"/>
<polygon fill="#555555" stroke="#555555" points="532.93,-100.5 542.93,-97 532.93,-93.5 532.93,-100.5"/>
</g>
</g>
</svg>
