<?xml version="1.0" encoding="UTF-8" standalone="no"?>
<!DOCTYPE svg PUBLIC "-//W3C//DTD SVG 1.1//EN"
 "http://www.w3.org/Graphics/SVG/1.1/DTD/svg11.dtd">
<!-- Generated by graphviz version 2.44.0 (0)
 -->
<!-- Title: process Pages: 1 -->
<svg width="671pt" height="266pt"
 viewBox="0.00 0.00 671.00 266.00" xmlns="http://www.w3.org/2000/svg" xmlns:xlink="http://www.w3.org/1999/xlink">
<g id="graph0" class="graph" transform="scale(1 1) rotate(0) translate(36 230)">
<title>process</title>
<polygon fill="#ffffff" stroke="transparent" points="-36,36 -36,-230 635,-230 635,36 -36,36"/>
<!-- n0 -->
<g id="node1" class="node">
<title>n0</title>
<path fill="#c8e6c9" stroke="black" d="M42,-36C42,-36 12,-36 12,-36 6,-36 0,-30 0,-24 0,-24 0,-12 0,-12 0,-6 6,0 12,0 12,0 42,0 42,0 48,0 54,-6 54,-12 54,-12 54,-24 54,-24 54,-30 48,-36 42,-36"/>
<text text-anchor="middle" x="27" y="-15.2" font-family="Helvetica" font-size="11.00">start</text>
</g>
<!-- n1 -->
<g id="node2" class="node">
<title>n1</title>
<path fill="#e8f4f8" stroke="black" d="M254,-36C254,-36 124,-36 124,-36 118,-36 112,-30 112,-24 112,-24 112,-12 112,-12 112,-6 118,0 124,0 124,0 254,0 254,0 260,0 266,-6 266,-12 266,-12 266,-24 266,-24 266,-30 260,-36 254,-36"/>
<text text-anchor="middle" x="189" y="-15.2" font-family="Helvetica" font-size="11.00">GetProductClass from DB</text>
</g>
<!-- n0&#45;&gt;n1 -->
<g id="edge1" class="edge">
<title>n0&#45;&gt;n1</title>
<path fill="none" stroke="#555555" d="M54.06,-18C67.31,-18 84.26,-18 101.61,-18"/>
<polygon fill="#555555" stroke="#555555" points="101.84,-21.5 111.84,-18 101.84,-14.5 101.84,-21.5"/>
</g>
<!-- n2 -->
<g id="node3" class="node">
<title>n2</title>
<path fill="#e8f4f8" stroke="black" d="M425,-36C425,-36 339,-36 339,-36 333,-36 327,-30 327,-24 327,-24 327,-12 327,-12 327,-6 333,0 339,0 339,0 425,0 425,0 431,0 437,-6 437,-12 437,-12 437,-24 437,-24 437,-30 431,-36 425,-36"/>
<text text-anchor="middle" x="382" y="-15.2" font-family="Helvetica" font-size="11.00">SetProductClass</text>
</g>
<!-- n1&#45;&gt;n2 -->
<g id="edge3" class="edge">
<title>n1&#45;&gt;n2</title>
<path fill="none" stroke="#555555" d="M266.04,-18C282.76,-18 300.32,-18 316.54,-18"/>
<polygon fill="#555555" stroke="#555555" points="316.98,-21.5 326.98,-18 316.98,-14.5 316.98,-21.5"/>
</g>
<!-- n3 -->
<g id="node4" class="node">
<title>n3</title>
<path fill="#ffccbc" stroke="black" d="M563.5,-36C563.5,-36 533.5,-36 533.5,-36 527.5,-36 521.5,-30 521.5,-24 521.5,-24 521.5,-12 521.5,-12 521.5,-6 527.5,0 533.5,0 533.5,0 563.5,0 563.5,0 569.5,0 575.5,-6 575.5,-12 575.5,-12 575.5,-24 575.5,-24 575.5,-30 569.5,-36 563.5,-36"/>
<text text-anchor="middle" x="548.5" y="-15.2" font-family="Helvetica" font-size="11.00">end</text>
</g>
<!-- n2&#45;&gt;n3 -->
<g id="edge2" class="edge">
<title>n2&#45;&gt;n3</title>
<path fill="none" stroke="#555555" d="M437.32,-18C461.61,-18 489.58,-18 511.27,-18"/>
<polygon fill="#555555" stroke="#555555" points="511.36,-21.5 521.36,-18 511.36,-14.5 511.36,-21.5"/>
</g>
<!-- n4 -->
<g id="node5" class="node">
<title>n4</title>
<path fill="#e8f4f8" stroke="black" d="M428,-194C428,-194 336,-194 336,-194 330,-194 324,-188 324,-182 324,-182 324,-170 324,-170 324,-164 330,-158 336,-158 336,-158 428,-158 428,-158 434,-158 440,-164 440,-170 440,-170 440,-182 440,-182 440,-188 434,-194 428,-194"/>
<text text-anchor="middle" x="382" y="-173.2" font-family="Helvetica" font-size="11.00">MapAnyException</text>
</g>
<!-- n5 -->
<g id="node6" class="node">
<title>n5</title>
<path fill="#ffcdd2" stroke="black" d="M587,-194C587,-194 510,-194 510,-194 504,-194 498,-188 498,-182 498,-182 498,-170 498,-170 498,-164 504,-158 510,-158 510,-158 587,-158 587,-158 593,-158 599,-164 599,-170 599,-170 599,-182 599,-182 599,-188 593,-194 587,-194"/>
<text text-anchor="middle" x="548.5" y="-173.2" font-family="Helvetica" font-size="11.00">Generate Error</text>
</g>
<!-- n4&#45;&gt;n5 -->
<g id="edge4" class="edge">
<title>n4&#45;&gt;n5</title>
<path fill="none" stroke="#555555" d="M440.07,-176C455.53,-176 472.29,-176 487.88,-176"/>
<polygon fill="#555555" stroke="#555555" points="487.93,-179.5 497.93,-176 487.93,-172.5 487.93,-179.5"/>
</g>
<!-- n6 -->
<g id="node7" class="node">
<title>n6</title>
<path fill="#c8e6c9" stroke="black" d="M42,-154C42,-154 12,-154 12,-154 6,-154 0,-148 0,-142 0,-142 0,-130 0,-130 0,-124 6,-118 12,-118 12,-118 42,-118 42,-118 48,-118 54,-124 54,-130 54,-130 54,-142 54,-142 54,-148 48,-154 42,-154"/>
<text text-anchor="middle" x="27" y="-133.2" font-family="Helvetica" font-size="11.00">Start</text>
</g>
<!-- n7 -->
<g id="node8" class="node">
<title>n7</title>
<path fill="#e8f4f8" stroke="black" d="M214.5,-154C214.5,-154 163.5,-154 163.5,-154 157.5,-154 151.5,-148 151.5,-142 151.5,-142 151.5,-130 151.5,-130 151.5,-124 157.5,-118 163.5,-118 163.5,-118 214.5,-118 214.5,-118 220.5,-118 226.5,-124 226.5,-130 226.5,-130 226.5,-142 226.5,-142 226.5,-148 220.5,-154 214.5,-154"/>
<text text-anchor="middle" x="189" y="-133.2" font-family="Helvetica" font-size="11.00">Group (1)</text>
</g>
<!-- n6&#45;&gt;n7 -->
<g id="edge5" class="edge">
<title>n6&#45;&gt;n7</title>
<path fill="none" stroke="#555555" d="M54.06,-136C77.64,-136 112.93,-136 141.36,-136"/>
<polygon fill="#555555" stroke="#555555" points="141.49,-139.5 151.49,-136 141.49,-132.5 141.49,-139.5"/>
</g>
<!-- n7&#45;&gt;n4 -->
<g id="edge6" class="edge">
<title>n7&#45;&gt;n4</title>
<path fill="none" stroke="#555555" d="M226.83,-143.71C251.46,-148.87 284.59,-155.81 313.83,-161.93"/>
<polygon fill="#555555" stroke="#555555" points="313.48,-165.44 323.98,-164.06 314.91,-158.58 313.48,-165.44"/>
</g>
<!-- n8 -->
<g id="node9" class="node">
<title>n8</title>
<path fill="#ffccbc" stroke="black" d="M397,-115C397,-115 367,-115 367,-115 361,-115 355,-109 355,-103 355,-103 355,-91 355,-91 355,-85 361,-79 367,-79 367,-79 397,-79 397,-79 403,-79 409,-85 409,-91 409,-91 409,-103 409,-103 409,-109 403,-115 397,-115"/>
<text text-anchor="middle" x="382" y="-94.2" font-family="Helvetica" font-size="11.00">End</text>
</g>
<!-- n7&#45;&gt;n8 -->
<g id="edge7" class="edge">
<title>n7&#45;&gt;n8</title>
<path fill="none" stroke="#555555" d="M226.83,-128.48C260.82,-121.54 311,-111.29 344.79,-104.39"/>
<polygon fill="#555555" stroke="#555555" points="345.62,-107.8 354.72,-102.37 344.22,-100.94 345.62,-107.8"/>
</g>
</g>
</svg>
