<?xml version="1.0" encoding="UTF-8" standalone="no"?>
<!DOCTYPE svg PUBLIC "-//W3C//DTD SVG 1.1//EN"
 "http://www.w3.org/Graphics/SVG/1.1/DTD/svg11.dtd">
<!-- Generated by graphviz version 2.44.0 (0)
 -->
<!-- Title: process Pages: 1 -->
<svg width="581pt" height="108pt"
 viewBox="0.00 0.00 581.00 108.00" xmlns="http://www.w3.org/2000/svg" xmlns:xlink="http://www.w3.org/1999/xlink">
<g id="graph0" class="graph" transform="scale(1 1) rotate(0) translate(36 72)">
<title>process</title>
<polygon fill="#ffffff" stroke="transparent" points="-36,36 -36,-72 545,-72 545,36 -36,36"/>
<!-- n0 -->
<g id="node1" class="node">
<title>n0</title>
<path fill="#c8e6c9" stroke="black" d="M42,-36C42,-36 12,-36 12,-36 6,-36 0,-30 0,-24 0,-24 0,-12 0,-12 0,-6 6,0 12,0 12,0 42,0 42,0 48,0 54,-6 54,-12 54,-12 54,-24 54,-24 54,-30 48,-36 42,-36"/>
<text text-anchor="middle" x="27" y="-15.2" font-family="Helvetica" font-size="11.00">Start</text>
</g>
<!-- n1 -->
<g id="node2" class="node">
<title>n1</title>
<path fill="#e8f4f8" stroke="black" d="M231,-36C231,-36 124,-36 124,-36 118,-36 112,-30 112,-24 112,-24 112,-12 112,-12 112,-6 118,0 124,0 124,0 231,0 231,0 237,0 243,-6 243,-12 243,-12 243,-24 243,-24 243,-30 237,-36 231,-36"/>
<text text-anchor="middle" x="177.5" y="-15.2" font-family="Helvetica" font-size="11.00">GetHTTPStatusCode</text>
</g>
<!-- n0&#45;&gt;n1 -->
<g id="edge1" class="edge">
<title>n0&#45;&gt;n1</title>
<path fill="none" stroke="#555555" d="M54.21,-18C67.64,-18 84.75,-18 101.89,-18"/>
<polygon fill="#555555" stroke="#555555" points="101.95,-21.5 111.95,-18 101.95,-14.5 101.95,-21.5"/>
</g>
<!-- n2 -->
<g id="node3" class="node">
<title>n2</title>
<path fill="#e8f4f8" stroke="black" d="M385,-36C385,-36 313,-36 313,-36 307,-36 301,-30 301,-24 301,-24 301,-12 301,-12 301,-6 307,0 313,0 313,0 385,0 385,0 391,0 397,-6 397,-12 397,-12 397,-24 397,-24 397,-30 391,-36 385,-36"/>
<text text-anchor="middle" x="349" y="-15.2" font-family="Helvetica" font-size="11.00">Render JSON</text>
</g>
<!-- n1&#45;&gt;n2 -->
<g id="edge3" class="edge">
<title>n1&#45;&gt;n2</title>
<path fill="none" stroke="#555555" d="M243.06,-18C258.65,-18 275.2,-18 290.43,-18"/>
<polygon fill="#555555" stroke="#555555" points="290.75,-21.5 300.75,-18 290.75,-14.5 290.75,-21.5"/>
</g>
<!-- n3 -->
<g id="node4" class="node">
<title>n3</title>
<path fill="#ffccbc" stroke="black" d="M497,-36C497,-36 467,-36 467,-36 461,-36 455,-30 455,-24 455,-24 455,-12 455,-12 455,-6 461,0 467,0 467,0 497,0 497,0 503,0 509,-6 509,-12 509,-12 509,-24 509,-24 509,-30 503,-36 497,-36"/>
<text text-anchor="middle" x="482" y="-15.2" font-family="Helvetica" font-size="11.00">End</text>
</g>
<!-- n2&#45;&gt;n3 -->
<g id="edge2" class="edge">
<title>n2&#45;&gt;n3</title>
<path fill="none" stroke="#555555" d="M397.29,-18C412.86,-18 429.92,-18 444.56,-18"/>
<polygon fill="#555555" stroke="#555555" points="444.73,-21.5 454.73,-18 444.73,-14.5 444.73,-21.5"/>
</g>
</g>
</svg>
