<?xml version="1.0" encoding="UTF-8" standalone="no"?>
<!DOCTYPE svg PUBLIC "-//W3C//DTD SVG 1.1//EN"
 "http://www.w3.org/Graphics/SVG/1.1/DTD/svg11.dtd">
<!-- Generated by graphviz version 2.44.0 (0)
 -->
<!-- Title: process Pages: 1 -->
<svg width="1627pt" height="228pt"
 viewBox="0.00 0.00 1627.00 228.00" xmlns="http://www.w3.org/2000/svg" xmlns:xlink="http://www.w3.org/1999/xlink">
<g id="graph0" class="graph" transform="scale(1 1) rotate(0) translate(36 192)">
<title>process</title>
<polygon fill="#ffffff" stroke="transparent" points="-36,36 -36,-192 1591,-192 1591,36 -36,36"/>
<!-- n0 -->
<g id="node1" class="node">
<title>n0</title>
<path fill="#e8f4f8" stroke="black" d="M665,-114C665,-114 563,-114 563,-114 557,-114 551,-108 551,-102 551,-102 551,-90 551,-90 551,-84 557,-78 563,-78 563,-78 665,-78 665,-78 671,-78 677,-84 677,-90 677,-90 677,-102 677,-102 677,-108 671,-114 665,-114"/>
<text text-anchor="middle" x="614" y="-93.2" font-family="Helvetica" font-size="11.00">GetBalanceForBRM</text>
</g>
<!-- n1 -->
<g id="node2" class="node">
<title>n1</title>
<path fill="#e8f4f8" stroke="black" d="M837,-156C837,-156 747,-156 747,-156 741,-156 735,-150 735,-144 735,-144 735,-132 735,-132 735,-126 741,-120 747,-120 747,-120 837,-120 837,-120 843,-120 849,-126 849,-132 849,-132 849,-144 849,-144 849,-150 843,-156 837,-156"/>
<text text-anchor="middle" x="792" y="-135.2" font-family="Helvetica" font-size="11.00">WriteToLog_BRM</text>
</g>
<!-- n0&#45;&gt;n1 -->
<g id="edge1" class="edge">
<title>n0&#45;&gt;n1</title>
<path fill="none" stroke="#555555" d="M677.05,-110.81C692.48,-114.49 709.07,-118.45 724.69,-122.18"/>
<polygon fill="#555555" stroke="#555555" points="724.25,-125.67 734.79,-124.59 725.88,-118.86 724.25,-125.67"/>
</g>
<!-- n2 -->
<g id="node3" class="node">
<title>n2</title>
<path fill="#e8f4f8" stroke="black" d="M1015,-114C1015,-114 919,-114 919,-114 913,-114 907,-108 907,-102 907,-102 907,-90 907,-90 907,-84 913,-78 919,-78 919,-78 1015,-78 1015,-78 1021,-78 1027,-84 1027,-90 1027,-90 1027,-102 1027,-102 1027,-108 1021,-114 1015,-114"/>
<text text-anchor="middle" x="967" y="-93.2" font-family="Helvetica" font-size="11.00">ResourceIDtoUOM</text>
</g>
<!-- n0&#45;&gt;n2 -->
<g id="edge6" class="edge">
<title>n0&#45;&gt;n2</title>
<path fill="none" stroke="#555555" d="M677.35,-96C738.84,-96 832.63,-96 896.49,-96"/>
<polygon fill="#555555" stroke="#555555" points="896.86,-99.5 906.86,-96 896.86,-92.5 896.86,-99.5"/>
</g>
<!-- n1&#45;&gt;n2 -->
<g id="edge5" class="edge">
<title>n1&#45;&gt;n2</title>
<path fill="none" stroke="#555555" d="M849.17,-124.36C864.45,-120.65 881.17,-116.59 897.07,-112.73"/>
<polygon fill="#555555" stroke="#555555" points="897.95,-116.12 906.84,-110.36 896.3,-109.32 897.95,-116.12"/>
</g>
<!-- n3 -->
<g id="node4" class="node">
<title>n3</title>
<path fill="#e8f4f8" stroke="black" d="M1223,-114C1223,-114 1097,-114 1097,-114 1091,-114 1085,-108 1085,-102 1085,-102 1085,-90 1085,-90 1085,-84 1091,-78 1097,-78 1097,-78 1223,-78 1223,-78 1229,-78 1235,-84 1235,-90 1235,-90 1235,-102 1235,-102 1235,-108 1229,-114 1223,-114"/>
<text text-anchor="middle" x="1160" y="-93.2" font-family="Helvetica" font-size="11.00">Merge Resource Balance</text>
</g>
<!-- n2&#45;&gt;n3 -->
<g id="edge2" class="edge">
<title>n2&#45;&gt;n3</title>
<path fill="none" stroke="#555555" d="M1027.13,-96C1042.13,-96 1058.55,-96 1074.55,-96"/>
<polygon fill="#555555" stroke="#555555" points="1074.99,-99.5 1084.99,-96 1074.99,-92.5 1074.99,-99.5"/>
</g>
<!-- n4 -->
<g id="node5" class="node">
<title>n4</title>
<path fill="#ffccbc" stroke="black" d="M1431,-114C1431,-114 1305,-114 1305,-114 1299,-114 1293,-108 1293,-102 1293,-102 1293,-90 1293,-90 1293,-84 1299,-78 1305,-78 1305,-78 1431,-78 1431,-78 1437,-78 1443,-84 1443,-90 1443,-90 1443,-102 1443,-102 1443,-108 1437,-114 1431,-114"/>
<text text-anchor="middle" x="1368" y="-93.2" font-family="Helvetica" font-size="11.00">Map FixedLine Response</text>
</g>
<!-- n3&#45;&gt;n4 -->
<g id="edge4" class="edge">
<title>n3&#45;&gt;n4</title>
<path fill="none" stroke="#555555" d="M1235.08,-96C1250.5,-96 1266.87,-96 1282.63,-96"/>
<polygon fill="#555555" stroke="#555555" points="1282.89,-99.5 1292.89,-96 1282.89,-92.5 1282.89,-99.5"/>
</g>
<!-- n5 -->
<g id="node6" class="node">
<title>n5</title>
<path fill="#ffccbc" stroke="black" d="M1543,-114C1543,-114 1513,-114 1513,-114 1507,-114 1501,-108 1501,-102 1501,-102 1501,-90 1501,-90 1501,-84 1507,-78 1513,-78 1513,-78 1543,-78 1543,-78 1549,-78 1555,-84 1555,-90 1555,-90 1555,-102 1555,-102 1555,-108 1549,-114 1543,-114"/>
<text text-anchor="middle" x="1528" y="-93.2" font-family="Helvetica" font-size="11.00">End</text>
</g>
<!-- n4&#45;&gt;n5 -->
<g id="edge3" class="edge">
<title>n4&#45;&gt;n5</title>
<path fill="none" stroke="#555555" d="M1443.37,-96C1459.83,-96 1476.55,-96 1490.68,-96"/>
<polygon fill="#555555" stroke="#555555" points="1490.92,-99.5 1500.92,-96 1490.92,-92.5 1490.92,-99.5"/>
</g>
<!-- n6 -->
<g id="node7" class="node">
<title>n6</title>
<path fill="#c8e6c9" stroke="black" d="M42,-75C42,-75 12,-75 12,-75 6,-75 0,-69 0,-63 0,-63 0,-51 0,-51 0,-45 6,-39 12,-39 12,-39 42,-39 42,-39 48,-39 54,-45 54,-51 54,-51 54,-63 54,-63 54,-69 48,-75 42,-75"/>
<text text-anchor="middle" x="27" y="-54.2" font-family="Helvetica" font-size="11.00">Start</text>
</g>
<!-- n7 -->
<g id="node8" class="node">
<title>n7</title>
<path fill="#e8f4f8" stroke="black" d="M253.5,-115C253.5,-115 165.5,-115 165.5,-115 159.5,-115 153.5,-109 153.5,-103 153.5,-103 153.5,-91 153.5,-91 153.5,-85 159.5,-79 165.5,-79 165.5,-79 253.5,-79 253.5,-79 259.5,-79 265.5,-85 265.5,-91 265.5,-91 265.5,-103 265.5,-103 265.5,-109 259.5,-115 253.5,-115"/>
<text text-anchor="middle" x="209.5" y="-94.2" font-family="Helvetica" font-size="11.00">CallReferenceDB</text>
</g>
<!-- n6&#45;&gt;n7 -->
<g id="edge7" class="edge">
<title>n6&#45;&gt;n7</title>
<path fill="none" stroke="#555555" d="M54.25,-62.82C77.54,-67.98 112.55,-75.74 143.33,-82.56"/>
<polygon fill="#555555" stroke="#555555" points="142.64,-85.99 153.16,-84.74 144.15,-79.15 142.64,-85.99"/>
</g>
<!-- n8 -->
<g id="node9" class="node">
<title>n8</title>
<path fill="#ffcdd2" stroke="black" d="M295,-36C295,-36 124,-36 124,-36 118,-36 112,-30 112,-24 112,-24 112,-12 112,-12 112,-6 118,0 124,0 124,0 295,0 295,0 301,0 307,-6 307,-12 307,-12 307,-24 307,-24 307,-30 301,-36 295,-36"/>
<text text-anchor="middle" x="209.5" y="-15.2" font-family="Helvetica" font-size="11.00">Generate&#45;Error for ResponseCode</text>
</g>
<!-- n6&#45;&gt;n8 -->
<g id="edge9" class="edge">
<title>n6&#45;&gt;n8</title>
<path fill="none" stroke="#555555" d="M54.25,-51.33C70.6,-47.8 92.73,-43.01 115.12,-38.18"/>
<polygon fill="#555555" stroke="#555555" points="116.02,-41.56 125.05,-36.03 114.54,-34.72 116.02,-41.56"/>
</g>
<!-- n7&#45;&gt;n0 -->
<g id="edge8" class="edge">
<title>n7&#45;&gt;n0</title>
<path fill="none" stroke="#555555" d="M265.62,-96.86C337.02,-96.69 461.65,-96.38 540.61,-96.18"/>
<polygon fill="#555555" stroke="#555555" points="540.97,-99.68 550.96,-96.15 540.95,-92.68 540.97,-99.68"/>
</g>
<!-- n9 -->
<g id="node10" class="node">
<title>n9</title>
<path fill="#e8f4f8" stroke="black" d="M481,-73C481,-73 377,-73 377,-73 371,-73 365,-67 365,-61 365,-61 365,-49 365,-49 365,-43 371,-37 377,-37 377,-37 481,-37 481,-37 487,-37 493,-43 493,-49 493,-49 493,-61 493,-61 493,-67 487,-73 481,-73"/>
<text text-anchor="middle" x="429" y="-52.2" font-family="Helvetica" font-size="11.00">GetServiceSummary</text>
</g>
<!-- n7&#45;&gt;n9 -->
<g id="edge10" class="edge">
<title>n7&#45;&gt;n9</title>
<path fill="none" stroke="#555555" d="M265.67,-86.35C292.68,-81.13 325.59,-74.78 354.69,-69.16"/>
<polygon fill="#555555" stroke="#555555" points="355.65,-72.54 364.81,-67.2 354.32,-65.66 355.65,-72.54"/>
</g>
<!-- n9&#45;&gt;n0 -->
<g id="edge11" class="edge">
<title>n9&#45;&gt;n0</title>
<path fill="none" stroke="#555555" d="M493.23,-69.17C508.49,-72.58 524.91,-76.26 540.55,-79.77"/>
<polygon fill="#555555" stroke="#555555" points="540.17,-83.27 550.69,-82.04 541.7,-76.44 540.17,-83.27"/>
</g>
</g>
</svg>
