<?xml version="1.0" encoding="UTF-8" standalone="no"?>
<!DOCTYPE svg PUBLIC "-//W3C//DTD SVG 1.1//EN"
 "http://www.w3.org/Graphics/SVG/1.1/DTD/svg11.dtd">
<!-- Generated by graphviz version 2.44.0 (0)
 -->
<!-- Title: process Pages: 1 -->
<svg width="743pt" height="187pt"
 viewBox="0.00 0.00 743.00 187.00" xmlns="http://www.w3.org/2000/svg" xmlns:xlink="http://www.w3.org/1999/xlink">
<g id="graph0" class="graph" transform="scale(1 1) rotate(0) translate(36 151)">
<title>process</title>
<polygon fill="#ffffff" stroke="transparent" points="-36,36 -36,-151 707,-151 707,36 -36,36"/>
<!-- n0 -->
<g id="node1" class="node">
<title>n0</title>
<path fill="#c8e6c9" stroke="black" d="M42,-75C42,-75 12,-75 12,-75 6,-75 0,-69 0,-63 0,-63 0,-51 0,-51 0,-45 6,-39 12,-39 12,-39 42,-39 42,-39 48,-39 54,-45 54,-51 54,-51 54,-63 54,-63 54,-69 48,-75 42,-75"/>
<text text-anchor="middle" x="27" y="-54.2" font-family="Helvetica" font-size="11.00">Start</text>
</g>
<!-- n1 -->
<g id="node2" class="node">
<title>n1</title>
<path fill="#e8f4f8" stroke="black" d="M213,-115C213,-115 124,-115 124,-115 118,-115 112,-109 112,-103 112,-103 112,-91 112,-91 112,-85 118,-79 124,-79 124,-79 213,-79 213,-79 219,-79 225,-85 225,-91 225,-91 225,-103 225,-103 225,-109 219,-115 213,-115"/>
<text text-anchor="middle" x="168.5" y="-94.2" font-family="Helvetica" font-size="11.00">ExceptionCatcher</text>
</g>
<!-- n0&#45;&gt;n1 -->
<g id="edge1" class="edge">
<title>n0&#45;&gt;n1</title>
<path fill="none" stroke="#555555" d="M54.24,-64.52C67.83,-68.42 85.09,-73.37 102.02,-78.22"/>
<polygon fill="#555555" stroke="#555555" points="101.33,-81.67 111.91,-81.06 103.26,-74.94 101.33,-81.67"/>
</g>
<!-- n4 -->
<g id="node5" class="node">
<title>n4</title>
<path fill="#ffcdd2" stroke="black" d="M207,-36C207,-36 130,-36 130,-36 124,-36 118,-30 118,-24 118,-24 118,-12 118,-12 118,-6 124,0 130,0 130,0 207,0 207,0 213,0 219,-6 219,-12 219,-12 219,-24 219,-24 219,-30 213,-36 207,-36"/>
<text text-anchor="middle" x="168.5" y="-15.2" font-family="Helvetica" font-size="11.00">Generate Error</text>
</g>
<!-- n0&#45;&gt;n4 -->
<g id="edge3" class="edge">
<title>n0&#45;&gt;n4</title>
<path fill="none" stroke="#555555" d="M54.24,-49.66C69.5,-45.4 89.38,-39.84 108.22,-34.57"/>
<polygon fill="#555555" stroke="#555555" points="109.25,-37.92 117.94,-31.86 107.37,-31.18 109.25,-37.92"/>
</g>
<!-- n5 -->
<g id="node6" class="node">
<title>n5</title>
<path fill="#e8f4f8" stroke="black" d="M356,-115C356,-115 295,-115 295,-115 289,-115 283,-109 283,-103 283,-103 283,-91 283,-91 283,-85 289,-79 295,-79 295,-79 356,-79 356,-79 362,-79 368,-85 368,-91 368,-91 368,-103 368,-103 368,-109 362,-115 356,-115"/>
<text text-anchor="middle" x="325.5" y="-94.2" font-family="Helvetica" font-size="11.00">GetVariable</text>
</g>
<!-- n1&#45;&gt;n5 -->
<g id="edge4" class="edge">
<title>n1&#45;&gt;n5</title>
<path fill="none" stroke="#555555" d="M225.02,-97C240.55,-97 257.36,-97 272.66,-97"/>
<polygon fill="#555555" stroke="#555555" points="272.99,-100.5 282.99,-97 272.99,-93.5 272.99,-100.5"/>
</g>
<!-- n2 -->
<g id="node3" class="node">
<title>n2</title>
<path fill="#e8f4f8" stroke="black" d="M547,-115C547,-115 438,-115 438,-115 432,-115 426,-109 426,-103 426,-103 426,-91 426,-91 426,-85 432,-79 438,-79 438,-79 547,-79 547,-79 553,-79 559,-85 559,-91 559,-91 559,-103 559,-103 559,-109 553,-115 547,-115"/>
<text text-anchor="middle" x="492.5" y="-94.2" font-family="Helvetica" font-size="11.00">CreditControlRequest</text>
</g>
<!-- n3 -->
<g id="node4" class="node">
<title>n3</title>
<path fill="#ffccbc" stroke="black" d="M659,-115C659,-115 629,-115 629,-115 623,-115 617,-109 617,-103 617,-103 617,-91 617,-91 617,-85 623,-79 629,-79 629,-79 659,-79 659,-79 665,-79 671,-85 671,-91 671,-91 671,-103 671,-103 671,-109 665,-115 659,-115"/>
<text text-anchor="middle" x="644" y="-94.2" font-family="Helvetica" font-size="11.00">End</text>
</g>
<!-- n2&#45;&gt;n3 -->
<g id="edge2" class="edge">
<title>n2&#45;&gt;n3</title>
<path fill="none" stroke="#555555" d="M559.07,-97C575.33,-97 592.17,-97 606.46,-97"/>
<polygon fill="#555555" stroke="#555555" points="606.84,-100.5 616.84,-97 606.84,-93.5 606.84,-100.5"/>
</g>
<!-- n5&#45;&gt;n2 -->
<g id="edge5" class="edge">
<title>n5&#45;&gt;n2</title>
<path fill="none" stroke="#555555" d="M368.14,-97C382.6,-97 399.32,-97 415.67,-97"/>
<polygon fill="#555555" stroke="#555555" points="415.79,-100.5 425.79,-97 415.79,-93.5 415.79,-100.5"/>
</g>
</g>
</svg>
