<?xml version="1.0" encoding="UTF-8" standalone="no"?>
<!DOCTYPE svg PUBLIC "-//W3C//DTD SVG 1.1//EN"
 "http://www.w3.org/Graphics/SVG/1.1/DTD/svg11.dtd">
<!-- Generated by graphviz version 2.44.0 (0)
 -->
<!-- Title: process Pages: 1 -->
<svg width="639pt" height="187pt"
 viewBox="0.00 0.00 639.00 187.00" xmlns="http://www.w3.org/2000/svg" xmlns:xlink="http://www.w3.org/1999/xlink">
<g id="graph0" class="graph" transform="scale(1 1) rotate(0) translate(36 151)">
<title>process</title>
<polygon fill="#ffffff" stroke="transparent" points="-36,36 -36,-151 603,-151 603,36 -36,36"/>
<!-- n0 -->
<g id="node1" class="node">
<title>n0</title>
<path fill="#c8e6c9" stroke="black" d="M42,-75C42,-75 12,-75 12,-75 6,-75 0,-69 0,-63 0,-63 0,-51 0,-51 0,-45 6,-39 12,-39 12,-39 42,-39 42,-39 48,-39 54,-45 54,-51 54,-51 54,-63 54,-63 54,-69 48,-75 42,-75"/>
<text text-anchor="middle" x="27" y="-54.2" font-family="Helvetica" font-size="11.00">Start</text>
</g>
<!-- n1 -->
<g id="node2" class="node">
<title>n1</title>
<path fill="#e8f4f8" stroke="black" d="M222,-75C222,-75 124,-75 124,-75 118,-75 112,-69 112,-63 112,-63 112,-51 112,-51 112,-45 118,-39 124,-39 124,-39 222,-39 222,-39 228,-39 234,-45 234,-51 234,-51 234,-63 234,-63 234,-69 228,-75 222,-75"/>
<text text-anchor="middle" x="173" y="-54.2" font-family="Helvetica" font-size="11.00">GenerateCURError</text>
</g>
<!-- n0&#45;&gt;n1 -->
<g id="edge1" class="edge">
<title>n0&#45;&gt;n1</title>
<path fill="none" stroke="#555555" d="M54.08,-57C67.43,-57 84.41,-57 101.29,-57"/>
<polygon fill="#555555" stroke="#555555" points="101.75,-60.5 111.75,-57 101.75,-53.5 101.75,-60.5"/>
</g>
<!-- n2 -->
<g id="node3" class="node">
<title>n2</title>
<path fill="#ffccbc" stroke="black" d="M365,-115C365,-115 335,-115 335,-115 329,-115 323,-109 323,-103 323,-103 323,-91 323,-91 323,-85 329,-79 335,-79 335,-79 365,-79 365,-79 371,-79 377,-85 377,-91 377,-91 377,-103 377,-103 377,-109 371,-115 365,-115"/>
<text text-anchor="middle" x="350" y="-94.2" font-family="Helvetica" font-size="11.00">End</text>
</g>
<!-- n1&#45;&gt;n2 -->
<g id="edge2" class="edge">
<title>n1&#45;&gt;n2</title>
<path fill="none" stroke="#555555" d="M234.23,-70.77C260.46,-76.76 290.33,-83.59 313.02,-88.78"/>
<polygon fill="#555555" stroke="#555555" points="312.38,-92.22 322.9,-91.04 313.94,-85.39 312.38,-92.22"/>
</g>
<!-- n3 -->
<g id="node4" class="node">
<title>n3</title>
<path fill="#e8f4f8" stroke="black" d="M396,-36C396,-36 304,-36 304,-36 298,-36 292,-30 292,-24 292,-24 292,-12 292,-12 292,-6 298,0 304,0 304,0 396,0 396,0 402,0 408,-6 408,-12 408,-12 408,-24 408,-24 408,-30 402,-36 396,-36"/>
<text text-anchor="middle" x="350" y="-15.2" font-family="Helvetica" font-size="11.00">MapAnyException</text>
</g>
<!-- n1&#45;&gt;n3 -->
<g id="edge3" class="edge">
<title>n1&#45;&gt;n3</title>
<path fill="none" stroke="#555555" d="M234.23,-43.58C249.55,-40.16 266.12,-36.47 281.78,-32.98"/>
<polygon fill="#555555" stroke="#555555" points="282.91,-36.31 291.91,-30.72 281.39,-29.48 282.91,-36.31"/>
</g>
<!-- n4 -->
<g id="node5" class="node">
<title>n4</title>
<path fill="#ffcdd2" stroke="black" d="M555,-36C555,-36 478,-36 478,-36 472,-36 466,-30 466,-24 466,-24 466,-12 466,-12 466,-6 472,0 478,0 478,0 555,0 555,0 561,0 567,-6 567,-12 567,-12 567,-24 567,-24 567,-30 561,-36 555,-36"/>
<text text-anchor="middle" x="516.5" y="-15.2" font-family="Helvetica" font-size="11.00">Generate Error</text>
</g>
<!-- n3&#45;&gt;n4 -->
<g id="edge4" class="edge">
<title>n3&#45;&gt;n4</title>
<path fill="none" stroke="#555555" d="M408.07,-18C423.53,-18 440.29,-18 455.88,-18"/>
<polygon fill="#555555" stroke="#555555" points="455.93,-21.5 465.93,-18 455.93,-14.5 455.93,-21.5"/>
</g>
</g>
</svg>
