<?xml version="1.0" encoding="UTF-8" standalone="no"?>
<!DOCTYPE svg PUBLIC "-//W3C//DTD SVG 1.1//EN"
 "http://www.w3.org/Graphics/SVG/1.1/DTD/svg11.dtd">
<!-- Generated by graphviz version 2.44.0 (0)
 -->
<!-- Title: process Pages: 1 -->
<svg width="562pt" height="266pt"
 viewBox="0.00 0.00 562.00 266.00" xmlns="http://www.w3.org/2000/svg" xmlns:xlink="http://www.w3.org/1999/xlink">
<g id="graph0" class="graph" transform="scale(1 1) rotate(0) translate(36 230)">
<title>process</title>
<polygon fill="#ffffff" stroke="transparent" points="-36,36 -36,-230 526,-230 526,36 -36,36"/>
<!-- n0 -->
<g id="node1" class="node">
<title>n0</title>
<path fill="#c8e6c9" stroke="black" d="M82,-36C82,-36 52,-36 52,-36 46,-36 40,-30 40,-24 40,-24 40,-12 40,-12 40,-6 46,0 52,0 52,0 82,0 82,0 88,0 94,-6 94,-12 94,-12 94,-24 94,-24 94,-30 88,-36 82,-36"/>
<text text-anchor="middle" x="67" y="-15.2" font-family="Helvetica" font-size="11.00">start</text>
</g>
<!-- n1 -->
<g id="node2" class="node">
<title>n1</title>
<path fill="#e8f4f8" stroke="black" d="M319,-36C319,-36 204,-36 204,-36 198,-36 192,-30 192,-24 192,-24 192,-12 192,-12 192,-6 198,0 204,0 204,0 319,0 319,0 325,0 331,-6 331,-12 331,-12 331,-24 331,-24 331,-30 325,-36 319,-36"/>
<text text-anchor="middle" x="261.5" y="-15.2" font-family="Helvetica" font-size="11.00">LoadProductCatalouge</text>
</g>
<!-- n0&#45;&gt;n1 -->
<g id="edge1" class="edge">
<title>n0&#45;&gt;n1</title>
<path fill="none" stroke="#555555" d="M94.36,-18C116.94,-18 150.65,-18 181.82,-18"/>
<polygon fill="#555555" stroke="#555555" points="181.83,-21.5 191.83,-18 181.83,-14.5 181.83,-21.5"/>
</g>
<!-- n2 -->
<g id="node3" class="node">
<title>n2</title>
<path fill="#ffccbc" stroke="black" d="M454.5,-36C454.5,-36 424.5,-36 424.5,-36 418.5,-36 412.5,-30 412.5,-24 412.5,-24 412.5,-12 412.5,-12 412.5,-6 418.5,0 424.5,0 424.5,0 454.5,0 454.5,0 460.5,0 466.5,-6 466.5,-12 466.5,-12 466.5,-24 466.5,-24 466.5,-30 460.5,-36 454.5,-36"/>
<text text-anchor="middle" x="439.5" y="-15.2" font-family="Helvetica" font-size="11.00">end</text>
</g>
<!-- n1&#45;&gt;n2 -->
<g id="edge2" class="edge">
<title>n1&#45;&gt;n2</title>
<path fill="none" stroke="#555555" d="M331.05,-18C355.21,-18 381.44,-18 401.93,-18"/>
<polygon fill="#555555" stroke="#555555" points="402.08,-21.5 412.08,-18 402.08,-14.5 402.08,-21.5"/>
</g>
<!-- n3 -->
<g id="node4" class="node">
<title>n3</title>
<path fill="#e8f4f8" stroke="black" d="M122,-154C122,-154 12,-154 12,-154 6,-154 0,-148 0,-142 0,-142 0,-130 0,-130 0,-124 6,-118 12,-118 12,-118 122,-118 122,-118 128,-118 134,-124 134,-130 134,-130 134,-142 134,-142 134,-148 128,-154 122,-154"/>
<text text-anchor="middle" x="67" y="-133.2" font-family="Helvetica" font-size="11.00">JMS Topic Subscriber</text>
</g>
<!-- n4 -->
<g id="node5" class="node">
<title>n4</title>
<path fill="#e8f4f8" stroke="black" d="M279,-154C279,-154 244,-154 244,-154 238,-154 232,-148 232,-142 232,-142 232,-130 232,-130 232,-124 238,-118 244,-118 244,-118 279,-118 279,-118 285,-118 291,-124 291,-130 291,-130 291,-142 291,-142 291,-148 285,-154 279,-154"/>
<text text-anchor="middle" x="261.5" y="-133.2" font-family="Helvetica" font-size="11.00">Group</text>
</g>
<!-- n3&#45;&gt;n4 -->
<g id="edge3" class="edge">
<title>n3&#45;&gt;n4</title>
<path fill="none" stroke="#555555" d="M134.25,-136C163.37,-136 196.56,-136 221.6,-136"/>
<polygon fill="#555555" stroke="#555555" points="221.79,-139.5 231.79,-136 221.79,-132.5 221.79,-139.5"/>
</g>
<!-- n5 -->
<g id="node6" class="node">
<title>n5</title>
<path fill="#ffccbc" stroke="black" d="M454.5,-194C454.5,-194 424.5,-194 424.5,-194 418.5,-194 412.5,-188 412.5,-182 412.5,-182 412.5,-170 412.5,-170 412.5,-164 418.5,-158 424.5,-158 424.5,-158 454.5,-158 454.5,-158 460.5,-158 466.5,-164 466.5,-170 466.5,-170 466.5,-182 466.5,-182 466.5,-188 460.5,-194 454.5,-194"/>
<text text-anchor="middle" x="439.5" y="-173.2" font-family="Helvetica" font-size="11.00">End</text>
</g>
<!-- n4&#45;&gt;n5 -->
<g id="edge4" class="edge">
<title>n4&#45;&gt;n5</title>
<path fill="none" stroke="#555555" d="M291.17,-142.52C321.49,-149.41 369.41,-160.3 402.31,-167.78"/>
<polygon fill="#555555" stroke="#555555" points="401.9,-171.27 412.43,-170.07 403.45,-164.45 401.9,-171.27"/>
</g>
<!-- n6 -->
<g id="node7" class="node">
<title>n6</title>
<path fill="#ffcdd2" stroke="black" d="M478,-115C478,-115 401,-115 401,-115 395,-115 389,-109 389,-103 389,-103 389,-91 389,-91 389,-85 395,-79 401,-79 401,-79 478,-79 478,-79 484,-79 490,-85 490,-91 490,-91 490,-103 490,-103 490,-109 484,-115 478,-115"/>
<text text-anchor="middle" x="439.5" y="-94.2" font-family="Helvetica" font-size="11.00">Generate Error</text>
</g>
<!-- n4&#45;&gt;n6 -->
<g id="edge5" class="edge">
<title>n4&#45;&gt;n6</title>
<path fill="none" stroke="#555555" d="M291.17,-129.65C314.89,-124.39 349.36,-116.75 379,-110.18"/>
<polygon fill="#555555" stroke="#555555" points="379.84,-113.58 388.85,-108 378.33,-106.75 379.84,-113.58"/>
</g>
</g>
</svg>
