<?xml version="1.0" encoding="UTF-8" standalone="no"?>
<!DOCTYPE svg PUBLIC "-//W3C//DTD SVG 1.1//EN"
 "http://www.w3.org/Graphics/SVG/1.1/DTD/svg11.dtd">
<!-- Generated by graphviz version 2.44.0 (0)
 -->
<!-- Title: process Pages: 1 -->
<svg width="761pt" height="315pt"
 viewBox="0.00 0.00 761.00 315.00" xmlns="http://www.w3.org/2000/svg" xmlns:xlink="http://www.w3.org/1999/xlink">
<g id="graph0" class="graph" transform="scale(1 1) rotate(0) translate(36 279)">
<title>process</title>
<polygon fill="#ffffff" stroke="transparent" points="-36,36 -36,-279 725,-279 725,36 -36,36"/>
<!-- n0 -->
<g id="node1" class="node">
<title>n0</title>
<path fill="#c8e6c9" stroke="black" d="M42,-78C42,-78 12,-78 12,-78 6,-78 0,-72 0,-66 0,-66 0,-54 0,-54 0,-48 6,-42 12,-42 12,-42 42,-42 42,-42 48,-42 54,-48 54,-54 54,-54 54,-66 54,-66 54,-72 48,-78 42,-78"/>
<text text-anchor="middle" x="27" y="-57.2" font-family="Helvetica" font-size="11.00">start</text>
</g>
<!-- n1 -->
<g id="node2" class="node">
<title>n1</title>
<path fill="#e8f4f8" stroke="black" d="M240,-78C240,-78 124,-78 124,-78 118,-78 112,-72 112,-66 112,-66 112,-54 112,-54 112,-48 118,-42 124,-42 124,-42 240,-42 240,-42 246,-42 252,-48 252,-54 252,-54 252,-66 252,-66 252,-72 246,-78 240,-78"/>
<text text-anchor="middle" x="182" y="-57.2" font-family="Helvetica" font-size="11.00">ServiceExceptionClient</text>
</g>
<!-- n0&#45;&gt;n1 -->
<g id="edge1" class="edge">
<title>n0&#45;&gt;n1</title>
<path fill="none" stroke="#555555" d="M54.3,-60C67.66,-60 84.67,-60 101.86,-60"/>
<polygon fill="#555555" stroke="#555555" points="101.97,-63.5 111.97,-60 101.97,-56.5 101.97,-63.5"/>
</g>
<!-- n2 -->
<g id="node3" class="node">
<title>n2</title>
<path fill="#ffccbc" stroke="black" d="M554.5,-77C554.5,-77 524.5,-77 524.5,-77 518.5,-77 512.5,-71 512.5,-65 512.5,-65 512.5,-53 512.5,-53 512.5,-47 518.5,-41 524.5,-41 524.5,-41 554.5,-41 554.5,-41 560.5,-41 566.5,-47 566.5,-53 566.5,-53 566.5,-65 566.5,-65 566.5,-71 560.5,-77 554.5,-77"/>
<text text-anchor="middle" x="539.5" y="-56.2" font-family="Helvetica" font-size="11.00">end</text>
</g>
<!-- n1&#45;&gt;n2 -->
<g id="edge2" class="edge">
<title>n1&#45;&gt;n2</title>
<path fill="none" stroke="#555555" d="M252.39,-59.8C327.15,-59.59 443.26,-59.27 501.92,-59.1"/>
<polygon fill="#555555" stroke="#555555" points="502.2,-62.6 512.19,-59.07 502.18,-55.6 502.2,-62.6"/>
</g>
<!-- n3 -->
<g id="node4" class="node">
<title>n3</title>
<path fill="#e8f4f8" stroke="black" d="M432,-36C432,-36 322,-36 322,-36 316,-36 310,-30 310,-24 310,-24 310,-12 310,-12 310,-6 316,0 322,0 322,0 432,0 432,0 438,0 444,-6 444,-12 444,-12 444,-24 444,-24 444,-30 438,-36 432,-36"/>
<text text-anchor="middle" x="377" y="-15.2" font-family="Helvetica" font-size="11.00">PublishToRetryQueue</text>
</g>
<!-- n1&#45;&gt;n3 -->
<g id="edge4" class="edge">
<title>n1&#45;&gt;n3</title>
<path fill="none" stroke="#555555" d="M252.13,-44.96C267.57,-41.6 284.03,-38.01 299.74,-34.6"/>
<polygon fill="#555555" stroke="#555555" points="300.91,-37.92 309.93,-32.38 299.42,-31.08 300.91,-37.92"/>
</g>
<!-- n3&#45;&gt;n2 -->
<g id="edge3" class="edge">
<title>n3&#45;&gt;n2</title>
<path fill="none" stroke="#555555" d="M444.21,-34.91C464.09,-39.99 485.15,-45.37 502.32,-49.76"/>
<polygon fill="#555555" stroke="#555555" points="501.9,-53.26 512.46,-52.35 503.64,-46.48 501.9,-53.26"/>
</g>
<!-- n4 -->
<g id="node5" class="node">
<title>n4</title>
<path fill="#c8e6c9" stroke="black" d="M42,-243C42,-243 12,-243 12,-243 6,-243 0,-237 0,-231 0,-231 0,-219 0,-219 0,-213 6,-207 12,-207 12,-207 42,-207 42,-207 48,-207 54,-213 54,-219 54,-219 54,-231 54,-231 54,-237 48,-243 42,-243"/>
<text text-anchor="middle" x="27" y="-222.2" font-family="Helvetica" font-size="11.00">Start</text>
</g>
<!-- n5 -->
<g id="node6" class="node">
<title>n5</title>
<path fill="#e8f4f8" stroke="black" d="M199.5,-243C199.5,-243 164.5,-243 164.5,-243 158.5,-243 152.5,-237 152.5,-231 152.5,-231 152.5,-219 152.5,-219 152.5,-213 158.5,-207 164.5,-207 164.5,-207 199.5,-207 199.5,-207 205.5,-207 211.5,-213 211.5,-219 211.5,-219 211.5,-231 211.5,-231 211.5,-237 205.5,-243 199.5,-243"/>
<text text-anchor="middle" x="182" y="-222.2" font-family="Helvetica" font-size="11.00">Group</text>
</g>
<!-- n4&#45;&gt;n5 -->
<g id="edge5" class="edge">
<title>n4&#45;&gt;n5</title>
<path fill="none" stroke="#555555" d="M54.3,-225C78.55,-225 114.83,-225 142.37,-225"/>
<polygon fill="#555555" stroke="#555555" points="142.45,-228.5 152.45,-225 142.45,-221.5 142.45,-228.5"/>
</g>
<!-- n6 -->
<g id="node7" class="node">
<title>n6</title>
<path fill="#e8f4f8" stroke="black" d="M565,-243C565,-243 514,-243 514,-243 508,-243 502,-237 502,-231 502,-231 502,-219 502,-219 502,-213 508,-207 514,-207 514,-207 565,-207 565,-207 571,-207 577,-213 577,-219 577,-219 577,-231 577,-231 577,-237 571,-243 565,-243"/>
<text text-anchor="middle" x="539.5" y="-222.2" font-family="Helvetica" font-size="11.00">Map Data</text>
</g>
<!-- n5&#45;&gt;n6 -->
<g id="edge6" class="edge">
<title>n5&#45;&gt;n6</title>
<path fill="none" stroke="#555555" d="M211.79,-225C273.12,-225 417.15,-225 491.8,-225"/>
<polygon fill="#555555" stroke="#555555" points="491.85,-228.5 501.85,-225 491.85,-221.5 491.85,-228.5"/>
</g>
<!-- n7 -->
<g id="node8" class="node">
<title>n7</title>
<path fill="#ffcdd2" stroke="black" d="M402,-202C402,-202 352,-202 352,-202 346,-202 340,-196 340,-190 340,-190 340,-178 340,-178 340,-172 346,-166 352,-166 352,-166 402,-166 402,-166 408,-166 414,-172 414,-178 414,-178 414,-190 414,-190 414,-196 408,-202 402,-202"/>
<text text-anchor="middle" x="377" y="-181.2" font-family="Helvetica" font-size="11.00">Log Error</text>
</g>
<!-- n5&#45;&gt;n7 -->
<g id="edge7" class="edge">
<title>n5&#45;&gt;n7</title>
<path fill="none" stroke="#555555" d="M211.89,-218.86C243.13,-212.23 293.37,-201.55 330.04,-193.76"/>
<polygon fill="#555555" stroke="#555555" points="330.94,-197.15 339.99,-191.65 329.49,-190.3 330.94,-197.15"/>
</g>
<!-- n8 -->
<g id="node9" class="node">
<title>n8</title>
<path fill="#ffccbc" stroke="black" d="M677,-243C677,-243 647,-243 647,-243 641,-243 635,-237 635,-231 635,-231 635,-219 635,-219 635,-213 641,-207 647,-207 647,-207 677,-207 677,-207 683,-207 689,-213 689,-219 689,-219 689,-231 689,-231 689,-237 683,-243 677,-243"/>
<text text-anchor="middle" x="662" y="-222.2" font-family="Helvetica" font-size="11.00">End</text>
</g>
<!-- n6&#45;&gt;n8 -->
<g id="edge9" class="edge">
<title>n6&#45;&gt;n8</title>
<path fill="none" stroke="#555555" d="M577.31,-225C592.23,-225 609.43,-225 624.35,-225"/>
<polygon fill="#555555" stroke="#555555" points="624.73,-228.5 634.73,-225 624.73,-221.5 624.73,-228.5"/>
</g>
<!-- n7&#45;&gt;n6 -->
<g id="edge8" class="edge">
<title>n7&#45;&gt;n6</title>
<path fill="none" stroke="#555555" d="M414.02,-193.2C437.01,-199.07 467.04,-206.75 491.84,-213.08"/>
<polygon fill="#555555" stroke="#555555" points="491.21,-216.53 501.77,-215.62 492.94,-209.75 491.21,-216.53"/>
</g>
</g>
</svg>
