<?xml version="1.0" encoding="UTF-8" standalone="no"?>
<!DOCTYPE svg PUBLIC "-//W3C//DTD SVG 1.1//EN"
 "http://www.w3.org/Graphics/SVG/1.1/DTD/svg11.dtd">
<!-- Generated by graphviz version 2.44.0 (0)
 -->
<!-- Title: process Pages: 1 -->
<svg width="812pt" height="187pt"
 viewBox="0.00 0.00 812.00 187.00" xmlns="http://www.w3.org/2000/svg" xmlns:xlink="http://www.w3.org/1999/xlink">
<g id="graph0" class="graph" transform="scale(1 1) rotate(0) translate(36 151)">
<title>process</title>
<polygon fill="#ffffff" stroke="transparent" points="-36,36 -36,-151 776,-151 776,36 -36,36"/>
<!-- n0 -->
<g id="node1" class="node">
<title>n0</title>
<path fill="#e8f4f8" stroke="black" d="M64,-75C64,-75 12,-75 12,-75 6,-75 0,-69 0,-63 0,-63 0,-51 0,-51 0,-45 6,-39 12,-39 12,-39 64,-39 64,-39 70,-39 76,-45 76,-51 76,-51 76,-63 76,-63 76,-69 70,-75 64,-75"/>
<text text-anchor="middle" x="38" y="-54.2" font-family="Helvetica" font-size="11.00">onStartup</text>
</g>
<!-- n1 -->
<g id="node2" class="node">
<title>n1</title>
<path fill="#c8e6c9" stroke="black" d="M223,-75C223,-75 146,-75 146,-75 140,-75 134,-69 134,-63 134,-63 134,-51 134,-51 134,-45 140,-39 146,-39 146,-39 223,-39 223,-39 229,-39 235,-45 235,-51 235,-51 235,-63 235,-63 235,-69 229,-75 223,-75"/>
<text text-anchor="middle" x="184.5" y="-54.2" font-family="Helvetica" font-size="11.00">Start Log Audit</text>
</g>
<!-- n0&#45;&gt;n1 -->
<g id="edge1" class="edge">
<title>n0&#45;&gt;n1</title>
<path fill="none" stroke="#555555" d="M76.21,-57C90.62,-57 107.47,-57 123.5,-57"/>
<polygon fill="#555555" stroke="#555555" points="123.88,-60.5 133.88,-57 123.88,-53.5 123.88,-60.5"/>
</g>
<!-- n4 -->
<g id="node5" class="node">
<title>n4</title>
<path fill="#e8f4f8" stroke="black" d="M427,-75C427,-75 305,-75 305,-75 299,-75 293,-69 293,-63 293,-63 293,-51 293,-51 293,-45 299,-39 305,-39 305,-39 427,-39 427,-39 433,-39 439,-45 439,-51 439,-51 439,-63 439,-63 439,-69 433,-75 427,-75"/>
<text text-anchor="middle" x="366" y="-54.2" font-family="Helvetica" font-size="11.00">LoadAllOSMErrorCodes</text>
</g>
<!-- n1&#45;&gt;n4 -->
<g id="edge3" class="edge">
<title>n1&#45;&gt;n4</title>
<path fill="none" stroke="#555555" d="M235.02,-57C249.81,-57 266.42,-57 282.71,-57"/>
<polygon fill="#555555" stroke="#555555" points="282.79,-60.5 292.79,-57 282.79,-53.5 282.79,-60.5"/>
</g>
<!-- n2 -->
<g id="node3" class="node">
<title>n2</title>
<path fill="#ffccbc" stroke="black" d="M599,-115C599,-115 526,-115 526,-115 520,-115 514,-109 514,-103 514,-103 514,-91 514,-91 514,-85 520,-79 526,-79 526,-79 599,-79 599,-79 605,-79 611,-85 611,-91 611,-91 611,-103 611,-103 611,-109 605,-115 599,-115"/>
<text text-anchor="middle" x="562.5" y="-94.2" font-family="Helvetica" font-size="11.00">End Audit Log</text>
</g>
<!-- n3 -->
<g id="node4" class="node">
<title>n3</title>
<path fill="#ffccbc" stroke="black" d="M728,-75C728,-75 698,-75 698,-75 692,-75 686,-69 686,-63 686,-63 686,-51 686,-51 686,-45 692,-39 698,-39 698,-39 728,-39 728,-39 734,-39 740,-45 740,-51 740,-51 740,-63 740,-63 740,-69 734,-75 728,-75"/>
<text text-anchor="middle" x="713" y="-54.2" font-family="Helvetica" font-size="11.00">End</text>
</g>
<!-- n2&#45;&gt;n3 -->
<g id="edge2" class="edge">
<title>n2&#45;&gt;n3</title>
<path fill="none" stroke="#555555" d="M611.3,-84.12C632.39,-78.44 656.74,-71.88 676.22,-66.64"/>
<polygon fill="#555555" stroke="#555555" points="677.17,-70.01 685.92,-64.03 675.35,-63.25 677.17,-70.01"/>
</g>
<!-- n4&#45;&gt;n2 -->
<g id="edge4" class="edge">
<title>n4&#45;&gt;n2</title>
<path fill="none" stroke="#555555" d="M439.15,-71.84C460.51,-76.23 483.61,-80.98 503.92,-85.16"/>
<polygon fill="#555555" stroke="#555555" points="503.46,-88.64 513.96,-87.22 504.87,-81.78 503.46,-88.64"/>
</g>
<!-- n5 -->
<g id="node6" class="node">
<title>n5</title>
<path fill="#e8f4f8" stroke="black" d="M616,-36C616,-36 509,-36 509,-36 503,-36 497,-30 497,-24 497,-24 497,-12 497,-12 497,-6 503,0 509,0 509,0 616,0 616,0 622,0 628,-6 628,-12 628,-12 628,-24 628,-24 628,-30 622,-36 616,-36"/>
<text text-anchor="middle" x="562.5" y="-15.2" font-family="Helvetica" font-size="11.00">Shutdown BWEngine</text>
</g>
<!-- n4&#45;&gt;n5 -->
<g id="edge5" class="edge">
<title>n4&#45;&gt;n5</title>
<path fill="none" stroke="#555555" d="M439.15,-42.53C454.67,-39.42 471.1,-36.13 486.72,-32.99"/>
<polygon fill="#555555" stroke="#555555" points="487.73,-36.36 496.85,-30.96 486.35,-29.5 487.73,-36.36"/>
</g>
<!-- n5&#45;&gt;n3 -->
<g id="edge6" class="edge">
<title>n5&#45;&gt;n3</title>
<path fill="none" stroke="#555555" d="M628.2,-34.99C644.55,-39.29 661.54,-43.75 675.9,-47.52"/>
<polygon fill="#555555" stroke="#555555" points="675.29,-50.98 685.85,-50.13 677.07,-44.21 675.29,-50.98"/>
</g>
</g>
</svg>
