<?xml version="1.0" encoding="UTF-8" standalone="no"?>
<!DOCTYPE svg PUBLIC "-//W3C//DTD SVG 1.1//EN"
 "http://www.w3.org/Graphics/SVG/1.1/DTD/svg11.dtd">
<!-- Generated by graphviz version 2.44.0 (0)
 -->
<!-- Title: process Pages: 1 -->
<svg width="767pt" height="187pt"
 viewBox="0.00 0.00 767.00 187.00" xmlns="http://www.w3.org/2000/svg" xmlns:xlink="http://www.w3.org/1999/xlink">
<g id="graph0" class="graph" transform="scale(1 1) rotate(0) translate(36 151)">
<title>process</title>
<polygon fill="#ffffff" stroke="transparent" points="-36,36 -36,-151 731,-151 731,36 -36,36"/>
<!-- n0 -->
<g id="node1" class="node">
<title>n0</title>
<path fill="#c8e6c9" stroke="black" d="M42,-75C42,-75 12,-75 12,-75 6,-75 0,-69 0,-63 0,-63 0,-51 0,-51 0,-45 6,-39 12,-39 12,-39 42,-39 42,-39 48,-39 54,-45 54,-51 54,-51 54,-63 54,-63 54,-69 48,-75 42,-75"/>
<text text-anchor="middle" x="27" y="-54.2" font-family="Helvetica" font-size="11.00">Start</text>
</g>
<!-- n1 -->
<g id="node2" class="node">
<title>n1</title>
<path fill="#e8f4f8" stroke="black" d="M193,-75C193,-75 124,-75 124,-75 118,-75 112,-69 112,-63 112,-63 112,-51 112,-51 112,-45 118,-39 124,-39 124,-39 193,-39 193,-39 199,-39 205,-45 205,-51 205,-51 205,-63 205,-63 205,-69 199,-75 193,-75"/>
<text text-anchor="middle" x="158.5" y="-54.2" font-family="Helvetica" font-size="11.00">Prepare Data</text>
</g>
<!-- n0&#45;&gt;n1 -->
<g id="edge1" class="edge">
<title>n0&#45;&gt;n1</title>
<path fill="none" stroke="#555555" d="M54.21,-57C67.92,-57 85.25,-57 101.78,-57"/>
<polygon fill="#555555" stroke="#555555" points="101.93,-60.5 111.93,-57 101.93,-53.5 101.93,-60.5"/>
</g>
<!-- n2 -->
<g id="node3" class="node">
<title>n2</title>
<path fill="#e8f4f8" stroke="black" d="M350,-75C350,-75 275,-75 275,-75 269,-75 263,-69 263,-63 263,-63 263,-51 263,-51 263,-45 269,-39 275,-39 275,-39 350,-39 350,-39 356,-39 362,-45 362,-51 362,-51 362,-63 362,-63 362,-69 356,-75 350,-75"/>
<text text-anchor="middle" x="312.5" y="-54.2" font-family="Helvetica" font-size="11.00">InvokeOnTopic</text>
</g>
<!-- n1&#45;&gt;n2 -->
<g id="edge2" class="edge">
<title>n1&#45;&gt;n2</title>
<path fill="none" stroke="#555555" d="M205.11,-57C220.03,-57 236.82,-57 252.58,-57"/>
<polygon fill="#555555" stroke="#555555" points="252.75,-60.5 262.75,-57 252.75,-53.5 252.75,-60.5"/>
</g>
<!-- n3 -->
<g id="node4" class="node">
<title>n3</title>
<path fill="#ffccbc" stroke="black" d="M493,-115C493,-115 463,-115 463,-115 457,-115 451,-109 451,-103 451,-103 451,-91 451,-91 451,-85 457,-79 463,-79 463,-79 493,-79 493,-79 499,-79 505,-85 505,-91 505,-91 505,-103 505,-103 505,-109 499,-115 493,-115"/>
<text text-anchor="middle" x="478" y="-94.2" font-family="Helvetica" font-size="11.00">End</text>
</g>
<!-- n2&#45;&gt;n3 -->
<g id="edge3" class="edge">
<title>n2&#45;&gt;n3</title>
<path fill="none" stroke="#555555" d="M362.11,-68.89C387.37,-75.07 417.7,-82.49 440.86,-88.16"/>
<polygon fill="#555555" stroke="#555555" points="440.08,-91.57 450.63,-90.55 441.74,-84.77 440.08,-91.57"/>
</g>
<!-- n4 -->
<g id="node5" class="node">
<title>n4</title>
<path fill="#e8f4f8" stroke="black" d="M524,-36C524,-36 432,-36 432,-36 426,-36 420,-30 420,-24 420,-24 420,-12 420,-12 420,-6 426,0 432,0 432,0 524,0 524,0 530,0 536,-6 536,-12 536,-12 536,-24 536,-24 536,-30 530,-36 524,-36"/>
<text text-anchor="middle" x="478" y="-15.2" font-family="Helvetica" font-size="11.00">MapAnyException</text>
</g>
<!-- n2&#45;&gt;n4 -->
<g id="edge4" class="edge">
<title>n2&#45;&gt;n4</title>
<path fill="none" stroke="#555555" d="M362.11,-45.4C377.16,-41.82 394,-37.8 410.06,-33.97"/>
<polygon fill="#555555" stroke="#555555" points="411.02,-37.34 419.94,-31.61 409.4,-30.53 411.02,-37.34"/>
</g>
<!-- n5 -->
<g id="node6" class="node">
<title>n5</title>
<path fill="#ffcdd2" stroke="black" d="M683,-36C683,-36 606,-36 606,-36 600,-36 594,-30 594,-24 594,-24 594,-12 594,-12 594,-6 600,0 606,0 606,0 683,0 683,0 689,0 695,-6 695,-12 695,-12 695,-24 695,-24 695,-30 689,-36 683,-36"/>
<text text-anchor="middle" x="644.5" y="-15.2" font-family="Helvetica" font-size="11.00">Generate Error</text>
</g>
<!-- n4&#45;&gt;n5 -->
<g id="edge5" class="edge">
<title>n4&#45;&gt;n5</title>
<path fill="none" stroke="#555555" d="M536.07,-18C551.53,-18 568.29,-18 583.88,-18"/>
<polygon fill="#555555" stroke="#555555" points="583.93,-21.5 593.93,-18 583.93,-14.5 583.93,-21.5"/>
</g>
</g>
</svg>
