<?xml version="1.0" encoding="UTF-8" standalone="no"?>
<!DOCTYPE svg PUBLIC "-//W3C//DTD SVG 1.1//EN"
 "http://www.w3.org/Graphics/SVG/1.1/DTD/svg11.dtd">
<!-- Generated by graphviz version 2.44.0 (0)
 -->
<!-- Title: process Pages: 1 -->
<svg width="1227pt" height="357pt"
 viewBox="0.00 0.00 1227.00 357.00" xmlns="http://www.w3.org/2000/svg" xmlns:xlink="http://www.w3.org/1999/xlink">
<g id="graph0" class="graph" transform="scale(1 1) rotate(0) translate(36 321)">
<title>process</title>
<polygon fill="#ffffff" stroke="transparent" points="-36,36 -36,-321 1191,-321 1191,36 -36,36"/>
<!-- n0 -->
<g id="node1" class="node">
<title>n0</title>
<path fill="#c8e6c9" stroke="black" d="M42,-79C42,-79 12,-79 12,-79 6,-79 0,-73 0,-67 0,-67 0,-55 0,-55 0,-49 6,-43 12,-43 12,-43 42,-43 42,-43 48,-43 54,-49 54,-55 54,-55 54,-67 54,-67 54,-73 48,-79 42,-79"/>
<text text-anchor="middle" x="27" y="-58.2" font-family="Helvetica" font-size="11.00">Start</text>
</g>
<!-- n1 -->
<g id="node2" class="node">
<title>n1</title>
<path fill="#e8f4f8" stroke="black" d="M154,-144C154,-144 124,-144 124,-144 118,-144 112,-138 112,-132 112,-132 112,-120 112,-120 112,-114 118,-108 124,-108 124,-108 154,-108 154,-108 160,-108 166,-114 166,-120 166,-120 166,-132 166,-132 166,-138 160,-144 154,-144"/>
<text text-anchor="middle" x="139" y="-123.2" font-family="Helvetica" font-size="11.00">Null</text>
</g>
<!-- n0&#45;&gt;n1 -->
<g id="edge1" class="edge">
<title>n0&#45;&gt;n1</title>
<path fill="none" stroke="#555555" d="M54.07,-76.4C68.62,-85 86.95,-95.83 102.76,-105.18"/>
<polygon fill="#555555" stroke="#555555" points="101.35,-108.41 111.74,-110.48 104.91,-102.38 101.35,-108.41"/>
</g>
<!-- n6 -->
<g id="node9" class="node">
<title>n6</title>
<path fill="#e8f4f8" stroke="black" d="M841,-36C841,-36 749,-36 749,-36 743,-36 737,-30 737,-24 737,-24 737,-12 737,-12 737,-6 743,0 749,0 749,0 841,0 841,0 847,0 853,-6 853,-12 853,-12 853,-24 853,-24 853,-30 847,-36 841,-36"/>
<text text-anchor="middle" x="795" y="-15.2" font-family="Helvetica" font-size="11.00">MapAnyException</text>
</g>
<!-- n0&#45;&gt;n6 -->
<g id="edge4" class="edge">
<title>n0&#45;&gt;n6</title>
<path fill="none" stroke="#555555" d="M54.02,-53.51C99.19,-41.19 195.2,-18 278,-18 278,-18 278,-18 445,-18 543.03,-18 656.55,-18 726.82,-18"/>
<polygon fill="#555555" stroke="#555555" points="726.87,-21.5 736.87,-18 726.87,-14.5 726.87,-21.5"/>
</g>
<!-- n10 -->
<g id="node3" class="node">
<title>n10</title>
<path fill="#e8f4f8" stroke="black" d="M310,-144C310,-144 248,-144 248,-144 242,-144 236,-138 236,-132 236,-132 236,-120 236,-120 236,-114 242,-108 248,-108 248,-108 310,-108 310,-108 316,-108 322,-114 322,-120 322,-120 322,-132 322,-132 322,-138 316,-144 310,-144"/>
<text text-anchor="middle" x="279" y="-123.2" font-family="Helvetica" font-size="11.00">ExtractFault</text>
</g>
<!-- n1&#45;&gt;n10 -->
<g id="edge9" class="edge">
<title>n1&#45;&gt;n10</title>
<path fill="none" stroke="#555555" d="M166.28,-126C183.07,-126 205.43,-126 225.73,-126"/>
<polygon fill="#555555" stroke="#555555" points="225.81,-129.5 235.81,-126 225.81,-122.5 225.81,-129.5"/>
</g>
<!-- n9 -->
<g id="node12" class="node">
<title>n9</title>
<path fill="#e8f4f8" stroke="black" d="M322,-264C322,-264 236,-264 236,-264 230,-264 224,-258 224,-252 224,-252 224,-240 224,-240 224,-234 230,-228 236,-228 236,-228 322,-228 322,-228 328,-228 334,-234 334,-240 334,-240 334,-252 334,-252 334,-258 328,-264 322,-264"/>
<text text-anchor="middle" x="279" y="-243.2" font-family="Helvetica" font-size="11.00">ExtractEBMFault</text>
</g>
<!-- n1&#45;&gt;n9 -->
<g id="edge8" class="edge">
<title>n1&#45;&gt;n9</title>
<path fill="none" stroke="#555555" d="M160.96,-144.23C184.6,-164.78 223.18,-198.33 249.54,-221.25"/>
<polygon fill="#555555" stroke="#555555" points="247.45,-224.08 257.3,-228 252.05,-218.79 247.45,-224.08"/>
</g>
<!-- n7 -->
<g id="node10" class="node">
<title>n7</title>
<path fill="#e8f4f8" stroke="black" d="M472,-206C472,-206 416,-206 416,-206 410,-206 404,-200 404,-194 404,-194 404,-182 404,-182 404,-176 410,-170 416,-170 416,-170 472,-170 472,-170 478,-170 484,-176 484,-182 484,-182 484,-194 484,-194 484,-200 478,-206 472,-206"/>
<text text-anchor="middle" x="444" y="-185.2" font-family="Helvetica" font-size="11.00">ParseFault</text>
</g>
<!-- n10&#45;&gt;n7 -->
<g id="edge15" class="edge">
<title>n10&#45;&gt;n7</title>
<path fill="none" stroke="#555555" d="M322.4,-142.13C344.44,-150.51 371.47,-160.79 394.36,-169.5"/>
<polygon fill="#555555" stroke="#555555" points="393.29,-172.84 403.89,-173.12 395.78,-166.3 393.29,-172.84"/>
</g>
<!-- n8 -->
<g id="node11" class="node">
<title>n8</title>
<path fill="#e8f4f8" stroke="black" d="M667,-123C667,-123 566,-123 566,-123 560,-123 554,-117 554,-111 554,-111 554,-99 554,-99 554,-93 560,-87 566,-87 566,-87 667,-87 667,-87 673,-87 679,-93 679,-99 679,-99 679,-111 679,-111 679,-117 673,-123 667,-123"/>
<text text-anchor="middle" x="616.5" y="-102.2" font-family="Helvetica" font-size="11.00">MapAnyException&#45;1</text>
</g>
<!-- n10&#45;&gt;n8 -->
<g id="edge14" class="edge">
<title>n10&#45;&gt;n8</title>
<path fill="none" stroke="#555555" d="M322.15,-123.36C377.73,-119.88 476.34,-113.71 543.76,-109.49"/>
<polygon fill="#555555" stroke="#555555" points="544.13,-112.97 553.89,-108.86 543.69,-105.99 544.13,-112.97"/>
</g>
<!-- n11 -->
<g id="node4" class="node">
<title>n11</title>
<path fill="#e8f4f8" stroke="black" d="M484,-285C484,-285 404,-285 404,-285 398,-285 392,-279 392,-273 392,-273 392,-261 392,-261 392,-255 398,-249 404,-249 404,-249 484,-249 484,-249 490,-249 496,-255 496,-261 496,-261 496,-273 496,-273 496,-279 490,-285 484,-285"/>
<text text-anchor="middle" x="444" y="-264.2" font-family="Helvetica" font-size="11.00">ParseEBMFault</text>
</g>
<!-- n2 -->
<g id="node5" class="node">
<title>n2</title>
<path fill="#e8f4f8" stroke="black" d="M655.5,-206C655.5,-206 577.5,-206 577.5,-206 571.5,-206 565.5,-200 565.5,-194 565.5,-194 565.5,-182 565.5,-182 565.5,-176 571.5,-170 577.5,-170 577.5,-170 655.5,-170 655.5,-170 661.5,-170 667.5,-176 667.5,-182 667.5,-182 667.5,-194 667.5,-194 667.5,-200 661.5,-206 655.5,-206"/>
<text text-anchor="middle" x="616.5" y="-185.2" font-family="Helvetica" font-size="11.00">GetErrorCodes</text>
</g>
<!-- n11&#45;&gt;n2 -->
<g id="edge11" class="edge">
<title>n11&#45;&gt;n2</title>
<path fill="none" stroke="#555555" d="M484.12,-248.88C508.81,-237.43 540.89,-222.57 567.17,-210.39"/>
<polygon fill="#555555" stroke="#555555" points="568.96,-213.42 576.57,-206.04 566.02,-207.07 568.96,-213.42"/>
</g>
<!-- n3 -->
<g id="node6" class="node">
<title>n3</title>
<path fill="#e8f4f8" stroke="black" d="M841,-206C841,-206 749,-206 749,-206 743,-206 737,-200 737,-194 737,-194 737,-182 737,-182 737,-176 743,-170 749,-170 749,-170 841,-170 841,-170 847,-170 853,-176 853,-182 853,-182 853,-194 853,-194 853,-200 847,-206 841,-206"/>
<text text-anchor="middle" x="795" y="-185.2" font-family="Helvetica" font-size="11.00">MapBackendError</text>
</g>
<!-- n2&#45;&gt;n3 -->
<g id="edge2" class="edge">
<title>n2&#45;&gt;n3</title>
<path fill="none" stroke="#555555" d="M667.61,-188C686,-188 707.14,-188 726.8,-188"/>
<polygon fill="#555555" stroke="#555555" points="726.92,-191.5 736.92,-188 726.92,-184.5 726.92,-191.5"/>
</g>
<!-- n4 -->
<g id="node7" class="node">
<title>n4</title>
<path fill="#e8f4f8" stroke="black" d="M1031,-206C1031,-206 923,-206 923,-206 917,-206 911,-200 911,-194 911,-194 911,-182 911,-182 911,-176 917,-170 923,-170 923,-170 1031,-170 1031,-170 1037,-170 1043,-176 1043,-182 1043,-182 1043,-194 1043,-194 1043,-200 1037,-206 1031,-206"/>
<text text-anchor="middle" x="977" y="-185.2" font-family="Helvetica" font-size="11.00">RenderBackEndError</text>
</g>
<!-- n3&#45;&gt;n4 -->
<g id="edge12" class="edge">
<title>n3&#45;&gt;n4</title>
<path fill="none" stroke="#555555" d="M853.45,-188C868.47,-188 884.89,-188 900.69,-188"/>
<polygon fill="#555555" stroke="#555555" points="900.97,-191.5 910.97,-188 900.97,-184.5 900.97,-191.5"/>
</g>
<!-- n5 -->
<g id="node8" class="node">
<title>n5</title>
<path fill="#ffccbc" stroke="black" d="M1143,-123C1143,-123 1113,-123 1113,-123 1107,-123 1101,-117 1101,-111 1101,-111 1101,-99 1101,-99 1101,-93 1107,-87 1113,-87 1113,-87 1143,-87 1143,-87 1149,-87 1155,-93 1155,-99 1155,-99 1155,-111 1155,-111 1155,-117 1149,-123 1143,-123"/>
<text text-anchor="middle" x="1128" y="-102.2" font-family="Helvetica" font-size="11.00">End</text>
</g>
<!-- n4&#45;&gt;n5 -->
<g id="edge3" class="edge">
<title>n4&#45;&gt;n5</title>
<path fill="none" stroke="#555555" d="M1010.33,-169.99C1034.31,-156.63 1066.99,-138.43 1091.66,-124.69"/>
<polygon fill="#555555" stroke="#555555" points="1093.66,-127.58 1100.69,-119.66 1090.25,-121.47 1093.66,-127.58"/>
</g>
<!-- n6&#45;&gt;n5 -->
<g id="edge5" class="edge">
<title>n6&#45;&gt;n5</title>
<path fill="none" stroke="#555555" d="M853.01,-28.26C903.46,-37.91 978.83,-53.74 1043,-73 1059.18,-77.86 1076.71,-84.33 1091.54,-90.18"/>
<polygon fill="#555555" stroke="#555555" points="1090.27,-93.45 1100.86,-93.92 1092.87,-86.95 1090.27,-93.45"/>
</g>
<!-- n7&#45;&gt;n2 -->
<g id="edge6" class="edge">
<title>n7&#45;&gt;n2</title>
<path fill="none" stroke="#555555" d="M484.12,-188C505.1,-188 531.42,-188 554.98,-188"/>
<polygon fill="#555555" stroke="#555555" points="555.23,-191.5 565.23,-188 555.23,-184.5 555.23,-191.5"/>
</g>
<!-- n7&#45;&gt;n8 -->
<g id="edge7" class="edge">
<title>n7&#45;&gt;n8</title>
<path fill="none" stroke="#555555" d="M482,-169.99C507.6,-157.53 541.87,-140.84 569.27,-127.5"/>
<polygon fill="#555555" stroke="#555555" points="570.82,-130.64 578.28,-123.12 567.76,-124.35 570.82,-130.64"/>
</g>
<!-- n8&#45;&gt;n5 -->
<g id="edge13" class="edge">
<title>n8&#45;&gt;n5</title>
<path fill="none" stroke="#555555" d="M679.21,-105C786.67,-105 1004.87,-105 1090.93,-105"/>
<polygon fill="#555555" stroke="#555555" points="1091,-108.5 1101,-105 1091,-101.5 1091,-108.5"/>
</g>
<!-- n9&#45;&gt;n11 -->
<g id="edge10" class="edge">
<title>n9&#45;&gt;n11</title>
<path fill="none" stroke="#555555" d="M334.28,-252.99C349.55,-254.96 366.26,-257.11 381.9,-259.13"/>
<polygon fill="#555555" stroke="#555555" points="381.63,-262.62 391.99,-260.43 382.52,-255.68 381.63,-262.62"/>
</g>
</g>
</svg>
