<?xml version="1.0" encoding="UTF-8" standalone="no"?>
<!DOCTYPE svg PUBLIC "-//W3C//DTD SVG 1.1//EN"
 "http://www.w3.org/Graphics/SVG/1.1/DTD/svg11.dtd">
<!-- Generated by graphviz version 2.44.0 (0)
 -->
<!-- Title: process Pages: 1 -->
<svg width="585pt" height="187pt"
 viewBox="0.00 0.00 585.00 187.00" xmlns="http://www.w3.org/2000/svg" xmlns:xlink="http://www.w3.org/1999/xlink">
<g id="graph0" class="graph" transform="scale(1 1) rotate(0) translate(36 151)">
<title>process</title>
<polygon fill="#ffffff" stroke="transparent" points="-36,36 -36,-151 549,-151 549,36 -36,36"/>
<!-- n0 -->
<g id="node1" class="node">
<title>n0</title>
<path fill="#e8f4f8" stroke="black" d="M248,-75C248,-75 126,-75 126,-75 120,-75 114,-69 114,-63 114,-63 114,-51 114,-51 114,-45 120,-39 126,-39 126,-39 248,-39 248,-39 254,-39 260,-45 260,-51 260,-51 260,-63 260,-63 260,-69 254,-75 248,-75"/>
<text text-anchor="middle" x="187" y="-54.2" font-family="Helvetica" font-size="11.00">LoadOperationValidation</text>
</g>
<!-- n1 -->
<g id="node2" class="node">
<title>n1</title>
<path fill="#e8f4f8" stroke="black" d="M383,-115C383,-115 336,-115 336,-115 330,-115 324,-109 324,-103 324,-103 324,-91 324,-91 324,-85 330,-79 336,-79 336,-79 383,-79 383,-79 389,-79 395,-85 395,-91 395,-91 395,-103 395,-103 395,-109 389,-115 383,-115"/>
<text text-anchor="middle" x="359.5" y="-94.2" font-family="Helvetica" font-size="11.00">LogError</text>
</g>
<!-- n0&#45;&gt;n1 -->
<g id="edge1" class="edge">
<title>n0&#45;&gt;n1</title>
<path fill="none" stroke="#555555" d="M260.31,-73.96C278.5,-78.23 297.49,-82.69 313.87,-86.53"/>
<polygon fill="#555555" stroke="#555555" points="313.17,-89.96 323.7,-88.84 314.77,-83.15 313.17,-89.96"/>
</g>
<!-- n2 -->
<g id="node3" class="node">
<title>n2</title>
<path fill="#e8f4f8" stroke="black" d="M389,-36C389,-36 330,-36 330,-36 324,-36 318,-30 318,-24 318,-24 318,-12 318,-12 318,-6 324,0 330,0 330,0 389,0 389,0 395,0 401,-6 401,-12 401,-12 401,-24 401,-24 401,-30 395,-36 389,-36"/>
<text text-anchor="middle" x="359.5" y="-15.2" font-family="Helvetica" font-size="11.00">WriteToLog</text>
</g>
<!-- n0&#45;&gt;n2 -->
<g id="edge2" class="edge">
<title>n0&#45;&gt;n2</title>
<path fill="none" stroke="#555555" d="M260.31,-40.46C276.24,-36.82 292.78,-33.03 307.65,-29.63"/>
<polygon fill="#555555" stroke="#555555" points="308.68,-32.99 317.65,-27.34 307.12,-26.16 308.68,-32.99"/>
</g>
<!-- n3 -->
<g id="node4" class="node">
<title>n3</title>
<path fill="#ffccbc" stroke="black" d="M501,-75C501,-75 471,-75 471,-75 465,-75 459,-69 459,-63 459,-63 459,-51 459,-51 459,-45 465,-39 471,-39 471,-39 501,-39 501,-39 507,-39 513,-45 513,-51 513,-51 513,-63 513,-63 513,-69 507,-75 501,-75"/>
<text text-anchor="middle" x="486" y="-54.2" font-family="Helvetica" font-size="11.00">End</text>
</g>
<!-- n1&#45;&gt;n3 -->
<g id="edge3" class="edge">
<title>n1&#45;&gt;n3</title>
<path fill="none" stroke="#555555" d="M395.18,-85.86C412.02,-80.45 432.24,-73.95 449.22,-68.5"/>
<polygon fill="#555555" stroke="#555555" points="450.35,-71.81 458.8,-65.42 448.21,-65.15 450.35,-71.81"/>
</g>
<!-- n2&#45;&gt;n3 -->
<g id="edge5" class="edge">
<title>n2&#45;&gt;n3</title>
<path fill="none" stroke="#555555" d="M401.27,-30.77C416.59,-35.57 433.9,-40.99 448.79,-45.66"/>
<polygon fill="#555555" stroke="#555555" points="448.06,-49.1 458.65,-48.75 450.15,-42.42 448.06,-49.1"/>
</g>
<!-- n4 -->
<g id="node5" class="node">
<title>n4</title>
<path fill="#e8f4f8" stroke="black" d="M44,-75C44,-75 12,-75 12,-75 6,-75 0,-69 0,-63 0,-63 0,-51 0,-51 0,-45 6,-39 12,-39 12,-39 44,-39 44,-39 50,-39 56,-45 56,-51 56,-51 56,-63 56,-63 56,-69 50,-75 44,-75"/>
<text text-anchor="middle" x="28" y="-54.2" font-family="Helvetica" font-size="11.00">Timer</text>
</g>
<!-- n4&#45;&gt;n0 -->
<g id="edge4" class="edge">
<title>n4&#45;&gt;n0</title>
<path fill="none" stroke="#555555" d="M56.35,-57C69.71,-57 86.58,-57 103.7,-57"/>
<polygon fill="#555555" stroke="#555555" points="103.78,-60.5 113.78,-57 103.78,-53.5 103.78,-60.5"/>
</g>
</g>
</svg>
