<?xml version="1.0" encoding="UTF-8" standalone="no"?>
<!DOCTYPE svg PUBLIC "-//W3C//DTD SVG 1.1//EN"
 "http://www.w3.org/Graphics/SVG/1.1/DTD/svg11.dtd">
<!-- Generated by graphviz version 2.44.0 (0)
 -->
<!-- Title: process Pages: 1 -->
<svg width="951pt" height="187pt"
 viewBox="0.00 0.00 951.00 187.00" xmlns="http://www.w3.org/2000/svg" xmlns:xlink="http://www.w3.org/1999/xlink">
<g id="graph0" class="graph" transform="scale(1 1) rotate(0) translate(36 151)">
<title>process</title>
<polygon fill="#ffffff" stroke="transparent" points="-36,36 -36,-151 915,-151 915,36 -36,36"/>
<!-- n0 -->
<g id="node1" class="node">
<title>n0</title>
<path fill="#e8f4f8" stroke="black" d="M373,-75C373,-75 272,-75 272,-75 266,-75 260,-69 260,-63 260,-63 260,-51 260,-51 260,-45 266,-39 272,-39 272,-39 373,-39 373,-39 379,-39 385,-45 385,-51 385,-51 385,-63 385,-63 385,-69 379,-75 373,-75"/>
<text text-anchor="middle" x="322.5" y="-54.2" font-family="Helvetica" font-size="11.00">JMS Queue Sender</text>
</g>
<!-- n1 -->
<g id="node2" class="node">
<title>n1</title>
<path fill="#e8f4f8" stroke="black" d="M547,-115C547,-115 455,-115 455,-115 449,-115 443,-109 443,-103 443,-103 443,-91 443,-91 443,-85 449,-79 455,-79 455,-79 547,-79 547,-79 553,-79 559,-85 559,-91 559,-91 559,-103 559,-103 559,-109 553,-115 547,-115"/>
<text text-anchor="middle" x="501" y="-94.2" font-family="Helvetica" font-size="11.00">MapAnyException</text>
</g>
<!-- n0&#45;&gt;n1 -->
<g id="edge1" class="edge">
<title>n0&#45;&gt;n1</title>
<path fill="none" stroke="#555555" d="M385.23,-70.99C400.56,-74.46 417.07,-78.21 432.65,-81.74"/>
<polygon fill="#555555" stroke="#555555" points="432.21,-85.23 442.74,-84.02 433.76,-78.4 432.21,-85.23"/>
</g>
<!-- n4 -->
<g id="node5" class="node">
<title>n4</title>
<path fill="#ffccbc" stroke="black" d="M516,-36C516,-36 486,-36 486,-36 480,-36 474,-30 474,-24 474,-24 474,-12 474,-12 474,-6 480,0 486,0 486,0 516,0 516,0 522,0 528,-6 528,-12 528,-12 528,-24 528,-24 528,-30 522,-36 516,-36"/>
<text text-anchor="middle" x="501" y="-15.2" font-family="Helvetica" font-size="11.00">End</text>
</g>
<!-- n0&#45;&gt;n4 -->
<g id="edge3" class="edge">
<title>n0&#45;&gt;n4</title>
<path fill="none" stroke="#555555" d="M385.23,-43.36C411.61,-37.53 441.47,-30.93 464.13,-25.93"/>
<polygon fill="#555555" stroke="#555555" points="464.98,-29.32 473.99,-23.75 463.47,-22.49 464.98,-29.32"/>
</g>
<!-- n2 -->
<g id="node3" class="node">
<title>n2</title>
<path fill="#ffcdd2" stroke="black" d="M708,-115C708,-115 629,-115 629,-115 623,-115 617,-109 617,-103 617,-103 617,-91 617,-91 617,-85 623,-79 629,-79 629,-79 708,-79 708,-79 714,-79 720,-85 720,-91 720,-91 720,-103 720,-103 720,-109 714,-115 708,-115"/>
<text text-anchor="middle" x="668.5" y="-94.2" font-family="Helvetica" font-size="11.00">Map Error Data</text>
</g>
<!-- n1&#45;&gt;n2 -->
<g id="edge6" class="edge">
<title>n1&#45;&gt;n2</title>
<path fill="none" stroke="#555555" d="M559.42,-97C574.59,-97 591.02,-97 606.38,-97"/>
<polygon fill="#555555" stroke="#555555" points="606.81,-100.5 616.81,-97 606.81,-93.5 606.81,-100.5"/>
</g>
<!-- n3 -->
<g id="node4" class="node">
<title>n3</title>
<path fill="#ffcdd2" stroke="black" d="M867,-115C867,-115 790,-115 790,-115 784,-115 778,-109 778,-103 778,-103 778,-91 778,-91 778,-85 784,-79 790,-79 790,-79 867,-79 867,-79 873,-79 879,-85 879,-91 879,-91 879,-103 879,-103 879,-109 873,-115 867,-115"/>
<text text-anchor="middle" x="828.5" y="-94.2" font-family="Helvetica" font-size="11.00">Generate Error</text>
</g>
<!-- n2&#45;&gt;n3 -->
<g id="edge2" class="edge">
<title>n2&#45;&gt;n3</title>
<path fill="none" stroke="#555555" d="M720.36,-97C735.46,-97 752.13,-97 767.74,-97"/>
<polygon fill="#555555" stroke="#555555" points="767.81,-100.5 777.81,-97 767.81,-93.5 767.81,-100.5"/>
</g>
<!-- n5 -->
<g id="node6" class="node">
<title>n5</title>
<path fill="#c8e6c9" stroke="black" d="M42,-75C42,-75 12,-75 12,-75 6,-75 0,-69 0,-63 0,-63 0,-51 0,-51 0,-45 6,-39 12,-39 12,-39 42,-39 42,-39 48,-39 54,-45 54,-51 54,-51 54,-63 54,-63 54,-69 48,-75 42,-75"/>
<text text-anchor="middle" x="27" y="-54.2" font-family="Helvetica" font-size="11.00">Start</text>
</g>
<!-- n6 -->
<g id="node7" class="node">
<title>n6</title>
<path fill="#e8f4f8" stroke="black" d="M190,-75C190,-75 124,-75 124,-75 118,-75 112,-69 112,-63 112,-63 112,-51 112,-51 112,-45 118,-39 124,-39 124,-39 190,-39 190,-39 196,-39 202,-45 202,-51 202,-51 202,-63 202,-63 202,-69 196,-75 190,-75"/>
<text text-anchor="middle" x="157" y="-54.2" font-family="Helvetica" font-size="11.00">PrepareData</text>
</g>
<!-- n5&#45;&gt;n6 -->
<g id="edge4" class="edge">
<title>n5&#45;&gt;n6</title>
<path fill="none" stroke="#555555" d="M54.21,-57C67.96,-57 85.34,-57 101.82,-57"/>
<polygon fill="#555555" stroke="#555555" points="101.93,-60.5 111.93,-57 101.93,-53.5 101.93,-60.5"/>
</g>
<!-- n6&#45;&gt;n0 -->
<g id="edge5" class="edge">
<title>n6&#45;&gt;n0</title>
<path fill="none" stroke="#555555" d="M202.25,-57C216.75,-57 233.27,-57 249.3,-57"/>
<polygon fill="#555555" stroke="#555555" points="249.73,-60.5 259.73,-57 249.73,-53.5 249.73,-60.5"/>
</g>
</g>
</svg>
