<?xml version="1.0" encoding="UTF-8" standalone="no"?>
<!DOCTYPE svg PUBLIC "-//W3C//DTD SVG 1.1//EN"
 "http://www.w3.org/Graphics/SVG/1.1/DTD/svg11.dtd">
<!-- Generated by graphviz version 2.44.0 (0)
 -->
<!-- Title: process Pages: 1 -->
<svg width="1088pt" height="226pt"
 viewBox="0.00 0.00 1088.00 226.00" xmlns="http://www.w3.org/2000/svg" xmlns:xlink="http://www.w3.org/1999/xlink">
<g id="graph0" class="graph" transform="scale(1 1) rotate(0) translate(36 190)">
<title>process</title>
<polygon fill="#ffffff" stroke="transparent" points="-36,36 -36,-190 1052,-190 1052,36 -36,36"/>
<!-- n0 -->
<g id="node1" class="node">
<title>n0</title>
<path fill="#c8e6c9" stroke="black" d="M42,-36C42,-36 12,-36 12,-36 6,-36 0,-30 0,-24 0,-24 0,-12 0,-12 0,-6 6,0 12,0 12,0 42,0 42,0 48,0 54,-6 54,-12 54,-12 54,-24 54,-24 54,-30 48,-36 42,-36"/>
<text text-anchor="middle" x="27" y="-15.2" font-family="Helvetica" font-size="11.00">start</text>
</g>
<!-- n1 -->
<g id="node2" class="node">
<title>n1</title>
<path fill="#e8f4f8" stroke="black" d="M239,-36C239,-36 124,-36 124,-36 118,-36 112,-30 112,-24 112,-24 112,-12 112,-12 112,-6 118,0 124,0 124,0 239,0 239,0 245,0 251,-6 251,-12 251,-12 251,-24 251,-24 251,-30 245,-36 239,-36"/>
<text text-anchor="middle" x="181.5" y="-15.2" font-family="Helvetica" font-size="11.00">Get Validation from DB</text>
</g>
<!-- n0&#45;&gt;n1 -->
<g id="edge1" class="edge">
<title>n0&#45;&gt;n1</title>
<path fill="none" stroke="#555555" d="M54.22,-18C67.53,-18 84.48,-18 101.62,-18"/>
<polygon fill="#555555" stroke="#555555" points="101.7,-21.5 111.7,-18 101.7,-14.5 101.7,-21.5"/>
</g>
<!-- n2 -->
<g id="node6" class="node">
<title>n2</title>
<path fill="#e8f4f8" stroke="black" d="M375,-36C375,-36 344,-36 344,-36 338,-36 332,-30 332,-24 332,-24 332,-12 332,-12 332,-6 338,0 344,0 344,0 375,0 375,0 381,0 387,-6 387,-12 387,-12 387,-24 387,-24 387,-30 381,-36 375,-36"/>
<text text-anchor="middle" x="359.5" y="-15.2" font-family="Helvetica" font-size="11.00">Store</text>
</g>
<!-- n1&#45;&gt;n2 -->
<g id="edge3" class="edge">
<title>n1&#45;&gt;n2</title>
<path fill="none" stroke="#555555" d="M251.05,-18C275.05,-18 301.08,-18 321.51,-18"/>
<polygon fill="#555555" stroke="#555555" points="321.64,-21.5 331.64,-18 321.64,-14.5 321.64,-21.5"/>
</g>
<!-- n10 -->
<g id="node3" class="node">
<title>n10</title>
<path fill="#ffcdd2" stroke="black" d="M1004,-75C1004,-75 927,-75 927,-75 921,-75 915,-69 915,-63 915,-63 915,-51 915,-51 915,-45 921,-39 927,-39 927,-39 1004,-39 1004,-39 1010,-39 1016,-45 1016,-51 1016,-51 1016,-63 1016,-63 1016,-69 1010,-75 1004,-75"/>
<text text-anchor="middle" x="965.5" y="-54.2" font-family="Helvetica" font-size="11.00">Generate Error</text>
</g>
<!-- n11 -->
<g id="node4" class="node">
<title>n11</title>
<path fill="#c8e6c9" stroke="black" d="M398,-115C398,-115 321,-115 321,-115 315,-115 309,-109 309,-103 309,-103 309,-91 309,-91 309,-85 315,-79 321,-79 321,-79 398,-79 398,-79 404,-79 410,-85 410,-91 410,-91 410,-103 410,-103 410,-109 404,-115 398,-115"/>
<text text-anchor="middle" x="359.5" y="-94.2" font-family="Helvetica" font-size="11.00">Start Log Audit</text>
</g>
<!-- n6 -->
<g id="node10" class="node">
<title>n6</title>
<path fill="#ffcdd2" stroke="black" d="M542,-115C542,-115 480,-115 480,-115 474,-115 468,-109 468,-103 468,-103 468,-91 468,-91 468,-85 474,-79 480,-79 480,-79 542,-79 542,-79 548,-79 554,-85 554,-91 554,-91 554,-103 554,-103 554,-109 548,-115 542,-115"/>
<text text-anchor="middle" x="511" y="-94.2" font-family="Helvetica" font-size="11.00">Error Group</text>
</g>
<!-- n11&#45;&gt;n6 -->
<g id="edge10" class="edge">
<title>n11&#45;&gt;n6</title>
<path fill="none" stroke="#555555" d="M410.28,-97C425.46,-97 442.2,-97 457.55,-97"/>
<polygon fill="#555555" stroke="#555555" points="457.93,-100.5 467.93,-97 457.93,-93.5 457.93,-100.5"/>
</g>
<!-- n12 -->
<g id="node5" class="node">
<title>n12</title>
<path fill="#ffccbc" stroke="black" d="M836.5,-154C836.5,-154 806.5,-154 806.5,-154 800.5,-154 794.5,-148 794.5,-142 794.5,-142 794.5,-130 794.5,-130 794.5,-124 800.5,-118 806.5,-118 806.5,-118 836.5,-118 836.5,-118 842.5,-118 848.5,-124 848.5,-130 848.5,-130 848.5,-142 848.5,-142 848.5,-148 842.5,-154 836.5,-154"/>
<text text-anchor="middle" x="821.5" y="-133.2" font-family="Helvetica" font-size="11.00">End</text>
</g>
<!-- n3 -->
<g id="node7" class="node">
<title>n3</title>
<path fill="#ffccbc" stroke="black" d="M526,-36C526,-36 496,-36 496,-36 490,-36 484,-30 484,-24 484,-24 484,-12 484,-12 484,-6 490,0 496,0 496,0 526,0 526,0 532,0 538,-6 538,-12 538,-12 538,-24 538,-24 538,-30 532,-36 526,-36"/>
<text text-anchor="middle" x="511" y="-15.2" font-family="Helvetica" font-size="11.00">end</text>
</g>
<!-- n2&#45;&gt;n3 -->
<g id="edge2" class="edge">
<title>n2&#45;&gt;n3</title>
<path fill="none" stroke="#555555" d="M387.23,-18C411.32,-18 446.97,-18 473.65,-18"/>
<polygon fill="#555555" stroke="#555555" points="473.75,-21.5 483.75,-18 473.75,-14.5 473.75,-21.5"/>
</g>
<!-- n4 -->
<g id="node8" class="node">
<title>n4</title>
<path fill="#c8e6c9" stroke="black" d="M42,-115C42,-115 12,-115 12,-115 6,-115 0,-109 0,-103 0,-103 0,-91 0,-91 0,-85 6,-79 12,-79 12,-79 42,-79 42,-79 48,-79 54,-85 54,-91 54,-91 54,-103 54,-103 54,-109 48,-115 42,-115"/>
<text text-anchor="middle" x="27" y="-94.2" font-family="Helvetica" font-size="11.00">Start</text>
</g>
<!-- n5 -->
<g id="node9" class="node">
<title>n5</title>
<path fill="#ffcdd2" stroke="black" d="M232,-115C232,-115 131,-115 131,-115 125,-115 119,-109 119,-103 119,-103 119,-91 119,-91 119,-85 125,-79 131,-79 131,-79 232,-79 232,-79 238,-79 244,-85 244,-91 244,-91 244,-103 244,-103 244,-109 238,-115 232,-115"/>
<text text-anchor="middle" x="181.5" y="-94.2" font-family="Helvetica" font-size="11.00">Prep Error Handling</text>
</g>
<!-- n4&#45;&gt;n5 -->
<g id="edge4" class="edge">
<title>n4&#45;&gt;n5</title>
<path fill="none" stroke="#555555" d="M54.22,-97C69.37,-97 89.25,-97 108.74,-97"/>
<polygon fill="#555555" stroke="#555555" points="108.86,-100.5 118.86,-97 108.86,-93.5 108.86,-100.5"/>
</g>
<!-- n5&#45;&gt;n11 -->
<g id="edge9" class="edge">
<title>n5&#45;&gt;n11</title>
<path fill="none" stroke="#555555" d="M244.06,-97C261.79,-97 281.1,-97 298.72,-97"/>
<polygon fill="#555555" stroke="#555555" points="298.88,-100.5 308.88,-97 298.88,-93.5 298.88,-100.5"/>
</g>
<!-- n7 -->
<g id="node11" class="node">
<title>n7</title>
<path fill="#ffccbc" stroke="black" d="M706.5,-154C706.5,-154 633.5,-154 633.5,-154 627.5,-154 621.5,-148 621.5,-142 621.5,-142 621.5,-130 621.5,-130 621.5,-124 627.5,-118 633.5,-118 633.5,-118 706.5,-118 706.5,-118 712.5,-118 718.5,-124 718.5,-130 718.5,-130 718.5,-142 718.5,-142 718.5,-148 712.5,-154 706.5,-154"/>
<text text-anchor="middle" x="670" y="-133.2" font-family="Helvetica" font-size="11.00">End Audit Log</text>
</g>
<!-- n6&#45;&gt;n7 -->
<g id="edge5" class="edge">
<title>n6&#45;&gt;n7</title>
<path fill="none" stroke="#555555" d="M554.07,-107.45C571.71,-111.83 592.5,-117 611.51,-121.72"/>
<polygon fill="#555555" stroke="#555555" points="610.71,-125.13 621.26,-124.14 612.4,-118.33 610.71,-125.13"/>
</g>
<!-- n8 -->
<g id="node12" class="node">
<title>n8</title>
<path fill="#e8f4f8" stroke="black" d="M716,-75C716,-75 624,-75 624,-75 618,-75 612,-69 612,-63 612,-63 612,-51 612,-51 612,-45 618,-39 624,-39 624,-39 716,-39 716,-39 722,-39 728,-45 728,-51 728,-51 728,-63 728,-63 728,-69 722,-75 716,-75"/>
<text text-anchor="middle" x="670" y="-54.2" font-family="Helvetica" font-size="11.00">MapAnyException</text>
</g>
<!-- n6&#45;&gt;n8 -->
<g id="edge6" class="edge">
<title>n6&#45;&gt;n8</title>
<path fill="none" stroke="#555555" d="M554.07,-86.28C568.74,-82.54 585.59,-78.25 601.78,-74.13"/>
<polygon fill="#555555" stroke="#555555" points="602.93,-77.45 611.76,-71.58 601.2,-70.66 602.93,-77.45"/>
</g>
<!-- n7&#45;&gt;n12 -->
<g id="edge11" class="edge">
<title>n7&#45;&gt;n12</title>
<path fill="none" stroke="#555555" d="M718.71,-136C739.86,-136 764.35,-136 784.01,-136"/>
<polygon fill="#555555" stroke="#555555" points="784.09,-139.5 794.09,-136 784.09,-132.5 784.09,-139.5"/>
</g>
<!-- n9 -->
<g id="node13" class="node">
<title>n9</title>
<path fill="#e8f4f8" stroke="black" d="M845,-75C845,-75 798,-75 798,-75 792,-75 786,-69 786,-63 786,-63 786,-51 786,-51 786,-45 792,-39 798,-39 798,-39 845,-39 845,-39 851,-39 857,-45 857,-51 857,-51 857,-63 857,-63 857,-69 851,-75 845,-75"/>
<text text-anchor="middle" x="821.5" y="-54.2" font-family="Helvetica" font-size="11.00">LogError</text>
</g>
<!-- n8&#45;&gt;n9 -->
<g id="edge7" class="edge">
<title>n8&#45;&gt;n9</title>
<path fill="none" stroke="#555555" d="M728.37,-57C744.01,-57 760.72,-57 775.56,-57"/>
<polygon fill="#555555" stroke="#555555" points="775.99,-60.5 785.99,-57 775.99,-53.5 775.99,-60.5"/>
</g>
<!-- n9&#45;&gt;n10 -->
<g id="edge8" class="edge">
<title>n9&#45;&gt;n10</title>
<path fill="none" stroke="#555555" d="M857.24,-57C871.45,-57 888.31,-57 904.41,-57"/>
<polygon fill="#555555" stroke="#555555" points="904.84,-60.5 914.84,-57 904.84,-53.5 904.84,-60.5"/>
</g>
</g>
</svg>
