<?xml version="1.0" encoding="UTF-8" standalone="no"?>
<!DOCTYPE svg PUBLIC "-//W3C//DTD SVG 1.1//EN"
 "http://www.w3.org/Graphics/SVG/1.1/DTD/svg11.dtd">
<!-- Generated by graphviz version 2.44.0 (0)
 -->
<!-- Title: process Pages: 1 -->
<svg width="969pt" height="353pt"
 viewBox="0.00 0.00 969.00 353.00" xmlns="http://www.w3.org/2000/svg" xmlns:xlink="http://www.w3.org/1999/xlink">
<g id="graph0" class="graph" transform="scale(1 1) rotate(0) translate(36 317)">
<title>process</title>
<polygon fill="#ffffff" stroke="transparent" points="-36,36 -36,-317 933,-317 933,36 -36,36"/>
<!-- n0 -->
<g id="node1" class="node">
<title>n0</title>
<path fill="#c8e6c9" stroke="black" d="M43,-78C43,-78 13,-78 13,-78 7,-78 1,-72 1,-66 1,-66 1,-54 1,-54 1,-48 7,-42 13,-42 13,-42 43,-42 43,-42 49,-42 55,-48 55,-54 55,-54 55,-66 55,-66 55,-72 49,-78 43,-78"/>
<text text-anchor="middle" x="28" y="-57.2" font-family="Helvetica" font-size="11.00">start</text>
</g>
<!-- n1 -->
<g id="node2" class="node">
<title>n1</title>
<path fill="#e8f4f8" stroke="black" d="M255,-78C255,-78 126,-78 126,-78 120,-78 114,-72 114,-66 114,-66 114,-54 114,-54 114,-48 120,-42 126,-42 126,-42 255,-42 255,-42 261,-42 267,-48 267,-54 267,-54 267,-66 267,-66 267,-72 261,-78 255,-78"/>
<text text-anchor="middle" x="190.5" y="-57.2" font-family="Helvetica" font-size="11.00">Get JMS Queue Message</text>
</g>
<!-- n0&#45;&gt;n1 -->
<g id="edge1" class="edge">
<title>n0&#45;&gt;n1</title>
<path fill="none" stroke="#555555" d="M55.14,-60C68.58,-60 85.81,-60 103.42,-60"/>
<polygon fill="#555555" stroke="#555555" points="103.8,-63.5 113.8,-60 103.8,-56.5 103.8,-63.5"/>
</g>
<!-- n2 -->
<g id="node7" class="node">
<title>n2</title>
<path fill="#e8f4f8" stroke="black" d="M555.5,-119C555.5,-119 525.5,-119 525.5,-119 519.5,-119 513.5,-113 513.5,-107 513.5,-107 513.5,-95 513.5,-95 513.5,-89 519.5,-83 525.5,-83 525.5,-83 555.5,-83 555.5,-83 561.5,-83 567.5,-89 567.5,-95 567.5,-95 567.5,-107 567.5,-107 567.5,-113 561.5,-119 555.5,-119"/>
<text text-anchor="middle" x="540.5" y="-98.2" font-family="Helvetica" font-size="11.00">Null</text>
</g>
<!-- n1&#45;&gt;n2 -->
<g id="edge7" class="edge">
<title>n1&#45;&gt;n2</title>
<path fill="none" stroke="#555555" d="M267.01,-68.9C340.06,-77.5 447.65,-90.18 503.26,-96.73"/>
<polygon fill="#555555" stroke="#555555" points="503,-100.22 513.34,-97.92 503.82,-93.27 503,-100.22"/>
</g>
<!-- n6 -->
<g id="node11" class="node">
<title>n6</title>
<path fill="#e8f4f8" stroke="black" d="M396,-36C396,-36 337,-36 337,-36 331,-36 325,-30 325,-24 325,-24 325,-12 325,-12 325,-6 331,0 337,0 337,0 396,0 396,0 402,0 408,-6 408,-12 408,-12 408,-24 408,-24 408,-30 402,-36 396,-36"/>
<text text-anchor="middle" x="366.5" y="-15.2" font-family="Helvetica" font-size="11.00">WriteToLog</text>
</g>
<!-- n1&#45;&gt;n6 -->
<g id="edge8" class="edge">
<title>n1&#45;&gt;n6</title>
<path fill="none" stroke="#555555" d="M266.3,-41.94C282.77,-37.97 299.84,-33.85 315.08,-30.17"/>
<polygon fill="#555555" stroke="#555555" points="315.9,-33.57 324.8,-27.82 314.26,-26.77 315.9,-33.57"/>
</g>
<!-- n10 -->
<g id="node3" class="node">
<title>n10</title>
<path fill="#e8f4f8" stroke="black" d="M389.5,-281C389.5,-281 343.5,-281 343.5,-281 337.5,-281 331.5,-275 331.5,-269 331.5,-269 331.5,-257 331.5,-257 331.5,-251 337.5,-245 343.5,-245 343.5,-245 389.5,-245 389.5,-245 395.5,-245 401.5,-251 401.5,-257 401.5,-257 401.5,-269 401.5,-269 401.5,-275 395.5,-281 389.5,-281"/>
<text text-anchor="middle" x="366.5" y="-260.2" font-family="Helvetica" font-size="11.00">LogStart</text>
</g>
<!-- n13 -->
<g id="node6" class="node">
<title>n13</title>
<path fill="#e8f4f8" stroke="black" d="M579.5,-281C579.5,-281 501.5,-281 501.5,-281 495.5,-281 489.5,-275 489.5,-269 489.5,-269 489.5,-257 489.5,-257 489.5,-251 495.5,-245 501.5,-245 501.5,-245 579.5,-245 579.5,-245 585.5,-245 591.5,-251 591.5,-257 591.5,-257 591.5,-269 591.5,-269 591.5,-275 585.5,-281 579.5,-281"/>
<text text-anchor="middle" x="540.5" y="-260.2" font-family="Helvetica" font-size="11.00">Retry Requests</text>
</g>
<!-- n10&#45;&gt;n13 -->
<g id="edge14" class="edge">
<title>n10&#45;&gt;n13</title>
<path fill="none" stroke="#555555" d="M401.89,-263C423.96,-263 453.23,-263 479.09,-263"/>
<polygon fill="#555555" stroke="#555555" points="479.19,-266.5 489.19,-263 479.19,-259.5 479.19,-266.5"/>
</g>
<!-- n11 -->
<g id="node4" class="node">
<title>n11</title>
<path fill="#e8f4f8" stroke="black" d="M750,-281C750,-281 708,-281 708,-281 702,-281 696,-275 696,-269 696,-269 696,-257 696,-257 696,-251 702,-245 708,-245 708,-245 750,-245 750,-245 756,-245 762,-251 762,-257 762,-257 762,-269 762,-269 762,-275 756,-281 750,-281"/>
<text text-anchor="middle" x="729" y="-260.2" font-family="Helvetica" font-size="11.00">LogEnd</text>
</g>
<!-- n12 -->
<g id="node5" class="node">
<title>n12</title>
<path fill="#ffccbc" stroke="black" d="M885,-281C885,-281 855,-281 855,-281 849,-281 843,-275 843,-269 843,-269 843,-257 843,-257 843,-251 849,-245 855,-245 855,-245 885,-245 885,-245 891,-245 897,-251 897,-257 897,-257 897,-269 897,-269 897,-275 891,-281 885,-281"/>
<text text-anchor="middle" x="870" y="-260.2" font-family="Helvetica" font-size="11.00">End</text>
</g>
<!-- n11&#45;&gt;n12 -->
<g id="edge12" class="edge">
<title>n11&#45;&gt;n12</title>
<path fill="none" stroke="#555555" d="M762.24,-263C783.33,-263 810.92,-263 832.77,-263"/>
<polygon fill="#555555" stroke="#555555" points="832.98,-266.5 842.98,-263 832.98,-259.5 832.98,-266.5"/>
</g>
<!-- n13&#45;&gt;n11 -->
<g id="edge13" class="edge">
<title>n13&#45;&gt;n11</title>
<path fill="none" stroke="#555555" d="M591.97,-263C621.34,-263 657.93,-263 685.76,-263"/>
<polygon fill="#555555" stroke="#555555" points="685.97,-266.5 695.97,-263 685.97,-259.5 685.97,-266.5"/>
</g>
<!-- n3 -->
<g id="node8" class="node">
<title>n3</title>
<path fill="#ffccbc" stroke="black" d="M885,-115C885,-115 855,-115 855,-115 849,-115 843,-109 843,-103 843,-103 843,-91 843,-91 843,-85 849,-79 855,-79 855,-79 885,-79 885,-79 891,-79 897,-85 897,-91 897,-91 897,-103 897,-103 897,-109 891,-115 885,-115"/>
<text text-anchor="middle" x="870" y="-94.2" font-family="Helvetica" font-size="11.00">end</text>
</g>
<!-- n2&#45;&gt;n3 -->
<g id="edge2" class="edge">
<title>n2&#45;&gt;n3</title>
<path fill="none" stroke="#555555" d="M567.68,-110.89C612.53,-126.47 706.8,-153.27 785,-136 801.74,-132.3 819.11,-124.92 833.68,-117.56"/>
<polygon fill="#555555" stroke="#555555" points="835.59,-120.51 842.82,-112.77 832.34,-114.31 835.59,-120.51"/>
</g>
<!-- n4 -->
<g id="node9" class="node">
<title>n4</title>
<path fill="#ffcdd2" stroke="black" d="M773,-115C773,-115 685,-115 685,-115 679,-115 673,-109 673,-103 673,-103 673,-91 673,-91 673,-85 679,-79 685,-79 685,-79 773,-79 773,-79 779,-79 785,-85 785,-91 785,-91 785,-103 785,-103 785,-109 779,-115 773,-115"/>
<text text-anchor="middle" x="729" y="-94.2" font-family="Helvetica" font-size="11.00">WriteToLog&#45;Error</text>
</g>
<!-- n2&#45;&gt;n4 -->
<g id="edge9" class="edge">
<title>n2&#45;&gt;n4</title>
<path fill="none" stroke="#555555" d="M567.83,-100.44C592.29,-99.91 629.74,-99.11 662.28,-98.41"/>
<polygon fill="#555555" stroke="#555555" points="662.72,-101.9 672.65,-98.19 662.57,-94.9 662.72,-101.9"/>
</g>
<!-- n4&#45;&gt;n3 -->
<g id="edge3" class="edge">
<title>n4&#45;&gt;n3</title>
<path fill="none" stroke="#555555" d="M785.34,-97C801.3,-97 818.3,-97 832.78,-97"/>
<polygon fill="#555555" stroke="#555555" points="832.83,-100.5 842.83,-97 832.83,-93.5 832.83,-100.5"/>
</g>
<!-- n5 -->
<g id="node10" class="node">
<title>n5</title>
<path fill="#e8f4f8" stroke="black" d="M750.5,-36C750.5,-36 707.5,-36 707.5,-36 701.5,-36 695.5,-30 695.5,-24 695.5,-24 695.5,-12 695.5,-12 695.5,-6 701.5,0 707.5,0 707.5,0 750.5,0 750.5,0 756.5,0 762.5,-6 762.5,-12 762.5,-12 762.5,-24 762.5,-24 762.5,-30 756.5,-36 750.5,-36"/>
<text text-anchor="middle" x="729" y="-15.2" font-family="Helvetica" font-size="11.00">Confirm</text>
</g>
<!-- n5&#45;&gt;n3 -->
<g id="edge4" class="edge">
<title>n5&#45;&gt;n3</title>
<path fill="none" stroke="#555555" d="M761.89,-36.12C783.45,-48.38 811.91,-64.55 834.08,-77.15"/>
<polygon fill="#555555" stroke="#555555" points="832.42,-80.24 842.85,-82.14 835.88,-74.15 832.42,-80.24"/>
</g>
<!-- n7 -->
<g id="node12" class="node">
<title>n7</title>
<path fill="#e8f4f8" stroke="black" d="M603,-36C603,-36 478,-36 478,-36 472,-36 466,-30 466,-24 466,-24 466,-12 466,-12 466,-6 472,0 478,0 478,0 603,0 603,0 609,0 615,-6 615,-12 615,-12 615,-24 615,-24 615,-30 609,-36 603,-36"/>
<text text-anchor="middle" x="540.5" y="-15.2" font-family="Helvetica" font-size="11.00">PublishToRequestQueue</text>
</g>
<!-- n6&#45;&gt;n7 -->
<g id="edge5" class="edge">
<title>n6&#45;&gt;n7</title>
<path fill="none" stroke="#555555" d="M408.26,-18C422.49,-18 439.04,-18 455.48,-18"/>
<polygon fill="#555555" stroke="#555555" points="455.69,-21.5 465.69,-18 455.69,-14.5 455.69,-21.5"/>
</g>
<!-- n7&#45;&gt;n5 -->
<g id="edge6" class="edge">
<title>n7&#45;&gt;n5</title>
<path fill="none" stroke="#555555" d="M615.21,-18C638.9,-18 664.35,-18 685.07,-18"/>
<polygon fill="#555555" stroke="#555555" points="685.14,-21.5 695.14,-18 685.14,-14.5 685.14,-21.5"/>
</g>
<!-- n8 -->
<g id="node13" class="node">
<title>n8</title>
<path fill="#e8f4f8" stroke="black" d="M44,-281C44,-281 12,-281 12,-281 6,-281 0,-275 0,-269 0,-269 0,-257 0,-257 0,-251 6,-245 12,-245 12,-245 44,-245 44,-245 50,-245 56,-251 56,-257 56,-257 56,-269 56,-269 56,-275 50,-281 44,-281"/>
<text text-anchor="middle" x="28" y="-260.2" font-family="Helvetica" font-size="11.00">Timer</text>
</g>
<!-- n9 -->
<g id="node14" class="node">
<title>n9</title>
<path fill="#e8f4f8" stroke="black" d="M251.5,-281C251.5,-281 129.5,-281 129.5,-281 123.5,-281 117.5,-275 117.5,-269 117.5,-269 117.5,-257 117.5,-257 117.5,-251 123.5,-245 129.5,-245 129.5,-245 251.5,-245 251.5,-245 257.5,-245 263.5,-251 263.5,-257 263.5,-257 263.5,-269 263.5,-269 263.5,-275 257.5,-281 251.5,-281"/>
<text text-anchor="middle" x="190.5" y="-260.2" font-family="Helvetica" font-size="11.00">Comp Invocation Details</text>
</g>
<!-- n8&#45;&gt;n9 -->
<g id="edge10" class="edge">
<title>n8&#45;&gt;n9</title>
<path fill="none" stroke="#555555" d="M56.23,-263C70.49,-263 88.8,-263 107.24,-263"/>
<polygon fill="#555555" stroke="#555555" points="107.48,-266.5 117.48,-263 107.48,-259.5 107.48,-266.5"/>
</g>
<!-- n9&#45;&gt;n10 -->
<g id="edge11" class="edge">
<title>n9&#45;&gt;n10</title>
<path fill="none" stroke="#555555" d="M263.53,-263C282.88,-263 303.26,-263 320.67,-263"/>
<polygon fill="#555555" stroke="#555555" points="321.08,-266.5 331.08,-263 321.08,-259.5 321.08,-266.5"/>
</g>
</g>
</svg>
