<?xml version="1.0" encoding="UTF-8" standalone="no"?>
<!DOCTYPE svg PUBLIC "-//W3C//DTD SVG 1.1//EN"
 "http://www.w3.org/Graphics/SVG/1.1/DTD/svg11.dtd">
<!-- Generated by graphviz version 2.44.0 (0)
 -->
<!-- Title: process Pages: 1 -->
<svg width="953pt" height="187pt"
 viewBox="0.00 0.00 953.00 187.00" xmlns="http://www.w3.org/2000/svg" xmlns:xlink="http://www.w3.org/1999/xlink">
<g id="graph0" class="graph" transform="scale(1 1) rotate(0) translate(36 151)">
<title>process</title>
<polygon fill="#ffffff" stroke="transparent" points="-36,36 -36,-151 917,-151 917,36 -36,36"/>
<!-- n0 -->
<g id="node1" class="node">
<title>n0</title>
<path fill="#c8e6c9" stroke="black" d="M42,-75C42,-75 12,-75 12,-75 6,-75 0,-69 0,-63 0,-63 0,-51 0,-51 0,-45 6,-39 12,-39 12,-39 42,-39 42,-39 48,-39 54,-45 54,-51 54,-51 54,-63 54,-63 54,-69 48,-75 42,-75"/>
<text text-anchor="middle" x="27" y="-54.2" font-family="Helvetica" font-size="11.00">Start</text>
</g>
<!-- n1 -->
<g id="node2" class="node">
<title>n1</title>
<path fill="#e8f4f8" stroke="black" d="M190,-75C190,-75 124,-75 124,-75 118,-75 112,-69 112,-63 112,-63 112,-51 112,-51 112,-45 118,-39 124,-39 124,-39 190,-39 190,-39 196,-39 202,-45 202,-51 202,-51 202,-63 202,-63 202,-69 196,-75 190,-75"/>
<text text-anchor="middle" x="157" y="-54.2" font-family="Helvetica" font-size="11.00">PrepareData</text>
</g>
<!-- n0&#45;&gt;n1 -->
<g id="edge1" class="edge">
<title>n0&#45;&gt;n1</title>
<path fill="none" stroke="#555555" d="M54.21,-57C67.96,-57 85.34,-57 101.82,-57"/>
<polygon fill="#555555" stroke="#555555" points="101.93,-60.5 111.93,-57 101.93,-53.5 101.93,-60.5"/>
</g>
<!-- n4 -->
<g id="node5" class="node">
<title>n4</title>
<path fill="#e8f4f8" stroke="black" d="M375,-75C375,-75 272,-75 272,-75 266,-75 260,-69 260,-63 260,-63 260,-51 260,-51 260,-45 266,-39 272,-39 272,-39 375,-39 375,-39 381,-39 387,-45 387,-51 387,-51 387,-63 387,-63 387,-69 381,-75 375,-75"/>
<text text-anchor="middle" x="323.5" y="-54.2" font-family="Helvetica" font-size="11.00">JMS Topic Publisher</text>
</g>
<!-- n1&#45;&gt;n4 -->
<g id="edge5" class="edge">
<title>n1&#45;&gt;n4</title>
<path fill="none" stroke="#555555" d="M202.08,-57C216.74,-57 233.48,-57 249.72,-57"/>
<polygon fill="#555555" stroke="#555555" points="249.74,-60.5 259.74,-57 249.74,-53.5 249.74,-60.5"/>
</g>
<!-- n2 -->
<g id="node3" class="node">
<title>n2</title>
<path fill="#ffcdd2" stroke="black" d="M710,-36C710,-36 631,-36 631,-36 625,-36 619,-30 619,-24 619,-24 619,-12 619,-12 619,-6 625,0 631,0 631,0 710,0 710,0 716,0 722,-6 722,-12 722,-12 722,-24 722,-24 722,-30 716,-36 710,-36"/>
<text text-anchor="middle" x="670.5" y="-15.2" font-family="Helvetica" font-size="11.00">Map Error Data</text>
</g>
<!-- n3 -->
<g id="node4" class="node">
<title>n3</title>
<path fill="#ffcdd2" stroke="black" d="M869,-36C869,-36 792,-36 792,-36 786,-36 780,-30 780,-24 780,-24 780,-12 780,-12 780,-6 786,0 792,0 792,0 869,0 869,0 875,0 881,-6 881,-12 881,-12 881,-24 881,-24 881,-30 875,-36 869,-36"/>
<text text-anchor="middle" x="830.5" y="-15.2" font-family="Helvetica" font-size="11.00">Generate Error</text>
</g>
<!-- n2&#45;&gt;n3 -->
<g id="edge2" class="edge">
<title>n2&#45;&gt;n3</title>
<path fill="none" stroke="#555555" d="M722.36,-18C737.46,-18 754.13,-18 769.74,-18"/>
<polygon fill="#555555" stroke="#555555" points="769.81,-21.5 779.81,-18 769.81,-14.5 769.81,-21.5"/>
</g>
<!-- n5 -->
<g id="node6" class="node">
<title>n5</title>
<path fill="#ffccbc" stroke="black" d="M518,-115C518,-115 488,-115 488,-115 482,-115 476,-109 476,-103 476,-103 476,-91 476,-91 476,-85 482,-79 488,-79 488,-79 518,-79 518,-79 524,-79 530,-85 530,-91 530,-91 530,-103 530,-103 530,-109 524,-115 518,-115"/>
<text text-anchor="middle" x="503" y="-94.2" font-family="Helvetica" font-size="11.00">End</text>
</g>
<!-- n4&#45;&gt;n5 -->
<g id="edge3" class="edge">
<title>n4&#45;&gt;n5</title>
<path fill="none" stroke="#555555" d="M387.08,-71.1C413.57,-77.07 443.47,-83.81 466.13,-88.92"/>
<polygon fill="#555555" stroke="#555555" points="465.47,-92.36 475.99,-91.14 467.01,-85.53 465.47,-92.36"/>
</g>
<!-- n6 -->
<g id="node7" class="node">
<title>n6</title>
<path fill="#e8f4f8" stroke="black" d="M549,-36C549,-36 457,-36 457,-36 451,-36 445,-30 445,-24 445,-24 445,-12 445,-12 445,-6 451,0 457,0 457,0 549,0 549,0 555,0 561,-6 561,-12 561,-12 561,-24 561,-24 561,-30 555,-36 549,-36"/>
<text text-anchor="middle" x="503" y="-15.2" font-family="Helvetica" font-size="11.00">MapAnyException</text>
</g>
<!-- n4&#45;&gt;n6 -->
<g id="edge4" class="edge">
<title>n4&#45;&gt;n6</title>
<path fill="none" stroke="#555555" d="M387.08,-43.25C402.47,-39.87 419.02,-36.23 434.63,-32.8"/>
<polygon fill="#555555" stroke="#555555" points="435.71,-36.15 444.73,-30.58 434.21,-29.31 435.71,-36.15"/>
</g>
<!-- n6&#45;&gt;n2 -->
<g id="edge6" class="edge">
<title>n6&#45;&gt;n2</title>
<path fill="none" stroke="#555555" d="M561.42,-18C576.59,-18 593.02,-18 608.38,-18"/>
<polygon fill="#555555" stroke="#555555" points="608.81,-21.5 618.81,-18 608.81,-14.5 608.81,-21.5"/>
</g>
</g>
</svg>
