<?xml version="1.0" encoding="UTF-8" standalone="no"?>
<!DOCTYPE svg PUBLIC "-//W3C//DTD SVG 1.1//EN"
 "http://www.w3.org/Graphics/SVG/1.1/DTD/svg11.dtd">
<!-- Generated by graphviz version 2.44.0 (0)
 -->
<!-- Title: process Pages: 1 -->
<svg width="1687pt" height="274pt"
 viewBox="0.00 0.00 1687.00 274.00" xmlns="http://www.w3.org/2000/svg" xmlns:xlink="http://www.w3.org/1999/xlink">
<g id="graph0" class="graph" transform="scale(1 1) rotate(0) translate(36 238)">
<title>process</title>
<polygon fill="#ffffff" stroke="transparent" points="-36,36 -36,-238 1651,-238 1651,36 -36,36"/>
<!-- n0 -->
<g id="node1" class="node">
<title>n0</title>
<path fill="#e8f4f8" stroke="black" d="M1340,-119C1340,-119 1239,-119 1239,-119 1233,-119 1227,-113 1227,-107 1227,-107 1227,-95 1227,-95 1227,-89 1233,-83 1239,-83 1239,-83 1340,-83 1340,-83 1346,-83 1352,-89 1352,-95 1352,-95 1352,-107 1352,-107 1352,-113 1346,-119 1340,-119"/>
<text text-anchor="middle" x="1289.5" y="-98.2" font-family="Helvetica" font-size="11.00">JMS Queue Sender</text>
</g>
<!-- n1 -->
<g id="node2" class="node">
<title>n1</title>
<path fill="#e8f4f8" stroke="black" d="M1491,-119C1491,-119 1422,-119 1422,-119 1416,-119 1410,-113 1410,-107 1410,-107 1410,-95 1410,-95 1410,-89 1416,-83 1422,-83 1422,-83 1491,-83 1491,-83 1497,-83 1503,-89 1503,-95 1503,-95 1503,-107 1503,-107 1503,-113 1497,-119 1491,-119"/>
<text text-anchor="middle" x="1456.5" y="-98.2" font-family="Helvetica" font-size="11.00">WriteToLog&#45;1</text>
</g>
<!-- n0&#45;&gt;n1 -->
<g id="edge1" class="edge">
<title>n0&#45;&gt;n1</title>
<path fill="none" stroke="#555555" d="M1352.41,-101C1367.94,-101 1384.51,-101 1399.72,-101"/>
<polygon fill="#555555" stroke="#555555" points="1400,-104.5 1410,-101 1400,-97.5 1400,-104.5"/>
</g>
<!-- n7 -->
<g id="node11" class="node">
<title>n7</title>
<path fill="#ffccbc" stroke="black" d="M1603,-119C1603,-119 1573,-119 1573,-119 1567,-119 1561,-113 1561,-107 1561,-107 1561,-95 1561,-95 1561,-89 1567,-83 1573,-83 1573,-83 1603,-83 1603,-83 1609,-83 1615,-89 1615,-95 1615,-95 1615,-107 1615,-107 1615,-113 1609,-119 1603,-119"/>
<text text-anchor="middle" x="1588" y="-98.2" font-family="Helvetica" font-size="11.00">End</text>
</g>
<!-- n1&#45;&gt;n7 -->
<g id="edge10" class="edge">
<title>n1&#45;&gt;n7</title>
<path fill="none" stroke="#555555" d="M1503.16,-101C1518.74,-101 1535.95,-101 1550.7,-101"/>
<polygon fill="#555555" stroke="#555555" points="1550.95,-104.5 1560.95,-101 1550.95,-97.5 1550.95,-104.5"/>
</g>
<!-- n10 -->
<g id="node3" class="node">
<title>n10</title>
<path fill="#ffcdd2" stroke="black" d="M764,-119C764,-119 621,-119 621,-119 615,-119 609,-113 609,-107 609,-107 609,-95 609,-95 609,-89 615,-83 621,-83 621,-83 764,-83 764,-83 770,-83 776,-89 776,-95 776,-95 776,-107 776,-107 776,-113 770,-119 764,-119"/>
<text text-anchor="middle" x="692.5" y="-98.2" font-family="Helvetica" font-size="11.00">Search Matching Error Code</text>
</g>
<!-- n4 -->
<g id="node8" class="node">
<title>n4</title>
<path fill="#e8f4f8" stroke="black" d="M893,-119C893,-119 846,-119 846,-119 840,-119 834,-113 834,-107 834,-107 834,-95 834,-95 834,-89 840,-83 846,-83 846,-83 893,-83 893,-83 899,-83 905,-89 905,-95 905,-95 905,-107 905,-107 905,-113 899,-119 893,-119"/>
<text text-anchor="middle" x="869.5" y="-98.2" font-family="Helvetica" font-size="11.00">Elligibility</text>
</g>
<!-- n10&#45;&gt;n4 -->
<g id="edge14" class="edge">
<title>n10&#45;&gt;n4</title>
<path fill="none" stroke="#555555" d="M776.13,-101C792.51,-101 809.12,-101 823.65,-101"/>
<polygon fill="#555555" stroke="#555555" points="823.83,-104.5 833.83,-101 823.83,-97.5 823.83,-104.5"/>
</g>
<!-- n11 -->
<g id="node4" class="node">
<title>n11</title>
<path fill="#e8f4f8" stroke="black" d="M1151.5,-202C1151.5,-202 1092.5,-202 1092.5,-202 1086.5,-202 1080.5,-196 1080.5,-190 1080.5,-190 1080.5,-178 1080.5,-178 1080.5,-172 1086.5,-166 1092.5,-166 1092.5,-166 1151.5,-166 1151.5,-166 1157.5,-166 1163.5,-172 1163.5,-178 1163.5,-178 1163.5,-190 1163.5,-190 1163.5,-196 1157.5,-202 1151.5,-202"/>
<text text-anchor="middle" x="1122" y="-181.2" font-family="Helvetica" font-size="11.00">WriteToLog</text>
</g>
<!-- n11&#45;&gt;n7 -->
<g id="edge9" class="edge">
<title>n11&#45;&gt;n7</title>
<path fill="none" stroke="#555555" d="M1163.51,-183.78C1233.91,-182.44 1382.83,-175.37 1503,-141 1519.56,-136.26 1536.9,-128.53 1551.5,-121.12"/>
<polygon fill="#555555" stroke="#555555" points="1553.42,-124.07 1560.66,-116.34 1550.17,-117.87 1553.42,-124.07"/>
</g>
<!-- n12 -->
<g id="node5" class="node">
<title>n12</title>
<path fill="#e8f4f8" stroke="black" d="M1157,-119C1157,-119 1087,-119 1087,-119 1081,-119 1075,-113 1075,-107 1075,-107 1075,-95 1075,-95 1075,-89 1081,-83 1087,-83 1087,-83 1157,-83 1157,-83 1163,-83 1169,-89 1169,-95 1169,-95 1169,-107 1169,-107 1169,-113 1163,-119 1157,-119"/>
<text text-anchor="middle" x="1122" y="-98.2" font-family="Helvetica" font-size="11.00">Retry Params</text>
</g>
<!-- n12&#45;&gt;n0 -->
<g id="edge11" class="edge">
<title>n12&#45;&gt;n0</title>
<path fill="none" stroke="#555555" d="M1169.1,-101C1183.77,-101 1200.37,-101 1216.42,-101"/>
<polygon fill="#555555" stroke="#555555" points="1216.87,-104.5 1226.87,-101 1216.87,-97.5 1216.87,-104.5"/>
</g>
<!-- n2 -->
<g id="node6" class="node">
<title>n2</title>
<path fill="#c8e6c9" stroke="black" d="M42,-77C42,-77 12,-77 12,-77 6,-77 0,-71 0,-65 0,-65 0,-53 0,-53 0,-47 6,-41 12,-41 12,-41 42,-41 42,-41 48,-41 54,-47 54,-53 54,-53 54,-65 54,-65 54,-71 48,-77 42,-77"/>
<text text-anchor="middle" x="27" y="-56.2" font-family="Helvetica" font-size="11.00">Start</text>
</g>
<!-- n3 -->
<g id="node7" class="node">
<title>n3</title>
<path fill="#e8f4f8" stroke="black" d="M209,-119C209,-119 124,-119 124,-119 118,-119 112,-113 112,-107 112,-107 112,-95 112,-95 112,-89 118,-83 124,-83 124,-83 209,-83 209,-83 215,-83 221,-89 221,-95 221,-95 221,-107 221,-107 221,-113 215,-119 209,-119"/>
<text text-anchor="middle" x="166.5" y="-98.2" font-family="Helvetica" font-size="11.00">Parse EventType</text>
</g>
<!-- n2&#45;&gt;n3 -->
<g id="edge2" class="edge">
<title>n2&#45;&gt;n3</title>
<path fill="none" stroke="#555555" d="M54.19,-67C67.8,-71.16 85.08,-76.44 101.95,-81.59"/>
<polygon fill="#555555" stroke="#555555" points="101.21,-85.02 111.8,-84.6 103.26,-78.33 101.21,-85.02"/>
</g>
<!-- n6 -->
<g id="node10" class="node">
<title>n6</title>
<path fill="#e8f4f8" stroke="black" d="M1005,-36C1005,-36 975,-36 975,-36 969,-36 963,-30 963,-24 963,-24 963,-12 963,-12 963,-6 969,0 975,0 975,0 1005,0 1005,0 1011,0 1017,-6 1017,-12 1017,-12 1017,-24 1017,-24 1017,-30 1011,-36 1005,-36"/>
<text text-anchor="middle" x="990" y="-15.2" font-family="Helvetica" font-size="11.00">Null</text>
</g>
<!-- n2&#45;&gt;n6 -->
<g id="edge15" class="edge">
<title>n2&#45;&gt;n6</title>
<path fill="none" stroke="#555555" d="M54.34,-53.13C107.55,-41.79 231.81,-18 337.5,-18 337.5,-18 337.5,-18 693.5,-18 787,-18 897.14,-18 952.84,-18"/>
<polygon fill="#555555" stroke="#555555" points="952.91,-21.5 962.91,-18 952.91,-14.5 952.91,-21.5"/>
</g>
<!-- n8 -->
<g id="node12" class="node">
<title>n8</title>
<path fill="#ffcdd2" stroke="black" d="M386,-119C386,-119 291,-119 291,-119 285,-119 279,-113 279,-107 279,-107 279,-95 279,-95 279,-89 285,-83 291,-83 291,-83 386,-83 386,-83 392,-83 398,-89 398,-95 398,-95 398,-107 398,-107 398,-113 392,-119 386,-119"/>
<text text-anchor="middle" x="338.5" y="-98.2" font-family="Helvetica" font-size="11.00">Parse Error Codes</text>
</g>
<!-- n3&#45;&gt;n8 -->
<g id="edge6" class="edge">
<title>n3&#45;&gt;n8</title>
<path fill="none" stroke="#555555" d="M221.29,-101C236.29,-101 252.8,-101 268.54,-101"/>
<polygon fill="#555555" stroke="#555555" points="268.76,-104.5 278.76,-101 268.76,-97.5 268.76,-104.5"/>
</g>
<!-- n4&#45;&gt;n11 -->
<g id="edge8" class="edge">
<title>n4&#45;&gt;n11</title>
<path fill="none" stroke="#555555" d="M905.17,-117.39C922.34,-125.14 943.52,-134.17 963,-141 998.35,-153.38 1039.16,-164.41 1070.45,-172.19"/>
<polygon fill="#555555" stroke="#555555" points="1069.7,-175.62 1080.25,-174.61 1071.38,-168.82 1069.7,-175.62"/>
</g>
<!-- n5 -->
<g id="node9" class="node">
<title>n5</title>
<path fill="#e8f4f8" stroke="black" d="M1005,-119C1005,-119 975,-119 975,-119 969,-119 963,-113 963,-107 963,-107 963,-95 963,-95 963,-89 969,-83 975,-83 975,-83 1005,-83 1005,-83 1011,-83 1017,-89 1017,-95 1017,-95 1017,-107 1017,-107 1017,-113 1011,-119 1005,-119"/>
<text text-anchor="middle" x="990" y="-98.2" font-family="Helvetica" font-size="11.00">Now</text>
</g>
<!-- n4&#45;&gt;n5 -->
<g id="edge3" class="edge">
<title>n4&#45;&gt;n5</title>
<path fill="none" stroke="#555555" d="M905.09,-101C920.08,-101 937.63,-101 952.79,-101"/>
<polygon fill="#555555" stroke="#555555" points="952.85,-104.5 962.85,-101 952.85,-97.5 952.85,-104.5"/>
</g>
<!-- n4&#45;&gt;n6 -->
<g id="edge4" class="edge">
<title>n4&#45;&gt;n6</title>
<path fill="none" stroke="#555555" d="M896.21,-82.99C913.33,-71 936.02,-55.11 954.67,-42.04"/>
<polygon fill="#555555" stroke="#555555" points="956.75,-44.86 962.93,-36.26 952.73,-39.13 956.75,-44.86"/>
</g>
<!-- n5&#45;&gt;n12 -->
<g id="edge12" class="edge">
<title>n5&#45;&gt;n12</title>
<path fill="none" stroke="#555555" d="M1017.31,-101C1031.01,-101 1048.32,-101 1064.85,-101"/>
<polygon fill="#555555" stroke="#555555" points="1065,-104.5 1075,-101 1065,-97.5 1065,-104.5"/>
</g>
<!-- n6&#45;&gt;n7 -->
<g id="edge5" class="edge">
<title>n6&#45;&gt;n7</title>
<path fill="none" stroke="#555555" d="M1017.12,-17.08C1093.4,-15.07 1321.95,-13.8 1503,-62 1519.57,-66.41 1536.91,-73.91 1551.5,-81.17"/>
<polygon fill="#555555" stroke="#555555" points="1550.17,-84.42 1560.66,-85.87 1553.36,-78.19 1550.17,-84.42"/>
</g>
<!-- n9 -->
<g id="node13" class="node">
<title>n9</title>
<path fill="#e8f4f8" stroke="black" d="M539,-119C539,-119 468,-119 468,-119 462,-119 456,-113 456,-107 456,-107 456,-95 456,-95 456,-89 462,-83 468,-83 468,-83 539,-83 539,-83 545,-83 551,-89 551,-95 551,-95 551,-107 551,-107 551,-113 545,-119 539,-119"/>
<text text-anchor="middle" x="503.5" y="-98.2" font-family="Helvetica" font-size="11.00">Get Retry Info</text>
</g>
<!-- n8&#45;&gt;n9 -->
<g id="edge13" class="edge">
<title>n8&#45;&gt;n9</title>
<path fill="none" stroke="#555555" d="M398.35,-101C413.68,-101 430.18,-101 445.43,-101"/>
<polygon fill="#555555" stroke="#555555" points="445.75,-104.5 455.75,-101 445.75,-97.5 445.75,-104.5"/>
</g>
<!-- n9&#45;&gt;n10 -->
<g id="edge7" class="edge">
<title>n9&#45;&gt;n10</title>
<path fill="none" stroke="#555555" d="M551.21,-101C565.63,-101 582.05,-101 598.46,-101"/>
<polygon fill="#555555" stroke="#555555" points="598.66,-104.5 608.65,-101 598.65,-97.5 598.66,-104.5"/>
</g>
</g>
</svg>
