<?xml version="1.0" encoding="UTF-8" standalone="no"?>
<!DOCTYPE svg PUBLIC "-//W3C//DTD SVG 1.1//EN"
 "http://www.w3.org/Graphics/SVG/1.1/DTD/svg11.dtd">
<!-- Generated by graphviz version 2.44.0 (0)
 -->
<!-- Title: process Pages: 1 -->
<svg width="1070pt" height="228pt"
 viewBox="0.00 0.00 1070.00 228.00" xmlns="http://www.w3.org/2000/svg" xmlns:xlink="http://www.w3.org/1999/xlink">
<g id="graph0" class="graph" transform="scale(1 1) rotate(0) translate(36 192)">
<title>process</title>
<polygon fill="#ffffff" stroke="transparent" points="-36,36 -36,-192 1034,-192 1034,36 -36,36"/>
<!-- n0 -->
<g id="node1" class="node">
<title>n0</title>
<path fill="#e8f4f8" stroke="black" d="M632,-115C632,-115 516,-115 516,-115 510,-115 504,-109 504,-103 504,-103 504,-91 504,-91 504,-85 510,-79 516,-79 516,-79 632,-79 632,-79 638,-79 644,-85 644,-91 644,-91 644,-103 644,-103 644,-109 638,-115 632,-115"/>
<text text-anchor="middle" x="574" y="-94.2" font-family="Helvetica" font-size="11.00">Publish to OSM Queue</text>
</g>
<!-- n1 -->
<g id="node2" class="node">
<title>n1</title>
<path fill="#ffccbc" stroke="black" d="M962.5,-156C962.5,-156 932.5,-156 932.5,-156 926.5,-156 920.5,-150 920.5,-144 920.5,-144 920.5,-132 920.5,-132 920.5,-126 926.5,-120 932.5,-120 932.5,-120 962.5,-120 962.5,-120 968.5,-120 974.5,-126 974.5,-132 974.5,-132 974.5,-144 974.5,-144 974.5,-150 968.5,-156 962.5,-156"/>
<text text-anchor="middle" x="947.5" y="-135.2" font-family="Helvetica" font-size="11.00">End</text>
</g>
<!-- n0&#45;&gt;n1 -->
<g id="edge1" class="edge">
<title>n0&#45;&gt;n1</title>
<path fill="none" stroke="#555555" d="M620.65,-115.05C644.48,-123.52 674.36,-132.69 702,-137 775.11,-148.39 862.02,-144.74 910.04,-141.24"/>
<polygon fill="#555555" stroke="#555555" points="910.54,-144.71 920.24,-140.46 910,-137.73 910.54,-144.71"/>
</g>
<!-- n4 -->
<g id="node5" class="node">
<title>n4</title>
<path fill="#e8f4f8" stroke="black" d="M827,-115C827,-115 714,-115 714,-115 708,-115 702,-109 702,-103 702,-103 702,-91 702,-91 702,-85 708,-79 714,-79 714,-79 827,-79 827,-79 833,-79 839,-85 839,-91 839,-91 839,-103 839,-103 839,-109 833,-115 827,-115"/>
<text text-anchor="middle" x="770.5" y="-94.2" font-family="Helvetica" font-size="11.00">GetResponseMessage</text>
</g>
<!-- n0&#45;&gt;n4 -->
<g id="edge4" class="edge">
<title>n0&#45;&gt;n4</title>
<path fill="none" stroke="#555555" d="M644.12,-97C659.53,-97 675.96,-97 691.69,-97"/>
<polygon fill="#555555" stroke="#555555" points="691.91,-100.5 701.91,-97 691.91,-93.5 691.91,-100.5"/>
</g>
<!-- n5 -->
<g id="node6" class="node">
<title>n5</title>
<path fill="#e8f4f8" stroke="black" d="M794,-36C794,-36 747,-36 747,-36 741,-36 735,-30 735,-24 735,-24 735,-12 735,-12 735,-6 741,0 747,0 747,0 794,0 794,0 800,0 806,-6 806,-12 806,-12 806,-24 806,-24 806,-30 800,-36 794,-36"/>
<text text-anchor="middle" x="770.5" y="-15.2" font-family="Helvetica" font-size="11.00">LogError</text>
</g>
<!-- n0&#45;&gt;n5 -->
<g id="edge5" class="edge">
<title>n0&#45;&gt;n5</title>
<path fill="none" stroke="#555555" d="M619.62,-78.88C651.33,-66 693.73,-48.78 725.34,-35.94"/>
<polygon fill="#555555" stroke="#555555" points="726.83,-39.11 734.78,-32.1 724.19,-32.62 726.83,-39.11"/>
</g>
<!-- n2 -->
<g id="node3" class="node">
<title>n2</title>
<path fill="#e8f4f8" stroke="black" d="M434,-115C434,-115 342,-115 342,-115 336,-115 330,-109 330,-103 330,-103 330,-91 330,-91 330,-85 336,-79 342,-79 342,-79 434,-79 434,-79 440,-79 446,-85 446,-91 446,-91 446,-103 446,-103 446,-109 440,-115 434,-115"/>
<text text-anchor="middle" x="388" y="-94.2" font-family="Helvetica" font-size="11.00">GetRoutingDetails</text>
</g>
<!-- n2&#45;&gt;n0 -->
<g id="edge2" class="edge">
<title>n2&#45;&gt;n0</title>
<path fill="none" stroke="#555555" d="M446.21,-97C461.18,-97 477.59,-97 493.5,-97"/>
<polygon fill="#555555" stroke="#555555" points="493.86,-100.5 503.86,-97 493.86,-93.5 493.86,-100.5"/>
</g>
<!-- n3 -->
<g id="node4" class="node">
<title>n3</title>
<path fill="#e8f4f8" stroke="black" d="M260,-115C260,-115 124,-115 124,-115 118,-115 112,-109 112,-103 112,-103 112,-91 112,-91 112,-85 118,-79 124,-79 124,-79 260,-79 260,-79 266,-79 272,-85 272,-91 272,-91 272,-103 272,-103 272,-109 266,-115 260,-115"/>
<text text-anchor="middle" x="192" y="-94.2" font-family="Helvetica" font-size="11.00">Generate Operation Details</text>
</g>
<!-- n3&#45;&gt;n2 -->
<g id="edge3" class="edge">
<title>n3&#45;&gt;n2</title>
<path fill="none" stroke="#555555" d="M272.19,-97C287.85,-97 304.16,-97 319.39,-97"/>
<polygon fill="#555555" stroke="#555555" points="319.75,-100.5 329.75,-97 319.75,-93.5 319.75,-100.5"/>
</g>
<!-- n4&#45;&gt;n1 -->
<g id="edge8" class="edge">
<title>n4&#45;&gt;n1</title>
<path fill="none" stroke="#555555" d="M839.16,-112.85C863.35,-118.52 889.68,-124.69 910.2,-129.5"/>
<polygon fill="#555555" stroke="#555555" points="909.54,-132.93 920.07,-131.81 911.13,-126.12 909.54,-132.93"/>
</g>
<!-- n6 -->
<g id="node7" class="node">
<title>n6</title>
<path fill="#ffcdd2" stroke="black" d="M986,-36C986,-36 909,-36 909,-36 903,-36 897,-30 897,-24 897,-24 897,-12 897,-12 897,-6 903,0 909,0 909,0 986,0 986,0 992,0 998,-6 998,-12 998,-12 998,-24 998,-24 998,-30 992,-36 986,-36"/>
<text text-anchor="middle" x="947.5" y="-15.2" font-family="Helvetica" font-size="11.00">Generate Error</text>
</g>
<!-- n5&#45;&gt;n6 -->
<g id="edge6" class="edge">
<title>n5&#45;&gt;n6</title>
<path fill="none" stroke="#555555" d="M806.07,-18C829.04,-18 859.79,-18 886.67,-18"/>
<polygon fill="#555555" stroke="#555555" points="886.75,-21.5 896.75,-18 886.75,-14.5 886.75,-21.5"/>
</g>
<!-- n7 -->
<g id="node8" class="node">
<title>n7</title>
<path fill="#c8e6c9" stroke="black" d="M42,-115C42,-115 12,-115 12,-115 6,-115 0,-109 0,-103 0,-103 0,-91 0,-91 0,-85 6,-79 12,-79 12,-79 42,-79 42,-79 48,-79 54,-85 54,-91 54,-91 54,-103 54,-103 54,-109 48,-115 42,-115"/>
<text text-anchor="middle" x="27" y="-94.2" font-family="Helvetica" font-size="11.00">Start</text>
</g>
<!-- n7&#45;&gt;n3 -->
<g id="edge7" class="edge">
<title>n7&#45;&gt;n3</title>
<path fill="none" stroke="#555555" d="M54.19,-97C67.35,-97 84.16,-97 101.46,-97"/>
<polygon fill="#555555" stroke="#555555" points="101.68,-100.5 111.68,-97 101.68,-93.5 101.68,-100.5"/>
</g>
</g>
</svg>
