<?xml version="1.0" encoding="UTF-8" standalone="no"?>
<!DOCTYPE svg PUBLIC "-//W3C//DTD SVG 1.1//EN"
 "http://www.w3.org/Graphics/SVG/1.1/DTD/svg11.dtd">
<!-- Generated by graphviz version 2.44.0 (0)
 -->
<!-- Title: process Pages: 1 -->
<svg width="1473pt" height="191pt"
 viewBox="0.00 0.00 1473.00 191.00" xmlns="http://www.w3.org/2000/svg" xmlns:xlink="http://www.w3.org/1999/xlink">
<g id="graph0" class="graph" transform="scale(1 1) rotate(0) translate(36 155)">
<title>process</title>
<polygon fill="#ffffff" stroke="transparent" points="-36,36 -36,-155 1437,-155 1437,36 -36,36"/>
<!-- n0 -->
<g id="node1" class="node">
<title>n0</title>
<path fill="#e8f4f8" stroke="black" d="M737,-77C737,-77 621,-77 621,-77 615,-77 609,-71 609,-65 609,-65 609,-53 609,-53 609,-47 615,-41 621,-41 621,-41 737,-41 737,-41 743,-41 749,-47 749,-53 749,-53 749,-65 749,-65 749,-71 743,-77 737,-77"/>
<text text-anchor="middle" x="679" y="-56.2" font-family="Helvetica" font-size="11.00">Publish to OSM Queue</text>
</g>
<!-- n1 -->
<g id="node2" class="node">
<title>n1</title>
<path fill="#e8f4f8" stroke="black" d="M1093,-119C1093,-119 1051,-119 1051,-119 1045,-119 1039,-113 1039,-107 1039,-107 1039,-95 1039,-95 1039,-89 1045,-83 1051,-83 1051,-83 1093,-83 1093,-83 1099,-83 1105,-89 1105,-95 1105,-95 1105,-107 1105,-107 1105,-113 1099,-119 1093,-119"/>
<text text-anchor="middle" x="1072" y="-98.2" font-family="Helvetica" font-size="11.00">LogEnd</text>
</g>
<!-- n0&#45;&gt;n1 -->
<g id="edge1" class="edge">
<title>n0&#45;&gt;n1</title>
<path fill="none" stroke="#555555" d="M749,-66.41C829.95,-75.11 961.62,-89.25 1028.74,-96.46"/>
<polygon fill="#555555" stroke="#555555" points="1028.63,-99.97 1038.94,-97.56 1029.38,-93.01 1028.63,-99.97"/>
</g>
<!-- n7 -->
<g id="node8" class="node">
<title>n7</title>
<path fill="#e8f4f8" stroke="black" d="M914,-36C914,-36 819,-36 819,-36 813,-36 807,-30 807,-24 807,-24 807,-12 807,-12 807,-6 813,0 819,0 819,0 914,0 914,0 920,0 926,-6 926,-12 926,-12 926,-24 926,-24 926,-30 920,-36 914,-36"/>
<text text-anchor="middle" x="866.5" y="-15.2" font-family="Helvetica" font-size="11.00">WriteToLog&#45;Debug</text>
</g>
<!-- n0&#45;&gt;n7 -->
<g id="edge8" class="edge">
<title>n0&#45;&gt;n7</title>
<path fill="none" stroke="#555555" d="M749.07,-43.73C764.62,-40.3 781.12,-36.65 796.66,-33.22"/>
<polygon fill="#555555" stroke="#555555" points="797.7,-36.57 806.71,-30.99 796.19,-29.73 797.7,-36.57"/>
</g>
<!-- n5 -->
<g id="node6" class="node">
<title>n5</title>
<path fill="#ffccbc" stroke="black" d="M1389,-77C1389,-77 1359,-77 1359,-77 1353,-77 1347,-71 1347,-65 1347,-65 1347,-53 1347,-53 1347,-47 1353,-41 1359,-41 1359,-41 1389,-41 1389,-41 1395,-41 1401,-47 1401,-53 1401,-53 1401,-65 1401,-65 1401,-71 1395,-77 1389,-77"/>
<text text-anchor="middle" x="1374" y="-56.2" font-family="Helvetica" font-size="11.00">End</text>
</g>
<!-- n1&#45;&gt;n5 -->
<g id="edge4" class="edge">
<title>n1&#45;&gt;n5</title>
<path fill="none" stroke="#555555" d="M1105.11,-96.51C1161.43,-88.62 1277.67,-72.35 1336.78,-64.07"/>
<polygon fill="#555555" stroke="#555555" points="1337.36,-67.52 1346.78,-62.67 1336.39,-60.59 1337.36,-67.52"/>
</g>
<!-- n2 -->
<g id="node3" class="node">
<title>n2</title>
<path fill="#c8e6c9" stroke="black" d="M42,-77C42,-77 12,-77 12,-77 6,-77 0,-71 0,-65 0,-65 0,-53 0,-53 0,-47 6,-41 12,-41 12,-41 42,-41 42,-41 48,-41 54,-47 54,-53 54,-53 54,-65 54,-65 54,-71 48,-77 42,-77"/>
<text text-anchor="middle" x="27" y="-56.2" font-family="Helvetica" font-size="11.00">Start</text>
</g>
<!-- n3 -->
<g id="node4" class="node">
<title>n3</title>
<path fill="#ffccbc" stroke="black" d="M411,-77C411,-77 298,-77 298,-77 292,-77 286,-71 286,-65 286,-65 286,-53 286,-53 286,-47 292,-41 298,-41 298,-41 411,-41 411,-41 417,-41 423,-47 423,-53 423,-53 423,-65 423,-65 423,-71 417,-77 411,-77"/>
<text text-anchor="middle" x="354.5" y="-56.2" font-family="Helvetica" font-size="11.00">Map Response Queue</text>
</g>
<!-- n2&#45;&gt;n3 -->
<g id="edge2" class="edge">
<title>n2&#45;&gt;n3</title>
<path fill="none" stroke="#555555" d="M54.09,-59C101.54,-59 203.68,-59 275.42,-59"/>
<polygon fill="#555555" stroke="#555555" points="275.77,-62.5 285.77,-59 275.77,-55.5 275.77,-62.5"/>
</g>
<!-- n6 -->
<g id="node7" class="node">
<title>n6</title>
<path fill="#e8f4f8" stroke="black" d="M216,-36C216,-36 124,-36 124,-36 118,-36 112,-30 112,-24 112,-24 112,-12 112,-12 112,-6 118,0 124,0 124,0 216,0 216,0 222,0 228,-6 228,-12 228,-12 228,-24 228,-24 228,-30 222,-36 216,-36"/>
<text text-anchor="middle" x="170" y="-15.2" font-family="Helvetica" font-size="11.00">GetRoutingDetails</text>
</g>
<!-- n2&#45;&gt;n6 -->
<g id="edge5" class="edge">
<title>n2&#45;&gt;n6</title>
<path fill="none" stroke="#555555" d="M54.19,-51.38C67.77,-47.44 85.04,-42.41 102.04,-37.47"/>
<polygon fill="#555555" stroke="#555555" points="103.36,-40.73 111.98,-34.58 101.4,-34.01 103.36,-40.73"/>
</g>
<!-- n4 -->
<g id="node5" class="node">
<title>n4</title>
<path fill="#e8f4f8" stroke="black" d="M539,-77C539,-77 493,-77 493,-77 487,-77 481,-71 481,-65 481,-65 481,-53 481,-53 481,-47 487,-41 493,-41 493,-41 539,-41 539,-41 545,-41 551,-47 551,-53 551,-53 551,-65 551,-65 551,-71 545,-77 539,-77"/>
<text text-anchor="middle" x="516" y="-56.2" font-family="Helvetica" font-size="11.00">LogStart</text>
</g>
<!-- n3&#45;&gt;n4 -->
<g id="edge7" class="edge">
<title>n3&#45;&gt;n4</title>
<path fill="none" stroke="#555555" d="M423.14,-59C439.13,-59 455.78,-59 470.45,-59"/>
<polygon fill="#555555" stroke="#555555" points="470.74,-62.5 480.74,-59 470.74,-55.5 470.74,-62.5"/>
</g>
<!-- n4&#45;&gt;n0 -->
<g id="edge3" class="edge">
<title>n4&#45;&gt;n0</title>
<path fill="none" stroke="#555555" d="M551.14,-59C565.06,-59 581.77,-59 598.43,-59"/>
<polygon fill="#555555" stroke="#555555" points="598.77,-62.5 608.77,-59 598.77,-55.5 598.77,-62.5"/>
</g>
<!-- n6&#45;&gt;n3 -->
<g id="edge6" class="edge">
<title>n6&#45;&gt;n3</title>
<path fill="none" stroke="#555555" d="M228.24,-30.86C243.39,-34.26 260,-37.99 276.03,-41.6"/>
<polygon fill="#555555" stroke="#555555" points="275.39,-45.04 285.92,-43.82 276.93,-38.21 275.39,-45.04"/>
</g>
<!-- n8 -->
<g id="node9" class="node">
<title>n8</title>
<path fill="#ffcdd2" stroke="black" d="M1148,-36C1148,-36 996,-36 996,-36 990,-36 984,-30 984,-24 984,-24 984,-12 984,-12 984,-6 990,0 996,0 996,0 1148,0 1148,0 1154,0 1160,-6 1160,-12 1160,-12 1160,-24 1160,-24 1160,-30 1154,-36 1148,-36"/>
<text text-anchor="middle" x="1072" y="-15.2" font-family="Helvetica" font-size="11.00">Call Service Exception Handler</text>
</g>
<!-- n7&#45;&gt;n8 -->
<g id="edge11" class="edge">
<title>n7&#45;&gt;n8</title>
<path fill="none" stroke="#555555" d="M926.09,-18C940.96,-18 957.35,-18 973.59,-18"/>
<polygon fill="#555555" stroke="#555555" points="973.67,-21.5 983.67,-18 973.67,-14.5 973.67,-21.5"/>
</g>
<!-- n9 -->
<g id="node10" class="node">
<title>n9</title>
<path fill="#e8f4f8" stroke="black" d="M1277,-36C1277,-36 1230,-36 1230,-36 1224,-36 1218,-30 1218,-24 1218,-24 1218,-12 1218,-12 1218,-6 1224,0 1230,0 1230,0 1277,0 1277,0 1283,0 1289,-6 1289,-12 1289,-12 1289,-24 1289,-24 1289,-30 1283,-36 1277,-36"/>
<text text-anchor="middle" x="1253.5" y="-15.2" font-family="Helvetica" font-size="11.00">LogError</text>
</g>
<!-- n8&#45;&gt;n9 -->
<g id="edge9" class="edge">
<title>n8&#45;&gt;n9</title>
<path fill="none" stroke="#555555" d="M1160.12,-18C1176.65,-18 1193.3,-18 1207.83,-18"/>
<polygon fill="#555555" stroke="#555555" points="1208,-21.5 1218,-18 1208,-14.5 1208,-21.5"/>
</g>
<!-- n9&#45;&gt;n5 -->
<g id="edge10" class="edge">
<title>n9&#45;&gt;n5</title>
<path fill="none" stroke="#555555" d="M1289.09,-29.97C1304.22,-35.2 1321.97,-41.34 1337.23,-46.62"/>
<polygon fill="#555555" stroke="#555555" points="1336.25,-49.99 1346.85,-49.95 1338.54,-43.37 1336.25,-49.99"/>
</g>
</g>
</svg>
