<?xml version="1.0" encoding="UTF-8" standalone="no"?>
<!DOCTYPE svg PUBLIC "-//W3C//DTD SVG 1.1//EN"
 "http://www.w3.org/Graphics/SVG/1.1/DTD/svg11.dtd">
<!-- Generated by graphviz version 2.44.0 (0)
 -->
<!-- Title: process Pages: 1 -->
<svg width="1827pt" height="355pt"
 viewBox="0.00 0.00 1827.00 355.00" xmlns="http://www.w3.org/2000/svg" xmlns:xlink="http://www.w3.org/1999/xlink">
<g id="graph0" class="graph" transform="scale(1 1) rotate(0) translate(36 319)">
<title>process</title>
<polygon fill="#ffffff" stroke="transparent" points="-36,36 -36,-319 1791,-319 1791,36 -36,36"/>
<!-- n0 -->
<g id="node1" class="node">
<title>n0</title>
<path fill="#e8f4f8" stroke="black" d="M284,-247C284,-247 254,-247 254,-247 248,-247 242,-241 242,-235 242,-235 242,-223 242,-223 242,-217 248,-211 254,-211 254,-211 284,-211 284,-211 290,-211 296,-217 296,-223 296,-223 296,-235 296,-235 296,-241 290,-247 284,-247"/>
<text text-anchor="middle" x="269" y="-226.2" font-family="Helvetica" font-size="11.00">Null</text>
</g>
<!-- n1 -->
<g id="node2" class="node">
<title>n1</title>
<path fill="#e8f4f8" stroke="black" d="M498,-252C498,-252 412,-252 412,-252 406,-252 400,-246 400,-240 400,-240 400,-228 400,-228 400,-222 406,-216 412,-216 412,-216 498,-216 498,-216 504,-216 510,-222 510,-228 510,-228 510,-240 510,-240 510,-246 504,-252 498,-252"/>
<text text-anchor="middle" x="455" y="-231.2" font-family="Helvetica" font-size="11.00">InvocationDetails</text>
</g>
<!-- n0&#45;&gt;n1 -->
<g id="edge1" class="edge">
<title>n0&#45;&gt;n1</title>
<path fill="none" stroke="#555555" d="M296.36,-229.72C320.57,-230.37 357.44,-231.38 389.43,-232.25"/>
<polygon fill="#555555" stroke="#555555" points="389.53,-235.75 399.62,-232.52 389.72,-228.75 389.53,-235.75"/>
</g>
<!-- n5 -->
<g id="node10" class="node">
<title>n5</title>
<path fill="#ffcdd2" stroke="black" d="M1178,-283C1178,-283 1026,-283 1026,-283 1020,-283 1014,-277 1014,-271 1014,-271 1014,-259 1014,-259 1014,-253 1020,-247 1026,-247 1026,-247 1178,-247 1178,-247 1184,-247 1190,-253 1190,-259 1190,-259 1190,-271 1190,-271 1190,-277 1184,-283 1178,-283"/>
<text text-anchor="middle" x="1102" y="-262.2" font-family="Helvetica" font-size="11.00">Call System Exception Handler</text>
</g>
<!-- n1&#45;&gt;n5 -->
<g id="edge15" class="edge">
<title>n1&#45;&gt;n5</title>
<path fill="none" stroke="#555555" d="M510.16,-236.6C619.1,-241.84 866.06,-253.71 1003.71,-260.32"/>
<polygon fill="#555555" stroke="#555555" points="1003.68,-263.83 1013.84,-260.81 1004.02,-256.83 1003.68,-263.83"/>
</g>
<!-- n10 -->
<g id="node3" class="node">
<title>n10</title>
<path fill="#e8f4f8" stroke="black" d="M710,-160C710,-160 580,-160 580,-160 574,-160 568,-154 568,-148 568,-148 568,-136 568,-136 568,-130 574,-124 580,-124 580,-124 710,-124 710,-124 716,-124 722,-130 722,-136 722,-136 722,-148 722,-148 722,-154 716,-160 710,-160"/>
<text text-anchor="middle" x="645" y="-139.2" font-family="Helvetica" font-size="11.00">Call Service Main Process</text>
</g>
<!-- n12 -->
<g id="node5" class="node">
<title>n12</title>
<path fill="#e8f4f8" stroke="black" d="M1304,-36C1304,-36 1262,-36 1262,-36 1256,-36 1250,-30 1250,-24 1250,-24 1250,-12 1250,-12 1250,-6 1256,0 1262,0 1262,0 1304,0 1304,0 1310,0 1316,-6 1316,-12 1316,-12 1316,-24 1316,-24 1316,-30 1310,-36 1304,-36"/>
<text text-anchor="middle" x="1283" y="-15.2" font-family="Helvetica" font-size="11.00">LogEnd</text>
</g>
<!-- n10&#45;&gt;n12 -->
<g id="edge16" class="edge">
<title>n10&#45;&gt;n12</title>
<path fill="none" stroke="#555555" d="M701,-123.9C725.07,-116.42 753.75,-108.09 780,-102 948.53,-62.9 1152.91,-34.48 1239.72,-23.27"/>
<polygon fill="#555555" stroke="#555555" points="1240.24,-26.73 1249.72,-21.98 1239.35,-19.78 1240.24,-26.73"/>
</g>
<!-- n7 -->
<g id="node12" class="node">
<title>n7</title>
<path fill="#ffcdd2" stroke="black" d="M944,-160C944,-160 792,-160 792,-160 786,-160 780,-154 780,-148 780,-148 780,-136 780,-136 780,-130 786,-124 792,-124 792,-124 944,-124 944,-124 950,-124 956,-130 956,-136 956,-136 956,-148 956,-148 956,-154 950,-160 944,-160"/>
<text text-anchor="middle" x="868" y="-139.2" font-family="Helvetica" font-size="11.00">Call Service Exception Handler</text>
</g>
<!-- n10&#45;&gt;n7 -->
<g id="edge8" class="edge">
<title>n10&#45;&gt;n7</title>
<path fill="none" stroke="#555555" d="M722.06,-142C737.32,-142 753.55,-142 769.43,-142"/>
<polygon fill="#555555" stroke="#555555" points="769.79,-145.5 779.79,-142 769.79,-138.5 769.79,-145.5"/>
</g>
<!-- n11 -->
<g id="node4" class="node">
<title>n11</title>
<path fill="#e8f4f8" stroke="black" d="M478,-162C478,-162 432,-162 432,-162 426,-162 420,-156 420,-150 420,-150 420,-138 420,-138 420,-132 426,-126 432,-126 432,-126 478,-126 478,-126 484,-126 490,-132 490,-138 490,-138 490,-150 490,-150 490,-156 484,-162 478,-162"/>
<text text-anchor="middle" x="455" y="-141.2" font-family="Helvetica" font-size="11.00">LogStart</text>
</g>
<!-- n11&#45;&gt;n10 -->
<g id="edge10" class="edge">
<title>n11&#45;&gt;n10</title>
<path fill="none" stroke="#555555" d="M490.05,-143.64C509.03,-143.44 533.6,-143.17 557.53,-142.92"/>
<polygon fill="#555555" stroke="#555555" points="557.76,-146.42 567.72,-142.81 557.68,-139.42 557.76,-146.42"/>
</g>
<!-- n3 -->
<g id="node8" class="node">
<title>n3</title>
<path fill="#e8f4f8" stroke="black" d="M1502,-162C1502,-162 1388,-162 1388,-162 1382,-162 1376,-156 1376,-150 1376,-150 1376,-138 1376,-138 1376,-132 1382,-126 1388,-126 1388,-126 1502,-126 1502,-126 1508,-126 1514,-132 1514,-138 1514,-138 1514,-150 1514,-150 1514,-156 1508,-162 1502,-162"/>
<text text-anchor="middle" x="1445" y="-141.2" font-family="Helvetica" font-size="11.00">Confirm JMS Message</text>
</g>
<!-- n12&#45;&gt;n3 -->
<g id="edge11" class="edge">
<title>n12&#45;&gt;n3</title>
<path fill="none" stroke="#555555" d="M1306.92,-36.05C1334.85,-58.04 1382.12,-95.27 1413.2,-119.74"/>
<polygon fill="#555555" stroke="#555555" points="1411.1,-122.54 1421.12,-125.98 1415.43,-117.04 1411.1,-122.54"/>
</g>
<!-- n13 -->
<g id="node6" class="node">
<title>n13</title>
<path fill="#e8f4f8" stroke="black" d="M330,-162C330,-162 208,-162 208,-162 202,-162 196,-156 196,-150 196,-150 196,-138 196,-138 196,-132 202,-126 208,-126 208,-126 330,-126 330,-126 336,-126 342,-132 342,-138 342,-138 342,-150 342,-150 342,-156 336,-162 330,-162"/>
<text text-anchor="middle" x="269" y="-141.2" font-family="Helvetica" font-size="11.00">Comp Invocation Details</text>
</g>
<!-- n13&#45;&gt;n11 -->
<g id="edge14" class="edge">
<title>n13&#45;&gt;n11</title>
<path fill="none" stroke="#555555" d="M342.19,-144C365,-144 389.51,-144 409.75,-144"/>
<polygon fill="#555555" stroke="#555555" points="409.92,-147.5 419.92,-144 409.92,-140.5 409.92,-147.5"/>
</g>
<!-- n2 -->
<g id="node7" class="node">
<title>n2</title>
<path fill="#c8e6c9" stroke="black" d="M126,-201C126,-201 12,-201 12,-201 6,-201 0,-195 0,-189 0,-189 0,-177 0,-177 0,-171 6,-165 12,-165 12,-165 126,-165 126,-165 132,-165 138,-171 138,-177 138,-177 138,-189 138,-189 138,-195 132,-201 126,-201"/>
<text text-anchor="middle" x="69" y="-180.2" font-family="Helvetica" font-size="11.00">Receive JMS Message</text>
</g>
<!-- n2&#45;&gt;n0 -->
<g id="edge2" class="edge">
<title>n2&#45;&gt;n0</title>
<path fill="none" stroke="#555555" d="M138.14,-198.83C169.54,-206.13 205.55,-214.49 231.67,-220.56"/>
<polygon fill="#555555" stroke="#555555" points="230.99,-223.99 241.52,-222.85 232.57,-217.18 230.99,-223.99"/>
</g>
<!-- n2&#45;&gt;n13 -->
<g id="edge18" class="edge">
<title>n2&#45;&gt;n13</title>
<path fill="none" stroke="#555555" d="M138.14,-169.58C153.37,-166.58 169.69,-163.36 185.43,-160.26"/>
<polygon fill="#555555" stroke="#555555" points="186.55,-163.61 195.68,-158.24 185.19,-156.74 186.55,-163.61"/>
</g>
<!-- n4 -->
<g id="node9" class="node">
<title>n4</title>
<path fill="#ffccbc" stroke="black" d="M1743,-162C1743,-162 1713,-162 1713,-162 1707,-162 1701,-156 1701,-150 1701,-150 1701,-138 1701,-138 1701,-132 1707,-126 1713,-126 1713,-126 1743,-126 1743,-126 1749,-126 1755,-132 1755,-138 1755,-138 1755,-150 1755,-150 1755,-156 1749,-162 1743,-162"/>
<text text-anchor="middle" x="1728" y="-141.2" font-family="Helvetica" font-size="11.00">End</text>
</g>
<!-- n3&#45;&gt;n4 -->
<g id="edge3" class="edge">
<title>n3&#45;&gt;n4</title>
<path fill="none" stroke="#555555" d="M1514.02,-144C1569.66,-144 1646.18,-144 1690.74,-144"/>
<polygon fill="#555555" stroke="#555555" points="1690.81,-147.5 1700.81,-144 1690.81,-140.5 1690.81,-147.5"/>
</g>
<!-- n9 -->
<g id="node14" class="node">
<title>n9</title>
<path fill="#e8f4f8" stroke="black" d="M1631,-121C1631,-121 1584,-121 1584,-121 1578,-121 1572,-115 1572,-109 1572,-109 1572,-97 1572,-97 1572,-91 1578,-85 1584,-85 1584,-85 1631,-85 1631,-85 1637,-85 1643,-91 1643,-97 1643,-97 1643,-109 1643,-109 1643,-115 1637,-121 1631,-121"/>
<text text-anchor="middle" x="1607.5" y="-100.2" font-family="Helvetica" font-size="11.00">LogError</text>
</g>
<!-- n3&#45;&gt;n9 -->
<g id="edge7" class="edge">
<title>n3&#45;&gt;n9</title>
<path fill="none" stroke="#555555" d="M1514.07,-126.61C1530.17,-122.5 1546.95,-118.21 1561.72,-114.44"/>
<polygon fill="#555555" stroke="#555555" points="1562.76,-117.78 1571.59,-111.92 1561.03,-111 1562.76,-117.78"/>
</g>
<!-- n5&#45;&gt;n3 -->
<g id="edge17" class="edge">
<title>n5&#45;&gt;n3</title>
<path fill="none" stroke="#555555" d="M1190.18,-257.16C1230.16,-251.57 1277.55,-242.07 1318,-226 1353.58,-211.86 1389.76,-187 1414.17,-168.35"/>
<polygon fill="#555555" stroke="#555555" points="1416.54,-170.94 1422.29,-162.04 1412.25,-165.41 1416.54,-170.94"/>
</g>
<!-- n6 -->
<g id="node11" class="node">
<title>n6</title>
<path fill="#e8f4f8" stroke="black" d="M1306,-204C1306,-204 1260,-204 1260,-204 1254,-204 1248,-198 1248,-192 1248,-192 1248,-180 1248,-180 1248,-174 1254,-168 1260,-168 1260,-168 1306,-168 1306,-168 1312,-168 1318,-174 1318,-180 1318,-180 1318,-192 1318,-192 1318,-198 1312,-204 1306,-204"/>
<text text-anchor="middle" x="1283" y="-183.2" font-family="Helvetica" font-size="11.00">LogFatal</text>
</g>
<!-- n5&#45;&gt;n6 -->
<g id="edge4" class="edge">
<title>n5&#45;&gt;n6</title>
<path fill="none" stroke="#555555" d="M1144.07,-246.88C1172.26,-234.43 1209.62,-217.94 1238.35,-205.26"/>
<polygon fill="#555555" stroke="#555555" points="1240,-208.36 1247.74,-201.12 1237.18,-201.96 1240,-208.36"/>
</g>
<!-- n6&#45;&gt;n3 -->
<g id="edge12" class="edge">
<title>n6&#45;&gt;n3</title>
<path fill="none" stroke="#555555" d="M1318.32,-176.99C1332.37,-173.3 1349.24,-168.87 1366,-164.48"/>
<polygon fill="#555555" stroke="#555555" points="1367.04,-167.82 1375.83,-161.9 1365.27,-161.05 1367.04,-167.82"/>
</g>
<!-- n7&#45;&gt;n3 -->
<g id="edge9" class="edge">
<title>n7&#45;&gt;n3</title>
<path fill="none" stroke="#555555" d="M956.02,-142.3C1067.33,-142.69 1258.49,-143.35 1365.53,-143.73"/>
<polygon fill="#555555" stroke="#555555" points="1365.61,-147.23 1375.62,-143.76 1365.63,-140.23 1365.61,-147.23"/>
</g>
<!-- n8 -->
<g id="node13" class="node">
<title>n8</title>
<path fill="#e8f4f8" stroke="black" d="M1118.5,-204C1118.5,-204 1085.5,-204 1085.5,-204 1079.5,-204 1073.5,-198 1073.5,-192 1073.5,-192 1073.5,-180 1073.5,-180 1073.5,-174 1079.5,-168 1085.5,-168 1085.5,-168 1118.5,-168 1118.5,-168 1124.5,-168 1130.5,-174 1130.5,-180 1130.5,-180 1130.5,-192 1130.5,-192 1130.5,-198 1124.5,-204 1118.5,-204"/>
<text text-anchor="middle" x="1102" y="-183.2" font-family="Helvetica" font-size="11.00">Null&#45;1</text>
</g>
<!-- n7&#45;&gt;n8 -->
<g id="edge5" class="edge">
<title>n7&#45;&gt;n8</title>
<path fill="none" stroke="#555555" d="M956.05,-158.51C993.04,-165.52 1034.22,-173.33 1063.21,-178.83"/>
<polygon fill="#555555" stroke="#555555" points="1062.83,-182.32 1073.3,-180.75 1064.13,-175.45 1062.83,-182.32"/>
</g>
<!-- n8&#45;&gt;n6 -->
<g id="edge6" class="edge">
<title>n8&#45;&gt;n6</title>
<path fill="none" stroke="#555555" d="M1130.58,-186C1159.19,-186 1204.38,-186 1237.95,-186"/>
<polygon fill="#555555" stroke="#555555" points="1237.96,-189.5 1247.96,-186 1237.96,-182.5 1237.96,-189.5"/>
</g>
<!-- n9&#45;&gt;n4 -->
<g id="edge13" class="edge">
<title>n9&#45;&gt;n4</title>
<path fill="none" stroke="#555555" d="M1643.09,-114.97C1658.22,-120.2 1675.97,-126.34 1691.23,-131.62"/>
<polygon fill="#555555" stroke="#555555" points="1690.25,-134.99 1700.85,-134.95 1692.54,-128.37 1690.25,-134.99"/>
</g>
</g>
</svg>
