<?xml version="1.0" encoding="UTF-8" standalone="no"?>
<!DOCTYPE svg PUBLIC "-//W3C//DTD SVG 1.1//EN"
 "http://www.w3.org/Graphics/SVG/1.1/DTD/svg11.dtd">
<!-- Generated by graphviz version 2.44.0 (0)
 -->
<!-- Title: process Pages: 1 -->
<svg width="608pt" height="150pt"
 viewBox="0.00 0.00 608.00 150.00" xmlns="http://www.w3.org/2000/svg" xmlns:xlink="http://www.w3.org/1999/xlink">
<g id="graph0" class="graph" transform="scale(1 1) rotate(0) translate(36 114)">
<title>process</title>
<polygon fill="#ffffff" stroke="transparent" points="-36,36 -36,-114 572,-114 572,36 -36,36"/>
<!-- n0 -->
<g id="node1" class="node">
<title>n0</title>
<path fill="#e8f4f8" stroke="black" d="M64,-36C64,-36 12,-36 12,-36 6,-36 0,-30 0,-24 0,-24 0,-12 0,-12 0,-6 6,0 12,0 12,0 64,0 64,0 70,0 76,-6 76,-12 76,-12 76,-24 76,-24 76,-30 70,-36 64,-36"/>
<text text-anchor="middle" x="38" y="-15.2" font-family="Helvetica" font-size="11.00">onStartup</text>
</g>
<!-- n1 -->
<g id="node2" class="node">
<title>n1</title>
<path fill="#e8f4f8" stroke="black" d="M223,-36C223,-36 146,-36 146,-36 140,-36 134,-30 134,-24 134,-24 134,-12 134,-12 134,-6 140,0 146,0 146,0 223,0 223,0 229,0 235,-6 235,-12 235,-12 235,-24 235,-24 235,-30 229,-36 223,-36"/>
<text text-anchor="middle" x="184.5" y="-15.2" font-family="Helvetica" font-size="11.00">LoadExpiration</text>
</g>
<!-- n0&#45;&gt;n1 -->
<g id="edge1" class="edge">
<title>n0&#45;&gt;n1</title>
<path fill="none" stroke="#555555" d="M76.21,-18C90.62,-18 107.47,-18 123.5,-18"/>
<polygon fill="#555555" stroke="#555555" points="123.88,-21.5 133.88,-18 123.88,-14.5 123.88,-21.5"/>
</g>
<!-- n2 -->
<g id="node3" class="node">
<title>n2</title>
<path fill="#e8f4f8" stroke="black" d="M412,-78C412,-78 305,-78 305,-78 299,-78 293,-72 293,-66 293,-66 293,-54 293,-54 293,-48 299,-42 305,-42 305,-42 412,-42 412,-42 418,-42 424,-48 424,-54 424,-54 424,-66 424,-66 424,-72 418,-78 412,-78"/>
<text text-anchor="middle" x="358.5" y="-57.2" font-family="Helvetica" font-size="11.00">Shutdown BWEngine</text>
</g>
<!-- n1&#45;&gt;n2 -->
<g id="edge3" class="edge">
<title>n1&#45;&gt;n2</title>
<path fill="none" stroke="#555555" d="M235.25,-30.15C250.12,-33.78 266.76,-37.84 282.86,-41.77"/>
<polygon fill="#555555" stroke="#555555" points="282.25,-45.23 292.8,-44.2 283.91,-38.43 282.25,-45.23"/>
</g>
<!-- n3 -->
<g id="node4" class="node">
<title>n3</title>
<path fill="#ffccbc" stroke="black" d="M524,-36C524,-36 494,-36 494,-36 488,-36 482,-30 482,-24 482,-24 482,-12 482,-12 482,-6 488,0 494,0 494,0 524,0 524,0 530,0 536,-6 536,-12 536,-12 536,-24 536,-24 536,-30 530,-36 524,-36"/>
<text text-anchor="middle" x="509" y="-15.2" font-family="Helvetica" font-size="11.00">End</text>
</g>
<!-- n1&#45;&gt;n3 -->
<g id="edge4" class="edge">
<title>n1&#45;&gt;n3</title>
<path fill="none" stroke="#555555" d="M235.18,-18C300.55,-18 413.9,-18 471.76,-18"/>
<polygon fill="#555555" stroke="#555555" points="471.89,-21.5 481.89,-18 471.89,-14.5 471.89,-21.5"/>
</g>
<!-- n2&#45;&gt;n3 -->
<g id="edge2" class="edge">
<title>n2&#45;&gt;n3</title>
<path fill="none" stroke="#555555" d="M423.34,-41.94C440.07,-37.21 457.53,-32.28 472.21,-28.12"/>
<polygon fill="#555555" stroke="#555555" points="473.22,-31.47 481.89,-25.38 471.31,-24.74 473.22,-31.47"/>
</g>
</g>
</svg>
