<?xml version="1.0" encoding="UTF-8" standalone="no"?>
<!DOCTYPE svg PUBLIC "-//W3C//DTD SVG 1.1//EN"
 "http://www.w3.org/Graphics/SVG/1.1/DTD/svg11.dtd">
<!-- Generated by graphviz version 2.44.0 (0)
 -->
<!-- Title: process Pages: 1 -->
<svg width="618pt" height="187pt"
 viewBox="0.00 0.00 618.00 187.00" xmlns="http://www.w3.org/2000/svg" xmlns:xlink="http://www.w3.org/1999/xlink">
<g id="graph0" class="graph" transform="scale(1 1) rotate(0) translate(36 151)">
<title>process</title>
<polygon fill="#ffffff" stroke="transparent" points="-36,36 -36,-151 582,-151 582,36 -36,36"/>
<!-- n0 -->
<g id="node1" class="node">
<title>n0</title>
<path fill="#c8e6c9" stroke="black" d="M42,-75C42,-75 12,-75 12,-75 6,-75 0,-69 0,-63 0,-63 0,-51 0,-51 0,-45 6,-39 12,-39 12,-39 42,-39 42,-39 48,-39 54,-45 54,-51 54,-51 54,-63 54,-63 54,-69 48,-75 42,-75"/>
<text text-anchor="middle" x="27" y="-54.2" font-family="Helvetica" font-size="11.00">Start</text>
</g>
<!-- n1 -->
<g id="node2" class="node">
<title>n1</title>
<path fill="#e8f4f8" stroke="black" d="M204,-75C204,-75 124,-75 124,-75 118,-75 112,-69 112,-63 112,-63 112,-51 112,-51 112,-45 118,-39 124,-39 124,-39 204,-39 204,-39 210,-39 216,-45 216,-51 216,-51 216,-63 216,-63 216,-69 210,-75 204,-75"/>
<text text-anchor="middle" x="164" y="-54.2" font-family="Helvetica" font-size="11.00">Read XSLT File</text>
</g>
<!-- n0&#45;&gt;n1 -->
<g id="edge1" class="edge">
<title>n0&#45;&gt;n1</title>
<path fill="none" stroke="#555555" d="M54.03,-57C67.61,-57 84.84,-57 101.57,-57"/>
<polygon fill="#555555" stroke="#555555" points="101.89,-60.5 111.89,-57 101.89,-53.5 101.89,-60.5"/>
</g>
<!-- n2 -->
<g id="node3" class="node">
<title>n2</title>
<path fill="#e8f4f8" stroke="black" d="M365,-75C365,-75 286,-75 286,-75 280,-75 274,-69 274,-63 274,-63 274,-51 274,-51 274,-45 280,-39 286,-39 286,-39 365,-39 365,-39 371,-39 377,-45 377,-51 377,-51 377,-63 377,-63 377,-69 371,-75 365,-75"/>
<text text-anchor="middle" x="325.5" y="-54.2" font-family="Helvetica" font-size="11.00">Transform XML</text>
</g>
<!-- n1&#45;&gt;n2 -->
<g id="edge3" class="edge">
<title>n1&#45;&gt;n2</title>
<path fill="none" stroke="#555555" d="M216.34,-57C231.44,-57 248.09,-57 263.71,-57"/>
<polygon fill="#555555" stroke="#555555" points="263.8,-60.5 273.8,-57 263.8,-53.5 263.8,-60.5"/>
</g>
<!-- n3 -->
<g id="node4" class="node">
<title>n3</title>
<path fill="#ffccbc" stroke="black" d="M505.5,-115C505.5,-115 475.5,-115 475.5,-115 469.5,-115 463.5,-109 463.5,-103 463.5,-103 463.5,-91 463.5,-91 463.5,-85 469.5,-79 475.5,-79 475.5,-79 505.5,-79 505.5,-79 511.5,-79 517.5,-85 517.5,-91 517.5,-91 517.5,-103 517.5,-103 517.5,-109 511.5,-115 505.5,-115"/>
<text text-anchor="middle" x="490.5" y="-94.2" font-family="Helvetica" font-size="11.00">End</text>
</g>
<!-- n2&#45;&gt;n3 -->
<g id="edge2" class="edge">
<title>n2&#45;&gt;n3</title>
<path fill="none" stroke="#555555" d="M377.18,-69.44C401.98,-75.52 431.24,-82.7 453.68,-88.21"/>
<polygon fill="#555555" stroke="#555555" points="452.93,-91.63 463.47,-90.61 454.59,-84.83 452.93,-91.63"/>
</g>
<!-- n4 -->
<g id="node5" class="node">
<title>n4</title>
<path fill="#ffcdd2" stroke="black" d="M534,-36C534,-36 447,-36 447,-36 441,-36 435,-30 435,-24 435,-24 435,-12 435,-12 435,-6 441,0 447,0 447,0 534,0 534,0 540,0 546,-6 546,-12 546,-12 546,-24 546,-24 546,-30 540,-36 534,-36"/>
<text text-anchor="middle" x="490.5" y="-15.2" font-family="Helvetica" font-size="11.00">Generate&#45;Error&#45;1</text>
</g>
<!-- n2&#45;&gt;n4 -->
<g id="edge4" class="edge">
<title>n2&#45;&gt;n4</title>
<path fill="none" stroke="#555555" d="M377.18,-44.87C392.35,-41.24 409.19,-37.22 425.12,-33.4"/>
<polygon fill="#555555" stroke="#555555" points="425.98,-36.8 434.89,-31.07 424.35,-29.99 425.98,-36.8"/>
</g>
</g>
</svg>
