<?xml version="1.0" encoding="UTF-8" standalone="no"?>
<!DOCTYPE svg PUBLIC "-//W3C//DTD SVG 1.1//EN"
 "http://www.w3.org/Graphics/SVG/1.1/DTD/svg11.dtd">
<!-- Generated by graphviz version 2.44.0 (0)
 -->
<!-- Title: process Pages: 1 -->
<svg width="811pt" height="187pt"
 viewBox="0.00 0.00 811.00 187.00" xmlns="http://www.w3.org/2000/svg" xmlns:xlink="http://www.w3.org/1999/xlink">
<g id="graph0" class="graph" transform="scale(1 1) rotate(0) translate(36 151)">
<title>process</title>
<polygon fill="#ffffff" stroke="transparent" points="-36,36 -36,-151 775,-151 775,36 -36,36"/>
<!-- n0 -->
<g id="node1" class="node">
<title>n0</title>
<path fill="#e8f4f8" stroke="black" d="M377,-115C377,-115 292,-115 292,-115 286,-115 280,-109 280,-103 280,-103 280,-91 280,-91 280,-85 286,-79 292,-79 292,-79 377,-79 377,-79 383,-79 389,-85 389,-91 389,-91 389,-103 389,-103 389,-109 383,-115 377,-115"/>
<text text-anchor="middle" x="334.5" y="-94.2" font-family="Helvetica" font-size="11.00">PublishToQueue</text>
</g>
<!-- n1 -->
<g id="node2" class="node">
<title>n1</title>
<path fill="#ffccbc" stroke="black" d="M537,-115C537,-115 507,-115 507,-115 501,-115 495,-109 495,-103 495,-103 495,-91 495,-91 495,-85 501,-79 507,-79 507,-79 537,-79 537,-79 543,-79 549,-85 549,-91 549,-91 549,-103 549,-103 549,-109 543,-115 537,-115"/>
<text text-anchor="middle" x="522" y="-94.2" font-family="Helvetica" font-size="11.00">End</text>
</g>
<!-- n0&#45;&gt;n1 -->
<g id="edge1" class="edge">
<title>n0&#45;&gt;n1</title>
<path fill="none" stroke="#555555" d="M389.15,-97C419.76,-97 457.32,-97 484.51,-97"/>
<polygon fill="#555555" stroke="#555555" points="484.75,-100.5 494.75,-97 484.75,-93.5 484.75,-100.5"/>
</g>
<!-- n4 -->
<g id="node5" class="node">
<title>n4</title>
<path fill="#e8f4f8" stroke="black" d="M568,-36C568,-36 476,-36 476,-36 470,-36 464,-30 464,-24 464,-24 464,-12 464,-12 464,-6 470,0 476,0 476,0 568,0 568,0 574,0 580,-6 580,-12 580,-12 580,-24 580,-24 580,-30 574,-36 568,-36"/>
<text text-anchor="middle" x="522" y="-15.2" font-family="Helvetica" font-size="11.00">MapAnyException</text>
</g>
<!-- n0&#45;&gt;n4 -->
<g id="edge4" class="edge">
<title>n0&#45;&gt;n4</title>
<path fill="none" stroke="#555555" d="M378.06,-78.88C405.16,-67.33 440.44,-52.31 469.17,-40.07"/>
<polygon fill="#555555" stroke="#555555" points="470.81,-43.18 478.64,-36.04 468.07,-36.74 470.81,-43.18"/>
</g>
<!-- n2 -->
<g id="node3" class="node">
<title>n2</title>
<path fill="#c8e6c9" stroke="black" d="M42,-75C42,-75 12,-75 12,-75 6,-75 0,-69 0,-63 0,-63 0,-51 0,-51 0,-45 6,-39 12,-39 12,-39 42,-39 42,-39 48,-39 54,-45 54,-51 54,-51 54,-63 54,-63 54,-69 48,-75 42,-75"/>
<text text-anchor="middle" x="27" y="-54.2" font-family="Helvetica" font-size="11.00">Start</text>
</g>
<!-- n3 -->
<g id="node4" class="node">
<title>n3</title>
<path fill="#e8f4f8" stroke="black" d="M193,-75C193,-75 124,-75 124,-75 118,-75 112,-69 112,-63 112,-63 112,-51 112,-51 112,-45 118,-39 124,-39 124,-39 193,-39 193,-39 199,-39 205,-45 205,-51 205,-51 205,-63 205,-63 205,-69 199,-75 193,-75"/>
<text text-anchor="middle" x="158.5" y="-54.2" font-family="Helvetica" font-size="11.00">Prepare Data</text>
</g>
<!-- n2&#45;&gt;n3 -->
<g id="edge2" class="edge">
<title>n2&#45;&gt;n3</title>
<path fill="none" stroke="#555555" d="M54.21,-57C67.92,-57 85.25,-57 101.78,-57"/>
<polygon fill="#555555" stroke="#555555" points="101.93,-60.5 111.93,-57 101.93,-53.5 101.93,-60.5"/>
</g>
<!-- n3&#45;&gt;n0 -->
<g id="edge3" class="edge">
<title>n3&#45;&gt;n0</title>
<path fill="none" stroke="#555555" d="M205.22,-67.51C224.95,-72.05 248.37,-77.43 269.76,-82.35"/>
<polygon fill="#555555" stroke="#555555" points="269.22,-85.81 279.75,-84.64 270.79,-78.99 269.22,-85.81"/>
</g>
<!-- n6 -->
<g id="node7" class="node">
<title>n6</title>
<path fill="#e8f4f8" stroke="black" d="M394,-36C394,-36 275,-36 275,-36 269,-36 263,-30 263,-24 263,-24 263,-12 263,-12 263,-6 269,0 275,0 275,0 394,0 394,0 400,0 406,-6 406,-12 406,-12 406,-24 406,-24 406,-30 400,-36 394,-36"/>
<text text-anchor="middle" x="334.5" y="-15.2" font-family="Helvetica" font-size="11.00">PublishToQueue&#45;Object</text>
</g>
<!-- n3&#45;&gt;n6 -->
<g id="edge6" class="edge">
<title>n3&#45;&gt;n6</title>
<path fill="none" stroke="#555555" d="M205.22,-46.75C219.81,-43.48 236.42,-39.76 252.73,-36.1"/>
<polygon fill="#555555" stroke="#555555" points="253.84,-39.44 262.83,-33.84 252.31,-32.61 253.84,-39.44"/>
</g>
<!-- n5 -->
<g id="node6" class="node">
<title>n5</title>
<path fill="#ffcdd2" stroke="black" d="M727,-36C727,-36 650,-36 650,-36 644,-36 638,-30 638,-24 638,-24 638,-12 638,-12 638,-6 644,0 650,0 650,0 727,0 727,0 733,0 739,-6 739,-12 739,-12 739,-24 739,-24 739,-30 733,-36 727,-36"/>
<text text-anchor="middle" x="688.5" y="-15.2" font-family="Helvetica" font-size="11.00">Generate Error</text>
</g>
<!-- n4&#45;&gt;n5 -->
<g id="edge5" class="edge">
<title>n4&#45;&gt;n5</title>
<path fill="none" stroke="#555555" d="M580.07,-18C595.53,-18 612.29,-18 627.88,-18"/>
<polygon fill="#555555" stroke="#555555" points="627.93,-21.5 637.93,-18 627.93,-14.5 627.93,-21.5"/>
</g>
<!-- n6&#45;&gt;n1 -->
<g id="edge8" class="edge">
<title>n6&#45;&gt;n1</title>
<path fill="none" stroke="#555555" d="M378.06,-36.12C410.58,-49.98 454.9,-68.85 485.52,-81.89"/>
<polygon fill="#555555" stroke="#555555" points="484.38,-85.21 494.95,-85.91 487.12,-78.77 484.38,-85.21"/>
</g>
<!-- n6&#45;&gt;n4 -->
<g id="edge7" class="edge">
<title>n6&#45;&gt;n4</title>
<path fill="none" stroke="#555555" d="M406.16,-18C421.78,-18 438.29,-18 453.77,-18"/>
<polygon fill="#555555" stroke="#555555" points="453.78,-21.5 463.78,-18 453.78,-14.5 453.78,-21.5"/>
</g>
</g>
</svg>
