<?xml version="1.0" encoding="UTF-8" standalone="no"?>
<!DOCTYPE svg PUBLIC "-//W3C//DTD SVG 1.1//EN"
 "http://www.w3.org/Graphics/SVG/1.1/DTD/svg11.dtd">
<!-- Generated by graphviz version 2.44.0 (0)
 -->
<!-- Title: process Pages: 1 -->
<svg width="1328pt" height="266pt"
 viewBox="0.00 0.00 1328.00 266.00" xmlns="http://www.w3.org/2000/svg" xmlns:xlink="http://www.w3.org/1999/xlink">
<g id="graph0" class="graph" transform="scale(1 1) rotate(0) translate(36 230)">
<title>process</title>
<polygon fill="#ffffff" stroke="transparent" points="-36,36 -36,-230 1292,-230 1292,36 -36,36"/>
<!-- n0 -->
<g id="node1" class="node">
<title>n0</title>
<path fill="#c8e6c9" stroke="black" d="M42,-75C42,-75 12,-75 12,-75 6,-75 0,-69 0,-63 0,-63 0,-51 0,-51 0,-45 6,-39 12,-39 12,-39 42,-39 42,-39 48,-39 54,-45 54,-51 54,-51 54,-63 54,-63 54,-69 48,-75 42,-75"/>
<text text-anchor="middle" x="27" y="-54.2" font-family="Helvetica" font-size="11.00">Start</text>
</g>
<!-- n1 -->
<g id="node2" class="node">
<title>n1</title>
<path fill="#e8f4f8" stroke="black" d="M191,-75C191,-75 124,-75 124,-75 118,-75 112,-69 112,-63 112,-63 112,-51 112,-51 112,-45 118,-39 124,-39 124,-39 191,-39 191,-39 197,-39 203,-45 203,-51 203,-51 203,-63 203,-63 203,-69 197,-75 191,-75"/>
<text text-anchor="middle" x="157.5" y="-54.2" font-family="Helvetica" font-size="11.00">CSAuditStart</text>
</g>
<!-- n0&#45;&gt;n1 -->
<g id="edge1" class="edge">
<title>n0&#45;&gt;n1</title>
<path fill="none" stroke="#555555" d="M54,-57C67.73,-57 85.12,-57 101.65,-57"/>
<polygon fill="#555555" stroke="#555555" points="101.8,-60.5 111.8,-57 101.8,-53.5 101.8,-60.5"/>
</g>
<!-- n2 -->
<g id="node5" class="node">
<title>n2</title>
<path fill="#e8f4f8" stroke="black" d="M402,-75C402,-75 273,-75 273,-75 267,-75 261,-69 261,-63 261,-63 261,-51 261,-51 261,-45 267,-39 273,-39 273,-39 402,-39 402,-39 408,-39 414,-45 414,-51 414,-51 414,-63 414,-63 414,-69 408,-75 402,-75"/>
<text text-anchor="middle" x="337.5" y="-54.2" font-family="Helvetica" font-size="11.00">Get JMS Queue Message</text>
</g>
<!-- n1&#45;&gt;n2 -->
<g id="edge8" class="edge">
<title>n1&#45;&gt;n2</title>
<path fill="none" stroke="#555555" d="M203.42,-57C217.83,-57 234.31,-57 250.64,-57"/>
<polygon fill="#555555" stroke="#555555" points="250.78,-60.5 260.78,-57 250.78,-53.5 250.78,-60.5"/>
</g>
<!-- n10 -->
<g id="node3" class="node">
<title>n10</title>
<path fill="#ffcdd2" stroke="black" d="M1244,-115C1244,-115 1157,-115 1157,-115 1151,-115 1145,-109 1145,-103 1145,-103 1145,-91 1145,-91 1145,-85 1151,-79 1157,-79 1157,-79 1244,-79 1244,-79 1250,-79 1256,-85 1256,-91 1256,-91 1256,-103 1256,-103 1256,-109 1250,-115 1244,-115"/>
<text text-anchor="middle" x="1200.5" y="-94.2" font-family="Helvetica" font-size="11.00">Generate&#45;Error&#45;1</text>
</g>
<!-- n11 -->
<g id="node4" class="node">
<title>n11</title>
<path fill="#ffccbc" stroke="black" d="M862.5,-194C862.5,-194 832.5,-194 832.5,-194 826.5,-194 820.5,-188 820.5,-182 820.5,-182 820.5,-170 820.5,-170 820.5,-164 826.5,-158 832.5,-158 832.5,-158 862.5,-158 862.5,-158 868.5,-158 874.5,-164 874.5,-170 874.5,-170 874.5,-182 874.5,-182 874.5,-188 868.5,-194 862.5,-194"/>
<text text-anchor="middle" x="847.5" y="-173.2" font-family="Helvetica" font-size="11.00">End</text>
</g>
<!-- n3 -->
<g id="node6" class="node">
<title>n3</title>
<path fill="#e8f4f8" stroke="black" d="M547,-115C547,-115 484,-115 484,-115 478,-115 472,-109 472,-103 472,-103 472,-91 472,-91 472,-85 478,-79 484,-79 484,-79 547,-79 547,-79 553,-79 559,-85 559,-91 559,-91 559,-103 559,-103 559,-109 553,-115 547,-115"/>
<text text-anchor="middle" x="515.5" y="-94.2" font-family="Helvetica" font-size="11.00">CSAuditEnd</text>
</g>
<!-- n2&#45;&gt;n3 -->
<g id="edge2" class="edge">
<title>n2&#45;&gt;n3</title>
<path fill="none" stroke="#555555" d="M414.16,-74.2C430.21,-77.84 446.82,-81.62 461.79,-85.02"/>
<polygon fill="#555555" stroke="#555555" points="461.34,-88.51 471.87,-87.31 462.89,-81.68 461.34,-88.51"/>
</g>
<!-- n4 -->
<g id="node7" class="node">
<title>n4</title>
<path fill="#e8f4f8" stroke="black" d="M539,-36C539,-36 492,-36 492,-36 486,-36 480,-30 480,-24 480,-24 480,-12 480,-12 480,-6 486,0 492,0 492,0 539,0 539,0 545,0 551,-6 551,-12 551,-12 551,-24 551,-24 551,-30 545,-36 539,-36"/>
<text text-anchor="middle" x="515.5" y="-15.2" font-family="Helvetica" font-size="11.00">LogError</text>
</g>
<!-- n2&#45;&gt;n4 -->
<g id="edge3" class="edge">
<title>n2&#45;&gt;n4</title>
<path fill="none" stroke="#555555" d="M414.16,-40.23C433.14,-36.03 452.9,-31.65 469.82,-27.9"/>
<polygon fill="#555555" stroke="#555555" points="470.95,-31.24 479.95,-25.66 469.43,-24.4 470.95,-31.24"/>
</g>
<!-- n7 -->
<g id="node10" class="node">
<title>n7</title>
<path fill="#e8f4f8" stroke="black" d="M693,-115C693,-115 663,-115 663,-115 657,-115 651,-109 651,-103 651,-103 651,-91 651,-91 651,-85 657,-79 663,-79 663,-79 693,-79 693,-79 699,-79 705,-85 705,-91 705,-91 705,-103 705,-103 705,-109 699,-115 693,-115"/>
<text text-anchor="middle" x="678" y="-94.2" font-family="Helvetica" font-size="11.00">Null</text>
</g>
<!-- n3&#45;&gt;n7 -->
<g id="edge7" class="edge">
<title>n3&#45;&gt;n7</title>
<path fill="none" stroke="#555555" d="M559.09,-97C584.49,-97 616.4,-97 640.62,-97"/>
<polygon fill="#555555" stroke="#555555" points="640.82,-100.5 650.82,-97 640.82,-93.5 640.82,-100.5"/>
</g>
<!-- n5 -->
<g id="node8" class="node">
<title>n5</title>
<path fill="#e8f4f8" stroke="black" d="M727,-36C727,-36 629,-36 629,-36 623,-36 617,-30 617,-24 617,-24 617,-12 617,-12 617,-6 623,0 629,0 629,0 727,0 727,0 733,0 739,-6 739,-12 739,-12 739,-24 739,-24 739,-30 733,-36 727,-36"/>
<text text-anchor="middle" x="678" y="-15.2" font-family="Helvetica" font-size="11.00">MapOSMException</text>
</g>
<!-- n4&#45;&gt;n5 -->
<g id="edge9" class="edge">
<title>n4&#45;&gt;n5</title>
<path fill="none" stroke="#555555" d="M551.33,-18C567.58,-18 587.54,-18 606.73,-18"/>
<polygon fill="#555555" stroke="#555555" points="606.98,-21.5 616.98,-18 606.98,-14.5 606.98,-21.5"/>
</g>
<!-- n6 -->
<g id="node9" class="node">
<title>n6</title>
<path fill="#ffcdd2" stroke="black" d="M886,-36C886,-36 809,-36 809,-36 803,-36 797,-30 797,-24 797,-24 797,-12 797,-12 797,-6 803,0 809,0 809,0 886,0 886,0 892,0 898,-6 898,-12 898,-12 898,-24 898,-24 898,-30 892,-36 886,-36"/>
<text text-anchor="middle" x="847.5" y="-15.2" font-family="Helvetica" font-size="11.00">Generate Error</text>
</g>
<!-- n5&#45;&gt;n6 -->
<g id="edge4" class="edge">
<title>n5&#45;&gt;n6</title>
<path fill="none" stroke="#555555" d="M739.47,-18C754.77,-18 771.21,-18 786.49,-18"/>
<polygon fill="#555555" stroke="#555555" points="786.85,-21.5 796.85,-18 786.85,-14.5 786.85,-21.5"/>
</g>
<!-- n7&#45;&gt;n11 -->
<g id="edge11" class="edge">
<title>n7&#45;&gt;n11</title>
<path fill="none" stroke="#555555" d="M705.17,-109.34C733.61,-122.75 779.2,-144.26 810.88,-159.2"/>
<polygon fill="#555555" stroke="#555555" points="809.7,-162.51 820.24,-163.61 812.68,-156.18 809.7,-162.51"/>
</g>
<!-- n8 -->
<g id="node11" class="node">
<title>n8</title>
<path fill="#e8f4f8" stroke="black" d="M875.5,-115C875.5,-115 819.5,-115 819.5,-115 813.5,-115 807.5,-109 807.5,-103 807.5,-103 807.5,-91 807.5,-91 807.5,-85 813.5,-79 819.5,-79 819.5,-79 875.5,-79 875.5,-79 881.5,-79 887.5,-85 887.5,-91 887.5,-91 887.5,-103 887.5,-103 887.5,-109 881.5,-115 875.5,-115"/>
<text text-anchor="middle" x="847.5" y="-94.2" font-family="Helvetica" font-size="11.00">LogError&#45;1</text>
</g>
<!-- n7&#45;&gt;n8 -->
<g id="edge5" class="edge">
<title>n7&#45;&gt;n8</title>
<path fill="none" stroke="#555555" d="M705.17,-97C729.7,-97 767,-97 797.12,-97"/>
<polygon fill="#555555" stroke="#555555" points="797.44,-100.5 807.44,-97 797.44,-93.5 797.44,-100.5"/>
</g>
<!-- n9 -->
<g id="node12" class="node">
<title>n9</title>
<path fill="#e8f4f8" stroke="black" d="M1075,-115C1075,-115 968,-115 968,-115 962,-115 956,-109 956,-103 956,-103 956,-91 956,-91 956,-85 962,-79 968,-79 968,-79 1075,-79 1075,-79 1081,-79 1087,-85 1087,-91 1087,-91 1087,-103 1087,-103 1087,-109 1081,-115 1075,-115"/>
<text text-anchor="middle" x="1021.5" y="-94.2" font-family="Helvetica" font-size="11.00">MapOSMException&#45;1</text>
</g>
<!-- n8&#45;&gt;n9 -->
<g id="edge10" class="edge">
<title>n8&#45;&gt;n9</title>
<path fill="none" stroke="#555555" d="M887.53,-97C904.83,-97 925.78,-97 945.89,-97"/>
<polygon fill="#555555" stroke="#555555" points="945.99,-100.5 955.99,-97 945.99,-93.5 945.99,-100.5"/>
</g>
<!-- n9&#45;&gt;n10 -->
<g id="edge6" class="edge">
<title>n9&#45;&gt;n10</title>
<path fill="none" stroke="#555555" d="M1087.15,-97C1102.71,-97 1119.32,-97 1134.87,-97"/>
<polygon fill="#555555" stroke="#555555" points="1134.92,-100.5 1144.92,-97 1134.92,-93.5 1134.92,-100.5"/>
</g>
</g>
</svg>
