<?xml version="1.0" encoding="UTF-8" standalone="no"?>
<!DOCTYPE svg PUBLIC "-//W3C//DTD SVG 1.1//EN"
 "http://www.w3.org/Graphics/SVG/1.1/DTD/svg11.dtd">
<!-- Generated by graphviz version 2.44.0 (0)
 -->
<!-- Title: process Pages: 1 -->
<svg width="418pt" height="187pt"
 viewBox="0.00 0.00 418.00 187.00" xmlns="http://www.w3.org/2000/svg" xmlns:xlink="http://www.w3.org/1999/xlink">
<g id="graph0" class="graph" transform="scale(1 1) rotate(0) translate(36 151)">
<title>process</title>
<polygon fill="#ffffff" stroke="transparent" points="-36,36 -36,-151 382,-151 382,36 -36,36"/>
<!-- n0 -->
<g id="node1" class="node">
<title>n0</title>
<path fill="#c8e6c9" stroke="black" d="M42,-75C42,-75 12,-75 12,-75 6,-75 0,-69 0,-63 0,-63 0,-51 0,-51 0,-45 6,-39 12,-39 12,-39 42,-39 42,-39 48,-39 54,-45 54,-51 54,-51 54,-63 54,-63 54,-69 48,-75 42,-75"/>
<text text-anchor="middle" x="27" y="-54.2" font-family="Helvetica" font-size="11.00">Start</text>
</g>
<!-- n1 -->
<g id="node2" class="node">
<title>n1</title>
<path fill="#e8f4f8" stroke="black" d="M221,-115C221,-115 125,-115 125,-115 119,-115 113,-109 113,-103 113,-103 113,-91 113,-91 113,-85 119,-79 125,-79 125,-79 221,-79 221,-79 227,-79 233,-85 233,-91 233,-91 233,-103 233,-103 233,-109 227,-115 221,-115"/>
<text text-anchor="middle" x="173" y="-94.2" font-family="Helvetica" font-size="11.00">ExtractSAMLToken</text>
</g>
<!-- n0&#45;&gt;n1 -->
<g id="edge1" class="edge">
<title>n0&#45;&gt;n1</title>
<path fill="none" stroke="#555555" d="M54.08,-64.24C67.96,-68.1 85.75,-73.04 103.28,-77.91"/>
<polygon fill="#555555" stroke="#555555" points="102.4,-81.3 112.97,-80.6 104.27,-74.55 102.4,-81.3"/>
</g>
<!-- n2 -->
<g id="node3" class="node">
<title>n2</title>
<path fill="#e8f4f8" stroke="black" d="M222,-36C222,-36 124,-36 124,-36 118,-36 112,-30 112,-24 112,-24 112,-12 112,-12 112,-6 118,0 124,0 124,0 222,0 222,0 228,0 234,-6 234,-12 234,-12 234,-24 234,-24 234,-30 228,-36 222,-36"/>
<text text-anchor="middle" x="173" y="-15.2" font-family="Helvetica" font-size="11.00">ExtractOAuthToken</text>
</g>
<!-- n0&#45;&gt;n2 -->
<g id="edge2" class="edge">
<title>n0&#45;&gt;n2</title>
<path fill="none" stroke="#555555" d="M54.08,-49.94C67.56,-46.29 84.73,-41.64 101.77,-37.02"/>
<polygon fill="#555555" stroke="#555555" points="103.02,-40.31 111.75,-34.32 101.19,-33.55 103.02,-40.31"/>
</g>
<!-- n3 -->
<g id="node4" class="node">
<title>n3</title>
<path fill="#ffccbc" stroke="black" d="M334,-75C334,-75 304,-75 304,-75 298,-75 292,-69 292,-63 292,-63 292,-51 292,-51 292,-45 298,-39 304,-39 304,-39 334,-39 334,-39 340,-39 346,-45 346,-51 346,-51 346,-63 346,-63 346,-69 340,-75 334,-75"/>
<text text-anchor="middle" x="319" y="-54.2" font-family="Helvetica" font-size="11.00">End</text>
</g>
<!-- n1&#45;&gt;n3 -->
<g id="edge4" class="edge">
<title>n1&#45;&gt;n3</title>
<path fill="none" stroke="#555555" d="M233.4,-80.5C249.89,-75.92 267.3,-71.08 282,-67"/>
<polygon fill="#555555" stroke="#555555" points="283.01,-70.35 291.71,-64.3 281.13,-63.61 283.01,-70.35"/>
</g>
<!-- n2&#45;&gt;n3 -->
<g id="edge3" class="edge">
<title>n2&#45;&gt;n3</title>
<path fill="none" stroke="#555555" d="M234.23,-34.31C250.36,-38.68 267.29,-43.27 281.68,-47.16"/>
<polygon fill="#555555" stroke="#555555" points="281.09,-50.63 291.66,-49.87 282.92,-43.87 281.09,-50.63"/>
</g>
</g>
</svg>
