<?xml version="1.0" encoding="UTF-8" standalone="no"?>
<!DOCTYPE svg PUBLIC "-//W3C//DTD SVG 1.1//EN"
 "http://www.w3.org/Graphics/SVG/1.1/DTD/svg11.dtd">
<!-- Generated by graphviz version 2.44.0 (0)
 -->
<!-- Title: process Pages: 1 -->
<svg width="602pt" height="268pt"
 viewBox="0.00 0.00 602.00 268.00" xmlns="http://www.w3.org/2000/svg" xmlns:xlink="http://www.w3.org/1999/xlink">
<g id="graph0" class="graph" transform="scale(1 1) rotate(0) translate(36 232)">
<title>process</title>
<polygon fill="#ffffff" stroke="transparent" points="-36,36 -36,-232 566,-232 566,36 -36,36"/>
<!-- n0 -->
<g id="node1" class="node">
<title>n0</title>
<path fill="#e8f4f8" stroke="black" d="M216,-196C216,-196 124,-196 124,-196 118,-196 112,-190 112,-184 112,-184 112,-172 112,-172 112,-166 118,-160 124,-160 124,-160 216,-160 216,-160 222,-160 228,-166 228,-172 228,-172 228,-184 228,-184 228,-190 222,-196 216,-196"/>
<text text-anchor="middle" x="170" y="-175.2" font-family="Helvetica" font-size="11.00">MapAnyException</text>
</g>
<!-- n1 -->
<g id="node2" class="node">
<title>n1</title>
<path fill="#ffccbc" stroke="black" d="M518,-156C518,-156 488,-156 488,-156 482,-156 476,-150 476,-144 476,-144 476,-132 476,-132 476,-126 482,-120 488,-120 488,-120 518,-120 518,-120 524,-120 530,-126 530,-132 530,-132 530,-144 530,-144 530,-150 524,-156 518,-156"/>
<text text-anchor="middle" x="503" y="-135.2" font-family="Helvetica" font-size="11.00">End</text>
</g>
<!-- n0&#45;&gt;n1 -->
<g id="edge1" class="edge">
<title>n0&#45;&gt;n1</title>
<path fill="none" stroke="#555555" d="M228.28,-171.08C296.56,-162.83 408.61,-149.29 465.86,-142.37"/>
<polygon fill="#555555" stroke="#555555" points="466.39,-145.83 475.89,-141.15 465.55,-138.88 466.39,-145.83"/>
</g>
<!-- n2 -->
<g id="node3" class="node">
<title>n2</title>
<path fill="#c8e6c9" stroke="black" d="M42,-154C42,-154 12,-154 12,-154 6,-154 0,-148 0,-142 0,-142 0,-130 0,-130 0,-124 6,-118 12,-118 12,-118 42,-118 42,-118 48,-118 54,-124 54,-130 54,-130 54,-142 54,-142 54,-148 48,-154 42,-154"/>
<text text-anchor="middle" x="27" y="-133.2" font-family="Helvetica" font-size="11.00">Start</text>
</g>
<!-- n2&#45;&gt;n0 -->
<g id="edge2" class="edge">
<title>n2&#45;&gt;n0</title>
<path fill="none" stroke="#555555" d="M54.19,-143.8C67.77,-147.85 85.04,-152.99 102.04,-158.05"/>
<polygon fill="#555555" stroke="#555555" points="101.4,-161.52 111.98,-161.02 103.4,-154.81 101.4,-161.52"/>
</g>
<!-- n3 -->
<g id="node4" class="node">
<title>n3</title>
<path fill="#e8f4f8" stroke="black" d="M200.5,-115C200.5,-115 139.5,-115 139.5,-115 133.5,-115 127.5,-109 127.5,-103 127.5,-103 127.5,-91 127.5,-91 127.5,-85 133.5,-79 139.5,-79 139.5,-79 200.5,-79 200.5,-79 206.5,-79 212.5,-85 212.5,-91 212.5,-91 212.5,-103 212.5,-103 212.5,-109 206.5,-115 200.5,-115"/>
<text text-anchor="middle" x="170" y="-94.2" font-family="Helvetica" font-size="11.00">GetVariable</text>
</g>
<!-- n2&#45;&gt;n3 -->
<g id="edge3" class="edge">
<title>n2&#45;&gt;n3</title>
<path fill="none" stroke="#555555" d="M54.19,-128.76C72.01,-123.83 96.18,-117.14 117.74,-111.18"/>
<polygon fill="#555555" stroke="#555555" points="118.73,-114.53 127.44,-108.5 116.87,-107.79 118.73,-114.53"/>
</g>
<!-- n4 -->
<g id="node5" class="node">
<title>n4</title>
<path fill="#e8f4f8" stroke="black" d="M406,-115C406,-115 298,-115 298,-115 292,-115 286,-109 286,-103 286,-103 286,-91 286,-91 286,-85 292,-79 298,-79 298,-79 406,-79 406,-79 412,-79 418,-85 418,-91 418,-91 418,-103 418,-103 418,-109 412,-115 406,-115"/>
<text text-anchor="middle" x="352" y="-94.2" font-family="Helvetica" font-size="11.00">RenderBackEndError</text>
</g>
<!-- n3&#45;&gt;n4 -->
<g id="edge4" class="edge">
<title>n3&#45;&gt;n4</title>
<path fill="none" stroke="#555555" d="M212.75,-97C231.49,-97 254.19,-97 275.73,-97"/>
<polygon fill="#555555" stroke="#555555" points="275.86,-100.5 285.86,-97 275.86,-93.5 275.86,-100.5"/>
</g>
<!-- n5 -->
<g id="node6" class="node">
<title>n5</title>
<path fill="#ffcdd2" stroke="black" d="M390.5,-36C390.5,-36 313.5,-36 313.5,-36 307.5,-36 301.5,-30 301.5,-24 301.5,-24 301.5,-12 301.5,-12 301.5,-6 307.5,0 313.5,0 313.5,0 390.5,0 390.5,0 396.5,0 402.5,-6 402.5,-12 402.5,-12 402.5,-24 402.5,-24 402.5,-30 396.5,-36 390.5,-36"/>
<text text-anchor="middle" x="352" y="-15.2" font-family="Helvetica" font-size="11.00">Generate Error</text>
</g>
<!-- n3&#45;&gt;n5 -->
<g id="edge6" class="edge">
<title>n3&#45;&gt;n5</title>
<path fill="none" stroke="#555555" d="M212.3,-78.88C238.59,-67.33 272.83,-52.31 300.71,-40.07"/>
<polygon fill="#555555" stroke="#555555" points="302.15,-43.26 309.9,-36.04 299.33,-36.85 302.15,-43.26"/>
</g>
<!-- n4&#45;&gt;n1 -->
<g id="edge5" class="edge">
<title>n4&#45;&gt;n1</title>
<path fill="none" stroke="#555555" d="M418.35,-114.98C434.71,-119.48 451.67,-124.15 466,-128.09"/>
<polygon fill="#555555" stroke="#555555" points="465.36,-131.55 475.93,-130.83 467.22,-124.8 465.36,-131.55"/>
</g>
</g>
</svg>
