<?xml version="1.0" encoding="UTF-8" standalone="no"?>
<!DOCTYPE svg PUBLIC "-//W3C//DTD SVG 1.1//EN"
 "http://www.w3.org/Graphics/SVG/1.1/DTD/svg11.dtd">
<!-- Generated by graphviz version 2.44.0 (0)
 -->
<!-- Title: process Pages: 1 -->
<svg width="803pt" height="187pt"
 viewBox="0.00 0.00 803.00 187.00" xmlns="http://www.w3.org/2000/svg" xmlns:xlink="http://www.w3.org/1999/xlink">
<g id="graph0" class="graph" transform="scale(1 1) rotate(0) translate(36 151)">
<title>process</title>
<polygon fill="#ffffff" stroke="transparent" points="-36,36 -36,-151 767,-151 767,36 -36,36"/>
<!-- n0 -->
<g id="node1" class="node">
<title>n0</title>
<path fill="#c8e6c9" stroke="black" d="M42,-75C42,-75 12,-75 12,-75 6,-75 0,-69 0,-63 0,-63 0,-51 0,-51 0,-45 6,-39 12,-39 12,-39 42,-39 42,-39 48,-39 54,-45 54,-51 54,-51 54,-63 54,-63 54,-69 48,-75 42,-75"/>
<text text-anchor="middle" x="27" y="-54.2" font-family="Helvetica" font-size="11.00">Start</text>
</g>
<!-- n1 -->
<g id="node2" class="node">
<title>n1</title>
<path fill="#e8f4f8" stroke="black" d="M193,-75C193,-75 124,-75 124,-75 118,-75 112,-69 112,-63 112,-63 112,-51 112,-51 112,-45 118,-39 124,-39 124,-39 193,-39 193,-39 199,-39 205,-45 205,-51 205,-51 205,-63 205,-63 205,-69 199,-75 193,-75"/>
<text text-anchor="middle" x="158.5" y="-54.2" font-family="Helvetica" font-size="11.00">Prepare Data</text>
</g>
<!-- n0&#45;&gt;n1 -->
<g id="edge1" class="edge">
<title>n0&#45;&gt;n1</title>
<path fill="none" stroke="#555555" d="M54.21,-57C67.92,-57 85.25,-57 101.78,-57"/>
<polygon fill="#555555" stroke="#555555" points="101.93,-60.5 111.93,-57 101.93,-53.5 101.93,-60.5"/>
</g>
<!-- n2 -->
<g id="node3" class="node">
<title>n2</title>
<path fill="#e8f4f8" stroke="black" d="M369,-115C369,-115 292,-115 292,-115 286,-115 280,-109 280,-103 280,-103 280,-91 280,-91 280,-85 286,-79 292,-79 292,-79 369,-79 369,-79 375,-79 381,-85 381,-91 381,-91 381,-103 381,-103 381,-109 375,-115 369,-115"/>
<text text-anchor="middle" x="330.5" y="-94.2" font-family="Helvetica" font-size="11.00">PublishToTopic</text>
</g>
<!-- n1&#45;&gt;n2 -->
<g id="edge2" class="edge">
<title>n1&#45;&gt;n2</title>
<path fill="none" stroke="#555555" d="M205.06,-67.72C225.01,-72.41 248.69,-77.99 270.01,-83"/>
<polygon fill="#555555" stroke="#555555" points="269.4,-86.45 279.93,-85.34 271,-79.64 269.4,-86.45"/>
</g>
<!-- n6 -->
<g id="node7" class="node">
<title>n6</title>
<path fill="#e8f4f8" stroke="black" d="M386,-36C386,-36 275,-36 275,-36 269,-36 263,-30 263,-24 263,-24 263,-12 263,-12 263,-6 269,0 275,0 275,0 386,0 386,0 392,0 398,-6 398,-12 398,-12 398,-24 398,-24 398,-30 392,-36 386,-36"/>
<text text-anchor="middle" x="330.5" y="-15.2" font-family="Helvetica" font-size="11.00">PublishToTopic&#45;Object</text>
</g>
<!-- n1&#45;&gt;n6 -->
<g id="edge6" class="edge">
<title>n1&#45;&gt;n6</title>
<path fill="none" stroke="#555555" d="M205.06,-46.55C219.72,-43.19 236.39,-39.36 252.66,-35.63"/>
<polygon fill="#555555" stroke="#555555" points="253.75,-38.97 262.72,-33.32 252.19,-32.15 253.75,-38.97"/>
</g>
<!-- n3 -->
<g id="node4" class="node">
<title>n3</title>
<path fill="#ffccbc" stroke="black" d="M529,-115C529,-115 499,-115 499,-115 493,-115 487,-109 487,-103 487,-103 487,-91 487,-91 487,-85 493,-79 499,-79 499,-79 529,-79 529,-79 535,-79 541,-85 541,-91 541,-91 541,-103 541,-103 541,-109 535,-115 529,-115"/>
<text text-anchor="middle" x="514" y="-94.2" font-family="Helvetica" font-size="11.00">End</text>
</g>
<!-- n2&#45;&gt;n3 -->
<g id="edge3" class="edge">
<title>n2&#45;&gt;n3</title>
<path fill="none" stroke="#555555" d="M381.1,-97C411.3,-97 449.23,-97 476.65,-97"/>
<polygon fill="#555555" stroke="#555555" points="476.97,-100.5 486.97,-97 476.97,-93.5 476.97,-100.5"/>
</g>
<!-- n4 -->
<g id="node5" class="node">
<title>n4</title>
<path fill="#e8f4f8" stroke="black" d="M560,-36C560,-36 468,-36 468,-36 462,-36 456,-30 456,-24 456,-24 456,-12 456,-12 456,-6 462,0 468,0 468,0 560,0 560,0 566,0 572,-6 572,-12 572,-12 572,-24 572,-24 572,-30 566,-36 560,-36"/>
<text text-anchor="middle" x="514" y="-15.2" font-family="Helvetica" font-size="11.00">MapAnyException</text>
</g>
<!-- n2&#45;&gt;n4 -->
<g id="edge5" class="edge">
<title>n2&#45;&gt;n4</title>
<path fill="none" stroke="#555555" d="M373.14,-78.88C399.66,-67.33 434.18,-52.31 462.29,-40.07"/>
<polygon fill="#555555" stroke="#555555" points="463.78,-43.24 471.55,-36.04 460.99,-36.82 463.78,-43.24"/>
</g>
<!-- n5 -->
<g id="node6" class="node">
<title>n5</title>
<path fill="#ffcdd2" stroke="black" d="M719,-36C719,-36 642,-36 642,-36 636,-36 630,-30 630,-24 630,-24 630,-12 630,-12 630,-6 636,0 642,0 642,0 719,0 719,0 725,0 731,-6 731,-12 731,-12 731,-24 731,-24 731,-30 725,-36 719,-36"/>
<text text-anchor="middle" x="680.5" y="-15.2" font-family="Helvetica" font-size="11.00">Generate Error</text>
</g>
<!-- n4&#45;&gt;n5 -->
<g id="edge4" class="edge">
<title>n4&#45;&gt;n5</title>
<path fill="none" stroke="#555555" d="M572.07,-18C587.53,-18 604.29,-18 619.88,-18"/>
<polygon fill="#555555" stroke="#555555" points="619.93,-21.5 629.93,-18 619.93,-14.5 619.93,-21.5"/>
</g>
<!-- n6&#45;&gt;n3 -->
<g id="edge8" class="edge">
<title>n6&#45;&gt;n3</title>
<path fill="none" stroke="#555555" d="M373.14,-36.12C404.78,-49.89 447.81,-68.62 477.75,-81.66"/>
<polygon fill="#555555" stroke="#555555" points="476.42,-84.89 486.98,-85.68 479.21,-78.48 476.42,-84.89"/>
</g>
<!-- n6&#45;&gt;n4 -->
<g id="edge7" class="edge">
<title>n6&#45;&gt;n4</title>
<path fill="none" stroke="#555555" d="M398.05,-18C413.57,-18 430.11,-18 445.66,-18"/>
<polygon fill="#555555" stroke="#555555" points="445.72,-21.5 455.72,-18 445.72,-14.5 445.72,-21.5"/>
</g>
</g>
</svg>
