<?xml version="1.0" encoding="UTF-8" standalone="no"?>
<!DOCTYPE svg PUBLIC "-//W3C//DTD SVG 1.1//EN"
 "http://www.w3.org/Graphics/SVG/1.1/DTD/svg11.dtd">
<!-- Generated by graphviz version 2.44.0 (0)
 -->
<!-- Title: process Pages: 1 -->
<svg width="2441pt" height="430pt"
 viewBox="0.00 0.00 2441.00 430.00" xmlns="http://www.w3.org/2000/svg" xmlns:xlink="http://www.w3.org/1999/xlink">
<g id="graph0" class="graph" transform="scale(1 1) rotate(0) translate(36 394)">
<title>process</title>
<polygon fill="#ffffff" stroke="transparent" points="-36,36 -36,-394 2405,-394 2405,36 -36,36"/>
<!-- n0 -->
<g id="node1" class="node">
<title>n0</title>
<path fill="#c8e6c9" stroke="black" d="M66,-76C66,-76 36,-76 36,-76 30,-76 24,-70 24,-64 24,-64 24,-52 24,-52 24,-46 30,-40 36,-40 36,-40 66,-40 66,-40 72,-40 78,-46 78,-52 78,-52 78,-64 78,-64 78,-70 72,-76 66,-76"/>
<text text-anchor="middle" x="51" y="-55.2" font-family="Helvetica" font-size="11.00">start</text>
</g>
<!-- n1 -->
<g id="node2" class="node">
<title>n1</title>
<path fill="#e8f4f8" stroke="black" d="M292.5,-115C292.5,-115 184.5,-115 184.5,-115 178.5,-115 172.5,-109 172.5,-103 172.5,-103 172.5,-91 172.5,-91 172.5,-85 178.5,-79 184.5,-79 184.5,-79 292.5,-79 292.5,-79 298.5,-79 304.5,-85 304.5,-91 304.5,-91 304.5,-103 304.5,-103 304.5,-109 298.5,-115 292.5,-115"/>
<text text-anchor="middle" x="238.5" y="-94.2" font-family="Helvetica" font-size="11.00">Custom&#45;RenderReply</text>
</g>
<!-- n0&#45;&gt;n1 -->
<g id="edge1" class="edge">
<title>n0&#45;&gt;n1</title>
<path fill="none" stroke="#555555" d="M78.18,-63.51C100.08,-68.11 132.43,-74.91 162.27,-81.18"/>
<polygon fill="#555555" stroke="#555555" points="161.77,-84.65 172.27,-83.29 163.21,-77.8 161.77,-84.65"/>
</g>
<!-- n5 -->
<g id="node22" class="node">
<title>n5</title>
<path fill="#e8f4f8" stroke="black" d="M305,-36C305,-36 172,-36 172,-36 166,-36 160,-30 160,-24 160,-24 160,-12 160,-12 160,-6 166,0 172,0 172,0 305,0 305,0 311,0 317,-6 317,-12 317,-12 317,-24 317,-24 317,-30 311,-36 305,-36"/>
<text text-anchor="middle" x="238.5" y="-15.2" font-family="Helvetica" font-size="11.00">Custom&#45;RenderErrorReply</text>
</g>
<!-- n0&#45;&gt;n5 -->
<g id="edge5" class="edge">
<title>n0&#45;&gt;n5</title>
<path fill="none" stroke="#555555" d="M78.18,-52.35C97.05,-48.29 123.67,-42.55 149.77,-36.92"/>
<polygon fill="#555555" stroke="#555555" points="150.69,-40.3 159.72,-34.77 149.21,-33.46 150.69,-40.3"/>
</g>
<!-- n4 -->
<g id="node21" class="node">
<title>n4</title>
<path fill="#e8f4f8" stroke="black" d="M558.5,-115C558.5,-115 391.5,-115 391.5,-115 385.5,-115 379.5,-109 379.5,-103 379.5,-103 379.5,-91 379.5,-91 379.5,-85 385.5,-79 391.5,-79 391.5,-79 558.5,-79 558.5,-79 564.5,-79 570.5,-85 570.5,-91 570.5,-91 570.5,-103 570.5,-103 570.5,-109 564.5,-115 558.5,-115"/>
<text text-anchor="middle" x="475" y="-94.2" font-family="Helvetica" font-size="11.00">Custom&#45;GenerateHTTPResponse</text>
</g>
<!-- n1&#45;&gt;n4 -->
<g id="edge3" class="edge">
<title>n1&#45;&gt;n4</title>
<path fill="none" stroke="#555555" d="M304.51,-97C324.61,-97 347.28,-97 369.36,-97"/>
<polygon fill="#555555" stroke="#555555" points="369.44,-100.5 379.44,-97 369.44,-93.5 369.44,-100.5"/>
</g>
<!-- n10 -->
<g id="node3" class="node">
<title>n10</title>
<path fill="#e8f4f8" stroke="black" d="M2245,-275C2245,-275 2199,-275 2199,-275 2193,-275 2187,-269 2187,-263 2187,-263 2187,-251 2187,-251 2187,-245 2193,-239 2199,-239 2199,-239 2245,-239 2245,-239 2251,-239 2257,-245 2257,-251 2257,-251 2257,-263 2257,-263 2257,-269 2251,-275 2245,-275"/>
<text text-anchor="middle" x="2222" y="-254.2" font-family="Helvetica" font-size="11.00">LogFatal</text>
</g>
<!-- n24 -->
<g id="node18" class="node">
<title>n24</title>
<path fill="#ffccbc" stroke="black" d="M2357,-192C2357,-192 2327,-192 2327,-192 2321,-192 2315,-186 2315,-180 2315,-180 2315,-168 2315,-168 2315,-162 2321,-156 2327,-156 2327,-156 2357,-156 2357,-156 2363,-156 2369,-162 2369,-168 2369,-168 2369,-180 2369,-180 2369,-186 2363,-192 2357,-192"/>
<text text-anchor="middle" x="2342" y="-171.2" font-family="Helvetica" font-size="11.00">End</text>
</g>
<!-- n10&#45;&gt;n24 -->
<g id="edge31" class="edge">
<title>n10&#45;&gt;n24</title>
<path fill="none" stroke="#555555" d="M2248.6,-238.99C2265.65,-227 2288.24,-211.11 2306.82,-198.04"/>
<polygon fill="#555555" stroke="#555555" points="2308.87,-200.88 2315.04,-192.26 2304.85,-195.15 2308.87,-200.88"/>
</g>
<!-- n11 -->
<g id="node4" class="node">
<title>n11</title>
<path fill="#e8f4f8" stroke="black" d="M971,-194C971,-194 849,-194 849,-194 843,-194 837,-188 837,-182 837,-182 837,-170 837,-170 837,-164 843,-158 849,-158 849,-158 971,-158 971,-158 977,-158 983,-164 983,-170 983,-170 983,-182 983,-182 983,-188 977,-194 971,-194"/>
<text text-anchor="middle" x="910" y="-173.2" font-family="Helvetica" font-size="11.00">Comp Invocation Details</text>
</g>
<!-- n12 -->
<g id="node5" class="node">
<title>n12</title>
<path fill="#e8f4f8" stroke="black" d="M1119,-194C1119,-194 1073,-194 1073,-194 1067,-194 1061,-188 1061,-182 1061,-182 1061,-170 1061,-170 1061,-164 1067,-158 1073,-158 1073,-158 1119,-158 1119,-158 1125,-158 1131,-164 1131,-170 1131,-170 1131,-182 1131,-182 1131,-188 1125,-194 1119,-194"/>
<text text-anchor="middle" x="1096" y="-173.2" font-family="Helvetica" font-size="11.00">LogStart</text>
</g>
<!-- n11&#45;&gt;n12 -->
<g id="edge11" class="edge">
<title>n11&#45;&gt;n12</title>
<path fill="none" stroke="#555555" d="M983.19,-176C1006,-176 1030.51,-176 1050.75,-176"/>
<polygon fill="#555555" stroke="#555555" points="1050.92,-179.5 1060.92,-176 1050.92,-172.5 1050.92,-179.5"/>
</g>
<!-- n15 -->
<g id="node8" class="node">
<title>n15</title>
<path fill="#e8f4f8" stroke="black" d="M1296,-192C1296,-192 1221,-192 1221,-192 1215,-192 1209,-186 1209,-180 1209,-180 1209,-168 1209,-168 1209,-162 1215,-156 1221,-156 1221,-156 1296,-156 1296,-156 1302,-156 1308,-162 1308,-168 1308,-168 1308,-180 1308,-180 1308,-186 1302,-192 1296,-192"/>
<text text-anchor="middle" x="1258.5" y="-171.2" font-family="Helvetica" font-size="11.00">CheckRequest</text>
</g>
<!-- n12&#45;&gt;n15 -->
<g id="edge15" class="edge">
<title>n12&#45;&gt;n15</title>
<path fill="none" stroke="#555555" d="M1131.04,-175.58C1150.67,-175.33 1175.89,-175.02 1198.65,-174.73"/>
<polygon fill="#555555" stroke="#555555" points="1198.94,-178.23 1208.9,-174.61 1198.85,-171.23 1198.94,-178.23"/>
</g>
<!-- n13 -->
<g id="node6" class="node">
<title>n13</title>
<path fill="#e8f4f8" stroke="black" d="M1508,-109C1508,-109 1378,-109 1378,-109 1372,-109 1366,-103 1366,-97 1366,-97 1366,-85 1366,-85 1366,-79 1372,-73 1378,-73 1378,-73 1508,-73 1508,-73 1514,-73 1520,-79 1520,-85 1520,-85 1520,-97 1520,-97 1520,-103 1514,-109 1508,-109"/>
<text text-anchor="middle" x="1443" y="-88.2" font-family="Helvetica" font-size="11.00">Call Service Main Process</text>
</g>
<!-- n16 -->
<g id="node9" class="node">
<title>n16</title>
<path fill="#ffccbc" stroke="black" d="M1682,-109C1682,-109 1650,-109 1650,-109 1644,-109 1638,-103 1638,-97 1638,-97 1638,-85 1638,-85 1638,-79 1644,-73 1650,-73 1650,-73 1682,-73 1682,-73 1688,-73 1694,-79 1694,-85 1694,-85 1694,-97 1694,-97 1694,-103 1688,-109 1682,-109"/>
<text text-anchor="middle" x="1666" y="-88.2" font-family="Helvetica" font-size="11.00">Reply</text>
</g>
<!-- n13&#45;&gt;n16 -->
<g id="edge16" class="edge">
<title>n13&#45;&gt;n16</title>
<path fill="none" stroke="#555555" d="M1520.06,-91C1556.42,-91 1598.31,-91 1627.68,-91"/>
<polygon fill="#555555" stroke="#555555" points="1627.9,-94.5 1637.9,-91 1627.9,-87.5 1627.9,-94.5"/>
</g>
<!-- n8 -->
<g id="node25" class="node">
<title>n8</title>
<path fill="#ffcdd2" stroke="black" d="M1742,-192C1742,-192 1590,-192 1590,-192 1584,-192 1578,-186 1578,-180 1578,-180 1578,-168 1578,-168 1578,-162 1584,-156 1590,-156 1590,-156 1742,-156 1742,-156 1748,-156 1754,-162 1754,-168 1754,-168 1754,-180 1754,-180 1754,-186 1748,-192 1742,-192"/>
<text text-anchor="middle" x="1666" y="-171.2" font-family="Helvetica" font-size="11.00">Call Service Exception Handler</text>
</g>
<!-- n13&#45;&gt;n8 -->
<g id="edge12" class="edge">
<title>n13&#45;&gt;n8</title>
<path fill="none" stroke="#555555" d="M1491.95,-109.01C1525.87,-121.75 1571.5,-138.88 1607.39,-152.36"/>
<polygon fill="#555555" stroke="#555555" points="1606.17,-155.64 1616.76,-155.88 1608.63,-149.09 1606.17,-155.64"/>
</g>
<!-- n14 -->
<g id="node7" class="node">
<title>n14</title>
<path fill="#ffccbc" stroke="black" d="M2117,-192C2117,-192 2058,-192 2058,-192 2052,-192 2046,-186 2046,-180 2046,-180 2046,-168 2046,-168 2046,-162 2052,-156 2058,-156 2058,-156 2117,-156 2117,-156 2123,-156 2129,-162 2129,-168 2129,-168 2129,-180 2129,-180 2129,-186 2123,-192 2117,-192"/>
<text text-anchor="middle" x="2087.5" y="-171.2" font-family="Helvetica" font-size="11.00">Reply Error</text>
</g>
<!-- n14&#45;&gt;n10 -->
<g id="edge14" class="edge">
<title>n14&#45;&gt;n10</title>
<path fill="none" stroke="#555555" d="M2117.25,-192.01C2136.56,-204.11 2162.22,-220.18 2183.18,-233.31"/>
<polygon fill="#555555" stroke="#555555" points="2181.52,-236.4 2191.85,-238.74 2185.23,-230.46 2181.52,-236.4"/>
</g>
<!-- n17 -->
<g id="node10" class="node">
<title>n17</title>
<path fill="#e8f4f8" stroke="black" d="M2243,-109C2243,-109 2201,-109 2201,-109 2195,-109 2189,-103 2189,-97 2189,-97 2189,-85 2189,-85 2189,-79 2195,-73 2201,-73 2201,-73 2243,-73 2243,-73 2249,-73 2255,-79 2255,-85 2255,-85 2255,-97 2255,-97 2255,-103 2249,-109 2243,-109"/>
<text text-anchor="middle" x="2222" y="-88.2" font-family="Helvetica" font-size="11.00">LogEnd</text>
</g>
<!-- n14&#45;&gt;n17 -->
<g id="edge24" class="edge">
<title>n14&#45;&gt;n17</title>
<path fill="none" stroke="#555555" d="M2117.25,-155.99C2136.56,-143.89 2162.22,-127.82 2183.18,-114.69"/>
<polygon fill="#555555" stroke="#555555" points="2185.23,-117.54 2191.85,-109.26 2181.52,-111.6 2185.23,-117.54"/>
</g>
<!-- n14&#45;&gt;n24 -->
<g id="edge30" class="edge">
<title>n14&#45;&gt;n24</title>
<path fill="none" stroke="#555555" d="M2129.07,-174C2177.57,-174 2258.01,-174 2304.59,-174"/>
<polygon fill="#555555" stroke="#555555" points="2304.83,-177.5 2314.83,-174 2304.83,-170.5 2304.83,-177.5"/>
</g>
<!-- n15&#45;&gt;n13 -->
<g id="edge25" class="edge">
<title>n15&#45;&gt;n13</title>
<path fill="none" stroke="#555555" d="M1299.1,-155.99C1326.63,-143.47 1363.51,-126.7 1392.9,-113.33"/>
<polygon fill="#555555" stroke="#555555" points="1394.51,-116.44 1402.16,-109.12 1391.61,-110.07 1394.51,-116.44"/>
</g>
<!-- n15&#45;&gt;n8 -->
<g id="edge26" class="edge">
<title>n15&#45;&gt;n8</title>
<path fill="none" stroke="#555555" d="M1308.01,-174C1371.88,-174 1485.66,-174 1567.62,-174"/>
<polygon fill="#555555" stroke="#555555" points="1567.7,-177.5 1577.7,-174 1567.7,-170.5 1567.7,-177.5"/>
</g>
<!-- n16&#45;&gt;n17 -->
<g id="edge17" class="edge">
<title>n16&#45;&gt;n17</title>
<path fill="none" stroke="#555555" d="M1694.1,-91C1783.55,-91 2069.94,-91 2178.63,-91"/>
<polygon fill="#555555" stroke="#555555" points="2178.88,-94.5 2188.88,-91 2178.88,-87.5 2178.88,-94.5"/>
</g>
<!-- n18 -->
<g id="node11" class="node">
<title>n18</title>
<path fill="#ffcdd2" stroke="black" d="M1976,-275C1976,-275 1824,-275 1824,-275 1818,-275 1812,-269 1812,-263 1812,-263 1812,-251 1812,-251 1812,-245 1818,-239 1824,-239 1824,-239 1976,-239 1976,-239 1982,-239 1988,-245 1988,-251 1988,-251 1988,-263 1988,-263 1988,-269 1982,-275 1976,-275"/>
<text text-anchor="middle" x="1900" y="-254.2" font-family="Helvetica" font-size="11.00">Call System Exception Handler</text>
</g>
<!-- n16&#45;&gt;n18 -->
<g id="edge18" class="edge">
<title>n16&#45;&gt;n18</title>
<path fill="none" stroke="#555555" d="M1694.16,-102.76C1711.78,-110.86 1734.94,-122.4 1754,-135 1798.66,-164.51 1845.12,-205.79 1873.06,-231.96"/>
<polygon fill="#555555" stroke="#555555" points="1870.75,-234.59 1880.43,-238.91 1875.56,-229.5 1870.75,-234.59"/>
</g>
<!-- n17&#45;&gt;n24 -->
<g id="edge29" class="edge">
<title>n17&#45;&gt;n24</title>
<path fill="none" stroke="#555555" d="M2248.6,-109.01C2265.65,-121 2288.24,-136.89 2306.82,-149.96"/>
<polygon fill="#555555" stroke="#555555" points="2304.85,-152.85 2315.04,-155.74 2308.87,-147.12 2304.85,-152.85"/>
</g>
<!-- n18&#45;&gt;n10 -->
<g id="edge20" class="edge">
<title>n18&#45;&gt;n10</title>
<path fill="none" stroke="#555555" d="M1988.02,-257C2049.06,-257 2128.13,-257 2176.68,-257"/>
<polygon fill="#555555" stroke="#555555" points="2176.85,-260.5 2186.85,-257 2176.85,-253.5 2176.85,-260.5"/>
</g>
<!-- n18&#45;&gt;n14 -->
<g id="edge19" class="edge">
<title>n18&#45;&gt;n14</title>
<path fill="none" stroke="#555555" d="M1941.25,-238.99C1969.23,-226.47 2006.71,-209.7 2036.6,-196.33"/>
<polygon fill="#555555" stroke="#555555" points="2038.31,-199.4 2046.01,-192.12 2035.45,-193.01 2038.31,-199.4"/>
</g>
<!-- n19 -->
<g id="node12" class="node">
<title>n19</title>
<path fill="#e8f4f8" stroke="black" d="M531.5,-194C531.5,-194 418.5,-194 418.5,-194 412.5,-194 406.5,-188 406.5,-182 406.5,-182 406.5,-170 406.5,-170 406.5,-164 412.5,-158 418.5,-158 418.5,-158 531.5,-158 531.5,-158 537.5,-158 543.5,-164 543.5,-170 543.5,-170 543.5,-182 543.5,-182 543.5,-188 537.5,-194 531.5,-194"/>
<text text-anchor="middle" x="475" y="-173.2" font-family="Helvetica" font-size="11.00">Custom&#45;ParseRequest</text>
</g>
<!-- n20 -->
<g id="node14" class="node">
<title>n20</title>
<path fill="#e8f4f8" stroke="black" d="M767,-194C767,-194 645,-194 645,-194 639,-194 633,-188 633,-182 633,-182 633,-170 633,-170 633,-164 639,-158 645,-158 645,-158 767,-158 767,-158 773,-158 779,-164 779,-170 779,-170 779,-182 779,-182 779,-188 773,-194 767,-194"/>
<text text-anchor="middle" x="706" y="-173.2" font-family="Helvetica" font-size="11.00">GetBusinessResources2</text>
</g>
<!-- n19&#45;&gt;n20 -->
<g id="edge21" class="edge">
<title>n19&#45;&gt;n20</title>
<path fill="none" stroke="#555555" d="M543.78,-176C568.46,-176 596.64,-176 622.46,-176"/>
<polygon fill="#555555" stroke="#555555" points="622.61,-179.5 632.61,-176 622.61,-172.5 622.61,-179.5"/>
</g>
<!-- n21 -->
<g id="node15" class="node">
<title>n21</title>
<path fill="#e8f4f8" stroke="black" d="M721,-277C721,-277 691,-277 691,-277 685,-277 679,-271 679,-265 679,-265 679,-253 679,-253 679,-247 685,-241 691,-241 691,-241 721,-241 721,-241 727,-241 733,-247 733,-253 733,-253 733,-265 733,-265 733,-271 727,-277 721,-277"/>
<text text-anchor="middle" x="706" y="-256.2" font-family="Helvetica" font-size="11.00">Null</text>
</g>
<!-- n19&#45;&gt;n21 -->
<g id="edge22" class="edge">
<title>n19&#45;&gt;n21</title>
<path fill="none" stroke="#555555" d="M525.69,-194.01C568.92,-209.68 630.53,-232.01 669.11,-245.99"/>
<polygon fill="#555555" stroke="#555555" points="668.28,-249.41 678.87,-249.53 670.66,-242.83 668.28,-249.41"/>
</g>
<!-- n2 -->
<g id="node13" class="node">
<title>n2</title>
<path fill="#e8f4f8" stroke="black" d="M735.5,-115C735.5,-115 676.5,-115 676.5,-115 670.5,-115 664.5,-109 664.5,-103 664.5,-103 664.5,-91 664.5,-91 664.5,-85 670.5,-79 676.5,-79 676.5,-79 735.5,-79 735.5,-79 741.5,-79 747.5,-85 747.5,-91 747.5,-91 747.5,-103 747.5,-103 747.5,-109 741.5,-115 735.5,-115"/>
<text text-anchor="middle" x="706" y="-94.2" font-family="Helvetica" font-size="11.00">HTTPReply</text>
</g>
<!-- n3 -->
<g id="node20" class="node">
<title>n3</title>
<path fill="#ffccbc" stroke="black" d="M925,-76C925,-76 895,-76 895,-76 889,-76 883,-70 883,-64 883,-64 883,-52 883,-52 883,-46 889,-40 895,-40 895,-40 925,-40 925,-40 931,-40 937,-46 937,-52 937,-52 937,-64 937,-64 937,-70 931,-76 925,-76"/>
<text text-anchor="middle" x="910" y="-55.2" font-family="Helvetica" font-size="11.00">end</text>
</g>
<!-- n2&#45;&gt;n3 -->
<g id="edge2" class="edge">
<title>n2&#45;&gt;n3</title>
<path fill="none" stroke="#555555" d="M747.88,-89.11C784.6,-82.02 838,-71.71 873.11,-64.93"/>
<polygon fill="#555555" stroke="#555555" points="873.78,-68.36 882.93,-63.03 872.45,-61.49 873.78,-68.36"/>
</g>
<!-- n20&#45;&gt;n11 -->
<g id="edge34" class="edge">
<title>n20&#45;&gt;n11</title>
<path fill="none" stroke="#555555" d="M779.07,-176C794.5,-176 810.91,-176 826.69,-176"/>
<polygon fill="#555555" stroke="#555555" points="826.96,-179.5 836.96,-176 826.96,-172.5 826.96,-179.5"/>
</g>
<!-- n25 -->
<g id="node19" class="node">
<title>n25</title>
<path fill="#e8f4f8" stroke="black" d="M1139,-278C1139,-278 1053,-278 1053,-278 1047,-278 1041,-272 1041,-266 1041,-266 1041,-254 1041,-254 1041,-248 1047,-242 1053,-242 1053,-242 1139,-242 1139,-242 1145,-242 1151,-248 1151,-254 1151,-254 1151,-266 1151,-266 1151,-272 1145,-278 1139,-278"/>
<text text-anchor="middle" x="1096" y="-257.2" font-family="Helvetica" font-size="11.00">InvocationDetails</text>
</g>
<!-- n21&#45;&gt;n25 -->
<g id="edge33" class="edge">
<title>n21&#45;&gt;n25</title>
<path fill="none" stroke="#555555" d="M733.06,-259.07C793.31,-259.22 943.7,-259.61 1030.48,-259.83"/>
<polygon fill="#555555" stroke="#555555" points="1030.73,-263.33 1040.74,-259.86 1030.75,-256.33 1030.73,-263.33"/>
</g>
<!-- n22 -->
<g id="node16" class="node">
<title>n22</title>
<path fill="#e8f4f8" stroke="black" d="M296.5,-194C296.5,-194 180.5,-194 180.5,-194 174.5,-194 168.5,-188 168.5,-182 168.5,-182 168.5,-170 168.5,-170 168.5,-164 174.5,-158 180.5,-158 180.5,-158 296.5,-158 296.5,-158 302.5,-158 308.5,-164 308.5,-170 308.5,-170 308.5,-182 308.5,-182 308.5,-188 302.5,-194 296.5,-194"/>
<text text-anchor="middle" x="238.5" y="-173.2" font-family="Helvetica" font-size="11.00">Prep Invocation Details</text>
</g>
<!-- n22&#45;&gt;n19 -->
<g id="edge23" class="edge">
<title>n22&#45;&gt;n19</title>
<path fill="none" stroke="#555555" d="M308.59,-176C336.02,-176 367.71,-176 395.97,-176"/>
<polygon fill="#555555" stroke="#555555" points="396.21,-179.5 406.21,-176 396.21,-172.5 396.21,-179.5"/>
</g>
<!-- n23 -->
<g id="node17" class="node">
<title>n23</title>
<path fill="#e8f4f8" stroke="black" d="M90,-235C90,-235 12,-235 12,-235 6,-235 0,-229 0,-223 0,-223 0,-211 0,-211 0,-205 6,-199 12,-199 12,-199 90,-199 90,-199 96,-199 102,-205 102,-211 102,-211 102,-223 102,-223 102,-229 96,-235 90,-235"/>
<text text-anchor="middle" x="51" y="-214.2" font-family="Helvetica" font-size="11.00">HTTP Receiver</text>
</g>
<!-- n23&#45;&gt;n21 -->
<g id="edge27" class="edge">
<title>n23&#45;&gt;n21</title>
<path fill="none" stroke="#555555" d="M102.16,-220.23C228.6,-228.36 558.18,-249.56 668.45,-256.65"/>
<polygon fill="#555555" stroke="#555555" points="668.52,-260.16 678.72,-257.31 668.97,-253.18 668.52,-260.16"/>
</g>
<!-- n23&#45;&gt;n22 -->
<g id="edge28" class="edge">
<title>n23&#45;&gt;n22</title>
<path fill="none" stroke="#555555" d="M102.2,-205.9C119.56,-202.07 139.46,-197.67 158.56,-193.45"/>
<polygon fill="#555555" stroke="#555555" points="159.45,-196.84 168.46,-191.26 157.94,-190 159.45,-196.84"/>
</g>
<!-- n25&#45;&gt;n18 -->
<g id="edge32" class="edge">
<title>n25&#45;&gt;n18</title>
<path fill="none" stroke="#555555" d="M1151.18,-259.8C1284.72,-259.3 1631.14,-258 1801.5,-257.36"/>
<polygon fill="#555555" stroke="#555555" points="1801.73,-260.86 1811.72,-257.33 1801.7,-253.86 1801.73,-260.86"/>
</g>
<!-- n4&#45;&gt;n2 -->
<g id="edge4" class="edge">
<title>n4&#45;&gt;n2</title>
<path fill="none" stroke="#555555" d="M570.8,-97C599.43,-97 629.77,-97 654.34,-97"/>
<polygon fill="#555555" stroke="#555555" points="654.5,-100.5 664.5,-97 654.5,-93.5 654.5,-100.5"/>
</g>
<!-- n7 -->
<g id="node24" class="node">
<title>n7</title>
<path fill="#e8f4f8" stroke="black" d="M563,-36C563,-36 387,-36 387,-36 381,-36 375,-30 375,-24 375,-24 375,-12 375,-12 375,-6 381,0 387,0 387,0 563,0 563,0 569,0 575,-6 575,-12 575,-12 575,-24 575,-24 575,-30 569,-36 563,-36"/>
<text text-anchor="middle" x="475" y="-15.2" font-family="Helvetica" font-size="11.00">Custom&#45;GenerateHTTPResponse&#45;1</text>
</g>
<!-- n5&#45;&gt;n7 -->
<g id="edge7" class="edge">
<title>n5&#45;&gt;n7</title>
<path fill="none" stroke="#555555" d="M317.26,-18C332.35,-18 348.43,-18 364.33,-18"/>
<polygon fill="#555555" stroke="#555555" points="364.73,-21.5 374.73,-18 364.73,-14.5 364.73,-21.5"/>
</g>
<!-- n6 -->
<g id="node23" class="node">
<title>n6</title>
<path fill="#ffcdd2" stroke="black" d="M750,-36C750,-36 662,-36 662,-36 656,-36 650,-30 650,-24 650,-24 650,-12 650,-12 650,-6 656,0 662,0 662,0 750,0 750,0 756,0 762,-6 762,-12 762,-12 762,-24 762,-24 762,-30 756,-36 750,-36"/>
<text text-anchor="middle" x="706" y="-15.2" font-family="Helvetica" font-size="11.00">HTTPReply&#45;Error</text>
</g>
<!-- n6&#45;&gt;n3 -->
<g id="edge6" class="edge">
<title>n6&#45;&gt;n3</title>
<path fill="none" stroke="#555555" d="M762.2,-28.93C797.46,-35.91 842.17,-44.77 872.94,-50.86"/>
<polygon fill="#555555" stroke="#555555" points="872.31,-54.3 882.8,-52.81 873.67,-47.44 872.31,-54.3"/>
</g>
<!-- n7&#45;&gt;n6 -->
<g id="edge8" class="edge">
<title>n7&#45;&gt;n6</title>
<path fill="none" stroke="#555555" d="M575.11,-18C596.93,-18 619.52,-18 639.61,-18"/>
<polygon fill="#555555" stroke="#555555" points="639.87,-21.5 649.87,-18 639.87,-14.5 639.87,-21.5"/>
</g>
<!-- n8&#45;&gt;n14 -->
<g id="edge13" class="edge">
<title>n8&#45;&gt;n14</title>
<path fill="none" stroke="#555555" d="M1754.18,-174C1839.23,-174 1965.71,-174 2035.55,-174"/>
<polygon fill="#555555" stroke="#555555" points="2035.85,-177.5 2045.85,-174 2035.85,-170.5 2035.85,-177.5"/>
</g>
<!-- n9 -->
<g id="node26" class="node">
<title>n9</title>
<path fill="#e8f4f8" stroke="black" d="M2104,-358C2104,-358 2071,-358 2071,-358 2065,-358 2059,-352 2059,-346 2059,-346 2059,-334 2059,-334 2059,-328 2065,-322 2071,-322 2071,-322 2104,-322 2104,-322 2110,-322 2116,-328 2116,-334 2116,-334 2116,-346 2116,-346 2116,-352 2110,-358 2104,-358"/>
<text text-anchor="middle" x="2087.5" y="-337.2" font-family="Helvetica" font-size="11.00">Null&#45;1</text>
</g>
<!-- n8&#45;&gt;n9 -->
<g id="edge9" class="edge">
<title>n8&#45;&gt;n9</title>
<path fill="none" stroke="#555555" d="M1682.25,-192.17C1706.58,-219.8 1757.08,-271.85 1812,-297 1890.74,-333.06 1994.04,-339.69 2048.73,-340.43"/>
<polygon fill="#555555" stroke="#555555" points="2048.97,-343.94 2059,-340.51 2049.03,-336.94 2048.97,-343.94"/>
</g>
<!-- n9&#45;&gt;n10 -->
<g id="edge10" class="edge">
<title>n9&#45;&gt;n10</title>
<path fill="none" stroke="#555555" d="M2116.28,-322.6C2135.75,-310.4 2162.01,-293.95 2183.37,-280.57"/>
<polygon fill="#555555" stroke="#555555" points="2185.27,-283.51 2191.88,-275.24 2181.55,-277.58 2185.27,-283.51"/>
</g>
</g>
</svg>
