<?xml version="1.0" encoding="UTF-8" standalone="no"?>
<!DOCTYPE svg PUBLIC "-//W3C//DTD SVG 1.1//EN"
 "http://www.w3.org/Graphics/SVG/1.1/DTD/svg11.dtd">
<!-- Generated by graphviz version 2.44.0 (0)
 -->
<!-- Title: process Pages: 1 -->
<svg width="528pt" height="149pt"
 viewBox="0.00 0.00 528.00 149.00" xmlns="http://www.w3.org/2000/svg" xmlns:xlink="http://www.w3.org/1999/xlink">
<g id="graph0" class="graph" transform="scale(1 1) rotate(0) translate(36 113)">
<title>process</title>
<polygon fill="#ffffff" stroke="transparent" points="-36,36 -36,-113 492,-113 492,36 -36,36"/>
<!-- n0 -->
<g id="node1" class="node">
<title>n0</title>
<path fill="#c8e6c9" stroke="black" d="M42,-77C42,-77 12,-77 12,-77 6,-77 0,-71 0,-65 0,-65 0,-53 0,-53 0,-47 6,-41 12,-41 12,-41 42,-41 42,-41 48,-41 54,-47 54,-53 54,-53 54,-65 54,-65 54,-71 48,-77 42,-77"/>
<text text-anchor="middle" x="27" y="-56.2" font-family="Helvetica" font-size="11.00">Start</text>
</g>
<!-- n1 -->
<g id="node2" class="node">
<title>n1</title>
<path fill="#e8f4f8" stroke="black" d="M200,-77C200,-77 124,-77 124,-77 118,-77 112,-71 112,-65 112,-65 112,-53 112,-53 112,-47 118,-41 124,-41 124,-41 200,-41 200,-41 206,-41 212,-47 212,-53 212,-53 212,-65 212,-65 212,-71 206,-77 200,-77"/>
<text text-anchor="middle" x="162" y="-56.2" font-family="Helvetica" font-size="11.00">AuditEndEvent</text>
</g>
<!-- n0&#45;&gt;n1 -->
<g id="edge1" class="edge">
<title>n0&#45;&gt;n1</title>
<path fill="none" stroke="#555555" d="M54.28,-59C67.88,-59 85.08,-59 101.68,-59"/>
<polygon fill="#555555" stroke="#555555" points="101.9,-62.5 111.9,-59 101.9,-55.5 101.9,-62.5"/>
</g>
<!-- n2 -->
<g id="node3" class="node">
<title>n2</title>
<path fill="#ffccbc" stroke="black" d="M444,-77C444,-77 414,-77 414,-77 408,-77 402,-71 402,-65 402,-65 402,-53 402,-53 402,-47 408,-41 414,-41 414,-41 444,-41 444,-41 450,-41 456,-47 456,-53 456,-53 456,-65 456,-65 456,-71 450,-77 444,-77"/>
<text text-anchor="middle" x="429" y="-56.2" font-family="Helvetica" font-size="11.00">End</text>
</g>
<!-- n1&#45;&gt;n2 -->
<g id="edge2" class="edge">
<title>n1&#45;&gt;n2</title>
<path fill="none" stroke="#555555" d="M212.22,-59C264.3,-59 345.23,-59 391.76,-59"/>
<polygon fill="#555555" stroke="#555555" points="391.98,-62.5 401.98,-59 391.98,-55.5 391.98,-62.5"/>
</g>
<!-- n3 -->
<g id="node4" class="node">
<title>n3</title>
<path fill="#ffcdd2" stroke="black" d="M332,-36C332,-36 282,-36 282,-36 276,-36 270,-30 270,-24 270,-24 270,-12 270,-12 270,-6 276,0 282,0 282,0 332,0 332,0 338,0 344,-6 344,-12 344,-12 344,-24 344,-24 344,-30 338,-36 332,-36"/>
<text text-anchor="middle" x="307" y="-15.2" font-family="Helvetica" font-size="11.00">Log Error</text>
</g>
<!-- n1&#45;&gt;n3 -->
<g id="edge3" class="edge">
<title>n1&#45;&gt;n3</title>
<path fill="none" stroke="#555555" d="M212.21,-44.89C227.72,-40.44 244.78,-35.55 260.05,-31.17"/>
<polygon fill="#555555" stroke="#555555" points="261.15,-34.5 269.8,-28.38 259.22,-27.77 261.15,-34.5"/>
</g>
<!-- n3&#45;&gt;n2 -->
<g id="edge4" class="edge">
<title>n3&#45;&gt;n2</title>
<path fill="none" stroke="#555555" d="M344,-30.3C359.29,-35.53 377.07,-41.6 392.33,-46.81"/>
<polygon fill="#555555" stroke="#555555" points="391.34,-50.17 401.94,-50.09 393.61,-43.55 391.34,-50.17"/>
</g>
</g>
</svg>
