<?xml version="1.0" encoding="UTF-8" standalone="no"?>
<!DOCTYPE svg PUBLIC "-//W3C//DTD SVG 1.1//EN"
 "http://www.w3.org/Graphics/SVG/1.1/DTD/svg11.dtd">
<!-- Generated by graphviz version 2.44.0 (0)
 -->
<!-- Title: process Pages: 1 -->
<svg width="525pt" height="187pt"
 viewBox="0.00 0.00 525.00 187.00" xmlns="http://www.w3.org/2000/svg" xmlns:xlink="http://www.w3.org/1999/xlink">
<g id="graph0" class="graph" transform="scale(1 1) rotate(0) translate(36 151)">
<title>process</title>
<polygon fill="#ffffff" stroke="transparent" points="-36,36 -36,-151 489,-151 489,36 -36,36"/>
<!-- n0 -->
<g id="node1" class="node">
<title>n0</title>
<path fill="#c8e6c9" stroke="black" d="M42,-36C42,-36 12,-36 12,-36 6,-36 0,-30 0,-24 0,-24 0,-12 0,-12 0,-6 6,0 12,0 12,0 42,0 42,0 48,0 54,-6 54,-12 54,-12 54,-24 54,-24 54,-30 48,-36 42,-36"/>
<text text-anchor="middle" x="27" y="-15.2" font-family="Helvetica" font-size="11.00">start</text>
</g>
<!-- n1 -->
<g id="node2" class="node">
<title>n1</title>
<path fill="#e8f4f8" stroke="black" d="M215,-36C215,-36 124,-36 124,-36 118,-36 112,-30 112,-24 112,-24 112,-12 112,-12 112,-6 118,0 124,0 124,0 215,0 215,0 221,0 227,-6 227,-12 227,-12 227,-24 227,-24 227,-30 221,-36 215,-36"/>
<text text-anchor="middle" x="169.5" y="-15.2" font-family="Helvetica" font-size="11.00">EmptyAuditCache</text>
</g>
<!-- n0&#45;&gt;n1 -->
<g id="edge1" class="edge">
<title>n0&#45;&gt;n1</title>
<path fill="none" stroke="#555555" d="M54.1,-18C67.57,-18 84.69,-18 101.55,-18"/>
<polygon fill="#555555" stroke="#555555" points="101.98,-21.5 111.98,-18 101.98,-14.5 101.98,-21.5"/>
</g>
<!-- n2 -->
<g id="node3" class="node">
<title>n2</title>
<path fill="#e8f4f8" stroke="black" d="M329,-36C329,-36 297,-36 297,-36 291,-36 285,-30 285,-24 285,-24 285,-12 285,-12 285,-6 291,0 297,0 297,0 329,0 329,0 335,0 341,-6 341,-12 341,-12 341,-24 341,-24 341,-30 335,-36 329,-36"/>
<text text-anchor="middle" x="313" y="-15.2" font-family="Helvetica" font-size="11.00">Sleep</text>
</g>
<!-- n1&#45;&gt;n2 -->
<g id="edge3" class="edge">
<title>n1&#45;&gt;n2</title>
<path fill="none" stroke="#555555" d="M227.24,-18C243.2,-18 260.15,-18 274.67,-18"/>
<polygon fill="#555555" stroke="#555555" points="274.76,-21.5 284.76,-18 274.76,-14.5 274.76,-21.5"/>
</g>
<!-- n3 -->
<g id="node4" class="node">
<title>n3</title>
<path fill="#ffccbc" stroke="black" d="M441,-36C441,-36 411,-36 411,-36 405,-36 399,-30 399,-24 399,-24 399,-12 399,-12 399,-6 405,0 411,0 411,0 441,0 441,0 447,0 453,-6 453,-12 453,-12 453,-24 453,-24 453,-30 447,-36 441,-36"/>
<text text-anchor="middle" x="426" y="-15.2" font-family="Helvetica" font-size="11.00">end</text>
</g>
<!-- n2&#45;&gt;n3 -->
<g id="edge2" class="edge">
<title>n2&#45;&gt;n3</title>
<path fill="none" stroke="#555555" d="M341.15,-18C355.44,-18 373.16,-18 388.62,-18"/>
<polygon fill="#555555" stroke="#555555" points="388.89,-21.5 398.89,-18 388.89,-14.5 388.89,-21.5"/>
</g>
<!-- n4 -->
<g id="node5" class="node">
<title>n4</title>
<path fill="#e8f4f8" stroke="black" d="M187,-115C187,-115 152,-115 152,-115 146,-115 140,-109 140,-103 140,-103 140,-91 140,-91 140,-85 146,-79 152,-79 152,-79 187,-79 187,-79 193,-79 199,-85 199,-91 199,-91 199,-103 199,-103 199,-109 193,-115 187,-115"/>
<text text-anchor="middle" x="169.5" y="-94.2" font-family="Helvetica" font-size="11.00">Group</text>
</g>
<!-- n5 -->
<g id="node6" class="node">
<title>n5</title>
<path fill="#ffccbc" stroke="black" d="M328,-115C328,-115 298,-115 298,-115 292,-115 286,-109 286,-103 286,-103 286,-91 286,-91 286,-85 292,-79 298,-79 298,-79 328,-79 328,-79 334,-79 340,-85 340,-91 340,-91 340,-103 340,-103 340,-109 334,-115 328,-115"/>
<text text-anchor="middle" x="313" y="-94.2" font-family="Helvetica" font-size="11.00">End</text>
</g>
<!-- n4&#45;&gt;n5 -->
<g id="edge4" class="edge">
<title>n4&#45;&gt;n5</title>
<path fill="none" stroke="#555555" d="M199.13,-97C221.22,-97 251.92,-97 275.73,-97"/>
<polygon fill="#555555" stroke="#555555" points="275.79,-100.5 285.79,-97 275.79,-93.5 275.79,-100.5"/>
</g>
<!-- n6 -->
<g id="node7" class="node">
<title>n6</title>
<path fill="#c8e6c9" stroke="black" d="M42,-115C42,-115 12,-115 12,-115 6,-115 0,-109 0,-103 0,-103 0,-91 0,-91 0,-85 6,-79 12,-79 12,-79 42,-79 42,-79 48,-79 54,-85 54,-91 54,-91 54,-103 54,-103 54,-109 48,-115 42,-115"/>
<text text-anchor="middle" x="27" y="-94.2" font-family="Helvetica" font-size="11.00">Start</text>
</g>
<!-- n6&#45;&gt;n4 -->
<g id="edge5" class="edge">
<title>n6&#45;&gt;n4</title>
<path fill="none" stroke="#555555" d="M54.1,-97C75.25,-97 105.39,-97 129.42,-97"/>
<polygon fill="#555555" stroke="#555555" points="129.64,-100.5 139.64,-97 129.64,-93.5 129.64,-100.5"/>
</g>
</g>
</svg>
