<?xml version="1.0" encoding="UTF-8" standalone="no"?>
<!DOCTYPE svg PUBLIC "-//W3C//DTD SVG 1.1//EN"
 "http://www.w3.org/Graphics/SVG/1.1/DTD/svg11.dtd">
<!-- Generated by graphviz version 2.44.0 (0)
 -->
<!-- Title: process Pages: 1 -->
<svg width="1139pt" height="507pt"
 viewBox="0.00 0.00 1139.00 507.00" xmlns="http://www.w3.org/2000/svg" xmlns:xlink="http://www.w3.org/1999/xlink">
<g id="graph0" class="graph" transform="scale(1 1) rotate(0) translate(36 471)">
<title>process</title>
<polygon fill="#ffffff" stroke="transparent" points="-36,36 -36,-471 1103,-471 1103,36 -36,36"/>
<!-- n0 -->
<g id="node1" class="node">
<title>n0</title>
<path fill="#c8e6c9" stroke="black" d="M42,-77C42,-77 12,-77 12,-77 6,-77 0,-71 0,-65 0,-65 0,-53 0,-53 0,-47 6,-41 12,-41 12,-41 42,-41 42,-41 48,-41 54,-47 54,-53 54,-53 54,-65 54,-65 54,-71 48,-77 42,-77"/>
<text text-anchor="middle" x="27" y="-56.2" font-family="Helvetica" font-size="11.00">start</text>
</g>
<!-- n1 -->
<g id="node2" class="node">
<title>n1</title>
<path fill="#e8f4f8" stroke="black" d="M192.5,-117C192.5,-117 134.5,-117 134.5,-117 128.5,-117 122.5,-111 122.5,-105 122.5,-105 122.5,-93 122.5,-93 122.5,-87 128.5,-81 134.5,-81 134.5,-81 192.5,-81 192.5,-81 198.5,-81 204.5,-87 204.5,-93 204.5,-93 204.5,-105 204.5,-105 204.5,-111 198.5,-117 192.5,-117"/>
<text text-anchor="middle" x="163.5" y="-96.2" font-family="Helvetica" font-size="11.00">Parse XML</text>
</g>
<!-- n0&#45;&gt;n1 -->
<g id="edge1" class="edge">
<title>n0&#45;&gt;n1</title>
<path fill="none" stroke="#555555" d="M54.25,-66.81C70.8,-71.73 92.7,-78.24 112.47,-84.12"/>
<polygon fill="#555555" stroke="#555555" points="111.69,-87.54 122.27,-87.04 113.69,-80.83 111.69,-87.54"/>
</g>
<!-- n10 -->
<g id="node3" class="node">
<title>n10</title>
<path fill="#e8f4f8" stroke="black" d="M203,-36C203,-36 124,-36 124,-36 118,-36 112,-30 112,-24 112,-24 112,-12 112,-12 112,-6 118,0 124,0 124,0 203,0 203,0 209,0 215,-6 215,-12 215,-12 215,-24 215,-24 215,-30 209,-36 203,-36"/>
<text text-anchor="middle" x="163.5" y="-15.2" font-family="Helvetica" font-size="11.00">Transform XML</text>
</g>
<!-- n0&#45;&gt;n10 -->
<g id="edge11" class="edge">
<title>n0&#45;&gt;n10</title>
<path fill="none" stroke="#555555" d="M54.25,-51C67.93,-46.83 85.26,-41.54 102.03,-36.43"/>
<polygon fill="#555555" stroke="#555555" points="103.26,-39.72 111.8,-33.45 101.22,-33.02 103.26,-39.72"/>
</g>
<!-- n5 -->
<g id="node13" class="node">
<title>n5</title>
<path fill="#ffccbc" stroke="black" d="M373.5,-196C373.5,-196 290.5,-196 290.5,-196 284.5,-196 278.5,-190 278.5,-184 278.5,-184 278.5,-172 278.5,-172 278.5,-166 284.5,-160 290.5,-160 290.5,-160 373.5,-160 373.5,-160 379.5,-160 385.5,-166 385.5,-172 385.5,-172 385.5,-184 385.5,-184 385.5,-190 379.5,-196 373.5,-196"/>
<text text-anchor="middle" x="332" y="-175.2" font-family="Helvetica" font-size="11.00">Parse Response</text>
</g>
<!-- n1&#45;&gt;n5 -->
<g id="edge4" class="edge">
<title>n1&#45;&gt;n5</title>
<path fill="none" stroke="#555555" d="M202.7,-117.12C226.81,-128.57 258.14,-143.43 283.8,-155.61"/>
<polygon fill="#555555" stroke="#555555" points="282.44,-158.84 292.98,-159.96 285.45,-152.51 282.44,-158.84"/>
</g>
<!-- n7 -->
<g id="node15" class="node">
<title>n7</title>
<path fill="#ffccbc" stroke="black" d="M377,-117C377,-117 287,-117 287,-117 281,-117 275,-111 275,-105 275,-105 275,-93 275,-93 275,-87 281,-81 287,-81 287,-81 377,-81 377,-81 383,-81 389,-87 389,-93 389,-93 389,-105 389,-105 389,-111 383,-117 377,-117"/>
<text text-anchor="middle" x="332" y="-96.2" font-family="Helvetica" font-size="11.00">Parse Reply Error</text>
</g>
<!-- n1&#45;&gt;n7 -->
<g id="edge7" class="edge">
<title>n1&#45;&gt;n7</title>
<path fill="none" stroke="#555555" d="M204.81,-99C222.75,-99 244.37,-99 264.6,-99"/>
<polygon fill="#555555" stroke="#555555" points="264.71,-102.5 274.71,-99 264.71,-95.5 264.71,-102.5"/>
</g>
<!-- n11 -->
<g id="node4" class="node">
<title>n11</title>
<path fill="#e8f4f8" stroke="black" d="M896.5,-76C896.5,-76 849.5,-76 849.5,-76 843.5,-76 837.5,-70 837.5,-64 837.5,-64 837.5,-52 837.5,-52 837.5,-46 843.5,-40 849.5,-40 849.5,-40 896.5,-40 896.5,-40 902.5,-40 908.5,-46 908.5,-52 908.5,-52 908.5,-64 908.5,-64 908.5,-70 902.5,-76 896.5,-76"/>
<text text-anchor="middle" x="873" y="-55.2" font-family="Helvetica" font-size="11.00">Assign&#45;1</text>
</g>
<!-- n10&#45;&gt;n11 -->
<g id="edge13" class="edge">
<title>n10&#45;&gt;n11</title>
<path fill="none" stroke="#555555" d="M215.1,-20.86C347.37,-28.34 701.89,-48.38 827.29,-55.47"/>
<polygon fill="#555555" stroke="#555555" points="827.13,-58.97 837.31,-56.04 827.53,-51.98 827.13,-58.97"/>
</g>
<!-- n3 -->
<g id="node11" class="node">
<title>n3</title>
<path fill="#ffccbc" stroke="black" d="M1055,-196C1055,-196 1025,-196 1025,-196 1019,-196 1013,-190 1013,-184 1013,-184 1013,-172 1013,-172 1013,-166 1019,-160 1025,-160 1025,-160 1055,-160 1055,-160 1061,-160 1067,-166 1067,-172 1067,-172 1067,-184 1067,-184 1067,-190 1061,-196 1055,-196"/>
<text text-anchor="middle" x="1040" y="-175.2" font-family="Helvetica" font-size="11.00">end</text>
</g>
<!-- n11&#45;&gt;n3 -->
<g id="edge12" class="edge">
<title>n11&#45;&gt;n3</title>
<path fill="none" stroke="#555555" d="M899.06,-76.23C927.57,-96.96 974.26,-130.91 1005.78,-153.84"/>
<polygon fill="#555555" stroke="#555555" points="1004.1,-156.95 1014.24,-160 1008.22,-151.28 1004.1,-156.95"/>
</g>
<!-- n12 -->
<g id="node5" class="node">
<title>n12</title>
<path fill="#c8e6c9" stroke="black" d="M42,-395C42,-395 12,-395 12,-395 6,-395 0,-389 0,-383 0,-383 0,-371 0,-371 0,-365 6,-359 12,-359 12,-359 42,-359 42,-359 48,-359 54,-365 54,-371 54,-371 54,-383 54,-383 54,-389 48,-395 42,-395"/>
<text text-anchor="middle" x="27" y="-374.2" font-family="Helvetica" font-size="11.00">Start</text>
</g>
<!-- n13 -->
<g id="node6" class="node">
<title>n13</title>
<path fill="#e8f4f8" stroke="black" d="M182,-395C182,-395 145,-395 145,-395 139,-395 133,-389 133,-383 133,-383 133,-371 133,-371 133,-365 139,-359 145,-359 145,-359 182,-359 182,-359 188,-359 194,-365 194,-371 194,-371 194,-383 194,-383 194,-389 188,-395 182,-395"/>
<text text-anchor="middle" x="163.5" y="-374.2" font-family="Helvetica" font-size="11.00">Assign</text>
</g>
<!-- n12&#45;&gt;n13 -->
<g id="edge14" class="edge">
<title>n12&#45;&gt;n13</title>
<path fill="none" stroke="#555555" d="M54.25,-377C73.66,-377 100.42,-377 122.48,-377"/>
<polygon fill="#555555" stroke="#555555" points="122.56,-380.5 132.56,-377 122.56,-373.5 122.56,-380.5"/>
</g>
<!-- n14 -->
<g id="node7" class="node">
<title>n14</title>
<path fill="#ffccbc" stroke="black" d="M379,-395C379,-395 285,-395 285,-395 279,-395 273,-389 273,-383 273,-383 273,-371 273,-371 273,-365 279,-359 285,-359 285,-359 379,-359 379,-359 385,-359 391,-365 391,-371 391,-371 391,-383 391,-383 391,-389 385,-395 379,-395"/>
<text text-anchor="middle" x="332" y="-374.2" font-family="Helvetica" font-size="11.00">Validate Response</text>
</g>
<!-- n13&#45;&gt;n14 -->
<g id="edge15" class="edge">
<title>n13&#45;&gt;n14</title>
<path fill="none" stroke="#555555" d="M194.27,-377C213.34,-377 238.9,-377 262.76,-377"/>
<polygon fill="#555555" stroke="#555555" points="262.86,-380.5 272.86,-377 262.86,-373.5 262.86,-380.5"/>
</g>
<!-- n15 -->
<g id="node8" class="node">
<title>n15</title>
<path fill="#ffccbc" stroke="black" d="M514.5,-435C514.5,-435 484.5,-435 484.5,-435 478.5,-435 472.5,-429 472.5,-423 472.5,-423 472.5,-411 472.5,-411 472.5,-405 478.5,-399 484.5,-399 484.5,-399 514.5,-399 514.5,-399 520.5,-399 526.5,-405 526.5,-411 526.5,-411 526.5,-423 526.5,-423 526.5,-429 520.5,-435 514.5,-435"/>
<text text-anchor="middle" x="499.5" y="-414.2" font-family="Helvetica" font-size="11.00">End</text>
</g>
<!-- n14&#45;&gt;n15 -->
<g id="edge16" class="edge">
<title>n14&#45;&gt;n15</title>
<path fill="none" stroke="#555555" d="M391.35,-391.1C414.91,-396.8 441.38,-403.19 462.11,-408.21"/>
<polygon fill="#555555" stroke="#555555" points="461.54,-411.67 472.09,-410.62 463.19,-404.86 461.54,-411.67"/>
</g>
<!-- n16 -->
<g id="node9" class="node">
<title>n16</title>
<path fill="#ffcdd2" stroke="black" d="M538,-356C538,-356 461,-356 461,-356 455,-356 449,-350 449,-344 449,-344 449,-332 449,-332 449,-326 455,-320 461,-320 461,-320 538,-320 538,-320 544,-320 550,-326 550,-332 550,-332 550,-344 550,-344 550,-350 544,-356 538,-356"/>
<text text-anchor="middle" x="499.5" y="-335.2" font-family="Helvetica" font-size="11.00">Generate Error</text>
</g>
<!-- n14&#45;&gt;n16 -->
<g id="edge17" class="edge">
<title>n14&#45;&gt;n16</title>
<path fill="none" stroke="#555555" d="M391.35,-363.25C406.77,-359.62 423.43,-355.69 438.92,-352.04"/>
<polygon fill="#555555" stroke="#555555" points="439.97,-355.39 448.9,-349.69 438.36,-348.58 439.97,-355.39"/>
</g>
<!-- n2 -->
<g id="node10" class="node">
<title>n2</title>
<path fill="#e8f4f8" stroke="black" d="M943,-196C943,-196 803,-196 803,-196 797,-196 791,-190 791,-184 791,-184 791,-172 791,-172 791,-166 797,-160 803,-160 803,-160 943,-160 943,-160 949,-160 955,-166 955,-172 955,-172 955,-184 955,-184 955,-190 949,-196 943,-196"/>
<text text-anchor="middle" x="873" y="-175.2" font-family="Helvetica" font-size="11.00">Remove Unknown Elements</text>
</g>
<!-- n2&#45;&gt;n3 -->
<g id="edge2" class="edge">
<title>n2&#45;&gt;n3</title>
<path fill="none" stroke="#555555" d="M955.05,-178C971.68,-178 988.38,-178 1002.46,-178"/>
<polygon fill="#555555" stroke="#555555" points="1002.67,-181.5 1012.67,-178 1002.67,-174.5 1002.67,-181.5"/>
</g>
<!-- n4 -->
<g id="node12" class="node">
<title>n4</title>
<path fill="#e8f4f8" stroke="black" d="M527.5,-277C527.5,-277 471.5,-277 471.5,-277 465.5,-277 459.5,-271 459.5,-265 459.5,-265 459.5,-253 459.5,-253 459.5,-247 465.5,-241 471.5,-241 471.5,-241 527.5,-241 527.5,-241 533.5,-241 539.5,-247 539.5,-253 539.5,-253 539.5,-265 539.5,-265 539.5,-271 533.5,-277 527.5,-277"/>
<text text-anchor="middle" x="499.5" y="-256.2" font-family="Helvetica" font-size="11.00">Assign&#45;1&#45;1</text>
</g>
<!-- n4&#45;&gt;n3 -->
<g id="edge3" class="edge">
<title>n4&#45;&gt;n3</title>
<path fill="none" stroke="#555555" d="M539.62,-260.06C619.33,-261.24 805.61,-258.89 955,-218 971.61,-213.45 988.96,-205.75 1003.55,-198.32"/>
<polygon fill="#555555" stroke="#555555" points="1005.48,-201.25 1012.7,-193.5 1002.22,-195.06 1005.48,-201.25"/>
</g>
<!-- n5&#45;&gt;n4 -->
<g id="edge6" class="edge">
<title>n5&#45;&gt;n4</title>
<path fill="none" stroke="#555555" d="M370.14,-196.18C394.42,-208.06 426.31,-223.67 452.23,-236.35"/>
<polygon fill="#555555" stroke="#555555" points="450.96,-239.63 461.48,-240.88 454.04,-233.34 450.96,-239.63"/>
</g>
<!-- n6 -->
<g id="node14" class="node">
<title>n6</title>
<path fill="#e8f4f8" stroke="black" d="M523,-196C523,-196 476,-196 476,-196 470,-196 464,-190 464,-184 464,-184 464,-172 464,-172 464,-166 470,-160 476,-160 476,-160 523,-160 523,-160 529,-160 535,-166 535,-172 535,-172 535,-184 535,-184 535,-190 529,-196 523,-196"/>
<text text-anchor="middle" x="499.5" y="-175.2" font-family="Helvetica" font-size="11.00">Assign&#45;2</text>
</g>
<!-- n5&#45;&gt;n6 -->
<g id="edge5" class="edge">
<title>n5&#45;&gt;n6</title>
<path fill="none" stroke="#555555" d="M385.82,-178C407.67,-178 432.74,-178 453.67,-178"/>
<polygon fill="#555555" stroke="#555555" points="453.9,-181.5 463.9,-178 453.9,-174.5 453.9,-181.5"/>
</g>
<!-- n8 -->
<g id="node16" class="node">
<title>n8</title>
<path fill="#e8f4f8" stroke="black" d="M696,-196C696,-196 645,-196 645,-196 639,-196 633,-190 633,-184 633,-184 633,-172 633,-172 633,-166 639,-160 645,-160 645,-160 696,-160 696,-160 702,-160 708,-166 708,-172 708,-172 708,-184 708,-184 708,-190 702,-196 696,-196"/>
<text text-anchor="middle" x="670.5" y="-175.2" font-family="Helvetica" font-size="11.00">Map Data</text>
</g>
<!-- n6&#45;&gt;n8 -->
<g id="edge9" class="edge">
<title>n6&#45;&gt;n8</title>
<path fill="none" stroke="#555555" d="M535.11,-178C560.37,-178 594.9,-178 622.63,-178"/>
<polygon fill="#555555" stroke="#555555" points="622.89,-181.5 632.89,-178 622.89,-174.5 622.89,-181.5"/>
</g>
<!-- n9 -->
<g id="node17" class="node">
<title>n9</title>
<path fill="#ffccbc" stroke="black" d="M721,-117C721,-117 620,-117 620,-117 614,-117 608,-111 608,-105 608,-105 608,-93 608,-93 608,-87 614,-81 620,-81 620,-81 721,-81 721,-81 727,-81 733,-87 733,-93 733,-93 733,-105 733,-105 733,-111 727,-117 721,-117"/>
<text text-anchor="middle" x="670.5" y="-96.2" font-family="Helvetica" font-size="11.00">Parse&#45;Reply&#45;Error&#45;1</text>
</g>
<!-- n6&#45;&gt;n9 -->
<g id="edge10" class="edge">
<title>n6&#45;&gt;n9</title>
<path fill="none" stroke="#555555" d="M535.11,-161.82C560.09,-150.14 594.15,-134.22 621.73,-121.33"/>
<polygon fill="#555555" stroke="#555555" points="623.23,-124.49 630.81,-117.09 620.27,-118.15 623.23,-124.49"/>
</g>
<!-- n8&#45;&gt;n2 -->
<g id="edge8" class="edge">
<title>n8&#45;&gt;n2</title>
<path fill="none" stroke="#555555" d="M708.27,-178C728.73,-178 755.19,-178 780.84,-178"/>
<polygon fill="#555555" stroke="#555555" points="781,-181.5 791,-178 781,-174.5 781,-181.5"/>
</g>
</g>
</svg>
