<?xml version="1.0" encoding="UTF-8" standalone="no"?>
<!DOCTYPE svg PUBLIC "-//W3C//DTD SVG 1.1//EN"
 "http://www.w3.org/Graphics/SVG/1.1/DTD/svg11.dtd">
<!-- Generated by graphviz version 2.44.0 (0)
 -->
<!-- Title: process Pages: 1 -->
<svg width="1294pt" height="343pt"
 viewBox="0.00 0.00 1294.00 343.16" xmlns="http://www.w3.org/2000/svg" xmlns:xlink="http://www.w3.org/1999/xlink">
<g id="graph0" class="graph" transform="scale(1 1) rotate(0) translate(36 307.16)">
<title>process</title>
<polygon fill="#ffffff" stroke="transparent" points="-36,36 -36,-307.16 1258,-307.16 1258,36 -36,36"/>
<!-- n0 -->
<g id="node1" class="node">
<title>n0</title>
<path fill="#e8f4f8" stroke="black" d="M356,-119C356,-119 265,-119 265,-119 259,-119 253,-113 253,-107 253,-107 253,-95 253,-95 253,-89 259,-83 265,-83 265,-83 356,-83 356,-83 362,-83 368,-89 368,-95 368,-95 368,-107 368,-107 368,-113 362,-119 356,-119"/>
<text text-anchor="middle" x="310.5" y="-98.2" font-family="Helvetica" font-size="11.00">GetEncryptionKey</text>
</g>
<!-- n1 -->
<g id="node2" class="node">
<title>n1</title>
<path fill="#e8f4f8" stroke="black" d="M694,-119C694,-119 579,-119 579,-119 573,-119 567,-113 567,-107 567,-107 567,-95 567,-95 567,-89 573,-83 579,-83 579,-83 694,-83 694,-83 700,-83 706,-89 706,-95 706,-95 706,-107 706,-107 706,-113 700,-119 694,-119"/>
<text text-anchor="middle" x="636.5" y="-98.2" font-family="Helvetica" font-size="11.00">GetEncryptionKeyLoad</text>
</g>
<!-- n0&#45;&gt;n1 -->
<g id="edge1" class="edge">
<title>n0&#45;&gt;n1</title>
<path fill="none" stroke="#555555" d="M368.31,-101C420.53,-101 498.43,-101 556.67,-101"/>
<polygon fill="#555555" stroke="#555555" points="556.94,-104.5 566.94,-101 556.94,-97.5 556.94,-104.5"/>
</g>
<!-- n2 -->
<g id="node3" class="node">
<title>n2</title>
<path fill="#e8f4f8" stroke="black" d="M497,-36C497,-36 438,-36 438,-36 432,-36 426,-30 426,-24 426,-24 426,-12 426,-12 426,-6 432,0 438,0 438,0 497,0 497,0 503,0 509,-6 509,-12 509,-12 509,-24 509,-24 509,-30 503,-36 497,-36"/>
<text text-anchor="middle" x="467.5" y="-15.2" font-family="Helvetica" font-size="11.00">WriteToLog</text>
</g>
<!-- n0&#45;&gt;n2 -->
<g id="edge2" class="edge">
<title>n0&#45;&gt;n2</title>
<path fill="none" stroke="#555555" d="M345.13,-82.99C368.21,-70.63 399.02,-54.13 423.82,-40.85"/>
<polygon fill="#555555" stroke="#555555" points="425.5,-43.92 432.67,-36.12 422.2,-37.75 425.5,-43.92"/>
</g>
<!-- n3 -->
<g id="node4" class="node">
<title>n3</title>
<path fill="#e8f4f8" stroke="black" d="M835,-206C835,-206 776,-206 776,-206 770,-206 764,-200 764,-194 764,-194 764,-182 764,-182 764,-176 770,-170 776,-170 776,-170 835,-170 835,-170 841,-170 847,-176 847,-182 847,-182 847,-194 847,-194 847,-200 841,-206 835,-206"/>
<text text-anchor="middle" x="805.5" y="-185.2" font-family="Helvetica" font-size="11.00">Extract Key</text>
</g>
<!-- n0&#45;&gt;n3 -->
<g id="edge7" class="edge">
<title>n0&#45;&gt;n3</title>
<path fill="none" stroke="#555555" d="M368.22,-118.4C386.54,-123.6 407.02,-128.99 426,-133 542.1,-157.55 680.56,-174.63 753.58,-182.7"/>
<polygon fill="#555555" stroke="#555555" points="753.55,-186.22 763.87,-183.83 754.31,-179.26 753.55,-186.22"/>
</g>
<!-- n1&#45;&gt;n3 -->
<g id="edge6" class="edge">
<title>n1&#45;&gt;n3</title>
<path fill="none" stroke="#555555" d="M672.1,-119.03C697.85,-132.44 733.18,-150.85 760.87,-165.27"/>
<polygon fill="#555555" stroke="#555555" points="759.46,-168.48 769.94,-170 762.69,-162.27 759.46,-168.48"/>
</g>
<!-- n4 -->
<g id="node5" class="node">
<title>n4</title>
<path fill="#ffccbc" stroke="black" d="M1210,-202C1210,-202 1180,-202 1180,-202 1174,-202 1168,-196 1168,-190 1168,-190 1168,-178 1168,-178 1168,-172 1174,-166 1180,-166 1180,-166 1210,-166 1210,-166 1216,-166 1222,-172 1222,-178 1222,-178 1222,-190 1222,-190 1222,-196 1216,-202 1210,-202"/>
<text text-anchor="middle" x="1195" y="-181.2" font-family="Helvetica" font-size="11.00">End</text>
</g>
<!-- n1&#45;&gt;n4 -->
<g id="edge14" class="edge">
<title>n1&#45;&gt;n4</title>
<path fill="none" stroke="#555555" d="M706.08,-100.13C799.18,-100.58 970.02,-107.2 1110,-145 1126.55,-149.47 1143.89,-156.98 1158.49,-164.23"/>
<polygon fill="#555555" stroke="#555555" points="1157.15,-167.48 1167.65,-168.92 1160.34,-161.25 1157.15,-167.48"/>
</g>
<!-- n2&#45;&gt;n1 -->
<g id="edge13" class="edge">
<title>n2&#45;&gt;n1</title>
<path fill="none" stroke="#555555" d="M504.74,-36.01C529.71,-48.42 563.09,-65.01 589.87,-78.32"/>
<polygon fill="#555555" stroke="#555555" points="588.53,-81.57 599.05,-82.88 591.65,-75.3 588.53,-81.57"/>
</g>
<!-- n2&#45;&gt;n4 -->
<g id="edge8" class="edge">
<title>n2&#45;&gt;n4</title>
<path fill="none" stroke="#555555" d="M509.1,-17.2C572.26,-16.04 697.89,-14 804.5,-14 804.5,-14 804.5,-14 933,-14 1037.28,-14 1132.56,-110.47 1173.22,-158.07"/>
<polygon fill="#555555" stroke="#555555" points="1170.61,-160.4 1179.72,-165.81 1175.97,-155.9 1170.61,-160.4"/>
</g>
<!-- n3&#45;&gt;n4 -->
<g id="edge3" class="edge">
<title>n3&#45;&gt;n4</title>
<path fill="none" stroke="#555555" d="M835.72,-206.04C890.74,-237.58 1012.93,-296.03 1110,-259 1135.82,-249.15 1158.74,-227.31 1174.08,-209.73"/>
<polygon fill="#555555" stroke="#555555" points="1176.82,-211.91 1180.59,-202.01 1171.47,-207.4 1176.82,-211.91"/>
</g>
<!-- n5 -->
<g id="node6" class="node">
<title>n5</title>
<path fill="#e8f4f8" stroke="black" d="M947,-206C947,-206 917,-206 917,-206 911,-206 905,-200 905,-194 905,-194 905,-182 905,-182 905,-176 911,-170 917,-170 917,-170 947,-170 947,-170 953,-170 959,-176 959,-182 959,-182 959,-194 959,-194 959,-200 953,-206 947,-206"/>
<text text-anchor="middle" x="932" y="-185.2" font-family="Helvetica" font-size="11.00">Null</text>
</g>
<!-- n3&#45;&gt;n5 -->
<g id="edge4" class="edge">
<title>n3&#45;&gt;n5</title>
<path fill="none" stroke="#555555" d="M847.27,-188C862.45,-188 879.57,-188 894.36,-188"/>
<polygon fill="#555555" stroke="#555555" points="894.65,-191.5 904.65,-188 894.65,-184.5 894.65,-191.5"/>
</g>
<!-- n5&#45;&gt;n4 -->
<g id="edge11" class="edge">
<title>n5&#45;&gt;n4</title>
<path fill="none" stroke="#555555" d="M959.33,-202.56C975.45,-210.63 996.8,-219.85 1017,-224 1057.49,-232.31 1069.68,-233.11 1110,-224 1126.8,-220.2 1144.18,-212.63 1158.74,-205.08"/>
<polygon fill="#555555" stroke="#555555" points="1160.72,-207.99 1167.87,-200.17 1157.41,-201.83 1160.72,-207.99"/>
</g>
<!-- n8 -->
<g id="node9" class="node">
<title>n8</title>
<path fill="#e8f4f8" stroke="black" d="M1098,-202C1098,-202 1029,-202 1029,-202 1023,-202 1017,-196 1017,-190 1017,-190 1017,-178 1017,-178 1017,-172 1023,-166 1029,-166 1029,-166 1098,-166 1098,-166 1104,-166 1110,-172 1110,-178 1110,-178 1110,-190 1110,-190 1110,-196 1104,-202 1098,-202"/>
<text text-anchor="middle" x="1063.5" y="-181.2" font-family="Helvetica" font-size="11.00">WriteWarning</text>
</g>
<!-- n5&#45;&gt;n8 -->
<g id="edge10" class="edge">
<title>n5&#45;&gt;n8</title>
<path fill="none" stroke="#555555" d="M959.21,-187.19C972.92,-186.77 990.25,-186.23 1006.78,-185.72"/>
<polygon fill="#555555" stroke="#555555" points="1007.05,-189.21 1016.93,-185.41 1006.83,-182.22 1007.05,-189.21"/>
</g>
<!-- n6 -->
<g id="node7" class="node">
<title>n6</title>
<path fill="#c8e6c9" stroke="black" d="M42,-119C42,-119 12,-119 12,-119 6,-119 0,-113 0,-107 0,-107 0,-95 0,-95 0,-89 6,-83 12,-83 12,-83 42,-83 42,-83 48,-83 54,-89 54,-95 54,-95 54,-107 54,-107 54,-113 48,-119 42,-119"/>
<text text-anchor="middle" x="27" y="-98.2" font-family="Helvetica" font-size="11.00">Start</text>
</g>
<!-- n7 -->
<g id="node8" class="node">
<title>n7</title>
<path fill="#e8f4f8" stroke="black" d="M183,-119C183,-119 124,-119 124,-119 118,-119 112,-113 112,-107 112,-107 112,-95 112,-95 112,-89 118,-83 124,-83 124,-83 183,-83 183,-83 189,-83 195,-89 195,-95 195,-95 195,-107 195,-107 195,-113 189,-119 183,-119"/>
<text text-anchor="middle" x="153.5" y="-98.2" font-family="Helvetica" font-size="11.00">UpperCase</text>
</g>
<!-- n6&#45;&gt;n7 -->
<g id="edge5" class="edge">
<title>n6&#45;&gt;n7</title>
<path fill="none" stroke="#555555" d="M54.1,-101C67.92,-101 85.37,-101 101.73,-101"/>
<polygon fill="#555555" stroke="#555555" points="101.73,-104.5 111.73,-101 101.73,-97.5 101.73,-104.5"/>
</g>
<!-- n7&#45;&gt;n0 -->
<g id="edge12" class="edge">
<title>n7&#45;&gt;n0</title>
<path fill="none" stroke="#555555" d="M195.22,-101C209.65,-101 226.28,-101 242.31,-101"/>
<polygon fill="#555555" stroke="#555555" points="242.73,-104.5 252.73,-101 242.73,-97.5 242.73,-104.5"/>
</g>
<!-- n8&#45;&gt;n4 -->
<g id="edge9" class="edge">
<title>n8&#45;&gt;n4</title>
<path fill="none" stroke="#555555" d="M1110.16,-184C1125.74,-184 1142.95,-184 1157.7,-184"/>
<polygon fill="#555555" stroke="#555555" points="1157.95,-187.5 1167.95,-184 1157.95,-180.5 1157.95,-187.5"/>
</g>
</g>
</svg>
