<?xml version="1.0" encoding="UTF-8" standalone="no"?>
<!DOCTYPE svg PUBLIC "-//W3C//DTD SVG 1.1//EN"
 "http://www.w3.org/Graphics/SVG/1.1/DTD/svg11.dtd">
<!-- Generated by graphviz version 2.44.0 (0)
 -->
<!-- Title: process Pages: 1 -->
<svg width="1089pt" height="226pt"
 viewBox="0.00 0.00 1089.00 226.00" xmlns="http://www.w3.org/2000/svg" xmlns:xlink="http://www.w3.org/1999/xlink">
<g id="graph0" class="graph" transform="scale(1 1) rotate(0) translate(36 190)">
<title>process</title>
<polygon fill="#ffffff" stroke="transparent" points="-36,36 -36,-190 1053,-190 1053,36 -36,36"/>
<!-- n0 -->
<g id="node1" class="node">
<title>n0</title>
<path fill="#c8e6c9" stroke="black" d="M42,-36C42,-36 12,-36 12,-36 6,-36 0,-30 0,-24 0,-24 0,-12 0,-12 0,-6 6,0 12,0 12,0 42,0 42,0 48,0 54,-6 54,-12 54,-12 54,-24 54,-24 54,-30 48,-36 42,-36"/>
<text text-anchor="middle" x="27" y="-15.2" font-family="Helvetica" font-size="11.00">start</text>
</g>
<!-- n1 -->
<g id="node2" class="node">
<title>n1</title>
<path fill="#e8f4f8" stroke="black" d="M240,-36C240,-36 124,-36 124,-36 118,-36 112,-30 112,-24 112,-24 112,-12 112,-12 112,-6 118,0 124,0 124,0 240,0 240,0 246,0 252,-6 252,-12 252,-12 252,-24 252,-24 252,-30 246,-36 240,-36"/>
<text text-anchor="middle" x="182" y="-15.2" font-family="Helvetica" font-size="11.00">Get Expiration from DB</text>
</g>
<!-- n0&#45;&gt;n1 -->
<g id="edge1" class="edge">
<title>n0&#45;&gt;n1</title>
<path fill="none" stroke="#555555" d="M54.3,-18C67.66,-18 84.67,-18 101.86,-18"/>
<polygon fill="#555555" stroke="#555555" points="101.97,-21.5 111.97,-18 101.97,-14.5 101.97,-21.5"/>
</g>
<!-- n2 -->
<g id="node6" class="node">
<title>n2</title>
<path fill="#e8f4f8" stroke="black" d="M376,-36C376,-36 345,-36 345,-36 339,-36 333,-30 333,-24 333,-24 333,-12 333,-12 333,-6 339,0 345,0 345,0 376,0 376,0 382,0 388,-6 388,-12 388,-12 388,-24 388,-24 388,-30 382,-36 376,-36"/>
<text text-anchor="middle" x="360.5" y="-15.2" font-family="Helvetica" font-size="11.00">Store</text>
</g>
<!-- n1&#45;&gt;n2 -->
<g id="edge3" class="edge">
<title>n1&#45;&gt;n2</title>
<path fill="none" stroke="#555555" d="M252.25,-18C276.27,-18 302.25,-18 322.63,-18"/>
<polygon fill="#555555" stroke="#555555" points="322.73,-21.5 332.73,-18 322.73,-14.5 322.73,-21.5"/>
</g>
<!-- n10 -->
<g id="node3" class="node">
<title>n10</title>
<path fill="#ffcdd2" stroke="black" d="M1005,-75C1005,-75 928,-75 928,-75 922,-75 916,-69 916,-63 916,-63 916,-51 916,-51 916,-45 922,-39 928,-39 928,-39 1005,-39 1005,-39 1011,-39 1017,-45 1017,-51 1017,-51 1017,-63 1017,-63 1017,-69 1011,-75 1005,-75"/>
<text text-anchor="middle" x="966.5" y="-54.2" font-family="Helvetica" font-size="11.00">Generate Error</text>
</g>
<!-- n11 -->
<g id="node4" class="node">
<title>n11</title>
<path fill="#c8e6c9" stroke="black" d="M399,-115C399,-115 322,-115 322,-115 316,-115 310,-109 310,-103 310,-103 310,-91 310,-91 310,-85 316,-79 322,-79 322,-79 399,-79 399,-79 405,-79 411,-85 411,-91 411,-91 411,-103 411,-103 411,-109 405,-115 399,-115"/>
<text text-anchor="middle" x="360.5" y="-94.2" font-family="Helvetica" font-size="11.00">Start Log Audit</text>
</g>
<!-- n6 -->
<g id="node10" class="node">
<title>n6</title>
<path fill="#ffcdd2" stroke="black" d="M543,-115C543,-115 481,-115 481,-115 475,-115 469,-109 469,-103 469,-103 469,-91 469,-91 469,-85 475,-79 481,-79 481,-79 543,-79 543,-79 549,-79 555,-85 555,-91 555,-91 555,-103 555,-103 555,-109 549,-115 543,-115"/>
<text text-anchor="middle" x="512" y="-94.2" font-family="Helvetica" font-size="11.00">Error Group</text>
</g>
<!-- n11&#45;&gt;n6 -->
<g id="edge10" class="edge">
<title>n11&#45;&gt;n6</title>
<path fill="none" stroke="#555555" d="M411.28,-97C426.46,-97 443.2,-97 458.55,-97"/>
<polygon fill="#555555" stroke="#555555" points="458.93,-100.5 468.93,-97 458.93,-93.5 458.93,-100.5"/>
</g>
<!-- n12 -->
<g id="node5" class="node">
<title>n12</title>
<path fill="#ffccbc" stroke="black" d="M837.5,-154C837.5,-154 807.5,-154 807.5,-154 801.5,-154 795.5,-148 795.5,-142 795.5,-142 795.5,-130 795.5,-130 795.5,-124 801.5,-118 807.5,-118 807.5,-118 837.5,-118 837.5,-118 843.5,-118 849.5,-124 849.5,-130 849.5,-130 849.5,-142 849.5,-142 849.5,-148 843.5,-154 837.5,-154"/>
<text text-anchor="middle" x="822.5" y="-133.2" font-family="Helvetica" font-size="11.00">End</text>
</g>
<!-- n3 -->
<g id="node7" class="node">
<title>n3</title>
<path fill="#ffccbc" stroke="black" d="M527,-36C527,-36 497,-36 497,-36 491,-36 485,-30 485,-24 485,-24 485,-12 485,-12 485,-6 491,0 497,0 497,0 527,0 527,0 533,0 539,-6 539,-12 539,-12 539,-24 539,-24 539,-30 533,-36 527,-36"/>
<text text-anchor="middle" x="512" y="-15.2" font-family="Helvetica" font-size="11.00">end</text>
</g>
<!-- n2&#45;&gt;n3 -->
<g id="edge2" class="edge">
<title>n2&#45;&gt;n3</title>
<path fill="none" stroke="#555555" d="M388.23,-18C412.32,-18 447.97,-18 474.65,-18"/>
<polygon fill="#555555" stroke="#555555" points="474.75,-21.5 484.75,-18 474.75,-14.5 474.75,-21.5"/>
</g>
<!-- n4 -->
<g id="node8" class="node">
<title>n4</title>
<path fill="#c8e6c9" stroke="black" d="M42,-115C42,-115 12,-115 12,-115 6,-115 0,-109 0,-103 0,-103 0,-91 0,-91 0,-85 6,-79 12,-79 12,-79 42,-79 42,-79 48,-79 54,-85 54,-91 54,-91 54,-103 54,-103 54,-109 48,-115 42,-115"/>
<text text-anchor="middle" x="27" y="-94.2" font-family="Helvetica" font-size="11.00">Start</text>
</g>
<!-- n5 -->
<g id="node9" class="node">
<title>n5</title>
<path fill="#ffcdd2" stroke="black" d="M232.5,-115C232.5,-115 131.5,-115 131.5,-115 125.5,-115 119.5,-109 119.5,-103 119.5,-103 119.5,-91 119.5,-91 119.5,-85 125.5,-79 131.5,-79 131.5,-79 232.5,-79 232.5,-79 238.5,-79 244.5,-85 244.5,-91 244.5,-91 244.5,-103 244.5,-103 244.5,-109 238.5,-115 232.5,-115"/>
<text text-anchor="middle" x="182" y="-94.2" font-family="Helvetica" font-size="11.00">Prep Error Handling</text>
</g>
<!-- n4&#45;&gt;n5 -->
<g id="edge4" class="edge">
<title>n4&#45;&gt;n5</title>
<path fill="none" stroke="#555555" d="M54.3,-97C69.58,-97 89.64,-97 109.28,-97"/>
<polygon fill="#555555" stroke="#555555" points="109.49,-100.5 119.49,-97 109.49,-93.5 109.49,-100.5"/>
</g>
<!-- n5&#45;&gt;n11 -->
<g id="edge9" class="edge">
<title>n5&#45;&gt;n11</title>
<path fill="none" stroke="#555555" d="M244.73,-97C262.51,-97 281.88,-97 299.55,-97"/>
<polygon fill="#555555" stroke="#555555" points="299.74,-100.5 309.74,-97 299.74,-93.5 299.74,-100.5"/>
</g>
<!-- n7 -->
<g id="node11" class="node">
<title>n7</title>
<path fill="#ffccbc" stroke="black" d="M707.5,-154C707.5,-154 634.5,-154 634.5,-154 628.5,-154 622.5,-148 622.5,-142 622.5,-142 622.5,-130 622.5,-130 622.5,-124 628.5,-118 634.5,-118 634.5,-118 707.5,-118 707.5,-118 713.5,-118 719.5,-124 719.5,-130 719.5,-130 719.5,-142 719.5,-142 719.5,-148 713.5,-154 707.5,-154"/>
<text text-anchor="middle" x="671" y="-133.2" font-family="Helvetica" font-size="11.00">End Audit Log</text>
</g>
<!-- n6&#45;&gt;n7 -->
<g id="edge5" class="edge">
<title>n6&#45;&gt;n7</title>
<path fill="none" stroke="#555555" d="M555.07,-107.45C572.71,-111.83 593.5,-117 612.51,-121.72"/>
<polygon fill="#555555" stroke="#555555" points="611.71,-125.13 622.26,-124.14 613.4,-118.33 611.71,-125.13"/>
</g>
<!-- n8 -->
<g id="node12" class="node">
<title>n8</title>
<path fill="#e8f4f8" stroke="black" d="M717,-75C717,-75 625,-75 625,-75 619,-75 613,-69 613,-63 613,-63 613,-51 613,-51 613,-45 619,-39 625,-39 625,-39 717,-39 717,-39 723,-39 729,-45 729,-51 729,-51 729,-63 729,-63 729,-69 723,-75 717,-75"/>
<text text-anchor="middle" x="671" y="-54.2" font-family="Helvetica" font-size="11.00">MapAnyException</text>
</g>
<!-- n6&#45;&gt;n8 -->
<g id="edge6" class="edge">
<title>n6&#45;&gt;n8</title>
<path fill="none" stroke="#555555" d="M555.07,-86.28C569.74,-82.54 586.59,-78.25 602.78,-74.13"/>
<polygon fill="#555555" stroke="#555555" points="603.93,-77.45 612.76,-71.58 602.2,-70.66 603.93,-77.45"/>
</g>
<!-- n7&#45;&gt;n12 -->
<g id="edge11" class="edge">
<title>n7&#45;&gt;n12</title>
<path fill="none" stroke="#555555" d="M719.71,-136C740.86,-136 765.35,-136 785.01,-136"/>
<polygon fill="#555555" stroke="#555555" points="785.09,-139.5 795.09,-136 785.09,-132.5 785.09,-139.5"/>
</g>
<!-- n9 -->
<g id="node13" class="node">
<title>n9</title>
<path fill="#e8f4f8" stroke="black" d="M846,-75C846,-75 799,-75 799,-75 793,-75 787,-69 787,-63 787,-63 787,-51 787,-51 787,-45 793,-39 799,-39 799,-39 846,-39 846,-39 852,-39 858,-45 858,-51 858,-51 858,-63 858,-63 858,-69 852,-75 846,-75"/>
<text text-anchor="middle" x="822.5" y="-54.2" font-family="Helvetica" font-size="11.00">LogError</text>
</g>
<!-- n8&#45;&gt;n9 -->
<g id="edge7" class="edge">
<title>n8&#45;&gt;n9</title>
<path fill="none" stroke="#555555" d="M729.37,-57C745.01,-57 761.72,-57 776.56,-57"/>
<polygon fill="#555555" stroke="#555555" points="776.99,-60.5 786.99,-57 776.99,-53.5 776.99,-60.5"/>
</g>
<!-- n9&#45;&gt;n10 -->
<g id="edge8" class="edge">
<title>n9&#45;&gt;n10</title>
<path fill="none" stroke="#555555" d="M858.24,-57C872.45,-57 889.31,-57 905.41,-57"/>
<polygon fill="#555555" stroke="#555555" points="905.84,-60.5 915.84,-57 905.84,-53.5 905.84,-60.5"/>
</g>
</g>
</svg>
