<?xml version="1.0" encoding="UTF-8" standalone="no"?>
<!DOCTYPE svg PUBLIC "-//W3C//DTD SVG 1.1//EN"
 "http://www.w3.org/Graphics/SVG/1.1/DTD/svg11.dtd">
<!-- Generated by graphviz version 2.44.0 (0)
 -->
<!-- Title: process Pages: 1 -->
<svg width="795pt" height="187pt"
 viewBox="0.00 0.00 795.00 187.00" xmlns="http://www.w3.org/2000/svg" xmlns:xlink="http://www.w3.org/1999/xlink">
<g id="graph0" class="graph" transform="scale(1 1) rotate(0) translate(36 151)">
<title>process</title>
<polygon fill="#ffffff" stroke="transparent" points="-36,36 -36,-151 759,-151 759,36 -36,36"/>
<!-- n0 -->
<g id="node1" class="node">
<title>n0</title>
<path fill="#e8f4f8" stroke="black" d="M64,-75C64,-75 12,-75 12,-75 6,-75 0,-69 0,-63 0,-63 0,-51 0,-51 0,-45 6,-39 12,-39 12,-39 64,-39 64,-39 70,-39 76,-45 76,-51 76,-51 76,-63 76,-63 76,-69 70,-75 64,-75"/>
<text text-anchor="middle" x="38" y="-54.2" font-family="Helvetica" font-size="11.00">onStartup</text>
</g>
<!-- n1 -->
<g id="node2" class="node">
<title>n1</title>
<path fill="#c8e6c9" stroke="black" d="M223,-75C223,-75 146,-75 146,-75 140,-75 134,-69 134,-63 134,-63 134,-51 134,-51 134,-45 140,-39 146,-39 146,-39 223,-39 223,-39 229,-39 235,-45 235,-51 235,-51 235,-63 235,-63 235,-69 229,-75 223,-75"/>
<text text-anchor="middle" x="184.5" y="-54.2" font-family="Helvetica" font-size="11.00">Start Audit Log</text>
</g>
<!-- n0&#45;&gt;n1 -->
<g id="edge1" class="edge">
<title>n0&#45;&gt;n1</title>
<path fill="none" stroke="#555555" d="M76.21,-57C90.62,-57 107.47,-57 123.5,-57"/>
<polygon fill="#555555" stroke="#555555" points="123.88,-60.5 133.88,-57 123.88,-53.5 123.88,-60.5"/>
</g>
<!-- n2 -->
<g id="node3" class="node">
<title>n2</title>
<path fill="#e8f4f8" stroke="black" d="M410,-75C410,-75 305,-75 305,-75 299,-75 293,-69 293,-63 293,-63 293,-51 293,-51 293,-45 299,-39 305,-39 305,-39 410,-39 410,-39 416,-39 422,-45 422,-51 422,-51 422,-63 422,-63 422,-69 416,-75 410,-75"/>
<text text-anchor="middle" x="357.5" y="-54.2" font-family="Helvetica" font-size="11.00">LoadOIMErrorCodes</text>
</g>
<!-- n1&#45;&gt;n2 -->
<g id="edge2" class="edge">
<title>n1&#45;&gt;n2</title>
<path fill="none" stroke="#555555" d="M235.42,-57C250.14,-57 266.57,-57 282.46,-57"/>
<polygon fill="#555555" stroke="#555555" points="282.8,-60.5 292.8,-57 282.8,-53.5 282.8,-60.5"/>
</g>
<!-- n3 -->
<g id="node4" class="node">
<title>n3</title>
<path fill="#ffccbc" stroke="black" d="M582,-115C582,-115 509,-115 509,-115 503,-115 497,-109 497,-103 497,-103 497,-91 497,-91 497,-85 503,-79 509,-79 509,-79 582,-79 582,-79 588,-79 594,-85 594,-91 594,-91 594,-103 594,-103 594,-109 588,-115 582,-115"/>
<text text-anchor="middle" x="545.5" y="-94.2" font-family="Helvetica" font-size="11.00">End Audit Log</text>
</g>
<!-- n2&#45;&gt;n3 -->
<g id="edge3" class="edge">
<title>n2&#45;&gt;n3</title>
<path fill="none" stroke="#555555" d="M422.25,-70.71C443.31,-75.24 466.59,-80.25 487.14,-84.66"/>
<polygon fill="#555555" stroke="#555555" points="486.48,-88.1 496.99,-86.78 487.95,-81.26 486.48,-88.1"/>
</g>
<!-- n5 -->
<g id="node6" class="node">
<title>n5</title>
<path fill="#e8f4f8" stroke="black" d="M599,-36C599,-36 492,-36 492,-36 486,-36 480,-30 480,-24 480,-24 480,-12 480,-12 480,-6 486,0 492,0 492,0 599,0 599,0 605,0 611,-6 611,-12 611,-12 611,-24 611,-24 611,-30 605,-36 599,-36"/>
<text text-anchor="middle" x="545.5" y="-15.2" font-family="Helvetica" font-size="11.00">Shutdown BWEngine</text>
</g>
<!-- n2&#45;&gt;n5 -->
<g id="edge5" class="edge">
<title>n2&#45;&gt;n5</title>
<path fill="none" stroke="#555555" d="M422.25,-43.63C437.52,-40.43 453.96,-36.98 469.68,-33.69"/>
<polygon fill="#555555" stroke="#555555" points="470.82,-37.03 479.89,-31.55 469.38,-30.17 470.82,-37.03"/>
</g>
<!-- n4 -->
<g id="node5" class="node">
<title>n4</title>
<path fill="#ffccbc" stroke="black" d="M711,-75C711,-75 681,-75 681,-75 675,-75 669,-69 669,-63 669,-63 669,-51 669,-51 669,-45 675,-39 681,-39 681,-39 711,-39 711,-39 717,-39 723,-45 723,-51 723,-51 723,-63 723,-63 723,-69 717,-75 711,-75"/>
<text text-anchor="middle" x="696" y="-54.2" font-family="Helvetica" font-size="11.00">End</text>
</g>
<!-- n3&#45;&gt;n4 -->
<g id="edge4" class="edge">
<title>n3&#45;&gt;n4</title>
<path fill="none" stroke="#555555" d="M594.3,-84.12C615.39,-78.44 639.74,-71.88 659.22,-66.64"/>
<polygon fill="#555555" stroke="#555555" points="660.17,-70.01 668.92,-64.03 658.35,-63.25 660.17,-70.01"/>
</g>
<!-- n5&#45;&gt;n4 -->
<g id="edge6" class="edge">
<title>n5&#45;&gt;n4</title>
<path fill="none" stroke="#555555" d="M611.2,-34.99C627.55,-39.29 644.54,-43.75 658.9,-47.52"/>
<polygon fill="#555555" stroke="#555555" points="658.29,-50.98 668.85,-50.13 660.07,-44.21 658.29,-50.98"/>
</g>
</g>
</svg>
