<?xml version="1.0" encoding="UTF-8" standalone="no"?>
<!DOCTYPE svg PUBLIC "-//W3C//DTD SVG 1.1//EN"
 "http://www.w3.org/Graphics/SVG/1.1/DTD/svg11.dtd">
<!-- Generated by graphviz version 2.44.0 (0)
 -->
<!-- Title: process Pages: 1 -->
<svg width="669pt" height="266pt"
 viewBox="0.00 0.00 669.00 266.00" xmlns="http://www.w3.org/2000/svg" xmlns:xlink="http://www.w3.org/1999/xlink">
<g id="graph0" class="graph" transform="scale(1 1) rotate(0) translate(36 230)">
<title>process</title>
<polygon fill="#ffffff" stroke="transparent" points="-36,36 -36,-230 633,-230 633,36 -36,36"/>
<!-- n0 -->
<g id="node1" class="node">
<title>n0</title>
<path fill="#c8e6c9" stroke="black" d="M42,-36C42,-36 12,-36 12,-36 6,-36 0,-30 0,-24 0,-24 0,-12 0,-12 0,-6 6,0 12,0 12,0 42,0 42,0 48,0 54,-6 54,-12 54,-12 54,-24 54,-24 54,-30 48,-36 42,-36"/>
<text text-anchor="middle" x="27" y="-15.2" font-family="Helvetica" font-size="11.00">start</text>
</g>
<!-- n1 -->
<g id="node2" class="node">
<title>n1</title>
<path fill="#e8f4f8" stroke="black" d="M252,-36C252,-36 124,-36 124,-36 118,-36 112,-30 112,-24 112,-24 112,-12 112,-12 112,-6 118,0 124,0 124,0 252,0 252,0 258,0 264,-6 264,-12 264,-12 264,-24 264,-24 264,-30 258,-36 252,-36"/>
<text text-anchor="middle" x="188" y="-15.2" font-family="Helvetica" font-size="11.00">Get OAM Codes from DB</text>
</g>
<!-- n0&#45;&gt;n1 -->
<g id="edge1" class="edge">
<title>n0&#45;&gt;n1</title>
<path fill="none" stroke="#555555" d="M54.26,-18C67.53,-18 84.46,-18 101.76,-18"/>
<polygon fill="#555555" stroke="#555555" points="101.97,-21.5 111.97,-18 101.97,-14.5 101.97,-21.5"/>
</g>
<!-- n2 -->
<g id="node3" class="node">
<title>n2</title>
<path fill="#e8f4f8" stroke="black" d="M411,-36C411,-36 349,-36 349,-36 343,-36 337,-30 337,-24 337,-24 337,-12 337,-12 337,-6 343,0 349,0 349,0 411,0 411,0 417,0 423,-6 423,-12 423,-12 423,-24 423,-24 423,-30 417,-36 411,-36"/>
<text text-anchor="middle" x="380" y="-15.2" font-family="Helvetica" font-size="11.00">StoreCodes</text>
</g>
<!-- n1&#45;&gt;n2 -->
<g id="edge3" class="edge">
<title>n1&#45;&gt;n2</title>
<path fill="none" stroke="#555555" d="M264.09,-18C285.11,-18 307.48,-18 326.85,-18"/>
<polygon fill="#555555" stroke="#555555" points="326.98,-21.5 336.98,-18 326.98,-14.5 326.98,-21.5"/>
</g>
<!-- n3 -->
<g id="node4" class="node">
<title>n3</title>
<path fill="#ffccbc" stroke="black" d="M561.5,-36C561.5,-36 531.5,-36 531.5,-36 525.5,-36 519.5,-30 519.5,-24 519.5,-24 519.5,-12 519.5,-12 519.5,-6 525.5,0 531.5,0 531.5,0 561.5,0 561.5,0 567.5,0 573.5,-6 573.5,-12 573.5,-12 573.5,-24 573.5,-24 573.5,-30 567.5,-36 561.5,-36"/>
<text text-anchor="middle" x="546.5" y="-15.2" font-family="Helvetica" font-size="11.00">end</text>
</g>
<!-- n2&#45;&gt;n3 -->
<g id="edge2" class="edge">
<title>n2&#45;&gt;n3</title>
<path fill="none" stroke="#555555" d="M423.36,-18C449.85,-18 483.62,-18 508.94,-18"/>
<polygon fill="#555555" stroke="#555555" points="509.22,-21.5 519.22,-18 509.22,-14.5 509.22,-21.5"/>
</g>
<!-- n4 -->
<g id="node5" class="node">
<title>n4</title>
<path fill="#c8e6c9" stroke="black" d="M42,-154C42,-154 12,-154 12,-154 6,-154 0,-148 0,-142 0,-142 0,-130 0,-130 0,-124 6,-118 12,-118 12,-118 42,-118 42,-118 48,-118 54,-124 54,-130 54,-130 54,-142 54,-142 54,-148 48,-154 42,-154"/>
<text text-anchor="middle" x="27" y="-133.2" font-family="Helvetica" font-size="11.00">Start</text>
</g>
<!-- n5 -->
<g id="node6" class="node">
<title>n5</title>
<path fill="#ffcdd2" stroke="black" d="M219,-154C219,-154 157,-154 157,-154 151,-154 145,-148 145,-142 145,-142 145,-130 145,-130 145,-124 151,-118 157,-118 157,-118 219,-118 219,-118 225,-118 231,-124 231,-130 231,-130 231,-142 231,-142 231,-148 225,-154 219,-154"/>
<text text-anchor="middle" x="188" y="-133.2" font-family="Helvetica" font-size="11.00">Error Group</text>
</g>
<!-- n4&#45;&gt;n5 -->
<g id="edge4" class="edge">
<title>n4&#45;&gt;n5</title>
<path fill="none" stroke="#555555" d="M54.26,-136C76.08,-136 107.8,-136 134.77,-136"/>
<polygon fill="#555555" stroke="#555555" points="134.84,-139.5 144.84,-136 134.84,-132.5 134.84,-139.5"/>
</g>
<!-- n6 -->
<g id="node7" class="node">
<title>n6</title>
<path fill="#ffccbc" stroke="black" d="M395,-194C395,-194 365,-194 365,-194 359,-194 353,-188 353,-182 353,-182 353,-170 353,-170 353,-164 359,-158 365,-158 365,-158 395,-158 395,-158 401,-158 407,-164 407,-170 407,-170 407,-182 407,-182 407,-188 401,-194 395,-194"/>
<text text-anchor="middle" x="380" y="-173.2" font-family="Helvetica" font-size="11.00">End</text>
</g>
<!-- n5&#45;&gt;n6 -->
<g id="edge5" class="edge">
<title>n5&#45;&gt;n6</title>
<path fill="none" stroke="#555555" d="M231.17,-144.88C264.56,-151.91 310.73,-161.63 342.54,-168.33"/>
<polygon fill="#555555" stroke="#555555" points="342.24,-171.84 352.74,-170.47 343.68,-164.99 342.24,-171.84"/>
</g>
<!-- n7 -->
<g id="node8" class="node">
<title>n7</title>
<path fill="#e8f4f8" stroke="black" d="M426,-115C426,-115 334,-115 334,-115 328,-115 322,-109 322,-103 322,-103 322,-91 322,-91 322,-85 328,-79 334,-79 334,-79 426,-79 426,-79 432,-79 438,-85 438,-91 438,-91 438,-103 438,-103 438,-109 432,-115 426,-115"/>
<text text-anchor="middle" x="380" y="-94.2" font-family="Helvetica" font-size="11.00">MapAnyException</text>
</g>
<!-- n5&#45;&gt;n7 -->
<g id="edge6" class="edge">
<title>n5&#45;&gt;n7</title>
<path fill="none" stroke="#555555" d="M231.17,-127.34C254.82,-122.49 284.88,-116.32 311.71,-110.81"/>
<polygon fill="#555555" stroke="#555555" points="312.72,-114.18 321.82,-108.74 311.32,-107.32 312.72,-114.18"/>
</g>
<!-- n8 -->
<g id="node9" class="node">
<title>n8</title>
<path fill="#ffcdd2" stroke="black" d="M585,-115C585,-115 508,-115 508,-115 502,-115 496,-109 496,-103 496,-103 496,-91 496,-91 496,-85 502,-79 508,-79 508,-79 585,-79 585,-79 591,-79 597,-85 597,-91 597,-91 597,-103 597,-103 597,-109 591,-115 585,-115"/>
<text text-anchor="middle" x="546.5" y="-94.2" font-family="Helvetica" font-size="11.00">Generate Error</text>
</g>
<!-- n7&#45;&gt;n8 -->
<g id="edge7" class="edge">
<title>n7&#45;&gt;n8</title>
<path fill="none" stroke="#555555" d="M438.07,-97C453.53,-97 470.29,-97 485.88,-97"/>
<polygon fill="#555555" stroke="#555555" points="485.93,-100.5 495.93,-97 485.93,-93.5 485.93,-100.5"/>
</g>
</g>
</svg>
