<?xml version="1.0" encoding="UTF-8" standalone="no"?>
<!DOCTYPE svg PUBLIC "-//W3C//DTD SVG 1.1//EN"
 "http://www.w3.org/Graphics/SVG/1.1/DTD/svg11.dtd">
<!-- Generated by graphviz version 2.44.0 (0)
 -->
<!-- Title: process Pages: 1 -->
<svg width="1083pt" height="226pt"
 viewBox="0.00 0.00 1083.00 226.00" xmlns="http://www.w3.org/2000/svg" xmlns:xlink="http://www.w3.org/1999/xlink">
<g id="graph0" class="graph" transform="scale(1 1) rotate(0) translate(36 190)">
<title>process</title>
<polygon fill="#ffffff" stroke="transparent" points="-36,36 -36,-190 1047,-190 1047,36 -36,36"/>
<!-- n0 -->
<g id="node1" class="node">
<title>n0</title>
<path fill="#c8e6c9" stroke="black" d="M42,-36C42,-36 12,-36 12,-36 6,-36 0,-30 0,-24 0,-24 0,-12 0,-12 0,-6 6,0 12,0 12,0 42,0 42,0 48,0 54,-6 54,-12 54,-12 54,-24 54,-24 54,-30 48,-36 42,-36"/>
<text text-anchor="middle" x="27" y="-15.2" font-family="Helvetica" font-size="11.00">start</text>
</g>
<!-- n1 -->
<g id="node2" class="node">
<title>n1</title>
<path fill="#e8f4f8" stroke="black" d="M234,-36C234,-36 124,-36 124,-36 118,-36 112,-30 112,-24 112,-24 112,-12 112,-12 112,-6 118,0 124,0 124,0 234,0 234,0 240,0 246,-6 246,-12 246,-12 246,-24 246,-24 246,-30 240,-36 234,-36"/>
<text text-anchor="middle" x="179" y="-15.2" font-family="Helvetica" font-size="11.00">Get Mapping from DB</text>
</g>
<!-- n0&#45;&gt;n1 -->
<g id="edge1" class="edge">
<title>n0&#45;&gt;n1</title>
<path fill="none" stroke="#555555" d="M54.13,-18C67.53,-18 84.62,-18 101.79,-18"/>
<polygon fill="#555555" stroke="#555555" points="101.89,-21.5 111.89,-18 101.89,-14.5 101.89,-21.5"/>
</g>
<!-- n2 -->
<g id="node6" class="node">
<title>n2</title>
<path fill="#e8f4f8" stroke="black" d="M370,-36C370,-36 339,-36 339,-36 333,-36 327,-30 327,-24 327,-24 327,-12 327,-12 327,-6 333,0 339,0 339,0 370,0 370,0 376,0 382,-6 382,-12 382,-12 382,-24 382,-24 382,-30 376,-36 370,-36"/>
<text text-anchor="middle" x="354.5" y="-15.2" font-family="Helvetica" font-size="11.00">Store</text>
</g>
<!-- n1&#45;&gt;n2 -->
<g id="edge3" class="edge">
<title>n1&#45;&gt;n2</title>
<path fill="none" stroke="#555555" d="M246.09,-18C270.06,-18 296.27,-18 316.8,-18"/>
<polygon fill="#555555" stroke="#555555" points="316.98,-21.5 326.98,-18 316.98,-14.5 316.98,-21.5"/>
</g>
<!-- n10 -->
<g id="node3" class="node">
<title>n10</title>
<path fill="#ffcdd2" stroke="black" d="M999,-75C999,-75 922,-75 922,-75 916,-75 910,-69 910,-63 910,-63 910,-51 910,-51 910,-45 916,-39 922,-39 922,-39 999,-39 999,-39 1005,-39 1011,-45 1011,-51 1011,-51 1011,-63 1011,-63 1011,-69 1005,-75 999,-75"/>
<text text-anchor="middle" x="960.5" y="-54.2" font-family="Helvetica" font-size="11.00">Generate Error</text>
</g>
<!-- n11 -->
<g id="node4" class="node">
<title>n11</title>
<path fill="#c8e6c9" stroke="black" d="M393,-115C393,-115 316,-115 316,-115 310,-115 304,-109 304,-103 304,-103 304,-91 304,-91 304,-85 310,-79 316,-79 316,-79 393,-79 393,-79 399,-79 405,-85 405,-91 405,-91 405,-103 405,-103 405,-109 399,-115 393,-115"/>
<text text-anchor="middle" x="354.5" y="-94.2" font-family="Helvetica" font-size="11.00">Start Log Audit</text>
</g>
<!-- n6 -->
<g id="node10" class="node">
<title>n6</title>
<path fill="#ffcdd2" stroke="black" d="M537,-115C537,-115 475,-115 475,-115 469,-115 463,-109 463,-103 463,-103 463,-91 463,-91 463,-85 469,-79 475,-79 475,-79 537,-79 537,-79 543,-79 549,-85 549,-91 549,-91 549,-103 549,-103 549,-109 543,-115 537,-115"/>
<text text-anchor="middle" x="506" y="-94.2" font-family="Helvetica" font-size="11.00">Error Group</text>
</g>
<!-- n11&#45;&gt;n6 -->
<g id="edge10" class="edge">
<title>n11&#45;&gt;n6</title>
<path fill="none" stroke="#555555" d="M405.28,-97C420.46,-97 437.2,-97 452.55,-97"/>
<polygon fill="#555555" stroke="#555555" points="452.93,-100.5 462.93,-97 452.93,-93.5 452.93,-100.5"/>
</g>
<!-- n12 -->
<g id="node5" class="node">
<title>n12</title>
<path fill="#ffccbc" stroke="black" d="M831.5,-154C831.5,-154 801.5,-154 801.5,-154 795.5,-154 789.5,-148 789.5,-142 789.5,-142 789.5,-130 789.5,-130 789.5,-124 795.5,-118 801.5,-118 801.5,-118 831.5,-118 831.5,-118 837.5,-118 843.5,-124 843.5,-130 843.5,-130 843.5,-142 843.5,-142 843.5,-148 837.5,-154 831.5,-154"/>
<text text-anchor="middle" x="816.5" y="-133.2" font-family="Helvetica" font-size="11.00">End</text>
</g>
<!-- n3 -->
<g id="node7" class="node">
<title>n3</title>
<path fill="#ffccbc" stroke="black" d="M521,-36C521,-36 491,-36 491,-36 485,-36 479,-30 479,-24 479,-24 479,-12 479,-12 479,-6 485,0 491,0 491,0 521,0 521,0 527,0 533,-6 533,-12 533,-12 533,-24 533,-24 533,-30 527,-36 521,-36"/>
<text text-anchor="middle" x="506" y="-15.2" font-family="Helvetica" font-size="11.00">end</text>
</g>
<!-- n2&#45;&gt;n3 -->
<g id="edge2" class="edge">
<title>n2&#45;&gt;n3</title>
<path fill="none" stroke="#555555" d="M382.23,-18C406.32,-18 441.97,-18 468.65,-18"/>
<polygon fill="#555555" stroke="#555555" points="468.75,-21.5 478.75,-18 468.75,-14.5 468.75,-21.5"/>
</g>
<!-- n4 -->
<g id="node8" class="node">
<title>n4</title>
<path fill="#c8e6c9" stroke="black" d="M42,-115C42,-115 12,-115 12,-115 6,-115 0,-109 0,-103 0,-103 0,-91 0,-91 0,-85 6,-79 12,-79 12,-79 42,-79 42,-79 48,-79 54,-85 54,-91 54,-91 54,-103 54,-103 54,-109 48,-115 42,-115"/>
<text text-anchor="middle" x="27" y="-94.2" font-family="Helvetica" font-size="11.00">Start</text>
</g>
<!-- n5 -->
<g id="node9" class="node">
<title>n5</title>
<path fill="#ffcdd2" stroke="black" d="M229.5,-115C229.5,-115 128.5,-115 128.5,-115 122.5,-115 116.5,-109 116.5,-103 116.5,-103 116.5,-91 116.5,-91 116.5,-85 122.5,-79 128.5,-79 128.5,-79 229.5,-79 229.5,-79 235.5,-79 241.5,-85 241.5,-91 241.5,-91 241.5,-103 241.5,-103 241.5,-109 235.5,-115 229.5,-115"/>
<text text-anchor="middle" x="179" y="-94.2" font-family="Helvetica" font-size="11.00">Prep Error Handling</text>
</g>
<!-- n4&#45;&gt;n5 -->
<g id="edge4" class="edge">
<title>n4&#45;&gt;n5</title>
<path fill="none" stroke="#555555" d="M54.13,-97C68.71,-97 87.67,-97 106.34,-97"/>
<polygon fill="#555555" stroke="#555555" points="106.36,-100.5 116.36,-97 106.36,-93.5 106.36,-100.5"/>
</g>
<!-- n5&#45;&gt;n11 -->
<g id="edge9" class="edge">
<title>n5&#45;&gt;n11</title>
<path fill="none" stroke="#555555" d="M241.66,-97C258.52,-97 276.76,-97 293.52,-97"/>
<polygon fill="#555555" stroke="#555555" points="293.74,-100.5 303.74,-97 293.74,-93.5 293.74,-100.5"/>
</g>
<!-- n7 -->
<g id="node11" class="node">
<title>n7</title>
<path fill="#ffccbc" stroke="black" d="M701.5,-154C701.5,-154 628.5,-154 628.5,-154 622.5,-154 616.5,-148 616.5,-142 616.5,-142 616.5,-130 616.5,-130 616.5,-124 622.5,-118 628.5,-118 628.5,-118 701.5,-118 701.5,-118 707.5,-118 713.5,-124 713.5,-130 713.5,-130 713.5,-142 713.5,-142 713.5,-148 707.5,-154 701.5,-154"/>
<text text-anchor="middle" x="665" y="-133.2" font-family="Helvetica" font-size="11.00">End Audit Log</text>
</g>
<!-- n6&#45;&gt;n7 -->
<g id="edge5" class="edge">
<title>n6&#45;&gt;n7</title>
<path fill="none" stroke="#555555" d="M549.07,-107.45C566.71,-111.83 587.5,-117 606.51,-121.72"/>
<polygon fill="#555555" stroke="#555555" points="605.71,-125.13 616.26,-124.14 607.4,-118.33 605.71,-125.13"/>
</g>
<!-- n8 -->
<g id="node12" class="node">
<title>n8</title>
<path fill="#e8f4f8" stroke="black" d="M711,-75C711,-75 619,-75 619,-75 613,-75 607,-69 607,-63 607,-63 607,-51 607,-51 607,-45 613,-39 619,-39 619,-39 711,-39 711,-39 717,-39 723,-45 723,-51 723,-51 723,-63 723,-63 723,-69 717,-75 711,-75"/>
<text text-anchor="middle" x="665" y="-54.2" font-family="Helvetica" font-size="11.00">MapAnyException</text>
</g>
<!-- n6&#45;&gt;n8 -->
<g id="edge6" class="edge">
<title>n6&#45;&gt;n8</title>
<path fill="none" stroke="#555555" d="M549.07,-86.28C563.74,-82.54 580.59,-78.25 596.78,-74.13"/>
<polygon fill="#555555" stroke="#555555" points="597.93,-77.45 606.76,-71.58 596.2,-70.66 597.93,-77.45"/>
</g>
<!-- n7&#45;&gt;n12 -->
<g id="edge11" class="edge">
<title>n7&#45;&gt;n12</title>
<path fill="none" stroke="#555555" d="M713.71,-136C734.86,-136 759.35,-136 779.01,-136"/>
<polygon fill="#555555" stroke="#555555" points="779.09,-139.5 789.09,-136 779.09,-132.5 779.09,-139.5"/>
</g>
<!-- n9 -->
<g id="node13" class="node">
<title>n9</title>
<path fill="#e8f4f8" stroke="black" d="M840,-75C840,-75 793,-75 793,-75 787,-75 781,-69 781,-63 781,-63 781,-51 781,-51 781,-45 787,-39 793,-39 793,-39 840,-39 840,-39 846,-39 852,-45 852,-51 852,-51 852,-63 852,-63 852,-69 846,-75 840,-75"/>
<text text-anchor="middle" x="816.5" y="-54.2" font-family="Helvetica" font-size="11.00">LogError</text>
</g>
<!-- n8&#45;&gt;n9 -->
<g id="edge7" class="edge">
<title>n8&#45;&gt;n9</title>
<path fill="none" stroke="#555555" d="M723.37,-57C739.01,-57 755.72,-57 770.56,-57"/>
<polygon fill="#555555" stroke="#555555" points="770.99,-60.5 780.99,-57 770.99,-53.5 770.99,-60.5"/>
</g>
<!-- n9&#45;&gt;n10 -->
<g id="edge8" class="edge">
<title>n9&#45;&gt;n10</title>
<path fill="none" stroke="#555555" d="M852.24,-57C866.45,-57 883.31,-57 899.41,-57"/>
<polygon fill="#555555" stroke="#555555" points="899.84,-60.5 909.84,-57 899.84,-53.5 899.84,-60.5"/>
</g>
</g>
</svg>
