<?xml version="1.0" encoding="UTF-8" standalone="no"?>
<!DOCTYPE svg PUBLIC "-//W3C//DTD SVG 1.1//EN"
 "http://www.w3.org/Graphics/SVG/1.1/DTD/svg11.dtd">
<!-- Generated by graphviz version 2.44.0 (0)
 -->
<!-- Title: process Pages: 1 -->
<svg width="535pt" height="108pt"
 viewBox="0.00 0.00 535.00 108.00" xmlns="http://www.w3.org/2000/svg" xmlns:xlink="http://www.w3.org/1999/xlink">
<g id="graph0" class="graph" transform="scale(1 1) rotate(0) translate(36 72)">
<title>process</title>
<polygon fill="#ffffff" stroke="transparent" points="-36,36 -36,-72 499,-72 499,36 -36,36"/>
<!-- n0 -->
<g id="node1" class="node">
<title>n0</title>
<path fill="#c8e6c9" stroke="black" d="M42,-36C42,-36 12,-36 12,-36 6,-36 0,-30 0,-24 0,-24 0,-12 0,-12 0,-6 6,0 12,0 12,0 42,0 42,0 48,0 54,-6 54,-12 54,-12 54,-24 54,-24 54,-30 48,-36 42,-36"/>
<text text-anchor="middle" x="27" y="-15.2" font-family="Helvetica" font-size="11.00">Start</text>
</g>
<!-- n1 -->
<g id="node2" class="node">
<title>n1</title>
<path fill="#e8f4f8" stroke="black" d="M189,-36C189,-36 124,-36 124,-36 118,-36 112,-30 112,-24 112,-24 112,-12 112,-12 112,-6 118,0 124,0 124,0 189,0 189,0 195,0 201,-6 201,-12 201,-12 201,-24 201,-24 201,-30 195,-36 189,-36"/>
<text text-anchor="middle" x="156.5" y="-15.2" font-family="Helvetica" font-size="11.00">Parse JSON</text>
</g>
<!-- n0&#45;&gt;n1 -->
<g id="edge1" class="edge">
<title>n0&#45;&gt;n1</title>
<path fill="none" stroke="#555555" d="M54.11,-18C67.87,-18 85.26,-18 101.75,-18"/>
<polygon fill="#555555" stroke="#555555" points="101.85,-21.5 111.85,-18 101.85,-14.5 101.85,-21.5"/>
</g>
<!-- n2 -->
<g id="node3" class="node">
<title>n2</title>
<path fill="#e8f4f8" stroke="black" d="M339,-36C339,-36 271,-36 271,-36 265,-36 259,-30 259,-24 259,-24 259,-12 259,-12 259,-6 265,0 271,0 271,0 339,0 339,0 345,0 351,-6 351,-12 351,-12 351,-24 351,-24 351,-30 345,-36 339,-36"/>
<text text-anchor="middle" x="305" y="-15.2" font-family="Helvetica" font-size="11.00">Decrypt Data</text>
</g>
<!-- n1&#45;&gt;n2 -->
<g id="edge2" class="edge">
<title>n1&#45;&gt;n2</title>
<path fill="none" stroke="#555555" d="M201.06,-18C216,-18 232.93,-18 248.68,-18"/>
<polygon fill="#555555" stroke="#555555" points="248.83,-21.5 258.83,-18 248.83,-14.5 248.83,-21.5"/>
</g>
<!-- n3 -->
<g id="node4" class="node">
<title>n3</title>
<path fill="#ffccbc" stroke="black" d="M451,-36C451,-36 421,-36 421,-36 415,-36 409,-30 409,-24 409,-24 409,-12 409,-12 409,-6 415,0 421,0 421,0 451,0 451,0 457,0 463,-6 463,-12 463,-12 463,-24 463,-24 463,-30 457,-36 451,-36"/>
<text text-anchor="middle" x="436" y="-15.2" font-family="Helvetica" font-size="11.00">End</text>
</g>
<!-- n2&#45;&gt;n3 -->
<g id="edge3" class="edge">
<title>n2&#45;&gt;n3</title>
<path fill="none" stroke="#555555" d="M351.12,-18C366.67,-18 383.88,-18 398.64,-18"/>
<polygon fill="#555555" stroke="#555555" points="398.9,-21.5 408.9,-18 398.9,-14.5 398.9,-21.5"/>
</g>
</g>
</svg>
