<?xml version="1.0" encoding="UTF-8" standalone="no"?>
<!DOCTYPE svg PUBLIC "-//W3C//DTD SVG 1.1//EN"
 "http://www.w3.org/Graphics/SVG/1.1/DTD/svg11.dtd">
<!-- Generated by graphviz version 2.44.0 (0)
 -->
<!-- Title: process Pages: 1 -->
<svg width="681pt" height="108pt"
 viewBox="0.00 0.00 681.00 108.00" xmlns="http://www.w3.org/2000/svg" xmlns:xlink="http://www.w3.org/1999/xlink">
<g id="graph0" class="graph" transform="scale(1 1) rotate(0) translate(36 72)">
<title>process</title>
<polygon fill="#ffffff" stroke="transparent" points="-36,36 -36,-72 645,-72 645,36 -36,36"/>
<!-- n0 -->
<g id="node1" class="node">
<title>n0</title>
<path fill="#e8f4f8" stroke="black" d="M292,-36C292,-36 124,-36 124,-36 118,-36 112,-30 112,-24 112,-24 112,-12 112,-12 112,-6 118,0 124,0 124,0 292,0 292,0 298,0 304,-6 304,-12 304,-12 304,-24 304,-24 304,-30 298,-36 292,-36"/>
<text text-anchor="middle" x="208" y="-15.2" font-family="Helvetica" font-size="11.00">Get HTTP Status Codes From DB</text>
</g>
<!-- n1 -->
<g id="node2" class="node">
<title>n1</title>
<path fill="#e8f4f8" stroke="black" d="M485,-36C485,-36 374,-36 374,-36 368,-36 362,-30 362,-24 362,-24 362,-12 362,-12 362,-6 368,0 374,0 374,0 485,0 485,0 491,0 497,-6 497,-12 497,-12 497,-24 497,-24 497,-30 491,-36 485,-36"/>
<text text-anchor="middle" x="429.5" y="-15.2" font-family="Helvetica" font-size="11.00">SetHTTPStatusCodes</text>
</g>
<!-- n0&#45;&gt;n1 -->
<g id="edge1" class="edge">
<title>n0&#45;&gt;n1</title>
<path fill="none" stroke="#555555" d="M304.32,-18C320.11,-18 336.31,-18 351.57,-18"/>
<polygon fill="#555555" stroke="#555555" points="351.98,-21.5 361.98,-18 351.98,-14.5 351.98,-21.5"/>
</g>
<!-- n3 -->
<g id="node4" class="node">
<title>n3</title>
<path fill="#ffccbc" stroke="black" d="M597,-36C597,-36 567,-36 567,-36 561,-36 555,-30 555,-24 555,-24 555,-12 555,-12 555,-6 561,0 567,0 567,0 597,0 597,0 603,0 609,-6 609,-12 609,-12 609,-24 609,-24 609,-30 603,-36 597,-36"/>
<text text-anchor="middle" x="582" y="-15.2" font-family="Helvetica" font-size="11.00">End</text>
</g>
<!-- n1&#45;&gt;n3 -->
<g id="edge3" class="edge">
<title>n1&#45;&gt;n3</title>
<path fill="none" stroke="#555555" d="M497.39,-18C513.53,-18 530.19,-18 544.35,-18"/>
<polygon fill="#555555" stroke="#555555" points="544.64,-21.5 554.64,-18 544.64,-14.5 544.64,-21.5"/>
</g>
<!-- n2 -->
<g id="node3" class="node">
<title>n2</title>
<path fill="#c8e6c9" stroke="black" d="M42,-36C42,-36 12,-36 12,-36 6,-36 0,-30 0,-24 0,-24 0,-12 0,-12 0,-6 6,0 12,0 12,0 42,0 42,0 48,0 54,-6 54,-12 54,-12 54,-24 54,-24 54,-30 48,-36 42,-36"/>
<text text-anchor="middle" x="27" y="-15.2" font-family="Helvetica" font-size="11.00">Start</text>
</g>
<!-- n2&#45;&gt;n0 -->
<g id="edge2" class="edge">
<title>n2&#45;&gt;n0</title>
<path fill="none" stroke="#555555" d="M54.03,-18C67.08,-18 83.84,-18 101.45,-18"/>
<polygon fill="#555555" stroke="#555555" points="101.9,-21.5 111.9,-18 101.9,-14.5 101.9,-21.5"/>
</g>
</g>
</svg>
