<?xml version="1.0" encoding="UTF-8" standalone="no"?>
<!DOCTYPE svg PUBLIC "-//W3C//DTD SVG 1.1//EN"
 "http://www.w3.org/Graphics/SVG/1.1/DTD/svg11.dtd">
<!-- Generated by graphviz version 2.44.0 (0)
 -->
<!-- Title: process Pages: 1 -->
<svg width="1316pt" height="187pt"
 viewBox="0.00 0.00 1316.00 187.00" xmlns="http://www.w3.org/2000/svg" xmlns:xlink="http://www.w3.org/1999/xlink">
<g id="graph0" class="graph" transform="scale(1 1) rotate(0) translate(36 151)">
<title>process</title>
<polygon fill="#ffffff" stroke="transparent" points="-36,36 -36,-151 1280,-151 1280,36 -36,36"/>
<!-- n0 -->
<g id="node1" class="node">
<title>n0</title>
<path fill="#c8e6c9" stroke="black" d="M42,-75C42,-75 12,-75 12,-75 6,-75 0,-69 0,-63 0,-63 0,-51 0,-51 0,-45 6,-39 12,-39 12,-39 42,-39 42,-39 48,-39 54,-45 54,-51 54,-51 54,-63 54,-63 54,-69 48,-75 42,-75"/>
<text text-anchor="middle" x="27" y="-54.2" font-family="Helvetica" font-size="11.00">Start</text>
</g>
<!-- n1 -->
<g id="node2" class="node">
<title>n1</title>
<path fill="#e8f4f8" stroke="black" d="M222,-75C222,-75 124,-75 124,-75 118,-75 112,-69 112,-63 112,-63 112,-51 112,-51 112,-45 118,-39 124,-39 124,-39 222,-39 222,-39 228,-39 234,-45 234,-51 234,-51 234,-63 234,-63 234,-69 228,-75 222,-75"/>
<text text-anchor="middle" x="173" y="-54.2" font-family="Helvetica" font-size="11.00">Prep ErrorHandling</text>
</g>
<!-- n0&#45;&gt;n1 -->
<g id="edge1" class="edge">
<title>n0&#45;&gt;n1</title>
<path fill="none" stroke="#555555" d="M54.08,-57C67.43,-57 84.41,-57 101.29,-57"/>
<polygon fill="#555555" stroke="#555555" points="101.75,-60.5 111.75,-57 101.75,-53.5 101.75,-60.5"/>
</g>
<!-- n2 -->
<g id="node3" class="node">
<title>n2</title>
<path fill="#e8f4f8" stroke="black" d="M363,-75C363,-75 304,-75 304,-75 298,-75 292,-69 292,-63 292,-63 292,-51 292,-51 292,-45 298,-39 304,-39 304,-39 363,-39 363,-39 369,-39 375,-45 375,-51 375,-51 375,-63 375,-63 375,-69 369,-75 363,-75"/>
<text text-anchor="middle" x="333.5" y="-54.2" font-family="Helvetica" font-size="11.00">WriteToLog</text>
</g>
<!-- n1&#45;&gt;n2 -->
<g id="edge2" class="edge">
<title>n1&#45;&gt;n2</title>
<path fill="none" stroke="#555555" d="M234.37,-57C250.01,-57 266.69,-57 281.78,-57"/>
<polygon fill="#555555" stroke="#555555" points="281.94,-60.5 291.94,-57 281.94,-53.5 281.94,-60.5"/>
</g>
<!-- n3 -->
<g id="node4" class="node">
<title>n3</title>
<path fill="#e8f4f8" stroke="black" d="M513,-75C513,-75 445,-75 445,-75 439,-75 433,-69 433,-63 433,-63 433,-51 433,-51 433,-45 439,-39 445,-39 445,-39 513,-39 513,-39 519,-39 525,-45 525,-51 525,-51 525,-63 525,-63 525,-69 519,-75 513,-75"/>
<text text-anchor="middle" x="479" y="-54.2" font-family="Helvetica" font-size="11.00">ExtractToken</text>
</g>
<!-- n2&#45;&gt;n3 -->
<g id="edge3" class="edge">
<title>n2&#45;&gt;n3</title>
<path fill="none" stroke="#555555" d="M375.24,-57C389.99,-57 406.9,-57 422.69,-57"/>
<polygon fill="#555555" stroke="#555555" points="422.88,-60.5 432.88,-57 422.88,-53.5 422.88,-60.5"/>
</g>
<!-- n4 -->
<g id="node5" class="node">
<title>n4</title>
<path fill="#e8f4f8" stroke="black" d="M696,-75C696,-75 595,-75 595,-75 589,-75 583,-69 583,-63 583,-63 583,-51 583,-51 583,-45 589,-39 595,-39 595,-39 696,-39 696,-39 702,-39 708,-45 708,-51 708,-51 708,-63 708,-63 708,-69 702,-75 696,-75"/>
<text text-anchor="middle" x="645.5" y="-54.2" font-family="Helvetica" font-size="11.00">SOAPRequestReply</text>
</g>
<!-- n3&#45;&gt;n4 -->
<g id="edge4" class="edge">
<title>n3&#45;&gt;n4</title>
<path fill="none" stroke="#555555" d="M525.39,-57C539.97,-57 556.51,-57 572.52,-57"/>
<polygon fill="#555555" stroke="#555555" points="572.94,-60.5 582.94,-57 572.94,-53.5 572.94,-60.5"/>
</g>
<!-- n5 -->
<g id="node6" class="node">
<title>n5</title>
<path fill="#e8f4f8" stroke="black" d="M882,-115C882,-115 778,-115 778,-115 772,-115 766,-109 766,-103 766,-103 766,-91 766,-91 766,-85 772,-79 778,-79 778,-79 882,-79 882,-79 888,-79 894,-85 894,-91 894,-91 894,-103 894,-103 894,-109 888,-115 882,-115"/>
<text text-anchor="middle" x="830" y="-94.2" font-family="Helvetica" font-size="11.00">WriteToLog&#45;Success</text>
</g>
<!-- n4&#45;&gt;n5 -->
<g id="edge6" class="edge">
<title>n4&#45;&gt;n5</title>
<path fill="none" stroke="#555555" d="M708.03,-70.49C723.46,-73.87 740.15,-77.53 756.07,-81.02"/>
<polygon fill="#555555" stroke="#555555" points="755.35,-84.44 765.87,-83.16 756.85,-77.6 755.35,-84.44"/>
</g>
<!-- n7 -->
<g id="node8" class="node">
<title>n7</title>
<path fill="#e8f4f8" stroke="black" d="M876,-36C876,-36 784,-36 784,-36 778,-36 772,-30 772,-24 772,-24 772,-12 772,-12 772,-6 778,0 784,0 784,0 876,0 876,0 882,0 888,-6 888,-12 888,-12 888,-24 888,-24 888,-30 882,-36 876,-36"/>
<text text-anchor="middle" x="830" y="-15.2" font-family="Helvetica" font-size="11.00">MapAnyException</text>
</g>
<!-- n4&#45;&gt;n7 -->
<g id="edge7" class="edge">
<title>n4&#45;&gt;n7</title>
<path fill="none" stroke="#555555" d="M708.03,-43.85C725.25,-40.17 744.04,-36.16 761.58,-32.41"/>
<polygon fill="#555555" stroke="#555555" points="762.69,-35.75 771.74,-30.24 761.23,-28.9 762.69,-35.75"/>
</g>
<!-- n6 -->
<g id="node7" class="node">
<title>n6</title>
<path fill="#ffccbc" stroke="black" d="M1036.5,-115C1036.5,-115 1006.5,-115 1006.5,-115 1000.5,-115 994.5,-109 994.5,-103 994.5,-103 994.5,-91 994.5,-91 994.5,-85 1000.5,-79 1006.5,-79 1006.5,-79 1036.5,-79 1036.5,-79 1042.5,-79 1048.5,-85 1048.5,-91 1048.5,-91 1048.5,-103 1048.5,-103 1048.5,-109 1042.5,-115 1036.5,-115"/>
<text text-anchor="middle" x="1021.5" y="-94.2" font-family="Helvetica" font-size="11.00">End</text>
</g>
<!-- n5&#45;&gt;n6 -->
<g id="edge5" class="edge">
<title>n5&#45;&gt;n6</title>
<path fill="none" stroke="#555555" d="M894.1,-97C923.87,-97 958.35,-97 983.77,-97"/>
<polygon fill="#555555" stroke="#555555" points="984.07,-100.5 994.07,-97 984.07,-93.5 984.07,-100.5"/>
</g>
<!-- n8 -->
<g id="node9" class="node">
<title>n8</title>
<path fill="#e8f4f8" stroke="black" d="M1079,-36C1079,-36 964,-36 964,-36 958,-36 952,-30 952,-24 952,-24 952,-12 952,-12 952,-6 958,0 964,0 964,0 1079,0 1079,0 1085,0 1091,-6 1091,-12 1091,-12 1091,-24 1091,-24 1091,-30 1085,-36 1079,-36"/>
<text text-anchor="middle" x="1021.5" y="-15.2" font-family="Helvetica" font-size="11.00">WriteToLog&#45;Failure&#45;2&#45;1</text>
</g>
<!-- n7&#45;&gt;n8 -->
<g id="edge8" class="edge">
<title>n7&#45;&gt;n8</title>
<path fill="none" stroke="#555555" d="M888.11,-18C904.95,-18 923.69,-18 941.64,-18"/>
<polygon fill="#555555" stroke="#555555" points="941.81,-21.5 951.81,-18 941.81,-14.5 941.81,-21.5"/>
</g>
<!-- n9 -->
<g id="node10" class="node">
<title>n9</title>
<path fill="#e8f4f8" stroke="black" d="M1232,-36C1232,-36 1161,-36 1161,-36 1155,-36 1149,-30 1149,-24 1149,-24 1149,-12 1149,-12 1149,-6 1155,0 1161,0 1161,0 1232,0 1232,0 1238,0 1244,-6 1244,-12 1244,-12 1244,-24 1244,-24 1244,-30 1238,-36 1232,-36"/>
<text text-anchor="middle" x="1196.5" y="-15.2" font-family="Helvetica" font-size="11.00">AnyException</text>
</g>
<!-- n8&#45;&gt;n9 -->
<g id="edge9" class="edge">
<title>n8&#45;&gt;n9</title>
<path fill="none" stroke="#555555" d="M1091.37,-18C1107.07,-18 1123.57,-18 1138.69,-18"/>
<polygon fill="#555555" stroke="#555555" points="1138.92,-21.5 1148.92,-18 1138.92,-14.5 1138.92,-21.5"/>
</g>
</g>
</svg>
