<?xml version="1.0" encoding="UTF-8" standalone="no"?>
<!DOCTYPE svg PUBLIC "-//W3C//DTD SVG 1.1//EN"
 "http://www.w3.org/Graphics/SVG/1.1/DTD/svg11.dtd">
<!-- Generated by graphviz version 2.44.0 (0)
 -->
<!-- Title: process Pages: 1 -->
<svg width="812pt" height="187pt"
 viewBox="0.00 0.00 812.00 187.00" xmlns="http://www.w3.org/2000/svg" xmlns:xlink="http://www.w3.org/1999/xlink">
<g id="graph0" class="graph" transform="scale(1 1) rotate(0) translate(36 151)">
<title>process</title>
<polygon fill="#ffffff" stroke="transparent" points="-36,36 -36,-151 776,-151 776,36 -36,36"/>
<!-- n0 -->
<g id="node1" class="node">
<title>n0</title>
<path fill="#e8f4f8" stroke="black" d="M64,-75C64,-75 12,-75 12,-75 6,-75 0,-69 0,-63 0,-63 0,-51 0,-51 0,-45 6,-39 12,-39 12,-39 64,-39 64,-39 70,-39 76,-45 76,-51 76,-51 76,-63 76,-63 76,-69 70,-75 64,-75"/>
<text text-anchor="middle" x="38" y="-54.2" font-family="Helvetica" font-size="11.00">onStartup</text>
</g>
<!-- n1 -->
<g id="node2" class="node">
<title>n1</title>
<path fill="#c8e6c9" stroke="black" d="M223,-75C223,-75 146,-75 146,-75 140,-75 134,-69 134,-63 134,-63 134,-51 134,-51 134,-45 140,-39 146,-39 146,-39 223,-39 223,-39 229,-39 235,-45 235,-51 235,-51 235,-63 235,-63 235,-69 229,-75 223,-75"/>
<text text-anchor="middle" x="184.5" y="-54.2" font-family="Helvetica" font-size="11.00">Start Log Audit</text>
</g>
<!-- n0&#45;&gt;n1 -->
<g id="edge1" class="edge">
<title>n0&#45;&gt;n1</title>
<path fill="none" stroke="#555555" d="M76.21,-57C90.62,-57 107.47,-57 123.5,-57"/>
<polygon fill="#555555" stroke="#555555" points="123.88,-60.5 133.88,-57 123.88,-53.5 123.88,-60.5"/>
</g>
<!-- n5 -->
<g id="node6" class="node">
<title>n5</title>
<path fill="#e8f4f8" stroke="black" d="M427,-75C427,-75 305,-75 305,-75 299,-75 293,-69 293,-63 293,-63 293,-51 293,-51 293,-45 299,-39 305,-39 305,-39 427,-39 427,-39 433,-39 439,-45 439,-51 439,-51 439,-63 439,-63 439,-69 433,-75 427,-75"/>
<text text-anchor="middle" x="366" y="-54.2" font-family="Helvetica" font-size="11.00">LoadAllOAMErrorCodes</text>
</g>
<!-- n1&#45;&gt;n5 -->
<g id="edge4" class="edge">
<title>n1&#45;&gt;n5</title>
<path fill="none" stroke="#555555" d="M235.02,-57C249.81,-57 266.42,-57 282.71,-57"/>
<polygon fill="#555555" stroke="#555555" points="282.79,-60.5 292.79,-57 282.79,-53.5 282.79,-60.5"/>
</g>
<!-- n2 -->
<g id="node3" class="node">
<title>n2</title>
<path fill="#e8f4f8" stroke="black" d="M616,-115C616,-115 509,-115 509,-115 503,-115 497,-109 497,-103 497,-103 497,-91 497,-91 497,-85 503,-79 509,-79 509,-79 616,-79 616,-79 622,-79 628,-85 628,-91 628,-91 628,-103 628,-103 628,-109 622,-115 616,-115"/>
<text text-anchor="middle" x="562.5" y="-94.2" font-family="Helvetica" font-size="11.00">Shutdown BWEngine</text>
</g>
<!-- n3 -->
<g id="node4" class="node">
<title>n3</title>
<path fill="#ffccbc" stroke="black" d="M728,-75C728,-75 698,-75 698,-75 692,-75 686,-69 686,-63 686,-63 686,-51 686,-51 686,-45 692,-39 698,-39 698,-39 728,-39 728,-39 734,-39 740,-45 740,-51 740,-51 740,-63 740,-63 740,-69 734,-75 728,-75"/>
<text text-anchor="middle" x="713" y="-54.2" font-family="Helvetica" font-size="11.00">End</text>
</g>
<!-- n2&#45;&gt;n3 -->
<g id="edge2" class="edge">
<title>n2&#45;&gt;n3</title>
<path fill="none" stroke="#555555" d="M628.2,-79.57C644.55,-75.17 661.54,-70.59 675.9,-66.72"/>
<polygon fill="#555555" stroke="#555555" points="677.11,-70.02 685.85,-64.04 675.29,-63.26 677.11,-70.02"/>
</g>
<!-- n4 -->
<g id="node5" class="node">
<title>n4</title>
<path fill="#ffccbc" stroke="black" d="M599,-36C599,-36 526,-36 526,-36 520,-36 514,-30 514,-24 514,-24 514,-12 514,-12 514,-6 520,0 526,0 526,0 599,0 599,0 605,0 611,-6 611,-12 611,-12 611,-24 611,-24 611,-30 605,-36 599,-36"/>
<text text-anchor="middle" x="562.5" y="-15.2" font-family="Helvetica" font-size="11.00">End Audit Log</text>
</g>
<!-- n4&#45;&gt;n3 -->
<g id="edge3" class="edge">
<title>n4&#45;&gt;n3</title>
<path fill="none" stroke="#555555" d="M611.3,-30.55C632.39,-36.09 656.74,-42.49 676.22,-47.6"/>
<polygon fill="#555555" stroke="#555555" points="675.35,-50.99 685.92,-50.15 677.13,-44.22 675.35,-50.99"/>
</g>
<!-- n5&#45;&gt;n2 -->
<g id="edge6" class="edge">
<title>n5&#45;&gt;n2</title>
<path fill="none" stroke="#555555" d="M439.15,-71.84C454.67,-75.03 471.1,-78.41 486.72,-81.62"/>
<polygon fill="#555555" stroke="#555555" points="486.35,-85.12 496.85,-83.7 487.76,-78.26 486.35,-85.12"/>
</g>
<!-- n5&#45;&gt;n4 -->
<g id="edge5" class="edge">
<title>n5&#45;&gt;n4</title>
<path fill="none" stroke="#555555" d="M439.15,-42.53C460.51,-38.25 483.61,-33.62 503.92,-29.54"/>
<polygon fill="#555555" stroke="#555555" points="504.84,-32.93 513.96,-27.53 503.47,-26.07 504.84,-32.93"/>
</g>
</g>
</svg>
