<?xml version="1.0" encoding="UTF-8" standalone="no"?>
<!DOCTYPE svg PUBLIC "-//W3C//DTD SVG 1.1//EN"
 "http://www.w3.org/Graphics/SVG/1.1/DTD/svg11.dtd">
<!-- Generated by graphviz version 2.44.0 (0)
 -->
<!-- Title: process Pages: 1 -->
<svg width="626pt" height="226pt"
 viewBox="0.00 0.00 626.00 226.00" xmlns="http://www.w3.org/2000/svg" xmlns:xlink="http://www.w3.org/1999/xlink">
<g id="graph0" class="graph" transform="scale(1 1) rotate(0) translate(36 190)">
<title>process</title>
<polygon fill="#ffffff" stroke="transparent" points="-36,36 -36,-190 590,-190 590,36 -36,36"/>
<!-- n0 -->
<g id="node1" class="node">
<title>n0</title>
<path fill="#c8e6c9" stroke="black" d="M42,-36C42,-36 12,-36 12,-36 6,-36 0,-30 0,-24 0,-24 0,-12 0,-12 0,-6 6,0 12,0 12,0 42,0 42,0 48,0 54,-6 54,-12 54,-12 54,-24 54,-24 54,-30 48,-36 42,-36"/>
<text text-anchor="middle" x="27" y="-15.2" font-family="Helvetica" font-size="11.00">start</text>
</g>
<!-- n1 -->
<g id="node2" class="node">
<title>n1</title>
<path fill="#ffcdd2" stroke="black" d="M220.5,-36C220.5,-36 143.5,-36 143.5,-36 137.5,-36 131.5,-30 131.5,-24 131.5,-24 131.5,-12 131.5,-12 131.5,-6 137.5,0 143.5,0 143.5,0 220.5,0 220.5,0 226.5,0 232.5,-6 232.5,-12 232.5,-12 232.5,-24 232.5,-24 232.5,-30 226.5,-36 220.5,-36"/>
<text text-anchor="middle" x="182" y="-15.2" font-family="Helvetica" font-size="11.00">Generate Error</text>
</g>
<!-- n0&#45;&gt;n1 -->
<g id="edge1" class="edge">
<title>n0&#45;&gt;n1</title>
<path fill="none" stroke="#555555" d="M54.3,-18C72.68,-18 97.99,-18 121.16,-18"/>
<polygon fill="#555555" stroke="#555555" points="121.27,-21.5 131.27,-18 121.27,-14.5 121.27,-21.5"/>
</g>
<!-- n2 -->
<g id="node3" class="node">
<title>n2</title>
<path fill="#e8f4f8" stroke="black" d="M240,-115C240,-115 124,-115 124,-115 118,-115 112,-109 112,-103 112,-103 112,-91 112,-91 112,-85 118,-79 124,-79 124,-79 240,-79 240,-79 246,-79 252,-85 252,-91 252,-91 252,-103 252,-103 252,-109 246,-115 240,-115"/>
<text text-anchor="middle" x="182" y="-94.2" font-family="Helvetica" font-size="11.00">Generate Process Path</text>
</g>
<!-- n3 -->
<g id="node4" class="node">
<title>n3</title>
<path fill="#e8f4f8" stroke="black" d="M373,-154C373,-154 322,-154 322,-154 316,-154 310,-148 310,-142 310,-142 310,-130 310,-130 310,-124 316,-118 322,-118 322,-118 373,-118 373,-118 379,-118 385,-124 385,-130 385,-130 385,-142 385,-142 385,-148 379,-154 373,-154"/>
<text text-anchor="middle" x="347.5" y="-133.2" font-family="Helvetica" font-size="11.00">Map Data</text>
</g>
<!-- n2&#45;&gt;n3 -->
<g id="edge2" class="edge">
<title>n2&#45;&gt;n3</title>
<path fill="none" stroke="#555555" d="M252.34,-113.54C268.32,-117.35 284.95,-121.32 299.71,-124.84"/>
<polygon fill="#555555" stroke="#555555" points="299.05,-128.28 309.59,-127.2 300.68,-121.47 299.05,-128.28"/>
</g>
<!-- n5 -->
<g id="node6" class="node">
<title>n5</title>
<path fill="#ffccbc" stroke="black" d="M362.5,-75C362.5,-75 332.5,-75 332.5,-75 326.5,-75 320.5,-69 320.5,-63 320.5,-63 320.5,-51 320.5,-51 320.5,-45 326.5,-39 332.5,-39 332.5,-39 362.5,-39 362.5,-39 368.5,-39 374.5,-45 374.5,-51 374.5,-51 374.5,-63 374.5,-63 374.5,-69 368.5,-75 362.5,-75"/>
<text text-anchor="middle" x="347.5" y="-54.2" font-family="Helvetica" font-size="11.00">End</text>
</g>
<!-- n2&#45;&gt;n5 -->
<g id="edge4" class="edge">
<title>n2&#45;&gt;n5</title>
<path fill="none" stroke="#555555" d="M252.34,-80.04C272.23,-75.17 293.13,-70.06 310.17,-65.89"/>
<polygon fill="#555555" stroke="#555555" points="311.35,-69.2 320.24,-63.43 309.69,-62.4 311.35,-69.2"/>
</g>
<!-- n6 -->
<g id="node7" class="node">
<title>n6</title>
<path fill="#ffcdd2" stroke="black" d="M542,-154C542,-154 455,-154 455,-154 449,-154 443,-148 443,-142 443,-142 443,-130 443,-130 443,-124 449,-118 455,-118 455,-118 542,-118 542,-118 548,-118 554,-124 554,-130 554,-130 554,-142 554,-142 554,-148 548,-154 542,-154"/>
<text text-anchor="middle" x="498.5" y="-133.2" font-family="Helvetica" font-size="11.00">Generate&#45;Error&#45;1</text>
</g>
<!-- n3&#45;&gt;n6 -->
<g id="edge5" class="edge">
<title>n3&#45;&gt;n6</title>
<path fill="none" stroke="#555555" d="M385.33,-136C399.68,-136 416.55,-136 432.79,-136"/>
<polygon fill="#555555" stroke="#555555" points="432.79,-139.5 442.79,-136 432.79,-132.5 432.79,-139.5"/>
</g>
<!-- n4 -->
<g id="node5" class="node">
<title>n4</title>
<path fill="#c8e6c9" stroke="black" d="M42,-115C42,-115 12,-115 12,-115 6,-115 0,-109 0,-103 0,-103 0,-91 0,-91 0,-85 6,-79 12,-79 12,-79 42,-79 42,-79 48,-79 54,-85 54,-91 54,-91 54,-103 54,-103 54,-109 48,-115 42,-115"/>
<text text-anchor="middle" x="27" y="-94.2" font-family="Helvetica" font-size="11.00">Start</text>
</g>
<!-- n4&#45;&gt;n2 -->
<g id="edge3" class="edge">
<title>n4&#45;&gt;n2</title>
<path fill="none" stroke="#555555" d="M54.3,-97C67.66,-97 84.67,-97 101.86,-97"/>
<polygon fill="#555555" stroke="#555555" points="101.97,-100.5 111.97,-97 101.97,-93.5 101.97,-100.5"/>
</g>
</g>
</svg>
