<?xml version="1.0" encoding="UTF-8" standalone="no"?>
<!DOCTYPE svg PUBLIC "-//W3C//DTD SVG 1.1//EN"
 "http://www.w3.org/Graphics/SVG/1.1/DTD/svg11.dtd">
<!-- Generated by graphviz version 2.44.0 (0)
 -->
<!-- Title: process Pages: 1 -->
<svg width="538pt" height="149pt"
 viewBox="0.00 0.00 538.00 149.00" xmlns="http://www.w3.org/2000/svg" xmlns:xlink="http://www.w3.org/1999/xlink">
<g id="graph0" class="graph" transform="scale(1 1) rotate(0) translate(36 113)">
<title>process</title>
<polygon fill="#ffffff" stroke="transparent" points="-36,36 -36,-113 502,-113 502,36 -36,36"/>
<!-- n0 -->
<g id="node1" class="node">
<title>n0</title>
<path fill="#c8e6c9" stroke="black" d="M42,-77C42,-77 12,-77 12,-77 6,-77 0,-71 0,-65 0,-65 0,-53 0,-53 0,-47 6,-41 12,-41 12,-41 42,-41 42,-41 48,-41 54,-47 54,-53 54,-53 54,-65 54,-65 54,-71 48,-77 42,-77"/>
<text text-anchor="middle" x="27" y="-56.2" font-family="Helvetica" font-size="11.00">Start</text>
</g>
<!-- n1 -->
<g id="node2" class="node">
<title>n1</title>
<path fill="#e8f4f8" stroke="black" d="M189,-77C189,-77 124,-77 124,-77 118,-77 112,-71 112,-65 112,-65 112,-53 112,-53 112,-47 118,-41 124,-41 124,-41 189,-41 189,-41 195,-41 201,-47 201,-53 201,-53 201,-65 201,-65 201,-71 195,-77 189,-77"/>
<text text-anchor="middle" x="156.5" y="-56.2" font-family="Helvetica" font-size="11.00">Parse JSON</text>
</g>
<!-- n0&#45;&gt;n1 -->
<g id="edge1" class="edge">
<title>n0&#45;&gt;n1</title>
<path fill="none" stroke="#555555" d="M54.11,-59C67.87,-59 85.26,-59 101.75,-59"/>
<polygon fill="#555555" stroke="#555555" points="101.85,-62.5 111.85,-59 101.85,-55.5 101.85,-62.5"/>
</g>
<!-- n2 -->
<g id="node3" class="node">
<title>n2</title>
<path fill="#ffccbc" stroke="black" d="M454,-77C454,-77 424,-77 424,-77 418,-77 412,-71 412,-65 412,-65 412,-53 412,-53 412,-47 418,-41 424,-41 424,-41 454,-41 454,-41 460,-41 466,-47 466,-53 466,-53 466,-65 466,-65 466,-71 460,-77 454,-77"/>
<text text-anchor="middle" x="439" y="-56.2" font-family="Helvetica" font-size="11.00">End</text>
</g>
<!-- n1&#45;&gt;n2 -->
<g id="edge2" class="edge">
<title>n1&#45;&gt;n2</title>
<path fill="none" stroke="#555555" d="M201.02,-59C256.16,-59 350.19,-59 401.67,-59"/>
<polygon fill="#555555" stroke="#555555" points="401.67,-62.5 411.67,-59 401.67,-55.5 401.67,-62.5"/>
</g>
<!-- n3 -->
<g id="node4" class="node">
<title>n3</title>
<path fill="#e8f4f8" stroke="black" d="M342,-36C342,-36 271,-36 271,-36 265,-36 259,-30 259,-24 259,-24 259,-12 259,-12 259,-6 265,0 271,0 271,0 342,0 342,0 348,0 354,-6 354,-12 354,-12 354,-24 354,-24 354,-30 348,-36 342,-36"/>
<text text-anchor="middle" x="306.5" y="-15.2" font-family="Helvetica" font-size="11.00">DecryptFields</text>
</g>
<!-- n1&#45;&gt;n3 -->
<g id="edge3" class="edge">
<title>n1&#45;&gt;n3</title>
<path fill="none" stroke="#555555" d="M201.1,-46.92C216.14,-42.75 233.21,-38.03 249.13,-33.62"/>
<polygon fill="#555555" stroke="#555555" points="250.15,-36.96 258.86,-30.92 248.28,-30.22 250.15,-36.96"/>
</g>
<!-- n3&#45;&gt;n2 -->
<g id="edge4" class="edge">
<title>n3&#45;&gt;n2</title>
<path fill="none" stroke="#555555" d="M354.24,-32.69C369.93,-37.61 387.18,-43.03 401.92,-47.66"/>
<polygon fill="#555555" stroke="#555555" points="401.09,-51.07 411.67,-50.73 403.18,-44.39 401.09,-51.07"/>
</g>
</g>
</svg>
