<?xml version="1.0" encoding="UTF-8" standalone="no"?>
<!DOCTYPE svg PUBLIC "-//W3C//DTD SVG 1.1//EN"
 "http://www.w3.org/Graphics/SVG/1.1/DTD/svg11.dtd">
<!-- Generated by graphviz version 2.44.0 (0)
 -->
<!-- Title: process Pages: 1 -->
<svg width="667pt" height="266pt"
 viewBox="0.00 0.00 667.00 266.00" xmlns="http://www.w3.org/2000/svg" xmlns:xlink="http://www.w3.org/1999/xlink">
<g id="graph0" class="graph" transform="scale(1 1) rotate(0) translate(36 230)">
<title>process</title>
<polygon fill="#ffffff" stroke="transparent" points="-36,36 -36,-230 631,-230 631,36 -36,36"/>
<!-- n0 -->
<g id="node1" class="node">
<title>n0</title>
<path fill="#c8e6c9" stroke="black" d="M42,-36C42,-36 12,-36 12,-36 6,-36 0,-30 0,-24 0,-24 0,-12 0,-12 0,-6 6,0 12,0 12,0 42,0 42,0 48,0 54,-6 54,-12 54,-12 54,-24 54,-24 54,-30 48,-36 42,-36"/>
<text text-anchor="middle" x="27" y="-15.2" font-family="Helvetica" font-size="11.00">start</text>
</g>
<!-- n1 -->
<g id="node2" class="node">
<title>n1</title>
<path fill="#e8f4f8" stroke="black" d="M250,-36C250,-36 124,-36 124,-36 118,-36 112,-30 112,-24 112,-24 112,-12 112,-12 112,-6 118,0 124,0 124,0 250,0 250,0 256,0 262,-6 262,-12 262,-12 262,-24 262,-24 262,-30 256,-36 250,-36"/>
<text text-anchor="middle" x="187" y="-15.2" font-family="Helvetica" font-size="11.00">Get OAG Codes from DB</text>
</g>
<!-- n0&#45;&gt;n1 -->
<g id="edge1" class="edge">
<title>n0&#45;&gt;n1</title>
<path fill="none" stroke="#555555" d="M54.09,-18C67.35,-18 84.3,-18 101.59,-18"/>
<polygon fill="#555555" stroke="#555555" points="101.78,-21.5 111.78,-18 101.78,-14.5 101.78,-21.5"/>
</g>
<!-- n2 -->
<g id="node3" class="node">
<title>n2</title>
<path fill="#e8f4f8" stroke="black" d="M409,-36C409,-36 347,-36 347,-36 341,-36 335,-30 335,-24 335,-24 335,-12 335,-12 335,-6 341,0 347,0 347,0 409,0 409,0 415,0 421,-6 421,-12 421,-12 421,-24 421,-24 421,-30 415,-36 409,-36"/>
<text text-anchor="middle" x="378" y="-15.2" font-family="Helvetica" font-size="11.00">StoreCodes</text>
</g>
<!-- n1&#45;&gt;n2 -->
<g id="edge3" class="edge">
<title>n1&#45;&gt;n2</title>
<path fill="none" stroke="#555555" d="M262.16,-18C283.11,-18 305.46,-18 324.82,-18"/>
<polygon fill="#555555" stroke="#555555" points="324.95,-21.5 334.95,-18 324.95,-14.5 324.95,-21.5"/>
</g>
<!-- n3 -->
<g id="node4" class="node">
<title>n3</title>
<path fill="#ffccbc" stroke="black" d="M559.5,-36C559.5,-36 529.5,-36 529.5,-36 523.5,-36 517.5,-30 517.5,-24 517.5,-24 517.5,-12 517.5,-12 517.5,-6 523.5,0 529.5,0 529.5,0 559.5,0 559.5,0 565.5,0 571.5,-6 571.5,-12 571.5,-12 571.5,-24 571.5,-24 571.5,-30 565.5,-36 559.5,-36"/>
<text text-anchor="middle" x="544.5" y="-15.2" font-family="Helvetica" font-size="11.00">end</text>
</g>
<!-- n2&#45;&gt;n3 -->
<g id="edge2" class="edge">
<title>n2&#45;&gt;n3</title>
<path fill="none" stroke="#555555" d="M421.36,-18C447.85,-18 481.62,-18 506.94,-18"/>
<polygon fill="#555555" stroke="#555555" points="507.22,-21.5 517.22,-18 507.22,-14.5 507.22,-21.5"/>
</g>
<!-- n4 -->
<g id="node5" class="node">
<title>n4</title>
<path fill="#c8e6c9" stroke="black" d="M42,-154C42,-154 12,-154 12,-154 6,-154 0,-148 0,-142 0,-142 0,-130 0,-130 0,-124 6,-118 12,-118 12,-118 42,-118 42,-118 48,-118 54,-124 54,-130 54,-130 54,-142 54,-142 54,-148 48,-154 42,-154"/>
<text text-anchor="middle" x="27" y="-133.2" font-family="Helvetica" font-size="11.00">Start</text>
</g>
<!-- n5 -->
<g id="node6" class="node">
<title>n5</title>
<path fill="#ffcdd2" stroke="black" d="M218,-154C218,-154 156,-154 156,-154 150,-154 144,-148 144,-142 144,-142 144,-130 144,-130 144,-124 150,-118 156,-118 156,-118 218,-118 218,-118 224,-118 230,-124 230,-130 230,-130 230,-142 230,-142 230,-148 224,-154 218,-154"/>
<text text-anchor="middle" x="187" y="-133.2" font-family="Helvetica" font-size="11.00">Error Group</text>
</g>
<!-- n4&#45;&gt;n5 -->
<g id="edge4" class="edge">
<title>n4&#45;&gt;n5</title>
<path fill="none" stroke="#555555" d="M54.09,-136C75.6,-136 106.8,-136 133.45,-136"/>
<polygon fill="#555555" stroke="#555555" points="133.8,-139.5 143.8,-136 133.8,-132.5 133.8,-139.5"/>
</g>
<!-- n6 -->
<g id="node7" class="node">
<title>n6</title>
<path fill="#ffccbc" stroke="black" d="M393,-194C393,-194 363,-194 363,-194 357,-194 351,-188 351,-182 351,-182 351,-170 351,-170 351,-164 357,-158 363,-158 363,-158 393,-158 393,-158 399,-158 405,-164 405,-170 405,-170 405,-182 405,-182 405,-188 399,-194 393,-194"/>
<text text-anchor="middle" x="378" y="-173.2" font-family="Helvetica" font-size="11.00">End</text>
</g>
<!-- n5&#45;&gt;n6 -->
<g id="edge5" class="edge">
<title>n5&#45;&gt;n6</title>
<path fill="none" stroke="#555555" d="M230.42,-144.98C263.56,-151.99 309.15,-161.64 340.64,-168.3"/>
<polygon fill="#555555" stroke="#555555" points="340.23,-171.8 350.74,-170.44 341.68,-164.95 340.23,-171.8"/>
</g>
<!-- n7 -->
<g id="node8" class="node">
<title>n7</title>
<path fill="#e8f4f8" stroke="black" d="M424,-115C424,-115 332,-115 332,-115 326,-115 320,-109 320,-103 320,-103 320,-91 320,-91 320,-85 326,-79 332,-79 332,-79 424,-79 424,-79 430,-79 436,-85 436,-91 436,-91 436,-103 436,-103 436,-109 430,-115 424,-115"/>
<text text-anchor="middle" x="378" y="-94.2" font-family="Helvetica" font-size="11.00">MapAnyException</text>
</g>
<!-- n5&#45;&gt;n7 -->
<g id="edge6" class="edge">
<title>n5&#45;&gt;n7</title>
<path fill="none" stroke="#555555" d="M230.42,-127.25C253.77,-122.43 283.3,-116.34 309.72,-110.88"/>
<polygon fill="#555555" stroke="#555555" points="310.59,-114.28 319.67,-108.83 309.17,-107.42 310.59,-114.28"/>
</g>
<!-- n8 -->
<g id="node9" class="node">
<title>n8</title>
<path fill="#ffcdd2" stroke="black" d="M583,-115C583,-115 506,-115 506,-115 500,-115 494,-109 494,-103 494,-103 494,-91 494,-91 494,-85 500,-79 506,-79 506,-79 583,-79 583,-79 589,-79 595,-85 595,-91 595,-91 595,-103 595,-103 595,-109 589,-115 583,-115"/>
<text text-anchor="middle" x="544.5" y="-94.2" font-family="Helvetica" font-size="11.00">Generate Error</text>
</g>
<!-- n7&#45;&gt;n8 -->
<g id="edge7" class="edge">
<title>n7&#45;&gt;n8</title>
<path fill="none" stroke="#555555" d="M436.07,-97C451.53,-97 468.29,-97 483.88,-97"/>
<polygon fill="#555555" stroke="#555555" points="483.93,-100.5 493.93,-97 483.93,-93.5 483.93,-100.5"/>
</g>
</g>
</svg>
