<?xml version="1.0" encoding="UTF-8" standalone="no"?>
<!DOCTYPE svg PUBLIC "-//W3C//DTD SVG 1.1//EN"
 "http://www.w3.org/Graphics/SVG/1.1/DTD/svg11.dtd">
<!-- Generated by graphviz version 2.44.0 (0)
 -->
<!-- Title: process Pages: 1 -->
<svg width="633pt" height="216pt"
 viewBox="0.00 0.00 633.00 215.69" xmlns="http://www.w3.org/2000/svg" xmlns:xlink="http://www.w3.org/1999/xlink">
<g id="graph0" class="graph" transform="scale(1 1) rotate(0) translate(36 179.69)">
<title>process</title>
<polygon fill="#ffffff" stroke="transparent" points="-36,36 -36,-179.69 597,-179.69 597,36 -36,36"/>
<!-- n0 -->
<g id="node1" class="node">
<title>n0</title>
<path fill="#c8e6c9" stroke="black" d="M42,-75C42,-75 12,-75 12,-75 6,-75 0,-69 0,-63 0,-63 0,-51 0,-51 0,-45 6,-39 12,-39 12,-39 42,-39 42,-39 48,-39 54,-45 54,-51 54,-51 54,-63 54,-63 54,-69 48,-75 42,-75"/>
<text text-anchor="middle" x="27" y="-54.2" font-family="Helvetica" font-size="11.00">Start</text>
</g>
<!-- n1 -->
<g id="node2" class="node">
<title>n1</title>
<path fill="#e8f4f8" stroke="black" d="M154,-117C154,-117 124,-117 124,-117 118,-117 112,-111 112,-105 112,-105 112,-93 112,-93 112,-87 118,-81 124,-81 124,-81 154,-81 154,-81 160,-81 166,-87 166,-93 166,-93 166,-105 166,-105 166,-111 160,-117 154,-117"/>
<text text-anchor="middle" x="139" y="-96.2" font-family="Helvetica" font-size="11.00">Null</text>
</g>
<!-- n0&#45;&gt;n1 -->
<g id="edge1" class="edge">
<title>n0&#45;&gt;n1</title>
<path fill="none" stroke="#555555" d="M54.07,-66.95C68.48,-72.46 86.61,-79.38 102.32,-85.38"/>
<polygon fill="#555555" stroke="#555555" points="101.15,-88.68 111.74,-88.97 103.64,-82.14 101.15,-88.68"/>
</g>
<!-- n3 -->
<g id="node4" class="node">
<title>n3</title>
<path fill="#ffccbc" stroke="black" d="M525.5,-36C525.5,-36 495.5,-36 495.5,-36 489.5,-36 483.5,-30 483.5,-24 483.5,-24 483.5,-12 483.5,-12 483.5,-6 489.5,0 495.5,0 495.5,0 525.5,0 525.5,0 531.5,0 537.5,-6 537.5,-12 537.5,-12 537.5,-24 537.5,-24 537.5,-30 531.5,-36 525.5,-36"/>
<text text-anchor="middle" x="510.5" y="-15.2" font-family="Helvetica" font-size="11.00">End</text>
</g>
<!-- n0&#45;&gt;n3 -->
<g id="edge4" class="edge">
<title>n0&#45;&gt;n3</title>
<path fill="none" stroke="#555555" d="M54.23,-54.88C135.01,-48.33 380.18,-28.47 473.19,-20.94"/>
<polygon fill="#555555" stroke="#555555" points="473.56,-24.42 483.25,-20.13 473,-17.45 473.56,-24.42"/>
</g>
<!-- n2 -->
<g id="node3" class="node">
<title>n2</title>
<path fill="#e8f4f8" stroke="black" d="M390,-117C390,-117 358,-117 358,-117 352,-117 346,-111 346,-105 346,-105 346,-93 346,-93 346,-87 352,-81 358,-81 358,-81 390,-81 390,-81 396,-81 402,-87 402,-93 402,-93 402,-105 402,-105 402,-111 396,-117 390,-117"/>
<text text-anchor="middle" x="374" y="-96.2" font-family="Helvetica" font-size="11.00">DES3</text>
</g>
<!-- n1&#45;&gt;n2 -->
<g id="edge6" class="edge">
<title>n1&#45;&gt;n2</title>
<path fill="none" stroke="#555555" d="M166.13,-115.17C182.18,-124.13 203.52,-134.37 224,-139 251.75,-145.27 260.24,-145.21 288,-139 304.71,-135.26 322.01,-127.86 336.61,-120.43"/>
<polygon fill="#555555" stroke="#555555" points="338.58,-123.35 345.78,-115.58 335.3,-117.17 338.58,-123.35"/>
</g>
<!-- n5 -->
<g id="node6" class="node">
<title>n5</title>
<path fill="#e8f4f8" stroke="black" d="M276,-117C276,-117 236,-117 236,-117 230,-117 224,-111 224,-105 224,-105 224,-93 224,-93 224,-87 230,-81 236,-81 236,-81 276,-81 276,-81 282,-81 288,-87 288,-93 288,-93 288,-105 288,-105 288,-111 282,-117 276,-117"/>
<text text-anchor="middle" x="256" y="-96.2" font-family="Helvetica" font-size="11.00">GetKey</text>
</g>
<!-- n1&#45;&gt;n5 -->
<g id="edge5" class="edge">
<title>n1&#45;&gt;n5</title>
<path fill="none" stroke="#555555" d="M166.1,-99C180.12,-99 197.74,-99 213.59,-99"/>
<polygon fill="#555555" stroke="#555555" points="213.69,-102.5 223.69,-99 213.69,-95.5 213.69,-102.5"/>
</g>
<!-- n2&#45;&gt;n3 -->
<g id="edge2" class="edge">
<title>n2&#45;&gt;n3</title>
<path fill="none" stroke="#555555" d="M402.22,-82.61C423.09,-70.04 452.05,-52.6 474.62,-39.01"/>
<polygon fill="#555555" stroke="#555555" points="476.48,-41.97 483.24,-33.82 472.87,-35.98 476.48,-41.97"/>
</g>
<!-- n4 -->
<g id="node5" class="node">
<title>n4</title>
<path fill="#ffcdd2" stroke="black" d="M549,-117C549,-117 472,-117 472,-117 466,-117 460,-111 460,-105 460,-105 460,-93 460,-93 460,-87 466,-81 472,-81 472,-81 549,-81 549,-81 555,-81 561,-87 561,-93 561,-93 561,-105 561,-105 561,-111 555,-117 549,-117"/>
<text text-anchor="middle" x="510.5" y="-96.2" font-family="Helvetica" font-size="11.00">Generate Error</text>
</g>
<!-- n2&#45;&gt;n4 -->
<g id="edge3" class="edge">
<title>n2&#45;&gt;n4</title>
<path fill="none" stroke="#555555" d="M402.22,-99C415.89,-99 433.02,-99 449.56,-99"/>
<polygon fill="#555555" stroke="#555555" points="449.74,-102.5 459.74,-99 449.74,-95.5 449.74,-102.5"/>
</g>
<!-- n5&#45;&gt;n2 -->
<g id="edge7" class="edge">
<title>n5&#45;&gt;n2</title>
<path fill="none" stroke="#555555" d="M288.09,-99C302.7,-99 320.24,-99 335.58,-99"/>
<polygon fill="#555555" stroke="#555555" points="335.78,-102.5 345.78,-99 335.78,-95.5 335.78,-102.5"/>
</g>
</g>
</svg>
