<?xml version="1.0" encoding="UTF-8" standalone="no"?>
<!DOCTYPE svg PUBLIC "-//W3C//DTD SVG 1.1//EN"
 "http://www.w3.org/Graphics/SVG/1.1/DTD/svg11.dtd">
<!-- Generated by graphviz version 2.44.0 (0)
 -->
<!-- Title: process Pages: 1 -->
<svg width="667pt" height="150pt"
 viewBox="0.00 0.00 667.00 150.00" xmlns="http://www.w3.org/2000/svg" xmlns:xlink="http://www.w3.org/1999/xlink">
<g id="graph0" class="graph" transform="scale(1 1) rotate(0) translate(36 114)">
<title>process</title>
<polygon fill="#ffffff" stroke="transparent" points="-36,36 -36,-114 631,-114 631,36 -36,36"/>
<!-- n0 -->
<g id="node1" class="node">
<title>n0</title>
<path fill="#e8f4f8" stroke="black" d="M64,-36C64,-36 12,-36 12,-36 6,-36 0,-30 0,-24 0,-24 0,-12 0,-12 0,-6 6,0 12,0 12,0 64,0 64,0 70,0 76,-6 76,-12 76,-12 76,-24 76,-24 76,-30 70,-36 64,-36"/>
<text text-anchor="middle" x="38" y="-15.2" font-family="Helvetica" font-size="11.00">onStartup</text>
</g>
<!-- n1 -->
<g id="node2" class="node">
<title>n1</title>
<path fill="#e8f4f8" stroke="black" d="M282,-36C282,-36 146,-36 146,-36 140,-36 134,-30 134,-24 134,-24 134,-12 134,-12 134,-6 140,0 146,0 146,0 282,0 282,0 288,0 294,-6 294,-12 294,-12 294,-24 294,-24 294,-30 288,-36 282,-36"/>
<text text-anchor="middle" x="214" y="-15.2" font-family="Helvetica" font-size="11.00">GetAddlResourceValidation</text>
</g>
<!-- n0&#45;&gt;n1 -->
<g id="edge1" class="edge">
<title>n0&#45;&gt;n1</title>
<path fill="none" stroke="#555555" d="M76.33,-18C90.3,-18 106.85,-18 123.52,-18"/>
<polygon fill="#555555" stroke="#555555" points="123.89,-21.5 133.89,-18 123.89,-14.5 123.89,-21.5"/>
</g>
<!-- n2 -->
<g id="node3" class="node">
<title>n2</title>
<path fill="#e8f4f8" stroke="black" d="M471,-78C471,-78 364,-78 364,-78 358,-78 352,-72 352,-66 352,-66 352,-54 352,-54 352,-48 358,-42 364,-42 364,-42 471,-42 471,-42 477,-42 483,-48 483,-54 483,-54 483,-66 483,-66 483,-72 477,-78 471,-78"/>
<text text-anchor="middle" x="417.5" y="-57.2" font-family="Helvetica" font-size="11.00">Shutdown BWEngine</text>
</g>
<!-- n1&#45;&gt;n2 -->
<g id="edge2" class="edge">
<title>n1&#45;&gt;n2</title>
<path fill="none" stroke="#555555" d="M294.06,-34.48C309.8,-37.76 326.28,-41.19 341.86,-44.44"/>
<polygon fill="#555555" stroke="#555555" points="341.45,-47.93 351.95,-46.55 342.88,-41.08 341.45,-47.93"/>
</g>
<!-- n3 -->
<g id="node4" class="node">
<title>n3</title>
<path fill="#ffccbc" stroke="black" d="M583,-36C583,-36 553,-36 553,-36 547,-36 541,-30 541,-24 541,-24 541,-12 541,-12 541,-6 547,0 553,0 553,0 583,0 583,0 589,0 595,-6 595,-12 595,-12 595,-24 595,-24 595,-30 589,-36 583,-36"/>
<text text-anchor="middle" x="568" y="-15.2" font-family="Helvetica" font-size="11.00">End</text>
</g>
<!-- n1&#45;&gt;n3 -->
<g id="edge3" class="edge">
<title>n1&#45;&gt;n3</title>
<path fill="none" stroke="#555555" d="M294.43,-18C368.35,-18 475.17,-18 530.58,-18"/>
<polygon fill="#555555" stroke="#555555" points="530.63,-21.5 540.63,-18 530.63,-14.5 530.63,-21.5"/>
</g>
<!-- n2&#45;&gt;n3 -->
<g id="edge4" class="edge">
<title>n2&#45;&gt;n3</title>
<path fill="none" stroke="#555555" d="M482.34,-41.94C499.07,-37.21 516.53,-32.28 531.21,-28.12"/>
<polygon fill="#555555" stroke="#555555" points="532.22,-31.47 540.89,-25.38 530.31,-24.74 532.22,-31.47"/>
</g>
</g>
</svg>
