<?xml version="1.0" encoding="UTF-8" standalone="no"?>
<!DOCTYPE svg PUBLIC "-//W3C//DTD SVG 1.1//EN"
 "http://www.w3.org/Graphics/SVG/1.1/DTD/svg11.dtd">
<!-- Generated by graphviz version 2.44.0 (0)
 -->
<!-- Title: process Pages: 1 -->
<svg width="775pt" height="149pt"
 viewBox="0.00 0.00 775.00 149.00" xmlns="http://www.w3.org/2000/svg" xmlns:xlink="http://www.w3.org/1999/xlink">
<g id="graph0" class="graph" transform="scale(1 1) rotate(0) translate(36 113)">
<title>process</title>
<polygon fill="#ffffff" stroke="transparent" points="-36,36 -36,-113 739,-113 739,36 -36,36"/>
<!-- n0 -->
<g id="node1" class="node">
<title>n0</title>
<path fill="#e8f4f8" stroke="black" d="M579,-36C579,-36 472,-36 472,-36 466,-36 460,-30 460,-24 460,-24 460,-12 460,-12 460,-6 466,0 472,0 472,0 579,0 579,0 585,0 591,-6 591,-12 591,-12 591,-24 591,-24 591,-30 585,-36 579,-36"/>
<text text-anchor="middle" x="525.5" y="-15.2" font-family="Helvetica" font-size="11.00">Shutdown BWEngine</text>
</g>
<!-- n1 -->
<g id="node2" class="node">
<title>n1</title>
<path fill="#ffccbc" stroke="black" d="M691,-77C691,-77 661,-77 661,-77 655,-77 649,-71 649,-65 649,-65 649,-53 649,-53 649,-47 655,-41 661,-41 661,-41 691,-41 691,-41 697,-41 703,-47 703,-53 703,-53 703,-65 703,-65 703,-71 697,-77 691,-77"/>
<text text-anchor="middle" x="676" y="-56.2" font-family="Helvetica" font-size="11.00">End</text>
</g>
<!-- n0&#45;&gt;n1 -->
<g id="edge1" class="edge">
<title>n0&#45;&gt;n1</title>
<path fill="none" stroke="#555555" d="M591.2,-35.86C607.55,-40.38 624.54,-45.07 638.9,-49.03"/>
<polygon fill="#555555" stroke="#555555" points="638.28,-52.49 648.85,-51.78 640.14,-45.75 638.28,-52.49"/>
</g>
<!-- n2 -->
<g id="node3" class="node">
<title>n2</title>
<path fill="#e8f4f8" stroke="black" d="M390,-36C390,-36 343,-36 343,-36 337,-36 331,-30 331,-24 331,-24 331,-12 331,-12 331,-6 337,0 343,0 343,0 390,0 390,0 396,0 402,-6 402,-12 402,-12 402,-24 402,-24 402,-30 396,-36 390,-36"/>
<text text-anchor="middle" x="366.5" y="-15.2" font-family="Helvetica" font-size="11.00">LogError</text>
</g>
<!-- n2&#45;&gt;n0 -->
<g id="edge2" class="edge">
<title>n2&#45;&gt;n0</title>
<path fill="none" stroke="#555555" d="M402.34,-18C416.33,-18 433.04,-18 449.53,-18"/>
<polygon fill="#555555" stroke="#555555" points="449.75,-21.5 459.75,-18 449.75,-14.5 449.75,-21.5"/>
</g>
<!-- n3 -->
<g id="node4" class="node">
<title>n3</title>
<path fill="#e8f4f8" stroke="black" d="M261,-77C261,-77 146,-77 146,-77 140,-77 134,-71 134,-65 134,-65 134,-53 134,-53 134,-47 140,-41 146,-41 146,-41 261,-41 261,-41 267,-41 273,-47 273,-53 273,-53 273,-65 273,-65 273,-71 267,-77 261,-77"/>
<text text-anchor="middle" x="203.5" y="-56.2" font-family="Helvetica" font-size="11.00">GetEncryptionKeyLoad</text>
</g>
<!-- n3&#45;&gt;n1 -->
<g id="edge5" class="edge">
<title>n3&#45;&gt;n1</title>
<path fill="none" stroke="#555555" d="M273.17,-59C374.38,-59 560.09,-59 638.52,-59"/>
<polygon fill="#555555" stroke="#555555" points="638.85,-62.5 648.85,-59 638.85,-55.5 638.85,-62.5"/>
</g>
<!-- n3&#45;&gt;n2 -->
<g id="edge3" class="edge">
<title>n3&#45;&gt;n2</title>
<path fill="none" stroke="#555555" d="M273.25,-41.49C289.36,-37.39 306.11,-33.12 320.85,-29.37"/>
<polygon fill="#555555" stroke="#555555" points="321.87,-32.72 330.7,-26.86 320.14,-25.94 321.87,-32.72"/>
</g>
<!-- n4 -->
<g id="node5" class="node">
<title>n4</title>
<path fill="#e8f4f8" stroke="black" d="M64,-77C64,-77 12,-77 12,-77 6,-77 0,-71 0,-65 0,-65 0,-53 0,-53 0,-47 6,-41 12,-41 12,-41 64,-41 64,-41 70,-41 76,-47 76,-53 76,-53 76,-65 76,-65 76,-71 70,-77 64,-77"/>
<text text-anchor="middle" x="38" y="-56.2" font-family="Helvetica" font-size="11.00">onStartup</text>
</g>
<!-- n4&#45;&gt;n3 -->
<g id="edge4" class="edge">
<title>n4&#45;&gt;n3</title>
<path fill="none" stroke="#555555" d="M76.1,-59C90.22,-59 106.91,-59 123.45,-59"/>
<polygon fill="#555555" stroke="#555555" points="123.7,-62.5 133.7,-59 123.7,-55.5 123.7,-62.5"/>
</g>
</g>
</svg>
