<?xml version="1.0" encoding="UTF-8" standalone="no"?>
<!DOCTYPE svg PUBLIC "-//W3C//DTD SVG 1.1//EN"
 "http://www.w3.org/Graphics/SVG/1.1/DTD/svg11.dtd">
<!-- Generated by graphviz version 2.44.0 (0)
 -->
<!-- Title: process Pages: 1 -->
<svg width="727pt" height="187pt"
 viewBox="0.00 0.00 727.00 187.00" xmlns="http://www.w3.org/2000/svg" xmlns:xlink="http://www.w3.org/1999/xlink">
<g id="graph0" class="graph" transform="scale(1 1) rotate(0) translate(36 151)">
<title>process</title>
<polygon fill="#ffffff" stroke="transparent" points="-36,36 -36,-151 691,-151 691,36 -36,36"/>
<!-- n0 -->
<g id="node1" class="node">
<title>n0</title>
<path fill="#c8e6c9" stroke="black" d="M42,-36C42,-36 12,-36 12,-36 6,-36 0,-30 0,-24 0,-24 0,-12 0,-12 0,-6 6,0 12,0 12,0 42,0 42,0 48,0 54,-6 54,-12 54,-12 54,-24 54,-24 54,-30 48,-36 42,-36"/>
<text text-anchor="middle" x="27" y="-15.2" font-family="Helvetica" font-size="11.00">start</text>
</g>
<!-- n1 -->
<g id="node2" class="node">
<title>n1</title>
<path fill="#e8f4f8" stroke="black" d="M188,-36C188,-36 124,-36 124,-36 118,-36 112,-30 112,-24 112,-24 112,-12 112,-12 112,-6 118,0 124,0 124,0 188,0 188,0 194,0 200,-6 200,-12 200,-12 200,-24 200,-24 200,-30 194,-36 188,-36"/>
<text text-anchor="middle" x="156" y="-15.2" font-family="Helvetica" font-size="11.00">EncryptData</text>
</g>
<!-- n0&#45;&gt;n1 -->
<g id="edge1" class="edge">
<title>n0&#45;&gt;n1</title>
<path fill="none" stroke="#555555" d="M54.01,-18C67.77,-18 85.19,-18 101.68,-18"/>
<polygon fill="#555555" stroke="#555555" points="101.78,-21.5 111.78,-18 101.78,-14.5 101.78,-21.5"/>
</g>
<!-- n2 -->
<g id="node3" class="node">
<title>n2</title>
<path fill="#ffccbc" stroke="black" d="M338.5,-36C338.5,-36 308.5,-36 308.5,-36 302.5,-36 296.5,-30 296.5,-24 296.5,-24 296.5,-12 296.5,-12 296.5,-6 302.5,0 308.5,0 308.5,0 338.5,0 338.5,0 344.5,0 350.5,-6 350.5,-12 350.5,-12 350.5,-24 350.5,-24 350.5,-30 344.5,-36 338.5,-36"/>
<text text-anchor="middle" x="323.5" y="-15.2" font-family="Helvetica" font-size="11.00">end</text>
</g>
<!-- n1&#45;&gt;n2 -->
<g id="edge2" class="edge">
<title>n1&#45;&gt;n2</title>
<path fill="none" stroke="#555555" d="M200.05,-18C226.7,-18 260.55,-18 285.9,-18"/>
<polygon fill="#555555" stroke="#555555" points="286.2,-21.5 296.2,-18 286.2,-14.5 286.2,-21.5"/>
</g>
<!-- n3 -->
<g id="node4" class="node">
<title>n3</title>
<path fill="#e8f4f8" stroke="black" d="M531,-115C531,-115 459,-115 459,-115 453,-115 447,-109 447,-103 447,-103 447,-91 447,-91 447,-85 453,-79 459,-79 459,-79 531,-79 531,-79 537,-79 543,-85 543,-91 543,-91 543,-103 543,-103 543,-109 537,-115 531,-115"/>
<text text-anchor="middle" x="495" y="-94.2" font-family="Helvetica" font-size="11.00">Render JSON</text>
</g>
<!-- n4 -->
<g id="node5" class="node">
<title>n4</title>
<path fill="#ffccbc" stroke="black" d="M643,-115C643,-115 613,-115 613,-115 607,-115 601,-109 601,-103 601,-103 601,-91 601,-91 601,-85 607,-79 613,-79 613,-79 643,-79 643,-79 649,-79 655,-85 655,-91 655,-91 655,-103 655,-103 655,-109 649,-115 643,-115"/>
<text text-anchor="middle" x="628" y="-94.2" font-family="Helvetica" font-size="11.00">End</text>
</g>
<!-- n3&#45;&gt;n4 -->
<g id="edge3" class="edge">
<title>n3&#45;&gt;n4</title>
<path fill="none" stroke="#555555" d="M543.29,-97C558.86,-97 575.92,-97 590.56,-97"/>
<polygon fill="#555555" stroke="#555555" points="590.73,-100.5 600.73,-97 590.73,-93.5 590.73,-100.5"/>
</g>
<!-- n5 -->
<g id="node6" class="node">
<title>n5</title>
<path fill="#e8f4f8" stroke="black" d="M377,-115C377,-115 270,-115 270,-115 264,-115 258,-109 258,-103 258,-103 258,-91 258,-91 258,-85 264,-79 270,-79 270,-79 377,-79 377,-79 383,-79 389,-85 389,-91 389,-91 389,-103 389,-103 389,-109 383,-115 377,-115"/>
<text text-anchor="middle" x="323.5" y="-94.2" font-family="Helvetica" font-size="11.00">GetHTTPStatusCode</text>
</g>
<!-- n5&#45;&gt;n3 -->
<g id="edge4" class="edge">
<title>n5&#45;&gt;n3</title>
<path fill="none" stroke="#555555" d="M389.06,-97C404.65,-97 421.2,-97 436.43,-97"/>
<polygon fill="#555555" stroke="#555555" points="436.75,-100.5 446.75,-97 436.75,-93.5 436.75,-100.5"/>
</g>
<!-- n6 -->
<g id="node7" class="node">
<title>n6</title>
<path fill="#c8e6c9" stroke="black" d="M42,-115C42,-115 12,-115 12,-115 6,-115 0,-109 0,-103 0,-103 0,-91 0,-91 0,-85 6,-79 12,-79 12,-79 42,-79 42,-79 48,-79 54,-85 54,-91 54,-91 54,-103 54,-103 54,-109 48,-115 42,-115"/>
<text text-anchor="middle" x="27" y="-94.2" font-family="Helvetica" font-size="11.00">Start</text>
</g>
<!-- n7 -->
<g id="node8" class="node">
<title>n7</title>
<path fill="#e8f4f8" stroke="black" d="M173.5,-115C173.5,-115 138.5,-115 138.5,-115 132.5,-115 126.5,-109 126.5,-103 126.5,-103 126.5,-91 126.5,-91 126.5,-85 132.5,-79 138.5,-79 138.5,-79 173.5,-79 173.5,-79 179.5,-79 185.5,-85 185.5,-91 185.5,-91 185.5,-103 185.5,-103 185.5,-109 179.5,-115 173.5,-115"/>
<text text-anchor="middle" x="156" y="-94.2" font-family="Helvetica" font-size="11.00">Group</text>
</g>
<!-- n6&#45;&gt;n7 -->
<g id="edge5" class="edge">
<title>n6&#45;&gt;n7</title>
<path fill="none" stroke="#555555" d="M54.01,-97C71.93,-97 96.06,-97 116.24,-97"/>
<polygon fill="#555555" stroke="#555555" points="116.37,-100.5 126.37,-97 116.37,-93.5 116.37,-100.5"/>
</g>
<!-- n7&#45;&gt;n5 -->
<g id="edge6" class="edge">
<title>n7&#45;&gt;n5</title>
<path fill="none" stroke="#555555" d="M185.83,-97C203.09,-97 225.91,-97 247.94,-97"/>
<polygon fill="#555555" stroke="#555555" points="247.99,-100.5 257.99,-97 247.99,-93.5 247.99,-100.5"/>
</g>
</g>
</svg>
