<?xml version="1.0" encoding="UTF-8" standalone="no"?>
<!DOCTYPE svg PUBLIC "-//W3C//DTD SVG 1.1//EN"
 "http://www.w3.org/Graphics/SVG/1.1/DTD/svg11.dtd">
<!-- Generated by graphviz version 2.44.0 (0)
 -->
<!-- Title: process Pages: 1 -->
<svg width="584pt" height="187pt"
 viewBox="0.00 0.00 584.00 187.00" xmlns="http://www.w3.org/2000/svg" xmlns:xlink="http://www.w3.org/1999/xlink">
<g id="graph0" class="graph" transform="scale(1 1) rotate(0) translate(36 151)">
<title>process</title>
<polygon fill="#ffffff" stroke="transparent" points="-36,36 -36,-151 548,-151 548,36 -36,36"/>
<!-- n0 -->
<g id="node1" class="node">
<title>n0</title>
<path fill="#c8e6c9" stroke="black" d="M42,-75C42,-75 12,-75 12,-75 6,-75 0,-69 0,-63 0,-63 0,-51 0,-51 0,-45 6,-39 12,-39 12,-39 42,-39 42,-39 48,-39 54,-45 54,-51 54,-51 54,-63 54,-63 54,-69 48,-75 42,-75"/>
<text text-anchor="middle" x="27" y="-54.2" font-family="Helvetica" font-size="11.00">Start</text>
</g>
<!-- n1 -->
<g id="node2" class="node">
<title>n1</title>
<path fill="#e8f4f8" stroke="black" d="M215,-75C215,-75 124,-75 124,-75 118,-75 112,-69 112,-63 112,-63 112,-51 112,-51 112,-45 118,-39 124,-39 124,-39 215,-39 215,-39 221,-39 227,-45 227,-51 227,-51 227,-63 227,-63 227,-69 221,-75 215,-75"/>
<text text-anchor="middle" x="169.5" y="-54.2" font-family="Helvetica" font-size="11.00">GetEncryptionKey</text>
</g>
<!-- n0&#45;&gt;n1 -->
<g id="edge1" class="edge">
<title>n0&#45;&gt;n1</title>
<path fill="none" stroke="#555555" d="M54.1,-57C67.57,-57 84.69,-57 101.55,-57"/>
<polygon fill="#555555" stroke="#555555" points="101.98,-60.5 111.98,-57 101.98,-53.5 101.98,-60.5"/>
</g>
<!-- n2 -->
<g id="node3" class="node">
<title>n2</title>
<path fill="#e8f4f8" stroke="black" d="M341,-75C341,-75 297,-75 297,-75 291,-75 285,-69 285,-63 285,-63 285,-51 285,-51 285,-45 291,-39 297,-39 297,-39 341,-39 341,-39 347,-39 353,-45 353,-51 353,-51 353,-63 353,-63 353,-69 347,-75 341,-75"/>
<text text-anchor="middle" x="319" y="-54.2" font-family="Helvetica" font-size="11.00">AES128</text>
</g>
<!-- n1&#45;&gt;n2 -->
<g id="edge4" class="edge">
<title>n1&#45;&gt;n2</title>
<path fill="none" stroke="#555555" d="M227.11,-57C242.8,-57 259.58,-57 274.4,-57"/>
<polygon fill="#555555" stroke="#555555" points="274.81,-60.5 284.81,-57 274.81,-53.5 274.81,-60.5"/>
</g>
<!-- n3 -->
<g id="node4" class="node">
<title>n3</title>
<path fill="#ffccbc" stroke="black" d="M476.5,-115C476.5,-115 446.5,-115 446.5,-115 440.5,-115 434.5,-109 434.5,-103 434.5,-103 434.5,-91 434.5,-91 434.5,-85 440.5,-79 446.5,-79 446.5,-79 476.5,-79 476.5,-79 482.5,-79 488.5,-85 488.5,-91 488.5,-91 488.5,-103 488.5,-103 488.5,-109 482.5,-115 476.5,-115"/>
<text text-anchor="middle" x="461.5" y="-94.2" font-family="Helvetica" font-size="11.00">End</text>
</g>
<!-- n2&#45;&gt;n3 -->
<g id="edge2" class="edge">
<title>n2&#45;&gt;n3</title>
<path fill="none" stroke="#555555" d="M353.3,-66.48C374.83,-72.61 402.84,-80.58 424.83,-86.84"/>
<polygon fill="#555555" stroke="#555555" points="423.89,-90.21 434.46,-89.59 425.8,-83.48 423.89,-90.21"/>
</g>
<!-- n4 -->
<g id="node5" class="node">
<title>n4</title>
<path fill="#ffcdd2" stroke="black" d="M500,-36C500,-36 423,-36 423,-36 417,-36 411,-30 411,-24 411,-24 411,-12 411,-12 411,-6 417,0 423,0 423,0 500,0 500,0 506,0 512,-6 512,-12 512,-12 512,-24 512,-24 512,-30 506,-36 500,-36"/>
<text text-anchor="middle" x="461.5" y="-15.2" font-family="Helvetica" font-size="11.00">Generate Error</text>
</g>
<!-- n2&#45;&gt;n4 -->
<g id="edge3" class="edge">
<title>n2&#45;&gt;n4</title>
<path fill="none" stroke="#555555" d="M353.3,-47.76C367.54,-43.8 384.62,-39.06 400.92,-34.54"/>
<polygon fill="#555555" stroke="#555555" points="402.23,-37.81 410.93,-31.76 400.36,-31.06 402.23,-37.81"/>
</g>
</g>
</svg>
