<?xml version="1.0" encoding="UTF-8" standalone="no"?>
<!DOCTYPE svg PUBLIC "-//W3C//DTD SVG 1.1//EN"
 "http://www.w3.org/Graphics/SVG/1.1/DTD/svg11.dtd">
<!-- Generated by graphviz version 2.44.0 (0)
 -->
<!-- Title: process Pages: 1 -->
<svg width="586pt" height="149pt"
 viewBox="0.00 0.00 586.00 149.00" xmlns="http://www.w3.org/2000/svg" xmlns:xlink="http://www.w3.org/1999/xlink">
<g id="graph0" class="graph" transform="scale(1 1) rotate(0) translate(36 113)">
<title>process</title>
<polygon fill="#ffffff" stroke="transparent" points="-36,36 -36,-113 550,-113 550,36 -36,36"/>
<!-- n0 -->
<g id="node1" class="node">
<title>n0</title>
<path fill="#c8e6c9" stroke="black" d="M42,-77C42,-77 12,-77 12,-77 6,-77 0,-71 0,-65 0,-65 0,-53 0,-53 0,-47 6,-41 12,-41 12,-41 42,-41 42,-41 48,-41 54,-47 54,-53 54,-53 54,-65 54,-65 54,-71 48,-77 42,-77"/>
<text text-anchor="middle" x="27" y="-56.2" font-family="Helvetica" font-size="11.00">Start</text>
</g>
<!-- n1 -->
<g id="node2" class="node">
<title>n1</title>
<path fill="#e8f4f8" stroke="black" d="M390,-77C390,-77 273,-77 273,-77 267,-77 261,-71 261,-65 261,-65 261,-53 261,-53 261,-47 267,-41 273,-41 273,-41 390,-41 390,-41 396,-41 402,-47 402,-53 402,-53 402,-65 402,-65 402,-71 396,-77 390,-77"/>
<text text-anchor="middle" x="331.5" y="-56.2" font-family="Helvetica" font-size="11.00">RenderResponseJSON</text>
</g>
<!-- n0&#45;&gt;n1 -->
<g id="edge1" class="edge">
<title>n0&#45;&gt;n1</title>
<path fill="none" stroke="#555555" d="M54.05,-59C97.24,-59 185.37,-59 250.57,-59"/>
<polygon fill="#555555" stroke="#555555" points="250.83,-62.5 260.83,-59 250.83,-55.5 250.83,-62.5"/>
</g>
<!-- n3 -->
<g id="node4" class="node">
<title>n3</title>
<path fill="#e8f4f8" stroke="black" d="M191,-36C191,-36 124,-36 124,-36 118,-36 112,-30 112,-24 112,-24 112,-12 112,-12 112,-6 118,0 124,0 124,0 191,0 191,0 197,0 203,-6 203,-12 203,-12 203,-24 203,-24 203,-30 197,-36 191,-36"/>
<text text-anchor="middle" x="157.5" y="-15.2" font-family="Helvetica" font-size="11.00">Encrypt Data</text>
</g>
<!-- n0&#45;&gt;n3 -->
<g id="edge4" class="edge">
<title>n0&#45;&gt;n3</title>
<path fill="none" stroke="#555555" d="M54,-50.7C67.86,-46.28 85.44,-40.67 102.12,-35.35"/>
<polygon fill="#555555" stroke="#555555" points="103.34,-38.64 111.8,-32.26 101.21,-31.97 103.34,-38.64"/>
</g>
<!-- n2 -->
<g id="node3" class="node">
<title>n2</title>
<path fill="#ffccbc" stroke="black" d="M502,-77C502,-77 472,-77 472,-77 466,-77 460,-71 460,-65 460,-65 460,-53 460,-53 460,-47 466,-41 472,-41 472,-41 502,-41 502,-41 508,-41 514,-47 514,-53 514,-53 514,-65 514,-65 514,-71 508,-77 502,-77"/>
<text text-anchor="middle" x="487" y="-56.2" font-family="Helvetica" font-size="11.00">End</text>
</g>
<!-- n1&#45;&gt;n2 -->
<g id="edge2" class="edge">
<title>n1&#45;&gt;n2</title>
<path fill="none" stroke="#555555" d="M402.06,-59C418.37,-59 435.12,-59 449.32,-59"/>
<polygon fill="#555555" stroke="#555555" points="449.63,-62.5 459.63,-59 449.63,-55.5 449.63,-62.5"/>
</g>
<!-- n3&#45;&gt;n1 -->
<g id="edge3" class="edge">
<title>n3&#45;&gt;n1</title>
<path fill="none" stroke="#555555" d="M203.24,-28.67C217.83,-32.14 234.5,-36.12 250.86,-40.02"/>
<polygon fill="#555555" stroke="#555555" points="250.44,-43.51 260.98,-42.43 252.06,-36.7 250.44,-43.51"/>
</g>
</g>
</svg>
