<?xml version="1.0" encoding="UTF-8" standalone="no"?>
<!DOCTYPE svg PUBLIC "-//W3C//DTD SVG 1.1//EN"
 "http://www.w3.org/Graphics/SVG/1.1/DTD/svg11.dtd">
<!-- Generated by graphviz version 2.44.0 (0)
 -->
<!-- Title: process Pages: 1 -->
<svg width="810pt" height="187pt"
 viewBox="0.00 0.00 810.00 187.00" xmlns="http://www.w3.org/2000/svg" xmlns:xlink="http://www.w3.org/1999/xlink">
<g id="graph0" class="graph" transform="scale(1 1) rotate(0) translate(36 151)">
<title>process</title>
<polygon fill="#ffffff" stroke="transparent" points="-36,36 -36,-151 774,-151 774,36 -36,36"/>
<!-- n0 -->
<g id="node1" class="node">
<title>n0</title>
<path fill="#e8f4f8" stroke="black" d="M64,-75C64,-75 12,-75 12,-75 6,-75 0,-69 0,-63 0,-63 0,-51 0,-51 0,-45 6,-39 12,-39 12,-39 64,-39 64,-39 70,-39 76,-45 76,-51 76,-51 76,-63 76,-63 76,-69 70,-75 64,-75"/>
<text text-anchor="middle" x="38" y="-54.2" font-family="Helvetica" font-size="11.00">onStartup</text>
</g>
<!-- n1 -->
<g id="node2" class="node">
<title>n1</title>
<path fill="#c8e6c9" stroke="black" d="M223,-75C223,-75 146,-75 146,-75 140,-75 134,-69 134,-63 134,-63 134,-51 134,-51 134,-45 140,-39 146,-39 146,-39 223,-39 223,-39 229,-39 235,-45 235,-51 235,-51 235,-63 235,-63 235,-69 229,-75 223,-75"/>
<text text-anchor="middle" x="184.5" y="-54.2" font-family="Helvetica" font-size="11.00">Start Log Audit</text>
</g>
<!-- n0&#45;&gt;n1 -->
<g id="edge1" class="edge">
<title>n0&#45;&gt;n1</title>
<path fill="none" stroke="#555555" d="M76.21,-57C90.62,-57 107.47,-57 123.5,-57"/>
<polygon fill="#555555" stroke="#555555" points="123.88,-60.5 133.88,-57 123.88,-53.5 123.88,-60.5"/>
</g>
<!-- n5 -->
<g id="node6" class="node">
<title>n5</title>
<path fill="#e8f4f8" stroke="black" d="M425,-75C425,-75 305,-75 305,-75 299,-75 293,-69 293,-63 293,-63 293,-51 293,-51 293,-45 299,-39 305,-39 305,-39 425,-39 425,-39 431,-39 437,-45 437,-51 437,-51 437,-63 437,-63 437,-69 431,-75 425,-75"/>
<text text-anchor="middle" x="365" y="-54.2" font-family="Helvetica" font-size="11.00">LoadAllOAGErrorCodes</text>
</g>
<!-- n1&#45;&gt;n5 -->
<g id="edge4" class="edge">
<title>n1&#45;&gt;n5</title>
<path fill="none" stroke="#555555" d="M235.22,-57C250,-57 266.59,-57 282.82,-57"/>
<polygon fill="#555555" stroke="#555555" points="282.87,-60.5 292.87,-57 282.86,-53.5 282.87,-60.5"/>
</g>
<!-- n2 -->
<g id="node3" class="node">
<title>n2</title>
<path fill="#e8f4f8" stroke="black" d="M614,-115C614,-115 507,-115 507,-115 501,-115 495,-109 495,-103 495,-103 495,-91 495,-91 495,-85 501,-79 507,-79 507,-79 614,-79 614,-79 620,-79 626,-85 626,-91 626,-91 626,-103 626,-103 626,-109 620,-115 614,-115"/>
<text text-anchor="middle" x="560.5" y="-94.2" font-family="Helvetica" font-size="11.00">Shutdown BWEngine</text>
</g>
<!-- n3 -->
<g id="node4" class="node">
<title>n3</title>
<path fill="#ffccbc" stroke="black" d="M726,-75C726,-75 696,-75 696,-75 690,-75 684,-69 684,-63 684,-63 684,-51 684,-51 684,-45 690,-39 696,-39 696,-39 726,-39 726,-39 732,-39 738,-45 738,-51 738,-51 738,-63 738,-63 738,-69 732,-75 726,-75"/>
<text text-anchor="middle" x="711" y="-54.2" font-family="Helvetica" font-size="11.00">End</text>
</g>
<!-- n2&#45;&gt;n3 -->
<g id="edge2" class="edge">
<title>n2&#45;&gt;n3</title>
<path fill="none" stroke="#555555" d="M626.2,-79.57C642.55,-75.17 659.54,-70.59 673.9,-66.72"/>
<polygon fill="#555555" stroke="#555555" points="675.11,-70.02 683.85,-64.04 673.29,-63.26 675.11,-70.02"/>
</g>
<!-- n4 -->
<g id="node5" class="node">
<title>n4</title>
<path fill="#ffccbc" stroke="black" d="M597,-36C597,-36 524,-36 524,-36 518,-36 512,-30 512,-24 512,-24 512,-12 512,-12 512,-6 518,0 524,0 524,0 597,0 597,0 603,0 609,-6 609,-12 609,-12 609,-24 609,-24 609,-30 603,-36 597,-36"/>
<text text-anchor="middle" x="560.5" y="-15.2" font-family="Helvetica" font-size="11.00">End Audit Log</text>
</g>
<!-- n4&#45;&gt;n3 -->
<g id="edge3" class="edge">
<title>n4&#45;&gt;n3</title>
<path fill="none" stroke="#555555" d="M609.3,-30.55C630.39,-36.09 654.74,-42.49 674.22,-47.6"/>
<polygon fill="#555555" stroke="#555555" points="673.35,-50.99 683.92,-50.15 675.13,-44.22 673.35,-50.99"/>
</g>
<!-- n5&#45;&gt;n2 -->
<g id="edge6" class="edge">
<title>n5&#45;&gt;n2</title>
<path fill="none" stroke="#555555" d="M437.23,-71.72C452.7,-74.92 469.1,-78.31 484.71,-81.54"/>
<polygon fill="#555555" stroke="#555555" points="484.32,-85.03 494.83,-83.63 485.74,-78.18 484.32,-85.03"/>
</g>
<!-- n5&#45;&gt;n4 -->
<g id="edge5" class="edge">
<title>n5&#45;&gt;n4</title>
<path fill="none" stroke="#555555" d="M437.23,-42.64C458.52,-38.35 481.59,-33.7 501.9,-29.61"/>
<polygon fill="#555555" stroke="#555555" points="502.82,-32.99 511.93,-27.59 501.44,-26.13 502.82,-32.99"/>
</g>
</g>
</svg>
