<?xml version="1.0" encoding="UTF-8" standalone="no"?>
<!DOCTYPE svg PUBLIC "-//W3C//DTD SVG 1.1//EN"
 "http://www.w3.org/Graphics/SVG/1.1/DTD/svg11.dtd">
<!-- Generated by graphviz version 2.44.0 (0)
 -->
<!-- Title: process Pages: 1 -->
<svg width="1330pt" height="602pt"
 viewBox="0.00 0.00 1330.00 602.00" xmlns="http://www.w3.org/2000/svg" xmlns:xlink="http://www.w3.org/1999/xlink">
<g id="graph0" class="graph" transform="scale(1 1) rotate(0) translate(36 566)">
<title>process</title>
<polygon fill="#ffffff" stroke="transparent" points="-36,36 -36,-566 1294,-566 1294,36 -36,36"/>
<!-- n0 -->
<g id="node1" class="node">
<title>n0</title>
<path fill="#e8f4f8" stroke="black" d="M108,-405C108,-405 12,-405 12,-405 6,-405 0,-399 0,-393 0,-393 0,-381 0,-381 0,-375 6,-369 12,-369 12,-369 108,-369 108,-369 114,-369 120,-375 120,-381 120,-381 120,-393 120,-393 120,-399 114,-405 108,-405"/>
<text text-anchor="middle" x="60" y="-384.2" font-family="Helvetica" font-size="11.00">SOAPEventSource</text>
</g>
<!-- n1 -->
<g id="node2" class="node">
<title>n1</title>
<path fill="#e8f4f8" stroke="black" d="M352,-405C352,-405 309,-405 309,-405 303,-405 297,-399 297,-393 297,-393 297,-381 297,-381 297,-375 303,-369 309,-369 309,-369 352,-369 352,-369 358,-369 364,-375 364,-381 364,-381 364,-393 364,-393 364,-399 358,-405 352,-405"/>
<text text-anchor="middle" x="330.5" y="-384.2" font-family="Helvetica" font-size="11.00">Confirm</text>
</g>
<!-- n0&#45;&gt;n1 -->
<g id="edge1" class="edge">
<title>n0&#45;&gt;n1</title>
<path fill="none" stroke="#555555" d="M120.26,-387C170.69,-387 241.91,-387 286.89,-387"/>
<polygon fill="#555555" stroke="#555555" points="286.9,-390.5 296.9,-387 286.9,-383.5 286.9,-390.5"/>
</g>
<!-- n9 -->
<g id="node14" class="node">
<title>n9</title>
<path fill="#e8f4f8" stroke="black" d="M227,-364C227,-364 190,-364 190,-364 184,-364 178,-358 178,-352 178,-352 178,-340 178,-340 178,-334 184,-328 190,-328 190,-328 227,-328 227,-328 233,-328 239,-334 239,-340 239,-340 239,-352 239,-352 239,-358 233,-364 227,-364"/>
<text text-anchor="middle" x="208.5" y="-343.2" font-family="Helvetica" font-size="11.00">Assign</text>
</g>
<!-- n0&#45;&gt;n9 -->
<g id="edge10" class="edge">
<title>n0&#45;&gt;n9</title>
<path fill="none" stroke="#555555" d="M120.16,-370.44C136.3,-365.93 153.37,-361.15 168.11,-357.02"/>
<polygon fill="#555555" stroke="#555555" points="169.21,-360.35 177.89,-354.29 167.32,-353.61 169.21,-360.35"/>
</g>
<!-- n6 -->
<g id="node11" class="node">
<title>n6</title>
<path fill="#e8f4f8" stroke="black" d="M556,-405C556,-405 434,-405 434,-405 428,-405 422,-399 422,-393 422,-393 422,-381 422,-381 422,-375 428,-369 434,-369 434,-369 556,-369 556,-369 562,-369 568,-375 568,-381 568,-381 568,-393 568,-393 568,-399 562,-405 556,-405"/>
<text text-anchor="middle" x="495" y="-384.2" font-family="Helvetica" font-size="11.00">Comp Invocation Details</text>
</g>
<!-- n1&#45;&gt;n6 -->
<g id="edge13" class="edge">
<title>n1&#45;&gt;n6</title>
<path fill="none" stroke="#555555" d="M364.38,-387C378.13,-387 394.78,-387 411.51,-387"/>
<polygon fill="#555555" stroke="#555555" points="411.9,-390.5 421.9,-387 411.9,-383.5 411.9,-390.5"/>
</g>
<!-- n10 -->
<g id="node3" class="node">
<title>n10</title>
<path fill="#e8f4f8" stroke="black" d="M996,-289C996,-289 903,-289 903,-289 897,-289 891,-283 891,-277 891,-277 891,-265 891,-265 891,-259 897,-253 903,-253 903,-253 996,-253 996,-253 1002,-253 1008,-259 1008,-265 1008,-265 1008,-277 1008,-277 1008,-283 1002,-289 996,-289"/>
<text text-anchor="middle" x="949.5" y="-268.2" font-family="Helvetica" font-size="11.00">SOAPSendFault&#45;1</text>
</g>
<!-- n11 -->
<g id="node4" class="node">
<title>n11</title>
<path fill="#e8f4f8" stroke="black" d="M1129,-364C1129,-364 1083,-364 1083,-364 1077,-364 1071,-358 1071,-352 1071,-352 1071,-340 1071,-340 1071,-334 1077,-328 1083,-328 1083,-328 1129,-328 1129,-328 1135,-328 1141,-334 1141,-340 1141,-340 1141,-352 1141,-352 1141,-358 1135,-364 1129,-364"/>
<text text-anchor="middle" x="1106" y="-343.2" font-family="Helvetica" font-size="11.00">LogFatal</text>
</g>
<!-- n10&#45;&gt;n11 -->
<g id="edge14" class="edge">
<title>n10&#45;&gt;n11</title>
<path fill="none" stroke="#555555" d="M987.9,-289.16C1010.11,-299.94 1038.38,-313.66 1061.58,-324.92"/>
<polygon fill="#555555" stroke="#555555" points="1060.32,-328.2 1070.85,-329.42 1063.38,-321.9 1060.32,-328.2"/>
</g>
<!-- n3 -->
<g id="node8" class="node">
<title>n3</title>
<path fill="#ffccbc" stroke="black" d="M1246,-281C1246,-281 1216,-281 1216,-281 1210,-281 1204,-275 1204,-269 1204,-269 1204,-257 1204,-257 1204,-251 1210,-245 1216,-245 1216,-245 1246,-245 1246,-245 1252,-245 1258,-251 1258,-257 1258,-257 1258,-269 1258,-269 1258,-275 1252,-281 1246,-281"/>
<text text-anchor="middle" x="1231" y="-260.2" font-family="Helvetica" font-size="11.00">End</text>
</g>
<!-- n10&#45;&gt;n3 -->
<g id="edge12" class="edge">
<title>n10&#45;&gt;n3</title>
<path fill="none" stroke="#555555" d="M1008.07,-269.35C1063.79,-267.76 1146.52,-265.39 1193.65,-264.04"/>
<polygon fill="#555555" stroke="#555555" points="1193.81,-267.54 1203.71,-263.75 1193.61,-260.54 1193.81,-267.54"/>
</g>
<!-- n11&#45;&gt;n3 -->
<g id="edge16" class="edge">
<title>n11&#45;&gt;n3</title>
<path fill="none" stroke="#555555" d="M1133.69,-327.99C1151.78,-315.78 1175.87,-299.52 1195.43,-286.33"/>
<polygon fill="#555555" stroke="#555555" points="1197.45,-289.18 1203.79,-280.69 1193.54,-283.38 1197.45,-289.18"/>
</g>
<!-- n12 -->
<g id="node5" class="node">
<title>n12</title>
<path fill="#ffccbc" stroke="black" d="M1132.5,-198C1132.5,-198 1079.5,-198 1079.5,-198 1073.5,-198 1067.5,-192 1067.5,-186 1067.5,-186 1067.5,-174 1067.5,-174 1067.5,-168 1073.5,-162 1079.5,-162 1079.5,-162 1132.5,-162 1132.5,-162 1138.5,-162 1144.5,-168 1144.5,-174 1144.5,-174 1144.5,-186 1144.5,-186 1144.5,-192 1138.5,-198 1132.5,-198"/>
<text text-anchor="middle" x="1106" y="-177.2" font-family="Helvetica" font-size="11.00">Reply&#45;BW</text>
</g>
<!-- n12&#45;&gt;n3 -->
<g id="edge18" class="edge">
<title>n12&#45;&gt;n3</title>
<path fill="none" stroke="#555555" d="M1133.69,-198.01C1151.78,-210.22 1175.87,-226.48 1195.43,-239.67"/>
<polygon fill="#555555" stroke="#555555" points="1193.54,-242.62 1203.79,-245.31 1197.45,-236.82 1193.54,-242.62"/>
</g>
<!-- n13 -->
<g id="node6" class="node">
<title>n13</title>
<path fill="#ffccbc" stroke="black" d="M1122,-530C1122,-530 1090,-530 1090,-530 1084,-530 1078,-524 1078,-518 1078,-518 1078,-506 1078,-506 1078,-500 1084,-494 1090,-494 1090,-494 1122,-494 1122,-494 1128,-494 1134,-500 1134,-506 1134,-506 1134,-518 1134,-518 1134,-524 1128,-530 1122,-530"/>
<text text-anchor="middle" x="1106" y="-509.2" font-family="Helvetica" font-size="11.00">Reply</text>
</g>
<!-- n13&#45;&gt;n3 -->
<g id="edge21" class="edge">
<title>n13&#45;&gt;n3</title>
<path fill="none" stroke="#555555" d="M1122.63,-493.9C1130.28,-484.49 1139.27,-472.56 1146,-461 1179.45,-403.53 1207.01,-330.2 1220.69,-290.89"/>
<polygon fill="#555555" stroke="#555555" points="1224.08,-291.79 1224.02,-281.2 1217.46,-289.52 1224.08,-291.79"/>
</g>
<!-- n2 -->
<g id="node7" class="node">
<title>n2</title>
<path fill="#ffccbc" stroke="black" d="M1134,-119C1134,-119 1078,-119 1078,-119 1072,-119 1066,-113 1066,-107 1066,-107 1066,-95 1066,-95 1066,-89 1072,-83 1078,-83 1078,-83 1134,-83 1134,-83 1140,-83 1146,-89 1146,-95 1146,-95 1146,-107 1146,-107 1146,-113 1140,-119 1134,-119"/>
<text text-anchor="middle" x="1106" y="-98.2" font-family="Helvetica" font-size="11.00">Reply&#45;DAL</text>
</g>
<!-- n2&#45;&gt;n3 -->
<g id="edge2" class="edge">
<title>n2&#45;&gt;n3</title>
<path fill="none" stroke="#555555" d="M1126.78,-119.37C1133.18,-125.67 1140.13,-132.92 1146,-140 1171.87,-171.2 1197.55,-210.31 1213.58,-235.94"/>
<polygon fill="#555555" stroke="#555555" points="1210.79,-238.08 1219.03,-244.74 1216.74,-234.39 1210.79,-238.08"/>
</g>
<!-- n4 -->
<g id="node9" class="node">
<title>n4</title>
<path fill="#e8f4f8" stroke="black" d="M709,-405C709,-405 638,-405 638,-405 632,-405 626,-399 626,-393 626,-393 626,-381 626,-381 626,-375 632,-369 638,-369 638,-369 709,-369 709,-369 715,-369 721,-375 721,-381 721,-381 721,-393 721,-393 721,-399 715,-405 709,-405"/>
<text text-anchor="middle" x="673.5" y="-384.2" font-family="Helvetica" font-size="11.00">SOAPService</text>
</g>
<!-- n4&#45;&gt;n13 -->
<g id="edge20" class="edge">
<title>n4&#45;&gt;n13</title>
<path fill="none" stroke="#555555" d="M721,-401.45C739.08,-407.01 759.99,-413.38 779,-419 883.57,-449.92 1007.54,-484.8 1068.05,-501.71"/>
<polygon fill="#555555" stroke="#555555" points="1067.33,-505.14 1077.9,-504.46 1069.21,-498.4 1067.33,-505.14"/>
</g>
<!-- n5 -->
<g id="node10" class="node">
<title>n5</title>
<path fill="#e8f4f8" stroke="black" d="M991,-405C991,-405 908,-405 908,-405 902,-405 896,-399 896,-393 896,-393 896,-381 896,-381 896,-375 902,-369 908,-369 908,-369 991,-369 991,-369 997,-369 1003,-375 1003,-381 1003,-381 1003,-393 1003,-393 1003,-399 997,-405 991,-405"/>
<text text-anchor="middle" x="949.5" y="-384.2" font-family="Helvetica" font-size="11.00">SOAPSendFault</text>
</g>
<!-- n4&#45;&gt;n5 -->
<g id="edge3" class="edge">
<title>n4&#45;&gt;n5</title>
<path fill="none" stroke="#555555" d="M721.29,-387C766.62,-387 835.67,-387 885.75,-387"/>
<polygon fill="#555555" stroke="#555555" points="885.82,-390.5 895.82,-387 885.82,-383.5 885.82,-390.5"/>
</g>
<!-- n7 -->
<g id="node12" class="node">
<title>n7</title>
<path fill="#e8f4f8" stroke="black" d="M821,-206C821,-206 791,-206 791,-206 785,-206 779,-200 779,-194 779,-194 779,-182 779,-182 779,-176 785,-170 791,-170 791,-170 821,-170 821,-170 827,-170 833,-176 833,-182 833,-182 833,-194 833,-194 833,-200 827,-206 821,-206"/>
<text text-anchor="middle" x="806" y="-185.2" font-family="Helvetica" font-size="11.00">Null</text>
</g>
<!-- n4&#45;&gt;n7 -->
<g id="edge9" class="edge">
<title>n4&#45;&gt;n7</title>
<path fill="none" stroke="#555555" d="M686.31,-368.99C709.4,-333.78 760.61,-255.69 787.59,-214.54"/>
<polygon fill="#555555" stroke="#555555" points="790.56,-216.4 793.12,-206.11 784.71,-212.56 790.56,-216.4"/>
</g>
<!-- n5&#45;&gt;n11 -->
<g id="edge15" class="edge">
<title>n5&#45;&gt;n11</title>
<path fill="none" stroke="#555555" d="M1003.24,-373C1022.12,-367.99 1043.18,-362.4 1061.22,-357.62"/>
<polygon fill="#555555" stroke="#555555" points="1062.14,-361 1070.9,-355.05 1060.34,-354.23 1062.14,-361"/>
</g>
<!-- n5&#45;&gt;n3 -->
<g id="edge4" class="edge">
<title>n5&#45;&gt;n3</title>
<path fill="none" stroke="#555555" d="M1003.1,-399.41C1044.41,-406.29 1102.09,-409.33 1146,-386 1183.75,-365.94 1207.77,-320.5 1220.06,-290.82"/>
<polygon fill="#555555" stroke="#555555" points="1223.35,-292 1223.78,-281.42 1216.84,-289.43 1223.35,-292"/>
</g>
<!-- n6&#45;&gt;n4 -->
<g id="edge5" class="edge">
<title>n6&#45;&gt;n4</title>
<path fill="none" stroke="#555555" d="M568.04,-387C583.92,-387 600.52,-387 615.7,-387"/>
<polygon fill="#555555" stroke="#555555" points="615.95,-390.5 625.95,-387 615.95,-383.5 615.95,-390.5"/>
</g>
<!-- n7&#45;&gt;n10 -->
<g id="edge19" class="edge">
<title>n7&#45;&gt;n10</title>
<path fill="none" stroke="#555555" d="M833.28,-203.42C854.47,-215.85 884.61,-233.53 908.75,-247.68"/>
<polygon fill="#555555" stroke="#555555" points="907.28,-250.88 917.68,-252.92 910.82,-244.84 907.28,-250.88"/>
</g>
<!-- n7&#45;&gt;n12 -->
<g id="edge17" class="edge">
<title>n7&#45;&gt;n12</title>
<path fill="none" stroke="#555555" d="M833.18,-187.3C883.37,-185.95 993.74,-182.99 1057.32,-181.28"/>
<polygon fill="#555555" stroke="#555555" points="1057.59,-184.77 1067.49,-181.01 1057.4,-177.78 1057.59,-184.77"/>
</g>
<!-- n7&#45;&gt;n2 -->
<g id="edge6" class="edge">
<title>n7&#45;&gt;n2</title>
<path fill="none" stroke="#555555" d="M833.18,-180.36C883.07,-165.79 992.41,-133.87 1056.17,-115.25"/>
<polygon fill="#555555" stroke="#555555" points="1057.38,-118.55 1066,-112.39 1055.42,-111.83 1057.38,-118.55"/>
</g>
<!-- n8 -->
<g id="node13" class="node">
<title>n8</title>
<path fill="#ffccbc" stroke="black" d="M985,-36C985,-36 914,-36 914,-36 908,-36 902,-30 902,-24 902,-24 902,-12 902,-12 902,-6 908,0 914,0 914,0 985,0 985,0 991,0 997,-6 997,-12 997,-12 997,-24 997,-24 997,-30 991,-36 985,-36"/>
<text text-anchor="middle" x="949.5" y="-15.2" font-family="Helvetica" font-size="11.00">Reply&#45;ClientB</text>
</g>
<!-- n7&#45;&gt;n8 -->
<g id="edge7" class="edge">
<title>n7&#45;&gt;n8</title>
<path fill="none" stroke="#555555" d="M818.04,-169.7C833.07,-145.48 861.49,-101.98 891,-69 899.19,-59.85 908.92,-50.68 918.03,-42.7"/>
<polygon fill="#555555" stroke="#555555" points="920.51,-45.19 925.82,-36.02 915.95,-39.87 920.51,-45.19"/>
</g>
<!-- n8&#45;&gt;n3 -->
<g id="edge8" class="edge">
<title>n8&#45;&gt;n3</title>
<path fill="none" stroke="#555555" d="M997.24,-16.62C1040.51,-17.8 1104.28,-26.1 1146,-61 1199.69,-105.91 1219.61,-190.86 1226.56,-234.91"/>
<polygon fill="#555555" stroke="#555555" points="1223.11,-235.54 1228.02,-244.93 1230.04,-234.53 1223.11,-235.54"/>
</g>
<!-- n9&#45;&gt;n1 -->
<g id="edge11" class="edge">
<title>n9&#45;&gt;n1</title>
<path fill="none" stroke="#555555" d="M239.16,-356.13C253.65,-361.08 271.33,-367.13 287.2,-372.55"/>
<polygon fill="#555555" stroke="#555555" points="286.21,-375.91 296.8,-375.83 288.47,-369.28 286.21,-375.91"/>
</g>
</g>
</svg>
