<?xml version="1.0" encoding="UTF-8" standalone="no"?>
<!DOCTYPE svg PUBLIC "-//W3C//DTD SVG 1.1//EN"
 "http://www.w3.org/Graphics/SVG/1.1/DTD/svg11.dtd">
<!-- Generated by graphviz version 2.44.0 (0)
 -->
<!-- Title: process Pages: 1 -->
<svg width="1162pt" height="266pt"
 viewBox="0.00 0.00 1162.00 266.00" xmlns="http://www.w3.org/2000/svg" xmlns:xlink="http://www.w3.org/1999/xlink">
<g id="graph0" class="graph" transform="scale(1 1) rotate(0) translate(36 230)">
<title>process</title>
<polygon fill="#ffffff" stroke="transparent" points="-36,36 -36,-230 1126,-230 1126,36 -36,36"/>
<!-- n0 -->
<g id="node1" class="node">
<title>n0</title>
<path fill="#c8e6c9" stroke="black" d="M42,-114C42,-114 12,-114 12,-114 6,-114 0,-108 0,-102 0,-102 0,-90 0,-90 0,-84 6,-78 12,-78 12,-78 42,-78 42,-78 48,-78 54,-84 54,-90 54,-90 54,-102 54,-102 54,-108 48,-114 42,-114"/>
<text text-anchor="middle" x="27" y="-93.2" font-family="Helvetica" font-size="11.00">Start</text>
</g>
<!-- n1 -->
<g id="node2" class="node">
<title>n1</title>
<path fill="#e8f4f8" stroke="black" d="M191,-114C191,-114 124,-114 124,-114 118,-114 112,-108 112,-102 112,-102 112,-90 112,-90 112,-84 118,-78 124,-78 124,-78 191,-78 191,-78 197,-78 203,-84 203,-90 203,-90 203,-102 203,-102 203,-108 197,-114 191,-114"/>
<text text-anchor="middle" x="157.5" y="-93.2" font-family="Helvetica" font-size="11.00">ValidateInput</text>
</g>
<!-- n0&#45;&gt;n1 -->
<g id="edge1" class="edge">
<title>n0&#45;&gt;n1</title>
<path fill="none" stroke="#555555" d="M54,-96C67.73,-96 85.12,-96 101.65,-96"/>
<polygon fill="#555555" stroke="#555555" points="101.8,-99.5 111.8,-96 101.8,-92.5 101.8,-99.5"/>
</g>
<!-- n2 -->
<g id="node4" class="node">
<title>n2</title>
<path fill="#e8f4f8" stroke="black" d="M361,-154C361,-154 273,-154 273,-154 267,-154 261,-148 261,-142 261,-142 261,-130 261,-130 261,-124 267,-118 273,-118 273,-118 361,-118 361,-118 367,-118 373,-124 373,-130 373,-130 373,-142 373,-142 373,-148 367,-154 361,-154"/>
<text text-anchor="middle" x="317" y="-133.2" font-family="Helvetica" font-size="11.00">InvokeGetIdentity</text>
</g>
<!-- n1&#45;&gt;n2 -->
<g id="edge2" class="edge">
<title>n1&#45;&gt;n2</title>
<path fill="none" stroke="#555555" d="M203.21,-107.36C218.05,-111.12 234.88,-115.4 250.93,-119.47"/>
<polygon fill="#555555" stroke="#555555" points="250.25,-122.91 260.8,-121.98 251.97,-116.13 250.25,-122.91"/>
</g>
<!-- n3 -->
<g id="node5" class="node">
<title>n3</title>
<path fill="#ffcdd2" stroke="black" d="M355.5,-75C355.5,-75 278.5,-75 278.5,-75 272.5,-75 266.5,-69 266.5,-63 266.5,-63 266.5,-51 266.5,-51 266.5,-45 272.5,-39 278.5,-39 278.5,-39 355.5,-39 355.5,-39 361.5,-39 367.5,-45 367.5,-51 367.5,-51 367.5,-63 367.5,-63 367.5,-69 361.5,-75 355.5,-75"/>
<text text-anchor="middle" x="317" y="-54.2" font-family="Helvetica" font-size="11.00">Generate Error</text>
</g>
<!-- n1&#45;&gt;n3 -->
<g id="edge3" class="edge">
<title>n1&#45;&gt;n3</title>
<path fill="none" stroke="#555555" d="M203.21,-84.93C219.71,-80.84 238.67,-76.15 256.29,-71.79"/>
<polygon fill="#555555" stroke="#555555" points="257.61,-75.06 266.47,-69.26 255.93,-68.27 257.61,-75.06"/>
</g>
<!-- n10 -->
<g id="node3" class="node">
<title>n10</title>
<path fill="#ffcdd2" stroke="black" d="M1078,-75C1078,-75 991,-75 991,-75 985,-75 979,-69 979,-63 979,-63 979,-51 979,-51 979,-45 985,-39 991,-39 991,-39 1078,-39 1078,-39 1084,-39 1090,-45 1090,-51 1090,-51 1090,-63 1090,-63 1090,-69 1084,-75 1078,-75"/>
<text text-anchor="middle" x="1034.5" y="-54.2" font-family="Helvetica" font-size="11.00">Generate&#45;Error&#45;1</text>
</g>
<!-- n4 -->
<g id="node6" class="node">
<title>n4</title>
<path fill="#e8f4f8" stroke="black" d="M567,-154C567,-154 443,-154 443,-154 437,-154 431,-148 431,-142 431,-142 431,-130 431,-130 431,-124 437,-118 443,-118 443,-118 567,-118 567,-118 573,-118 579,-124 579,-130 579,-130 579,-142 579,-142 579,-148 573,-154 567,-154"/>
<text text-anchor="middle" x="505" y="-133.2" font-family="Helvetica" font-size="11.00">InvokeGetContactDetails</text>
</g>
<!-- n2&#45;&gt;n4 -->
<g id="edge4" class="edge">
<title>n2&#45;&gt;n4</title>
<path fill="none" stroke="#555555" d="M373.05,-136C388.04,-136 404.62,-136 420.8,-136"/>
<polygon fill="#555555" stroke="#555555" points="420.81,-139.5 430.81,-136 420.81,-132.5 420.81,-139.5"/>
</g>
<!-- n5 -->
<g id="node7" class="node">
<title>n5</title>
<path fill="#e8f4f8" stroke="black" d="M720,-194C720,-194 649,-194 649,-194 643,-194 637,-188 637,-182 637,-182 637,-170 637,-170 637,-164 643,-158 649,-158 649,-158 720,-158 720,-158 726,-158 732,-164 732,-170 732,-170 732,-182 732,-182 732,-188 726,-194 720,-194"/>
<text text-anchor="middle" x="684.5" y="-173.2" font-family="Helvetica" font-size="11.00">DecryptFields</text>
</g>
<!-- n4&#45;&gt;n5 -->
<g id="edge5" class="edge">
<title>n4&#45;&gt;n5</title>
<path fill="none" stroke="#555555" d="M579.22,-152.5C595.2,-156.1 611.88,-159.86 627.08,-163.29"/>
<polygon fill="#555555" stroke="#555555" points="626.32,-166.7 636.84,-165.49 627.86,-159.87 626.32,-166.7"/>
</g>
<!-- n6 -->
<g id="node8" class="node">
<title>n6</title>
<path fill="#e8f4f8" stroke="black" d="M699.5,-115C699.5,-115 669.5,-115 669.5,-115 663.5,-115 657.5,-109 657.5,-103 657.5,-103 657.5,-91 657.5,-91 657.5,-85 663.5,-79 669.5,-79 669.5,-79 699.5,-79 699.5,-79 705.5,-79 711.5,-85 711.5,-91 711.5,-91 711.5,-103 711.5,-103 711.5,-109 705.5,-115 699.5,-115"/>
<text text-anchor="middle" x="684.5" y="-94.2" font-family="Helvetica" font-size="11.00">Null</text>
</g>
<!-- n4&#45;&gt;n6 -->
<g id="edge6" class="edge">
<title>n4&#45;&gt;n6</title>
<path fill="none" stroke="#555555" d="M579.22,-119.91C602.7,-114.75 627.67,-109.27 647.29,-104.96"/>
<polygon fill="#555555" stroke="#555555" points="648.29,-108.32 657.31,-102.76 646.79,-101.48 648.29,-108.32"/>
</g>
<!-- n7 -->
<g id="node9" class="node">
<title>n7</title>
<path fill="#ffccbc" stroke="black" d="M870.5,-194C870.5,-194 840.5,-194 840.5,-194 834.5,-194 828.5,-188 828.5,-182 828.5,-182 828.5,-170 828.5,-170 828.5,-164 834.5,-158 840.5,-158 840.5,-158 870.5,-158 870.5,-158 876.5,-158 882.5,-164 882.5,-170 882.5,-170 882.5,-182 882.5,-182 882.5,-188 876.5,-194 870.5,-194"/>
<text text-anchor="middle" x="855.5" y="-173.2" font-family="Helvetica" font-size="11.00">End</text>
</g>
<!-- n5&#45;&gt;n7 -->
<g id="edge7" class="edge">
<title>n5&#45;&gt;n7</title>
<path fill="none" stroke="#555555" d="M732.13,-176C759.31,-176 793.09,-176 818.27,-176"/>
<polygon fill="#555555" stroke="#555555" points="818.49,-179.5 828.49,-176 818.49,-172.5 818.49,-179.5"/>
</g>
<!-- n8 -->
<g id="node10" class="node">
<title>n8</title>
<path fill="#e8f4f8" stroke="black" d="M909,-115C909,-115 802,-115 802,-115 796,-115 790,-109 790,-103 790,-103 790,-91 790,-91 790,-85 796,-79 802,-79 802,-79 909,-79 909,-79 915,-79 921,-85 921,-91 921,-91 921,-103 921,-103 921,-109 915,-115 909,-115"/>
<text text-anchor="middle" x="855.5" y="-94.2" font-family="Helvetica" font-size="11.00">MapLegacyException</text>
</g>
<!-- n6&#45;&gt;n8 -->
<g id="edge8" class="edge">
<title>n6&#45;&gt;n8</title>
<path fill="none" stroke="#555555" d="M711.54,-97C729.76,-97 755.11,-97 779.41,-97"/>
<polygon fill="#555555" stroke="#555555" points="779.74,-100.5 789.74,-97 779.73,-93.5 779.74,-100.5"/>
</g>
<!-- n9 -->
<g id="node11" class="node">
<title>n9</title>
<path fill="#e8f4f8" stroke="black" d="M901.5,-36C901.5,-36 809.5,-36 809.5,-36 803.5,-36 797.5,-30 797.5,-24 797.5,-24 797.5,-12 797.5,-12 797.5,-6 803.5,0 809.5,0 809.5,0 901.5,0 901.5,0 907.5,0 913.5,-6 913.5,-12 913.5,-12 913.5,-24 913.5,-24 913.5,-30 907.5,-36 901.5,-36"/>
<text text-anchor="middle" x="855.5" y="-15.2" font-family="Helvetica" font-size="11.00">MapAnyException</text>
</g>
<!-- n6&#45;&gt;n9 -->
<g id="edge9" class="edge">
<title>n6&#45;&gt;n9</title>
<path fill="none" stroke="#555555" d="M711.54,-84.83C736.79,-73.02 775.72,-54.83 806.58,-40.4"/>
<polygon fill="#555555" stroke="#555555" points="808.29,-43.46 815.87,-36.06 805.33,-37.12 808.29,-43.46"/>
</g>
<!-- n8&#45;&gt;n10 -->
<g id="edge11" class="edge">
<title>n8&#45;&gt;n10</title>
<path fill="none" stroke="#555555" d="M921.15,-82.39C936.71,-78.87 953.32,-75.12 968.87,-71.6"/>
<polygon fill="#555555" stroke="#555555" points="969.94,-74.95 978.92,-69.33 968.39,-68.12 969.94,-74.95"/>
</g>
<!-- n9&#45;&gt;n10 -->
<g id="edge10" class="edge">
<title>n9&#45;&gt;n10</title>
<path fill="none" stroke="#555555" d="M913.97,-30.66C931.51,-34.53 950.92,-38.8 968.9,-42.77"/>
<polygon fill="#555555" stroke="#555555" points="968.21,-46.2 978.73,-44.93 969.72,-39.36 968.21,-46.2"/>
</g>
</g>
</svg>
