<?xml version="1.0" encoding="UTF-8" standalone="no"?>
<!DOCTYPE svg PUBLIC "-//W3C//DTD SVG 1.1//EN"
 "http://www.w3.org/Graphics/SVG/1.1/DTD/svg11.dtd">
<!-- Generated by graphviz version 2.44.0 (0)
 -->
<!-- Title: process Pages: 1 -->
<svg width="664pt" height="266pt"
 viewBox="0.00 0.00 664.00 266.00" xmlns="http://www.w3.org/2000/svg" xmlns:xlink="http://www.w3.org/1999/xlink">
<g id="graph0" class="graph" transform="scale(1 1) rotate(0) translate(36 230)">
<title>process</title>
<polygon fill="#ffffff" stroke="transparent" points="-36,36 -36,-230 628,-230 628,36 -36,36"/>
<!-- n0 -->
<g id="node1" class="node">
<title>n0</title>
<path fill="#c8e6c9" stroke="black" d="M42,-36C42,-36 12,-36 12,-36 6,-36 0,-30 0,-24 0,-24 0,-12 0,-12 0,-6 6,0 12,0 12,0 42,0 42,0 48,0 54,-6 54,-12 54,-12 54,-24 54,-24 54,-30 48,-36 42,-36"/>
<text text-anchor="middle" x="27" y="-15.2" font-family="Helvetica" font-size="11.00">start</text>
</g>
<!-- n1 -->
<g id="node2" class="node">
<title>n1</title>
<path fill="#e8f4f8" stroke="black" d="M247,-36C247,-36 124,-36 124,-36 118,-36 112,-30 112,-24 112,-24 112,-12 112,-12 112,-6 118,0 124,0 124,0 247,0 247,0 253,0 259,-6 259,-12 259,-12 259,-24 259,-24 259,-30 253,-36 247,-36"/>
<text text-anchor="middle" x="185.5" y="-15.2" font-family="Helvetica" font-size="11.00">Get OIM Codes from DB</text>
</g>
<!-- n0&#45;&gt;n1 -->
<g id="edge1" class="edge">
<title>n0&#45;&gt;n1</title>
<path fill="none" stroke="#555555" d="M54.19,-18C67.51,-18 84.5,-18 101.78,-18"/>
<polygon fill="#555555" stroke="#555555" points="101.96,-21.5 111.96,-18 101.96,-14.5 101.96,-21.5"/>
</g>
<!-- n2 -->
<g id="node3" class="node">
<title>n2</title>
<path fill="#e8f4f8" stroke="black" d="M405,-36C405,-36 345,-36 345,-36 339,-36 333,-30 333,-24 333,-24 333,-12 333,-12 333,-6 339,0 345,0 345,0 405,0 405,0 411,0 417,-6 417,-12 417,-12 417,-24 417,-24 417,-30 411,-36 405,-36"/>
<text text-anchor="middle" x="375" y="-15.2" font-family="Helvetica" font-size="11.00">SetVariable</text>
</g>
<!-- n1&#45;&gt;n2 -->
<g id="edge3" class="edge">
<title>n1&#45;&gt;n2</title>
<path fill="none" stroke="#555555" d="M259.26,-18C280.46,-18 303.18,-18 322.75,-18"/>
<polygon fill="#555555" stroke="#555555" points="322.98,-21.5 332.98,-18 322.98,-14.5 322.98,-21.5"/>
</g>
<!-- n3 -->
<g id="node4" class="node">
<title>n3</title>
<path fill="#ffccbc" stroke="black" d="M556.5,-36C556.5,-36 526.5,-36 526.5,-36 520.5,-36 514.5,-30 514.5,-24 514.5,-24 514.5,-12 514.5,-12 514.5,-6 520.5,0 526.5,0 526.5,0 556.5,0 556.5,0 562.5,0 568.5,-6 568.5,-12 568.5,-12 568.5,-24 568.5,-24 568.5,-30 562.5,-36 556.5,-36"/>
<text text-anchor="middle" x="541.5" y="-15.2" font-family="Helvetica" font-size="11.00">end</text>
</g>
<!-- n2&#45;&gt;n3 -->
<g id="edge2" class="edge">
<title>n2&#45;&gt;n3</title>
<path fill="none" stroke="#555555" d="M417.09,-18C443.85,-18 478.45,-18 504.2,-18"/>
<polygon fill="#555555" stroke="#555555" points="504.3,-21.5 514.3,-18 504.3,-14.5 504.3,-21.5"/>
</g>
<!-- n4 -->
<g id="node5" class="node">
<title>n4</title>
<path fill="#c8e6c9" stroke="black" d="M42,-154C42,-154 12,-154 12,-154 6,-154 0,-148 0,-142 0,-142 0,-130 0,-130 0,-124 6,-118 12,-118 12,-118 42,-118 42,-118 48,-118 54,-124 54,-130 54,-130 54,-142 54,-142 54,-148 48,-154 42,-154"/>
<text text-anchor="middle" x="27" y="-133.2" font-family="Helvetica" font-size="11.00">Start</text>
</g>
<!-- n5 -->
<g id="node6" class="node">
<title>n5</title>
<path fill="#ffcdd2" stroke="black" d="M216.5,-154C216.5,-154 154.5,-154 154.5,-154 148.5,-154 142.5,-148 142.5,-142 142.5,-142 142.5,-130 142.5,-130 142.5,-124 148.5,-118 154.5,-118 154.5,-118 216.5,-118 216.5,-118 222.5,-118 228.5,-124 228.5,-130 228.5,-130 228.5,-142 228.5,-142 228.5,-148 222.5,-154 216.5,-154"/>
<text text-anchor="middle" x="185.5" y="-133.2" font-family="Helvetica" font-size="11.00">Error Group</text>
</g>
<!-- n4&#45;&gt;n5 -->
<g id="edge4" class="edge">
<title>n4&#45;&gt;n5</title>
<path fill="none" stroke="#555555" d="M54.19,-136C75.4,-136 105.93,-136 132.11,-136"/>
<polygon fill="#555555" stroke="#555555" points="132.27,-139.5 142.27,-136 132.27,-132.5 132.27,-139.5"/>
</g>
<!-- n6 -->
<g id="node7" class="node">
<title>n6</title>
<path fill="#ffccbc" stroke="black" d="M390,-194C390,-194 360,-194 360,-194 354,-194 348,-188 348,-182 348,-182 348,-170 348,-170 348,-164 354,-158 360,-158 360,-158 390,-158 390,-158 396,-158 402,-164 402,-170 402,-170 402,-182 402,-182 402,-188 396,-194 390,-194"/>
<text text-anchor="middle" x="375" y="-173.2" font-family="Helvetica" font-size="11.00">End</text>
</g>
<!-- n5&#45;&gt;n6 -->
<g id="edge5" class="edge">
<title>n5&#45;&gt;n6</title>
<path fill="none" stroke="#555555" d="M228.58,-144.98C261.46,-151.99 306.68,-161.64 337.93,-168.3"/>
<polygon fill="#555555" stroke="#555555" points="337.44,-171.78 347.95,-170.44 338.9,-164.93 337.44,-171.78"/>
</g>
<!-- n7 -->
<g id="node8" class="node">
<title>n7</title>
<path fill="#e8f4f8" stroke="black" d="M421,-115C421,-115 329,-115 329,-115 323,-115 317,-109 317,-103 317,-103 317,-91 317,-91 317,-85 323,-79 329,-79 329,-79 421,-79 421,-79 427,-79 433,-85 433,-91 433,-91 433,-103 433,-103 433,-109 427,-115 421,-115"/>
<text text-anchor="middle" x="375" y="-94.2" font-family="Helvetica" font-size="11.00">MapAnyException</text>
</g>
<!-- n5&#45;&gt;n7 -->
<g id="edge6" class="edge">
<title>n5&#45;&gt;n7</title>
<path fill="none" stroke="#555555" d="M228.58,-127.25C251.65,-122.45 280.8,-116.39 306.93,-110.95"/>
<polygon fill="#555555" stroke="#555555" points="307.7,-114.37 316.78,-108.9 306.27,-107.51 307.7,-114.37"/>
</g>
<!-- n8 -->
<g id="node9" class="node">
<title>n8</title>
<path fill="#ffcdd2" stroke="black" d="M580,-115C580,-115 503,-115 503,-115 497,-115 491,-109 491,-103 491,-103 491,-91 491,-91 491,-85 497,-79 503,-79 503,-79 580,-79 580,-79 586,-79 592,-85 592,-91 592,-91 592,-103 592,-103 592,-109 586,-115 580,-115"/>
<text text-anchor="middle" x="541.5" y="-94.2" font-family="Helvetica" font-size="11.00">Generate Error</text>
</g>
<!-- n7&#45;&gt;n8 -->
<g id="edge7" class="edge">
<title>n7&#45;&gt;n8</title>
<path fill="none" stroke="#555555" d="M433.07,-97C448.53,-97 465.29,-97 480.88,-97"/>
<polygon fill="#555555" stroke="#555555" points="480.93,-100.5 490.93,-97 480.93,-93.5 480.93,-100.5"/>
</g>
</g>
</svg>
