<?xml version="1.0" encoding="UTF-8" standalone="no"?>
<!DOCTYPE svg PUBLIC "-//W3C//DTD SVG 1.1//EN"
 "http://www.w3.org/Graphics/SVG/1.1/DTD/svg11.dtd">
<!-- Generated by graphviz version 2.44.0 (0)
 -->
<!-- Title: process Pages: 1 -->
<svg width="597pt" height="266pt"
 viewBox="0.00 0.00 597.00 266.00" xmlns="http://www.w3.org/2000/svg" xmlns:xlink="http://www.w3.org/1999/xlink">
<g id="graph0" class="graph" transform="scale(1 1) rotate(0) translate(36 230)">
<title>process</title>
<polygon fill="#ffffff" stroke="transparent" points="-36,36 -36,-230 561,-230 561,36 -36,36"/>
<!-- n0 -->
<g id="node1" class="node">
<title>n0</title>
<path fill="#c8e6c9" stroke="black" d="M42,-115C42,-115 12,-115 12,-115 6,-115 0,-109 0,-103 0,-103 0,-91 0,-91 0,-85 6,-79 12,-79 12,-79 42,-79 42,-79 48,-79 54,-85 54,-91 54,-91 54,-103 54,-103 54,-109 48,-115 42,-115"/>
<text text-anchor="middle" x="27" y="-94.2" font-family="Helvetica" font-size="11.00">Start</text>
</g>
<!-- n1 -->
<g id="node2" class="node">
<title>n1</title>
<path fill="#e8f4f8" stroke="black" d="M180,-115C180,-115 124,-115 124,-115 118,-115 112,-109 112,-103 112,-103 112,-91 112,-91 112,-85 118,-79 124,-79 124,-79 180,-79 180,-79 186,-79 192,-85 192,-91 192,-91 192,-103 192,-103 192,-109 186,-115 180,-115"/>
<text text-anchor="middle" x="152" y="-94.2" font-family="Helvetica" font-size="11.00">Java Code</text>
</g>
<!-- n0&#45;&gt;n1 -->
<g id="edge1" class="edge">
<title>n0&#45;&gt;n1</title>
<path fill="none" stroke="#555555" d="M54.09,-97C67.85,-97 85.21,-97 101.42,-97"/>
<polygon fill="#555555" stroke="#555555" points="101.86,-100.5 111.86,-97 101.86,-93.5 101.86,-100.5"/>
</g>
<!-- n2 -->
<g id="node3" class="node">
<title>n2</title>
<path fill="#e8f4f8" stroke="black" d="M323,-194C323,-194 293,-194 293,-194 287,-194 281,-188 281,-182 281,-182 281,-170 281,-170 281,-164 287,-158 293,-158 293,-158 323,-158 323,-158 329,-158 335,-164 335,-170 335,-170 335,-182 335,-182 335,-188 329,-194 323,-194"/>
<text text-anchor="middle" x="308" y="-173.2" font-family="Helvetica" font-size="11.00">Log</text>
</g>
<!-- n1&#45;&gt;n2 -->
<g id="edge2" class="edge">
<title>n1&#45;&gt;n2</title>
<path fill="none" stroke="#555555" d="M188.33,-115.12C213.37,-127.97 246.82,-145.13 271.83,-157.96"/>
<polygon fill="#555555" stroke="#555555" points="270.47,-161.19 280.96,-162.64 273.66,-154.96 270.47,-161.19"/>
</g>
<!-- n4 -->
<g id="node5" class="node">
<title>n4</title>
<path fill="#e8f4f8" stroke="black" d="M354,-115C354,-115 262,-115 262,-115 256,-115 250,-109 250,-103 250,-103 250,-91 250,-91 250,-85 256,-79 262,-79 262,-79 354,-79 354,-79 360,-79 366,-85 366,-91 366,-91 366,-103 366,-103 366,-109 360,-115 354,-115"/>
<text text-anchor="middle" x="308" y="-94.2" font-family="Helvetica" font-size="11.00">MapAnyException</text>
</g>
<!-- n1&#45;&gt;n4 -->
<g id="edge4" class="edge">
<title>n1&#45;&gt;n4</title>
<path fill="none" stroke="#555555" d="M192.26,-97C206.72,-97 223.55,-97 239.78,-97"/>
<polygon fill="#555555" stroke="#555555" points="239.79,-100.5 249.79,-97 239.79,-93.5 239.79,-100.5"/>
</g>
<!-- n6 -->
<g id="node7" class="node">
<title>n6</title>
<path fill="#ffcdd2" stroke="black" d="M351.5,-36C351.5,-36 264.5,-36 264.5,-36 258.5,-36 252.5,-30 252.5,-24 252.5,-24 252.5,-12 252.5,-12 252.5,-6 258.5,0 264.5,0 264.5,0 351.5,0 351.5,0 357.5,0 363.5,-6 363.5,-12 363.5,-12 363.5,-24 363.5,-24 363.5,-30 357.5,-36 351.5,-36"/>
<text text-anchor="middle" x="308" y="-15.2" font-family="Helvetica" font-size="11.00">Generate&#45;Error&#45;1</text>
</g>
<!-- n1&#45;&gt;n6 -->
<g id="edge6" class="edge">
<title>n1&#45;&gt;n6</title>
<path fill="none" stroke="#555555" d="M188.33,-78.88C210.44,-67.54 239.1,-52.83 262.72,-40.71"/>
<polygon fill="#555555" stroke="#555555" points="264.53,-43.72 271.83,-36.04 261.34,-37.49 264.53,-43.72"/>
</g>
<!-- n3 -->
<g id="node4" class="node">
<title>n3</title>
<path fill="#ffccbc" stroke="black" d="M489.5,-194C489.5,-194 459.5,-194 459.5,-194 453.5,-194 447.5,-188 447.5,-182 447.5,-182 447.5,-170 447.5,-170 447.5,-164 453.5,-158 459.5,-158 459.5,-158 489.5,-158 489.5,-158 495.5,-158 501.5,-164 501.5,-170 501.5,-170 501.5,-182 501.5,-182 501.5,-188 495.5,-194 489.5,-194"/>
<text text-anchor="middle" x="474.5" y="-173.2" font-family="Helvetica" font-size="11.00">End</text>
</g>
<!-- n2&#45;&gt;n3 -->
<g id="edge3" class="edge">
<title>n2&#45;&gt;n3</title>
<path fill="none" stroke="#555555" d="M335.07,-176C362.54,-176 406.03,-176 436.93,-176"/>
<polygon fill="#555555" stroke="#555555" points="437.28,-179.5 447.28,-176 437.28,-172.5 437.28,-179.5"/>
</g>
<!-- n5 -->
<g id="node6" class="node">
<title>n5</title>
<path fill="#ffcdd2" stroke="black" d="M513,-115C513,-115 436,-115 436,-115 430,-115 424,-109 424,-103 424,-103 424,-91 424,-91 424,-85 430,-79 436,-79 436,-79 513,-79 513,-79 519,-79 525,-85 525,-91 525,-91 525,-103 525,-103 525,-109 519,-115 513,-115"/>
<text text-anchor="middle" x="474.5" y="-94.2" font-family="Helvetica" font-size="11.00">Generate Error</text>
</g>
<!-- n4&#45;&gt;n5 -->
<g id="edge5" class="edge">
<title>n4&#45;&gt;n5</title>
<path fill="none" stroke="#555555" d="M366.07,-97C381.53,-97 398.29,-97 413.88,-97"/>
<polygon fill="#555555" stroke="#555555" points="413.93,-100.5 423.93,-97 413.93,-93.5 413.93,-100.5"/>
</g>
</g>
</svg>
