<?xml version="1.0" encoding="UTF-8" standalone="no"?>
<!DOCTYPE svg PUBLIC "-//W3C//DTD SVG 1.1//EN"
 "http://www.w3.org/Graphics/SVG/1.1/DTD/svg11.dtd">
<!-- Generated by graphviz version 2.44.0 (0)
 -->
<!-- Title: process Pages: 1 -->
<svg width="2506pt" height="479pt"
 viewBox="0.00 0.00 2506.00 479.00" xmlns="http://www.w3.org/2000/svg" xmlns:xlink="http://www.w3.org/1999/xlink">
<g id="graph0" class="graph" transform="scale(1 1) rotate(0) translate(36 443)">
<title>process</title>
<polygon fill="#ffffff" stroke="transparent" points="-36,36 -36,-443 2470,-443 2470,36 -36,36"/>
<!-- n0 -->
<g id="node1" class="node">
<title>n0</title>
<path fill="#c8e6c9" stroke="black" d="M84,-76C84,-76 54,-76 54,-76 48,-76 42,-70 42,-64 42,-64 42,-52 42,-52 42,-46 48,-40 54,-40 54,-40 84,-40 84,-40 90,-40 96,-46 96,-52 96,-52 96,-64 96,-64 96,-70 90,-76 84,-76"/>
<text text-anchor="middle" x="69" y="-55.2" font-family="Helvetica" font-size="11.00">start</text>
</g>
<!-- n1 -->
<g id="node2" class="node">
<title>n1</title>
<path fill="#e8f4f8" stroke="black" d="M328.5,-115C328.5,-115 220.5,-115 220.5,-115 214.5,-115 208.5,-109 208.5,-103 208.5,-103 208.5,-91 208.5,-91 208.5,-85 214.5,-79 220.5,-79 220.5,-79 328.5,-79 328.5,-79 334.5,-79 340.5,-85 340.5,-91 340.5,-91 340.5,-103 340.5,-103 340.5,-109 334.5,-115 328.5,-115"/>
<text text-anchor="middle" x="274.5" y="-94.2" font-family="Helvetica" font-size="11.00">Custom&#45;RenderReply</text>
</g>
<!-- n0&#45;&gt;n1 -->
<g id="edge1" class="edge">
<title>n0&#45;&gt;n1</title>
<path fill="none" stroke="#555555" d="M96.19,-63.02C121.9,-67.95 162.35,-75.7 198.13,-82.55"/>
<polygon fill="#555555" stroke="#555555" points="197.6,-86.02 208.08,-84.46 198.91,-79.14 197.6,-86.02"/>
</g>
<!-- n4 -->
<g id="node20" class="node">
<title>n4</title>
<path fill="#e8f4f8" stroke="black" d="M341,-36C341,-36 208,-36 208,-36 202,-36 196,-30 196,-24 196,-24 196,-12 196,-12 196,-6 202,0 208,0 208,0 341,0 341,0 347,0 353,-6 353,-12 353,-12 353,-24 353,-24 353,-30 347,-36 341,-36"/>
<text text-anchor="middle" x="274.5" y="-15.2" font-family="Helvetica" font-size="11.00">Custom&#45;RenderErrorReply</text>
</g>
<!-- n0&#45;&gt;n4 -->
<g id="edge4" class="edge">
<title>n0&#45;&gt;n4</title>
<path fill="none" stroke="#555555" d="M96.19,-52.85C118.95,-48.38 153.28,-41.63 185.68,-35.26"/>
<polygon fill="#555555" stroke="#555555" points="186.52,-38.66 195.66,-33.3 185.17,-31.79 186.52,-38.66"/>
</g>
<!-- n2 -->
<g id="node13" class="node">
<title>n2</title>
<path fill="#e8f4f8" stroke="black" d="M507,-115C507,-115 428,-115 428,-115 422,-115 416,-109 416,-103 416,-103 416,-91 416,-91 416,-85 422,-79 428,-79 428,-79 507,-79 507,-79 513,-79 519,-85 519,-91 519,-91 519,-103 519,-103 519,-109 513,-115 507,-115"/>
<text text-anchor="middle" x="467.5" y="-94.2" font-family="Helvetica" font-size="11.00">OperationReply</text>
</g>
<!-- n1&#45;&gt;n2 -->
<g id="edge3" class="edge">
<title>n1&#45;&gt;n2</title>
<path fill="none" stroke="#555555" d="M340.7,-97C361.68,-97 384.85,-97 405.52,-97"/>
<polygon fill="#555555" stroke="#555555" points="405.76,-100.5 415.76,-97 405.76,-93.5 405.76,-100.5"/>
</g>
<!-- n10 -->
<g id="node3" class="node">
<title>n10</title>
<path fill="#e8f4f8" stroke="black" d="M710,-285C710,-285 594,-285 594,-285 588,-285 582,-279 582,-273 582,-273 582,-261 582,-261 582,-255 588,-249 594,-249 594,-249 710,-249 710,-249 716,-249 722,-255 722,-261 722,-261 722,-273 722,-273 722,-279 716,-285 710,-285"/>
<text text-anchor="middle" x="652" y="-264.2" font-family="Helvetica" font-size="11.00">Prep Invocation Details</text>
</g>
<!-- n23 -->
<g id="node17" class="node">
<title>n23</title>
<path fill="#e8f4f8" stroke="black" d="M905,-285C905,-285 792,-285 792,-285 786,-285 780,-279 780,-273 780,-273 780,-261 780,-261 780,-255 786,-249 792,-249 792,-249 905,-249 905,-249 911,-249 917,-255 917,-261 917,-261 917,-273 917,-273 917,-279 911,-285 905,-285"/>
<text text-anchor="middle" x="848.5" y="-264.2" font-family="Helvetica" font-size="11.00">Custom&#45;ParseRequest</text>
</g>
<!-- n10&#45;&gt;n23 -->
<g id="edge30" class="edge">
<title>n10&#45;&gt;n23</title>
<path fill="none" stroke="#555555" d="M722.12,-267C737.53,-267 753.96,-267 769.69,-267"/>
<polygon fill="#555555" stroke="#555555" points="769.91,-270.5 779.91,-267 769.91,-263.5 769.91,-270.5"/>
</g>
<!-- n11 -->
<g id="node4" class="node">
<title>n11</title>
<path fill="#ffcdd2" stroke="black" d="M2041,-245C2041,-245 1889,-245 1889,-245 1883,-245 1877,-239 1877,-233 1877,-233 1877,-221 1877,-221 1877,-215 1883,-209 1889,-209 1889,-209 2041,-209 2041,-209 2047,-209 2053,-215 2053,-221 2053,-221 2053,-233 2053,-233 2053,-239 2047,-245 2041,-245"/>
<text text-anchor="middle" x="1965" y="-224.2" font-family="Helvetica" font-size="11.00">Call Service Exception Handler</text>
</g>
<!-- n12 -->
<g id="node5" class="node">
<title>n12</title>
<path fill="#e8f4f8" stroke="black" d="M2169,-158C2169,-158 2136,-158 2136,-158 2130,-158 2124,-152 2124,-146 2124,-146 2124,-134 2124,-134 2124,-128 2130,-122 2136,-122 2136,-122 2169,-122 2169,-122 2175,-122 2181,-128 2181,-134 2181,-134 2181,-146 2181,-146 2181,-152 2175,-158 2169,-158"/>
<text text-anchor="middle" x="2152.5" y="-137.2" font-family="Helvetica" font-size="11.00">Null&#45;1</text>
</g>
<!-- n11&#45;&gt;n12 -->
<g id="edge11" class="edge">
<title>n11&#45;&gt;n12</title>
<path fill="none" stroke="#555555" d="M2004.44,-208.97C2036.75,-193.82 2082.64,-172.29 2114.54,-157.34"/>
<polygon fill="#555555" stroke="#555555" points="2116.39,-160.33 2123.95,-152.92 2113.41,-154 2116.39,-160.33"/>
</g>
<!-- n18 -->
<g id="node11" class="node">
<title>n18</title>
<path fill="#ffccbc" stroke="black" d="M2182,-324C2182,-324 2123,-324 2123,-324 2117,-324 2111,-318 2111,-312 2111,-312 2111,-300 2111,-300 2111,-294 2117,-288 2123,-288 2123,-288 2182,-288 2182,-288 2188,-288 2194,-294 2194,-300 2194,-300 2194,-312 2194,-312 2194,-318 2188,-324 2182,-324"/>
<text text-anchor="middle" x="2152.5" y="-303.2" font-family="Helvetica" font-size="11.00">Reply Error</text>
</g>
<!-- n11&#45;&gt;n18 -->
<g id="edge16" class="edge">
<title>n11&#45;&gt;n18</title>
<path fill="none" stroke="#555555" d="M2008.56,-245.12C2036.14,-256.87 2072.19,-272.23 2101.19,-284.57"/>
<polygon fill="#555555" stroke="#555555" points="2100.16,-287.94 2110.73,-288.64 2102.9,-281.5 2100.16,-287.94"/>
</g>
<!-- n13 -->
<g id="node6" class="node">
<title>n13</title>
<path fill="#e8f4f8" stroke="black" d="M2310,-241C2310,-241 2264,-241 2264,-241 2258,-241 2252,-235 2252,-229 2252,-229 2252,-217 2252,-217 2252,-211 2258,-205 2264,-205 2264,-205 2310,-205 2310,-205 2316,-205 2322,-211 2322,-217 2322,-217 2322,-229 2322,-229 2322,-235 2316,-241 2310,-241"/>
<text text-anchor="middle" x="2287" y="-220.2" font-family="Helvetica" font-size="11.00">LogFatal</text>
</g>
<!-- n12&#45;&gt;n13 -->
<g id="edge12" class="edge">
<title>n12&#45;&gt;n13</title>
<path fill="none" stroke="#555555" d="M2181.28,-157.4C2200.75,-169.6 2227.01,-186.05 2248.37,-199.43"/>
<polygon fill="#555555" stroke="#555555" points="2246.55,-202.42 2256.88,-204.76 2250.27,-196.49 2246.55,-202.42"/>
</g>
<!-- n19 -->
<g id="node12" class="node">
<title>n19</title>
<path fill="#ffccbc" stroke="black" d="M2422,-324C2422,-324 2392,-324 2392,-324 2386,-324 2380,-318 2380,-312 2380,-312 2380,-300 2380,-300 2380,-294 2386,-288 2392,-288 2392,-288 2422,-288 2422,-288 2428,-288 2434,-294 2434,-300 2434,-300 2434,-312 2434,-312 2434,-318 2428,-324 2422,-324"/>
<text text-anchor="middle" x="2407" y="-303.2" font-family="Helvetica" font-size="11.00">End</text>
</g>
<!-- n13&#45;&gt;n19 -->
<g id="edge24" class="edge">
<title>n13&#45;&gt;n19</title>
<path fill="none" stroke="#555555" d="M2313.6,-241.01C2330.65,-253 2353.24,-268.89 2371.82,-281.96"/>
<polygon fill="#555555" stroke="#555555" points="2369.85,-284.85 2380.04,-287.74 2373.87,-279.12 2369.85,-284.85"/>
</g>
<!-- n14 -->
<g id="node7" class="node">
<title>n14</title>
<path fill="#e8f4f8" stroke="black" d="M491,-368C491,-368 444,-368 444,-368 438,-368 432,-362 432,-356 432,-356 432,-344 432,-344 432,-338 438,-332 444,-332 444,-332 491,-332 491,-332 497,-332 503,-338 503,-344 503,-344 503,-356 503,-356 503,-362 497,-368 491,-368"/>
<text text-anchor="middle" x="467.5" y="-347.2" font-family="Helvetica" font-size="11.00">LogError</text>
</g>
<!-- n14&#45;&gt;n10 -->
<g id="edge25" class="edge">
<title>n14&#45;&gt;n10</title>
<path fill="none" stroke="#555555" d="M503.26,-334.19C531.19,-321.49 570.76,-303.49 601.92,-289.32"/>
<polygon fill="#555555" stroke="#555555" points="603.64,-292.38 611.3,-285.06 600.74,-286.01 603.64,-292.38"/>
</g>
<!-- n15 -->
<g id="node8" class="node">
<title>n15</title>
<path fill="#e8f4f8" stroke="black" d="M1313,-285C1313,-285 1191,-285 1191,-285 1185,-285 1179,-279 1179,-273 1179,-273 1179,-261 1179,-261 1179,-255 1185,-249 1191,-249 1191,-249 1313,-249 1313,-249 1319,-249 1325,-255 1325,-261 1325,-261 1325,-273 1325,-273 1325,-279 1319,-285 1313,-285"/>
<text text-anchor="middle" x="1252" y="-264.2" font-family="Helvetica" font-size="11.00">Comp Invocation Details</text>
</g>
<!-- n16 -->
<g id="node9" class="node">
<title>n16</title>
<path fill="#e8f4f8" stroke="black" d="M1461,-285C1461,-285 1415,-285 1415,-285 1409,-285 1403,-279 1403,-273 1403,-273 1403,-261 1403,-261 1403,-255 1409,-249 1415,-249 1415,-249 1461,-249 1461,-249 1467,-249 1473,-255 1473,-261 1473,-261 1473,-273 1473,-273 1473,-279 1467,-285 1461,-285"/>
<text text-anchor="middle" x="1438" y="-264.2" font-family="Helvetica" font-size="11.00">LogStart</text>
</g>
<!-- n15&#45;&gt;n16 -->
<g id="edge14" class="edge">
<title>n15&#45;&gt;n16</title>
<path fill="none" stroke="#555555" d="M1325.19,-267C1348,-267 1372.51,-267 1392.75,-267"/>
<polygon fill="#555555" stroke="#555555" points="1392.92,-270.5 1402.92,-267 1392.92,-263.5 1392.92,-270.5"/>
</g>
<!-- n17 -->
<g id="node10" class="node">
<title>n17</title>
<path fill="#e8f4f8" stroke="black" d="M1693,-285C1693,-285 1563,-285 1563,-285 1557,-285 1551,-279 1551,-273 1551,-273 1551,-261 1551,-261 1551,-255 1557,-249 1563,-249 1563,-249 1693,-249 1693,-249 1699,-249 1705,-255 1705,-261 1705,-261 1705,-273 1705,-273 1705,-279 1699,-285 1693,-285"/>
<text text-anchor="middle" x="1628" y="-264.2" font-family="Helvetica" font-size="11.00">Call Service Main Process</text>
</g>
<!-- n16&#45;&gt;n17 -->
<g id="edge19" class="edge">
<title>n16&#45;&gt;n17</title>
<path fill="none" stroke="#555555" d="M1473.05,-267C1492.03,-267 1516.6,-267 1540.53,-267"/>
<polygon fill="#555555" stroke="#555555" points="1540.72,-270.5 1550.72,-267 1540.72,-263.5 1540.72,-270.5"/>
</g>
<!-- n17&#45;&gt;n11 -->
<g id="edge15" class="edge">
<title>n17&#45;&gt;n11</title>
<path fill="none" stroke="#555555" d="M1705.02,-257.92C1752.89,-252.21 1815.13,-244.77 1866.61,-238.63"/>
<polygon fill="#555555" stroke="#555555" points="1867.24,-242.08 1876.75,-237.42 1866.41,-235.13 1867.24,-242.08"/>
</g>
<!-- n21 -->
<g id="node15" class="node">
<title>n21</title>
<path fill="#ffccbc" stroke="black" d="M1807,-368C1807,-368 1775,-368 1775,-368 1769,-368 1763,-362 1763,-356 1763,-356 1763,-344 1763,-344 1763,-338 1769,-332 1775,-332 1775,-332 1807,-332 1807,-332 1813,-332 1819,-338 1819,-344 1819,-344 1819,-356 1819,-356 1819,-362 1813,-368 1807,-368"/>
<text text-anchor="middle" x="1791" y="-347.2" font-family="Helvetica" font-size="11.00">Reply</text>
</g>
<!-- n17&#45;&gt;n21 -->
<g id="edge21" class="edge">
<title>n17&#45;&gt;n21</title>
<path fill="none" stroke="#555555" d="M1663.93,-285.01C1690.49,-298.7 1726.91,-317.48 1753.78,-331.33"/>
<polygon fill="#555555" stroke="#555555" points="1752.36,-334.53 1762.85,-336 1755.57,-328.31 1752.36,-334.53"/>
</g>
<!-- n18&#45;&gt;n13 -->
<g id="edge18" class="edge">
<title>n18&#45;&gt;n13</title>
<path fill="none" stroke="#555555" d="M2182.25,-287.99C2201.56,-275.89 2227.22,-259.82 2248.18,-246.69"/>
<polygon fill="#555555" stroke="#555555" points="2250.23,-249.54 2256.85,-241.26 2246.52,-243.6 2250.23,-249.54"/>
</g>
<!-- n18&#45;&gt;n19 -->
<g id="edge17" class="edge">
<title>n18&#45;&gt;n19</title>
<path fill="none" stroke="#555555" d="M2194.07,-306C2242.57,-306 2323.01,-306 2369.59,-306"/>
<polygon fill="#555555" stroke="#555555" points="2369.83,-309.5 2379.83,-306 2369.83,-302.5 2369.83,-309.5"/>
</g>
<!-- n20 -->
<g id="node14" class="node">
<title>n20</title>
<path fill="#e8f4f8" stroke="black" d="M2308,-407C2308,-407 2266,-407 2266,-407 2260,-407 2254,-401 2254,-395 2254,-395 2254,-383 2254,-383 2254,-377 2260,-371 2266,-371 2266,-371 2308,-371 2308,-371 2314,-371 2320,-377 2320,-383 2320,-383 2320,-395 2320,-395 2320,-401 2314,-407 2308,-407"/>
<text text-anchor="middle" x="2287" y="-386.2" font-family="Helvetica" font-size="11.00">LogEnd</text>
</g>
<!-- n18&#45;&gt;n20 -->
<g id="edge32" class="edge">
<title>n18&#45;&gt;n20</title>
<path fill="none" stroke="#555555" d="M2182.25,-324.01C2201.56,-336.11 2227.22,-352.18 2248.18,-365.31"/>
<polygon fill="#555555" stroke="#555555" points="2246.52,-368.4 2256.85,-370.74 2250.23,-362.46 2246.52,-368.4"/>
</g>
<!-- n3 -->
<g id="node19" class="node">
<title>n3</title>
<path fill="#ffccbc" stroke="black" d="M667,-75C667,-75 637,-75 637,-75 631,-75 625,-69 625,-63 625,-63 625,-51 625,-51 625,-45 631,-39 637,-39 637,-39 667,-39 667,-39 673,-39 679,-45 679,-51 679,-51 679,-63 679,-63 679,-69 673,-75 667,-75"/>
<text text-anchor="middle" x="652" y="-54.2" font-family="Helvetica" font-size="11.00">end</text>
</g>
<!-- n2&#45;&gt;n3 -->
<g id="edge2" class="edge">
<title>n2&#45;&gt;n3</title>
<path fill="none" stroke="#555555" d="M519.34,-85.86C549.73,-79.2 587.62,-70.89 614.94,-64.9"/>
<polygon fill="#555555" stroke="#555555" points="615.84,-68.29 624.86,-62.73 614.34,-61.45 615.84,-68.29"/>
</g>
<!-- n20&#45;&gt;n19 -->
<g id="edge20" class="edge">
<title>n20&#45;&gt;n19</title>
<path fill="none" stroke="#555555" d="M2313.6,-370.99C2330.65,-359 2353.24,-343.11 2371.82,-330.04"/>
<polygon fill="#555555" stroke="#555555" points="2373.87,-332.88 2380.04,-324.26 2369.85,-327.15 2373.87,-332.88"/>
</g>
<!-- n21&#45;&gt;n20 -->
<g id="edge22" class="edge">
<title>n21&#45;&gt;n20</title>
<path fill="none" stroke="#555555" d="M1819.26,-352.15C1901.03,-358.61 2144.66,-377.84 2243.57,-385.65"/>
<polygon fill="#555555" stroke="#555555" points="2243.54,-389.16 2253.79,-386.46 2244.09,-382.18 2243.54,-389.16"/>
</g>
<!-- n22 -->
<g id="node16" class="node">
<title>n22</title>
<path fill="#ffcdd2" stroke="black" d="M2041,-324C2041,-324 1889,-324 1889,-324 1883,-324 1877,-318 1877,-312 1877,-312 1877,-300 1877,-300 1877,-294 1883,-288 1889,-288 1889,-288 2041,-288 2041,-288 2047,-288 2053,-294 2053,-300 2053,-300 2053,-312 2053,-312 2053,-318 2047,-324 2041,-324"/>
<text text-anchor="middle" x="1965" y="-303.2" font-family="Helvetica" font-size="11.00">Call System Exception Handler</text>
</g>
<!-- n21&#45;&gt;n22 -->
<g id="edge23" class="edge">
<title>n21&#45;&gt;n22</title>
<path fill="none" stroke="#555555" d="M1819.25,-343.03C1836.74,-338.55 1860.44,-332.49 1883.59,-326.57"/>
<polygon fill="#555555" stroke="#555555" points="1884.64,-329.91 1893.46,-324.04 1882.91,-323.13 1884.64,-329.91"/>
</g>
<!-- n22&#45;&gt;n13 -->
<g id="edge27" class="edge">
<title>n22&#45;&gt;n13</title>
<path fill="none" stroke="#555555" d="M2032.35,-287.91C2057.02,-281.25 2085.27,-273.7 2111,-267 2155.43,-255.44 2206.33,-242.7 2241.74,-233.91"/>
<polygon fill="#555555" stroke="#555555" points="2242.89,-237.24 2251.75,-231.43 2241.21,-230.44 2242.89,-237.24"/>
</g>
<!-- n22&#45;&gt;n18 -->
<g id="edge26" class="edge">
<title>n22&#45;&gt;n18</title>
<path fill="none" stroke="#555555" d="M2053.05,-306C2069.26,-306 2085.7,-306 2100.39,-306"/>
<polygon fill="#555555" stroke="#555555" points="2100.74,-309.5 2110.74,-306 2100.74,-302.5 2100.74,-309.5"/>
</g>
<!-- n24 -->
<g id="node18" class="node">
<title>n24</title>
<path fill="#e8f4f8" stroke="black" d="M1109,-285C1109,-285 987,-285 987,-285 981,-285 975,-279 975,-273 975,-273 975,-261 975,-261 975,-255 981,-249 987,-249 987,-249 1109,-249 1109,-249 1115,-249 1121,-255 1121,-261 1121,-261 1121,-273 1121,-273 1121,-279 1115,-285 1109,-285"/>
<text text-anchor="middle" x="1048" y="-264.2" font-family="Helvetica" font-size="11.00">GetBusinessResources2</text>
</g>
<!-- n23&#45;&gt;n24 -->
<g id="edge28" class="edge">
<title>n23&#45;&gt;n24</title>
<path fill="none" stroke="#555555" d="M917.19,-267C932.4,-267 948.7,-267 964.43,-267"/>
<polygon fill="#555555" stroke="#555555" points="964.67,-270.5 974.67,-267 964.67,-263.5 964.67,-270.5"/>
</g>
<!-- n6 -->
<g id="node22" class="node">
<title>n6</title>
<path fill="#e8f4f8" stroke="black" d="M1063,-198C1063,-198 1033,-198 1033,-198 1027,-198 1021,-192 1021,-186 1021,-186 1021,-174 1021,-174 1021,-168 1027,-162 1033,-162 1033,-162 1063,-162 1063,-162 1069,-162 1075,-168 1075,-174 1075,-174 1075,-186 1075,-186 1075,-192 1069,-198 1063,-198"/>
<text text-anchor="middle" x="1048" y="-177.2" font-family="Helvetica" font-size="11.00">Null</text>
</g>
<!-- n23&#45;&gt;n6 -->
<g id="edge29" class="edge">
<title>n23&#45;&gt;n6</title>
<path fill="none" stroke="#555555" d="M890.42,-248.97C926.11,-233.25 977.34,-210.68 1011.37,-195.7"/>
<polygon fill="#555555" stroke="#555555" points="1013.17,-198.73 1020.91,-191.49 1010.35,-192.32 1013.17,-198.73"/>
</g>
<!-- n24&#45;&gt;n15 -->
<g id="edge33" class="edge">
<title>n24&#45;&gt;n15</title>
<path fill="none" stroke="#555555" d="M1121.07,-267C1136.5,-267 1152.91,-267 1168.69,-267"/>
<polygon fill="#555555" stroke="#555555" points="1168.96,-270.5 1178.96,-267 1168.96,-263.5 1168.96,-270.5"/>
</g>
<!-- n5 -->
<g id="node21" class="node">
<title>n5</title>
<path fill="#e8f4f8" stroke="black" d="M512,-36C512,-36 423,-36 423,-36 417,-36 411,-30 411,-24 411,-24 411,-12 411,-12 411,-6 417,0 423,0 423,0 512,0 512,0 518,0 524,-6 524,-12 524,-12 524,-24 524,-24 524,-30 518,-36 512,-36"/>
<text text-anchor="middle" x="467.5" y="-15.2" font-family="Helvetica" font-size="11.00">OperationReply&#45;1</text>
</g>
<!-- n4&#45;&gt;n5 -->
<g id="edge6" class="edge">
<title>n4&#45;&gt;n5</title>
<path fill="none" stroke="#555555" d="M353.19,-18C368.88,-18 385.24,-18 400.48,-18"/>
<polygon fill="#555555" stroke="#555555" points="400.84,-21.5 410.84,-18 400.84,-14.5 400.84,-21.5"/>
</g>
<!-- n5&#45;&gt;n3 -->
<g id="edge5" class="edge">
<title>n5&#45;&gt;n3</title>
<path fill="none" stroke="#555555" d="M524.25,-29.91C553.55,-36.17 588.63,-43.67 614.45,-49.19"/>
<polygon fill="#555555" stroke="#555555" points="614.04,-52.68 624.55,-51.35 615.51,-45.84 614.04,-52.68"/>
</g>
<!-- n7 -->
<g id="node23" class="node">
<title>n7</title>
<path fill="#e8f4f8" stroke="black" d="M1481,-198C1481,-198 1395,-198 1395,-198 1389,-198 1383,-192 1383,-186 1383,-186 1383,-174 1383,-174 1383,-168 1389,-162 1395,-162 1395,-162 1481,-162 1481,-162 1487,-162 1493,-168 1493,-174 1493,-174 1493,-186 1493,-186 1493,-192 1487,-198 1481,-198"/>
<text text-anchor="middle" x="1438" y="-177.2" font-family="Helvetica" font-size="11.00">InvocationDetails</text>
</g>
<!-- n6&#45;&gt;n7 -->
<g id="edge7" class="edge">
<title>n6&#45;&gt;n7</title>
<path fill="none" stroke="#555555" d="M1075.06,-180C1135.31,-180 1285.7,-180 1372.48,-180"/>
<polygon fill="#555555" stroke="#555555" points="1372.74,-183.5 1382.74,-180 1372.74,-176.5 1372.74,-183.5"/>
</g>
<!-- n7&#45;&gt;n22 -->
<g id="edge31" class="edge">
<title>n7&#45;&gt;n22</title>
<path fill="none" stroke="#555555" d="M1493.12,-187.91C1547.14,-196.24 1632.33,-210.56 1705,-228 1772.57,-244.21 1848.55,-267.74 1900.65,-284.71"/>
<polygon fill="#555555" stroke="#555555" points="1899.83,-288.13 1910.42,-287.91 1902,-281.47 1899.83,-288.13"/>
</g>
<!-- n8 -->
<g id="node24" class="node">
<title>n8</title>
<path fill="#c8e6c9" stroke="black" d="M126,-241C126,-241 12,-241 12,-241 6,-241 0,-235 0,-229 0,-229 0,-217 0,-217 0,-211 6,-205 12,-205 12,-205 126,-205 126,-205 132,-205 138,-211 138,-217 138,-217 138,-229 138,-229 138,-235 132,-241 126,-241"/>
<text text-anchor="middle" x="69" y="-220.2" font-family="Helvetica" font-size="11.00">Receive JMS Message</text>
</g>
<!-- n8&#45;&gt;n6 -->
<g id="edge8" class="edge">
<title>n8&#45;&gt;n6</title>
<path fill="none" stroke="#555555" d="M138.17,-211.08C216.97,-198.35 350.7,-180 466.5,-180 466.5,-180 466.5,-180 653,-180 784.48,-180 940.64,-180 1010.3,-180"/>
<polygon fill="#555555" stroke="#555555" points="1010.72,-183.5 1020.72,-180 1010.72,-176.5 1010.72,-183.5"/>
</g>
<!-- n9 -->
<g id="node25" class="node">
<title>n9</title>
<path fill="#e8f4f8" stroke="black" d="M331.5,-285C331.5,-285 217.5,-285 217.5,-285 211.5,-285 205.5,-279 205.5,-273 205.5,-273 205.5,-261 205.5,-261 205.5,-255 211.5,-249 217.5,-249 217.5,-249 331.5,-249 331.5,-249 337.5,-249 343.5,-255 343.5,-261 343.5,-261 343.5,-273 343.5,-273 343.5,-279 337.5,-285 331.5,-285"/>
<text text-anchor="middle" x="274.5" y="-264.2" font-family="Helvetica" font-size="11.00">Confirm JMS Message</text>
</g>
<!-- n8&#45;&gt;n9 -->
<g id="edge10" class="edge">
<title>n8&#45;&gt;n9</title>
<path fill="none" stroke="#555555" d="M138.05,-237.71C156.36,-241.67 176.32,-245.99 195.15,-250.06"/>
<polygon fill="#555555" stroke="#555555" points="194.66,-253.53 205.17,-252.23 196.14,-246.69 194.66,-253.53"/>
</g>
<!-- n9&#45;&gt;n10 -->
<g id="edge9" class="edge">
<title>n9&#45;&gt;n10</title>
<path fill="none" stroke="#555555" d="M343.5,-267C407.73,-267 504.04,-267 571.73,-267"/>
<polygon fill="#555555" stroke="#555555" points="571.92,-270.5 581.92,-267 571.92,-263.5 571.92,-270.5"/>
</g>
<!-- n9&#45;&gt;n14 -->
<g id="edge13" class="edge">
<title>n9&#45;&gt;n14</title>
<path fill="none" stroke="#555555" d="M316.94,-285.01C348.07,-298.53 390.61,-317.02 422.36,-330.82"/>
<polygon fill="#555555" stroke="#555555" points="421.28,-334.17 431.85,-334.94 424.07,-327.75 421.28,-334.17"/>
</g>
</g>
</svg>
