<?xml version="1.0" encoding="UTF-8" standalone="no"?>
<!DOCTYPE svg PUBLIC "-//W3C//DTD SVG 1.1//EN"
 "http://www.w3.org/Graphics/SVG/1.1/DTD/svg11.dtd">
<!-- Generated by graphviz version 2.44.0 (0)
 -->
<!-- Title: process Pages: 1 -->
<svg width="424pt" height="187pt"
 viewBox="0.00 0.00 424.00 187.00" xmlns="http://www.w3.org/2000/svg" xmlns:xlink="http://www.w3.org/1999/xlink">
<g id="graph0" class="graph" transform="scale(1 1) rotate(0) translate(36 151)">
<title>process</title>
<polygon fill="#ffffff" stroke="transparent" points="-36,36 -36,-151 388,-151 388,36 -36,36"/>
<!-- n0 -->
<g id="node1" class="node">
<title>n0</title>
<path fill="#c8e6c9" stroke="black" d="M42,-75C42,-75 12,-75 12,-75 6,-75 0,-69 0,-63 0,-63 0,-51 0,-51 0,-45 6,-39 12,-39 12,-39 42,-39 42,-39 48,-39 54,-45 54,-51 54,-51 54,-63 54,-63 54,-69 48,-75 42,-75"/>
<text text-anchor="middle" x="27" y="-54.2" font-family="Helvetica" font-size="11.00">Start</text>
</g>
<!-- n1 -->
<g id="node2" class="node">
<title>n1</title>
<path fill="#e8f4f8" stroke="black" d="M180,-75C180,-75 124,-75 124,-75 118,-75 112,-69 112,-63 112,-63 112,-51 112,-51 112,-45 118,-39 124,-39 124,-39 180,-39 180,-39 186,-39 192,-45 192,-51 192,-51 192,-63 192,-63 192,-69 186,-75 180,-75"/>
<text text-anchor="middle" x="152" y="-54.2" font-family="Helvetica" font-size="11.00">Encryption</text>
</g>
<!-- n0&#45;&gt;n1 -->
<g id="edge1" class="edge">
<title>n0&#45;&gt;n1</title>
<path fill="none" stroke="#555555" d="M54.09,-57C67.85,-57 85.21,-57 101.42,-57"/>
<polygon fill="#555555" stroke="#555555" points="101.86,-60.5 111.86,-57 101.86,-53.5 101.86,-60.5"/>
</g>
<!-- n2 -->
<g id="node3" class="node">
<title>n2</title>
<path fill="#ffccbc" stroke="black" d="M316,-115C316,-115 286,-115 286,-115 280,-115 274,-109 274,-103 274,-103 274,-91 274,-91 274,-85 280,-79 286,-79 286,-79 316,-79 316,-79 322,-79 328,-85 328,-91 328,-91 328,-103 328,-103 328,-109 322,-115 316,-115"/>
<text text-anchor="middle" x="301" y="-94.2" font-family="Helvetica" font-size="11.00">End</text>
</g>
<!-- n1&#45;&gt;n2 -->
<g id="edge2" class="edge">
<title>n1&#45;&gt;n2</title>
<path fill="none" stroke="#555555" d="M192.01,-67.61C214.33,-73.69 242.14,-81.26 263.95,-87.19"/>
<polygon fill="#555555" stroke="#555555" points="263.25,-90.63 273.81,-89.87 265.08,-83.87 263.25,-90.63"/>
</g>
<!-- n3 -->
<g id="node4" class="node">
<title>n3</title>
<path fill="#ffcdd2" stroke="black" d="M340,-36C340,-36 262,-36 262,-36 256,-36 250,-30 250,-24 250,-24 250,-12 250,-12 250,-6 256,0 262,0 262,0 340,0 340,0 346,0 352,-6 352,-12 352,-12 352,-24 352,-24 352,-30 346,-36 340,-36"/>
<text text-anchor="middle" x="301" y="-15.2" font-family="Helvetica" font-size="11.00">Generate&#45;Error</text>
</g>
<!-- n1&#45;&gt;n3 -->
<g id="edge3" class="edge">
<title>n1&#45;&gt;n3</title>
<path fill="none" stroke="#555555" d="M192.01,-46.65C206.73,-42.75 223.84,-38.21 240.04,-33.91"/>
<polygon fill="#555555" stroke="#555555" points="241.21,-37.22 249.98,-31.27 239.42,-30.45 241.21,-37.22"/>
</g>
</g>
</svg>
