<?xml version="1.0" encoding="UTF-8" standalone="no"?>
<!DOCTYPE svg PUBLIC "-//W3C//DTD SVG 1.1//EN"
 "http://www.w3.org/Graphics/SVG/1.1/DTD/svg11.dtd">
<!-- Generated by graphviz version 2.44.0 (0)
 -->
<!-- Title: process Pages: 1 -->
<svg width="609pt" height="108pt"
 viewBox="0.00 0.00 609.00 108.00" xmlns="http://www.w3.org/2000/svg" xmlns:xlink="http://www.w3.org/1999/xlink">
<g id="graph0" class="graph" transform="scale(1 1) rotate(0) translate(36 72)">
<title>process</title>
<polygon fill="#ffffff" stroke="transparent" points="-36,36 -36,-72 573,-72 573,36 -36,36"/>
<!-- n0 -->
<g id="node1" class="node">
<title>n0</title>
<path fill="#c8e6c9" stroke="black" d="M42,-36C42,-36 12,-36 12,-36 6,-36 0,-30 0,-24 0,-24 0,-12 0,-12 0,-6 6,0 12,0 12,0 42,0 42,0 48,0 54,-6 54,-12 54,-12 54,-24 54,-24 54,-30 48,-36 42,-36"/>
<text text-anchor="middle" x="27" y="-15.2" font-family="Helvetica" font-size="11.00">Start</text>
</g>
<!-- n1 -->
<g id="node2" class="node">
<title>n1</title>
<path fill="#e8f4f8" stroke="black" d="M231,-36C231,-36 124,-36 124,-36 118,-36 112,-30 112,-24 112,-24 112,-12 112,-12 112,-6 118,0 124,0 124,0 231,0 231,0 237,0 243,-6 243,-12 243,-12 243,-24 243,-24 243,-30 237,-36 231,-36"/>
<text text-anchor="middle" x="177.5" y="-15.2" font-family="Helvetica" font-size="11.00">GetHTTPStatusCode</text>
</g>
<!-- n0&#45;&gt;n1 -->
<g id="edge1" class="edge">
<title>n0&#45;&gt;n1</title>
<path fill="none" stroke="#555555" d="M54.21,-18C67.64,-18 84.75,-18 101.89,-18"/>
<polygon fill="#555555" stroke="#555555" points="101.95,-21.5 111.95,-18 101.95,-14.5 101.95,-21.5"/>
</g>
<!-- n2 -->
<g id="node3" class="node">
<title>n2</title>
<path fill="#ffcdd2" stroke="black" d="M413,-36C413,-36 313,-36 313,-36 307,-36 301,-30 301,-24 301,-24 301,-12 301,-12 301,-6 307,0 313,0 313,0 413,0 413,0 419,0 425,-6 425,-12 425,-12 425,-24 425,-24 425,-30 419,-36 413,-36"/>
<text text-anchor="middle" x="363" y="-15.2" font-family="Helvetica" font-size="11.00">Render Error JSON</text>
</g>
<!-- n1&#45;&gt;n2 -->
<g id="edge3" class="edge">
<title>n1&#45;&gt;n2</title>
<path fill="none" stroke="#555555" d="M243.2,-18C258.6,-18 275.12,-18 290.8,-18"/>
<polygon fill="#555555" stroke="#555555" points="290.96,-21.5 300.96,-18 290.96,-14.5 290.96,-21.5"/>
</g>
<!-- n3 -->
<g id="node4" class="node">
<title>n3</title>
<path fill="#ffccbc" stroke="black" d="M525,-36C525,-36 495,-36 495,-36 489,-36 483,-30 483,-24 483,-24 483,-12 483,-12 483,-6 489,0 495,0 495,0 525,0 525,0 531,0 537,-6 537,-12 537,-12 537,-24 537,-24 537,-30 531,-36 525,-36"/>
<text text-anchor="middle" x="510" y="-15.2" font-family="Helvetica" font-size="11.00">End</text>
</g>
<!-- n2&#45;&gt;n3 -->
<g id="edge2" class="edge">
<title>n2&#45;&gt;n3</title>
<path fill="none" stroke="#555555" d="M425.07,-18C441.11,-18 457.91,-18 472.23,-18"/>
<polygon fill="#555555" stroke="#555555" points="472.64,-21.5 482.64,-18 472.64,-14.5 472.64,-21.5"/>
</g>
</g>
</svg>
