<?xml version="1.0" encoding="UTF-8" standalone="no"?>
<!DOCTYPE svg PUBLIC "-//W3C//DTD SVG 1.1//EN"
 "http://www.w3.org/Graphics/SVG/1.1/DTD/svg11.dtd">
<!-- Generated by graphviz version 2.44.0 (0)
 -->
<!-- Title: process Pages: 1 -->
<svg width="714pt" height="266pt"
 viewBox="0.00 0.00 714.00 266.00" xmlns="http://www.w3.org/2000/svg" xmlns:xlink="http://www.w3.org/1999/xlink">
<g id="graph0" class="graph" transform="scale(1 1) rotate(0) translate(36 230)">
<title>process</title>
<polygon fill="#ffffff" stroke="transparent" points="-36,36 -36,-230 678,-230 678,36 -36,36"/>
<!-- n0 -->
<g id="node1" class="node">
<title>n0</title>
<path fill="#c8e6c9" stroke="black" d="M42,-36C42,-36 12,-36 12,-36 6,-36 0,-30 0,-24 0,-24 0,-12 0,-12 0,-6 6,0 12,0 12,0 42,0 42,0 48,0 54,-6 54,-12 54,-12 54,-24 54,-24 54,-30 48,-36 42,-36"/>
<text text-anchor="middle" x="27" y="-15.2" font-family="Helvetica" font-size="11.00">start</text>
</g>
<!-- n1 -->
<g id="node2" class="node">
<title>n1</title>
<path fill="#e8f4f8" stroke="black" d="M297,-36C297,-36 124,-36 124,-36 118,-36 112,-30 112,-24 112,-24 112,-12 112,-12 112,-6 118,0 124,0 124,0 297,0 297,0 303,0 309,-6 309,-12 309,-12 309,-24 309,-24 309,-30 303,-36 297,-36"/>
<text text-anchor="middle" x="210.5" y="-15.2" font-family="Helvetica" font-size="11.00">Get COHERENCE Codes from DB</text>
</g>
<!-- n0&#45;&gt;n1 -->
<g id="edge1" class="edge">
<title>n0&#45;&gt;n1</title>
<path fill="none" stroke="#555555" d="M54,-18C67.03,-18 83.78,-18 101.43,-18"/>
<polygon fill="#555555" stroke="#555555" points="101.9,-21.5 111.9,-18 101.9,-14.5 101.9,-21.5"/>
</g>
<!-- n2 -->
<g id="node3" class="node">
<title>n2</title>
<path fill="#e8f4f8" stroke="black" d="M456,-36C456,-36 394,-36 394,-36 388,-36 382,-30 382,-24 382,-24 382,-12 382,-12 382,-6 388,0 394,0 394,0 456,0 456,0 462,0 468,-6 468,-12 468,-12 468,-24 468,-24 468,-30 462,-36 456,-36"/>
<text text-anchor="middle" x="425" y="-15.2" font-family="Helvetica" font-size="11.00">StoreCodes</text>
</g>
<!-- n1&#45;&gt;n2 -->
<g id="edge3" class="edge">
<title>n1&#45;&gt;n2</title>
<path fill="none" stroke="#555555" d="M309.04,-18C330.68,-18 352.8,-18 371.78,-18"/>
<polygon fill="#555555" stroke="#555555" points="371.98,-21.5 381.98,-18 371.98,-14.5 371.98,-21.5"/>
</g>
<!-- n3 -->
<g id="node4" class="node">
<title>n3</title>
<path fill="#ffccbc" stroke="black" d="M606.5,-36C606.5,-36 576.5,-36 576.5,-36 570.5,-36 564.5,-30 564.5,-24 564.5,-24 564.5,-12 564.5,-12 564.5,-6 570.5,0 576.5,0 576.5,0 606.5,0 606.5,0 612.5,0 618.5,-6 618.5,-12 618.5,-12 618.5,-24 618.5,-24 618.5,-30 612.5,-36 606.5,-36"/>
<text text-anchor="middle" x="591.5" y="-15.2" font-family="Helvetica" font-size="11.00">end</text>
</g>
<!-- n2&#45;&gt;n3 -->
<g id="edge2" class="edge">
<title>n2&#45;&gt;n3</title>
<path fill="none" stroke="#555555" d="M468.36,-18C494.85,-18 528.62,-18 553.94,-18"/>
<polygon fill="#555555" stroke="#555555" points="554.22,-21.5 564.22,-18 554.22,-14.5 554.22,-21.5"/>
</g>
<!-- n4 -->
<g id="node5" class="node">
<title>n4</title>
<path fill="#c8e6c9" stroke="black" d="M42,-154C42,-154 12,-154 12,-154 6,-154 0,-148 0,-142 0,-142 0,-130 0,-130 0,-124 6,-118 12,-118 12,-118 42,-118 42,-118 48,-118 54,-124 54,-130 54,-130 54,-142 54,-142 54,-148 48,-154 42,-154"/>
<text text-anchor="middle" x="27" y="-133.2" font-family="Helvetica" font-size="11.00">Start</text>
</g>
<!-- n5 -->
<g id="node6" class="node">
<title>n5</title>
<path fill="#ffcdd2" stroke="black" d="M241.5,-154C241.5,-154 179.5,-154 179.5,-154 173.5,-154 167.5,-148 167.5,-142 167.5,-142 167.5,-130 167.5,-130 167.5,-124 173.5,-118 179.5,-118 179.5,-118 241.5,-118 241.5,-118 247.5,-118 253.5,-124 253.5,-130 253.5,-130 253.5,-142 253.5,-142 253.5,-148 247.5,-154 241.5,-154"/>
<text text-anchor="middle" x="210.5" y="-133.2" font-family="Helvetica" font-size="11.00">Error Group</text>
</g>
<!-- n4&#45;&gt;n5 -->
<g id="edge4" class="edge">
<title>n4&#45;&gt;n5</title>
<path fill="none" stroke="#555555" d="M54,-136C80.83,-136 123.41,-136 157.23,-136"/>
<polygon fill="#555555" stroke="#555555" points="157.42,-139.5 167.42,-136 157.42,-132.5 157.42,-139.5"/>
</g>
<!-- n6 -->
<g id="node7" class="node">
<title>n6</title>
<path fill="#ffccbc" stroke="black" d="M440,-194C440,-194 410,-194 410,-194 404,-194 398,-188 398,-182 398,-182 398,-170 398,-170 398,-164 404,-158 410,-158 410,-158 440,-158 440,-158 446,-158 452,-164 452,-170 452,-170 452,-182 452,-182 452,-188 446,-194 440,-194"/>
<text text-anchor="middle" x="425" y="-173.2" font-family="Helvetica" font-size="11.00">End</text>
</g>
<!-- n5&#45;&gt;n6 -->
<g id="edge5" class="edge">
<title>n5&#45;&gt;n6</title>
<path fill="none" stroke="#555555" d="M253.74,-143.95C293.01,-151.34 350.89,-162.24 388.02,-169.23"/>
<polygon fill="#555555" stroke="#555555" points="387.44,-172.68 397.91,-171.09 388.73,-165.8 387.44,-172.68"/>
</g>
<!-- n7 -->
<g id="node8" class="node">
<title>n7</title>
<path fill="#e8f4f8" stroke="black" d="M471,-115C471,-115 379,-115 379,-115 373,-115 367,-109 367,-103 367,-103 367,-91 367,-91 367,-85 373,-79 379,-79 379,-79 471,-79 471,-79 477,-79 483,-85 483,-91 483,-91 483,-103 483,-103 483,-109 477,-115 471,-115"/>
<text text-anchor="middle" x="425" y="-94.2" font-family="Helvetica" font-size="11.00">MapAnyException</text>
</g>
<!-- n5&#45;&gt;n7 -->
<g id="edge6" class="edge">
<title>n5&#45;&gt;n7</title>
<path fill="none" stroke="#555555" d="M253.74,-128.25C283.13,-122.85 322.95,-115.54 356.69,-109.35"/>
<polygon fill="#555555" stroke="#555555" points="357.75,-112.72 366.95,-107.47 356.48,-105.83 357.75,-112.72"/>
</g>
<!-- n8 -->
<g id="node9" class="node">
<title>n8</title>
<path fill="#ffcdd2" stroke="black" d="M630,-115C630,-115 553,-115 553,-115 547,-115 541,-109 541,-103 541,-103 541,-91 541,-91 541,-85 547,-79 553,-79 553,-79 630,-79 630,-79 636,-79 642,-85 642,-91 642,-91 642,-103 642,-103 642,-109 636,-115 630,-115"/>
<text text-anchor="middle" x="591.5" y="-94.2" font-family="Helvetica" font-size="11.00">Generate Error</text>
</g>
<!-- n7&#45;&gt;n8 -->
<g id="edge7" class="edge">
<title>n7&#45;&gt;n8</title>
<path fill="none" stroke="#555555" d="M483.07,-97C498.53,-97 515.29,-97 530.88,-97"/>
<polygon fill="#555555" stroke="#555555" points="530.93,-100.5 540.93,-97 530.93,-93.5 530.93,-100.5"/>
</g>
</g>
</svg>
