<?xml version="1.0" encoding="UTF-8" standalone="no"?>
<!DOCTYPE svg PUBLIC "-//W3C//DTD SVG 1.1//EN"
 "http://www.w3.org/Graphics/SVG/1.1/DTD/svg11.dtd">
<!-- Generated by graphviz version 2.44.0 (0)
 -->
<!-- Title: process Pages: 1 -->
<svg width="2262pt" height="498pt"
 viewBox="0.00 0.00 2262.00 498.00" xmlns="http://www.w3.org/2000/svg" xmlns:xlink="http://www.w3.org/1999/xlink">
<g id="graph0" class="graph" transform="scale(1 1) rotate(0) translate(36 462)">
<title>process</title>
<polygon fill="#ffffff" stroke="transparent" points="-36,36 -36,-462 2226,-462 2226,36 -36,36"/>
<!-- n0 -->
<g id="node1" class="node">
<title>n0</title>
<path fill="#c8e6c9" stroke="black" d="M84,-76C84,-76 54,-76 54,-76 48,-76 42,-70 42,-64 42,-64 42,-52 42,-52 42,-46 48,-40 54,-40 54,-40 84,-40 84,-40 90,-40 96,-46 96,-52 96,-52 96,-64 96,-64 96,-70 90,-76 84,-76"/>
<text text-anchor="middle" x="69" y="-55.2" font-family="Helvetica" font-size="11.00">start</text>
</g>
<!-- n1 -->
<g id="node2" class="node">
<title>n1</title>
<path fill="#e8f4f8" stroke="black" d="M328.5,-115C328.5,-115 220.5,-115 220.5,-115 214.5,-115 208.5,-109 208.5,-103 208.5,-103 208.5,-91 208.5,-91 208.5,-85 214.5,-79 220.5,-79 220.5,-79 328.5,-79 328.5,-79 334.5,-79 340.5,-85 340.5,-91 340.5,-91 340.5,-103 340.5,-103 340.5,-109 334.5,-115 328.5,-115"/>
<text text-anchor="middle" x="274.5" y="-94.2" font-family="Helvetica" font-size="11.00">Custom&#45;RenderReply</text>
</g>
<!-- n0&#45;&gt;n1 -->
<g id="edge1" class="edge">
<title>n0&#45;&gt;n1</title>
<path fill="none" stroke="#555555" d="M96.19,-63.02C121.9,-67.95 162.35,-75.7 198.13,-82.55"/>
<polygon fill="#555555" stroke="#555555" points="197.6,-86.02 208.08,-84.46 198.91,-79.14 197.6,-86.02"/>
</g>
<!-- n4 -->
<g id="node20" class="node">
<title>n4</title>
<path fill="#e8f4f8" stroke="black" d="M341,-36C341,-36 208,-36 208,-36 202,-36 196,-30 196,-24 196,-24 196,-12 196,-12 196,-6 202,0 208,0 208,0 341,0 341,0 347,0 353,-6 353,-12 353,-12 353,-24 353,-24 353,-30 347,-36 341,-36"/>
<text text-anchor="middle" x="274.5" y="-15.2" font-family="Helvetica" font-size="11.00">Custom&#45;RenderErrorReply</text>
</g>
<!-- n0&#45;&gt;n4 -->
<g id="edge4" class="edge">
<title>n0&#45;&gt;n4</title>
<path fill="none" stroke="#555555" d="M96.19,-52.85C118.95,-48.38 153.28,-41.63 185.68,-35.26"/>
<polygon fill="#555555" stroke="#555555" points="186.52,-38.66 195.66,-33.3 185.17,-31.79 186.52,-38.66"/>
</g>
<!-- n2 -->
<g id="node13" class="node">
<title>n2</title>
<path fill="#e8f4f8" stroke="black" d="M507,-115C507,-115 428,-115 428,-115 422,-115 416,-109 416,-103 416,-103 416,-91 416,-91 416,-85 422,-79 428,-79 428,-79 507,-79 507,-79 513,-79 519,-85 519,-91 519,-91 519,-103 519,-103 519,-109 513,-115 507,-115"/>
<text text-anchor="middle" x="467.5" y="-94.2" font-family="Helvetica" font-size="11.00">OperationReply</text>
</g>
<!-- n1&#45;&gt;n2 -->
<g id="edge3" class="edge">
<title>n1&#45;&gt;n2</title>
<path fill="none" stroke="#555555" d="M340.7,-97C361.68,-97 384.85,-97 405.52,-97"/>
<polygon fill="#555555" stroke="#555555" points="405.76,-100.5 415.76,-97 405.76,-93.5 405.76,-100.5"/>
</g>
<!-- n10 -->
<g id="node3" class="node">
<title>n10</title>
<path fill="#e8f4f8" stroke="black" d="M710,-322C710,-322 594,-322 594,-322 588,-322 582,-316 582,-310 582,-310 582,-298 582,-298 582,-292 588,-286 594,-286 594,-286 710,-286 710,-286 716,-286 722,-292 722,-298 722,-298 722,-310 722,-310 722,-316 716,-322 710,-322"/>
<text text-anchor="middle" x="652" y="-301.2" font-family="Helvetica" font-size="11.00">Prep Invocation Details</text>
</g>
<!-- n23 -->
<g id="node17" class="node">
<title>n23</title>
<path fill="#e8f4f8" stroke="black" d="M905,-281C905,-281 792,-281 792,-281 786,-281 780,-275 780,-269 780,-269 780,-257 780,-257 780,-251 786,-245 792,-245 792,-245 905,-245 905,-245 911,-245 917,-251 917,-257 917,-257 917,-269 917,-269 917,-275 911,-281 905,-281"/>
<text text-anchor="middle" x="848.5" y="-260.2" font-family="Helvetica" font-size="11.00">Custom&#45;ParseRequest</text>
</g>
<!-- n10&#45;&gt;n23 -->
<g id="edge30" class="edge">
<title>n10&#45;&gt;n23</title>
<path fill="none" stroke="#555555" d="M722.12,-289.43C737.53,-286.18 753.96,-282.72 769.69,-279.4"/>
<polygon fill="#555555" stroke="#555555" points="770.85,-282.74 779.91,-277.25 769.4,-275.89 770.85,-282.74"/>
</g>
<!-- n24 -->
<g id="node18" class="node">
<title>n24</title>
<path fill="#e8f4f8" stroke="black" d="M865,-360C865,-360 832,-360 832,-360 826,-360 820,-354 820,-348 820,-348 820,-336 820,-336 820,-330 826,-324 832,-324 832,-324 865,-324 865,-324 871,-324 877,-330 877,-336 877,-336 877,-348 877,-348 877,-354 871,-360 865,-360"/>
<text text-anchor="middle" x="848.5" y="-339.2" font-family="Helvetica" font-size="11.00">Null&#45;2</text>
</g>
<!-- n10&#45;&gt;n24 -->
<g id="edge33" class="edge">
<title>n10&#45;&gt;n24</title>
<path fill="none" stroke="#555555" d="M722.12,-317.5C751.55,-323.25 784.73,-329.74 809.57,-334.59"/>
<polygon fill="#555555" stroke="#555555" points="809.18,-338.08 819.67,-336.56 810.52,-331.21 809.18,-338.08"/>
</g>
<!-- n11 -->
<g id="node4" class="node">
<title>n11</title>
<path fill="#ffcdd2" stroke="black" d="M1797,-264C1797,-264 1645,-264 1645,-264 1639,-264 1633,-258 1633,-252 1633,-252 1633,-240 1633,-240 1633,-234 1639,-228 1645,-228 1645,-228 1797,-228 1797,-228 1803,-228 1809,-234 1809,-240 1809,-240 1809,-252 1809,-252 1809,-258 1803,-264 1797,-264"/>
<text text-anchor="middle" x="1721" y="-243.2" font-family="Helvetica" font-size="11.00">Call Service Exception Handler</text>
</g>
<!-- n12 -->
<g id="node5" class="node">
<title>n12</title>
<path fill="#e8f4f8" stroke="black" d="M1925,-177C1925,-177 1892,-177 1892,-177 1886,-177 1880,-171 1880,-165 1880,-165 1880,-153 1880,-153 1880,-147 1886,-141 1892,-141 1892,-141 1925,-141 1925,-141 1931,-141 1937,-147 1937,-153 1937,-153 1937,-165 1937,-165 1937,-171 1931,-177 1925,-177"/>
<text text-anchor="middle" x="1908.5" y="-156.2" font-family="Helvetica" font-size="11.00">Null&#45;1</text>
</g>
<!-- n11&#45;&gt;n12 -->
<g id="edge11" class="edge">
<title>n11&#45;&gt;n12</title>
<path fill="none" stroke="#555555" d="M1760.44,-227.97C1792.75,-212.82 1838.64,-191.29 1870.54,-176.34"/>
<polygon fill="#555555" stroke="#555555" points="1872.39,-179.33 1879.95,-171.92 1869.41,-173 1872.39,-179.33"/>
</g>
<!-- n18 -->
<g id="node11" class="node">
<title>n18</title>
<path fill="#ffccbc" stroke="black" d="M1938,-343C1938,-343 1879,-343 1879,-343 1873,-343 1867,-337 1867,-331 1867,-331 1867,-319 1867,-319 1867,-313 1873,-307 1879,-307 1879,-307 1938,-307 1938,-307 1944,-307 1950,-313 1950,-319 1950,-319 1950,-331 1950,-331 1950,-337 1944,-343 1938,-343"/>
<text text-anchor="middle" x="1908.5" y="-322.2" font-family="Helvetica" font-size="11.00">Reply Error</text>
</g>
<!-- n11&#45;&gt;n18 -->
<g id="edge16" class="edge">
<title>n11&#45;&gt;n18</title>
<path fill="none" stroke="#555555" d="M1764.56,-264.12C1792.14,-275.87 1828.19,-291.23 1857.19,-303.57"/>
<polygon fill="#555555" stroke="#555555" points="1856.16,-306.94 1866.73,-307.64 1858.9,-300.5 1856.16,-306.94"/>
</g>
<!-- n13 -->
<g id="node6" class="node">
<title>n13</title>
<path fill="#e8f4f8" stroke="black" d="M2066,-260C2066,-260 2020,-260 2020,-260 2014,-260 2008,-254 2008,-248 2008,-248 2008,-236 2008,-236 2008,-230 2014,-224 2020,-224 2020,-224 2066,-224 2066,-224 2072,-224 2078,-230 2078,-236 2078,-236 2078,-248 2078,-248 2078,-254 2072,-260 2066,-260"/>
<text text-anchor="middle" x="2043" y="-239.2" font-family="Helvetica" font-size="11.00">LogFatal</text>
</g>
<!-- n12&#45;&gt;n13 -->
<g id="edge12" class="edge">
<title>n12&#45;&gt;n13</title>
<path fill="none" stroke="#555555" d="M1937.28,-176.4C1956.75,-188.6 1983.01,-205.05 2004.37,-218.43"/>
<polygon fill="#555555" stroke="#555555" points="2002.55,-221.42 2012.88,-223.76 2006.27,-215.49 2002.55,-221.42"/>
</g>
<!-- n19 -->
<g id="node12" class="node">
<title>n19</title>
<path fill="#ffccbc" stroke="black" d="M2178,-343C2178,-343 2148,-343 2148,-343 2142,-343 2136,-337 2136,-331 2136,-331 2136,-319 2136,-319 2136,-313 2142,-307 2148,-307 2148,-307 2178,-307 2178,-307 2184,-307 2190,-313 2190,-319 2190,-319 2190,-331 2190,-331 2190,-337 2184,-343 2178,-343"/>
<text text-anchor="middle" x="2163" y="-322.2" font-family="Helvetica" font-size="11.00">End</text>
</g>
<!-- n13&#45;&gt;n19 -->
<g id="edge24" class="edge">
<title>n13&#45;&gt;n19</title>
<path fill="none" stroke="#555555" d="M2069.6,-260.01C2086.65,-272 2109.24,-287.89 2127.82,-300.96"/>
<polygon fill="#555555" stroke="#555555" points="2125.85,-303.85 2136.04,-306.74 2129.87,-298.12 2125.85,-303.85"/>
</g>
<!-- n14 -->
<g id="node7" class="node">
<title>n14</title>
<path fill="#e8f4f8" stroke="black" d="M491,-368C491,-368 444,-368 444,-368 438,-368 432,-362 432,-356 432,-356 432,-344 432,-344 432,-338 438,-332 444,-332 444,-332 491,-332 491,-332 497,-332 503,-338 503,-344 503,-344 503,-356 503,-356 503,-362 497,-368 491,-368"/>
<text text-anchor="middle" x="467.5" y="-347.2" font-family="Helvetica" font-size="11.00">LogError</text>
</g>
<!-- n14&#45;&gt;n10 -->
<g id="edge25" class="edge">
<title>n14&#45;&gt;n10</title>
<path fill="none" stroke="#555555" d="M503.26,-341.24C522.8,-336.31 548.04,-329.95 572.11,-323.88"/>
<polygon fill="#555555" stroke="#555555" points="573.14,-327.24 581.98,-321.4 571.43,-320.45 573.14,-327.24"/>
</g>
<!-- n15 -->
<g id="node8" class="node">
<title>n15</title>
<path fill="#e8f4f8" stroke="black" d="M1109,-341C1109,-341 987,-341 987,-341 981,-341 975,-335 975,-329 975,-329 975,-317 975,-317 975,-311 981,-305 987,-305 987,-305 1109,-305 1109,-305 1115,-305 1121,-311 1121,-317 1121,-317 1121,-329 1121,-329 1121,-335 1115,-341 1109,-341"/>
<text text-anchor="middle" x="1048" y="-320.2" font-family="Helvetica" font-size="11.00">Comp Invocation Details</text>
</g>
<!-- n16 -->
<g id="node9" class="node">
<title>n16</title>
<path fill="#e8f4f8" stroke="black" d="M1237,-341C1237,-341 1191,-341 1191,-341 1185,-341 1179,-335 1179,-329 1179,-329 1179,-317 1179,-317 1179,-311 1185,-305 1191,-305 1191,-305 1237,-305 1237,-305 1243,-305 1249,-311 1249,-317 1249,-317 1249,-329 1249,-329 1249,-335 1243,-341 1237,-341"/>
<text text-anchor="middle" x="1214" y="-320.2" font-family="Helvetica" font-size="11.00">LogStart</text>
</g>
<!-- n15&#45;&gt;n16 -->
<g id="edge14" class="edge">
<title>n15&#45;&gt;n16</title>
<path fill="none" stroke="#555555" d="M1121.41,-323C1137.43,-323 1153.94,-323 1168.46,-323"/>
<polygon fill="#555555" stroke="#555555" points="1168.65,-326.5 1178.65,-323 1168.65,-319.5 1168.65,-326.5"/>
</g>
<!-- n17 -->
<g id="node10" class="node">
<title>n17</title>
<path fill="#e8f4f8" stroke="black" d="M1449,-341C1449,-341 1319,-341 1319,-341 1313,-341 1307,-335 1307,-329 1307,-329 1307,-317 1307,-317 1307,-311 1313,-305 1319,-305 1319,-305 1449,-305 1449,-305 1455,-305 1461,-311 1461,-317 1461,-317 1461,-329 1461,-329 1461,-335 1455,-341 1449,-341"/>
<text text-anchor="middle" x="1384" y="-320.2" font-family="Helvetica" font-size="11.00">Call Service Main Process</text>
</g>
<!-- n16&#45;&gt;n17 -->
<g id="edge19" class="edge">
<title>n16&#45;&gt;n17</title>
<path fill="none" stroke="#555555" d="M1249.4,-323C1263.16,-323 1279.67,-323 1296.33,-323"/>
<polygon fill="#555555" stroke="#555555" points="1296.7,-326.5 1306.7,-323 1296.7,-319.5 1296.7,-326.5"/>
</g>
<!-- n17&#45;&gt;n11 -->
<g id="edge15" class="edge">
<title>n17&#45;&gt;n11</title>
<path fill="none" stroke="#555555" d="M1461.02,-305.53C1511.81,-293.85 1578.8,-278.46 1631.92,-266.25"/>
<polygon fill="#555555" stroke="#555555" points="1632.71,-269.66 1641.67,-264 1631.14,-262.83 1632.71,-269.66"/>
</g>
<!-- n21 -->
<g id="node15" class="node">
<title>n21</title>
<path fill="#ffccbc" stroke="black" d="M1563,-387C1563,-387 1531,-387 1531,-387 1525,-387 1519,-381 1519,-375 1519,-375 1519,-363 1519,-363 1519,-357 1525,-351 1531,-351 1531,-351 1563,-351 1563,-351 1569,-351 1575,-357 1575,-363 1575,-363 1575,-375 1575,-375 1575,-381 1569,-387 1563,-387"/>
<text text-anchor="middle" x="1547" y="-366.2" font-family="Helvetica" font-size="11.00">Reply</text>
</g>
<!-- n17&#45;&gt;n21 -->
<g id="edge21" class="edge">
<title>n17&#45;&gt;n21</title>
<path fill="none" stroke="#555555" d="M1448.17,-341.05C1468.74,-346.93 1490.89,-353.25 1508.91,-358.4"/>
<polygon fill="#555555" stroke="#555555" points="1508.14,-361.82 1518.72,-361.21 1510.07,-355.09 1508.14,-361.82"/>
</g>
<!-- n18&#45;&gt;n13 -->
<g id="edge18" class="edge">
<title>n18&#45;&gt;n13</title>
<path fill="none" stroke="#555555" d="M1938.25,-306.99C1957.56,-294.89 1983.22,-278.82 2004.18,-265.69"/>
<polygon fill="#555555" stroke="#555555" points="2006.23,-268.54 2012.85,-260.26 2002.52,-262.6 2006.23,-268.54"/>
</g>
<!-- n18&#45;&gt;n19 -->
<g id="edge17" class="edge">
<title>n18&#45;&gt;n19</title>
<path fill="none" stroke="#555555" d="M1950.07,-325C1998.57,-325 2079.01,-325 2125.59,-325"/>
<polygon fill="#555555" stroke="#555555" points="2125.83,-328.5 2135.83,-325 2125.83,-321.5 2125.83,-328.5"/>
</g>
<!-- n20 -->
<g id="node14" class="node">
<title>n20</title>
<path fill="#e8f4f8" stroke="black" d="M2064,-426C2064,-426 2022,-426 2022,-426 2016,-426 2010,-420 2010,-414 2010,-414 2010,-402 2010,-402 2010,-396 2016,-390 2022,-390 2022,-390 2064,-390 2064,-390 2070,-390 2076,-396 2076,-402 2076,-402 2076,-414 2076,-414 2076,-420 2070,-426 2064,-426"/>
<text text-anchor="middle" x="2043" y="-405.2" font-family="Helvetica" font-size="11.00">LogEnd</text>
</g>
<!-- n18&#45;&gt;n20 -->
<g id="edge32" class="edge">
<title>n18&#45;&gt;n20</title>
<path fill="none" stroke="#555555" d="M1938.25,-343.01C1957.56,-355.11 1983.22,-371.18 2004.18,-384.31"/>
<polygon fill="#555555" stroke="#555555" points="2002.52,-387.4 2012.85,-389.74 2006.23,-381.46 2002.52,-387.4"/>
</g>
<!-- n3 -->
<g id="node19" class="node">
<title>n3</title>
<path fill="#ffccbc" stroke="black" d="M667,-75C667,-75 637,-75 637,-75 631,-75 625,-69 625,-63 625,-63 625,-51 625,-51 625,-45 631,-39 637,-39 637,-39 667,-39 667,-39 673,-39 679,-45 679,-51 679,-51 679,-63 679,-63 679,-69 673,-75 667,-75"/>
<text text-anchor="middle" x="652" y="-54.2" font-family="Helvetica" font-size="11.00">end</text>
</g>
<!-- n2&#45;&gt;n3 -->
<g id="edge2" class="edge">
<title>n2&#45;&gt;n3</title>
<path fill="none" stroke="#555555" d="M519.34,-85.86C549.73,-79.2 587.62,-70.89 614.94,-64.9"/>
<polygon fill="#555555" stroke="#555555" points="615.84,-68.29 624.86,-62.73 614.34,-61.45 615.84,-68.29"/>
</g>
<!-- n20&#45;&gt;n19 -->
<g id="edge20" class="edge">
<title>n20&#45;&gt;n19</title>
<path fill="none" stroke="#555555" d="M2069.6,-389.99C2086.65,-378 2109.24,-362.11 2127.82,-349.04"/>
<polygon fill="#555555" stroke="#555555" points="2129.87,-351.88 2136.04,-343.26 2125.85,-346.15 2129.87,-351.88"/>
</g>
<!-- n21&#45;&gt;n20 -->
<g id="edge22" class="edge">
<title>n21&#45;&gt;n20</title>
<path fill="none" stroke="#555555" d="M1575.26,-371.15C1657.03,-377.61 1900.66,-396.84 1999.57,-404.65"/>
<polygon fill="#555555" stroke="#555555" points="1999.54,-408.16 2009.79,-405.46 2000.09,-401.18 1999.54,-408.16"/>
</g>
<!-- n22 -->
<g id="node16" class="node">
<title>n22</title>
<path fill="#ffcdd2" stroke="black" d="M1797,-343C1797,-343 1645,-343 1645,-343 1639,-343 1633,-337 1633,-331 1633,-331 1633,-319 1633,-319 1633,-313 1639,-307 1645,-307 1645,-307 1797,-307 1797,-307 1803,-307 1809,-313 1809,-319 1809,-319 1809,-331 1809,-331 1809,-337 1803,-343 1797,-343"/>
<text text-anchor="middle" x="1721" y="-322.2" font-family="Helvetica" font-size="11.00">Call System Exception Handler</text>
</g>
<!-- n21&#45;&gt;n22 -->
<g id="edge23" class="edge">
<title>n21&#45;&gt;n22</title>
<path fill="none" stroke="#555555" d="M1575.25,-362.03C1592.74,-357.55 1616.44,-351.49 1639.59,-345.57"/>
<polygon fill="#555555" stroke="#555555" points="1640.64,-348.91 1649.46,-343.04 1638.91,-342.13 1640.64,-348.91"/>
</g>
<!-- n22&#45;&gt;n13 -->
<g id="edge27" class="edge">
<title>n22&#45;&gt;n13</title>
<path fill="none" stroke="#555555" d="M1788.35,-306.91C1813.02,-300.25 1841.27,-292.7 1867,-286 1911.43,-274.44 1962.33,-261.7 1997.74,-252.91"/>
<polygon fill="#555555" stroke="#555555" points="1998.89,-256.24 2007.75,-250.43 1997.21,-249.44 1998.89,-256.24"/>
</g>
<!-- n22&#45;&gt;n18 -->
<g id="edge26" class="edge">
<title>n22&#45;&gt;n18</title>
<path fill="none" stroke="#555555" d="M1809.05,-325C1825.26,-325 1841.7,-325 1856.39,-325"/>
<polygon fill="#555555" stroke="#555555" points="1856.74,-328.5 1866.74,-325 1856.74,-321.5 1856.74,-328.5"/>
</g>
<!-- n23&#45;&gt;n15 -->
<g id="edge28" class="edge">
<title>n23&#45;&gt;n15</title>
<path fill="none" stroke="#555555" d="M908.76,-281C930.43,-287.59 955.15,-295.1 977.63,-301.92"/>
<polygon fill="#555555" stroke="#555555" points="976.86,-305.35 987.44,-304.91 978.89,-298.65 976.86,-305.35"/>
</g>
<!-- n6 -->
<g id="node22" class="node">
<title>n6</title>
<path fill="#e8f4f8" stroke="black" d="M1063,-217C1063,-217 1033,-217 1033,-217 1027,-217 1021,-211 1021,-205 1021,-205 1021,-193 1021,-193 1021,-187 1027,-181 1033,-181 1033,-181 1063,-181 1063,-181 1069,-181 1075,-187 1075,-193 1075,-193 1075,-205 1075,-205 1075,-211 1069,-217 1063,-217"/>
<text text-anchor="middle" x="1048" y="-196.2" font-family="Helvetica" font-size="11.00">Null</text>
</g>
<!-- n23&#45;&gt;n6 -->
<g id="edge29" class="edge">
<title>n23&#45;&gt;n6</title>
<path fill="none" stroke="#555555" d="M905.3,-244.92C939.18,-233.94 981.43,-220.25 1010.94,-210.68"/>
<polygon fill="#555555" stroke="#555555" points="1012.38,-213.9 1020.82,-207.48 1010.22,-207.24 1012.38,-213.9"/>
</g>
<!-- n24&#45;&gt;n15 -->
<g id="edge34" class="edge">
<title>n24&#45;&gt;n15</title>
<path fill="none" stroke="#555555" d="M877.38,-339.32C900.12,-337.13 933.45,-333.92 964.57,-330.93"/>
<polygon fill="#555555" stroke="#555555" points="964.96,-334.41 974.57,-329.97 964.29,-327.44 964.96,-334.41"/>
</g>
<!-- n5 -->
<g id="node21" class="node">
<title>n5</title>
<path fill="#e8f4f8" stroke="black" d="M512,-36C512,-36 423,-36 423,-36 417,-36 411,-30 411,-24 411,-24 411,-12 411,-12 411,-6 417,0 423,0 423,0 512,0 512,0 518,0 524,-6 524,-12 524,-12 524,-24 524,-24 524,-30 518,-36 512,-36"/>
<text text-anchor="middle" x="467.5" y="-15.2" font-family="Helvetica" font-size="11.00">OperationReply&#45;1</text>
</g>
<!-- n4&#45;&gt;n5 -->
<g id="edge6" class="edge">
<title>n4&#45;&gt;n5</title>
<path fill="none" stroke="#555555" d="M353.19,-18C368.88,-18 385.24,-18 400.48,-18"/>
<polygon fill="#555555" stroke="#555555" points="400.84,-21.5 410.84,-18 400.84,-14.5 400.84,-21.5"/>
</g>
<!-- n5&#45;&gt;n3 -->
<g id="edge5" class="edge">
<title>n5&#45;&gt;n3</title>
<path fill="none" stroke="#555555" d="M524.25,-29.91C553.55,-36.17 588.63,-43.67 614.45,-49.19"/>
<polygon fill="#555555" stroke="#555555" points="614.04,-52.68 624.55,-51.35 615.51,-45.84 614.04,-52.68"/>
</g>
<!-- n7 -->
<g id="node23" class="node">
<title>n7</title>
<path fill="#e8f4f8" stroke="black" d="M1427,-217C1427,-217 1341,-217 1341,-217 1335,-217 1329,-211 1329,-205 1329,-205 1329,-193 1329,-193 1329,-187 1335,-181 1341,-181 1341,-181 1427,-181 1427,-181 1433,-181 1439,-187 1439,-193 1439,-193 1439,-205 1439,-205 1439,-211 1433,-217 1427,-217"/>
<text text-anchor="middle" x="1384" y="-196.2" font-family="Helvetica" font-size="11.00">InvocationDetails</text>
</g>
<!-- n6&#45;&gt;n7 -->
<g id="edge7" class="edge">
<title>n6&#45;&gt;n7</title>
<path fill="none" stroke="#555555" d="M1075.21,-199C1127.2,-199 1244.74,-199 1318.59,-199"/>
<polygon fill="#555555" stroke="#555555" points="1318.71,-202.5 1328.71,-199 1318.71,-195.5 1318.71,-202.5"/>
</g>
<!-- n7&#45;&gt;n22 -->
<g id="edge31" class="edge">
<title>n7&#45;&gt;n22</title>
<path fill="none" stroke="#555555" d="M1433,-217.05C1493.57,-239.84 1597.65,-278.98 1662.44,-303.35"/>
<polygon fill="#555555" stroke="#555555" points="1661.5,-306.74 1672.09,-306.98 1663.96,-300.18 1661.5,-306.74"/>
</g>
<!-- n8 -->
<g id="node24" class="node">
<title>n8</title>
<path fill="#c8e6c9" stroke="black" d="M126,-241C126,-241 12,-241 12,-241 6,-241 0,-235 0,-229 0,-229 0,-217 0,-217 0,-211 6,-205 12,-205 12,-205 126,-205 126,-205 132,-205 138,-211 138,-217 138,-217 138,-229 138,-229 138,-235 132,-241 126,-241"/>
<text text-anchor="middle" x="69" y="-220.2" font-family="Helvetica" font-size="11.00">Receive JMS Message</text>
</g>
<!-- n8&#45;&gt;n6 -->
<g id="edge8" class="edge">
<title>n8&#45;&gt;n6</title>
<path fill="none" stroke="#555555" d="M138.17,-211.08C216.97,-198.35 350.7,-180 466.5,-180 466.5,-180 466.5,-180 653,-180 784.91,-180 941.36,-190.76 1010.76,-196.08"/>
<polygon fill="#555555" stroke="#555555" points="1010.5,-199.57 1020.74,-196.86 1011.04,-192.59 1010.5,-199.57"/>
</g>
<!-- n9 -->
<g id="node25" class="node">
<title>n9</title>
<path fill="#e8f4f8" stroke="black" d="M331.5,-285C331.5,-285 217.5,-285 217.5,-285 211.5,-285 205.5,-279 205.5,-273 205.5,-273 205.5,-261 205.5,-261 205.5,-255 211.5,-249 217.5,-249 217.5,-249 331.5,-249 331.5,-249 337.5,-249 343.5,-255 343.5,-261 343.5,-261 343.5,-273 343.5,-273 343.5,-279 337.5,-285 331.5,-285"/>
<text text-anchor="middle" x="274.5" y="-264.2" font-family="Helvetica" font-size="11.00">Confirm JMS Message</text>
</g>
<!-- n8&#45;&gt;n9 -->
<g id="edge10" class="edge">
<title>n8&#45;&gt;n9</title>
<path fill="none" stroke="#555555" d="M138.05,-237.71C156.36,-241.67 176.32,-245.99 195.15,-250.06"/>
<polygon fill="#555555" stroke="#555555" points="194.66,-253.53 205.17,-252.23 196.14,-246.69 194.66,-253.53"/>
</g>
<!-- n9&#45;&gt;n10 -->
<g id="edge9" class="edge">
<title>n9&#45;&gt;n10</title>
<path fill="none" stroke="#555555" d="M343.5,-273.7C407.73,-280.03 504.04,-289.52 571.73,-296.19"/>
<polygon fill="#555555" stroke="#555555" points="571.62,-299.7 581.92,-297.19 572.31,-292.73 571.62,-299.7"/>
</g>
<!-- n9&#45;&gt;n14 -->
<g id="edge13" class="edge">
<title>n9&#45;&gt;n14</title>
<path fill="none" stroke="#555555" d="M316.94,-285.01C348.07,-298.53 390.61,-317.02 422.36,-330.82"/>
<polygon fill="#555555" stroke="#555555" points="421.28,-334.17 431.85,-334.94 424.07,-327.75 421.28,-334.17"/>
</g>
</g>
</svg>
