<?xml version="1.0" encoding="UTF-8" standalone="no"?>
<!DOCTYPE svg PUBLIC "-//W3C//DTD SVG 1.1//EN"
 "http://www.w3.org/Graphics/SVG/1.1/DTD/svg11.dtd">
<!-- Generated by graphviz version 2.44.0 (0)
 -->
<!-- Title: process Pages: 1 -->
<svg width="527pt" height="108pt"
 viewBox="0.00 0.00 527.00 108.00" xmlns="http://www.w3.org/2000/svg" xmlns:xlink="http://www.w3.org/1999/xlink">
<g id="graph0" class="graph" transform="scale(1 1) rotate(0) translate(36 72)">
<title>process</title>
<polygon fill="#ffffff" stroke="transparent" points="-36,36 -36,-72 491,-72 491,36 -36,36"/>
<!-- n0 -->
<g id="node1" class="node">
<title>n0</title>
<path fill="#c8e6c9" stroke="black" d="M42,-36C42,-36 12,-36 12,-36 6,-36 0,-30 0,-24 0,-24 0,-12 0,-12 0,-6 6,0 12,0 12,0 42,0 42,0 48,0 54,-6 54,-12 54,-12 54,-24 54,-24 54,-30 48,-36 42,-36"/>
<text text-anchor="middle" x="27" y="-15.2" font-family="Helvetica" font-size="11.00">Start</text>
</g>
<!-- n1 -->
<g id="node2" class="node">
<title>n1</title>
<path fill="#e8f4f8" stroke="black" d="M193,-36C193,-36 124,-36 124,-36 118,-36 112,-30 112,-24 112,-24 112,-12 112,-12 112,-6 118,0 124,0 124,0 193,0 193,0 199,0 205,-6 205,-12 205,-12 205,-24 205,-24 205,-30 199,-36 193,-36"/>
<text text-anchor="middle" x="158.5" y="-15.2" font-family="Helvetica" font-size="11.00">Prepare Data</text>
</g>
<!-- n0&#45;&gt;n1 -->
<g id="edge1" class="edge">
<title>n0&#45;&gt;n1</title>
<path fill="none" stroke="#555555" d="M54.21,-18C67.92,-18 85.25,-18 101.78,-18"/>
<polygon fill="#555555" stroke="#555555" points="101.93,-21.5 111.93,-18 101.93,-14.5 101.93,-21.5"/>
</g>
<!-- n2 -->
<g id="node3" class="node">
<title>n2</title>
<path fill="#ffcdd2" stroke="black" d="M331,-36C331,-36 275,-36 275,-36 269,-36 263,-30 263,-24 263,-24 263,-12 263,-12 263,-6 269,0 275,0 275,0 331,0 331,0 337,0 343,-6 343,-12 343,-12 343,-24 343,-24 343,-30 337,-36 331,-36"/>
<text text-anchor="middle" x="303" y="-15.2" font-family="Helvetica" font-size="11.00">Fatal Error</text>
</g>
<!-- n1&#45;&gt;n2 -->
<g id="edge3" class="edge">
<title>n1&#45;&gt;n2</title>
<path fill="none" stroke="#555555" d="M205.37,-18C220.44,-18 237.26,-18 252.58,-18"/>
<polygon fill="#555555" stroke="#555555" points="252.91,-21.5 262.91,-18 252.91,-14.5 252.91,-21.5"/>
</g>
<!-- n3 -->
<g id="node4" class="node">
<title>n3</title>
<path fill="#ffccbc" stroke="black" d="M443,-36C443,-36 413,-36 413,-36 407,-36 401,-30 401,-24 401,-24 401,-12 401,-12 401,-6 407,0 413,0 413,0 443,0 443,0 449,0 455,-6 455,-12 455,-12 455,-24 455,-24 455,-30 449,-36 443,-36"/>
<text text-anchor="middle" x="428" y="-15.2" font-family="Helvetica" font-size="11.00">End</text>
</g>
<!-- n2&#45;&gt;n3 -->
<g id="edge2" class="edge">
<title>n2&#45;&gt;n3</title>
<path fill="none" stroke="#555555" d="M343.26,-18C358.42,-18 375.66,-18 390.55,-18"/>
<polygon fill="#555555" stroke="#555555" points="390.91,-21.5 400.91,-18 390.91,-14.5 390.91,-21.5"/>
</g>
</g>
</svg>
