<?xml version="1.0" encoding="UTF-8" standalone="no"?>
<!DOCTYPE svg PUBLIC "-//W3C//DTD SVG 1.1//EN"
 "http://www.w3.org/Graphics/SVG/1.1/DTD/svg11.dtd">
<!-- Generated by graphviz version 2.44.0 (0)
 -->
<!-- Title: process Pages: 1 -->
<svg width="1232pt" height="189pt"
 viewBox="0.00 0.00 1232.00 189.00" xmlns="http://www.w3.org/2000/svg" xmlns:xlink="http://www.w3.org/1999/xlink">
<g id="graph0" class="graph" transform="scale(1 1) rotate(0) translate(36 153)">
<title>process</title>
<polygon fill="#ffffff" stroke="transparent" points="-36,36 -36,-153 1196,-153 1196,36 -36,36"/>
<!-- n0 -->
<g id="node1" class="node">
<title>n0</title>
<path fill="#e8f4f8" stroke="black" d="M64,-77C64,-77 12,-77 12,-77 6,-77 0,-71 0,-65 0,-65 0,-53 0,-53 0,-47 6,-41 12,-41 12,-41 64,-41 64,-41 70,-41 76,-47 76,-53 76,-53 76,-65 76,-65 76,-71 70,-77 64,-77"/>
<text text-anchor="middle" x="38" y="-56.2" font-family="Helvetica" font-size="11.00">onStartup</text>
</g>
<!-- n1 -->
<g id="node2" class="node">
<title>n1</title>
<path fill="#c8e6c9" stroke="black" d="M223,-77C223,-77 146,-77 146,-77 140,-77 134,-71 134,-65 134,-65 134,-53 134,-53 134,-47 140,-41 146,-41 146,-41 223,-41 223,-41 229,-41 235,-47 235,-53 235,-53 235,-65 235,-65 235,-71 229,-77 223,-77"/>
<text text-anchor="middle" x="184.5" y="-56.2" font-family="Helvetica" font-size="11.00">Start Log Audit</text>
</g>
<!-- n0&#45;&gt;n1 -->
<g id="edge1" class="edge">
<title>n0&#45;&gt;n1</title>
<path fill="none" stroke="#555555" d="M76.21,-59C90.62,-59 107.47,-59 123.5,-59"/>
<polygon fill="#555555" stroke="#555555" points="123.88,-62.5 133.88,-59 123.88,-55.5 123.88,-62.5"/>
</g>
<!-- n5 -->
<g id="node6" class="node">
<title>n5</title>
<path fill="#e8f4f8" stroke="black" d="M455,-77C455,-77 305,-77 305,-77 299,-77 293,-71 293,-65 293,-65 293,-53 293,-53 293,-47 299,-41 305,-41 305,-41 455,-41 455,-41 461,-41 467,-47 467,-53 467,-53 467,-65 467,-65 467,-71 461,-77 455,-77"/>
<text text-anchor="middle" x="380" y="-56.2" font-family="Helvetica" font-size="11.00">LoadAllCoherenceErrorCodes</text>
</g>
<!-- n1&#45;&gt;n5 -->
<g id="edge4" class="edge">
<title>n1&#45;&gt;n5</title>
<path fill="none" stroke="#555555" d="M235.08,-59C249.64,-59 266.08,-59 282.52,-59"/>
<polygon fill="#555555" stroke="#555555" points="282.73,-62.5 292.73,-59 282.73,-55.5 282.73,-62.5"/>
</g>
<!-- n2 -->
<g id="node3" class="node">
<title>n2</title>
<path fill="#e8f4f8" stroke="black" d="M644,-117C644,-117 537,-117 537,-117 531,-117 525,-111 525,-105 525,-105 525,-93 525,-93 525,-87 531,-81 537,-81 537,-81 644,-81 644,-81 650,-81 656,-87 656,-93 656,-93 656,-105 656,-105 656,-111 650,-117 644,-117"/>
<text text-anchor="middle" x="590.5" y="-96.2" font-family="Helvetica" font-size="11.00">Shutdown BWEngine</text>
</g>
<!-- n3 -->
<g id="node4" class="node">
<title>n3</title>
<path fill="#e8f4f8" stroke="black" d="M836,-77C836,-77 726,-77 726,-77 720,-77 714,-71 714,-65 714,-65 714,-53 714,-53 714,-47 720,-41 726,-41 726,-41 836,-41 836,-41 842,-41 848,-47 848,-53 848,-53 848,-65 848,-65 848,-71 842,-77 836,-77"/>
<text text-anchor="middle" x="781" y="-56.2" font-family="Helvetica" font-size="11.00">WriteServerConfigFile</text>
</g>
<!-- n2&#45;&gt;n3 -->
<g id="edge2" class="edge">
<title>n2&#45;&gt;n3</title>
<path fill="none" stroke="#555555" d="M656.11,-85.29C671.55,-82.01 688.18,-78.48 704.08,-75.11"/>
<polygon fill="#555555" stroke="#555555" points="704.82,-78.53 713.87,-73.03 703.37,-71.68 704.82,-78.53"/>
</g>
<!-- n6 -->
<g id="node7" class="node">
<title>n6</title>
<path fill="#ffccbc" stroke="black" d="M1148,-77C1148,-77 1118,-77 1118,-77 1112,-77 1106,-71 1106,-65 1106,-65 1106,-53 1106,-53 1106,-47 1112,-41 1118,-41 1118,-41 1148,-41 1148,-41 1154,-41 1160,-47 1160,-53 1160,-53 1160,-65 1160,-65 1160,-71 1154,-77 1148,-77"/>
<text text-anchor="middle" x="1133" y="-56.2" font-family="Helvetica" font-size="11.00">End</text>
</g>
<!-- n3&#45;&gt;n6 -->
<g id="edge7" class="edge">
<title>n3&#45;&gt;n6</title>
<path fill="none" stroke="#555555" d="M848.24,-59C921.57,-59 1037.09,-59 1095.54,-59"/>
<polygon fill="#555555" stroke="#555555" points="1095.76,-62.5 1105.76,-59 1095.76,-55.5 1095.76,-62.5"/>
</g>
<!-- n7 -->
<g id="node8" class="node">
<title>n7</title>
<path fill="#e8f4f8" stroke="black" d="M1036,-36C1036,-36 918,-36 918,-36 912,-36 906,-30 906,-24 906,-24 906,-12 906,-12 906,-6 912,0 918,0 918,0 1036,0 1036,0 1042,0 1048,-6 1048,-12 1048,-12 1048,-24 1048,-24 1048,-30 1042,-36 1036,-36"/>
<text text-anchor="middle" x="977" y="-15.2" font-family="Helvetica" font-size="11.00">Shutdown&#45;BWEngine&#45;1</text>
</g>
<!-- n3&#45;&gt;n7 -->
<g id="edge8" class="edge">
<title>n3&#45;&gt;n7</title>
<path fill="none" stroke="#555555" d="M848.22,-45C863.58,-41.76 880.09,-38.27 895.98,-34.91"/>
<polygon fill="#555555" stroke="#555555" points="896.71,-38.33 905.77,-32.84 895.26,-31.49 896.71,-38.33"/>
</g>
<!-- n4 -->
<g id="node5" class="node">
<title>n4</title>
<path fill="#ffccbc" stroke="black" d="M627,-38C627,-38 554,-38 554,-38 548,-38 542,-32 542,-26 542,-26 542,-14 542,-14 542,-8 548,-2 554,-2 554,-2 627,-2 627,-2 633,-2 639,-8 639,-14 639,-14 639,-26 639,-26 639,-32 633,-38 627,-38"/>
<text text-anchor="middle" x="590.5" y="-17.2" font-family="Helvetica" font-size="11.00">End Audit Log</text>
</g>
<!-- n4&#45;&gt;n3 -->
<g id="edge3" class="edge">
<title>n4&#45;&gt;n3</title>
<path fill="none" stroke="#555555" d="M639.07,-29.84C658.74,-33.91 682.04,-38.73 703.98,-43.27"/>
<polygon fill="#555555" stroke="#555555" points="703.44,-46.73 713.94,-45.33 704.86,-39.88 703.44,-46.73"/>
</g>
<!-- n5&#45;&gt;n2 -->
<g id="edge6" class="edge">
<title>n5&#45;&gt;n2</title>
<path fill="none" stroke="#555555" d="M467.01,-75.5C482.84,-78.54 499.24,-81.68 514.71,-84.65"/>
<polygon fill="#555555" stroke="#555555" points="514.24,-88.12 524.72,-86.57 515.56,-81.25 514.24,-88.12"/>
</g>
<!-- n5&#45;&gt;n4 -->
<g id="edge5" class="edge">
<title>n5&#45;&gt;n4</title>
<path fill="none" stroke="#555555" d="M467.01,-42.91C488.89,-38.82 511.87,-34.52 531.95,-30.77"/>
<polygon fill="#555555" stroke="#555555" points="532.67,-34.19 541.85,-28.91 531.38,-27.31 532.67,-34.19"/>
</g>
<!-- n7&#45;&gt;n6 -->
<g id="edge9" class="edge">
<title>n7&#45;&gt;n6</title>
<path fill="none" stroke="#555555" d="M1045.99,-36.1C1063.28,-40.7 1081.18,-45.47 1096.14,-49.45"/>
<polygon fill="#555555" stroke="#555555" points="1095.42,-52.88 1105.98,-52.07 1097.22,-46.12 1095.42,-52.88"/>
</g>
</g>
</svg>
