<?xml version="1.0" encoding="UTF-8" standalone="no"?>
<!DOCTYPE svg PUBLIC "-//W3C//DTD SVG 1.1//EN"
 "http://www.w3.org/Graphics/SVG/1.1/DTD/svg11.dtd">
<!-- Generated by graphviz version 2.44.0 (0)
 -->
<!-- Title: process Pages: 1 -->
<svg width="647pt" height="150pt"
 viewBox="0.00 0.00 647.00 150.00" xmlns="http://www.w3.org/2000/svg" xmlns:xlink="http://www.w3.org/1999/xlink">
<g id="graph0" class="graph" transform="scale(1 1) rotate(0) translate(36 114)">
<title>process</title>
<polygon fill="#ffffff" stroke="transparent" points="-36,36 -36,-114 611,-114 611,36 -36,36"/>
<!-- n0 -->
<g id="node1" class="node">
<title>n0</title>
<path fill="#e8f4f8" stroke="black" d="M451,-78C451,-78 344,-78 344,-78 338,-78 332,-72 332,-66 332,-66 332,-54 332,-54 332,-48 338,-42 344,-42 344,-42 451,-42 451,-42 457,-42 463,-48 463,-54 463,-54 463,-66 463,-66 463,-72 457,-78 451,-78"/>
<text text-anchor="middle" x="397.5" y="-57.2" font-family="Helvetica" font-size="11.00">Shutdown BWEngine</text>
</g>
<!-- n1 -->
<g id="node2" class="node">
<title>n1</title>
<path fill="#ffccbc" stroke="black" d="M563,-36C563,-36 533,-36 533,-36 527,-36 521,-30 521,-24 521,-24 521,-12 521,-12 521,-6 527,0 533,0 533,0 563,0 563,0 569,0 575,-6 575,-12 575,-12 575,-24 575,-24 575,-30 569,-36 563,-36"/>
<text text-anchor="middle" x="548" y="-15.2" font-family="Helvetica" font-size="11.00">End</text>
</g>
<!-- n0&#45;&gt;n1 -->
<g id="edge1" class="edge">
<title>n0&#45;&gt;n1</title>
<path fill="none" stroke="#555555" d="M462.34,-41.94C479.07,-37.21 496.53,-32.28 511.21,-28.12"/>
<polygon fill="#555555" stroke="#555555" points="512.22,-31.47 520.89,-25.38 510.31,-24.74 512.22,-31.47"/>
</g>
<!-- n2 -->
<g id="node3" class="node">
<title>n2</title>
<path fill="#e8f4f8" stroke="black" d="M64,-36C64,-36 12,-36 12,-36 6,-36 0,-30 0,-24 0,-24 0,-12 0,-12 0,-6 6,0 12,0 12,0 64,0 64,0 70,0 76,-6 76,-12 76,-12 76,-24 76,-24 76,-30 70,-36 64,-36"/>
<text text-anchor="middle" x="38" y="-15.2" font-family="Helvetica" font-size="11.00">onStartup</text>
</g>
<!-- n3 -->
<g id="node4" class="node">
<title>n3</title>
<path fill="#e8f4f8" stroke="black" d="M262,-36C262,-36 146,-36 146,-36 140,-36 134,-30 134,-24 134,-24 134,-12 134,-12 134,-6 140,0 146,0 146,0 262,0 262,0 268,0 274,-6 274,-12 274,-12 274,-24 274,-24 274,-30 268,-36 262,-36"/>
<text text-anchor="middle" x="204" y="-15.2" font-family="Helvetica" font-size="11.00">LoadPartnerOperations</text>
</g>
<!-- n2&#45;&gt;n3 -->
<g id="edge2" class="edge">
<title>n2&#45;&gt;n3</title>
<path fill="none" stroke="#555555" d="M76.21,-18C90.38,-18 107.12,-18 123.71,-18"/>
<polygon fill="#555555" stroke="#555555" points="123.99,-21.5 133.99,-18 123.99,-14.5 123.99,-21.5"/>
</g>
<!-- n3&#45;&gt;n0 -->
<g id="edge3" class="edge">
<title>n3&#45;&gt;n0</title>
<path fill="none" stroke="#555555" d="M274.14,-33.16C289.6,-36.56 306.08,-40.17 321.76,-43.61"/>
<polygon fill="#555555" stroke="#555555" points="321.42,-47.12 331.93,-45.84 322.92,-40.28 321.42,-47.12"/>
</g>
<!-- n3&#45;&gt;n1 -->
<g id="edge4" class="edge">
<title>n3&#45;&gt;n1</title>
<path fill="none" stroke="#555555" d="M274.21,-18C345.72,-18 454.58,-18 510.71,-18"/>
<polygon fill="#555555" stroke="#555555" points="510.88,-21.5 520.88,-18 510.88,-14.5 510.88,-21.5"/>
</g>
</g>
</svg>
