<?xml version="1.0" encoding="UTF-8" standalone="no"?>
<!DOCTYPE svg PUBLIC "-//W3C//DTD SVG 1.1//EN"
 "http://www.w3.org/Graphics/SVG/1.1/DTD/svg11.dtd">
<!-- Generated by graphviz version 2.44.0 (0)
 -->
<!-- Title: process Pages: 1 -->
<svg width="1237pt" height="573pt"
 viewBox="0.00 0.00 1237.00 573.00" xmlns="http://www.w3.org/2000/svg" xmlns:xlink="http://www.w3.org/1999/xlink">
<g id="graph0" class="graph" transform="scale(1 1) rotate(0) translate(36 537)">
<title>process</title>
<polygon fill="#ffffff" stroke="transparent" points="-36,36 -36,-537 1201,-537 1201,36 -36,36"/>
<!-- n0 -->
<g id="node1" class="node">
<title>n0</title>
<path fill="#c8e6c9" stroke="black" d="M42,-160C42,-160 12,-160 12,-160 6,-160 0,-154 0,-148 0,-148 0,-136 0,-136 0,-130 6,-124 12,-124 12,-124 42,-124 42,-124 48,-124 54,-130 54,-136 54,-136 54,-148 54,-148 54,-154 48,-160 42,-160"/>
<text text-anchor="middle" x="27" y="-139.2" font-family="Helvetica" font-size="11.00">start</text>
</g>
<!-- n1 -->
<g id="node2" class="node">
<title>n1</title>
<path fill="#e8f4f8" stroke="black" d="M384,-284C384,-284 298,-284 298,-284 292,-284 286,-278 286,-272 286,-272 286,-260 286,-260 286,-254 292,-248 298,-248 298,-248 384,-248 384,-248 390,-248 396,-254 396,-260 396,-260 396,-272 396,-272 396,-278 390,-284 384,-284"/>
<text text-anchor="middle" x="341" y="-263.2" font-family="Helvetica" font-size="11.00">UpdatePassword</text>
</g>
<!-- n0&#45;&gt;n1 -->
<g id="edge1" class="edge">
<title>n0&#45;&gt;n1</title>
<path fill="none" stroke="#555555" d="M41.65,-160.05C56.74,-178.64 82.82,-206.96 112,-222 163.08,-248.32 227.96,-258.97 275.44,-263.24"/>
<polygon fill="#555555" stroke="#555555" points="275.35,-266.75 285.6,-264.08 275.92,-259.77 275.35,-266.75"/>
</g>
<!-- n2 -->
<g id="node13" class="node">
<title>n2</title>
<path fill="#e8f4f8" stroke="black" d="M216,-201C216,-201 124,-201 124,-201 118,-201 112,-195 112,-189 112,-189 112,-177 112,-177 112,-171 118,-165 124,-165 124,-165 216,-165 216,-165 222,-165 228,-171 228,-177 228,-177 228,-189 228,-189 228,-195 222,-201 216,-201"/>
<text text-anchor="middle" x="170" y="-180.2" font-family="Helvetica" font-size="11.00">GetContactDetails</text>
</g>
<!-- n0&#45;&gt;n2 -->
<g id="edge2" class="edge">
<title>n0&#45;&gt;n2</title>
<path fill="none" stroke="#555555" d="M54.19,-149.62C67.77,-153.56 85.04,-158.59 102.04,-163.53"/>
<polygon fill="#555555" stroke="#555555" points="101.4,-166.99 111.98,-166.42 103.36,-160.27 101.4,-166.99"/>
</g>
<!-- n3 -->
<g id="node15" class="node">
<title>n3</title>
<path fill="#e8f4f8" stroke="black" d="M544.5,-120C544.5,-120 474.5,-120 474.5,-120 468.5,-120 462.5,-114 462.5,-108 462.5,-108 462.5,-96 462.5,-96 462.5,-90 468.5,-84 474.5,-84 474.5,-84 544.5,-84 544.5,-84 550.5,-84 556.5,-90 556.5,-96 556.5,-96 556.5,-108 556.5,-108 556.5,-114 550.5,-120 544.5,-120"/>
<text text-anchor="middle" x="509.5" y="-99.2" font-family="Helvetica" font-size="11.00">EncryptFields</text>
</g>
<!-- n0&#45;&gt;n3 -->
<g id="edge3" class="edge">
<title>n0&#45;&gt;n3</title>
<path fill="none" stroke="#555555" d="M54.17,-139.82C129.51,-133.55 348.12,-115.35 452.17,-106.69"/>
<polygon fill="#555555" stroke="#555555" points="452.5,-110.17 462.18,-105.86 451.92,-103.2 452.5,-110.17"/>
</g>
<!-- n4 -->
<g id="node16" class="node">
<title>n4</title>
<path fill="#e8f4f8" stroke="black" d="M792,-36C792,-36 635,-36 635,-36 629,-36 623,-30 623,-24 623,-24 623,-12 623,-12 623,-6 629,0 635,0 635,0 792,0 792,0 798,0 804,-6 804,-12 804,-12 804,-24 804,-24 804,-30 798,-36 792,-36"/>
<text text-anchor="middle" x="713.5" y="-15.2" font-family="Helvetica" font-size="11.00">UpdateRegisteredUserDetails.2</text>
</g>
<!-- n0&#45;&gt;n4 -->
<g id="edge4" class="edge">
<title>n0&#45;&gt;n4</title>
<path fill="none" stroke="#555555" d="M54.23,-132.86C70.66,-127.38 92.38,-120.61 112,-116 286.23,-75.03 492.88,-45.36 612.72,-29.98"/>
<polygon fill="#555555" stroke="#555555" points="613.49,-33.41 622.97,-28.68 612.61,-26.47 613.49,-33.41"/>
</g>
<!-- n5 -->
<g id="node17" class="node">
<title>n5</title>
<path fill="#e8f4f8" stroke="black" d="M984,-120C984,-120 874,-120 874,-120 868,-120 862,-114 862,-108 862,-108 862,-96 862,-96 862,-90 868,-84 874,-84 874,-84 984,-84 984,-84 990,-84 996,-90 996,-96 996,-96 996,-108 996,-108 996,-114 990,-120 984,-120"/>
<text text-anchor="middle" x="929" y="-99.2" font-family="Helvetica" font-size="11.00">CustomerNotifications</text>
</g>
<!-- n1&#45;&gt;n5 -->
<g id="edge8" class="edge">
<title>n1&#45;&gt;n5</title>
<path fill="none" stroke="#555555" d="M396.05,-257.28C441.48,-249.48 507.94,-237 565,-222 674.44,-193.23 799.1,-149.56 870.18,-123.6"/>
<polygon fill="#555555" stroke="#555555" points="871.66,-126.78 879.84,-120.05 869.25,-120.21 871.66,-126.78"/>
</g>
<!-- n10 -->
<g id="node3" class="node">
<title>n10</title>
<path fill="#c8e6c9" stroke="black" d="M42,-406C42,-406 12,-406 12,-406 6,-406 0,-400 0,-394 0,-394 0,-382 0,-382 0,-376 6,-370 12,-370 12,-370 42,-370 42,-370 48,-370 54,-376 54,-382 54,-382 54,-394 54,-394 54,-400 48,-406 42,-406"/>
<text text-anchor="middle" x="27" y="-385.2" font-family="Helvetica" font-size="11.00">Start</text>
</g>
<!-- n11 -->
<g id="node4" class="node">
<title>n11</title>
<path fill="#e8f4f8" stroke="black" d="M205,-406C205,-406 135,-406 135,-406 129,-406 123,-400 123,-394 123,-394 123,-382 123,-382 123,-376 129,-370 135,-370 135,-370 205,-370 205,-370 211,-370 217,-376 217,-382 217,-382 217,-394 217,-394 217,-400 211,-406 205,-406"/>
<text text-anchor="middle" x="170" y="-385.2" font-family="Helvetica" font-size="11.00">Validate Input</text>
</g>
<!-- n10&#45;&gt;n11 -->
<g id="edge13" class="edge">
<title>n10&#45;&gt;n11</title>
<path fill="none" stroke="#555555" d="M54.19,-388C70.68,-388 92.6,-388 112.87,-388"/>
<polygon fill="#555555" stroke="#555555" points="112.97,-391.5 122.97,-388 112.97,-384.5 112.97,-391.5"/>
</g>
<!-- n12 -->
<g id="node5" class="node">
<title>n12</title>
<path fill="#e8f4f8" stroke="black" d="M356,-466C356,-466 326,-466 326,-466 320,-466 314,-460 314,-454 314,-454 314,-442 314,-442 314,-436 320,-430 326,-430 326,-430 356,-430 356,-430 362,-430 368,-436 368,-442 368,-442 368,-454 368,-454 368,-460 362,-466 356,-466"/>
<text text-anchor="middle" x="341" y="-445.2" font-family="Helvetica" font-size="11.00">Null</text>
</g>
<!-- n11&#45;&gt;n12 -->
<g id="edge14" class="edge">
<title>n11&#45;&gt;n12</title>
<path fill="none" stroke="#555555" d="M217.18,-404.4C244.62,-414.14 278.89,-426.3 304.26,-435.31"/>
<polygon fill="#555555" stroke="#555555" points="303.25,-438.67 313.85,-438.72 305.6,-432.07 303.25,-438.67"/>
</g>
<!-- n13 -->
<g id="node6" class="node">
<title>n13</title>
<path fill="#ffcdd2" stroke="black" d="M379.5,-387C379.5,-387 302.5,-387 302.5,-387 296.5,-387 290.5,-381 290.5,-375 290.5,-375 290.5,-363 290.5,-363 290.5,-357 296.5,-351 302.5,-351 302.5,-351 379.5,-351 379.5,-351 385.5,-351 391.5,-357 391.5,-363 391.5,-363 391.5,-375 391.5,-375 391.5,-381 385.5,-387 379.5,-387"/>
<text text-anchor="middle" x="341" y="-366.2" font-family="Helvetica" font-size="11.00">Generate Error</text>
</g>
<!-- n11&#45;&gt;n13 -->
<g id="edge15" class="edge">
<title>n11&#45;&gt;n13</title>
<path fill="none" stroke="#555555" d="M217.18,-382.81C236.66,-380.62 259.6,-378.04 280.34,-375.71"/>
<polygon fill="#555555" stroke="#555555" points="280.78,-379.18 290.32,-374.59 279.99,-372.22 280.78,-379.18"/>
</g>
<!-- n14 -->
<g id="node7" class="node">
<title>n14</title>
<path fill="#ffcdd2" stroke="black" d="M553,-501C553,-501 466,-501 466,-501 460,-501 454,-495 454,-489 454,-489 454,-477 454,-477 454,-471 460,-465 466,-465 466,-465 553,-465 553,-465 559,-465 565,-471 565,-477 565,-477 565,-489 565,-489 565,-495 559,-501 553,-501"/>
<text text-anchor="middle" x="509.5" y="-480.2" font-family="Helvetica" font-size="11.00">Generate&#45;Error&#45;1</text>
</g>
<!-- n12&#45;&gt;n14 -->
<g id="edge16" class="edge">
<title>n12&#45;&gt;n14</title>
<path fill="none" stroke="#555555" d="M368.02,-453.47C388.29,-457.73 417.34,-463.84 443.77,-469.39"/>
<polygon fill="#555555" stroke="#555555" points="443.24,-472.86 453.75,-471.49 444.68,-466.01 443.24,-472.86"/>
</g>
<!-- n15 -->
<g id="node8" class="node">
<title>n15</title>
<path fill="#e8f4f8" stroke="black" d="M527,-422C527,-422 492,-422 492,-422 486,-422 480,-416 480,-410 480,-410 480,-398 480,-398 480,-392 486,-386 492,-386 492,-386 527,-386 527,-386 533,-386 539,-392 539,-398 539,-398 539,-410 539,-410 539,-416 533,-422 527,-422"/>
<text text-anchor="middle" x="509.5" y="-401.2" font-family="Helvetica" font-size="11.00">Group</text>
</g>
<!-- n12&#45;&gt;n15 -->
<g id="edge17" class="edge">
<title>n12&#45;&gt;n15</title>
<path fill="none" stroke="#555555" d="M368.02,-441.12C395.42,-433.88 438.85,-422.41 470.17,-414.13"/>
<polygon fill="#555555" stroke="#555555" points="471.1,-417.5 479.88,-411.56 469.32,-410.74 471.1,-417.5"/>
</g>
<!-- n16 -->
<g id="node9" class="node">
<title>n16</title>
<path fill="#ffccbc" stroke="black" d="M728.5,-456C728.5,-456 698.5,-456 698.5,-456 692.5,-456 686.5,-450 686.5,-444 686.5,-444 686.5,-432 686.5,-432 686.5,-426 692.5,-420 698.5,-420 698.5,-420 728.5,-420 728.5,-420 734.5,-420 740.5,-426 740.5,-432 740.5,-432 740.5,-444 740.5,-444 740.5,-450 734.5,-456 728.5,-456"/>
<text text-anchor="middle" x="713.5" y="-435.2" font-family="Helvetica" font-size="11.00">End</text>
</g>
<!-- n15&#45;&gt;n16 -->
<g id="edge18" class="edge">
<title>n15&#45;&gt;n16</title>
<path fill="none" stroke="#555555" d="M539.01,-408.8C575.05,-414.87 637.12,-425.31 676.42,-431.93"/>
<polygon fill="#555555" stroke="#555555" points="675.93,-435.39 686.38,-433.6 677.1,-428.49 675.93,-435.39"/>
</g>
<!-- n17 -->
<g id="node10" class="node">
<title>n17</title>
<path fill="#e8f4f8" stroke="black" d="M730,-377C730,-377 697,-377 697,-377 691,-377 685,-371 685,-365 685,-365 685,-353 685,-353 685,-347 691,-341 697,-341 697,-341 730,-341 730,-341 736,-341 742,-347 742,-353 742,-353 742,-365 742,-365 742,-371 736,-377 730,-377"/>
<text text-anchor="middle" x="713.5" y="-356.2" font-family="Helvetica" font-size="11.00">Null&#45;1</text>
</g>
<!-- n15&#45;&gt;n17 -->
<g id="edge19" class="edge">
<title>n15&#45;&gt;n17</title>
<path fill="none" stroke="#555555" d="M539.01,-397.65C574.55,-389.73 635.4,-376.18 674.77,-367.4"/>
<polygon fill="#555555" stroke="#555555" points="675.78,-370.77 684.78,-365.18 674.26,-363.93 675.78,-370.77"/>
</g>
<!-- n18 -->
<g id="node11" class="node">
<title>n18</title>
<path fill="#e8f4f8" stroke="black" d="M975,-416C975,-416 883,-416 883,-416 877,-416 871,-410 871,-404 871,-404 871,-392 871,-392 871,-386 877,-380 883,-380 883,-380 975,-380 975,-380 981,-380 987,-386 987,-392 987,-392 987,-404 987,-404 987,-410 981,-416 975,-416"/>
<text text-anchor="middle" x="929" y="-395.2" font-family="Helvetica" font-size="11.00">MapAnyException</text>
</g>
<!-- n17&#45;&gt;n18 -->
<g id="edge20" class="edge">
<title>n17&#45;&gt;n18</title>
<path fill="none" stroke="#555555" d="M742.41,-364.1C772.32,-369.56 820.87,-378.43 860.82,-385.73"/>
<polygon fill="#555555" stroke="#555555" points="860.31,-389.19 870.77,-387.55 861.56,-382.31 860.31,-389.19"/>
</g>
<!-- n20 -->
<g id="node14" class="node">
<title>n20</title>
<path fill="#e8f4f8" stroke="black" d="M982.5,-337C982.5,-337 875.5,-337 875.5,-337 869.5,-337 863.5,-331 863.5,-325 863.5,-325 863.5,-313 863.5,-313 863.5,-307 869.5,-301 875.5,-301 875.5,-301 982.5,-301 982.5,-301 988.5,-301 994.5,-307 994.5,-313 994.5,-313 994.5,-325 994.5,-325 994.5,-331 988.5,-337 982.5,-337"/>
<text text-anchor="middle" x="929" y="-316.2" font-family="Helvetica" font-size="11.00">MapLegacyException</text>
</g>
<!-- n17&#45;&gt;n20 -->
<g id="edge22" class="edge">
<title>n17&#45;&gt;n20</title>
<path fill="none" stroke="#555555" d="M742.41,-353.77C770.43,-348.52 814.81,-340.21 853.15,-333.02"/>
<polygon fill="#555555" stroke="#555555" points="854.08,-336.41 863.26,-331.13 852.79,-329.53 854.08,-336.41"/>
</g>
<!-- n19 -->
<g id="node12" class="node">
<title>n19</title>
<path fill="#ffcdd2" stroke="black" d="M1153,-376C1153,-376 1066,-376 1066,-376 1060,-376 1054,-370 1054,-364 1054,-364 1054,-352 1054,-352 1054,-346 1060,-340 1066,-340 1066,-340 1153,-340 1153,-340 1159,-340 1165,-346 1165,-352 1165,-352 1165,-364 1165,-364 1165,-370 1159,-376 1153,-376"/>
<text text-anchor="middle" x="1109.5" y="-355.2" font-family="Helvetica" font-size="11.00">Generate&#45;Error&#45;2</text>
</g>
<!-- n18&#45;&gt;n19 -->
<g id="edge21" class="edge">
<title>n18&#45;&gt;n19</title>
<path fill="none" stroke="#555555" d="M987.46,-385.12C1005.52,-381.08 1025.57,-376.58 1044.07,-372.44"/>
<polygon fill="#555555" stroke="#555555" points="1044.89,-375.84 1053.88,-370.24 1043.36,-369.01 1044.89,-375.84"/>
</g>
<!-- n7 -->
<g id="node19" class="node">
<title>n7</title>
<path fill="#e8f4f8" stroke="black" d="M373.5,-201C373.5,-201 308.5,-201 308.5,-201 302.5,-201 296.5,-195 296.5,-189 296.5,-189 296.5,-177 296.5,-177 296.5,-171 302.5,-165 308.5,-165 308.5,-165 373.5,-165 373.5,-165 379.5,-165 385.5,-171 385.5,-177 385.5,-177 385.5,-189 385.5,-189 385.5,-195 379.5,-201 373.5,-201"/>
<text text-anchor="middle" x="341" y="-180.2" font-family="Helvetica" font-size="11.00">DecryptField</text>
</g>
<!-- n2&#45;&gt;n7 -->
<g id="edge6" class="edge">
<title>n2&#45;&gt;n7</title>
<path fill="none" stroke="#555555" d="M228.22,-183C247.04,-183 267.89,-183 286.43,-183"/>
<polygon fill="#555555" stroke="#555555" points="286.47,-186.5 296.47,-183 286.47,-179.5 286.47,-186.5"/>
</g>
<!-- n20&#45;&gt;n19 -->
<g id="edge23" class="edge">
<title>n20&#45;&gt;n19</title>
<path fill="none" stroke="#555555" d="M994.69,-333.14C1010.72,-336.64 1027.9,-340.39 1043.92,-343.89"/>
<polygon fill="#555555" stroke="#555555" points="1043.21,-347.32 1053.73,-346.03 1044.71,-340.48 1043.21,-347.32"/>
</g>
<!-- n8 -->
<g id="node20" class="node">
<title>n8</title>
<path fill="#e8f4f8" stroke="black" d="M768.5,-120C768.5,-120 658.5,-120 658.5,-120 652.5,-120 646.5,-114 646.5,-108 646.5,-108 646.5,-96 646.5,-96 646.5,-90 652.5,-84 658.5,-84 658.5,-84 768.5,-84 768.5,-84 774.5,-84 780.5,-90 780.5,-96 780.5,-96 780.5,-108 780.5,-108 780.5,-114 774.5,-120 768.5,-120"/>
<text text-anchor="middle" x="713.5" y="-99.2" font-family="Helvetica" font-size="11.00">UpdateContactDetails</text>
</g>
<!-- n3&#45;&gt;n8 -->
<g id="edge11" class="edge">
<title>n3&#45;&gt;n8</title>
<path fill="none" stroke="#555555" d="M556.59,-102C580.13,-102 609.39,-102 636.18,-102"/>
<polygon fill="#555555" stroke="#555555" points="636.31,-105.5 646.31,-102 636.31,-98.5 636.31,-105.5"/>
</g>
<!-- n4&#45;&gt;n5 -->
<g id="edge9" class="edge">
<title>n4&#45;&gt;n5</title>
<path fill="none" stroke="#555555" d="M760.3,-36.02C793.12,-48.93 837.49,-66.39 872.34,-80.1"/>
<polygon fill="#555555" stroke="#555555" points="871.32,-83.46 881.91,-83.86 873.88,-76.95 871.32,-83.46"/>
</g>
<!-- n6 -->
<g id="node18" class="node">
<title>n6</title>
<path fill="#ffccbc" stroke="black" d="M1124.5,-120C1124.5,-120 1094.5,-120 1094.5,-120 1088.5,-120 1082.5,-114 1082.5,-108 1082.5,-108 1082.5,-96 1082.5,-96 1082.5,-90 1088.5,-84 1094.5,-84 1094.5,-84 1124.5,-84 1124.5,-84 1130.5,-84 1136.5,-90 1136.5,-96 1136.5,-96 1136.5,-108 1136.5,-108 1136.5,-114 1130.5,-120 1124.5,-120"/>
<text text-anchor="middle" x="1109.5" y="-99.2" font-family="Helvetica" font-size="11.00">end</text>
</g>
<!-- n5&#45;&gt;n6 -->
<g id="edge5" class="edge">
<title>n5&#45;&gt;n6</title>
<path fill="none" stroke="#555555" d="M996.21,-102C1021.96,-102 1050.46,-102 1072.3,-102"/>
<polygon fill="#555555" stroke="#555555" points="1072.45,-105.5 1082.45,-102 1072.45,-98.5 1072.45,-105.5"/>
</g>
<!-- n7&#45;&gt;n3 -->
<g id="edge10" class="edge">
<title>n7&#45;&gt;n3</title>
<path fill="none" stroke="#555555" d="M379.37,-164.82C403.79,-152.94 435.87,-137.33 461.95,-124.65"/>
<polygon fill="#555555" stroke="#555555" points="463.8,-127.64 471.26,-120.12 460.74,-121.34 463.8,-127.64"/>
</g>
<!-- n9 -->
<g id="node21" class="node">
<title>n9</title>
<path fill="#ffcdd2" stroke="black" d="M553,-201C553,-201 466,-201 466,-201 460,-201 454,-195 454,-189 454,-189 454,-177 454,-177 454,-171 460,-165 466,-165 466,-165 553,-165 553,-165 559,-165 565,-171 565,-177 565,-177 565,-189 565,-189 565,-195 559,-201 553,-201"/>
<text text-anchor="middle" x="509.5" y="-180.2" font-family="Helvetica" font-size="11.00">Generate&#45;Error&#45;3</text>
</g>
<!-- n7&#45;&gt;n9 -->
<g id="edge12" class="edge">
<title>n7&#45;&gt;n9</title>
<path fill="none" stroke="#555555" d="M385.75,-183C403.47,-183 424.3,-183 443.72,-183"/>
<polygon fill="#555555" stroke="#555555" points="443.72,-186.5 453.72,-183 443.72,-179.5 443.72,-186.5"/>
</g>
<!-- n8&#45;&gt;n5 -->
<g id="edge7" class="edge">
<title>n8&#45;&gt;n5</title>
<path fill="none" stroke="#555555" d="M780.59,-102C803.1,-102 828.45,-102 851.69,-102"/>
<polygon fill="#555555" stroke="#555555" points="851.85,-105.5 861.85,-102 851.85,-98.5 851.85,-105.5"/>
</g>
</g>
</svg>
