<?xml version="1.0" encoding="UTF-8" standalone="no"?>
<!DOCTYPE svg PUBLIC "-//W3C//DTD SVG 1.1//EN"
 "http://www.w3.org/Graphics/SVG/1.1/DTD/svg11.dtd">
<!-- Generated by graphviz version 2.44.0 (0)
 -->
<!-- Title: process Pages: 1 -->
<svg width="565pt" height="187pt"
 viewBox="0.00 0.00 565.00 187.00" xmlns="http://www.w3.org/2000/svg" xmlns:xlink="http://www.w3.org/1999/xlink">
<g id="graph0" class="graph" transform="scale(1 1) rotate(0) translate(36 151)">
<title>process</title>
<polygon fill="#ffffff" stroke="transparent" points="-36,36 -36,-151 529,-151 529,36 -36,36"/>
<!-- n0 -->
<g id="node1" class="node">
<title>n0</title>
<path fill="#c8e6c9" stroke="black" d="M42,-36C42,-36 12,-36 12,-36 6,-36 0,-30 0,-24 0,-24 0,-12 0,-12 0,-6 6,0 12,0 12,0 42,0 42,0 48,0 54,-6 54,-12 54,-12 54,-24 54,-24 54,-30 48,-36 42,-36"/>
<text text-anchor="middle" x="27" y="-15.2" font-family="Helvetica" font-size="11.00">start</text>
</g>
<!-- n1 -->
<g id="node2" class="node">
<title>n1</title>
<path fill="#e8f4f8" stroke="black" d="M235,-36C235,-36 124,-36 124,-36 118,-36 112,-30 112,-24 112,-24 112,-12 112,-12 112,-6 118,0 124,0 124,0 235,0 235,0 241,0 247,-6 247,-12 247,-12 247,-24 247,-24 247,-30 241,-36 235,-36"/>
<text text-anchor="middle" x="179.5" y="-15.2" font-family="Helvetica" font-size="11.00">DecryptField_AES128</text>
</g>
<!-- n0&#45;&gt;n1 -->
<g id="edge1" class="edge">
<title>n0&#45;&gt;n1</title>
<path fill="none" stroke="#555555" d="M54.22,-18C67.59,-18 84.63,-18 101.77,-18"/>
<polygon fill="#555555" stroke="#555555" points="101.85,-21.5 111.84,-18 101.84,-14.5 101.85,-21.5"/>
</g>
<!-- n2 -->
<g id="node3" class="node">
<title>n2</title>
<path fill="#e8f4f8" stroke="black" d="M369,-36C369,-36 317,-36 317,-36 311,-36 305,-30 305,-24 305,-24 305,-12 305,-12 305,-6 311,0 317,0 317,0 369,0 369,0 375,0 381,-6 381,-12 381,-12 381,-24 381,-24 381,-30 375,-36 369,-36"/>
<text text-anchor="middle" x="343" y="-15.2" font-family="Helvetica" font-size="11.00">Map Field</text>
</g>
<!-- n1&#45;&gt;n2 -->
<g id="edge3" class="edge">
<title>n1&#45;&gt;n2</title>
<path fill="none" stroke="#555555" d="M247.12,-18C262.92,-18 279.47,-18 294.24,-18"/>
<polygon fill="#555555" stroke="#555555" points="294.64,-21.5 304.64,-18 294.64,-14.5 294.64,-21.5"/>
</g>
<!-- n3 -->
<g id="node4" class="node">
<title>n3</title>
<path fill="#ffccbc" stroke="black" d="M481,-36C481,-36 451,-36 451,-36 445,-36 439,-30 439,-24 439,-24 439,-12 439,-12 439,-6 445,0 451,0 451,0 481,0 481,0 487,0 493,-6 493,-12 493,-12 493,-24 493,-24 493,-30 487,-36 481,-36"/>
<text text-anchor="middle" x="466" y="-15.2" font-family="Helvetica" font-size="11.00">end</text>
</g>
<!-- n2&#45;&gt;n3 -->
<g id="edge2" class="edge">
<title>n2&#45;&gt;n3</title>
<path fill="none" stroke="#555555" d="M381.29,-18C396.27,-18 413.48,-18 428.38,-18"/>
<polygon fill="#555555" stroke="#555555" points="428.77,-21.5 438.77,-18 428.77,-14.5 428.77,-21.5"/>
</g>
<!-- n4 -->
<g id="node5" class="node">
<title>n4</title>
<path fill="#c8e6c9" stroke="black" d="M42,-115C42,-115 12,-115 12,-115 6,-115 0,-109 0,-103 0,-103 0,-91 0,-91 0,-85 6,-79 12,-79 12,-79 42,-79 42,-79 48,-79 54,-85 54,-91 54,-91 54,-103 54,-103 54,-109 48,-115 42,-115"/>
<text text-anchor="middle" x="27" y="-94.2" font-family="Helvetica" font-size="11.00">Start</text>
</g>
<!-- n5 -->
<g id="node6" class="node">
<title>n5</title>
<path fill="#e8f4f8" stroke="black" d="M197,-115C197,-115 162,-115 162,-115 156,-115 150,-109 150,-103 150,-103 150,-91 150,-91 150,-85 156,-79 162,-79 162,-79 197,-79 197,-79 203,-79 209,-85 209,-91 209,-91 209,-103 209,-103 209,-109 203,-115 197,-115"/>
<text text-anchor="middle" x="179.5" y="-94.2" font-family="Helvetica" font-size="11.00">Iterate</text>
</g>
<!-- n4&#45;&gt;n5 -->
<g id="edge4" class="edge">
<title>n4&#45;&gt;n5</title>
<path fill="none" stroke="#555555" d="M54.22,-97C77.78,-97 112.72,-97 139.55,-97"/>
<polygon fill="#555555" stroke="#555555" points="139.77,-100.5 149.77,-97 139.77,-93.5 139.77,-100.5"/>
</g>
<!-- n6 -->
<g id="node7" class="node">
<title>n6</title>
<path fill="#ffccbc" stroke="black" d="M358,-115C358,-115 328,-115 328,-115 322,-115 316,-109 316,-103 316,-103 316,-91 316,-91 316,-85 322,-79 328,-79 328,-79 358,-79 358,-79 364,-79 370,-85 370,-91 370,-91 370,-103 370,-103 370,-109 364,-115 358,-115"/>
<text text-anchor="middle" x="343" y="-94.2" font-family="Helvetica" font-size="11.00">End</text>
</g>
<!-- n5&#45;&gt;n6 -->
<g id="edge5" class="edge">
<title>n5&#45;&gt;n6</title>
<path fill="none" stroke="#555555" d="M209,-97C235.94,-97 276.47,-97 305.7,-97"/>
<polygon fill="#555555" stroke="#555555" points="305.92,-100.5 315.92,-97 305.92,-93.5 305.92,-100.5"/>
</g>
</g>
</svg>
