<?xml version="1.0" encoding="UTF-8" standalone="no"?>
<!DOCTYPE svg PUBLIC "-//W3C//DTD SVG 1.1//EN"
 "http://www.w3.org/Graphics/SVG/1.1/DTD/svg11.dtd">
<!-- Generated by graphviz version 2.44.0 (0)
 -->
<!-- Title: process Pages: 1 -->
<svg width="1055pt" height="226pt"
 viewBox="0.00 0.00 1055.00 226.00" xmlns="http://www.w3.org/2000/svg" xmlns:xlink="http://www.w3.org/1999/xlink">
<g id="graph0" class="graph" transform="scale(1 1) rotate(0) translate(36 190)">
<title>process</title>
<polygon fill="#ffffff" stroke="transparent" points="-36,36 -36,-190 1019,-190 1019,36 -36,36"/>
<!-- n0 -->
<g id="node1" class="node">
<title>n0</title>
<path fill="#c8e6c9" stroke="black" d="M42,-36C42,-36 12,-36 12,-36 6,-36 0,-30 0,-24 0,-24 0,-12 0,-12 0,-6 6,0 12,0 12,0 42,0 42,0 48,0 54,-6 54,-12 54,-12 54,-24 54,-24 54,-30 48,-36 42,-36"/>
<text text-anchor="middle" x="27" y="-15.2" font-family="Helvetica" font-size="11.00">start</text>
</g>
<!-- n1 -->
<g id="node2" class="node">
<title>n1</title>
<path fill="#e8f4f8" stroke="black" d="M208,-36C208,-36 141,-36 141,-36 135,-36 129,-30 129,-24 129,-24 129,-12 129,-12 129,-6 135,0 141,0 141,0 208,0 208,0 214,0 220,-6 220,-12 220,-12 220,-24 220,-24 220,-30 214,-36 208,-36"/>
<text text-anchor="middle" x="174.5" y="-15.2" font-family="Helvetica" font-size="11.00">JDBC Query</text>
</g>
<!-- n0&#45;&gt;n1 -->
<g id="edge1" class="edge">
<title>n0&#45;&gt;n1</title>
<path fill="none" stroke="#555555" d="M54.01,-18C72.02,-18 96.64,-18 118.86,-18"/>
<polygon fill="#555555" stroke="#555555" points="118.87,-21.5 128.87,-18 118.87,-14.5 118.87,-21.5"/>
</g>
<!-- n2 -->
<g id="node6" class="node">
<title>n2</title>
<path fill="#e8f4f8" stroke="black" d="M392,-36C392,-36 307,-36 307,-36 301,-36 295,-30 295,-24 295,-24 295,-12 295,-12 295,-6 301,0 307,0 307,0 392,0 392,0 398,0 404,-6 404,-12 404,-12 404,-24 404,-24 404,-30 398,-36 392,-36"/>
<text text-anchor="middle" x="349.5" y="-15.2" font-family="Helvetica" font-size="11.00">SetResourceInfo</text>
</g>
<!-- n1&#45;&gt;n2 -->
<g id="edge3" class="edge">
<title>n1&#45;&gt;n2</title>
<path fill="none" stroke="#555555" d="M220.05,-18C239.76,-18 263.29,-18 284.81,-18"/>
<polygon fill="#555555" stroke="#555555" points="284.85,-21.5 294.85,-18 284.85,-14.5 284.85,-21.5"/>
</g>
<!-- n10 -->
<g id="node3" class="node">
<title>n10</title>
<path fill="#c8e6c9" stroke="black" d="M388,-115C388,-115 311,-115 311,-115 305,-115 299,-109 299,-103 299,-103 299,-91 299,-91 299,-85 305,-79 311,-79 311,-79 388,-79 388,-79 394,-79 400,-85 400,-91 400,-91 400,-103 400,-103 400,-109 394,-115 388,-115"/>
<text text-anchor="middle" x="349.5" y="-94.2" font-family="Helvetica" font-size="11.00">Start Log Audit</text>
</g>
<!-- n4 -->
<g id="node8" class="node">
<title>n4</title>
<path fill="#e8f4f8" stroke="black" d="M509,-115C509,-115 474,-115 474,-115 468,-115 462,-109 462,-103 462,-103 462,-91 462,-91 462,-85 468,-79 474,-79 474,-79 509,-79 509,-79 515,-79 521,-85 521,-91 521,-91 521,-103 521,-103 521,-109 515,-115 509,-115"/>
<text text-anchor="middle" x="491.5" y="-94.2" font-family="Helvetica" font-size="11.00">Group</text>
</g>
<!-- n10&#45;&gt;n4 -->
<g id="edge9" class="edge">
<title>n10&#45;&gt;n4</title>
<path fill="none" stroke="#555555" d="M400.25,-97C417.14,-97 435.76,-97 451.67,-97"/>
<polygon fill="#555555" stroke="#555555" points="451.69,-100.5 461.69,-97 451.69,-93.5 451.69,-100.5"/>
</g>
<!-- n11 -->
<g id="node4" class="node">
<title>n11</title>
<path fill="#ffcdd2" stroke="black" d="M971,-75C971,-75 894,-75 894,-75 888,-75 882,-69 882,-63 882,-63 882,-51 882,-51 882,-45 888,-39 894,-39 894,-39 971,-39 971,-39 977,-39 983,-45 983,-51 983,-51 983,-63 983,-63 983,-69 977,-75 971,-75"/>
<text text-anchor="middle" x="932.5" y="-54.2" font-family="Helvetica" font-size="11.00">Generate Error</text>
</g>
<!-- n12 -->
<g id="node5" class="node">
<title>n12</title>
<path fill="#ffccbc" stroke="black" d="M803.5,-154C803.5,-154 773.5,-154 773.5,-154 767.5,-154 761.5,-148 761.5,-142 761.5,-142 761.5,-130 761.5,-130 761.5,-124 767.5,-118 773.5,-118 773.5,-118 803.5,-118 803.5,-118 809.5,-118 815.5,-124 815.5,-130 815.5,-130 815.5,-142 815.5,-142 815.5,-148 809.5,-154 803.5,-154"/>
<text text-anchor="middle" x="788.5" y="-133.2" font-family="Helvetica" font-size="11.00">End</text>
</g>
<!-- n3 -->
<g id="node7" class="node">
<title>n3</title>
<path fill="#ffccbc" stroke="black" d="M506.5,-36C506.5,-36 476.5,-36 476.5,-36 470.5,-36 464.5,-30 464.5,-24 464.5,-24 464.5,-12 464.5,-12 464.5,-6 470.5,0 476.5,0 476.5,0 506.5,0 506.5,0 512.5,0 518.5,-6 518.5,-12 518.5,-12 518.5,-24 518.5,-24 518.5,-30 512.5,-36 506.5,-36"/>
<text text-anchor="middle" x="491.5" y="-15.2" font-family="Helvetica" font-size="11.00">end</text>
</g>
<!-- n2&#45;&gt;n3 -->
<g id="edge2" class="edge">
<title>n2&#45;&gt;n3</title>
<path fill="none" stroke="#555555" d="M404.23,-18C421.02,-18 439.13,-18 454.41,-18"/>
<polygon fill="#555555" stroke="#555555" points="454.47,-21.5 464.47,-18 454.47,-14.5 454.47,-21.5"/>
</g>
<!-- n5 -->
<g id="node9" class="node">
<title>n5</title>
<path fill="#ffccbc" stroke="black" d="M673.5,-154C673.5,-154 600.5,-154 600.5,-154 594.5,-154 588.5,-148 588.5,-142 588.5,-142 588.5,-130 588.5,-130 588.5,-124 594.5,-118 600.5,-118 600.5,-118 673.5,-118 673.5,-118 679.5,-118 685.5,-124 685.5,-130 685.5,-130 685.5,-142 685.5,-142 685.5,-148 679.5,-154 673.5,-154"/>
<text text-anchor="middle" x="637" y="-133.2" font-family="Helvetica" font-size="11.00">End Audit Log</text>
</g>
<!-- n4&#45;&gt;n5 -->
<g id="edge4" class="edge">
<title>n4&#45;&gt;n5</title>
<path fill="none" stroke="#555555" d="M521.19,-104.8C537.64,-109.27 558.87,-115.04 578.59,-120.4"/>
<polygon fill="#555555" stroke="#555555" points="577.86,-123.83 588.43,-123.07 579.7,-117.07 577.86,-123.83"/>
</g>
<!-- n6 -->
<g id="node10" class="node">
<title>n6</title>
<path fill="#e8f4f8" stroke="black" d="M683,-75C683,-75 591,-75 591,-75 585,-75 579,-69 579,-63 579,-63 579,-51 579,-51 579,-45 585,-39 591,-39 591,-39 683,-39 683,-39 689,-39 695,-45 695,-51 695,-51 695,-63 695,-63 695,-69 689,-75 683,-75"/>
<text text-anchor="middle" x="637" y="-54.2" font-family="Helvetica" font-size="11.00">MapAnyException</text>
</g>
<!-- n4&#45;&gt;n6 -->
<g id="edge5" class="edge">
<title>n4&#45;&gt;n6</title>
<path fill="none" stroke="#555555" d="M521.19,-89C535.01,-85.15 552.19,-80.36 569.03,-75.67"/>
<polygon fill="#555555" stroke="#555555" points="570.18,-78.98 578.87,-72.92 568.3,-72.24 570.18,-78.98"/>
</g>
<!-- n5&#45;&gt;n12 -->
<g id="edge11" class="edge">
<title>n5&#45;&gt;n12</title>
<path fill="none" stroke="#555555" d="M685.71,-136C706.86,-136 731.35,-136 751.01,-136"/>
<polygon fill="#555555" stroke="#555555" points="751.09,-139.5 761.09,-136 751.09,-132.5 751.09,-139.5"/>
</g>
<!-- n7 -->
<g id="node11" class="node">
<title>n7</title>
<path fill="#e8f4f8" stroke="black" d="M812,-75C812,-75 765,-75 765,-75 759,-75 753,-69 753,-63 753,-63 753,-51 753,-51 753,-45 759,-39 765,-39 765,-39 812,-39 812,-39 818,-39 824,-45 824,-51 824,-51 824,-63 824,-63 824,-69 818,-75 812,-75"/>
<text text-anchor="middle" x="788.5" y="-54.2" font-family="Helvetica" font-size="11.00">LogError</text>
</g>
<!-- n6&#45;&gt;n7 -->
<g id="edge6" class="edge">
<title>n6&#45;&gt;n7</title>
<path fill="none" stroke="#555555" d="M695.37,-57C711.01,-57 727.72,-57 742.56,-57"/>
<polygon fill="#555555" stroke="#555555" points="742.99,-60.5 752.99,-57 742.99,-53.5 742.99,-60.5"/>
</g>
<!-- n7&#45;&gt;n11 -->
<g id="edge10" class="edge">
<title>n7&#45;&gt;n11</title>
<path fill="none" stroke="#555555" d="M824.24,-57C838.45,-57 855.31,-57 871.41,-57"/>
<polygon fill="#555555" stroke="#555555" points="871.84,-60.5 881.84,-57 871.84,-53.5 871.84,-60.5"/>
</g>
<!-- n8 -->
<g id="node12" class="node">
<title>n8</title>
<path fill="#c8e6c9" stroke="black" d="M42,-115C42,-115 12,-115 12,-115 6,-115 0,-109 0,-103 0,-103 0,-91 0,-91 0,-85 6,-79 12,-79 12,-79 42,-79 42,-79 48,-79 54,-85 54,-91 54,-91 54,-103 54,-103 54,-109 48,-115 42,-115"/>
<text text-anchor="middle" x="27" y="-94.2" font-family="Helvetica" font-size="11.00">Start</text>
</g>
<!-- n9 -->
<g id="node13" class="node">
<title>n9</title>
<path fill="#ffcdd2" stroke="black" d="M225,-115C225,-115 124,-115 124,-115 118,-115 112,-109 112,-103 112,-103 112,-91 112,-91 112,-85 118,-79 124,-79 124,-79 225,-79 225,-79 231,-79 237,-85 237,-91 237,-91 237,-103 237,-103 237,-109 231,-115 225,-115"/>
<text text-anchor="middle" x="174.5" y="-94.2" font-family="Helvetica" font-size="11.00">Prep Error Handling</text>
</g>
<!-- n8&#45;&gt;n9 -->
<g id="edge7" class="edge">
<title>n8&#45;&gt;n9</title>
<path fill="none" stroke="#555555" d="M54.01,-97C67.47,-97 84.64,-97 101.73,-97"/>
<polygon fill="#555555" stroke="#555555" points="101.75,-100.5 111.75,-97 101.75,-93.5 101.75,-100.5"/>
</g>
<!-- n9&#45;&gt;n10 -->
<g id="edge8" class="edge">
<title>n9&#45;&gt;n10</title>
<path fill="none" stroke="#555555" d="M237.47,-97C254.17,-97 272.2,-97 288.77,-97"/>
<polygon fill="#555555" stroke="#555555" points="288.88,-100.5 298.88,-97 288.88,-93.5 288.88,-100.5"/>
</g>
</g>
</svg>
