<?xml version="1.0" encoding="UTF-8" standalone="no"?>
<!DOCTYPE svg PUBLIC "-//W3C//DTD SVG 1.1//EN"
 "http://www.w3.org/Graphics/SVG/1.1/DTD/svg11.dtd">
<!-- Generated by graphviz version 2.44.0 (0)
 -->
<!-- Title: process Pages: 1 -->
<svg width="805pt" height="266pt"
 viewBox="0.00 0.00 805.00 266.00" xmlns="http://www.w3.org/2000/svg" xmlns:xlink="http://www.w3.org/1999/xlink">
<g id="graph0" class="graph" transform="scale(1 1) rotate(0) translate(36 230)">
<title>process</title>
<polygon fill="#ffffff" stroke="transparent" points="-36,36 -36,-230 769,-230 769,36 -36,36"/>
<!-- n0 -->
<g id="node1" class="node">
<title>n0</title>
<path fill="#c8e6c9" stroke="black" d="M42,-36C42,-36 12,-36 12,-36 6,-36 0,-30 0,-24 0,-24 0,-12 0,-12 0,-6 6,0 12,0 12,0 42,0 42,0 48,0 54,-6 54,-12 54,-12 54,-24 54,-24 54,-30 48,-36 42,-36"/>
<text text-anchor="middle" x="27" y="-15.2" font-family="Helvetica" font-size="11.00">start</text>
</g>
<!-- n1 -->
<g id="node2" class="node">
<title>n1</title>
<path fill="#e8f4f8" stroke="black" d="M215,-36C215,-36 124,-36 124,-36 118,-36 112,-30 112,-24 112,-24 112,-12 112,-12 112,-6 118,0 124,0 124,0 215,0 215,0 221,0 227,-6 227,-12 227,-12 227,-24 227,-24 227,-30 221,-36 215,-36"/>
<text text-anchor="middle" x="169.5" y="-15.2" font-family="Helvetica" font-size="11.00">GetEncryptionKey</text>
</g>
<!-- n0&#45;&gt;n1 -->
<g id="edge1" class="edge">
<title>n0&#45;&gt;n1</title>
<path fill="none" stroke="#555555" d="M54.1,-18C67.57,-18 84.69,-18 101.55,-18"/>
<polygon fill="#555555" stroke="#555555" points="101.98,-21.5 111.98,-18 101.98,-14.5 101.98,-21.5"/>
</g>
<!-- n4 -->
<g id="node6" class="node">
<title>n4</title>
<path fill="#e8f4f8" stroke="black" d="M388,-36C388,-36 297,-36 297,-36 291,-36 285,-30 285,-24 285,-24 285,-12 285,-12 285,-6 291,0 297,0 297,0 388,0 388,0 394,0 400,-6 400,-12 400,-12 400,-24 400,-24 400,-30 394,-36 388,-36"/>
<text text-anchor="middle" x="342.5" y="-15.2" font-family="Helvetica" font-size="11.00">DecryptKeyVector</text>
</g>
<!-- n1&#45;&gt;n4 -->
<g id="edge4" class="edge">
<title>n1&#45;&gt;n4</title>
<path fill="none" stroke="#555555" d="M227.44,-18C242.58,-18 259.08,-18 274.69,-18"/>
<polygon fill="#555555" stroke="#555555" points="274.81,-21.5 284.81,-18 274.81,-14.5 274.81,-21.5"/>
</g>
<!-- n10 -->
<g id="node3" class="node">
<title>n10</title>
<path fill="#ffcdd2" stroke="black" d="M721,-115C721,-115 644,-115 644,-115 638,-115 632,-109 632,-103 632,-103 632,-91 632,-91 632,-85 638,-79 644,-79 644,-79 721,-79 721,-79 727,-79 733,-85 733,-91 733,-91 733,-103 733,-103 733,-109 727,-115 721,-115"/>
<text text-anchor="middle" x="682.5" y="-94.2" font-family="Helvetica" font-size="11.00">Generate Error</text>
</g>
<!-- n2 -->
<g id="node4" class="node">
<title>n2</title>
<path fill="#e8f4f8" stroke="black" d="M561,-36C561,-36 471,-36 471,-36 465,-36 459,-30 459,-24 459,-24 459,-12 459,-12 459,-6 465,0 471,0 471,0 561,0 561,0 567,0 573,-6 573,-12 573,-12 573,-24 573,-24 573,-30 567,-36 561,-36"/>
<text text-anchor="middle" x="516" y="-15.2" font-family="Helvetica" font-size="11.00">SetEncryptionKey</text>
</g>
<!-- n3 -->
<g id="node5" class="node">
<title>n3</title>
<path fill="#ffccbc" stroke="black" d="M697.5,-36C697.5,-36 667.5,-36 667.5,-36 661.5,-36 655.5,-30 655.5,-24 655.5,-24 655.5,-12 655.5,-12 655.5,-6 661.5,0 667.5,0 667.5,0 697.5,0 697.5,0 703.5,0 709.5,-6 709.5,-12 709.5,-12 709.5,-24 709.5,-24 709.5,-30 703.5,-36 697.5,-36"/>
<text text-anchor="middle" x="682.5" y="-15.2" font-family="Helvetica" font-size="11.00">end</text>
</g>
<!-- n2&#45;&gt;n3 -->
<g id="edge2" class="edge">
<title>n2&#45;&gt;n3</title>
<path fill="none" stroke="#555555" d="M573.15,-18C596.88,-18 623.84,-18 644.93,-18"/>
<polygon fill="#555555" stroke="#555555" points="645.07,-21.5 655.07,-18 645.07,-14.5 645.07,-21.5"/>
</g>
<!-- n4&#45;&gt;n2 -->
<g id="edge3" class="edge">
<title>n4&#45;&gt;n2</title>
<path fill="none" stroke="#555555" d="M400.13,-18C415.58,-18 432.45,-18 448.4,-18"/>
<polygon fill="#555555" stroke="#555555" points="448.72,-21.5 458.72,-18 448.72,-14.5 448.72,-21.5"/>
</g>
<!-- n5 -->
<g id="node7" class="node">
<title>n5</title>
<path fill="#c8e6c9" stroke="black" d="M42,-154C42,-154 12,-154 12,-154 6,-154 0,-148 0,-142 0,-142 0,-130 0,-130 0,-124 6,-118 12,-118 12,-118 42,-118 42,-118 48,-118 54,-124 54,-130 54,-130 54,-142 54,-142 54,-148 48,-154 42,-154"/>
<text text-anchor="middle" x="27" y="-133.2" font-family="Helvetica" font-size="11.00">Start</text>
</g>
<!-- n6 -->
<g id="node8" class="node">
<title>n6</title>
<path fill="#e8f4f8" stroke="black" d="M194,-154C194,-154 145,-154 145,-154 139,-154 133,-148 133,-142 133,-142 133,-130 133,-130 133,-124 139,-118 145,-118 145,-118 194,-118 194,-118 200,-118 206,-124 206,-130 206,-130 206,-142 206,-142 206,-148 200,-154 194,-154"/>
<text text-anchor="middle" x="169.5" y="-133.2" font-family="Helvetica" font-size="11.00">GetRoles</text>
</g>
<!-- n5&#45;&gt;n6 -->
<g id="edge5" class="edge">
<title>n5&#45;&gt;n6</title>
<path fill="none" stroke="#555555" d="M54.1,-136C73.3,-136 99.9,-136 122.62,-136"/>
<polygon fill="#555555" stroke="#555555" points="122.74,-139.5 132.74,-136 122.74,-132.5 122.74,-139.5"/>
</g>
<!-- n7 -->
<g id="node9" class="node">
<title>n7</title>
<path fill="#e8f4f8" stroke="black" d="M360,-154C360,-154 325,-154 325,-154 319,-154 313,-148 313,-142 313,-142 313,-130 313,-130 313,-124 319,-118 325,-118 325,-118 360,-118 360,-118 366,-118 372,-124 372,-130 372,-130 372,-142 372,-142 372,-148 366,-154 360,-154"/>
<text text-anchor="middle" x="342.5" y="-133.2" font-family="Helvetica" font-size="11.00">Group</text>
</g>
<!-- n6&#45;&gt;n7 -->
<g id="edge9" class="edge">
<title>n6&#45;&gt;n7</title>
<path fill="none" stroke="#555555" d="M206.35,-136C234.52,-136 273.7,-136 302.63,-136"/>
<polygon fill="#555555" stroke="#555555" points="302.78,-139.5 312.78,-136 302.78,-132.5 302.78,-139.5"/>
</g>
<!-- n8 -->
<g id="node10" class="node">
<title>n8</title>
<path fill="#ffccbc" stroke="black" d="M531,-194C531,-194 501,-194 501,-194 495,-194 489,-188 489,-182 489,-182 489,-170 489,-170 489,-164 495,-158 501,-158 501,-158 531,-158 531,-158 537,-158 543,-164 543,-170 543,-170 543,-182 543,-182 543,-188 537,-194 531,-194"/>
<text text-anchor="middle" x="516" y="-173.2" font-family="Helvetica" font-size="11.00">End</text>
</g>
<!-- n7&#45;&gt;n8 -->
<g id="edge6" class="edge">
<title>n7&#45;&gt;n8</title>
<path fill="none" stroke="#555555" d="M372.21,-142.7C401.55,-149.54 447.19,-160.19 478.95,-167.59"/>
<polygon fill="#555555" stroke="#555555" points="478.2,-171.01 488.74,-169.87 479.79,-164.19 478.2,-171.01"/>
</g>
<!-- n9 -->
<g id="node11" class="node">
<title>n9</title>
<path fill="#e8f4f8" stroke="black" d="M562,-115C562,-115 470,-115 470,-115 464,-115 458,-109 458,-103 458,-103 458,-91 458,-91 458,-85 464,-79 470,-79 470,-79 562,-79 562,-79 568,-79 574,-85 574,-91 574,-91 574,-103 574,-103 574,-109 568,-115 562,-115"/>
<text text-anchor="middle" x="516" y="-94.2" font-family="Helvetica" font-size="11.00">MapAnyException</text>
</g>
<!-- n7&#45;&gt;n9 -->
<g id="edge7" class="edge">
<title>n7&#45;&gt;n9</title>
<path fill="none" stroke="#555555" d="M372.21,-129.47C392.84,-124.78 421.53,-118.26 447.79,-112.28"/>
<polygon fill="#555555" stroke="#555555" points="448.74,-115.66 457.71,-110.03 447.18,-108.83 448.74,-115.66"/>
</g>
<!-- n9&#45;&gt;n10 -->
<g id="edge8" class="edge">
<title>n9&#45;&gt;n10</title>
<path fill="none" stroke="#555555" d="M574.07,-97C589.53,-97 606.29,-97 621.88,-97"/>
<polygon fill="#555555" stroke="#555555" points="621.93,-100.5 631.93,-97 621.93,-93.5 621.93,-100.5"/>
</g>
</g>
</svg>
