<?xml version="1.0" encoding="UTF-8" standalone="no"?>
<!DOCTYPE svg PUBLIC "-//W3C//DTD SVG 1.1//EN"
 "http://www.w3.org/Graphics/SVG/1.1/DTD/svg11.dtd">
<!-- Generated by graphviz version 2.44.0 (0)
 -->
<!-- Title: process Pages: 1 -->
<svg width="1031pt" height="265pt"
 viewBox="0.00 0.00 1031.00 265.00" xmlns="http://www.w3.org/2000/svg" xmlns:xlink="http://www.w3.org/1999/xlink">
<g id="graph0" class="graph" transform="scale(1 1) rotate(0) translate(36 229)">
<title>process</title>
<polygon fill="#ffffff" stroke="transparent" points="-36,36 -36,-229 995,-229 995,36 -36,36"/>
<!-- n0 -->
<g id="node1" class="node">
<title>n0</title>
<path fill="#c8e6c9" stroke="black" d="M42,-75C42,-75 12,-75 12,-75 6,-75 0,-69 0,-63 0,-63 0,-51 0,-51 0,-45 6,-39 12,-39 12,-39 42,-39 42,-39 48,-39 54,-45 54,-51 54,-51 54,-63 54,-63 54,-69 48,-75 42,-75"/>
<text text-anchor="middle" x="27" y="-54.2" font-family="Helvetica" font-size="11.00">Start</text>
</g>
<!-- n1 -->
<g id="node2" class="node">
<title>n1</title>
<path fill="#e8f4f8" stroke="black" d="M177,-75C177,-75 124,-75 124,-75 118,-75 112,-69 112,-63 112,-63 112,-51 112,-51 112,-45 118,-39 124,-39 124,-39 177,-39 177,-39 183,-39 189,-45 189,-51 189,-51 189,-63 189,-63 189,-69 183,-75 177,-75"/>
<text text-anchor="middle" x="150.5" y="-54.2" font-family="Helvetica" font-size="11.00">Prep Data</text>
</g>
<!-- n0&#45;&gt;n1 -->
<g id="edge1" class="edge">
<title>n0&#45;&gt;n1</title>
<path fill="none" stroke="#555555" d="M54.06,-57C67.91,-57 85.36,-57 101.55,-57"/>
<polygon fill="#555555" stroke="#555555" points="101.95,-60.5 111.95,-57 101.95,-53.5 101.95,-60.5"/>
</g>
<!-- n2 -->
<g id="node3" class="node">
<title>n2</title>
<path fill="#e8f4f8" stroke="black" d="M289,-75C289,-75 259,-75 259,-75 253,-75 247,-69 247,-63 247,-63 247,-51 247,-51 247,-45 253,-39 259,-39 259,-39 289,-39 289,-39 295,-39 301,-45 301,-51 301,-51 301,-63 301,-63 301,-69 295,-75 289,-75"/>
<text text-anchor="middle" x="274" y="-54.2" font-family="Helvetica" font-size="11.00">Null</text>
</g>
<!-- n1&#45;&gt;n2 -->
<g id="edge9" class="edge">
<title>n1&#45;&gt;n2</title>
<path fill="none" stroke="#555555" d="M189.28,-57C204.3,-57 221.52,-57 236.42,-57"/>
<polygon fill="#555555" stroke="#555555" points="236.8,-60.5 246.8,-57 236.8,-53.5 236.8,-60.5"/>
</g>
<!-- n3 -->
<g id="node4" class="node">
<title>n3</title>
<path fill="#e8f4f8" stroke="black" d="M435,-115C435,-115 402,-115 402,-115 396,-115 390,-109 390,-103 390,-103 390,-91 390,-91 390,-85 396,-79 402,-79 402,-79 435,-79 435,-79 441,-79 447,-85 447,-91 447,-91 447,-103 447,-103 447,-109 441,-115 435,-115"/>
<text text-anchor="middle" x="418.5" y="-94.2" font-family="Helvetica" font-size="11.00">Null&#45;2</text>
</g>
<!-- n2&#45;&gt;n3 -->
<g id="edge2" class="edge">
<title>n2&#45;&gt;n3</title>
<path fill="none" stroke="#555555" d="M301.14,-64.34C323.17,-70.52 354.98,-79.45 379.78,-86.41"/>
<polygon fill="#555555" stroke="#555555" points="379.01,-89.83 389.58,-89.16 380.9,-83.09 379.01,-89.83"/>
</g>
<!-- n6 -->
<g id="node7" class="node">
<title>n6</title>
<path fill="#e8f4f8" stroke="black" d="M466,-36C466,-36 371,-36 371,-36 365,-36 359,-30 359,-24 359,-24 359,-12 359,-12 359,-6 365,0 371,0 371,0 466,0 466,0 472,0 478,-6 478,-12 478,-12 478,-24 478,-24 478,-30 472,-36 466,-36"/>
<text text-anchor="middle" x="418.5" y="-15.2" font-family="Helvetica" font-size="11.00">MissingJMSDetails</text>
</g>
<!-- n2&#45;&gt;n6 -->
<g id="edge4" class="edge">
<title>n2&#45;&gt;n6</title>
<path fill="none" stroke="#555555" d="M301.14,-49.85C314.64,-46.15 331.81,-41.45 348.79,-36.81"/>
<polygon fill="#555555" stroke="#555555" points="350.01,-40.1 358.73,-34.08 348.16,-33.35 350.01,-40.1"/>
</g>
<!-- n4 -->
<g id="node5" class="node">
<title>n4</title>
<path fill="#e8f4f8" stroke="black" d="M613.5,-154C613.5,-154 580.5,-154 580.5,-154 574.5,-154 568.5,-148 568.5,-142 568.5,-142 568.5,-130 568.5,-130 568.5,-124 574.5,-118 580.5,-118 580.5,-118 613.5,-118 613.5,-118 619.5,-118 625.5,-124 625.5,-130 625.5,-130 625.5,-142 625.5,-142 625.5,-148 619.5,-154 613.5,-154"/>
<text text-anchor="middle" x="597" y="-133.2" font-family="Helvetica" font-size="11.00">Null&#45;1</text>
</g>
<!-- n3&#45;&gt;n4 -->
<g id="edge8" class="edge">
<title>n3&#45;&gt;n4</title>
<path fill="none" stroke="#555555" d="M447.08,-103.09C477.04,-109.71 525.09,-120.33 558.47,-127.71"/>
<polygon fill="#555555" stroke="#555555" points="557.81,-131.14 568.32,-129.88 559.32,-124.31 557.81,-131.14"/>
</g>
<!-- n9 -->
<g id="node10" class="node">
<title>n9</title>
<path fill="#e8f4f8" stroke="black" d="M646,-75C646,-75 548,-75 548,-75 542,-75 536,-69 536,-63 536,-63 536,-51 536,-51 536,-45 542,-39 548,-39 548,-39 646,-39 646,-39 652,-39 658,-45 658,-51 658,-51 658,-63 658,-63 658,-69 652,-75 646,-75"/>
<text text-anchor="middle" x="597" y="-54.2" font-family="Helvetica" font-size="11.00">MissingJMSSender</text>
</g>
<!-- n3&#45;&gt;n9 -->
<g id="edge7" class="edge">
<title>n3&#45;&gt;n9</title>
<path fill="none" stroke="#555555" d="M447.08,-90.75C468.15,-85.98 498.16,-79.17 525.73,-72.93"/>
<polygon fill="#555555" stroke="#555555" points="526.77,-76.28 535.75,-70.65 525.23,-69.45 526.77,-76.28"/>
</g>
<!-- n5 -->
<g id="node6" class="node">
<title>n5</title>
<path fill="#e8f4f8" stroke="black" d="M833.5,-193C833.5,-193 729.5,-193 729.5,-193 723.5,-193 717.5,-187 717.5,-181 717.5,-181 717.5,-169 717.5,-169 717.5,-163 723.5,-157 729.5,-157 729.5,-157 833.5,-157 833.5,-157 839.5,-157 845.5,-163 845.5,-169 845.5,-169 845.5,-181 845.5,-181 845.5,-187 839.5,-193 833.5,-193"/>
<text text-anchor="middle" x="781.5" y="-172.2" font-family="Helvetica" font-size="11.00">CheckSecurityToken</text>
</g>
<!-- n4&#45;&gt;n5 -->
<g id="edge3" class="edge">
<title>n4&#45;&gt;n5</title>
<path fill="none" stroke="#555555" d="M625.72,-141.92C647.39,-146.56 678.56,-153.22 707.26,-159.35"/>
<polygon fill="#555555" stroke="#555555" points="706.77,-162.82 717.28,-161.49 708.24,-155.98 706.77,-162.82"/>
</g>
<!-- n7 -->
<g id="node8" class="node">
<title>n7</title>
<path fill="#e8f4f8" stroke="black" d="M835,-114C835,-114 728,-114 728,-114 722,-114 716,-108 716,-102 716,-102 716,-90 716,-90 716,-84 722,-78 728,-78 728,-78 835,-78 835,-78 841,-78 847,-84 847,-90 847,-90 847,-102 847,-102 847,-108 841,-114 835,-114"/>
<text text-anchor="middle" x="781.5" y="-93.2" font-family="Helvetica" font-size="11.00">MissingSOAPHeader</text>
</g>
<!-- n4&#45;&gt;n7 -->
<g id="edge5" class="edge">
<title>n4&#45;&gt;n7</title>
<path fill="none" stroke="#555555" d="M625.72,-129.92C647.04,-125.25 677.54,-118.57 705.84,-112.36"/>
<polygon fill="#555555" stroke="#555555" points="706.72,-115.75 715.74,-110.19 705.22,-108.92 706.72,-115.75"/>
</g>
<!-- n8 -->
<g id="node9" class="node">
<title>n8</title>
<path fill="#ffccbc" stroke="black" d="M947,-193C947,-193 917,-193 917,-193 911,-193 905,-187 905,-181 905,-181 905,-169 905,-169 905,-163 911,-157 917,-157 917,-157 947,-157 947,-157 953,-157 959,-163 959,-169 959,-169 959,-181 959,-181 959,-187 953,-193 947,-193"/>
<text text-anchor="middle" x="932" y="-172.2" font-family="Helvetica" font-size="11.00">End</text>
</g>
<!-- n5&#45;&gt;n8 -->
<g id="edge6" class="edge">
<title>n5&#45;&gt;n8</title>
<path fill="none" stroke="#555555" d="M845.91,-175C862.53,-175 879.89,-175 894.56,-175"/>
<polygon fill="#555555" stroke="#555555" points="894.72,-178.5 904.72,-175 894.72,-171.5 894.72,-178.5"/>
</g>
</g>
</svg>
