<?xml version="1.0" encoding="UTF-8" standalone="no"?>
<!DOCTYPE svg PUBLIC "-//W3C//DTD SVG 1.1//EN"
 "http://www.w3.org/Graphics/SVG/1.1/DTD/svg11.dtd">
<!-- Generated by graphviz version 2.44.0 (0)
 -->
<!-- Title: process Pages: 1 -->
<svg width="1353pt" height="934pt"
 viewBox="0.00 0.00 1353.00 934.00" xmlns="http://www.w3.org/2000/svg" xmlns:xlink="http://www.w3.org/1999/xlink">
<g id="graph0" class="graph" transform="scale(1 1) rotate(0) translate(36 898)">
<title>process</title>
<polygon fill="#ffffff" stroke="transparent" points="-36,36 -36,-898 1317,-898 1317,36 -36,36"/>
<!-- n0 -->
<g id="node1" class="node">
<title>n0</title>
<path fill="#ffccbc" stroke="black" d="M1150,-443C1150,-443 1097,-443 1097,-443 1091,-443 1085,-437 1085,-431 1085,-431 1085,-419 1085,-419 1085,-413 1091,-407 1097,-407 1097,-407 1150,-407 1150,-407 1156,-407 1162,-413 1162,-419 1162,-419 1162,-431 1162,-431 1162,-437 1156,-443 1150,-443"/>
<text text-anchor="middle" x="1123.5" y="-422.2" font-family="Helvetica" font-size="11.00">Reply&#45;IVR</text>
</g>
<!-- n1 -->
<g id="node2" class="node">
<title>n1</title>
<path fill="#ffccbc" stroke="black" d="M1269,-443C1269,-443 1239,-443 1239,-443 1233,-443 1227,-437 1227,-431 1227,-431 1227,-419 1227,-419 1227,-413 1233,-407 1239,-407 1239,-407 1269,-407 1269,-407 1275,-407 1281,-413 1281,-419 1281,-419 1281,-431 1281,-431 1281,-437 1275,-443 1269,-443"/>
<text text-anchor="middle" x="1254" y="-422.2" font-family="Helvetica" font-size="11.00">End</text>
</g>
<!-- n0&#45;&gt;n1 -->
<g id="edge1" class="edge">
<title>n0&#45;&gt;n1</title>
<path fill="none" stroke="#555555" d="M1162.01,-425C1179.19,-425 1199.47,-425 1216.52,-425"/>
<polygon fill="#555555" stroke="#555555" points="1216.66,-428.5 1226.66,-425 1216.66,-421.5 1216.66,-428.5"/>
</g>
<!-- n10 -->
<g id="node3" class="node">
<title>n10</title>
<path fill="#e8f4f8" stroke="black" d="M1146.5,-696C1146.5,-696 1100.5,-696 1100.5,-696 1094.5,-696 1088.5,-690 1088.5,-684 1088.5,-684 1088.5,-672 1088.5,-672 1088.5,-666 1094.5,-660 1100.5,-660 1100.5,-660 1146.5,-660 1146.5,-660 1152.5,-660 1158.5,-666 1158.5,-672 1158.5,-672 1158.5,-684 1158.5,-684 1158.5,-690 1152.5,-696 1146.5,-696"/>
<text text-anchor="middle" x="1123.5" y="-675.2" font-family="Helvetica" font-size="11.00">LogFatal</text>
</g>
<!-- n10&#45;&gt;n1 -->
<g id="edge14" class="edge">
<title>n10&#45;&gt;n1</title>
<path fill="none" stroke="#555555" d="M1142.97,-659.79C1151.66,-650.54 1161.68,-638.78 1169,-627 1204.95,-569.12 1231.76,-493.17 1244.59,-452.9"/>
<polygon fill="#555555" stroke="#555555" points="1247.97,-453.81 1247.62,-443.22 1241.29,-451.72 1247.97,-453.81"/>
</g>
<!-- n11 -->
<g id="node4" class="node">
<title>n11</title>
<path fill="#ffccbc" stroke="black" d="M1150,-364C1150,-364 1097,-364 1097,-364 1091,-364 1085,-358 1085,-352 1085,-352 1085,-340 1085,-340 1085,-334 1091,-328 1097,-328 1097,-328 1150,-328 1150,-328 1156,-328 1162,-334 1162,-340 1162,-340 1162,-352 1162,-352 1162,-358 1156,-364 1150,-364"/>
<text text-anchor="middle" x="1123.5" y="-343.2" font-family="Helvetica" font-size="11.00">Reply&#45;BW</text>
</g>
<!-- n11&#45;&gt;n1 -->
<g id="edge16" class="edge">
<title>n11&#45;&gt;n1</title>
<path fill="none" stroke="#555555" d="M1153.98,-364.12C1173.09,-375.87 1198.06,-391.22 1218.15,-403.57"/>
<polygon fill="#555555" stroke="#555555" points="1216.36,-406.58 1226.71,-408.84 1220.02,-400.62 1216.36,-406.58"/>
</g>
<!-- n12 -->
<g id="node5" class="node">
<title>n12</title>
<path fill="#ffccbc" stroke="black" d="M1139.5,-862C1139.5,-862 1107.5,-862 1107.5,-862 1101.5,-862 1095.5,-856 1095.5,-850 1095.5,-850 1095.5,-838 1095.5,-838 1095.5,-832 1101.5,-826 1107.5,-826 1107.5,-826 1139.5,-826 1139.5,-826 1145.5,-826 1151.5,-832 1151.5,-838 1151.5,-838 1151.5,-850 1151.5,-850 1151.5,-856 1145.5,-862 1139.5,-862"/>
<text text-anchor="middle" x="1123.5" y="-841.2" font-family="Helvetica" font-size="11.00">Reply</text>
</g>
<!-- n12&#45;&gt;n1 -->
<g id="edge19" class="edge">
<title>n12&#45;&gt;n1</title>
<path fill="none" stroke="#555555" d="M1144.32,-825.82C1153.1,-816.76 1162.82,-805.15 1169,-793 1228.45,-676.24 1246.27,-517.4 1251.23,-453.42"/>
<polygon fill="#555555" stroke="#555555" points="1254.73,-453.52 1251.97,-443.3 1247.75,-453.02 1254.73,-453.52"/>
</g>
<!-- n13 -->
<g id="node6" class="node">
<title>n13</title>
<path fill="#ffccbc" stroke="black" d="M1157,-285C1157,-285 1090,-285 1090,-285 1084,-285 1078,-279 1078,-273 1078,-273 1078,-261 1078,-261 1078,-255 1084,-249 1090,-249 1090,-249 1157,-249 1157,-249 1163,-249 1169,-255 1169,-261 1169,-261 1169,-273 1169,-273 1169,-279 1163,-285 1157,-285"/>
<text text-anchor="middle" x="1123.5" y="-264.2" font-family="Helvetica" font-size="11.00">Reply&#45;COUK</text>
</g>
<!-- n13&#45;&gt;n1 -->
<g id="edge21" class="edge">
<title>n13&#45;&gt;n1</title>
<path fill="none" stroke="#555555" d="M1147.19,-285.07C1154.49,-291.35 1162.4,-298.67 1169,-306 1195.37,-335.29 1220.77,-373.03 1236.6,-398.07"/>
<polygon fill="#555555" stroke="#555555" points="1233.72,-400.05 1241.99,-406.68 1239.65,-396.34 1233.72,-400.05"/>
</g>
<!-- n14 -->
<g id="node7" class="node">
<title>n14</title>
<path fill="#ffccbc" stroke="black" d="M1151.5,-206C1151.5,-206 1095.5,-206 1095.5,-206 1089.5,-206 1083.5,-200 1083.5,-194 1083.5,-194 1083.5,-182 1083.5,-182 1083.5,-176 1089.5,-170 1095.5,-170 1095.5,-170 1151.5,-170 1151.5,-170 1157.5,-170 1163.5,-176 1163.5,-182 1163.5,-182 1163.5,-194 1163.5,-194 1163.5,-200 1157.5,-206 1151.5,-206"/>
<text text-anchor="middle" x="1123.5" y="-185.2" font-family="Helvetica" font-size="11.00">Reply&#45;DAL</text>
</g>
<!-- n14&#45;&gt;n1 -->
<g id="edge24" class="edge">
<title>n14&#45;&gt;n1</title>
<path fill="none" stroke="#555555" d="M1149.07,-206.08C1156.16,-212.15 1163.46,-219.34 1169,-227 1208.36,-281.41 1233.87,-357.09 1245.57,-397.3"/>
<polygon fill="#555555" stroke="#555555" points="1242.21,-398.3 1248.31,-406.96 1248.95,-396.39 1242.21,-398.3"/>
</g>
<!-- n15 -->
<g id="node8" class="node">
<title>n15</title>
<path fill="#ffccbc" stroke="black" d="M992.5,-115C992.5,-115 918.5,-115 918.5,-115 912.5,-115 906.5,-109 906.5,-103 906.5,-103 906.5,-91 906.5,-91 906.5,-85 912.5,-79 918.5,-79 918.5,-79 992.5,-79 992.5,-79 998.5,-79 1004.5,-85 1004.5,-91 1004.5,-91 1004.5,-103 1004.5,-103 1004.5,-109 998.5,-115 992.5,-115"/>
<text text-anchor="middle" x="955.5" y="-94.2" font-family="Helvetica" font-size="11.00">Reply&#45;ESHOP</text>
</g>
<!-- n15&#45;&gt;n1 -->
<g id="edge25" class="edge">
<title>n15&#45;&gt;n1</title>
<path fill="none" stroke="#555555" d="M1004.66,-95.56C1052.42,-96.79 1124.69,-106.23 1169,-148 1240.3,-215.22 1251.72,-340.75 1253.11,-396.76"/>
<polygon fill="#555555" stroke="#555555" points="1249.61,-397.06 1253.27,-407 1256.61,-396.95 1249.61,-397.06"/>
</g>
<!-- n16 -->
<g id="node9" class="node">
<title>n16</title>
<path fill="#ffccbc" stroke="black" d="M1003,-36C1003,-36 908,-36 908,-36 902,-36 896,-30 896,-24 896,-24 896,-12 896,-12 896,-6 902,0 908,0 908,0 1003,0 1003,0 1009,0 1015,-6 1015,-12 1015,-12 1015,-24 1015,-24 1015,-30 1009,-36 1003,-36"/>
<text text-anchor="middle" x="955.5" y="-15.2" font-family="Helvetica" font-size="11.00">Reply&#45;PREMTEXT</text>
</g>
<!-- n16&#45;&gt;n1 -->
<g id="edge27" class="edge">
<title>n16&#45;&gt;n1</title>
<path fill="none" stroke="#555555" d="M1015.3,-24.24C1063.31,-32.44 1129.48,-51.38 1169,-95 1209.78,-140 1239.21,-325.32 1249.24,-396.75"/>
<polygon fill="#555555" stroke="#555555" points="1245.79,-397.39 1250.63,-406.81 1252.73,-396.43 1245.79,-397.39"/>
</g>
<!-- n17 -->
<g id="node10" class="node">
<title>n17</title>
<path fill="#e8f4f8" stroke="black" d="M108,-737C108,-737 12,-737 12,-737 6,-737 0,-731 0,-725 0,-725 0,-713 0,-713 0,-707 6,-701 12,-701 12,-701 108,-701 108,-701 114,-701 120,-707 120,-713 120,-713 120,-725 120,-725 120,-731 114,-737 108,-737"/>
<text text-anchor="middle" x="60" y="-716.2" font-family="Helvetica" font-size="11.00">SOAPEventSource</text>
</g>
<!-- n7 -->
<g id="node16" class="node">
<title>n7</title>
<path fill="#e8f4f8" stroke="black" d="M227,-779C227,-779 190,-779 190,-779 184,-779 178,-773 178,-767 178,-767 178,-755 178,-755 178,-749 184,-743 190,-743 190,-743 227,-743 227,-743 233,-743 239,-749 239,-755 239,-755 239,-767 239,-767 239,-773 233,-779 227,-779"/>
<text text-anchor="middle" x="208.5" y="-758.2" font-family="Helvetica" font-size="11.00">Assign</text>
</g>
<!-- n17&#45;&gt;n7 -->
<g id="edge29" class="edge">
<title>n17&#45;&gt;n7</title>
<path fill="none" stroke="#555555" d="M120.16,-735.96C136.3,-740.59 153.37,-745.48 168.11,-749.71"/>
<polygon fill="#555555" stroke="#555555" points="167.32,-753.12 177.89,-752.51 169.25,-746.39 167.32,-753.12"/>
</g>
<!-- n8 -->
<g id="node17" class="node">
<title>n8</title>
<path fill="#e8f4f8" stroke="black" d="M352,-737C352,-737 309,-737 309,-737 303,-737 297,-731 297,-725 297,-725 297,-713 297,-713 297,-707 303,-701 309,-701 309,-701 352,-701 352,-701 358,-701 364,-707 364,-713 364,-713 364,-725 364,-725 364,-731 358,-737 352,-737"/>
<text text-anchor="middle" x="330.5" y="-716.2" font-family="Helvetica" font-size="11.00">Confirm</text>
</g>
<!-- n17&#45;&gt;n8 -->
<g id="edge28" class="edge">
<title>n17&#45;&gt;n8</title>
<path fill="none" stroke="#555555" d="M120.26,-719C170.69,-719 241.91,-719 286.89,-719"/>
<polygon fill="#555555" stroke="#555555" points="286.9,-722.5 296.9,-719 286.9,-715.5 286.9,-722.5"/>
</g>
<!-- n2 -->
<g id="node11" class="node">
<title>n2</title>
<path fill="#e8f4f8" stroke="black" d="M709,-737C709,-737 638,-737 638,-737 632,-737 626,-731 626,-725 626,-725 626,-713 626,-713 626,-707 632,-701 638,-701 638,-701 709,-701 709,-701 715,-701 721,-707 721,-713 721,-713 721,-725 721,-725 721,-731 715,-737 709,-737"/>
<text text-anchor="middle" x="673.5" y="-716.2" font-family="Helvetica" font-size="11.00">SOAPService</text>
</g>
<!-- n2&#45;&gt;n12 -->
<g id="edge18" class="edge">
<title>n2&#45;&gt;n12</title>
<path fill="none" stroke="#555555" d="M721.22,-733.66C739.24,-739.23 760.04,-745.53 779,-751 890.06,-783.03 1022.25,-817.91 1085.37,-834.37"/>
<polygon fill="#555555" stroke="#555555" points="1084.69,-837.81 1095.25,-836.95 1086.46,-831.04 1084.69,-837.81"/>
</g>
<!-- n3 -->
<g id="node12" class="node">
<title>n3</title>
<path fill="#e8f4f8" stroke="black" d="M997,-737C997,-737 914,-737 914,-737 908,-737 902,-731 902,-725 902,-725 902,-713 902,-713 902,-707 908,-701 914,-701 914,-701 997,-701 997,-701 1003,-701 1009,-707 1009,-713 1009,-713 1009,-725 1009,-725 1009,-731 1003,-737 997,-737"/>
<text text-anchor="middle" x="955.5" y="-716.2" font-family="Helvetica" font-size="11.00">SOAPSendFault</text>
</g>
<!-- n2&#45;&gt;n3 -->
<g id="edge2" class="edge">
<title>n2&#45;&gt;n3</title>
<path fill="none" stroke="#555555" d="M721.05,-719C767.7,-719 839.83,-719 891.57,-719"/>
<polygon fill="#555555" stroke="#555555" points="891.63,-722.5 901.63,-719 891.63,-715.5 891.63,-722.5"/>
</g>
<!-- n5 -->
<g id="node14" class="node">
<title>n5</title>
<path fill="#e8f4f8" stroke="black" d="M821,-372C821,-372 791,-372 791,-372 785,-372 779,-366 779,-360 779,-360 779,-348 779,-348 779,-342 785,-336 791,-336 791,-336 821,-336 821,-336 827,-336 833,-342 833,-348 833,-348 833,-360 833,-360 833,-366 827,-372 821,-372"/>
<text text-anchor="middle" x="806" y="-351.2" font-family="Helvetica" font-size="11.00">Null</text>
</g>
<!-- n2&#45;&gt;n5 -->
<g id="edge8" class="edge">
<title>n2&#45;&gt;n5</title>
<path fill="none" stroke="#555555" d="M680.97,-700.9C702.15,-641.67 769.48,-453.35 795.03,-381.88"/>
<polygon fill="#555555" stroke="#555555" points="798.42,-382.8 798.49,-372.21 791.83,-380.45 798.42,-382.8"/>
</g>
<!-- n3&#45;&gt;n1 -->
<g id="edge3" class="edge">
<title>n3&#45;&gt;n1</title>
<path fill="none" stroke="#555555" d="M1009.28,-734.68C1056.06,-745.13 1123.77,-751.39 1169,-717 1211.56,-684.64 1239.39,-520.44 1249.13,-453.48"/>
<polygon fill="#555555" stroke="#555555" points="1252.64,-453.64 1250.59,-443.24 1245.71,-452.65 1252.64,-453.64"/>
</g>
<!-- n3&#45;&gt;n10 -->
<g id="edge13" class="edge">
<title>n3&#45;&gt;n10</title>
<path fill="none" stroke="#555555" d="M1009.02,-706.03C1031.33,-700.52 1057.04,-694.17 1078.35,-688.91"/>
<polygon fill="#555555" stroke="#555555" points="1079.24,-692.29 1088.1,-686.5 1077.56,-685.5 1079.24,-692.29"/>
</g>
<!-- n4 -->
<g id="node13" class="node">
<title>n4</title>
<path fill="#e8f4f8" stroke="black" d="M556,-737C556,-737 434,-737 434,-737 428,-737 422,-731 422,-725 422,-725 422,-713 422,-713 422,-707 428,-701 434,-701 434,-701 556,-701 556,-701 562,-701 568,-707 568,-713 568,-713 568,-725 568,-725 568,-731 562,-737 556,-737"/>
<text text-anchor="middle" x="495" y="-716.2" font-family="Helvetica" font-size="11.00">Comp Invocation Details</text>
</g>
<!-- n4&#45;&gt;n2 -->
<g id="edge4" class="edge">
<title>n4&#45;&gt;n2</title>
<path fill="none" stroke="#555555" d="M568.04,-719C583.92,-719 600.52,-719 615.7,-719"/>
<polygon fill="#555555" stroke="#555555" points="615.95,-722.5 625.95,-719 615.95,-715.5 615.95,-722.5"/>
</g>
<!-- n5&#45;&gt;n0 -->
<g id="edge5" class="edge">
<title>n5&#45;&gt;n0</title>
<path fill="none" stroke="#555555" d="M833.16,-364.19C849.58,-370.3 871.3,-377.84 891,-383 953.77,-399.43 1027.77,-411.64 1074.9,-418.54"/>
<polygon fill="#555555" stroke="#555555" points="1074.43,-422.01 1084.83,-419.97 1075.43,-415.08 1074.43,-422.01"/>
</g>
<!-- n5&#45;&gt;n11 -->
<g id="edge15" class="edge">
<title>n5&#45;&gt;n11</title>
<path fill="none" stroke="#555555" d="M833.09,-353.34C886.06,-352 1006.92,-348.93 1074.5,-347.22"/>
<polygon fill="#555555" stroke="#555555" points="1074.96,-350.71 1084.87,-346.95 1074.79,-343.71 1074.96,-350.71"/>
</g>
<!-- n5&#45;&gt;n13 -->
<g id="edge20" class="edge">
<title>n5&#45;&gt;n13</title>
<path fill="none" stroke="#555555" d="M833.09,-346.81C884.45,-332.64 999.63,-300.88 1068.19,-281.98"/>
<polygon fill="#555555" stroke="#555555" points="1069.24,-285.32 1077.95,-279.28 1067.38,-278.57 1069.24,-285.32"/>
</g>
<!-- n5&#45;&gt;n14 -->
<g id="edge22" class="edge">
<title>n5&#45;&gt;n14</title>
<path fill="none" stroke="#555555" d="M826.98,-335.88C843.35,-321.64 867.57,-301.94 891,-288 950.83,-252.39 1025.67,-222.43 1073.78,-204.84"/>
<polygon fill="#555555" stroke="#555555" points="1075.12,-208.08 1083.33,-201.39 1072.73,-201.5 1075.12,-208.08"/>
</g>
<!-- n5&#45;&gt;n15 -->
<g id="edge23" class="edge">
<title>n5&#45;&gt;n15</title>
<path fill="none" stroke="#555555" d="M811.08,-335.94C820.29,-298.11 845.52,-209 891,-148 898.4,-138.08 908.15,-128.98 917.8,-121.31"/>
<polygon fill="#555555" stroke="#555555" points="919.98,-124.05 925.81,-115.2 915.74,-118.48 919.98,-124.05"/>
</g>
<!-- n5&#45;&gt;n16 -->
<g id="edge26" class="edge">
<title>n5&#45;&gt;n16</title>
<path fill="none" stroke="#555555" d="M807.66,-335.96C810.32,-286.39 823.74,-145.88 891,-57 895.25,-51.39 900.56,-46.4 906.29,-42.02"/>
<polygon fill="#555555" stroke="#555555" points="908.69,-44.62 914.91,-36.04 904.7,-38.86 908.69,-44.62"/>
</g>
<!-- n6 -->
<g id="node15" class="node">
<title>n6</title>
<path fill="#ffccbc" stroke="black" d="M1008,-542C1008,-542 903,-542 903,-542 897,-542 891,-536 891,-530 891,-530 891,-518 891,-518 891,-512 897,-506 903,-506 903,-506 1008,-506 1008,-506 1014,-506 1020,-512 1020,-518 1020,-518 1020,-530 1020,-530 1020,-536 1014,-542 1008,-542"/>
<text text-anchor="middle" x="955.5" y="-521.2" font-family="Helvetica" font-size="11.00">Reply&#45;LIVEPERSON</text>
</g>
<!-- n5&#45;&gt;n6 -->
<g id="edge6" class="edge">
<title>n5&#45;&gt;n6</title>
<path fill="none" stroke="#555555" d="M817.55,-372.1C832.25,-396.48 860.52,-440.57 891,-473 899.85,-482.42 910.48,-491.61 920.48,-499.54"/>
<polygon fill="#555555" stroke="#555555" points="918.64,-502.54 928.69,-505.88 922.92,-497 918.64,-502.54"/>
</g>
<!-- n9 -->
<g id="node18" class="node">
<title>n9</title>
<path fill="#e8f4f8" stroke="black" d="M1002,-621C1002,-621 909,-621 909,-621 903,-621 897,-615 897,-609 897,-609 897,-597 897,-597 897,-591 903,-585 909,-585 909,-585 1002,-585 1002,-585 1008,-585 1014,-591 1014,-597 1014,-597 1014,-609 1014,-609 1014,-615 1008,-621 1002,-621"/>
<text text-anchor="middle" x="955.5" y="-600.2" font-family="Helvetica" font-size="11.00">SOAPSendFault&#45;1</text>
</g>
<!-- n5&#45;&gt;n9 -->
<g id="edge17" class="edge">
<title>n5&#45;&gt;n9</title>
<path fill="none" stroke="#555555" d="M810.34,-372.17C818.27,-411.04 841.39,-503.55 891,-563 896.05,-569.05 902.25,-574.47 908.79,-579.23"/>
<polygon fill="#555555" stroke="#555555" points="906.93,-582.2 917.18,-584.89 910.85,-576.4 906.93,-582.2"/>
</g>
<!-- n6&#45;&gt;n1 -->
<g id="edge7" class="edge">
<title>n6&#45;&gt;n1</title>
<path fill="none" stroke="#555555" d="M1020.11,-508.87C1062.78,-498.04 1119.93,-482.18 1169,-464 1185.32,-457.95 1202.87,-450.04 1217.68,-442.93"/>
<polygon fill="#555555" stroke="#555555" points="1219.52,-445.92 1226.98,-438.39 1216.45,-439.63 1219.52,-445.92"/>
</g>
<!-- n7&#45;&gt;n8 -->
<g id="edge9" class="edge">
<title>n7&#45;&gt;n8</title>
<path fill="none" stroke="#555555" d="M239.16,-750.62C253.65,-745.55 271.33,-739.36 287.2,-733.8"/>
<polygon fill="#555555" stroke="#555555" points="288.52,-737.05 296.8,-730.44 286.21,-730.44 288.52,-737.05"/>
</g>
<!-- n8&#45;&gt;n4 -->
<g id="edge11" class="edge">
<title>n8&#45;&gt;n4</title>
<path fill="none" stroke="#555555" d="M364.38,-719C378.13,-719 394.78,-719 411.51,-719"/>
<polygon fill="#555555" stroke="#555555" points="411.9,-722.5 421.9,-719 411.9,-715.5 411.9,-722.5"/>
</g>
<!-- n9&#45;&gt;n1 -->
<g id="edge10" class="edge">
<title>n9&#45;&gt;n1</title>
<path fill="none" stroke="#555555" d="M1014.17,-584.91C1058.76,-569.35 1120.82,-544.17 1169,-511 1193.41,-494.2 1216.58,-469.58 1232.38,-450.98"/>
<polygon fill="#555555" stroke="#555555" points="1235.18,-453.09 1238.89,-443.17 1229.8,-448.61 1235.18,-453.09"/>
</g>
<!-- n9&#45;&gt;n10 -->
<g id="edge12" class="edge">
<title>n9&#45;&gt;n10</title>
<path fill="none" stroke="#555555" d="M996.68,-621.16C1021.53,-632.38 1053.42,-646.79 1078.88,-658.29"/>
<polygon fill="#555555" stroke="#555555" points="1077.74,-661.62 1088.29,-662.55 1080.62,-655.24 1077.74,-661.62"/>
</g>
</g>
</svg>
