<?xml version="1.0" encoding="UTF-8" standalone="no"?>
<!DOCTYPE svg PUBLIC "-//W3C//DTD SVG 1.1//EN"
 "http://www.w3.org/Graphics/SVG/1.1/DTD/svg11.dtd">
<!-- Generated by graphviz version 2.44.0 (0)
 -->
<!-- Title: process Pages: 1 -->
<svg width="532pt" height="149pt"
 viewBox="0.00 0.00 532.00 149.00" xmlns="http://www.w3.org/2000/svg" xmlns:xlink="http://www.w3.org/1999/xlink">
<g id="graph0" class="graph" transform="scale(1 1) rotate(0) translate(36 113)">
<title>process</title>
<polygon fill="#ffffff" stroke="transparent" points="-36,36 -36,-113 496,-113 496,36 -36,36"/>
<!-- n0 -->
<g id="node1" class="node">
<title>n0</title>
<path fill="#c8e6c9" stroke="black" d="M42,-77C42,-77 12,-77 12,-77 6,-77 0,-71 0,-65 0,-65 0,-53 0,-53 0,-47 6,-41 12,-41 12,-41 42,-41 42,-41 48,-41 54,-47 54,-53 54,-53 54,-65 54,-65 54,-71 48,-77 42,-77"/>
<text text-anchor="middle" x="27" y="-56.2" font-family="Helvetica" font-size="11.00">Start</text>
</g>
<!-- n1 -->
<g id="node2" class="node">
<title>n1</title>
<path fill="#e8f4f8" stroke="black" d="M204,-77C204,-77 124,-77 124,-77 118,-77 112,-71 112,-65 112,-65 112,-53 112,-53 112,-47 118,-41 124,-41 124,-41 204,-41 204,-41 210,-41 216,-47 216,-53 216,-53 216,-65 216,-65 216,-71 210,-77 204,-77"/>
<text text-anchor="middle" x="164" y="-56.2" font-family="Helvetica" font-size="11.00">AuditStartEvent</text>
</g>
<!-- n0&#45;&gt;n1 -->
<g id="edge1" class="edge">
<title>n0&#45;&gt;n1</title>
<path fill="none" stroke="#555555" d="M54.03,-59C67.61,-59 84.84,-59 101.57,-59"/>
<polygon fill="#555555" stroke="#555555" points="101.89,-62.5 111.89,-59 101.89,-55.5 101.89,-62.5"/>
</g>
<!-- n2 -->
<g id="node3" class="node">
<title>n2</title>
<path fill="#ffccbc" stroke="black" d="M448,-77C448,-77 418,-77 418,-77 412,-77 406,-71 406,-65 406,-65 406,-53 406,-53 406,-47 412,-41 418,-41 418,-41 448,-41 448,-41 454,-41 460,-47 460,-53 460,-53 460,-65 460,-65 460,-71 454,-77 448,-77"/>
<text text-anchor="middle" x="433" y="-56.2" font-family="Helvetica" font-size="11.00">End</text>
</g>
<!-- n1&#45;&gt;n2 -->
<g id="edge2" class="edge">
<title>n1&#45;&gt;n2</title>
<path fill="none" stroke="#555555" d="M216.16,-59C268.7,-59 349.16,-59 395.56,-59"/>
<polygon fill="#555555" stroke="#555555" points="395.76,-62.5 405.76,-59 395.76,-55.5 395.76,-62.5"/>
</g>
<!-- n3 -->
<g id="node4" class="node">
<title>n3</title>
<path fill="#ffcdd2" stroke="black" d="M336,-36C336,-36 286,-36 286,-36 280,-36 274,-30 274,-24 274,-24 274,-12 274,-12 274,-6 280,0 286,0 286,0 336,0 336,0 342,0 348,-6 348,-12 348,-12 348,-24 348,-24 348,-30 342,-36 336,-36"/>
<text text-anchor="middle" x="311" y="-15.2" font-family="Helvetica" font-size="11.00">Log Error</text>
</g>
<!-- n1&#45;&gt;n3 -->
<g id="edge3" class="edge">
<title>n1&#45;&gt;n3</title>
<path fill="none" stroke="#555555" d="M216.12,-44.54C231.77,-40.12 248.88,-35.28 264.16,-30.96"/>
<polygon fill="#555555" stroke="#555555" points="265.23,-34.3 273.9,-28.21 263.32,-27.56 265.23,-34.3"/>
</g>
<!-- n3&#45;&gt;n2 -->
<g id="edge4" class="edge">
<title>n3&#45;&gt;n2</title>
<path fill="none" stroke="#555555" d="M348,-30.3C363.29,-35.53 381.07,-41.6 396.33,-46.81"/>
<polygon fill="#555555" stroke="#555555" points="395.34,-50.17 405.94,-50.09 397.61,-43.55 395.34,-50.17"/>
</g>
</g>
</svg>
