<?xml version="1.0" encoding="UTF-8" standalone="no"?>
<!DOCTYPE svg PUBLIC "-//W3C//DTD SVG 1.1//EN"
 "http://www.w3.org/Graphics/SVG/1.1/DTD/svg11.dtd">
<!-- Generated by graphviz version 2.44.0 (0)
 -->
<!-- Title: process Pages: 1 -->
<svg width="823pt" height="270pt"
 viewBox="0.00 0.00 823.00 270.00" xmlns="http://www.w3.org/2000/svg" xmlns:xlink="http://www.w3.org/1999/xlink">
<g id="graph0" class="graph" transform="scale(1 1) rotate(0) translate(36 234)">
<title>process</title>
<polygon fill="#ffffff" stroke="transparent" points="-36,36 -36,-234 787,-234 787,36 -36,36"/>
<!-- n0 -->
<g id="node1" class="node">
<title>n0</title>
<path fill="#c8e6c9" stroke="black" d="M42,-117C42,-117 12,-117 12,-117 6,-117 0,-111 0,-105 0,-105 0,-93 0,-93 0,-87 6,-81 12,-81 12,-81 42,-81 42,-81 48,-81 54,-87 54,-93 54,-93 54,-105 54,-105 54,-111 48,-117 42,-117"/>
<text text-anchor="middle" x="27" y="-96.2" font-family="Helvetica" font-size="11.00">Start</text>
</g>
<!-- n1 -->
<g id="node2" class="node">
<title>n1</title>
<path fill="#e8f4f8" stroke="black" d="M175,-117C175,-117 124,-117 124,-117 118,-117 112,-111 112,-105 112,-105 112,-93 112,-93 112,-87 118,-81 124,-81 124,-81 175,-81 175,-81 181,-81 187,-87 187,-93 187,-93 187,-105 187,-105 187,-111 181,-117 175,-117"/>
<text text-anchor="middle" x="149.5" y="-96.2" font-family="Helvetica" font-size="11.00">Map Data</text>
</g>
<!-- n0&#45;&gt;n1 -->
<g id="edge1" class="edge">
<title>n0&#45;&gt;n1</title>
<path fill="none" stroke="#555555" d="M54.15,-99C68,-99 85.44,-99 101.55,-99"/>
<polygon fill="#555555" stroke="#555555" points="101.89,-102.5 111.89,-99 101.89,-95.5 101.89,-102.5"/>
</g>
<!-- n3 -->
<g id="node4" class="node">
<title>n3</title>
<path fill="#ffccbc" stroke="black" d="M715.5,-36C715.5,-36 685.5,-36 685.5,-36 679.5,-36 673.5,-30 673.5,-24 673.5,-24 673.5,-12 673.5,-12 673.5,-6 679.5,0 685.5,0 685.5,0 715.5,0 715.5,0 721.5,0 727.5,-6 727.5,-12 727.5,-12 727.5,-24 727.5,-24 727.5,-30 721.5,-36 715.5,-36"/>
<text text-anchor="middle" x="700.5" y="-15.2" font-family="Helvetica" font-size="11.00">End</text>
</g>
<!-- n0&#45;&gt;n3 -->
<g id="edge4" class="edge">
<title>n0&#45;&gt;n3</title>
<path fill="none" stroke="#555555" d="M54.16,-85.29C101.66,-61.72 205.85,-16 299.5,-16 299.5,-16 299.5,-16 447,-16 523.99,-16 614.17,-16.94 663.22,-17.53"/>
<polygon fill="#555555" stroke="#555555" points="663.29,-21.03 673.33,-17.66 663.37,-14.03 663.29,-21.03"/>
</g>
<!-- n5 -->
<g id="node6" class="node">
<title>n5</title>
<path fill="#e8f4f8" stroke="black" d="M315.5,-198C315.5,-198 285.5,-198 285.5,-198 279.5,-198 273.5,-192 273.5,-186 273.5,-186 273.5,-174 273.5,-174 273.5,-168 279.5,-162 285.5,-162 285.5,-162 315.5,-162 315.5,-162 321.5,-162 327.5,-168 327.5,-174 327.5,-174 327.5,-186 327.5,-186 327.5,-192 321.5,-198 315.5,-198"/>
<text text-anchor="middle" x="300.5" y="-177.2" font-family="Helvetica" font-size="11.00">Null</text>
</g>
<!-- n0&#45;&gt;n5 -->
<g id="edge6" class="edge">
<title>n0&#45;&gt;n5</title>
<path fill="none" stroke="#555555" d="M54.21,-113.39C70.45,-121.83 91.98,-132.15 112,-139 163.15,-156.51 224.78,-168.29 263.06,-174.58"/>
<polygon fill="#555555" stroke="#555555" points="262.78,-178.08 273.21,-176.2 263.89,-171.16 262.78,-178.08"/>
</g>
<!-- n1&#45;&gt;n5 -->
<g id="edge5" class="edge">
<title>n1&#45;&gt;n5</title>
<path fill="none" stroke="#555555" d="M183.94,-117.18C207.83,-130.16 239.91,-147.61 264.21,-160.81"/>
<polygon fill="#555555" stroke="#555555" points="262.65,-163.95 273.11,-165.65 265.99,-157.8 262.65,-163.95"/>
</g>
<!-- n6 -->
<g id="node7" class="node">
<title>n6</title>
<path fill="#ffcdd2" stroke="black" d="M344,-117C344,-117 257,-117 257,-117 251,-117 245,-111 245,-105 245,-105 245,-93 245,-93 245,-87 251,-81 257,-81 257,-81 344,-81 344,-81 350,-81 356,-87 356,-93 356,-93 356,-105 356,-105 356,-111 350,-117 344,-117"/>
<text text-anchor="middle" x="300.5" y="-96.2" font-family="Helvetica" font-size="11.00">Generate&#45;Error&#45;1</text>
</g>
<!-- n1&#45;&gt;n6 -->
<g id="edge7" class="edge">
<title>n1&#45;&gt;n6</title>
<path fill="none" stroke="#555555" d="M187.33,-99C201.68,-99 218.55,-99 234.79,-99"/>
<polygon fill="#555555" stroke="#555555" points="234.79,-102.5 244.79,-99 234.79,-95.5 234.79,-102.5"/>
</g>
<!-- n2 -->
<g id="node3" class="node">
<title>n2</title>
<path fill="#e8f4f8" stroke="black" d="M580,-117C580,-117 548,-117 548,-117 542,-117 536,-111 536,-105 536,-105 536,-93 536,-93 536,-87 542,-81 548,-81 548,-81 580,-81 580,-81 586,-81 592,-87 592,-93 592,-93 592,-105 592,-105 592,-111 586,-117 580,-117"/>
<text text-anchor="middle" x="564" y="-96.2" font-family="Helvetica" font-size="11.00">DES3</text>
</g>
<!-- n2&#45;&gt;n3 -->
<g id="edge2" class="edge">
<title>n2&#45;&gt;n3</title>
<path fill="none" stroke="#555555" d="M592.22,-82.61C613.09,-70.04 642.05,-52.6 664.62,-39.01"/>
<polygon fill="#555555" stroke="#555555" points="666.48,-41.97 673.24,-33.82 662.87,-35.98 666.48,-41.97"/>
</g>
<!-- n4 -->
<g id="node5" class="node">
<title>n4</title>
<path fill="#ffcdd2" stroke="black" d="M739,-117C739,-117 662,-117 662,-117 656,-117 650,-111 650,-105 650,-105 650,-93 650,-93 650,-87 656,-81 662,-81 662,-81 739,-81 739,-81 745,-81 751,-87 751,-93 751,-93 751,-105 751,-105 751,-111 745,-117 739,-117"/>
<text text-anchor="middle" x="700.5" y="-96.2" font-family="Helvetica" font-size="11.00">Generate Error</text>
</g>
<!-- n2&#45;&gt;n4 -->
<g id="edge3" class="edge">
<title>n2&#45;&gt;n4</title>
<path fill="none" stroke="#555555" d="M592.22,-99C605.89,-99 623.02,-99 639.56,-99"/>
<polygon fill="#555555" stroke="#555555" points="639.74,-102.5 649.74,-99 639.74,-95.5 639.74,-102.5"/>
</g>
<!-- n5&#45;&gt;n2 -->
<g id="edge9" class="edge">
<title>n5&#45;&gt;n2</title>
<path fill="none" stroke="#555555" d="M327.71,-175.7C362.61,-169.58 425.99,-157.05 478,-139 494.3,-133.34 511.65,-125.53 526.4,-118.3"/>
<polygon fill="#555555" stroke="#555555" points="528.29,-121.27 535.67,-113.67 525.16,-115.01 528.29,-121.27"/>
</g>
<!-- n7 -->
<g id="node8" class="node">
<title>n7</title>
<path fill="#e8f4f8" stroke="black" d="M466,-117C466,-117 426,-117 426,-117 420,-117 414,-111 414,-105 414,-105 414,-93 414,-93 414,-87 420,-81 426,-81 426,-81 466,-81 466,-81 472,-81 478,-87 478,-93 478,-93 478,-105 478,-105 478,-111 472,-117 466,-117"/>
<text text-anchor="middle" x="446" y="-96.2" font-family="Helvetica" font-size="11.00">GetKey</text>
</g>
<!-- n5&#45;&gt;n7 -->
<g id="edge8" class="edge">
<title>n5&#45;&gt;n7</title>
<path fill="none" stroke="#555555" d="M327.82,-165.14C349.44,-152.94 380.41,-135.46 405.08,-121.54"/>
<polygon fill="#555555" stroke="#555555" points="406.86,-124.55 413.85,-116.58 403.42,-118.45 406.86,-124.55"/>
</g>
<!-- n7&#45;&gt;n2 -->
<g id="edge10" class="edge">
<title>n7&#45;&gt;n2</title>
<path fill="none" stroke="#555555" d="M478.09,-99C492.7,-99 510.24,-99 525.58,-99"/>
<polygon fill="#555555" stroke="#555555" points="525.78,-102.5 535.78,-99 525.78,-95.5 525.78,-102.5"/>
</g>
</g>
</svg>
