<?xml version="1.0" encoding="UTF-8" standalone="no"?>
<!DOCTYPE svg PUBLIC "-//W3C//DTD SVG 1.1//EN"
 "http://www.w3.org/Graphics/SVG/1.1/DTD/svg11.dtd">
<!-- Generated by graphviz version 2.44.0 (0)
 -->
<!-- Title: process Pages: 1 -->
<svg width="1022pt" height="268pt"
 viewBox="0.00 0.00 1022.00 268.00" xmlns="http://www.w3.org/2000/svg" xmlns:xlink="http://www.w3.org/1999/xlink">
<g id="graph0" class="graph" transform="scale(1 1) rotate(0) translate(36 232)">
<title>process</title>
<polygon fill="#ffffff" stroke="transparent" points="-36,36 -36,-232 986,-232 986,36 -36,36"/>
<!-- n0 -->
<g id="node1" class="node">
<title>n0</title>
<path fill="#e8f4f8" stroke="black" d="M614.5,-117C614.5,-117 549.5,-117 549.5,-117 543.5,-117 537.5,-111 537.5,-105 537.5,-105 537.5,-93 537.5,-93 537.5,-87 543.5,-81 549.5,-81 549.5,-81 614.5,-81 614.5,-81 620.5,-81 626.5,-87 626.5,-93 626.5,-93 626.5,-105 626.5,-105 626.5,-111 620.5,-117 614.5,-117"/>
<text text-anchor="middle" x="582" y="-96.2" font-family="Helvetica" font-size="11.00">Parse JSON</text>
</g>
<!-- n1 -->
<g id="node2" class="node">
<title>n1</title>
<path fill="#ffccbc" stroke="black" d="M766,-196C766,-196 736,-196 736,-196 730,-196 724,-190 724,-184 724,-184 724,-172 724,-172 724,-166 730,-160 736,-160 736,-160 766,-160 766,-160 772,-160 778,-166 778,-172 778,-172 778,-184 778,-184 778,-190 772,-196 766,-196"/>
<text text-anchor="middle" x="751" y="-175.2" font-family="Helvetica" font-size="11.00">End</text>
</g>
<!-- n0&#45;&gt;n1 -->
<g id="edge1" class="edge">
<title>n0&#45;&gt;n1</title>
<path fill="none" stroke="#555555" d="M621.31,-117.12C649.4,-130.41 687.23,-148.31 714.61,-161.26"/>
<polygon fill="#555555" stroke="#555555" points="713.28,-164.5 723.82,-165.61 716.28,-158.17 713.28,-164.5"/>
</g>
<!-- n3 -->
<g id="node4" class="node">
<title>n3</title>
<path fill="#e8f4f8" stroke="black" d="M799,-117C799,-117 703,-117 703,-117 697,-117 691,-111 691,-105 691,-105 691,-93 691,-93 691,-87 697,-81 703,-81 703,-81 799,-81 799,-81 805,-81 811,-87 811,-93 811,-93 811,-105 811,-105 811,-111 805,-117 799,-117"/>
<text text-anchor="middle" x="751" y="-96.2" font-family="Helvetica" font-size="11.00">MapOAGException</text>
</g>
<!-- n0&#45;&gt;n3 -->
<g id="edge3" class="edge">
<title>n0&#45;&gt;n3</title>
<path fill="none" stroke="#555555" d="M626.88,-99C643.35,-99 662.5,-99 680.72,-99"/>
<polygon fill="#555555" stroke="#555555" points="680.72,-102.5 690.72,-99 680.72,-95.5 680.72,-102.5"/>
</g>
<!-- n9 -->
<g id="node10" class="node">
<title>n9</title>
<path fill="#ffcdd2" stroke="black" d="M794.5,-38C794.5,-38 707.5,-38 707.5,-38 701.5,-38 695.5,-32 695.5,-26 695.5,-26 695.5,-14 695.5,-14 695.5,-8 701.5,-2 707.5,-2 707.5,-2 794.5,-2 794.5,-2 800.5,-2 806.5,-8 806.5,-14 806.5,-14 806.5,-26 806.5,-26 806.5,-32 800.5,-38 794.5,-38"/>
<text text-anchor="middle" x="751" y="-17.2" font-family="Helvetica" font-size="11.00">Generate&#45;Error&#45;1</text>
</g>
<!-- n0&#45;&gt;n9 -->
<g id="edge10" class="edge">
<title>n0&#45;&gt;n9</title>
<path fill="none" stroke="#555555" d="M621.31,-80.88C645.5,-69.43 676.92,-54.57 702.66,-42.39"/>
<polygon fill="#555555" stroke="#555555" points="704.32,-45.48 711.87,-38.04 701.33,-39.15 704.32,-45.48"/>
</g>
<!-- n2 -->
<g id="node3" class="node">
<title>n2</title>
<path fill="#e8f4f8" stroke="black" d="M349,-77C349,-77 290,-77 290,-77 284,-77 278,-71 278,-65 278,-65 278,-53 278,-53 278,-47 284,-41 290,-41 290,-41 349,-41 349,-41 355,-41 361,-47 361,-53 361,-53 361,-65 361,-65 361,-71 355,-77 349,-77"/>
<text text-anchor="middle" x="319.5" y="-56.2" font-family="Helvetica" font-size="11.00">InvokeOAG</text>
</g>
<!-- n2&#45;&gt;n0 -->
<g id="edge2" class="edge">
<title>n2&#45;&gt;n0</title>
<path fill="none" stroke="#555555" d="M361.2,-65.25C405.82,-72.1 477.62,-83.13 526.94,-90.7"/>
<polygon fill="#555555" stroke="#555555" points="526.69,-94.2 537.1,-92.26 527.75,-87.28 526.69,-94.2"/>
</g>
<!-- n5 -->
<g id="node6" class="node">
<title>n5</title>
<path fill="#e8f4f8" stroke="black" d="M461,-36C461,-36 431,-36 431,-36 425,-36 419,-30 419,-24 419,-24 419,-12 419,-12 419,-6 425,0 431,0 431,0 461,0 461,0 467,0 473,-6 473,-12 473,-12 473,-24 473,-24 473,-30 467,-36 461,-36"/>
<text text-anchor="middle" x="446" y="-15.2" font-family="Helvetica" font-size="11.00">Null</text>
</g>
<!-- n2&#45;&gt;n5 -->
<g id="edge5" class="edge">
<title>n2&#45;&gt;n5</title>
<path fill="none" stroke="#555555" d="M361.27,-45.58C376.59,-40.53 393.9,-34.83 408.79,-29.93"/>
<polygon fill="#555555" stroke="#555555" points="410.25,-33.13 418.65,-26.68 408.06,-26.48 410.25,-33.13"/>
</g>
<!-- n4 -->
<g id="node5" class="node">
<title>n4</title>
<path fill="#ffcdd2" stroke="black" d="M938,-117C938,-117 881,-117 881,-117 875,-117 869,-111 869,-105 869,-105 869,-93 869,-93 869,-87 875,-81 881,-81 881,-81 938,-81 938,-81 944,-81 950,-87 950,-93 950,-93 950,-105 950,-105 950,-111 944,-117 938,-117"/>
<text text-anchor="middle" x="909.5" y="-96.2" font-family="Helvetica" font-size="11.00">OAG&#45;Error</text>
</g>
<!-- n3&#45;&gt;n4 -->
<g id="edge4" class="edge">
<title>n3&#45;&gt;n4</title>
<path fill="none" stroke="#555555" d="M811.17,-99C826.78,-99 843.47,-99 858.55,-99"/>
<polygon fill="#555555" stroke="#555555" points="858.69,-102.5 868.69,-99 858.69,-95.5 858.69,-102.5"/>
</g>
<!-- n5&#45;&gt;n0 -->
<g id="edge7" class="edge">
<title>n5&#45;&gt;n0</title>
<path fill="none" stroke="#555555" d="M473.15,-33.81C492.84,-45.71 520.12,-62.2 542.32,-75.62"/>
<polygon fill="#555555" stroke="#555555" points="540.81,-78.79 551.17,-80.97 544.43,-72.8 540.81,-78.79"/>
</g>
<!-- n6 -->
<g id="node7" class="node">
<title>n6</title>
<path fill="#ffcdd2" stroke="black" d="M621,-36C621,-36 543,-36 543,-36 537,-36 531,-30 531,-24 531,-24 531,-12 531,-12 531,-6 537,0 543,0 543,0 621,0 621,0 627,0 633,-6 633,-12 633,-12 633,-24 633,-24 633,-30 627,-36 621,-36"/>
<text text-anchor="middle" x="582" y="-15.2" font-family="Helvetica" font-size="11.00">Generate&#45;Error</text>
</g>
<!-- n5&#45;&gt;n6 -->
<g id="edge6" class="edge">
<title>n5&#45;&gt;n6</title>
<path fill="none" stroke="#555555" d="M473.15,-18C486.72,-18 503.89,-18 520.52,-18"/>
<polygon fill="#555555" stroke="#555555" points="520.76,-21.5 530.76,-18 520.76,-14.5 520.76,-21.5"/>
</g>
<!-- n7 -->
<g id="node8" class="node">
<title>n7</title>
<path fill="#c8e6c9" stroke="black" d="M42,-77C42,-77 12,-77 12,-77 6,-77 0,-71 0,-65 0,-65 0,-53 0,-53 0,-47 6,-41 12,-41 12,-41 42,-41 42,-41 48,-41 54,-47 54,-53 54,-53 54,-65 54,-65 54,-71 48,-77 42,-77"/>
<text text-anchor="middle" x="27" y="-56.2" font-family="Helvetica" font-size="11.00">Start</text>
</g>
<!-- n8 -->
<g id="node9" class="node">
<title>n8</title>
<path fill="#e8f4f8" stroke="black" d="M208,-77C208,-77 124,-77 124,-77 118,-77 112,-71 112,-65 112,-65 112,-53 112,-53 112,-47 118,-41 124,-41 124,-41 208,-41 208,-41 214,-41 220,-47 220,-53 220,-53 220,-65 220,-65 220,-71 214,-77 208,-77"/>
<text text-anchor="middle" x="166" y="-56.2" font-family="Helvetica" font-size="11.00">ConvertToJSON</text>
</g>
<!-- n7&#45;&gt;n8 -->
<g id="edge8" class="edge">
<title>n7&#45;&gt;n8</title>
<path fill="none" stroke="#555555" d="M54.09,-59C67.59,-59 84.72,-59 101.45,-59"/>
<polygon fill="#555555" stroke="#555555" points="101.78,-62.5 111.78,-59 101.78,-55.5 101.78,-62.5"/>
</g>
<!-- n8&#45;&gt;n2 -->
<g id="edge9" class="edge">
<title>n8&#45;&gt;n2</title>
<path fill="none" stroke="#555555" d="M220.41,-59C235.78,-59 252.49,-59 267.7,-59"/>
<polygon fill="#555555" stroke="#555555" points="267.95,-62.5 277.95,-59 267.95,-55.5 267.95,-62.5"/>
</g>
</g>
</svg>
