<?xml version="1.0" encoding="UTF-8" standalone="no"?>
<!DOCTYPE svg PUBLIC "-//W3C//DTD SVG 1.1//EN"
 "http://www.w3.org/Graphics/SVG/1.1/DTD/svg11.dtd">
<!-- Generated by graphviz version 2.44.0 (0)
 -->
<!-- Title: process Pages: 1 -->
<svg width="1184pt" height="108pt"
 viewBox="0.00 0.00 1184.00 108.00" xmlns="http://www.w3.org/2000/svg" xmlns:xlink="http://www.w3.org/1999/xlink">
<g id="graph0" class="graph" transform="scale(1 1) rotate(0) translate(36 72)">
<title>process</title>
<polygon fill="#ffffff" stroke="transparent" points="-36,36 -36,-72 1148,-72 1148,36 -36,36"/>
<!-- n0 -->
<g id="node1" class="node">
<title>n0</title>
<path fill="#ffcdd2" stroke="black" d="M221,-36C221,-36 124,-36 124,-36 118,-36 112,-30 112,-24 112,-24 112,-12 112,-12 112,-6 118,0 124,0 124,0 221,0 221,0 227,0 233,-6 233,-12 233,-12 233,-24 233,-24 233,-30 227,-36 221,-36"/>
<text text-anchor="middle" x="172.5" y="-15.2" font-family="Helvetica" font-size="11.00">Prepare Error Data</text>
</g>
<!-- n1 -->
<g id="node2" class="node">
<title>n1</title>
<path fill="#ffcdd2" stroke="black" d="M405,-36C405,-36 303,-36 303,-36 297,-36 291,-30 291,-24 291,-24 291,-12 291,-12 291,-6 297,0 303,0 303,0 405,0 405,0 411,0 417,-6 417,-12 417,-12 417,-24 417,-24 417,-30 411,-36 405,-36"/>
<text text-anchor="middle" x="354" y="-15.2" font-family="Helvetica" font-size="11.00">Translate Error Data</text>
</g>
<!-- n0&#45;&gt;n1 -->
<g id="edge1" class="edge">
<title>n0&#45;&gt;n1</title>
<path fill="none" stroke="#555555" d="M233.27,-18C248.41,-18 264.84,-18 280.54,-18"/>
<polygon fill="#555555" stroke="#555555" points="280.73,-21.5 290.73,-18 280.73,-14.5 280.73,-21.5"/>
</g>
<!-- n2 -->
<g id="node3" class="node">
<title>n2</title>
<path fill="#ffcdd2" stroke="black" d="M594,-36C594,-36 487,-36 487,-36 481,-36 475,-30 475,-24 475,-24 475,-12 475,-12 475,-6 481,0 487,0 487,0 594,0 594,0 600,0 606,-6 606,-12 606,-12 606,-24 606,-24 606,-30 600,-36 594,-36"/>
<text text-anchor="middle" x="540.5" y="-15.2" font-family="Helvetica" font-size="11.00">Prepare&#45;Error&#45;Data&#45;1</text>
</g>
<!-- n1&#45;&gt;n2 -->
<g id="edge2" class="edge">
<title>n1&#45;&gt;n2</title>
<path fill="none" stroke="#555555" d="M417.21,-18C432.4,-18 448.8,-18 464.52,-18"/>
<polygon fill="#555555" stroke="#555555" points="464.73,-21.5 474.73,-18 464.73,-14.5 464.73,-21.5"/>
</g>
<!-- n3 -->
<g id="node4" class="node">
<title>n3</title>
<path fill="#e8f4f8" stroke="black" d="M790,-36C790,-36 676,-36 676,-36 670,-36 664,-30 664,-24 664,-24 664,-12 664,-12 664,-6 670,0 676,0 676,0 790,0 790,0 796,0 802,-6 802,-12 802,-12 802,-24 802,-24 802,-30 796,-36 790,-36"/>
<text text-anchor="middle" x="733" y="-15.2" font-family="Helvetica" font-size="11.00">TraceSpecialException</text>
</g>
<!-- n2&#45;&gt;n3 -->
<g id="edge3" class="edge">
<title>n2&#45;&gt;n3</title>
<path fill="none" stroke="#555555" d="M606.26,-18C621.48,-18 637.86,-18 653.6,-18"/>
<polygon fill="#555555" stroke="#555555" points="653.84,-21.5 663.84,-18 653.84,-14.5 653.84,-21.5"/>
</g>
<!-- n5 -->
<g id="node6" class="node">
<title>n5</title>
<path fill="#e8f4f8" stroke="black" d="M988,-36C988,-36 872,-36 872,-36 866,-36 860,-30 860,-24 860,-24 860,-12 860,-12 860,-6 866,0 872,0 872,0 988,0 988,0 994,0 1000,-6 1000,-12 1000,-12 1000,-24 1000,-24 1000,-30 994,-36 988,-36"/>
<text text-anchor="middle" x="930" y="-15.2" font-family="Helvetica" font-size="11.00">ExceptionSchemaFilter</text>
</g>
<!-- n3&#45;&gt;n5 -->
<g id="edge6" class="edge">
<title>n3&#45;&gt;n5</title>
<path fill="none" stroke="#555555" d="M802.2,-18C817.52,-18 833.9,-18 849.62,-18"/>
<polygon fill="#555555" stroke="#555555" points="849.85,-21.5 859.85,-18 849.85,-14.5 849.85,-21.5"/>
</g>
<!-- n4 -->
<g id="node5" class="node">
<title>n4</title>
<path fill="#c8e6c9" stroke="black" d="M42,-36C42,-36 12,-36 12,-36 6,-36 0,-30 0,-24 0,-24 0,-12 0,-12 0,-6 6,0 12,0 12,0 42,0 42,0 48,0 54,-6 54,-12 54,-12 54,-24 54,-24 54,-30 48,-36 42,-36"/>
<text text-anchor="middle" x="27" y="-15.2" font-family="Helvetica" font-size="11.00">Start</text>
</g>
<!-- n4&#45;&gt;n0 -->
<g id="edge4" class="edge">
<title>n4&#45;&gt;n0</title>
<path fill="none" stroke="#555555" d="M54.32,-18C67.65,-18 84.54,-18 101.32,-18"/>
<polygon fill="#555555" stroke="#555555" points="101.72,-21.5 111.72,-18 101.72,-14.5 101.72,-21.5"/>
</g>
<!-- n6 -->
<g id="node7" class="node">
<title>n6</title>
<path fill="#ffccbc" stroke="black" d="M1100,-36C1100,-36 1070,-36 1070,-36 1064,-36 1058,-30 1058,-24 1058,-24 1058,-12 1058,-12 1058,-6 1064,0 1070,0 1070,0 1100,0 1100,0 1106,0 1112,-6 1112,-12 1112,-12 1112,-24 1112,-24 1112,-30 1106,-36 1100,-36"/>
<text text-anchor="middle" x="1085" y="-15.2" font-family="Helvetica" font-size="11.00">End</text>
</g>
<!-- n5&#45;&gt;n6 -->
<g id="edge5" class="edge">
<title>n5&#45;&gt;n6</title>
<path fill="none" stroke="#555555" d="M1000.34,-18C1016.59,-18 1033.28,-18 1047.44,-18"/>
<polygon fill="#555555" stroke="#555555" points="1047.72,-21.5 1057.72,-18 1047.72,-14.5 1047.72,-21.5"/>
</g>
</g>
</svg>
