<?xml version="1.0" encoding="UTF-8" standalone="no"?>
<!DOCTYPE svg PUBLIC "-//W3C//DTD SVG 1.1//EN"
 "http://www.w3.org/Graphics/SVG/1.1/DTD/svg11.dtd">
<!-- Generated by graphviz version 2.44.0 (0)
 -->
<!-- Title: process Pages: 1 -->
<svg width="848pt" height="266pt"
 viewBox="0.00 0.00 848.00 266.00" xmlns="http://www.w3.org/2000/svg" xmlns:xlink="http://www.w3.org/1999/xlink">
<g id="graph0" class="graph" transform="scale(1 1) rotate(0) translate(36 230)">
<title>process</title>
<polygon fill="#ffffff" stroke="transparent" points="-36,36 -36,-230 812,-230 812,36 -36,36"/>
<!-- n0 -->
<g id="node1" class="node">
<title>n0</title>
<path fill="#c8e6c9" stroke="black" d="M42,-115C42,-115 12,-115 12,-115 6,-115 0,-109 0,-103 0,-103 0,-91 0,-91 0,-85 6,-79 12,-79 12,-79 42,-79 42,-79 48,-79 54,-85 54,-91 54,-91 54,-103 54,-103 54,-109 48,-115 42,-115"/>
<text text-anchor="middle" x="27" y="-94.2" font-family="Helvetica" font-size="11.00">Start</text>
</g>
<!-- n1 -->
<g id="node2" class="node">
<title>n1</title>
<path fill="#e8f4f8" stroke="black" d="M191,-115C191,-115 124,-115 124,-115 118,-115 112,-109 112,-103 112,-103 112,-91 112,-91 112,-85 118,-79 124,-79 124,-79 191,-79 191,-79 197,-79 203,-85 203,-91 203,-91 203,-103 203,-103 203,-109 197,-115 191,-115"/>
<text text-anchor="middle" x="157.5" y="-94.2" font-family="Helvetica" font-size="11.00">CSAuditStart</text>
</g>
<!-- n0&#45;&gt;n1 -->
<g id="edge1" class="edge">
<title>n0&#45;&gt;n1</title>
<path fill="none" stroke="#555555" d="M54,-97C67.73,-97 85.12,-97 101.65,-97"/>
<polygon fill="#555555" stroke="#555555" points="101.8,-100.5 111.8,-97 101.8,-93.5 101.8,-100.5"/>
</g>
<!-- n2 -->
<g id="node3" class="node">
<title>n2</title>
<path fill="#e8f4f8" stroke="black" d="M374,-115C374,-115 273,-115 273,-115 267,-115 261,-109 261,-103 261,-103 261,-91 261,-91 261,-85 267,-79 273,-79 273,-79 374,-79 374,-79 380,-79 386,-85 386,-91 386,-91 386,-103 386,-103 386,-109 380,-115 374,-115"/>
<text text-anchor="middle" x="323.5" y="-94.2" font-family="Helvetica" font-size="11.00">SOAPRequestReply</text>
</g>
<!-- n1&#45;&gt;n2 -->
<g id="edge2" class="edge">
<title>n1&#45;&gt;n2</title>
<path fill="none" stroke="#555555" d="M203.31,-97C217.86,-97 234.39,-97 250.41,-97"/>
<polygon fill="#555555" stroke="#555555" points="250.83,-100.5 260.83,-97 250.83,-93.5 250.83,-100.5"/>
</g>
<!-- n3 -->
<g id="node4" class="node">
<title>n3</title>
<path fill="#e8f4f8" stroke="black" d="M539,-194C539,-194 476,-194 476,-194 470,-194 464,-188 464,-182 464,-182 464,-170 464,-170 464,-164 470,-158 476,-158 476,-158 539,-158 539,-158 545,-158 551,-164 551,-170 551,-170 551,-182 551,-182 551,-188 545,-194 539,-194"/>
<text text-anchor="middle" x="507.5" y="-173.2" font-family="Helvetica" font-size="11.00">CSAuditEnd</text>
</g>
<!-- n2&#45;&gt;n3 -->
<g id="edge5" class="edge">
<title>n2&#45;&gt;n3</title>
<path fill="none" stroke="#555555" d="M366.25,-115.12C392.84,-126.67 427.46,-141.69 455.65,-153.93"/>
<polygon fill="#555555" stroke="#555555" points="454.37,-157.19 464.94,-157.96 457.16,-150.77 454.37,-157.19"/>
</g>
<!-- n5 -->
<g id="node6" class="node">
<title>n5</title>
<path fill="#e8f4f8" stroke="black" d="M554,-115C554,-115 461,-115 461,-115 455,-115 449,-109 449,-103 449,-103 449,-91 449,-91 449,-85 455,-79 461,-79 461,-79 554,-79 554,-79 560,-79 566,-85 566,-91 566,-91 566,-103 566,-103 566,-109 560,-115 554,-115"/>
<text text-anchor="middle" x="507.5" y="-94.2" font-family="Helvetica" font-size="11.00">MapOIMException</text>
</g>
<!-- n2&#45;&gt;n5 -->
<g id="edge6" class="edge">
<title>n2&#45;&gt;n5</title>
<path fill="none" stroke="#555555" d="M386.12,-97C403.1,-97 421.61,-97 438.91,-97"/>
<polygon fill="#555555" stroke="#555555" points="438.94,-100.5 448.94,-97 438.94,-93.5 438.94,-100.5"/>
</g>
<!-- n7 -->
<g id="node8" class="node">
<title>n7</title>
<path fill="#e8f4f8" stroke="black" d="M559,-36C559,-36 456,-36 456,-36 450,-36 444,-30 444,-24 444,-24 444,-12 444,-12 444,-6 450,0 456,0 456,0 559,0 559,0 565,0 571,-6 571,-12 571,-12 571,-24 571,-24 571,-30 565,-36 559,-36"/>
<text text-anchor="middle" x="507.5" y="-15.2" font-family="Helvetica" font-size="11.00">MapOIMException&#45;1</text>
</g>
<!-- n2&#45;&gt;n7 -->
<g id="edge7" class="edge">
<title>n2&#45;&gt;n7</title>
<path fill="none" stroke="#555555" d="M366.25,-78.88C392.84,-67.33 427.46,-52.31 455.65,-40.07"/>
<polygon fill="#555555" stroke="#555555" points="457.16,-43.23 464.94,-36.04 454.37,-36.81 457.16,-43.23"/>
</g>
<!-- n4 -->
<g id="node5" class="node">
<title>n4</title>
<path fill="#ffccbc" stroke="black" d="M717.5,-194C717.5,-194 687.5,-194 687.5,-194 681.5,-194 675.5,-188 675.5,-182 675.5,-182 675.5,-170 675.5,-170 675.5,-164 681.5,-158 687.5,-158 687.5,-158 717.5,-158 717.5,-158 723.5,-158 729.5,-164 729.5,-170 729.5,-170 729.5,-182 729.5,-182 729.5,-188 723.5,-194 717.5,-194"/>
<text text-anchor="middle" x="702.5" y="-173.2" font-family="Helvetica" font-size="11.00">End</text>
</g>
<!-- n3&#45;&gt;n4 -->
<g id="edge3" class="edge">
<title>n3&#45;&gt;n4</title>
<path fill="none" stroke="#555555" d="M551.33,-176C585.46,-176 632.71,-176 665.04,-176"/>
<polygon fill="#555555" stroke="#555555" points="665.39,-179.5 675.39,-176 665.39,-172.5 665.39,-179.5"/>
</g>
<!-- n6 -->
<g id="node7" class="node">
<title>n6</title>
<path fill="#ffcdd2" stroke="black" d="M764,-115C764,-115 641,-115 641,-115 635,-115 629,-109 629,-103 629,-103 629,-91 629,-91 629,-85 635,-79 641,-79 641,-79 764,-79 764,-79 770,-79 776,-85 776,-91 776,-91 776,-103 776,-103 776,-109 770,-115 764,-115"/>
<text text-anchor="middle" x="702.5" y="-94.2" font-family="Helvetica" font-size="11.00">Generate&#45;Error Backend</text>
</g>
<!-- n5&#45;&gt;n6 -->
<g id="edge4" class="edge">
<title>n5&#45;&gt;n6</title>
<path fill="none" stroke="#555555" d="M566.14,-97C582.58,-97 600.82,-97 618.45,-97"/>
<polygon fill="#555555" stroke="#555555" points="618.74,-100.5 628.74,-97 618.74,-93.5 618.74,-100.5"/>
</g>
<!-- n8 -->
<g id="node9" class="node">
<title>n8</title>
<path fill="#ffcdd2" stroke="black" d="M746,-36C746,-36 659,-36 659,-36 653,-36 647,-30 647,-24 647,-24 647,-12 647,-12 647,-6 653,0 659,0 659,0 746,0 746,0 752,0 758,-6 758,-12 758,-12 758,-24 758,-24 758,-30 752,-36 746,-36"/>
<text text-anchor="middle" x="702.5" y="-15.2" font-family="Helvetica" font-size="11.00">Generate&#45;Error&#45;1</text>
</g>
<!-- n7&#45;&gt;n8 -->
<g id="edge8" class="edge">
<title>n7&#45;&gt;n8</title>
<path fill="none" stroke="#555555" d="M571.16,-18C592.16,-18 615.61,-18 636.76,-18"/>
<polygon fill="#555555" stroke="#555555" points="636.94,-21.5 646.94,-18 636.94,-14.5 636.94,-21.5"/>
</g>
</g>
</svg>
