<?xml version="1.0" encoding="UTF-8" standalone="no"?>
<!DOCTYPE svg PUBLIC "-//W3C//DTD SVG 1.1//EN"
 "http://www.w3.org/Graphics/SVG/1.1/DTD/svg11.dtd">
<!-- Generated by graphviz version 2.44.0 (0)
 -->
<!-- Title: process Pages: 1 -->
<svg width="1213pt" height="413pt"
 viewBox="0.00 0.00 1213.00 413.00" xmlns="http://www.w3.org/2000/svg" xmlns:xlink="http://www.w3.org/1999/xlink">
<g id="graph0" class="graph" transform="scale(1 1) rotate(0) translate(36 377)">
<title>process</title>
<polygon fill="#ffffff" stroke="transparent" points="-36,36 -36,-377 1177,-377 1177,36 -36,36"/>
<!-- n0 -->
<g id="node1" class="node">
<title>n0</title>
<path fill="#c8e6c9" stroke="black" d="M42,-109C42,-109 12,-109 12,-109 6,-109 0,-103 0,-97 0,-97 0,-85 0,-85 0,-79 6,-73 12,-73 12,-73 42,-73 42,-73 48,-73 54,-79 54,-85 54,-85 54,-97 54,-97 54,-103 48,-109 42,-109"/>
<text text-anchor="middle" x="27" y="-88.2" font-family="Helvetica" font-size="11.00">start</text>
</g>
<!-- n1 -->
<g id="node2" class="node">
<title>n1</title>
<path fill="#e8f4f8" stroke="black" d="M205.5,-109C205.5,-109 140.5,-109 140.5,-109 134.5,-109 128.5,-103 128.5,-97 128.5,-97 128.5,-85 128.5,-85 128.5,-79 134.5,-73 140.5,-73 140.5,-73 205.5,-73 205.5,-73 211.5,-73 217.5,-79 217.5,-85 217.5,-85 217.5,-97 217.5,-97 217.5,-103 211.5,-109 205.5,-109"/>
<text text-anchor="middle" x="173" y="-88.2" font-family="Helvetica" font-size="11.00">Render XML</text>
</g>
<!-- n0&#45;&gt;n1 -->
<g id="edge1" class="edge">
<title>n0&#45;&gt;n1</title>
<path fill="none" stroke="#555555" d="M54.08,-91C71.92,-91 96.22,-91 118.12,-91"/>
<polygon fill="#555555" stroke="#555555" points="118.32,-94.5 128.32,-91 118.32,-87.5 118.32,-94.5"/>
</g>
<!-- n4 -->
<g id="node14" class="node">
<title>n4</title>
<path fill="#e8f4f8" stroke="black" d="M396.5,-188C396.5,-188 321.5,-188 321.5,-188 315.5,-188 309.5,-182 309.5,-176 309.5,-176 309.5,-164 309.5,-164 309.5,-158 315.5,-152 321.5,-152 321.5,-152 396.5,-152 396.5,-152 402.5,-152 408.5,-158 408.5,-164 408.5,-164 408.5,-176 408.5,-176 408.5,-182 402.5,-188 396.5,-188"/>
<text text-anchor="middle" x="359" y="-167.2" font-family="Helvetica" font-size="11.00">InvokeOnTopic</text>
</g>
<!-- n1&#45;&gt;n4 -->
<g id="edge3" class="edge">
<title>n1&#45;&gt;n4</title>
<path fill="none" stroke="#555555" d="M216.21,-109.12C243.09,-120.67 278.09,-135.69 306.59,-147.93"/>
<polygon fill="#555555" stroke="#555555" points="305.41,-151.23 315.98,-151.96 308.18,-144.8 305.41,-151.23"/>
</g>
<!-- n5 -->
<g id="node15" class="node">
<title>n5</title>
<path fill="#ffcdd2" stroke="black" d="M414,-109C414,-109 304,-109 304,-109 298,-109 292,-103 292,-97 292,-97 292,-85 292,-85 292,-79 298,-73 304,-73 304,-73 414,-73 414,-73 420,-73 426,-79 426,-85 426,-85 426,-97 426,-97 426,-103 420,-109 414,-109"/>
<text text-anchor="middle" x="359" y="-88.2" font-family="Helvetica" font-size="11.00">Render Request Error</text>
</g>
<!-- n1&#45;&gt;n5 -->
<g id="edge4" class="edge">
<title>n1&#45;&gt;n5</title>
<path fill="none" stroke="#555555" d="M217.61,-91C236.69,-91 259.65,-91 281.43,-91"/>
<polygon fill="#555555" stroke="#555555" points="281.67,-94.5 291.67,-91 281.67,-87.5 281.67,-94.5"/>
</g>
<!-- n7 -->
<g id="node17" class="node">
<title>n7</title>
<path fill="#e8f4f8" stroke="black" d="M574.5,-36C574.5,-36 497.5,-36 497.5,-36 491.5,-36 485.5,-30 485.5,-24 485.5,-24 485.5,-12 485.5,-12 485.5,-6 491.5,0 497.5,0 497.5,0 574.5,0 574.5,0 580.5,0 586.5,-6 586.5,-12 586.5,-12 586.5,-24 586.5,-24 586.5,-30 580.5,-36 574.5,-36"/>
<text text-anchor="middle" x="536" y="-15.2" font-family="Helvetica" font-size="11.00">PublishToTopic</text>
</g>
<!-- n1&#45;&gt;n7 -->
<g id="edge6" class="edge">
<title>n1&#45;&gt;n7</title>
<path fill="none" stroke="#555555" d="M217.68,-73.96C239.68,-65.95 266.94,-56.89 292,-51 353.52,-36.54 425.4,-27.75 474.94,-22.92"/>
<polygon fill="#555555" stroke="#555555" points="475.53,-26.38 485.16,-21.95 474.87,-19.41 475.53,-26.38"/>
</g>
<!-- n10 -->
<g id="node3" class="node">
<title>n10</title>
<path fill="#e8f4f8" stroke="black" d="M763,-177C763,-177 658,-177 658,-177 652,-177 646,-171 646,-165 646,-165 646,-153 646,-153 646,-147 652,-141 658,-141 658,-141 763,-141 763,-141 769,-141 775,-147 775,-153 775,-153 775,-165 775,-165 775,-171 769,-177 763,-177"/>
<text text-anchor="middle" x="710.5" y="-156.2" font-family="Helvetica" font-size="11.00">WriteToLog&#45;Failure&#45;1</text>
</g>
<!-- n8 -->
<g id="node18" class="node">
<title>n8</title>
<path fill="#e8f4f8" stroke="black" d="M945.5,-177C945.5,-177 859.5,-177 859.5,-177 853.5,-177 847.5,-171 847.5,-165 847.5,-165 847.5,-153 847.5,-153 847.5,-147 853.5,-141 859.5,-141 859.5,-141 945.5,-141 945.5,-141 951.5,-141 957.5,-147 957.5,-153 957.5,-153 957.5,-165 957.5,-165 957.5,-171 951.5,-177 945.5,-177"/>
<text text-anchor="middle" x="902.5" y="-156.2" font-family="Helvetica" font-size="11.00">MapResultStatus</text>
</g>
<!-- n10&#45;&gt;n8 -->
<g id="edge9" class="edge">
<title>n10&#45;&gt;n8</title>
<path fill="none" stroke="#555555" d="M775.03,-159C794.97,-159 816.99,-159 836.99,-159"/>
<polygon fill="#555555" stroke="#555555" points="837.24,-162.5 847.24,-159 837.24,-155.5 837.24,-162.5"/>
</g>
<!-- n11 -->
<g id="node4" class="node">
<title>n11</title>
<path fill="#c8e6c9" stroke="black" d="M42,-267C42,-267 12,-267 12,-267 6,-267 0,-261 0,-255 0,-255 0,-243 0,-243 0,-237 6,-231 12,-231 12,-231 42,-231 42,-231 48,-231 54,-237 54,-243 54,-243 54,-255 54,-255 54,-261 48,-267 42,-267"/>
<text text-anchor="middle" x="27" y="-246.2" font-family="Helvetica" font-size="11.00">Start</text>
</g>
<!-- n12 -->
<g id="node5" class="node">
<title>n12</title>
<path fill="#e8f4f8" stroke="black" d="M222,-267C222,-267 124,-267 124,-267 118,-267 112,-261 112,-255 112,-255 112,-243 112,-243 112,-237 118,-231 124,-231 124,-231 222,-231 222,-231 228,-231 234,-237 234,-243 234,-243 234,-255 234,-255 234,-261 228,-267 222,-267"/>
<text text-anchor="middle" x="173" y="-246.2" font-family="Helvetica" font-size="11.00">Prep ErrorHandling</text>
</g>
<!-- n11&#45;&gt;n12 -->
<g id="edge12" class="edge">
<title>n11&#45;&gt;n12</title>
<path fill="none" stroke="#555555" d="M54.08,-249C67.43,-249 84.41,-249 101.29,-249"/>
<polygon fill="#555555" stroke="#555555" points="101.75,-252.5 111.75,-249 101.75,-245.5 101.75,-252.5"/>
</g>
<!-- n13 -->
<g id="node6" class="node">
<title>n13</title>
<path fill="#e8f4f8" stroke="black" d="M388.5,-267C388.5,-267 329.5,-267 329.5,-267 323.5,-267 317.5,-261 317.5,-255 317.5,-255 317.5,-243 317.5,-243 317.5,-237 323.5,-231 329.5,-231 329.5,-231 388.5,-231 388.5,-231 394.5,-231 400.5,-237 400.5,-243 400.5,-243 400.5,-255 400.5,-255 400.5,-261 394.5,-267 388.5,-267"/>
<text text-anchor="middle" x="359" y="-246.2" font-family="Helvetica" font-size="11.00">WriteToLog</text>
</g>
<!-- n12&#45;&gt;n13 -->
<g id="edge13" class="edge">
<title>n12&#45;&gt;n13</title>
<path fill="none" stroke="#555555" d="M234.25,-249C257.88,-249 284.7,-249 307.31,-249"/>
<polygon fill="#555555" stroke="#555555" points="307.38,-252.5 317.38,-249 307.38,-245.5 307.38,-252.5"/>
</g>
<!-- n14 -->
<g id="node7" class="node">
<title>n14</title>
<path fill="#ffcdd2" stroke="black" d="M567,-267C567,-267 505,-267 505,-267 499,-267 493,-261 493,-255 493,-255 493,-243 493,-243 493,-237 499,-231 505,-231 505,-231 567,-231 567,-231 573,-231 579,-237 579,-243 579,-243 579,-255 579,-255 579,-261 573,-267 567,-267"/>
<text text-anchor="middle" x="536" y="-246.2" font-family="Helvetica" font-size="11.00">Error Group</text>
</g>
<!-- n13&#45;&gt;n14 -->
<g id="edge15" class="edge">
<title>n13&#45;&gt;n14</title>
<path fill="none" stroke="#555555" d="M400.59,-249C425.01,-249 456.36,-249 482.64,-249"/>
<polygon fill="#555555" stroke="#555555" points="482.8,-252.5 492.8,-249 482.8,-245.5 482.8,-252.5"/>
</g>
<!-- n15 -->
<g id="node8" class="node">
<title>n15</title>
<path fill="#ffccbc" stroke="black" d="M725.5,-341C725.5,-341 695.5,-341 695.5,-341 689.5,-341 683.5,-335 683.5,-329 683.5,-329 683.5,-317 683.5,-317 683.5,-311 689.5,-305 695.5,-305 695.5,-305 725.5,-305 725.5,-305 731.5,-305 737.5,-311 737.5,-317 737.5,-317 737.5,-329 737.5,-329 737.5,-335 731.5,-341 725.5,-341"/>
<text text-anchor="middle" x="710.5" y="-320.2" font-family="Helvetica" font-size="11.00">End</text>
</g>
<!-- n14&#45;&gt;n15 -->
<g id="edge14" class="edge">
<title>n14&#45;&gt;n15</title>
<path fill="none" stroke="#555555" d="M579.2,-267.1C608.29,-279.58 646.51,-295.98 674.03,-307.78"/>
<polygon fill="#555555" stroke="#555555" points="672.71,-311.03 683.28,-311.75 675.47,-304.59 672.71,-311.03"/>
</g>
<!-- n16 -->
<g id="node9" class="node">
<title>n16</title>
<path fill="#e8f4f8" stroke="black" d="M761,-262C761,-262 660,-262 660,-262 654,-262 648,-256 648,-250 648,-250 648,-238 648,-238 648,-232 654,-226 660,-226 660,-226 761,-226 761,-226 767,-226 773,-232 773,-238 773,-238 773,-250 773,-250 773,-256 767,-262 761,-262"/>
<text text-anchor="middle" x="710.5" y="-241.2" font-family="Helvetica" font-size="11.00">MapAnyException&#45;1</text>
</g>
<!-- n14&#45;&gt;n16 -->
<g id="edge16" class="edge">
<title>n14&#45;&gt;n16</title>
<path fill="none" stroke="#555555" d="M579.2,-247.78C596.86,-247.26 617.89,-246.66 637.85,-246.08"/>
<polygon fill="#555555" stroke="#555555" points="637.96,-249.58 647.85,-245.79 637.76,-242.58 637.96,-249.58"/>
</g>
<!-- n17 -->
<g id="node10" class="node">
<title>n17</title>
<path fill="#e8f4f8" stroke="black" d="M960,-262C960,-262 845,-262 845,-262 839,-262 833,-256 833,-250 833,-250 833,-238 833,-238 833,-232 839,-226 845,-226 845,-226 960,-226 960,-226 966,-226 972,-232 972,-238 972,-238 972,-250 972,-250 972,-256 966,-262 960,-262"/>
<text text-anchor="middle" x="902.5" y="-241.2" font-family="Helvetica" font-size="11.00">WriteToLog&#45;Failure&#45;2&#45;1</text>
</g>
<!-- n16&#45;&gt;n17 -->
<g id="edge17" class="edge">
<title>n16&#45;&gt;n17</title>
<path fill="none" stroke="#555555" d="M773.19,-244C788.98,-244 806.18,-244 822.71,-244"/>
<polygon fill="#555555" stroke="#555555" points="822.89,-247.5 832.89,-244 822.89,-240.5 822.89,-247.5"/>
</g>
<!-- n18 -->
<g id="node11" class="node">
<title>n18</title>
<path fill="#ffcdd2" stroke="black" d="M1129,-262C1129,-262 1042,-262 1042,-262 1036,-262 1030,-256 1030,-250 1030,-250 1030,-238 1030,-238 1030,-232 1036,-226 1042,-226 1042,-226 1129,-226 1129,-226 1135,-226 1141,-232 1141,-238 1141,-238 1141,-250 1141,-250 1141,-256 1135,-262 1129,-262"/>
<text text-anchor="middle" x="1085.5" y="-241.2" font-family="Helvetica" font-size="11.00">Generate&#45;Error&#45;1</text>
</g>
<!-- n17&#45;&gt;n18 -->
<g id="edge18" class="edge">
<title>n17&#45;&gt;n18</title>
<path fill="none" stroke="#555555" d="M972.19,-244C987.71,-244 1004.14,-244 1019.5,-244"/>
<polygon fill="#555555" stroke="#555555" points="1019.94,-247.5 1029.94,-244 1019.94,-240.5 1019.94,-247.5"/>
</g>
<!-- n2 -->
<g id="node12" class="node">
<title>n2</title>
<path fill="#e8f4f8" stroke="black" d="M762.5,-57C762.5,-57 658.5,-57 658.5,-57 652.5,-57 646.5,-51 646.5,-45 646.5,-45 646.5,-33 646.5,-33 646.5,-27 652.5,-21 658.5,-21 658.5,-21 762.5,-21 762.5,-21 768.5,-21 774.5,-27 774.5,-33 774.5,-33 774.5,-45 774.5,-45 774.5,-51 768.5,-57 762.5,-57"/>
<text text-anchor="middle" x="710.5" y="-36.2" font-family="Helvetica" font-size="11.00">WriteToLog&#45;Success</text>
</g>
<!-- n3 -->
<g id="node13" class="node">
<title>n3</title>
<path fill="#ffccbc" stroke="black" d="M917.5,-57C917.5,-57 887.5,-57 887.5,-57 881.5,-57 875.5,-51 875.5,-45 875.5,-45 875.5,-33 875.5,-33 875.5,-27 881.5,-21 887.5,-21 887.5,-21 917.5,-21 917.5,-21 923.5,-21 929.5,-27 929.5,-33 929.5,-33 929.5,-45 929.5,-45 929.5,-51 923.5,-57 917.5,-57"/>
<text text-anchor="middle" x="902.5" y="-36.2" font-family="Helvetica" font-size="11.00">end</text>
</g>
<!-- n2&#45;&gt;n3 -->
<g id="edge2" class="edge">
<title>n2&#45;&gt;n3</title>
<path fill="none" stroke="#555555" d="M774.5,-39C804.69,-39 839.77,-39 865.4,-39"/>
<polygon fill="#555555" stroke="#555555" points="865.41,-42.5 875.41,-39 865.41,-35.5 865.41,-42.5"/>
</g>
<!-- n6 -->
<g id="node16" class="node">
<title>n6</title>
<path fill="#e8f4f8" stroke="black" d="M576,-177C576,-177 496,-177 496,-177 490,-177 484,-171 484,-165 484,-165 484,-153 484,-153 484,-147 490,-141 496,-141 496,-141 576,-141 576,-141 582,-141 588,-147 588,-153 588,-153 588,-165 588,-165 588,-171 582,-177 576,-177"/>
<text text-anchor="middle" x="536" y="-156.2" font-family="Helvetica" font-size="11.00">ParseResponse</text>
</g>
<!-- n4&#45;&gt;n6 -->
<g id="edge5" class="edge">
<title>n4&#45;&gt;n6</title>
<path fill="none" stroke="#555555" d="M408.75,-166.94C428.82,-165.67 452.31,-164.2 473.55,-162.86"/>
<polygon fill="#555555" stroke="#555555" points="474.01,-166.34 483.77,-162.22 473.57,-159.35 474.01,-166.34"/>
</g>
<!-- n6&#45;&gt;n10 -->
<g id="edge10" class="edge">
<title>n6&#45;&gt;n10</title>
<path fill="none" stroke="#555555" d="M588.29,-159C603.12,-159 619.6,-159 635.52,-159"/>
<polygon fill="#555555" stroke="#555555" points="635.87,-162.5 645.87,-159 635.87,-155.5 635.87,-162.5"/>
</g>
<!-- n6&#45;&gt;n2 -->
<g id="edge11" class="edge">
<title>n6&#45;&gt;n2</title>
<path fill="none" stroke="#555555" d="M563.2,-140.77C593.13,-119.95 642.23,-85.8 675.19,-62.86"/>
<polygon fill="#555555" stroke="#555555" points="677.41,-65.59 683.62,-57 673.41,-59.84 677.41,-65.59"/>
</g>
<!-- n7&#45;&gt;n2 -->
<g id="edge7" class="edge">
<title>n7&#45;&gt;n2</title>
<path fill="none" stroke="#555555" d="M586.89,-24.07C602.22,-25.94 619.42,-28.03 635.98,-30.05"/>
<polygon fill="#555555" stroke="#555555" points="635.84,-33.56 646.19,-31.29 636.69,-26.61 635.84,-33.56"/>
</g>
<!-- n9 -->
<g id="node19" class="node">
<title>n9</title>
<path fill="#ffcdd2" stroke="black" d="M1124,-177C1124,-177 1047,-177 1047,-177 1041,-177 1035,-171 1035,-165 1035,-165 1035,-153 1035,-153 1035,-147 1041,-141 1047,-141 1047,-141 1124,-141 1124,-141 1130,-141 1136,-147 1136,-153 1136,-153 1136,-165 1136,-165 1136,-171 1130,-177 1124,-177"/>
<text text-anchor="middle" x="1085.5" y="-156.2" font-family="Helvetica" font-size="11.00">Generate Error</text>
</g>
<!-- n8&#45;&gt;n9 -->
<g id="edge8" class="edge">
<title>n8&#45;&gt;n9</title>
<path fill="none" stroke="#555555" d="M957.81,-159C978.93,-159 1003.21,-159 1024.82,-159"/>
<polygon fill="#555555" stroke="#555555" points="1024.86,-162.5 1034.86,-159 1024.86,-155.5 1024.86,-162.5"/>
</g>
</g>
</svg>
