<?xml version="1.0" encoding="UTF-8" standalone="no"?>
<!DOCTYPE svg PUBLIC "-//W3C//DTD SVG 1.1//EN"
 "http://www.w3.org/Graphics/SVG/1.1/DTD/svg11.dtd">
<!-- Generated by graphviz version 2.44.0 (0)
 -->
<!-- Title: process Pages: 1 -->
<svg width="1164pt" height="274pt"
 viewBox="0.00 0.00 1164.00 274.00" xmlns="http://www.w3.org/2000/svg" xmlns:xlink="http://www.w3.org/1999/xlink">
<g id="graph0" class="graph" transform="scale(1 1) rotate(0) translate(36 238)">
<title>process</title>
<polygon fill="#ffffff" stroke="transparent" points="-36,36 -36,-238 1128,-238 1128,36 -36,36"/>
<!-- n0 -->
<g id="node1" class="node">
<title>n0</title>
<path fill="#e8f4f8" stroke="black" d="M255,-161C255,-161 124,-161 124,-161 118,-161 112,-155 112,-149 112,-149 112,-137 112,-137 112,-131 118,-125 124,-125 124,-125 255,-125 255,-125 261,-125 267,-131 267,-137 267,-137 267,-149 267,-149 267,-155 261,-161 255,-161"/>
<text text-anchor="middle" x="189.5" y="-140.2" font-family="Helvetica" font-size="11.00">WriteToLog&#45;OAG&#45;Request</text>
</g>
<!-- n1 -->
<g id="node2" class="node">
<title>n1</title>
<path fill="#e8f4f8" stroke="black" d="M404,-119C404,-119 337,-119 337,-119 331,-119 325,-113 325,-107 325,-107 325,-95 325,-95 325,-89 331,-83 337,-83 337,-83 404,-83 404,-83 410,-83 416,-89 416,-95 416,-95 416,-107 416,-107 416,-113 410,-119 404,-119"/>
<text text-anchor="middle" x="370.5" y="-98.2" font-family="Helvetica" font-size="11.00">CSAuditStart</text>
</g>
<!-- n0&#45;&gt;n1 -->
<g id="edge1" class="edge">
<title>n0&#45;&gt;n1</title>
<path fill="none" stroke="#555555" d="M267.19,-125.01C283.15,-121.26 299.66,-117.39 314.65,-113.87"/>
<polygon fill="#555555" stroke="#555555" points="315.81,-117.19 324.75,-111.5 314.21,-110.38 315.81,-117.19"/>
</g>
<!-- n8 -->
<g id="node9" class="node">
<title>n8</title>
<path fill="#e8f4f8" stroke="black" d="M590,-119C590,-119 486,-119 486,-119 480,-119 474,-113 474,-107 474,-107 474,-95 474,-95 474,-89 480,-83 486,-83 486,-83 590,-83 590,-83 596,-83 602,-89 602,-95 602,-95 602,-107 602,-107 602,-113 596,-119 590,-119"/>
<text text-anchor="middle" x="538" y="-98.2" font-family="Helvetica" font-size="11.00">Send HTTP Request</text>
</g>
<!-- n1&#45;&gt;n8 -->
<g id="edge7" class="edge">
<title>n1&#45;&gt;n8</title>
<path fill="none" stroke="#555555" d="M416.29,-101C430.81,-101 447.34,-101 463.39,-101"/>
<polygon fill="#555555" stroke="#555555" points="463.85,-104.5 473.85,-101 463.85,-97.5 463.85,-104.5"/>
</g>
<!-- n2 -->
<g id="node3" class="node">
<title>n2</title>
<path fill="#ffccbc" stroke="black" d="M809,-202C809,-202 672,-202 672,-202 666,-202 660,-196 660,-190 660,-190 660,-178 660,-178 660,-172 666,-166 672,-166 672,-166 809,-166 809,-166 815,-166 821,-172 821,-178 821,-178 821,-190 821,-190 821,-196 815,-202 809,-202"/>
<text text-anchor="middle" x="740.5" y="-181.2" font-family="Helvetica" font-size="11.00">WriteToLog&#45;OAG Response</text>
</g>
<!-- n3 -->
<g id="node4" class="node">
<title>n3</title>
<path fill="#e8f4f8" stroke="black" d="M961,-160C961,-160 898,-160 898,-160 892,-160 886,-154 886,-148 886,-148 886,-136 886,-136 886,-130 892,-124 898,-124 898,-124 961,-124 961,-124 967,-124 973,-130 973,-136 973,-136 973,-148 973,-148 973,-154 967,-160 961,-160"/>
<text text-anchor="middle" x="929.5" y="-139.2" font-family="Helvetica" font-size="11.00">CSAuditEnd</text>
</g>
<!-- n2&#45;&gt;n3 -->
<g id="edge2" class="edge">
<title>n2&#45;&gt;n3</title>
<path fill="none" stroke="#555555" d="M821.08,-166.13C839.69,-161.95 859.06,-157.6 876.14,-153.76"/>
<polygon fill="#555555" stroke="#555555" points="876.92,-157.17 885.91,-151.57 875.38,-150.34 876.92,-157.17"/>
</g>
<!-- n7 -->
<g id="node8" class="node">
<title>n7</title>
<path fill="#ffccbc" stroke="black" d="M1080,-160C1080,-160 1050,-160 1050,-160 1044,-160 1038,-154 1038,-148 1038,-148 1038,-136 1038,-136 1038,-130 1044,-124 1050,-124 1050,-124 1080,-124 1080,-124 1086,-124 1092,-130 1092,-136 1092,-136 1092,-148 1092,-148 1092,-154 1086,-160 1080,-160"/>
<text text-anchor="middle" x="1065" y="-139.2" font-family="Helvetica" font-size="11.00">End</text>
</g>
<!-- n3&#45;&gt;n7 -->
<g id="edge6" class="edge">
<title>n3&#45;&gt;n7</title>
<path fill="none" stroke="#555555" d="M973.11,-142C990.67,-142 1010.82,-142 1027.67,-142"/>
<polygon fill="#555555" stroke="#555555" points="1027.69,-145.5 1037.69,-142 1027.69,-138.5 1027.69,-145.5"/>
</g>
<!-- n4 -->
<g id="node5" class="node">
<title>n4</title>
<path fill="#e8f4f8" stroke="black" d="M786.5,-36C786.5,-36 694.5,-36 694.5,-36 688.5,-36 682.5,-30 682.5,-24 682.5,-24 682.5,-12 682.5,-12 682.5,-6 688.5,0 694.5,0 694.5,0 786.5,0 786.5,0 792.5,0 798.5,-6 798.5,-12 798.5,-12 798.5,-24 798.5,-24 798.5,-30 792.5,-36 786.5,-36"/>
<text text-anchor="middle" x="740.5" y="-15.2" font-family="Helvetica" font-size="11.00">MapAnyException</text>
</g>
<!-- n5 -->
<g id="node6" class="node">
<title>n5</title>
<path fill="#ffcdd2" stroke="black" d="M968,-36C968,-36 891,-36 891,-36 885,-36 879,-30 879,-24 879,-24 879,-12 879,-12 879,-6 885,0 891,0 891,0 968,0 968,0 974,0 980,-6 980,-12 980,-12 980,-24 980,-24 980,-30 974,-36 968,-36"/>
<text text-anchor="middle" x="929.5" y="-15.2" font-family="Helvetica" font-size="11.00">Generate Error</text>
</g>
<!-- n4&#45;&gt;n5 -->
<g id="edge3" class="edge">
<title>n4&#45;&gt;n5</title>
<path fill="none" stroke="#555555" d="M798.62,-18C820.88,-18 846.4,-18 868.9,-18"/>
<polygon fill="#555555" stroke="#555555" points="869,-21.5 879,-18 869,-14.5 869,-21.5"/>
</g>
<!-- n6 -->
<g id="node7" class="node">
<title>n6</title>
<path fill="#c8e6c9" stroke="black" d="M42,-119C42,-119 12,-119 12,-119 6,-119 0,-113 0,-107 0,-107 0,-95 0,-95 0,-89 6,-83 12,-83 12,-83 42,-83 42,-83 48,-83 54,-89 54,-95 54,-95 54,-107 54,-107 54,-113 48,-119 42,-119"/>
<text text-anchor="middle" x="27" y="-98.2" font-family="Helvetica" font-size="11.00">Start</text>
</g>
<!-- n6&#45;&gt;n0 -->
<g id="edge4" class="edge">
<title>n6&#45;&gt;n0</title>
<path fill="none" stroke="#555555" d="M54.14,-107.84C69.41,-111.84 89.57,-117.11 109.61,-122.36"/>
<polygon fill="#555555" stroke="#555555" points="108.86,-125.78 119.42,-124.92 110.63,-119.01 108.86,-125.78"/>
</g>
<!-- n6&#45;&gt;n1 -->
<g id="edge5" class="edge">
<title>n6&#45;&gt;n1</title>
<path fill="none" stroke="#555555" d="M54.23,-101C109.8,-101 240.36,-101 314.87,-101"/>
<polygon fill="#555555" stroke="#555555" points="315,-104.5 325,-101 315,-97.5 315,-104.5"/>
</g>
<!-- n8&#45;&gt;n2 -->
<g id="edge9" class="edge">
<title>n8&#45;&gt;n2</title>
<path fill="none" stroke="#555555" d="M582.51,-119.01C613.01,-131.64 653.97,-148.59 686.4,-162.02"/>
<polygon fill="#555555" stroke="#555555" points="685.16,-165.29 695.73,-165.88 687.83,-158.82 685.16,-165.29"/>
</g>
<!-- n8&#45;&gt;n3 -->
<g id="edge8" class="edge">
<title>n8&#45;&gt;n3</title>
<path fill="none" stroke="#555555" d="M602.01,-107.63C678.04,-115.64 804.51,-128.95 875.67,-136.44"/>
<polygon fill="#555555" stroke="#555555" points="875.44,-139.93 885.75,-137.5 876.17,-132.97 875.44,-139.93"/>
</g>
<!-- n8&#45;&gt;n4 -->
<g id="edge10" class="edge">
<title>n8&#45;&gt;n4</title>
<path fill="none" stroke="#555555" d="M582.51,-82.99C613.01,-70.36 653.97,-53.41 686.4,-39.98"/>
<polygon fill="#555555" stroke="#555555" points="687.83,-43.18 695.73,-36.12 685.16,-36.71 687.83,-43.18"/>
</g>
</g>
</svg>
