<?xml version="1.0" encoding="UTF-8" standalone="no"?>
<!DOCTYPE svg PUBLIC "-//W3C//DTD SVG 1.1//EN"
 "http://www.w3.org/Graphics/SVG/1.1/DTD/svg11.dtd">
<!-- Generated by graphviz version 2.44.0 (0)
 -->
<!-- Title: process Pages: 1 -->
<svg width="1653pt" height="274pt"
 viewBox="0.00 0.00 1653.00 274.00" xmlns="http://www.w3.org/2000/svg" xmlns:xlink="http://www.w3.org/1999/xlink">
<g id="graph0" class="graph" transform="scale(1 1) rotate(0) translate(36 238)">
<title>process</title>
<polygon fill="#ffffff" stroke="transparent" points="-36,36 -36,-238 1617,-238 1617,36 -36,36"/>
<!-- n0 -->
<g id="node1" class="node">
<title>n0</title>
<path fill="#c8e6c9" stroke="black" d="M42,-36C42,-36 12,-36 12,-36 6,-36 0,-30 0,-24 0,-24 0,-12 0,-12 0,-6 6,0 12,0 12,0 42,0 42,0 48,0 54,-6 54,-12 54,-12 54,-24 54,-24 54,-30 48,-36 42,-36"/>
<text text-anchor="middle" x="27" y="-15.2" font-family="Helvetica" font-size="11.00">start</text>
</g>
<!-- n1 -->
<g id="node2" class="node">
<title>n1</title>
<path fill="#c8e6c9" stroke="black" d="M201,-36C201,-36 124,-36 124,-36 118,-36 112,-30 112,-24 112,-24 112,-12 112,-12 112,-6 118,0 124,0 124,0 201,0 201,0 207,0 213,-6 213,-12 213,-12 213,-24 213,-24 213,-30 207,-36 201,-36"/>
<text text-anchor="middle" x="162.5" y="-15.2" font-family="Helvetica" font-size="11.00">Start Log Audit</text>
</g>
<!-- n0&#45;&gt;n1 -->
<g id="edge1" class="edge">
<title>n0&#45;&gt;n1</title>
<path fill="none" stroke="#555555" d="M54.06,-18C67.69,-18 84.99,-18 101.7,-18"/>
<polygon fill="#555555" stroke="#555555" points="102,-21.5 112,-18 102,-14.5 102,-21.5"/>
</g>
<!-- n8 -->
<g id="node16" class="node">
<title>n8</title>
<path fill="#e8f4f8" stroke="black" d="M395,-36C395,-36 283,-36 283,-36 277,-36 271,-30 271,-24 271,-24 271,-12 271,-12 271,-6 277,0 283,0 283,0 395,0 395,0 401,0 407,-6 407,-12 407,-12 407,-24 407,-24 407,-30 401,-36 395,-36"/>
<text text-anchor="middle" x="339" y="-15.2" font-family="Helvetica" font-size="11.00">SystemExceptionFilter</text>
</g>
<!-- n1&#45;&gt;n8 -->
<g id="edge5" class="edge">
<title>n1&#45;&gt;n8</title>
<path fill="none" stroke="#555555" d="M213.04,-18C227.89,-18 244.55,-18 260.74,-18"/>
<polygon fill="#555555" stroke="#555555" points="260.74,-21.5 270.74,-18 260.74,-14.5 260.74,-21.5"/>
</g>
<!-- n10 -->
<g id="node3" class="node">
<title>n10</title>
<path fill="#ffcdd2" stroke="black" d="M764,-202C764,-202 687,-202 687,-202 681,-202 675,-196 675,-190 675,-190 675,-178 675,-178 675,-172 681,-166 687,-166 687,-166 764,-166 764,-166 770,-166 776,-172 776,-178 776,-178 776,-190 776,-190 776,-196 770,-202 764,-202"/>
<text text-anchor="middle" x="725.5" y="-181.2" font-family="Helvetica" font-size="11.00">Log Fatal Error</text>
</g>
<!-- n11 -->
<g id="node4" class="node">
<title>n11</title>
<path fill="#ffcdd2" stroke="black" d="M938,-202C938,-202 852,-202 852,-202 846,-202 840,-196 840,-190 840,-190 840,-178 840,-178 840,-172 846,-166 852,-166 852,-166 938,-166 938,-166 944,-166 950,-172 950,-178 950,-178 950,-190 950,-190 950,-196 944,-202 938,-202"/>
<text text-anchor="middle" x="895" y="-181.2" font-family="Helvetica" font-size="11.00">Map Error Result</text>
</g>
<!-- n10&#45;&gt;n11 -->
<g id="edge10" class="edge">
<title>n10&#45;&gt;n11</title>
<path fill="none" stroke="#555555" d="M776.3,-184C792.99,-184 811.84,-184 829.49,-184"/>
<polygon fill="#555555" stroke="#555555" points="829.71,-187.5 839.71,-184 829.71,-180.5 829.71,-187.5"/>
</g>
<!-- n12 -->
<g id="node5" class="node">
<title>n12</title>
<path fill="#ffccbc" stroke="black" d="M1078,-160C1078,-160 1048,-160 1048,-160 1042,-160 1036,-154 1036,-148 1036,-148 1036,-136 1036,-136 1036,-130 1042,-124 1048,-124 1048,-124 1078,-124 1078,-124 1084,-124 1090,-130 1090,-136 1090,-136 1090,-148 1090,-148 1090,-154 1084,-160 1078,-160"/>
<text text-anchor="middle" x="1063" y="-139.2" font-family="Helvetica" font-size="11.00">End</text>
</g>
<!-- n11&#45;&gt;n12 -->
<g id="edge11" class="edge">
<title>n11&#45;&gt;n12</title>
<path fill="none" stroke="#555555" d="M950.35,-170.25C975.17,-163.97 1003.88,-156.71 1025.97,-151.12"/>
<polygon fill="#555555" stroke="#555555" points="1027.09,-154.44 1035.93,-148.6 1025.37,-147.66 1027.09,-154.44"/>
</g>
<!-- n13 -->
<g id="node6" class="node">
<title>n13</title>
<path fill="#ffcdd2" stroke="black" d="M605,-160C605,-160 477,-160 477,-160 471,-160 465,-154 465,-148 465,-148 465,-136 465,-136 465,-130 471,-124 477,-124 477,-124 605,-124 605,-124 611,-124 617,-130 617,-136 617,-136 617,-148 617,-148 617,-154 611,-160 605,-160"/>
<text text-anchor="middle" x="541" y="-139.2" font-family="Helvetica" font-size="11.00">Handle System Exception</text>
</g>
<!-- n13&#45;&gt;n10 -->
<g id="edge14" class="edge">
<title>n13&#45;&gt;n10</title>
<path fill="none" stroke="#555555" d="M617.02,-159.26C632.99,-162.94 649.64,-166.77 664.94,-170.29"/>
<polygon fill="#555555" stroke="#555555" points="664.24,-173.72 674.77,-172.56 665.81,-166.9 664.24,-173.72"/>
</g>
<!-- n13&#45;&gt;n12 -->
<g id="edge12" class="edge">
<title>n13&#45;&gt;n12</title>
<path fill="none" stroke="#555555" d="M617.06,-142C730.48,-142 941.24,-142 1025.66,-142"/>
<polygon fill="#555555" stroke="#555555" points="1025.78,-145.5 1035.78,-142 1025.78,-138.5 1025.78,-145.5"/>
</g>
<!-- n14 -->
<g id="node7" class="node">
<title>n14</title>
<path fill="#c8e6c9" stroke="black" d="M42,-160C42,-160 12,-160 12,-160 6,-160 0,-154 0,-148 0,-148 0,-136 0,-136 0,-130 6,-124 12,-124 12,-124 42,-124 42,-124 48,-124 54,-130 54,-136 54,-136 54,-148 54,-148 54,-154 48,-160 42,-160"/>
<text text-anchor="middle" x="27" y="-139.2" font-family="Helvetica" font-size="11.00">Start</text>
</g>
<!-- n15 -->
<g id="node8" class="node">
<title>n15</title>
<path fill="#e8f4f8" stroke="black" d="M199.5,-160C199.5,-160 125.5,-160 125.5,-160 119.5,-160 113.5,-154 113.5,-148 113.5,-148 113.5,-136 113.5,-136 113.5,-130 119.5,-124 125.5,-124 125.5,-124 199.5,-124 199.5,-124 205.5,-124 211.5,-130 211.5,-136 211.5,-136 211.5,-148 211.5,-148 211.5,-154 205.5,-160 199.5,-160"/>
<text text-anchor="middle" x="162.5" y="-139.2" font-family="Helvetica" font-size="11.00">Prep Log Data</text>
</g>
<!-- n14&#45;&gt;n15 -->
<g id="edge13" class="edge">
<title>n14&#45;&gt;n15</title>
<path fill="none" stroke="#555555" d="M54.06,-142C68.14,-142 86.13,-142 103.34,-142"/>
<polygon fill="#555555" stroke="#555555" points="103.35,-145.5 113.35,-142 103.35,-138.5 103.35,-145.5"/>
</g>
<!-- n16 -->
<g id="node9" class="node">
<title>n16</title>
<path fill="#e8f4f8" stroke="black" d="M383,-160C383,-160 295,-160 295,-160 289,-160 283,-154 283,-148 283,-148 283,-136 283,-136 283,-130 289,-124 295,-124 295,-124 383,-124 383,-124 389,-124 395,-130 395,-136 395,-136 395,-148 395,-148 395,-154 389,-160 383,-160"/>
<text text-anchor="middle" x="339" y="-139.2" font-family="Helvetica" font-size="11.00">Prep Log Header</text>
</g>
<!-- n15&#45;&gt;n16 -->
<g id="edge15" class="edge">
<title>n15&#45;&gt;n16</title>
<path fill="none" stroke="#555555" d="M211.64,-142C230.54,-142 252.53,-142 272.81,-142"/>
<polygon fill="#555555" stroke="#555555" points="272.93,-145.5 282.93,-142 272.93,-138.5 272.93,-145.5"/>
</g>
<!-- n16&#45;&gt;n13 -->
<g id="edge16" class="edge">
<title>n16&#45;&gt;n13</title>
<path fill="none" stroke="#555555" d="M395.18,-142C413.58,-142 434.53,-142 454.67,-142"/>
<polygon fill="#555555" stroke="#555555" points="454.79,-145.5 464.79,-142 454.79,-138.5 454.79,-145.5"/>
</g>
<!-- n2 -->
<g id="node10" class="node">
<title>n2</title>
<path fill="#ffccbc" stroke="black" d="M1457,-36C1457,-36 1384,-36 1384,-36 1378,-36 1372,-30 1372,-24 1372,-24 1372,-12 1372,-12 1372,-6 1378,0 1384,0 1384,0 1457,0 1457,0 1463,0 1469,-6 1469,-12 1469,-12 1469,-24 1469,-24 1469,-30 1463,-36 1457,-36"/>
<text text-anchor="middle" x="1420.5" y="-15.2" font-family="Helvetica" font-size="11.00">End Log Audit</text>
</g>
<!-- n3 -->
<g id="node11" class="node">
<title>n3</title>
<path fill="#ffccbc" stroke="black" d="M1569,-36C1569,-36 1539,-36 1539,-36 1533,-36 1527,-30 1527,-24 1527,-24 1527,-12 1527,-12 1527,-6 1533,0 1539,0 1539,0 1569,0 1569,0 1575,0 1581,-6 1581,-12 1581,-12 1581,-24 1581,-24 1581,-30 1575,-36 1569,-36"/>
<text text-anchor="middle" x="1554" y="-15.2" font-family="Helvetica" font-size="11.00">end</text>
</g>
<!-- n2&#45;&gt;n3 -->
<g id="edge2" class="edge">
<title>n2&#45;&gt;n3</title>
<path fill="none" stroke="#555555" d="M1469.35,-18C1484.95,-18 1502,-18 1516.62,-18"/>
<polygon fill="#555555" stroke="#555555" points="1516.78,-21.5 1526.78,-18 1516.78,-14.5 1516.78,-21.5"/>
</g>
<!-- n4 -->
<g id="node12" class="node">
<title>n4</title>
<path fill="#e8f4f8" stroke="black" d="M578,-36C578,-36 504,-36 504,-36 498,-36 492,-30 492,-24 492,-24 492,-12 492,-12 492,-6 498,0 504,0 504,0 578,0 578,0 584,0 590,-6 590,-12 590,-12 590,-24 590,-24 590,-30 584,-36 578,-36"/>
<text text-anchor="middle" x="541" y="-15.2" font-family="Helvetica" font-size="11.00">Get Input Data</text>
</g>
<!-- n5 -->
<g id="node13" class="node">
<title>n5</title>
<path fill="#e8f4f8" stroke="black" d="M754,-36C754,-36 697,-36 697,-36 691,-36 685,-30 685,-24 685,-24 685,-12 685,-12 685,-6 691,0 697,0 697,0 754,0 754,0 760,0 766,-6 766,-12 766,-12 766,-24 766,-24 766,-30 760,-36 754,-36"/>
<text text-anchor="middle" x="725.5" y="-15.2" font-family="Helvetica" font-size="11.00">CVV2Filter</text>
</g>
<!-- n4&#45;&gt;n5 -->
<g id="edge3" class="edge">
<title>n4&#45;&gt;n5</title>
<path fill="none" stroke="#555555" d="M590.43,-18C616.44,-18 648.45,-18 674.67,-18"/>
<polygon fill="#555555" stroke="#555555" points="674.78,-21.5 684.78,-18 674.78,-14.5 674.78,-21.5"/>
</g>
<!-- n6 -->
<g id="node14" class="node">
<title>n6</title>
<path fill="#ffcdd2" stroke="black" d="M944,-36C944,-36 846,-36 846,-36 840,-36 834,-30 834,-24 834,-24 834,-12 834,-12 834,-6 840,0 846,0 846,0 944,0 944,0 950,0 956,-6 956,-12 956,-12 956,-24 956,-24 956,-30 950,-36 944,-36"/>
<text text-anchor="middle" x="895" y="-15.2" font-family="Helvetica" font-size="11.00">Trace System Error</text>
</g>
<!-- n5&#45;&gt;n6 -->
<g id="edge9" class="edge">
<title>n5&#45;&gt;n6</title>
<path fill="none" stroke="#555555" d="M766.2,-18C783.41,-18 804.1,-18 823.77,-18"/>
<polygon fill="#555555" stroke="#555555" points="823.94,-21.5 833.94,-18 823.94,-14.5 823.94,-21.5"/>
</g>
<!-- n7 -->
<g id="node15" class="node">
<title>n7</title>
<path fill="#e8f4f8" stroke="black" d="M1100,-36C1100,-36 1026,-36 1026,-36 1020,-36 1014,-30 1014,-24 1014,-24 1014,-12 1014,-12 1014,-6 1020,0 1026,0 1026,0 1100,0 1100,0 1106,0 1112,-6 1112,-12 1112,-12 1112,-24 1112,-24 1112,-30 1106,-36 1100,-36"/>
<text text-anchor="middle" x="1063" y="-15.2" font-family="Helvetica" font-size="11.00">GetHostName</text>
</g>
<!-- n6&#45;&gt;n7 -->
<g id="edge4" class="edge">
<title>n6&#45;&gt;n7</title>
<path fill="none" stroke="#555555" d="M956.4,-18C971.76,-18 988.25,-18 1003.52,-18"/>
<polygon fill="#555555" stroke="#555555" points="1003.86,-21.5 1013.86,-18 1003.86,-14.5 1003.86,-21.5"/>
</g>
<!-- n9 -->
<g id="node17" class="node">
<title>n9</title>
<path fill="#e8f4f8" stroke="black" d="M1302,-36C1302,-36 1182,-36 1182,-36 1176,-36 1170,-30 1170,-24 1170,-24 1170,-12 1170,-12 1170,-6 1176,0 1182,0 1182,0 1302,0 1302,0 1308,0 1314,-6 1314,-12 1314,-12 1314,-24 1314,-24 1314,-30 1308,-36 1302,-36"/>
<text text-anchor="middle" x="1242" y="-15.2" font-family="Helvetica" font-size="11.00">UpdateAuditErrorCache</text>
</g>
<!-- n7&#45;&gt;n9 -->
<g id="edge8" class="edge">
<title>n7&#45;&gt;n9</title>
<path fill="none" stroke="#555555" d="M1112.37,-18C1127.03,-18 1143.56,-18 1159.76,-18"/>
<polygon fill="#555555" stroke="#555555" points="1159.79,-21.5 1169.79,-18 1159.79,-14.5 1159.79,-21.5"/>
</g>
<!-- n8&#45;&gt;n4 -->
<g id="edge6" class="edge">
<title>n8&#45;&gt;n4</title>
<path fill="none" stroke="#555555" d="M407.15,-18C431.37,-18 458.48,-18 481.87,-18"/>
<polygon fill="#555555" stroke="#555555" points="481.98,-21.5 491.98,-18 481.98,-14.5 481.98,-21.5"/>
</g>
<!-- n9&#45;&gt;n2 -->
<g id="edge7" class="edge">
<title>n9&#45;&gt;n2</title>
<path fill="none" stroke="#555555" d="M1314.03,-18C1329.83,-18 1346.39,-18 1361.59,-18"/>
<polygon fill="#555555" stroke="#555555" points="1361.87,-21.5 1371.87,-18 1361.87,-14.5 1361.87,-21.5"/>
</g>
</g>
</svg>
