<?xml version="1.0" encoding="UTF-8" standalone="no"?>
<!DOCTYPE svg PUBLIC "-//W3C//DTD SVG 1.1//EN"
 "http://www.w3.org/Graphics/SVG/1.1/DTD/svg11.dtd">
<!-- Generated by graphviz version 2.44.0 (0)
 -->
<!-- Title: process Pages: 1 -->
<svg width="690pt" height="150pt"
 viewBox="0.00 0.00 690.00 150.00" xmlns="http://www.w3.org/2000/svg" xmlns:xlink="http://www.w3.org/1999/xlink">
<g id="graph0" class="graph" transform="scale(1 1) rotate(0) translate(36 114)">
<title>process</title>
<polygon fill="#ffffff" stroke="transparent" points="-36,36 -36,-114 654,-114 654,36 -36,36"/>
<!-- n0 -->
<g id="node1" class="node">
<title>n0</title>
<path fill="#e8f4f8" stroke="black" d="M186,-36C186,-36 124,-36 124,-36 118,-36 112,-30 112,-24 112,-24 112,-12 112,-12 112,-6 118,0 124,0 124,0 186,0 186,0 192,0 198,-6 198,-12 198,-12 198,-24 198,-24 198,-30 192,-36 186,-36"/>
<text text-anchor="middle" x="155" y="-15.2" font-family="Helvetica" font-size="11.00">GetInstance</text>
</g>
<!-- n1 -->
<g id="node2" class="node">
<title>n1</title>
<path fill="#e8f4f8" stroke="black" d="M362,-36C362,-36 268,-36 268,-36 262,-36 256,-30 256,-24 256,-24 256,-12 256,-12 256,-6 262,0 268,0 268,0 362,0 362,0 368,0 374,-6 374,-12 374,-12 374,-24 374,-24 374,-30 368,-36 362,-36"/>
<text text-anchor="middle" x="315" y="-15.2" font-family="Helvetica" font-size="11.00">AddToEventCache</text>
</g>
<!-- n0&#45;&gt;n1 -->
<g id="edge1" class="edge">
<title>n0&#45;&gt;n1</title>
<path fill="none" stroke="#555555" d="M198.34,-18C212.81,-18 229.39,-18 245.4,-18"/>
<polygon fill="#555555" stroke="#555555" points="245.8,-21.5 255.8,-18 245.8,-14.5 245.8,-21.5"/>
</g>
<!-- n2 -->
<g id="node3" class="node">
<title>n2</title>
<path fill="#ffcdd2" stroke="black" d="M494,-78C494,-78 444,-78 444,-78 438,-78 432,-72 432,-66 432,-66 432,-54 432,-54 432,-48 438,-42 444,-42 444,-42 494,-42 494,-42 500,-42 506,-48 506,-54 506,-54 506,-66 506,-66 506,-72 500,-78 494,-78"/>
<text text-anchor="middle" x="469" y="-57.2" font-family="Helvetica" font-size="11.00">Log Error</text>
</g>
<!-- n1&#45;&gt;n2 -->
<g id="edge5" class="edge">
<title>n1&#45;&gt;n2</title>
<path fill="none" stroke="#555555" d="M374.33,-34.12C389.98,-38.44 406.68,-43.06 421.58,-47.17"/>
<polygon fill="#555555" stroke="#555555" points="421.01,-50.65 431.58,-49.94 422.87,-43.9 421.01,-50.65"/>
</g>
<!-- n3 -->
<g id="node4" class="node">
<title>n3</title>
<path fill="#ffccbc" stroke="black" d="M606,-36C606,-36 576,-36 576,-36 570,-36 564,-30 564,-24 564,-24 564,-12 564,-12 564,-6 570,0 576,0 576,0 606,0 606,0 612,0 618,-6 618,-12 618,-12 618,-24 618,-24 618,-30 612,-36 606,-36"/>
<text text-anchor="middle" x="591" y="-15.2" font-family="Helvetica" font-size="11.00">End</text>
</g>
<!-- n1&#45;&gt;n3 -->
<g id="edge4" class="edge">
<title>n1&#45;&gt;n3</title>
<path fill="none" stroke="#555555" d="M374.11,-18C428.47,-18 507.97,-18 553.79,-18"/>
<polygon fill="#555555" stroke="#555555" points="553.86,-21.5 563.86,-18 553.86,-14.5 553.86,-21.5"/>
</g>
<!-- n2&#45;&gt;n3 -->
<g id="edge2" class="edge">
<title>n2&#45;&gt;n3</title>
<path fill="none" stroke="#555555" d="M506,-47.4C521.29,-42.05 539.07,-35.82 554.33,-30.49"/>
<polygon fill="#555555" stroke="#555555" points="555.65,-33.73 563.94,-27.12 553.34,-27.12 555.65,-33.73"/>
</g>
<!-- n4 -->
<g id="node5" class="node">
<title>n4</title>
<path fill="#c8e6c9" stroke="black" d="M42,-36C42,-36 12,-36 12,-36 6,-36 0,-30 0,-24 0,-24 0,-12 0,-12 0,-6 6,0 12,0 12,0 42,0 42,0 48,0 54,-6 54,-12 54,-12 54,-24 54,-24 54,-30 48,-36 42,-36"/>
<text text-anchor="middle" x="27" y="-15.2" font-family="Helvetica" font-size="11.00">Start</text>
</g>
<!-- n4&#45;&gt;n0 -->
<g id="edge3" class="edge">
<title>n4&#45;&gt;n0</title>
<path fill="none" stroke="#555555" d="M54.11,-18C67.84,-18 85.18,-18 101.54,-18"/>
<polygon fill="#555555" stroke="#555555" points="101.56,-21.5 111.56,-18 101.56,-14.5 101.56,-21.5"/>
</g>
</g>
</svg>
