<?xml version="1.0" encoding="UTF-8" standalone="no"?>
<!DOCTYPE svg PUBLIC "-//W3C//DTD SVG 1.1//EN"
 "http://www.w3.org/Graphics/SVG/1.1/DTD/svg11.dtd">
<!-- Generated by graphviz version 2.44.0 (0)
 -->
<!-- Title: process Pages: 1 -->
<svg width="647pt" height="394pt"
 viewBox="0.00 0.00 647.00 394.32" xmlns="http://www.w3.org/2000/svg" xmlns:xlink="http://www.w3.org/1999/xlink">
<g id="graph0" class="graph" transform="scale(1 1) rotate(0) translate(36 358.32)">
<title>process</title>
<polygon fill="#ffffff" stroke="transparent" points="-36,36 -36,-358.32 611,-358.32 611,36 -36,36"/>
<!-- n0 -->
<g id="node1" class="node">
<title>n0</title>
<path fill="#c8e6c9" stroke="black" d="M42,-83.32C42,-83.32 12,-83.32 12,-83.32 6,-83.32 0,-77.32 0,-71.32 0,-71.32 0,-59.32 0,-59.32 0,-53.32 6,-47.32 12,-47.32 12,-47.32 42,-47.32 42,-47.32 48,-47.32 54,-53.32 54,-59.32 54,-59.32 54,-71.32 54,-71.32 54,-77.32 48,-83.32 42,-83.32"/>
<text text-anchor="middle" x="27" y="-62.52" font-family="Helvetica" font-size="11.00">Start</text>
</g>
<!-- n1 -->
<g id="node2" class="node">
<title>n1</title>
<path fill="#e8f4f8" stroke="black" d="M193,-164.32C193,-164.32 124,-164.32 124,-164.32 118,-164.32 112,-158.32 112,-152.32 112,-152.32 112,-140.32 112,-140.32 112,-134.32 118,-128.32 124,-128.32 124,-128.32 193,-128.32 193,-128.32 199,-128.32 205,-134.32 205,-140.32 205,-140.32 205,-152.32 205,-152.32 205,-158.32 199,-164.32 193,-164.32"/>
<text text-anchor="middle" x="158.5" y="-143.52" font-family="Helvetica" font-size="11.00">Prepare Data</text>
</g>
<!-- n0&#45;&gt;n1 -->
<g id="edge1" class="edge">
<title>n0&#45;&gt;n1</title>
<path fill="none" stroke="#555555" d="M54.21,-81.71C73.09,-93.52 98.85,-109.64 119.92,-122.81"/>
<polygon fill="#555555" stroke="#555555" points="118.29,-125.93 128.63,-128.26 122.01,-119.99 118.29,-125.93"/>
</g>
<!-- n7 -->
<g id="node8" class="node">
<title>n7</title>
<path fill="#e8f4f8" stroke="black" d="M173.5,-44.32C173.5,-44.32 143.5,-44.32 143.5,-44.32 137.5,-44.32 131.5,-38.32 131.5,-32.32 131.5,-32.32 131.5,-20.32 131.5,-20.32 131.5,-14.32 137.5,-8.32 143.5,-8.32 143.5,-8.32 173.5,-8.32 173.5,-8.32 179.5,-8.32 185.5,-14.32 185.5,-20.32 185.5,-20.32 185.5,-32.32 185.5,-32.32 185.5,-38.32 179.5,-44.32 173.5,-44.32"/>
<text text-anchor="middle" x="158.5" y="-23.52" font-family="Helvetica" font-size="11.00">Null</text>
</g>
<!-- n0&#45;&gt;n7 -->
<g id="edge10" class="edge">
<title>n0&#45;&gt;n7</title>
<path fill="none" stroke="#555555" d="M54.21,-57.43C73.6,-51.59 100.25,-43.56 121.63,-37.12"/>
<polygon fill="#555555" stroke="#555555" points="122.77,-40.44 131.33,-34.2 120.75,-33.73 122.77,-40.44"/>
</g>
<!-- n2 -->
<g id="node3" class="node">
<title>n2</title>
<path fill="#ffccbc" stroke="black" d="M447.5,-322.32C447.5,-322.32 278.5,-322.32 278.5,-322.32 272.5,-322.32 266.5,-316.32 266.5,-310.32 266.5,-310.32 266.5,-298.32 266.5,-298.32 266.5,-292.32 272.5,-286.32 278.5,-286.32 278.5,-286.32 447.5,-286.32 447.5,-286.32 453.5,-286.32 459.5,-292.32 459.5,-298.32 459.5,-298.32 459.5,-310.32 459.5,-310.32 459.5,-316.32 453.5,-322.32 447.5,-322.32"/>
<text text-anchor="middle" x="363" y="-301.52" font-family="Helvetica" font-size="11.00">Reply Topic (NON_PERSISTENT)</text>
</g>
<!-- n1&#45;&gt;n2 -->
<g id="edge2" class="edge">
<title>n1&#45;&gt;n2</title>
<path fill="none" stroke="#555555" d="M171.09,-164.47C188.32,-190.13 222.97,-237.04 263,-265.32 272.22,-271.83 282.68,-277.46 293.26,-282.25"/>
<polygon fill="#555555" stroke="#555555" points="291.99,-285.51 302.56,-286.25 294.75,-279.08 291.99,-285.51"/>
</g>
<!-- n3 -->
<g id="node4" class="node">
<title>n3</title>
<path fill="#ffccbc" stroke="black" d="M451,-243.32C451,-243.32 275,-243.32 275,-243.32 269,-243.32 263,-237.32 263,-231.32 263,-231.32 263,-219.32 263,-219.32 263,-213.32 269,-207.32 275,-207.32 275,-207.32 451,-207.32 451,-207.32 457,-207.32 463,-213.32 463,-219.32 463,-219.32 463,-231.32 463,-231.32 463,-237.32 457,-243.32 451,-243.32"/>
<text text-anchor="middle" x="363" y="-222.52" font-family="Helvetica" font-size="11.00">Reply Queue (NON_PERSISTENT)</text>
</g>
<!-- n1&#45;&gt;n3 -->
<g id="edge3" class="edge">
<title>n1&#45;&gt;n3</title>
<path fill="none" stroke="#555555" d="M205.2,-164.15C235.11,-175.82 274.4,-191.15 306.17,-203.54"/>
<polygon fill="#555555" stroke="#555555" points="305.18,-206.91 315.77,-207.28 307.72,-200.39 305.18,-206.91"/>
</g>
<!-- n5 -->
<g id="node6" class="node">
<title>n5</title>
<path fill="#ffccbc" stroke="black" d="M436,-164.32C436,-164.32 290,-164.32 290,-164.32 284,-164.32 278,-158.32 278,-152.32 278,-152.32 278,-140.32 278,-140.32 278,-134.32 284,-128.32 290,-128.32 290,-128.32 436,-128.32 436,-128.32 442,-128.32 448,-134.32 448,-140.32 448,-140.32 448,-152.32 448,-152.32 448,-158.32 442,-164.32 436,-164.32"/>
<text text-anchor="middle" x="363" y="-143.52" font-family="Helvetica" font-size="11.00">Reply Queue (PERSISTENT)</text>
</g>
<!-- n1&#45;&gt;n5 -->
<g id="edge6" class="edge">
<title>n1&#45;&gt;n5</title>
<path fill="none" stroke="#555555" d="M205.2,-146.32C223.73,-146.32 245.85,-146.32 267.56,-146.32"/>
<polygon fill="#555555" stroke="#555555" points="267.82,-149.82 277.82,-146.32 267.82,-142.82 267.82,-149.82"/>
</g>
<!-- n6 -->
<g id="node7" class="node">
<title>n6</title>
<path fill="#ffccbc" stroke="black" d="M432,-85.32C432,-85.32 294,-85.32 294,-85.32 288,-85.32 282,-79.32 282,-73.32 282,-73.32 282,-61.32 282,-61.32 282,-55.32 288,-49.32 294,-49.32 294,-49.32 432,-49.32 432,-49.32 438,-49.32 444,-55.32 444,-61.32 444,-61.32 444,-73.32 444,-73.32 444,-79.32 438,-85.32 432,-85.32"/>
<text text-anchor="middle" x="363" y="-64.52" font-family="Helvetica" font-size="11.00">Reply Topic (PERSISTENT)</text>
</g>
<!-- n1&#45;&gt;n6 -->
<g id="edge7" class="edge">
<title>n1&#45;&gt;n6</title>
<path fill="none" stroke="#555555" d="M205.2,-128.49C235.11,-116.82 274.4,-101.49 306.17,-89.1"/>
<polygon fill="#555555" stroke="#555555" points="307.72,-92.25 315.77,-85.36 305.18,-85.73 307.72,-92.25"/>
</g>
<!-- n4 -->
<g id="node5" class="node">
<title>n4</title>
<path fill="#ffccbc" stroke="black" d="M563,-164.32C563,-164.32 533,-164.32 533,-164.32 527,-164.32 521,-158.32 521,-152.32 521,-152.32 521,-140.32 521,-140.32 521,-134.32 527,-128.32 533,-128.32 533,-128.32 563,-128.32 563,-128.32 569,-128.32 575,-134.32 575,-140.32 575,-140.32 575,-152.32 575,-152.32 575,-158.32 569,-164.32 563,-164.32"/>
<text text-anchor="middle" x="548" y="-143.52" font-family="Helvetica" font-size="11.00">End</text>
</g>
<!-- n2&#45;&gt;n4 -->
<g id="edge4" class="edge">
<title>n2&#45;&gt;n4</title>
<path fill="none" stroke="#555555" d="M426.15,-286.23C439.09,-280.77 452.1,-273.88 463,-265.32 494.71,-240.42 519.5,-200.38 533.69,-173.72"/>
<polygon fill="#555555" stroke="#555555" points="536.95,-175.04 538.44,-164.55 530.73,-171.83 536.95,-175.04"/>
</g>
<!-- n3&#45;&gt;n4 -->
<g id="edge5" class="edge">
<title>n3&#45;&gt;n4</title>
<path fill="none" stroke="#555555" d="M411.86,-207.24C428.18,-200.86 446.48,-193.5 463,-186.32 479.04,-179.35 496.54,-171.12 511.39,-163.94"/>
<polygon fill="#555555" stroke="#555555" points="513.27,-166.92 520.73,-159.4 510.21,-160.63 513.27,-166.92"/>
</g>
<!-- n5&#45;&gt;n4 -->
<g id="edge9" class="edge">
<title>n5&#45;&gt;n4</title>
<path fill="none" stroke="#555555" d="M448,-146.32C469.99,-146.32 492.57,-146.32 510.6,-146.32"/>
<polygon fill="#555555" stroke="#555555" points="510.65,-149.82 520.65,-146.32 510.65,-142.82 510.65,-149.82"/>
</g>
<!-- n6&#45;&gt;n4 -->
<g id="edge8" class="edge">
<title>n6&#45;&gt;n4</title>
<path fill="none" stroke="#555555" d="M410.04,-85.36C426.79,-92.07 445.82,-99.87 463,-107.32 478.97,-114.25 496.46,-122.29 511.33,-129.27"/>
<polygon fill="#555555" stroke="#555555" points="510.13,-132.58 520.67,-133.68 513.12,-126.25 510.13,-132.58"/>
</g>
<!-- n7&#45;&gt;n4 -->
<g id="edge11" class="edge">
<title>n7&#45;&gt;n4</title>
<path fill="none" stroke="#555555" d="M185.75,-18.96C240.82,-5.07 370.9,19.56 463,-28.32 499.52,-47.31 523.69,-90.26 536.36,-118.77"/>
<polygon fill="#555555" stroke="#555555" points="533.23,-120.35 540.36,-128.18 539.67,-117.61 533.23,-120.35"/>
</g>
</g>
</svg>
