<?xml version="1.0" encoding="UTF-8" standalone="no"?>
<!DOCTYPE svg PUBLIC "-//W3C//DTD SVG 1.1//EN"
 "http://www.w3.org/Graphics/SVG/1.1/DTD/svg11.dtd">
<!-- Generated by graphviz version 2.44.0 (0)
 -->
<!-- Title: process Pages: 1 -->
<svg width="604pt" height="187pt"
 viewBox="0.00 0.00 604.00 187.00" xmlns="http://www.w3.org/2000/svg" xmlns:xlink="http://www.w3.org/1999/xlink">
<g id="graph0" class="graph" transform="scale(1 1) rotate(0) translate(36 151)">
<title>process</title>
<polygon fill="#ffffff" stroke="transparent" points="-36,36 -36,-151 568,-151 568,36 -36,36"/>
<!-- n0 -->
<g id="node1" class="node">
<title>n0</title>
<path fill="#e8f4f8" stroke="black" d="M267,-75C267,-75 126,-75 126,-75 120,-75 114,-69 114,-63 114,-63 114,-51 114,-51 114,-45 120,-39 126,-39 126,-39 267,-39 267,-39 273,-39 279,-45 279,-51 279,-51 279,-63 279,-63 279,-69 273,-75 267,-75"/>
<text text-anchor="middle" x="196.5" y="-54.2" font-family="Helvetica" font-size="11.00">LoadAllDiameterErrorCodes</text>
</g>
<!-- n1 -->
<g id="node2" class="node">
<title>n1</title>
<path fill="#e8f4f8" stroke="black" d="M402,-115C402,-115 355,-115 355,-115 349,-115 343,-109 343,-103 343,-103 343,-91 343,-91 343,-85 349,-79 355,-79 355,-79 402,-79 402,-79 408,-79 414,-85 414,-91 414,-91 414,-103 414,-103 414,-109 408,-115 402,-115"/>
<text text-anchor="middle" x="378.5" y="-94.2" font-family="Helvetica" font-size="11.00">LogError</text>
</g>
<!-- n0&#45;&gt;n1 -->
<g id="edge1" class="edge">
<title>n0&#45;&gt;n1</title>
<path fill="none" stroke="#555555" d="M278.55,-75.01C297.25,-79.17 316.47,-83.44 332.94,-87.1"/>
<polygon fill="#555555" stroke="#555555" points="332.29,-90.54 342.81,-89.29 333.81,-83.7 332.29,-90.54"/>
</g>
<!-- n2 -->
<g id="node3" class="node">
<title>n2</title>
<path fill="#e8f4f8" stroke="black" d="M408,-36C408,-36 349,-36 349,-36 343,-36 337,-30 337,-24 337,-24 337,-12 337,-12 337,-6 343,0 349,0 349,0 408,0 408,0 414,0 420,-6 420,-12 420,-12 420,-24 420,-24 420,-30 414,-36 408,-36"/>
<text text-anchor="middle" x="378.5" y="-15.2" font-family="Helvetica" font-size="11.00">WriteToLog</text>
</g>
<!-- n0&#45;&gt;n2 -->
<g id="edge2" class="edge">
<title>n0&#45;&gt;n2</title>
<path fill="none" stroke="#555555" d="M279.07,-39.33C295.4,-35.79 312.1,-32.17 326.99,-28.94"/>
<polygon fill="#555555" stroke="#555555" points="327.96,-32.31 336.99,-26.78 326.48,-25.47 327.96,-32.31"/>
</g>
<!-- n3 -->
<g id="node4" class="node">
<title>n3</title>
<path fill="#ffccbc" stroke="black" d="M520,-75C520,-75 490,-75 490,-75 484,-75 478,-69 478,-63 478,-63 478,-51 478,-51 478,-45 484,-39 490,-39 490,-39 520,-39 520,-39 526,-39 532,-45 532,-51 532,-51 532,-63 532,-63 532,-69 526,-75 520,-75"/>
<text text-anchor="middle" x="505" y="-54.2" font-family="Helvetica" font-size="11.00">End</text>
</g>
<!-- n1&#45;&gt;n3 -->
<g id="edge3" class="edge">
<title>n1&#45;&gt;n3</title>
<path fill="none" stroke="#555555" d="M414.18,-85.86C431.02,-80.45 451.24,-73.95 468.22,-68.5"/>
<polygon fill="#555555" stroke="#555555" points="469.35,-71.81 477.8,-65.42 467.21,-65.15 469.35,-71.81"/>
</g>
<!-- n2&#45;&gt;n3 -->
<g id="edge5" class="edge">
<title>n2&#45;&gt;n3</title>
<path fill="none" stroke="#555555" d="M420.27,-30.77C435.59,-35.57 452.9,-40.99 467.79,-45.66"/>
<polygon fill="#555555" stroke="#555555" points="467.06,-49.1 477.65,-48.75 469.15,-42.42 467.06,-49.1"/>
</g>
<!-- n4 -->
<g id="node5" class="node">
<title>n4</title>
<path fill="#e8f4f8" stroke="black" d="M44,-75C44,-75 12,-75 12,-75 6,-75 0,-69 0,-63 0,-63 0,-51 0,-51 0,-45 6,-39 12,-39 12,-39 44,-39 44,-39 50,-39 56,-45 56,-51 56,-51 56,-63 56,-63 56,-69 50,-75 44,-75"/>
<text text-anchor="middle" x="28" y="-54.2" font-family="Helvetica" font-size="11.00">Timer</text>
</g>
<!-- n4&#45;&gt;n0 -->
<g id="edge4" class="edge">
<title>n4&#45;&gt;n0</title>
<path fill="none" stroke="#555555" d="M56.12,-57C69.37,-57 86.17,-57 103.48,-57"/>
<polygon fill="#555555" stroke="#555555" points="103.71,-60.5 113.71,-57 103.71,-53.5 103.71,-60.5"/>
</g>
</g>
</svg>
