<?xml version="1.0" encoding="UTF-8" standalone="no"?>
<!DOCTYPE svg PUBLIC "-//W3C//DTD SVG 1.1//EN"
 "http://www.w3.org/Graphics/SVG/1.1/DTD/svg11.dtd">
<!-- Generated by graphviz version 2.44.0 (0)
 -->
<!-- Title: process Pages: 1 -->
<svg width="1928pt" height="313pt"
 viewBox="0.00 0.00 1928.00 313.00" xmlns="http://www.w3.org/2000/svg" xmlns:xlink="http://www.w3.org/1999/xlink">
<g id="graph0" class="graph" transform="scale(1 1) rotate(0) translate(36 277)">
<title>process</title>
<polygon fill="#ffffff" stroke="transparent" points="-36,36 -36,-277 1892,-277 1892,36 -36,36"/>
<!-- n0 -->
<g id="node1" class="node">
<title>n0</title>
<path fill="#e8f4f8" stroke="black" d="M673,-75C673,-75 603,-75 603,-75 597,-75 591,-69 591,-63 591,-63 591,-51 591,-51 591,-45 597,-39 603,-39 603,-39 673,-39 673,-39 679,-39 685,-45 685,-51 685,-51 685,-63 685,-63 685,-69 679,-75 673,-75"/>
<text text-anchor="middle" x="638" y="-54.2" font-family="Helvetica" font-size="11.00">SendRequest</text>
</g>
<!-- n1 -->
<g id="node2" class="node">
<title>n1</title>
<path fill="#ffccbc" stroke="black" d="M821.5,-115C821.5,-115 765.5,-115 765.5,-115 759.5,-115 753.5,-109 753.5,-103 753.5,-103 753.5,-91 753.5,-91 753.5,-85 759.5,-79 765.5,-79 765.5,-79 821.5,-79 821.5,-79 827.5,-79 833.5,-85 833.5,-91 833.5,-91 833.5,-103 833.5,-103 833.5,-109 827.5,-115 821.5,-115"/>
<text text-anchor="middle" x="793.5" y="-94.2" font-family="Helvetica" font-size="11.00">Reply&#45;Msg</text>
</g>
<!-- n0&#45;&gt;n1 -->
<g id="edge1" class="edge">
<title>n0&#45;&gt;n1</title>
<path fill="none" stroke="#555555" d="M685.06,-69C703.54,-73.82 724.88,-79.38 743.64,-84.27"/>
<polygon fill="#555555" stroke="#555555" points="742.92,-87.7 753.48,-86.83 744.68,-80.92 742.92,-87.7"/>
</g>
<!-- n2 -->
<g id="node7" class="node">
<title>n2</title>
<path fill="#ffcdd2" stroke="black" d="M832,-36C832,-36 755,-36 755,-36 749,-36 743,-30 743,-24 743,-24 743,-12 743,-12 743,-6 749,0 755,0 755,0 832,0 832,0 838,0 844,-6 844,-12 844,-12 844,-24 844,-24 844,-30 838,-36 832,-36"/>
<text text-anchor="middle" x="793.5" y="-15.2" font-family="Helvetica" font-size="11.00">Generate Error</text>
</g>
<!-- n0&#45;&gt;n2 -->
<g id="edge2" class="edge">
<title>n0&#45;&gt;n2</title>
<path fill="none" stroke="#555555" d="M685.06,-45.3C700.12,-41.47 717.07,-37.16 732.99,-33.12"/>
<polygon fill="#555555" stroke="#555555" points="733.9,-36.5 742.73,-30.64 732.18,-29.71 733.9,-36.5"/>
</g>
<!-- n3 -->
<g id="node8" class="node">
<title>n3</title>
<path fill="#e8f4f8" stroke="black" d="M972,-158C972,-158 914,-158 914,-158 908,-158 902,-152 902,-146 902,-146 902,-134 902,-134 902,-128 908,-122 914,-122 914,-122 972,-122 972,-122 978,-122 984,-128 984,-134 984,-134 984,-146 984,-146 984,-152 978,-158 972,-158"/>
<text text-anchor="middle" x="943" y="-137.2" font-family="Helvetica" font-size="11.00">Parse XML</text>
</g>
<!-- n1&#45;&gt;n3 -->
<g id="edge3" class="edge">
<title>n1&#45;&gt;n3</title>
<path fill="none" stroke="#555555" d="M833.64,-108.41C851.59,-113.64 873.08,-119.91 892.17,-125.47"/>
<polygon fill="#555555" stroke="#555555" points="891.33,-128.87 901.91,-128.31 893.28,-122.15 891.33,-128.87"/>
</g>
<!-- n7 -->
<g id="node12" class="node">
<title>n7</title>
<path fill="#ffcdd2" stroke="black" d="M1306,-158C1306,-158 1219,-158 1219,-158 1213,-158 1207,-152 1207,-146 1207,-146 1207,-134 1207,-134 1207,-128 1213,-122 1219,-122 1219,-122 1306,-122 1306,-122 1312,-122 1318,-128 1318,-134 1318,-134 1318,-146 1318,-146 1318,-152 1312,-158 1306,-158"/>
<text text-anchor="middle" x="1262.5" y="-137.2" font-family="Helvetica" font-size="11.00">Generate&#45;Error&#45;1</text>
</g>
<!-- n1&#45;&gt;n7 -->
<g id="edge15" class="edge">
<title>n1&#45;&gt;n7</title>
<path fill="none" stroke="#555555" d="M833.77,-96.47C872.14,-96.28 932.18,-96.83 984,-101 1057.27,-106.9 1140.72,-119.42 1196.81,-128.69"/>
<polygon fill="#555555" stroke="#555555" points="1196.51,-132.19 1206.95,-130.38 1197.66,-125.29 1196.51,-132.19"/>
</g>
<!-- n10 -->
<g id="node3" class="node">
<title>n10</title>
<path fill="#ffccbc" stroke="black" d="M1844,-240C1844,-240 1814,-240 1814,-240 1808,-240 1802,-234 1802,-228 1802,-228 1802,-216 1802,-216 1802,-210 1808,-204 1814,-204 1814,-204 1844,-204 1844,-204 1850,-204 1856,-210 1856,-216 1856,-216 1856,-228 1856,-228 1856,-234 1850,-240 1844,-240"/>
<text text-anchor="middle" x="1829" y="-219.2" font-family="Helvetica" font-size="11.00">End</text>
</g>
<!-- n11 -->
<g id="node4" class="node">
<title>n11</title>
<path fill="#e8f4f8" stroke="black" d="M1516,-199C1516,-199 1388,-199 1388,-199 1382,-199 1376,-193 1376,-187 1376,-187 1376,-175 1376,-175 1376,-169 1382,-163 1388,-163 1388,-163 1516,-163 1516,-163 1522,-163 1528,-169 1528,-175 1528,-175 1528,-187 1528,-187 1528,-193 1522,-199 1516,-199"/>
<text text-anchor="middle" x="1452" y="-178.2" font-family="Helvetica" font-size="11.00">RequestMessageToString</text>
</g>
<!-- n9 -->
<g id="node14" class="node">
<title>n9</title>
<path fill="#e8f4f8" stroke="black" d="M1732,-199C1732,-199 1598,-199 1598,-199 1592,-199 1586,-193 1586,-187 1586,-187 1586,-175 1586,-175 1586,-169 1592,-163 1598,-163 1598,-163 1732,-163 1732,-163 1738,-163 1744,-169 1744,-175 1744,-175 1744,-187 1744,-187 1744,-193 1738,-199 1732,-199"/>
<text text-anchor="middle" x="1665" y="-178.2" font-family="Helvetica" font-size="11.00">WriteToLog&#45;UDR&#45;Req&#45;Res</text>
</g>
<!-- n11&#45;&gt;n9 -->
<g id="edge9" class="edge">
<title>n11&#45;&gt;n9</title>
<path fill="none" stroke="#555555" d="M1528.28,-181C1543.62,-181 1559.89,-181 1575.64,-181"/>
<polygon fill="#555555" stroke="#555555" points="1575.9,-184.5 1585.9,-181 1575.9,-177.5 1575.9,-184.5"/>
</g>
<!-- n12 -->
<g id="node5" class="node">
<title>n12</title>
<path fill="#e8f4f8" stroke="black" d="M521,-75C521,-75 468,-75 468,-75 462,-75 456,-69 456,-63 456,-63 456,-51 456,-51 456,-45 462,-39 468,-39 468,-39 521,-39 521,-39 527,-39 533,-45 533,-51 533,-51 533,-63 533,-63 533,-69 527,-75 521,-75"/>
<text text-anchor="middle" x="494.5" y="-54.2" font-family="Helvetica" font-size="11.00">UDR Msg</text>
</g>
<!-- n12&#45;&gt;n0 -->
<g id="edge10" class="edge">
<title>n12&#45;&gt;n0</title>
<path fill="none" stroke="#555555" d="M533.05,-57C547.62,-57 564.63,-57 580.61,-57"/>
<polygon fill="#555555" stroke="#555555" points="580.93,-60.5 590.93,-57 580.93,-53.5 580.93,-60.5"/>
</g>
<!-- n13 -->
<g id="node6" class="node">
<title>n13</title>
<path fill="#e8f4f8" stroke="black" d="M1281,-241C1281,-241 1244,-241 1244,-241 1238,-241 1232,-235 1232,-229 1232,-229 1232,-217 1232,-217 1232,-211 1238,-205 1244,-205 1244,-205 1281,-205 1281,-205 1287,-205 1293,-211 1293,-217 1293,-217 1293,-229 1293,-229 1293,-235 1287,-241 1281,-241"/>
<text text-anchor="middle" x="1262.5" y="-220.2" font-family="Helvetica" font-size="11.00">Debug</text>
</g>
<!-- n13&#45;&gt;n10 -->
<g id="edge12" class="edge">
<title>n13&#45;&gt;n10</title>
<path fill="none" stroke="#555555" d="M1293.06,-222.95C1388.35,-222.78 1687.37,-222.25 1791.67,-222.06"/>
<polygon fill="#555555" stroke="#555555" points="1791.72,-225.56 1801.72,-222.05 1791.71,-218.56 1791.72,-225.56"/>
</g>
<!-- n13&#45;&gt;n11 -->
<g id="edge13" class="edge">
<title>n13&#45;&gt;n11</title>
<path fill="none" stroke="#555555" d="M1293.21,-216.34C1312.9,-211.94 1339.8,-205.91 1365.81,-200.08"/>
<polygon fill="#555555" stroke="#555555" points="1366.73,-203.46 1375.73,-197.86 1365.2,-196.63 1366.73,-203.46"/>
</g>
<!-- n3&#45;&gt;n7 -->
<g id="edge6" class="edge">
<title>n3&#45;&gt;n7</title>
<path fill="none" stroke="#555555" d="M984.21,-140C1037.64,-140 1132.68,-140 1196.4,-140"/>
<polygon fill="#555555" stroke="#555555" points="1196.73,-143.5 1206.73,-140 1196.73,-136.5 1196.73,-143.5"/>
</g>
<!-- n8 -->
<g id="node13" class="node">
<title>n8</title>
<path fill="#e8f4f8" stroke="black" d="M1137,-241C1137,-241 1054,-241 1054,-241 1048,-241 1042,-235 1042,-229 1042,-229 1042,-217 1042,-217 1042,-211 1048,-205 1054,-205 1054,-205 1137,-205 1137,-205 1143,-205 1149,-211 1149,-217 1149,-217 1149,-229 1149,-229 1149,-235 1143,-241 1137,-241"/>
<text text-anchor="middle" x="1095.5" y="-220.2" font-family="Helvetica" font-size="11.00">CheckResponse</text>
</g>
<!-- n3&#45;&gt;n8 -->
<g id="edge7" class="edge">
<title>n3&#45;&gt;n8</title>
<path fill="none" stroke="#555555" d="M976.66,-158.01C998.96,-170.31 1028.72,-186.72 1052.75,-199.97"/>
<polygon fill="#555555" stroke="#555555" points="1051.2,-203.12 1061.65,-204.88 1054.58,-196.99 1051.2,-203.12"/>
</g>
<!-- n4 -->
<g id="node9" class="node">
<title>n4</title>
<path fill="#c8e6c9" stroke="black" d="M42,-75C42,-75 12,-75 12,-75 6,-75 0,-69 0,-63 0,-63 0,-51 0,-51 0,-45 6,-39 12,-39 12,-39 42,-39 42,-39 48,-39 54,-45 54,-51 54,-51 54,-63 54,-63 54,-69 48,-75 42,-75"/>
<text text-anchor="middle" x="27" y="-54.2" font-family="Helvetica" font-size="11.00">Start</text>
</g>
<!-- n5 -->
<g id="node10" class="node">
<title>n5</title>
<path fill="#e8f4f8" stroke="black" d="M200,-75C200,-75 124,-75 124,-75 118,-75 112,-69 112,-63 112,-63 112,-51 112,-51 112,-45 118,-39 124,-39 124,-39 200,-39 200,-39 206,-39 212,-45 212,-51 212,-51 212,-63 212,-63 212,-69 206,-75 200,-75"/>
<text text-anchor="middle" x="162" y="-54.2" font-family="Helvetica" font-size="11.00">NormalizeCTN</text>
</g>
<!-- n4&#45;&gt;n5 -->
<g id="edge4" class="edge">
<title>n4&#45;&gt;n5</title>
<path fill="none" stroke="#555555" d="M54.28,-57C67.88,-57 85.08,-57 101.68,-57"/>
<polygon fill="#555555" stroke="#555555" points="101.9,-60.5 111.9,-57 101.9,-53.5 101.9,-60.5"/>
</g>
<!-- n6 -->
<g id="node11" class="node">
<title>n6</title>
<path fill="#e8f4f8" stroke="black" d="M386,-75C386,-75 282,-75 282,-75 276,-75 270,-69 270,-63 270,-63 270,-51 270,-51 270,-45 276,-39 282,-39 282,-39 386,-39 386,-39 392,-39 398,-45 398,-51 398,-51 398,-63 398,-63 398,-69 392,-75 386,-75"/>
<text text-anchor="middle" x="334" y="-54.2" font-family="Helvetica" font-size="11.00">Get Connection Plan</text>
</g>
<!-- n5&#45;&gt;n6 -->
<g id="edge5" class="edge">
<title>n5&#45;&gt;n6</title>
<path fill="none" stroke="#555555" d="M212.17,-57C226.97,-57 243.55,-57 259.56,-57"/>
<polygon fill="#555555" stroke="#555555" points="259.99,-60.5 269.99,-57 259.99,-53.5 259.99,-60.5"/>
</g>
<!-- n6&#45;&gt;n12 -->
<g id="edge16" class="edge">
<title>n6&#45;&gt;n12</title>
<path fill="none" stroke="#555555" d="M398.1,-57C413.95,-57 430.7,-57 445.67,-57"/>
<polygon fill="#555555" stroke="#555555" points="445.72,-60.5 455.72,-57 445.72,-53.5 445.72,-60.5"/>
</g>
<!-- n8&#45;&gt;n13 -->
<g id="edge14" class="edge">
<title>n8&#45;&gt;n13</title>
<path fill="none" stroke="#555555" d="M1149.16,-223C1172.67,-223 1199.9,-223 1221.67,-223"/>
<polygon fill="#555555" stroke="#555555" points="1221.88,-226.5 1231.88,-223 1221.88,-219.5 1221.88,-226.5"/>
</g>
<!-- n8&#45;&gt;n7 -->
<g id="edge11" class="edge">
<title>n8&#45;&gt;n7</title>
<path fill="none" stroke="#555555" d="M1132.3,-204.99C1156.97,-192.58 1189.96,-175.99 1216.42,-162.68"/>
<polygon fill="#555555" stroke="#555555" points="1218.12,-165.74 1225.48,-158.12 1214.98,-159.48 1218.12,-165.74"/>
</g>
<!-- n9&#45;&gt;n10 -->
<g id="edge8" class="edge">
<title>n9&#45;&gt;n10</title>
<path fill="none" stroke="#555555" d="M1737.53,-199.1C1756.3,-203.85 1775.76,-208.78 1791.8,-212.84"/>
<polygon fill="#555555" stroke="#555555" points="1791.26,-216.31 1801.81,-215.37 1792.97,-209.52 1791.26,-216.31"/>
</g>
</g>
</svg>
