<?xml version="1.0" encoding="UTF-8" standalone="no"?>
<!DOCTYPE svg PUBLIC "-//W3C//DTD SVG 1.1//EN"
 "http://www.w3.org/Graphics/SVG/1.1/DTD/svg11.dtd">
<!-- Generated by graphviz version 2.44.0 (0)
 -->
<!-- Title: process Pages: 1 -->
<svg width="1947pt" height="400pt"
 viewBox="0.00 0.00 1947.00 400.00" xmlns="http://www.w3.org/2000/svg" xmlns:xlink="http://www.w3.org/1999/xlink">
<g id="graph0" class="graph" transform="scale(1 1) rotate(0) translate(36 364)">
<title>process</title>
<polygon fill="#ffffff" stroke="transparent" points="-36,36 -36,-364 1911,-364 1911,36 -36,36"/>
<!-- n0 -->
<g id="node1" class="node">
<title>n0</title>
<path fill="#e8f4f8" stroke="black" d="M602,-138C602,-138 529,-138 529,-138 523,-138 517,-132 517,-126 517,-126 517,-114 517,-114 517,-108 523,-102 529,-102 529,-102 602,-102 602,-102 608,-102 614,-108 614,-114 614,-114 614,-126 614,-126 614,-132 608,-138 602,-138"/>
<text text-anchor="middle" x="565.5" y="-117.2" font-family="Helvetica" font-size="11.00">Send Request</text>
</g>
<!-- n1 -->
<g id="node2" class="node">
<title>n1</title>
<path fill="#e8f4f8" stroke="black" d="M796,-178C796,-178 684,-178 684,-178 678,-178 672,-172 672,-166 672,-166 672,-154 672,-154 672,-148 678,-142 684,-142 684,-142 796,-142 796,-142 802,-142 808,-148 808,-154 808,-154 808,-166 808,-166 808,-172 802,-178 796,-178"/>
<text text-anchor="middle" x="740" y="-157.2" font-family="Helvetica" font-size="11.00">Release&#45;Connection&#45;1</text>
</g>
<!-- n0&#45;&gt;n1 -->
<g id="edge1" class="edge">
<title>n0&#45;&gt;n1</title>
<path fill="none" stroke="#555555" d="M614.09,-131.04C628.88,-134.46 645.57,-138.33 661.83,-142.1"/>
<polygon fill="#555555" stroke="#555555" points="661.34,-145.58 671.87,-144.43 662.92,-138.77 661.34,-145.58"/>
</g>
<!-- n2 -->
<g id="node12" class="node">
<title>n2</title>
<path fill="#e8f4f8" stroke="black" d="M773.5,-99C773.5,-99 706.5,-99 706.5,-99 700.5,-99 694.5,-93 694.5,-87 694.5,-87 694.5,-75 694.5,-75 694.5,-69 700.5,-63 706.5,-63 706.5,-63 773.5,-63 773.5,-63 779.5,-63 785.5,-69 785.5,-75 785.5,-75 785.5,-87 785.5,-87 785.5,-93 779.5,-99 773.5,-99"/>
<text text-anchor="middle" x="740" y="-78.2" font-family="Helvetica" font-size="11.00">resultCode&#45;1</text>
</g>
<!-- n0&#45;&gt;n2 -->
<g id="edge2" class="edge">
<title>n0&#45;&gt;n2</title>
<path fill="none" stroke="#555555" d="M614.09,-109.24C635.9,-104.31 661.86,-98.44 684.45,-93.33"/>
<polygon fill="#555555" stroke="#555555" points="685.25,-96.74 694.23,-91.12 683.71,-89.91 685.25,-96.74"/>
</g>
<!-- n6 -->
<g id="node16" class="node">
<title>n6</title>
<path fill="#e8f4f8" stroke="black" d="M938,-178C938,-178 878,-178 878,-178 872,-178 866,-172 866,-166 866,-166 866,-154 866,-154 866,-148 872,-142 878,-142 878,-142 938,-142 938,-142 944,-142 950,-148 950,-154 950,-154 950,-166 950,-166 950,-172 944,-178 938,-178"/>
<text text-anchor="middle" x="908" y="-157.2" font-family="Helvetica" font-size="11.00">msgToStr&#45;1</text>
</g>
<!-- n1&#45;&gt;n6 -->
<g id="edge5" class="edge">
<title>n1&#45;&gt;n6</title>
<path fill="none" stroke="#555555" d="M808.04,-160C823.98,-160 840.73,-160 855.83,-160"/>
<polygon fill="#555555" stroke="#555555" points="855.99,-163.5 865.99,-160 855.99,-156.5 855.99,-163.5"/>
</g>
<!-- n10 -->
<g id="node3" class="node">
<title>n10</title>
<path fill="#e8f4f8" stroke="black" d="M933.5,-99C933.5,-99 882.5,-99 882.5,-99 876.5,-99 870.5,-93 870.5,-87 870.5,-87 870.5,-75 870.5,-75 870.5,-69 876.5,-63 882.5,-63 882.5,-63 933.5,-63 933.5,-63 939.5,-63 945.5,-69 945.5,-75 945.5,-75 945.5,-87 945.5,-87 945.5,-93 939.5,-99 933.5,-99"/>
<text text-anchor="middle" x="908" y="-78.2" font-family="Helvetica" font-size="11.00">Map Data</text>
</g>
<!-- n7 -->
<g id="node17" class="node">
<title>n7</title>
<path fill="#e8f4f8" stroke="black" d="M1080.5,-99C1080.5,-99 1022.5,-99 1022.5,-99 1016.5,-99 1010.5,-93 1010.5,-87 1010.5,-87 1010.5,-75 1010.5,-75 1010.5,-69 1016.5,-63 1022.5,-63 1022.5,-63 1080.5,-63 1080.5,-63 1086.5,-63 1092.5,-69 1092.5,-75 1092.5,-75 1092.5,-87 1092.5,-87 1092.5,-93 1086.5,-99 1080.5,-99"/>
<text text-anchor="middle" x="1051.5" y="-78.2" font-family="Helvetica" font-size="11.00">Disconnect</text>
</g>
<!-- n10&#45;&gt;n7 -->
<g id="edge8" class="edge">
<title>n10&#45;&gt;n7</title>
<path fill="none" stroke="#555555" d="M945.81,-81C962.45,-81 982.38,-81 1000.36,-81"/>
<polygon fill="#555555" stroke="#555555" points="1000.4,-84.5 1010.4,-81 1000.4,-77.5 1000.4,-84.5"/>
</g>
<!-- n8 -->
<g id="node18" class="node">
<title>n8</title>
<path fill="#e8f4f8" stroke="black" d="M1266,-36C1266,-36 1165,-36 1165,-36 1159,-36 1153,-30 1153,-24 1153,-24 1153,-12 1153,-12 1153,-6 1159,0 1165,0 1165,0 1266,0 1266,0 1272,0 1278,-6 1278,-12 1278,-12 1278,-24 1278,-24 1278,-30 1272,-36 1266,-36"/>
<text text-anchor="middle" x="1215.5" y="-15.2" font-family="Helvetica" font-size="11.00">Release Connection</text>
</g>
<!-- n10&#45;&gt;n8 -->
<g id="edge9" class="edge">
<title>n10&#45;&gt;n8</title>
<path fill="none" stroke="#555555" d="M945.8,-63.33C964.1,-55.27 986.79,-46.36 1008,-41 1051.92,-29.91 1102.43,-24.16 1142.51,-21.19"/>
<polygon fill="#555555" stroke="#555555" points="1143,-24.66 1152.73,-20.47 1142.51,-17.68 1143,-24.66"/>
</g>
<!-- n11 -->
<g id="node4" class="node">
<title>n11</title>
<path fill="#c8e6c9" stroke="black" d="M42,-138C42,-138 12,-138 12,-138 6,-138 0,-132 0,-126 0,-126 0,-114 0,-114 0,-108 6,-102 12,-102 12,-102 42,-102 42,-102 48,-102 54,-108 54,-114 54,-114 54,-126 54,-126 54,-132 48,-138 42,-138"/>
<text text-anchor="middle" x="27" y="-117.2" font-family="Helvetica" font-size="11.00">Start</text>
</g>
<!-- n12 -->
<g id="node5" class="node">
<title>n12</title>
<path fill="#e8f4f8" stroke="black" d="M165,-138C165,-138 124,-138 124,-138 118,-138 112,-132 112,-126 112,-126 112,-114 112,-114 112,-108 118,-102 124,-102 124,-102 165,-102 165,-102 171,-102 177,-108 177,-114 177,-114 177,-126 177,-126 177,-132 171,-138 165,-138"/>
<text text-anchor="middle" x="144.5" y="-117.2" font-family="Helvetica" font-size="11.00">getURL</text>
</g>
<!-- n11&#45;&gt;n12 -->
<g id="edge10" class="edge">
<title>n11&#45;&gt;n12</title>
<path fill="none" stroke="#555555" d="M54.21,-120C68.19,-120 85.72,-120 101.54,-120"/>
<polygon fill="#555555" stroke="#555555" points="101.63,-123.5 111.63,-120 101.63,-116.5 101.63,-123.5"/>
</g>
<!-- n13 -->
<g id="node6" class="node">
<title>n13</title>
<path fill="#e8f4f8" stroke="black" d="M298,-138C298,-138 247,-138 247,-138 241,-138 235,-132 235,-126 235,-126 235,-114 235,-114 235,-108 241,-102 247,-102 247,-102 298,-102 298,-102 304,-102 310,-108 310,-114 310,-114 310,-126 310,-126 310,-132 304,-138 298,-138"/>
<text text-anchor="middle" x="272.5" y="-117.2" font-family="Helvetica" font-size="11.00">msgToStr</text>
</g>
<!-- n12&#45;&gt;n13 -->
<g id="edge11" class="edge">
<title>n12&#45;&gt;n13</title>
<path fill="none" stroke="#555555" d="M177.3,-120C191.65,-120 208.89,-120 224.68,-120"/>
<polygon fill="#555555" stroke="#555555" points="224.8,-123.5 234.8,-120 224.8,-116.5 224.8,-123.5"/>
</g>
<!-- n14 -->
<g id="node7" class="node">
<title>n14</title>
<path fill="#e8f4f8" stroke="black" d="M447,-138C447,-138 380,-138 380,-138 374,-138 368,-132 368,-126 368,-126 368,-114 368,-114 368,-108 374,-102 380,-102 380,-102 447,-102 447,-102 453,-102 459,-108 459,-114 459,-114 459,-126 459,-126 459,-132 453,-138 447,-138"/>
<text text-anchor="middle" x="413.5" y="-117.2" font-family="Helvetica" font-size="11.00">CSAuditStart</text>
</g>
<!-- n13&#45;&gt;n14 -->
<g id="edge14" class="edge">
<title>n13&#45;&gt;n14</title>
<path fill="none" stroke="#555555" d="M310.02,-120C324.54,-120 341.55,-120 357.5,-120"/>
<polygon fill="#555555" stroke="#555555" points="357.79,-123.5 367.79,-120 357.79,-116.5 357.79,-123.5"/>
</g>
<!-- n14&#45;&gt;n0 -->
<g id="edge12" class="edge">
<title>n14&#45;&gt;n0</title>
<path fill="none" stroke="#555555" d="M459.1,-120C474.05,-120 490.93,-120 506.74,-120"/>
<polygon fill="#555555" stroke="#555555" points="506.94,-123.5 516.94,-120 506.94,-116.5 506.94,-123.5"/>
</g>
<!-- n15 -->
<g id="node8" class="node">
<title>n15</title>
<path fill="#e8f4f8" stroke="black" d="M1083,-178C1083,-178 1020,-178 1020,-178 1014,-178 1008,-172 1008,-166 1008,-166 1008,-154 1008,-154 1008,-148 1014,-142 1020,-142 1020,-142 1083,-142 1083,-142 1089,-142 1095,-148 1095,-154 1095,-154 1095,-166 1095,-166 1095,-172 1089,-178 1083,-178"/>
<text text-anchor="middle" x="1051.5" y="-157.2" font-family="Helvetica" font-size="11.00">CSAuditEnd</text>
</g>
<!-- n16 -->
<g id="node9" class="node">
<title>n16</title>
<path fill="#e8f4f8" stroke="black" d="M1244,-178C1244,-178 1187,-178 1187,-178 1181,-178 1175,-172 1175,-166 1175,-166 1175,-154 1175,-154 1175,-148 1181,-142 1187,-142 1187,-142 1244,-142 1244,-142 1250,-142 1256,-148 1256,-154 1256,-154 1256,-166 1256,-166 1256,-172 1250,-178 1244,-178"/>
<text text-anchor="middle" x="1215.5" y="-157.2" font-family="Helvetica" font-size="11.00">resultCode</text>
</g>
<!-- n15&#45;&gt;n16 -->
<g id="edge13" class="edge">
<title>n15&#45;&gt;n16</title>
<path fill="none" stroke="#555555" d="M1095.06,-160C1116.43,-160 1142.44,-160 1164.72,-160"/>
<polygon fill="#555555" stroke="#555555" points="1165,-163.5 1175,-160 1165,-156.5 1165,-163.5"/>
</g>
<!-- n3 -->
<g id="node13" class="node">
<title>n3</title>
<path fill="#e8f4f8" stroke="black" d="M1419,-243C1419,-243 1348,-243 1348,-243 1342,-243 1336,-237 1336,-231 1336,-231 1336,-219 1336,-219 1336,-213 1342,-207 1348,-207 1348,-207 1419,-207 1419,-207 1425,-207 1431,-213 1431,-219 1431,-219 1431,-231 1431,-231 1431,-237 1425,-243 1419,-243"/>
<text text-anchor="middle" x="1383.5" y="-222.2" font-family="Helvetica" font-size="11.00">GetVariable&#45;1</text>
</g>
<!-- n16&#45;&gt;n3 -->
<g id="edge16" class="edge">
<title>n16&#45;&gt;n3</title>
<path fill="none" stroke="#555555" d="M1256.26,-175.57C1277.42,-183.85 1303.78,-194.18 1326.94,-203.24"/>
<polygon fill="#555555" stroke="#555555" points="1325.71,-206.52 1336.3,-206.91 1328.26,-200 1325.71,-206.52"/>
</g>
<!-- n5 -->
<g id="node15" class="node">
<title>n5</title>
<path fill="#ffccbc" stroke="black" d="M1863,-245C1863,-245 1833,-245 1833,-245 1827,-245 1821,-239 1821,-233 1821,-233 1821,-221 1821,-221 1821,-215 1827,-209 1833,-209 1833,-209 1863,-209 1863,-209 1869,-209 1875,-215 1875,-221 1875,-221 1875,-233 1875,-233 1875,-239 1869,-245 1863,-245"/>
<text text-anchor="middle" x="1848" y="-224.2" font-family="Helvetica" font-size="11.00">End</text>
</g>
<!-- n16&#45;&gt;n5 -->
<g id="edge17" class="edge">
<title>n16&#45;&gt;n5</title>
<path fill="none" stroke="#555555" d="M1256.21,-160.81C1332.85,-162.75 1506.35,-169.03 1651,-188 1707.37,-195.39 1771.88,-209.3 1811.01,-218.35"/>
<polygon fill="#555555" stroke="#555555" points="1810.34,-221.79 1820.87,-220.66 1811.93,-214.97 1810.34,-221.79"/>
</g>
<!-- n17 -->
<g id="node10" class="node">
<title>n17</title>
<path fill="#ffcdd2" stroke="black" d="M1585,-36C1585,-36 1555,-36 1555,-36 1549,-36 1543,-30 1543,-24 1543,-24 1543,-12 1543,-12 1543,-6 1549,0 1555,0 1555,0 1585,0 1585,0 1591,0 1597,-6 1597,-12 1597,-12 1597,-24 1597,-24 1597,-30 1591,-36 1585,-36"/>
<text text-anchor="middle" x="1570" y="-15.2" font-family="Helvetica" font-size="11.00">Error</text>
</g>
<!-- n18 -->
<g id="node11" class="node">
<title>n18</title>
<path fill="#e8f4f8" stroke="black" d="M1751,-328C1751,-328 1721,-328 1721,-328 1715,-328 1709,-322 1709,-316 1709,-316 1709,-304 1709,-304 1709,-298 1715,-292 1721,-292 1721,-292 1751,-292 1751,-292 1757,-292 1763,-298 1763,-304 1763,-304 1763,-316 1763,-316 1763,-322 1757,-328 1751,-328"/>
<text text-anchor="middle" x="1736" y="-307.2" font-family="Helvetica" font-size="11.00">Null</text>
</g>
<!-- n18&#45;&gt;n5 -->
<g id="edge21" class="edge">
<title>n18&#45;&gt;n5</title>
<path fill="none" stroke="#555555" d="M1760.87,-291.99C1776.62,-280.11 1797.44,-264.4 1814.67,-251.4"/>
<polygon fill="#555555" stroke="#555555" points="1816.92,-254.08 1822.8,-245.26 1812.71,-248.49 1816.92,-254.08"/>
</g>
<!-- n2&#45;&gt;n10 -->
<g id="edge18" class="edge">
<title>n2&#45;&gt;n10</title>
<path fill="none" stroke="#555555" d="M785.92,-81C809.01,-81 837.11,-81 860.43,-81"/>
<polygon fill="#555555" stroke="#555555" points="860.43,-84.5 870.43,-81 860.43,-77.5 860.43,-84.5"/>
</g>
<!-- n4 -->
<g id="node14" class="node">
<title>n4</title>
<path fill="#ffccbc" stroke="black" d="M1639,-245C1639,-245 1501,-245 1501,-245 1495,-245 1489,-239 1489,-233 1489,-233 1489,-221 1489,-221 1489,-215 1495,-209 1501,-209 1501,-209 1639,-209 1639,-209 1645,-209 1651,-215 1651,-221 1651,-221 1651,-233 1651,-233 1651,-239 1645,-245 1639,-245"/>
<text text-anchor="middle" x="1570" y="-224.2" font-family="Helvetica" font-size="11.00">RenderBackEndError&#45;Reply</text>
</g>
<!-- n3&#45;&gt;n4 -->
<g id="edge3" class="edge">
<title>n3&#45;&gt;n4</title>
<path fill="none" stroke="#555555" d="M1431.06,-225.5C1445.56,-225.66 1462.07,-225.84 1478.51,-226.02"/>
<polygon fill="#555555" stroke="#555555" points="1478.68,-229.52 1488.71,-226.13 1478.75,-222.52 1478.68,-229.52"/>
</g>
<!-- n4&#45;&gt;n18 -->
<g id="edge20" class="edge">
<title>n4&#45;&gt;n18</title>
<path fill="none" stroke="#555555" d="M1606.59,-245.01C1634.14,-258.96 1672.13,-278.18 1699.63,-292.1"/>
<polygon fill="#555555" stroke="#555555" points="1698.38,-295.39 1708.88,-296.78 1701.54,-289.14 1698.38,-295.39"/>
</g>
<!-- n4&#45;&gt;n5 -->
<g id="edge4" class="edge">
<title>n4&#45;&gt;n5</title>
<path fill="none" stroke="#555555" d="M1651.2,-227C1703.94,-227 1770.44,-227 1810.78,-227"/>
<polygon fill="#555555" stroke="#555555" points="1810.95,-230.5 1820.95,-227 1810.95,-223.5 1810.95,-230.5"/>
</g>
<!-- n6&#45;&gt;n15 -->
<g id="edge15" class="edge">
<title>n6&#45;&gt;n15</title>
<path fill="none" stroke="#555555" d="M950.31,-160C965.16,-160 982.13,-160 997.82,-160"/>
<polygon fill="#555555" stroke="#555555" points="997.91,-163.5 1007.91,-160 997.91,-156.5 997.91,-163.5"/>
</g>
<!-- n7&#45;&gt;n8 -->
<g id="edge6" class="edge">
<title>n7&#45;&gt;n8</title>
<path fill="none" stroke="#555555" d="M1092.54,-65.43C1112.46,-57.68 1136.86,-48.19 1158.58,-39.75"/>
<polygon fill="#555555" stroke="#555555" points="1159.98,-42.96 1168.03,-36.07 1157.44,-36.43 1159.98,-42.96"/>
</g>
<!-- n9 -->
<g id="node19" class="node">
<title>n9</title>
<path fill="#e8f4f8" stroke="black" d="M1414.5,-36C1414.5,-36 1352.5,-36 1352.5,-36 1346.5,-36 1340.5,-30 1340.5,-24 1340.5,-24 1340.5,-12 1340.5,-12 1340.5,-6 1346.5,0 1352.5,0 1352.5,0 1414.5,0 1414.5,0 1420.5,0 1426.5,-6 1426.5,-12 1426.5,-12 1426.5,-24 1426.5,-24 1426.5,-30 1420.5,-36 1414.5,-36"/>
<text text-anchor="middle" x="1383.5" y="-15.2" font-family="Helvetica" font-size="11.00">Map&#45;Data&#45;1</text>
</g>
<!-- n8&#45;&gt;n9 -->
<g id="edge7" class="edge">
<title>n8&#45;&gt;n9</title>
<path fill="none" stroke="#555555" d="M1278.31,-18C1295.25,-18 1313.45,-18 1329.82,-18"/>
<polygon fill="#555555" stroke="#555555" points="1330.29,-21.5 1340.29,-18 1330.29,-14.5 1330.29,-21.5"/>
</g>
<!-- n9&#45;&gt;n17 -->
<g id="edge19" class="edge">
<title>n9&#45;&gt;n17</title>
<path fill="none" stroke="#555555" d="M1426.83,-18C1458.8,-18 1502.23,-18 1532.65,-18"/>
<polygon fill="#555555" stroke="#555555" points="1532.82,-21.5 1542.82,-18 1532.82,-14.5 1532.82,-21.5"/>
</g>
</g>
</svg>
