<?xml version="1.0" encoding="UTF-8" standalone="no"?>
<!DOCTYPE svg PUBLIC "-//W3C//DTD SVG 1.1//EN"
 "http://www.w3.org/Graphics/SVG/1.1/DTD/svg11.dtd">
<!-- Generated by graphviz version 2.44.0 (0)
 -->
<!-- Title: process Pages: 1 -->
<svg width="614pt" height="345pt"
 viewBox="0.00 0.00 614.00 345.00" xmlns="http://www.w3.org/2000/svg" xmlns:xlink="http://www.w3.org/1999/xlink">
<g id="graph0" class="graph" transform="scale(1 1) rotate(0) translate(36 309)">
<title>process</title>
<polygon fill="#ffffff" stroke="transparent" points="-36,36 -36,-309 578,-309 578,36 -36,36"/>
<!-- n0 -->
<g id="node1" class="node">
<title>n0</title>
<path fill="#c8e6c9" stroke="black" d="M42,-154C42,-154 12,-154 12,-154 6,-154 0,-148 0,-142 0,-142 0,-130 0,-130 0,-124 6,-118 12,-118 12,-118 42,-118 42,-118 48,-118 54,-124 54,-130 54,-130 54,-142 54,-142 54,-148 48,-154 42,-154"/>
<text text-anchor="middle" x="27" y="-133.2" font-family="Helvetica" font-size="11.00">Start</text>
</g>
<!-- n1 -->
<g id="node2" class="node">
<title>n1</title>
<path fill="#e8f4f8" stroke="black" d="M288,-115C288,-115 127,-115 127,-115 121,-115 115,-109 115,-103 115,-103 115,-91 115,-91 115,-85 121,-79 127,-79 127,-79 288,-79 288,-79 294,-79 300,-85 300,-91 300,-91 300,-103 300,-103 300,-109 294,-115 288,-115"/>
<text text-anchor="middle" x="207.5" y="-94.2" font-family="Helvetica" font-size="11.00">UserDataRequest.2_CSLocation</text>
</g>
<!-- n0&#45;&gt;n1 -->
<g id="edge1" class="edge">
<title>n0&#45;&gt;n1</title>
<path fill="none" stroke="#555555" d="M54.34,-130.25C70.4,-126.74 92,-122.02 113.86,-117.24"/>
<polygon fill="#555555" stroke="#555555" points="114.89,-120.6 123.91,-115.05 113.39,-113.76 114.89,-120.6"/>
</g>
<!-- n3 -->
<g id="node4" class="node">
<title>n3</title>
<path fill="#e8f4f8" stroke="black" d="M287.5,-36C287.5,-36 127.5,-36 127.5,-36 121.5,-36 115.5,-30 115.5,-24 115.5,-24 115.5,-12 115.5,-12 115.5,-6 121.5,0 127.5,0 127.5,0 287.5,0 287.5,0 293.5,0 299.5,-6 299.5,-12 299.5,-12 299.5,-24 299.5,-24 299.5,-30 293.5,-36 287.5,-36"/>
<text text-anchor="middle" x="207.5" y="-15.2" font-family="Helvetica" font-size="11.00">UserDataRequest.2_PSLocation</text>
</g>
<!-- n0&#45;&gt;n3 -->
<g id="edge3" class="edge">
<title>n0&#45;&gt;n3</title>
<path fill="none" stroke="#555555" d="M43.82,-117.67C59.65,-100.22 85.42,-74.15 112,-57 121.9,-50.61 133.03,-44.91 144.07,-39.97"/>
<polygon fill="#555555" stroke="#555555" points="145.5,-43.17 153.3,-36.01 142.73,-36.74 145.5,-43.17"/>
</g>
<!-- n4 -->
<g id="node5" class="node">
<title>n4</title>
<path fill="#e8f4f8" stroke="black" d="M291,-273C291,-273 124,-273 124,-273 118,-273 112,-267 112,-261 112,-261 112,-249 112,-249 112,-243 118,-237 124,-237 124,-237 291,-237 291,-237 297,-237 303,-243 303,-249 303,-249 303,-261 303,-261 303,-267 297,-273 291,-273"/>
<text text-anchor="middle" x="207.5" y="-252.2" font-family="Helvetica" font-size="11.00">UserDataRequest.2_EPSLocation</text>
</g>
<!-- n0&#45;&gt;n4 -->
<g id="edge4" class="edge">
<title>n0&#45;&gt;n4</title>
<path fill="none" stroke="#555555" d="M43.48,-154.24C59.25,-171.92 85.15,-198.55 112,-216 121.67,-222.28 132.52,-227.89 143.32,-232.76"/>
<polygon fill="#555555" stroke="#555555" points="142.21,-236.09 152.78,-236.84 144.99,-229.66 142.21,-236.09"/>
</g>
<!-- n7 -->
<g id="node8" class="node">
<title>n7</title>
<path fill="#e8f4f8" stroke="black" d="M287.5,-194C287.5,-194 127.5,-194 127.5,-194 121.5,-194 115.5,-188 115.5,-182 115.5,-182 115.5,-170 115.5,-170 115.5,-164 121.5,-158 127.5,-158 127.5,-158 287.5,-158 287.5,-158 293.5,-158 299.5,-164 299.5,-170 299.5,-170 299.5,-182 299.5,-182 299.5,-188 293.5,-194 287.5,-194"/>
<text text-anchor="middle" x="207.5" y="-173.2" font-family="Helvetica" font-size="11.00">UserDataRequest.2_5GLocation</text>
</g>
<!-- n0&#45;&gt;n7 -->
<g id="edge12" class="edge">
<title>n0&#45;&gt;n7</title>
<path fill="none" stroke="#555555" d="M54.34,-141.9C70.9,-145.61 93.33,-150.64 115.88,-155.69"/>
<polygon fill="#555555" stroke="#555555" points="115.36,-159.16 125.88,-157.93 116.89,-152.33 115.36,-159.16"/>
</g>
<!-- n2 -->
<g id="node3" class="node">
<title>n2</title>
<path fill="#e8f4f8" stroke="black" d="M418,-194C418,-194 373,-194 373,-194 367,-194 361,-188 361,-182 361,-182 361,-170 361,-170 361,-164 367,-158 373,-158 373,-158 418,-158 418,-158 424,-158 430,-164 430,-170 430,-170 430,-182 430,-182 430,-188 424,-194 418,-194"/>
<text text-anchor="middle" x="395.5" y="-173.2" font-family="Helvetica" font-size="11.00">Success</text>
</g>
<!-- n1&#45;&gt;n2 -->
<g id="edge2" class="edge">
<title>n1&#45;&gt;n2</title>
<path fill="none" stroke="#555555" d="M251.32,-115.1C267.51,-121.95 286.11,-129.83 303,-137 318.79,-143.71 336.11,-151.09 351.4,-157.6"/>
<polygon fill="#555555" stroke="#555555" points="350.04,-160.83 360.61,-161.53 352.79,-154.39 350.04,-160.83"/>
</g>
<!-- n5 -->
<g id="node6" class="node">
<title>n5</title>
<path fill="#ffcdd2" stroke="black" d="M410.5,-115C410.5,-115 380.5,-115 380.5,-115 374.5,-115 368.5,-109 368.5,-103 368.5,-103 368.5,-91 368.5,-91 368.5,-85 374.5,-79 380.5,-79 380.5,-79 410.5,-79 410.5,-79 416.5,-79 422.5,-85 422.5,-91 422.5,-91 422.5,-103 422.5,-103 422.5,-109 416.5,-115 410.5,-115"/>
<text text-anchor="middle" x="395.5" y="-94.2" font-family="Helvetica" font-size="11.00">Error</text>
</g>
<!-- n1&#45;&gt;n5 -->
<g id="edge7" class="edge">
<title>n1&#45;&gt;n5</title>
<path fill="none" stroke="#555555" d="M300.14,-97C320.6,-97 341.15,-97 357.82,-97"/>
<polygon fill="#555555" stroke="#555555" points="358.18,-100.5 368.18,-97 358.18,-93.5 358.18,-100.5"/>
</g>
<!-- n6 -->
<g id="node7" class="node">
<title>n6</title>
<path fill="#ffccbc" stroke="black" d="M530,-154C530,-154 500,-154 500,-154 494,-154 488,-148 488,-142 488,-142 488,-130 488,-130 488,-124 494,-118 500,-118 500,-118 530,-118 530,-118 536,-118 542,-124 542,-130 542,-130 542,-142 542,-142 542,-148 536,-154 530,-154"/>
<text text-anchor="middle" x="515" y="-133.2" font-family="Helvetica" font-size="11.00">End</text>
</g>
<!-- n2&#45;&gt;n6 -->
<g id="edge11" class="edge">
<title>n2&#45;&gt;n6</title>
<path fill="none" stroke="#555555" d="M430.17,-164.54C445.19,-159.42 462.9,-153.39 478.17,-148.2"/>
<polygon fill="#555555" stroke="#555555" points="479.45,-151.46 487.79,-144.92 477.2,-144.83 479.45,-151.46"/>
</g>
<!-- n3&#45;&gt;n2 -->
<g id="edge5" class="edge">
<title>n3&#45;&gt;n2</title>
<path fill="none" stroke="#555555" d="M266.75,-36.13C279.44,-41.64 292.27,-48.54 303,-57 337.49,-84.18 333.78,-102.54 361,-137 364.3,-141.18 367.89,-145.54 371.45,-149.75"/>
<polygon fill="#555555" stroke="#555555" points="369.01,-152.29 378.16,-157.61 374.33,-147.74 369.01,-152.29"/>
</g>
<!-- n3&#45;&gt;n5 -->
<g id="edge9" class="edge">
<title>n3&#45;&gt;n5</title>
<path fill="none" stroke="#555555" d="M252.81,-36.06C268.67,-42.59 286.66,-50.06 303,-57 321.41,-64.82 341.81,-73.72 358.66,-81.13"/>
<polygon fill="#555555" stroke="#555555" points="357.57,-84.47 368.14,-85.3 360.4,-78.07 357.57,-84.47"/>
</g>
<!-- n4&#45;&gt;n2 -->
<g id="edge6" class="edge">
<title>n4&#45;&gt;n2</title>
<path fill="none" stroke="#555555" d="M252.81,-236.94C268.67,-230.41 286.66,-222.94 303,-216 318.86,-209.26 336.19,-201.73 351.47,-195.03"/>
<polygon fill="#555555" stroke="#555555" points="352.93,-198.21 360.68,-190.98 350.12,-191.8 352.93,-198.21"/>
</g>
<!-- n4&#45;&gt;n5 -->
<g id="edge8" class="edge">
<title>n4&#45;&gt;n5</title>
<path fill="none" stroke="#555555" d="M266.71,-236.82C279.41,-231.31 292.24,-224.43 303,-216 337.29,-189.14 334.11,-171.27 361,-137 364.56,-132.46 368.43,-127.7 372.23,-123.11"/>
<polygon fill="#555555" stroke="#555555" points="375.18,-125.03 378.91,-115.12 369.81,-120.54 375.18,-125.03"/>
</g>
<!-- n5&#45;&gt;n6 -->
<g id="edge10" class="edge">
<title>n5&#45;&gt;n6</title>
<path fill="none" stroke="#555555" d="M422.58,-105.66C439.01,-111.11 460.43,-118.22 478.41,-124.19"/>
<polygon fill="#555555" stroke="#555555" points="477.4,-127.54 488,-127.37 479.61,-120.9 477.4,-127.54"/>
</g>
<!-- n7&#45;&gt;n2 -->
<g id="edge14" class="edge">
<title>n7&#45;&gt;n2</title>
<path fill="none" stroke="#555555" d="M299.59,-176C317.39,-176 335.28,-176 350.66,-176"/>
<polygon fill="#555555" stroke="#555555" points="350.87,-179.5 360.87,-176 350.87,-172.5 350.87,-179.5"/>
</g>
<!-- n7&#45;&gt;n5 -->
<g id="edge13" class="edge">
<title>n7&#45;&gt;n5</title>
<path fill="none" stroke="#555555" d="M252.81,-157.94C268.67,-151.41 286.66,-143.94 303,-137 321.41,-129.18 341.81,-120.28 358.66,-112.87"/>
<polygon fill="#555555" stroke="#555555" points="360.4,-115.93 368.14,-108.7 357.57,-109.53 360.4,-115.93"/>
</g>
</g>
</svg>
