<?xml version="1.0" encoding="UTF-8" standalone="no"?>
<!DOCTYPE svg PUBLIC "-//W3C//DTD SVG 1.1//EN"
 "http://www.w3.org/Graphics/SVG/1.1/DTD/svg11.dtd">
<!-- Generated by graphviz version 2.44.0 (0)
 -->
<!-- Title: process Pages: 1 -->
<svg width="550pt" height="187pt"
 viewBox="0.00 0.00 550.00 187.00" xmlns="http://www.w3.org/2000/svg" xmlns:xlink="http://www.w3.org/1999/xlink">
<g id="graph0" class="graph" transform="scale(1 1) rotate(0) translate(36 151)">
<title>process</title>
<polygon fill="#ffffff" stroke="transparent" points="-36,36 -36,-151 514,-151 514,36 -36,36"/>
<!-- n0 -->
<g id="node1" class="node">
<title>n0</title>
<path fill="#c8e6c9" stroke="black" d="M42,-36C42,-36 12,-36 12,-36 6,-36 0,-30 0,-24 0,-24 0,-12 0,-12 0,-6 6,0 12,0 12,0 42,0 42,0 48,0 54,-6 54,-12 54,-12 54,-24 54,-24 54,-30 48,-36 42,-36"/>
<text text-anchor="middle" x="27" y="-15.2" font-family="Helvetica" font-size="11.00">start</text>
</g>
<!-- n1 -->
<g id="node2" class="node">
<title>n1</title>
<path fill="#e8f4f8" stroke="black" d="M240,-36C240,-36 124,-36 124,-36 118,-36 112,-30 112,-24 112,-24 112,-12 112,-12 112,-6 118,0 124,0 124,0 240,0 240,0 246,0 252,-6 252,-12 252,-12 252,-24 252,-24 252,-30 246,-36 240,-36"/>
<text text-anchor="middle" x="182" y="-15.2" font-family="Helvetica" font-size="11.00">EmptyAuditErrorCache</text>
</g>
<!-- n0&#45;&gt;n1 -->
<g id="edge1" class="edge">
<title>n0&#45;&gt;n1</title>
<path fill="none" stroke="#555555" d="M54.3,-18C67.66,-18 84.67,-18 101.86,-18"/>
<polygon fill="#555555" stroke="#555555" points="101.97,-21.5 111.97,-18 101.97,-14.5 101.97,-21.5"/>
</g>
<!-- n2 -->
<g id="node3" class="node">
<title>n2</title>
<path fill="#e8f4f8" stroke="black" d="M354,-36C354,-36 322,-36 322,-36 316,-36 310,-30 310,-24 310,-24 310,-12 310,-12 310,-6 316,0 322,0 322,0 354,0 354,0 360,0 366,-6 366,-12 366,-12 366,-24 366,-24 366,-30 360,-36 354,-36"/>
<text text-anchor="middle" x="338" y="-15.2" font-family="Helvetica" font-size="11.00">Sleep</text>
</g>
<!-- n1&#45;&gt;n2 -->
<g id="edge3" class="edge">
<title>n1&#45;&gt;n2</title>
<path fill="none" stroke="#555555" d="M252.34,-18C268.63,-18 285.38,-18 299.63,-18"/>
<polygon fill="#555555" stroke="#555555" points="300,-21.5 310,-18 300,-14.5 300,-21.5"/>
</g>
<!-- n3 -->
<g id="node4" class="node">
<title>n3</title>
<path fill="#ffccbc" stroke="black" d="M466,-36C466,-36 436,-36 436,-36 430,-36 424,-30 424,-24 424,-24 424,-12 424,-12 424,-6 430,0 436,0 436,0 466,0 466,0 472,0 478,-6 478,-12 478,-12 478,-24 478,-24 478,-30 472,-36 466,-36"/>
<text text-anchor="middle" x="451" y="-15.2" font-family="Helvetica" font-size="11.00">end</text>
</g>
<!-- n2&#45;&gt;n3 -->
<g id="edge2" class="edge">
<title>n2&#45;&gt;n3</title>
<path fill="none" stroke="#555555" d="M366.15,-18C380.44,-18 398.16,-18 413.62,-18"/>
<polygon fill="#555555" stroke="#555555" points="413.89,-21.5 423.89,-18 413.89,-14.5 413.89,-21.5"/>
</g>
<!-- n4 -->
<g id="node5" class="node">
<title>n4</title>
<path fill="#e8f4f8" stroke="black" d="M199.5,-115C199.5,-115 164.5,-115 164.5,-115 158.5,-115 152.5,-109 152.5,-103 152.5,-103 152.5,-91 152.5,-91 152.5,-85 158.5,-79 164.5,-79 164.5,-79 199.5,-79 199.5,-79 205.5,-79 211.5,-85 211.5,-91 211.5,-91 211.5,-103 211.5,-103 211.5,-109 205.5,-115 199.5,-115"/>
<text text-anchor="middle" x="182" y="-94.2" font-family="Helvetica" font-size="11.00">Group</text>
</g>
<!-- n5 -->
<g id="node6" class="node">
<title>n5</title>
<path fill="#ffccbc" stroke="black" d="M353,-115C353,-115 323,-115 323,-115 317,-115 311,-109 311,-103 311,-103 311,-91 311,-91 311,-85 317,-79 323,-79 323,-79 353,-79 353,-79 359,-79 365,-85 365,-91 365,-91 365,-103 365,-103 365,-109 359,-115 353,-115"/>
<text text-anchor="middle" x="338" y="-94.2" font-family="Helvetica" font-size="11.00">End</text>
</g>
<!-- n4&#45;&gt;n5 -->
<g id="edge4" class="edge">
<title>n4&#45;&gt;n5</title>
<path fill="none" stroke="#555555" d="M211.61,-97C236.72,-97 273.37,-97 300.57,-97"/>
<polygon fill="#555555" stroke="#555555" points="300.86,-100.5 310.86,-97 300.86,-93.5 300.86,-100.5"/>
</g>
<!-- n6 -->
<g id="node7" class="node">
<title>n6</title>
<path fill="#c8e6c9" stroke="black" d="M42,-115C42,-115 12,-115 12,-115 6,-115 0,-109 0,-103 0,-103 0,-91 0,-91 0,-85 6,-79 12,-79 12,-79 42,-79 42,-79 48,-79 54,-85 54,-91 54,-91 54,-103 54,-103 54,-109 48,-115 42,-115"/>
<text text-anchor="middle" x="27" y="-94.2" font-family="Helvetica" font-size="11.00">Start</text>
</g>
<!-- n6&#45;&gt;n4 -->
<g id="edge5" class="edge">
<title>n6&#45;&gt;n4</title>
<path fill="none" stroke="#555555" d="M54.3,-97C78.55,-97 114.83,-97 142.37,-97"/>
<polygon fill="#555555" stroke="#555555" points="142.45,-100.5 152.45,-97 142.45,-93.5 142.45,-100.5"/>
</g>
</g>
</svg>
