<?xml version="1.0" encoding="UTF-8" standalone="no"?>
<!DOCTYPE svg PUBLIC "-//W3C//DTD SVG 1.1//EN"
 "http://www.w3.org/Graphics/SVG/1.1/DTD/svg11.dtd">
<!-- Generated by graphviz version 2.44.0 (0)
 -->
<!-- Title: process Pages: 1 -->
<svg width="831pt" height="187pt"
 viewBox="0.00 0.00 831.00 187.00" xmlns="http://www.w3.org/2000/svg" xmlns:xlink="http://www.w3.org/1999/xlink">
<g id="graph0" class="graph" transform="scale(1 1) rotate(0) translate(36 151)">
<title>process</title>
<polygon fill="#ffffff" stroke="transparent" points="-36,36 -36,-151 795,-151 795,36 -36,36"/>
<!-- n0 -->
<g id="node1" class="node">
<title>n0</title>
<path fill="#e8f4f8" stroke="black" d="M64,-75C64,-75 12,-75 12,-75 6,-75 0,-69 0,-63 0,-63 0,-51 0,-51 0,-45 6,-39 12,-39 12,-39 64,-39 64,-39 70,-39 76,-45 76,-51 76,-51 76,-63 76,-63 76,-69 70,-75 64,-75"/>
<text text-anchor="middle" x="38" y="-54.2" font-family="Helvetica" font-size="11.00">onStartup</text>
</g>
<!-- n1 -->
<g id="node2" class="node">
<title>n1</title>
<path fill="#c8e6c9" stroke="black" d="M223,-75C223,-75 146,-75 146,-75 140,-75 134,-69 134,-63 134,-63 134,-51 134,-51 134,-45 140,-39 146,-39 146,-39 223,-39 223,-39 229,-39 235,-45 235,-51 235,-51 235,-63 235,-63 235,-69 229,-75 223,-75"/>
<text text-anchor="middle" x="184.5" y="-54.2" font-family="Helvetica" font-size="11.00">Start Log Audit</text>
</g>
<!-- n0&#45;&gt;n1 -->
<g id="edge1" class="edge">
<title>n0&#45;&gt;n1</title>
<path fill="none" stroke="#555555" d="M76.21,-57C90.62,-57 107.47,-57 123.5,-57"/>
<polygon fill="#555555" stroke="#555555" points="123.88,-60.5 133.88,-57 123.88,-53.5 123.88,-60.5"/>
</g>
<!-- n5 -->
<g id="node6" class="node">
<title>n5</title>
<path fill="#e8f4f8" stroke="black" d="M446,-75C446,-75 305,-75 305,-75 299,-75 293,-69 293,-63 293,-63 293,-51 293,-51 293,-45 299,-39 305,-39 305,-39 446,-39 446,-39 452,-39 458,-45 458,-51 458,-51 458,-63 458,-63 458,-69 452,-75 446,-75"/>
<text text-anchor="middle" x="375.5" y="-54.2" font-family="Helvetica" font-size="11.00">LoadAllDiameterErrorCodes</text>
</g>
<!-- n1&#45;&gt;n5 -->
<g id="edge4" class="edge">
<title>n1&#45;&gt;n5</title>
<path fill="none" stroke="#555555" d="M235.16,-57C249.74,-57 266.18,-57 282.51,-57"/>
<polygon fill="#555555" stroke="#555555" points="282.65,-60.5 292.65,-57 282.65,-53.5 282.65,-60.5"/>
</g>
<!-- n2 -->
<g id="node3" class="node">
<title>n2</title>
<path fill="#e8f4f8" stroke="black" d="M635,-115C635,-115 528,-115 528,-115 522,-115 516,-109 516,-103 516,-103 516,-91 516,-91 516,-85 522,-79 528,-79 528,-79 635,-79 635,-79 641,-79 647,-85 647,-91 647,-91 647,-103 647,-103 647,-109 641,-115 635,-115"/>
<text text-anchor="middle" x="581.5" y="-94.2" font-family="Helvetica" font-size="11.00">Shutdown BWEngine</text>
</g>
<!-- n3 -->
<g id="node4" class="node">
<title>n3</title>
<path fill="#ffccbc" stroke="black" d="M747,-75C747,-75 717,-75 717,-75 711,-75 705,-69 705,-63 705,-63 705,-51 705,-51 705,-45 711,-39 717,-39 717,-39 747,-39 747,-39 753,-39 759,-45 759,-51 759,-51 759,-63 759,-63 759,-69 753,-75 747,-75"/>
<text text-anchor="middle" x="732" y="-54.2" font-family="Helvetica" font-size="11.00">End</text>
</g>
<!-- n2&#45;&gt;n3 -->
<g id="edge2" class="edge">
<title>n2&#45;&gt;n3</title>
<path fill="none" stroke="#555555" d="M647.2,-79.57C663.55,-75.17 680.54,-70.59 694.9,-66.72"/>
<polygon fill="#555555" stroke="#555555" points="696.11,-70.02 704.85,-64.04 694.29,-63.26 696.11,-70.02"/>
</g>
<!-- n4 -->
<g id="node5" class="node">
<title>n4</title>
<path fill="#ffccbc" stroke="black" d="M618,-36C618,-36 545,-36 545,-36 539,-36 533,-30 533,-24 533,-24 533,-12 533,-12 533,-6 539,0 545,0 545,0 618,0 618,0 624,0 630,-6 630,-12 630,-12 630,-24 630,-24 630,-30 624,-36 618,-36"/>
<text text-anchor="middle" x="581.5" y="-15.2" font-family="Helvetica" font-size="11.00">End Audit Log</text>
</g>
<!-- n4&#45;&gt;n3 -->
<g id="edge3" class="edge">
<title>n4&#45;&gt;n3</title>
<path fill="none" stroke="#555555" d="M630.3,-30.55C651.39,-36.09 675.74,-42.49 695.22,-47.6"/>
<polygon fill="#555555" stroke="#555555" points="694.35,-50.99 704.92,-50.15 696.13,-44.22 694.35,-50.99"/>
</g>
<!-- n5&#45;&gt;n2 -->
<g id="edge6" class="edge">
<title>n5&#45;&gt;n2</title>
<path fill="none" stroke="#555555" d="M458.01,-72.98C473.76,-76.07 490.18,-79.29 505.71,-82.33"/>
<polygon fill="#555555" stroke="#555555" points="505.27,-85.82 515.76,-84.31 506.62,-78.95 505.27,-85.82"/>
</g>
<!-- n5&#45;&gt;n4 -->
<g id="edge5" class="edge">
<title>n5&#45;&gt;n4</title>
<path fill="none" stroke="#555555" d="M458.01,-41.42C479.75,-37.26 502.78,-32.86 522.94,-29"/>
<polygon fill="#555555" stroke="#555555" points="523.73,-32.42 532.89,-27.1 522.41,-25.54 523.73,-32.42"/>
</g>
</g>
</svg>
