<?xml version="1.0" encoding="UTF-8" standalone="no"?>
<!DOCTYPE svg PUBLIC "-//W3C//DTD SVG 1.1//EN"
 "http://www.w3.org/Graphics/SVG/1.1/DTD/svg11.dtd">
<!-- Generated by graphviz version 2.44.0 (0)
 -->
<!-- Title: process Pages: 1 -->
<svg width="715pt" height="440pt"
 viewBox="0.00 0.00 715.00 440.00" xmlns="http://www.w3.org/2000/svg" xmlns:xlink="http://www.w3.org/1999/xlink">
<g id="graph0" class="graph" transform="scale(1 1) rotate(0) translate(36 404)">
<title>process</title>
<polygon fill="#ffffff" stroke="transparent" points="-36,36 -36,-404 679,-404 679,36 -36,36"/>
<!-- n0 -->
<g id="node1" class="node">
<title>n0</title>
<path fill="#c8e6c9" stroke="black" d="M42,-160C42,-160 12,-160 12,-160 6,-160 0,-154 0,-148 0,-148 0,-136 0,-136 0,-130 6,-124 12,-124 12,-124 42,-124 42,-124 48,-124 54,-130 54,-136 54,-136 54,-148 54,-148 54,-154 48,-160 42,-160"/>
<text text-anchor="middle" x="27" y="-139.2" font-family="Helvetica" font-size="11.00">start</text>
</g>
<!-- n1 -->
<g id="node2" class="node">
<title>n1</title>
<path fill="#e8f4f8" stroke="black" d="M476.5,-202C476.5,-202 441.5,-202 441.5,-202 435.5,-202 429.5,-196 429.5,-190 429.5,-190 429.5,-178 429.5,-178 429.5,-172 435.5,-166 441.5,-166 441.5,-166 476.5,-166 476.5,-166 482.5,-166 488.5,-172 488.5,-178 488.5,-178 488.5,-190 488.5,-190 488.5,-196 482.5,-202 476.5,-202"/>
<text text-anchor="middle" x="459" y="-181.2" font-family="Helvetica" font-size="11.00">Group</text>
</g>
<!-- n0&#45;&gt;n1 -->
<g id="edge1" class="edge">
<title>n0&#45;&gt;n1</title>
<path fill="none" stroke="#555555" d="M40.28,-160.33C54.75,-180.09 80.81,-210.41 112,-223 217.31,-265.5 354.38,-224.63 419.89,-199.85"/>
<polygon fill="#555555" stroke="#555555" points="421.33,-203.05 429.4,-196.18 418.81,-196.52 421.33,-203.05"/>
</g>
<!-- n2 -->
<g id="node5" class="node">
<title>n2</title>
<path fill="#e8f4f8" stroke="black" d="M188,-202C188,-202 129,-202 129,-202 123,-202 117,-196 117,-190 117,-190 117,-178 117,-178 117,-172 123,-166 129,-166 129,-166 188,-166 188,-166 194,-166 200,-172 200,-178 200,-178 200,-190 200,-190 200,-196 194,-202 188,-202"/>
<text text-anchor="middle" x="158.5" y="-181.2" font-family="Helvetica" font-size="11.00">WriteToLog</text>
</g>
<!-- n0&#45;&gt;n2 -->
<g id="edge2" class="edge">
<title>n0&#45;&gt;n2</title>
<path fill="none" stroke="#555555" d="M54.21,-150.5C69.36,-155.41 88.94,-161.76 106.97,-167.61"/>
<polygon fill="#555555" stroke="#555555" points="106.2,-171.04 116.79,-170.8 108.36,-164.38 106.2,-171.04"/>
</g>
<!-- n5 -->
<g id="node8" class="node">
<title>n5</title>
<path fill="#e8f4f8" stroke="black" d="M519,-119C519,-119 399,-119 399,-119 393,-119 387,-113 387,-107 387,-107 387,-95 387,-95 387,-89 393,-83 399,-83 399,-83 519,-83 519,-83 525,-83 531,-89 531,-95 531,-95 531,-107 531,-107 531,-113 525,-119 519,-119"/>
<text text-anchor="middle" x="459" y="-98.2" font-family="Helvetica" font-size="11.00">SendRequestOneGroup</text>
</g>
<!-- n0&#45;&gt;n5 -->
<g id="edge6" class="edge">
<title>n0&#45;&gt;n5</title>
<path fill="none" stroke="#555555" d="M54.25,-139.5C117.03,-133.51 277.97,-118.17 376.65,-108.76"/>
<polygon fill="#555555" stroke="#555555" points="377.26,-112.21 386.88,-107.78 376.6,-105.25 377.26,-112.21"/>
</g>
<!-- n6 -->
<g id="node9" class="node">
<title>n6</title>
<path fill="#e8f4f8" stroke="black" d="M193,-36C193,-36 124,-36 124,-36 118,-36 112,-30 112,-24 112,-24 112,-12 112,-12 112,-6 118,0 124,0 124,0 193,0 193,0 199,0 205,-6 205,-12 205,-12 205,-24 205,-24 205,-30 199,-36 193,-36"/>
<text text-anchor="middle" x="158.5" y="-15.2" font-family="Helvetica" font-size="11.00">WriteToLog&#45;1</text>
</g>
<!-- n0&#45;&gt;n6 -->
<g id="edge7" class="edge">
<title>n0&#45;&gt;n6</title>
<path fill="none" stroke="#555555" d="M46.83,-123.97C69.08,-102.66 106.24,-67.09 131.29,-43.1"/>
<polygon fill="#555555" stroke="#555555" points="133.84,-45.5 138.65,-36.05 129,-40.44 133.84,-45.5"/>
</g>
<!-- n3 -->
<g id="node6" class="node">
<title>n3</title>
<path fill="#ffccbc" stroke="black" d="M631,-160C631,-160 601,-160 601,-160 595,-160 589,-154 589,-148 589,-148 589,-136 589,-136 589,-130 595,-124 601,-124 601,-124 631,-124 631,-124 637,-124 643,-130 643,-136 643,-136 643,-148 643,-148 643,-154 637,-160 631,-160"/>
<text text-anchor="middle" x="616" y="-139.2" font-family="Helvetica" font-size="11.00">end</text>
</g>
<!-- n1&#45;&gt;n3 -->
<g id="edge3" class="edge">
<title>n1&#45;&gt;n3</title>
<path fill="none" stroke="#555555" d="M488.79,-176.2C514.25,-169.3 551.51,-159.2 578.95,-151.77"/>
<polygon fill="#555555" stroke="#555555" points="580.21,-155.05 588.94,-149.06 578.37,-148.3 580.21,-155.05"/>
</g>
<!-- n10 -->
<g id="node3" class="node">
<title>n10</title>
<path fill="#e8f4f8" stroke="black" d="M311,-368C311,-368 281,-368 281,-368 275,-368 269,-362 269,-356 269,-356 269,-344 269,-344 269,-338 275,-332 281,-332 281,-332 311,-332 311,-332 317,-332 323,-338 323,-344 323,-344 323,-356 323,-356 323,-362 317,-368 311,-368"/>
<text text-anchor="middle" x="296" y="-347.2" font-family="Helvetica" font-size="11.00">loops</text>
</g>
<!-- n11 -->
<g id="node4" class="node">
<title>n11</title>
<path fill="#ffccbc" stroke="black" d="M474,-368C474,-368 444,-368 444,-368 438,-368 432,-362 432,-356 432,-356 432,-344 432,-344 432,-338 438,-332 444,-332 444,-332 474,-332 474,-332 480,-332 486,-338 486,-344 486,-344 486,-356 486,-356 486,-362 480,-368 474,-368"/>
<text text-anchor="middle" x="459" y="-347.2" font-family="Helvetica" font-size="11.00">End</text>
</g>
<!-- n10&#45;&gt;n11 -->
<g id="edge13" class="edge">
<title>n10&#45;&gt;n11</title>
<path fill="none" stroke="#555555" d="M323.23,-350C350.01,-350 391.79,-350 421.73,-350"/>
<polygon fill="#555555" stroke="#555555" points="421.79,-353.5 431.79,-350 421.79,-346.5 421.79,-353.5"/>
</g>
<!-- n4 -->
<g id="node7" class="node">
<title>n4</title>
<path fill="#e8f4f8" stroke="black" d="M317,-202C317,-202 275,-202 275,-202 269,-202 263,-196 263,-190 263,-190 263,-178 263,-178 263,-172 269,-166 275,-166 275,-166 317,-166 317,-166 323,-166 329,-172 329,-178 329,-178 329,-190 329,-190 329,-196 323,-202 317,-202"/>
<text text-anchor="middle" x="296" y="-181.2" font-family="Helvetica" font-size="11.00">Sleep&#45;1</text>
</g>
<!-- n2&#45;&gt;n4 -->
<g id="edge5" class="edge">
<title>n2&#45;&gt;n4</title>
<path fill="none" stroke="#555555" d="M200.15,-184C216.81,-184 236.08,-184 252.88,-184"/>
<polygon fill="#555555" stroke="#555555" points="252.98,-187.5 262.98,-184 252.98,-180.5 252.98,-187.5"/>
</g>
<!-- n4&#45;&gt;n1 -->
<g id="edge4" class="edge">
<title>n4&#45;&gt;n1</title>
<path fill="none" stroke="#555555" d="M329.19,-184C355.15,-184 391.74,-184 419.29,-184"/>
<polygon fill="#555555" stroke="#555555" points="419.37,-187.5 429.37,-184 419.37,-180.5 419.37,-187.5"/>
</g>
<!-- n5&#45;&gt;n3 -->
<g id="edge8" class="edge">
<title>n5&#45;&gt;n3</title>
<path fill="none" stroke="#555555" d="M528.44,-119.1C545.83,-123.7 563.85,-128.47 578.91,-132.45"/>
<polygon fill="#555555" stroke="#555555" points="578.25,-135.9 588.82,-135.07 580.04,-129.13 578.25,-135.9"/>
</g>
<!-- n7 -->
<g id="node10" class="node">
<title>n7</title>
<path fill="#e8f4f8" stroke="black" d="M312,-36C312,-36 280,-36 280,-36 274,-36 268,-30 268,-24 268,-24 268,-12 268,-12 268,-6 274,0 280,0 280,0 312,0 312,0 318,0 324,-6 324,-12 324,-12 324,-24 324,-24 324,-30 318,-36 312,-36"/>
<text text-anchor="middle" x="296" y="-15.2" font-family="Helvetica" font-size="11.00">Sleep</text>
</g>
<!-- n6&#45;&gt;n7 -->
<g id="edge10" class="edge">
<title>n6&#45;&gt;n7</title>
<path fill="none" stroke="#555555" d="M205.37,-18C222.38,-18 241.44,-18 257.6,-18"/>
<polygon fill="#555555" stroke="#555555" points="257.75,-21.5 267.75,-18 257.75,-14.5 257.75,-21.5"/>
</g>
<!-- n7&#45;&gt;n5 -->
<g id="edge9" class="edge">
<title>n7&#45;&gt;n5</title>
<path fill="none" stroke="#555555" d="M324.31,-32.08C348.84,-44.73 385.29,-63.52 413.94,-78.29"/>
<polygon fill="#555555" stroke="#555555" points="412.45,-81.46 422.95,-82.93 415.66,-75.24 412.45,-81.46"/>
</g>
<!-- n8 -->
<g id="node11" class="node">
<title>n8</title>
<path fill="#c8e6c9" stroke="black" d="M42,-368C42,-368 12,-368 12,-368 6,-368 0,-362 0,-356 0,-356 0,-344 0,-344 0,-338 6,-332 12,-332 12,-332 42,-332 42,-332 48,-332 54,-338 54,-344 54,-344 54,-356 54,-356 54,-362 48,-368 42,-368"/>
<text text-anchor="middle" x="27" y="-347.2" font-family="Helvetica" font-size="11.00">Start</text>
</g>
<!-- n9 -->
<g id="node12" class="node">
<title>n9</title>
<path fill="#e8f4f8" stroke="black" d="M193,-368C193,-368 124,-368 124,-368 118,-368 112,-362 112,-356 112,-356 112,-344 112,-344 112,-338 118,-332 124,-332 124,-332 193,-332 193,-332 199,-332 205,-338 205,-344 205,-344 205,-356 205,-356 205,-362 199,-368 193,-368"/>
<text text-anchor="middle" x="158.5" y="-347.2" font-family="Helvetica" font-size="11.00">Prepare Data</text>
</g>
<!-- n8&#45;&gt;n9 -->
<g id="edge11" class="edge">
<title>n8&#45;&gt;n9</title>
<path fill="none" stroke="#555555" d="M54.21,-350C67.92,-350 85.25,-350 101.78,-350"/>
<polygon fill="#555555" stroke="#555555" points="101.93,-353.5 111.93,-350 101.93,-346.5 101.93,-353.5"/>
</g>
<!-- n9&#45;&gt;n10 -->
<g id="edge12" class="edge">
<title>n9&#45;&gt;n10</title>
<path fill="none" stroke="#555555" d="M205.37,-350C222.76,-350 242.29,-350 258.68,-350"/>
<polygon fill="#555555" stroke="#555555" points="258.93,-353.5 268.93,-350 258.93,-346.5 258.93,-353.5"/>
</g>
</g>
</svg>
