<?xml version="1.0" encoding="UTF-8" standalone="no"?>
<!DOCTYPE svg PUBLIC "-//W3C//DTD SVG 1.1//EN"
 "http://www.w3.org/Graphics/SVG/1.1/DTD/svg11.dtd">
<!-- Generated by graphviz version 2.44.0 (0)
 -->
<!-- Title: process Pages: 1 -->
<svg width="1198pt" height="269pt"
 viewBox="0.00 0.00 1198.00 269.00" xmlns="http://www.w3.org/2000/svg" xmlns:xlink="http://www.w3.org/1999/xlink">
<g id="graph0" class="graph" transform="scale(1 1) rotate(0) translate(36 233)">
<title>process</title>
<polygon fill="#ffffff" stroke="transparent" points="-36,36 -36,-233 1162,-233 1162,36 -36,36"/>
<!-- n0 -->
<g id="node1" class="node">
<title>n0</title>
<path fill="#e8f4f8" stroke="black" d="M64,-75C64,-75 12,-75 12,-75 6,-75 0,-69 0,-63 0,-63 0,-51 0,-51 0,-45 6,-39 12,-39 12,-39 64,-39 64,-39 70,-39 76,-45 76,-51 76,-51 76,-63 76,-63 76,-69 70,-75 64,-75"/>
<text text-anchor="middle" x="38" y="-54.2" font-family="Helvetica" font-size="11.00">onStartup</text>
</g>
<!-- n1 -->
<g id="node2" class="node">
<title>n1</title>
<path fill="#c8e6c9" stroke="black" d="M223,-75C223,-75 146,-75 146,-75 140,-75 134,-69 134,-63 134,-63 134,-51 134,-51 134,-45 140,-39 146,-39 146,-39 223,-39 223,-39 229,-39 235,-45 235,-51 235,-51 235,-63 235,-63 235,-69 229,-75 223,-75"/>
<text text-anchor="middle" x="184.5" y="-54.2" font-family="Helvetica" font-size="11.00">Start Log Audit</text>
</g>
<!-- n0&#45;&gt;n1 -->
<g id="edge1" class="edge">
<title>n0&#45;&gt;n1</title>
<path fill="none" stroke="#555555" d="M76.21,-57C90.62,-57 107.47,-57 123.5,-57"/>
<polygon fill="#555555" stroke="#555555" points="123.88,-60.5 133.88,-57 123.88,-53.5 123.88,-60.5"/>
</g>
<!-- n2 -->
<g id="node3" class="node">
<title>n2</title>
<path fill="#e8f4f8" stroke="black" d="M421,-75C421,-75 305,-75 305,-75 299,-75 293,-69 293,-63 293,-63 293,-51 293,-51 293,-45 299,-39 305,-39 305,-39 421,-39 421,-39 427,-39 433,-45 433,-51 433,-51 433,-63 433,-63 433,-69 427,-75 421,-75"/>
<text text-anchor="middle" x="363" y="-54.2" font-family="Helvetica" font-size="11.00">Load Config Properties</text>
</g>
<!-- n1&#45;&gt;n2 -->
<g id="edge2" class="edge">
<title>n1&#45;&gt;n2</title>
<path fill="none" stroke="#555555" d="M235.13,-57C250,-57 266.68,-57 282.94,-57"/>
<polygon fill="#555555" stroke="#555555" points="282.99,-60.5 292.99,-57 282.99,-53.5 282.99,-60.5"/>
</g>
<!-- n3 -->
<g id="node4" class="node">
<title>n3</title>
<path fill="#e8f4f8" stroke="black" d="M607,-117C607,-117 503,-117 503,-117 497,-117 491,-111 491,-105 491,-105 491,-93 491,-93 491,-87 497,-81 503,-81 503,-81 607,-81 607,-81 613,-81 619,-87 619,-93 619,-93 619,-105 619,-105 619,-111 613,-117 607,-117"/>
<text text-anchor="middle" x="555" y="-96.2" font-family="Helvetica" font-size="11.00">Get Connection Plan</text>
</g>
<!-- n2&#45;&gt;n3 -->
<g id="edge10" class="edge">
<title>n2&#45;&gt;n3</title>
<path fill="none" stroke="#555555" d="M433.13,-72.28C448.62,-75.71 465.11,-79.35 480.76,-82.81"/>
<polygon fill="#555555" stroke="#555555" points="480.39,-86.31 490.91,-85.05 481.9,-79.48 480.39,-86.31"/>
</g>
<!-- n9 -->
<g id="node10" class="node">
<title>n9</title>
<path fill="#ffccbc" stroke="black" d="M604.5,-36C604.5,-36 505.5,-36 505.5,-36 499.5,-36 493.5,-30 493.5,-24 493.5,-24 493.5,-12 493.5,-12 493.5,-6 499.5,0 505.5,0 505.5,0 604.5,0 604.5,0 610.5,0 616.5,-6 616.5,-12 616.5,-12 616.5,-24 616.5,-24 616.5,-30 610.5,-36 604.5,-36"/>
<text text-anchor="middle" x="555" y="-15.2" font-family="Helvetica" font-size="11.00">End&#45;ErrorAudit&#45;Log</text>
</g>
<!-- n2&#45;&gt;n9 -->
<g id="edge11" class="edge">
<title>n2&#45;&gt;n9</title>
<path fill="none" stroke="#555555" d="M433.13,-42.81C449.48,-39.46 466.92,-35.87 483.33,-32.5"/>
<polygon fill="#555555" stroke="#555555" points="484.31,-35.88 493.4,-30.44 482.9,-29.02 484.31,-35.88"/>
</g>
<!-- n4 -->
<g id="node5" class="node">
<title>n4</title>
<path fill="#ffccbc" stroke="black" d="M762,-197C762,-197 689,-197 689,-197 683,-197 677,-191 677,-185 677,-185 677,-173 677,-173 677,-167 683,-161 689,-161 689,-161 762,-161 762,-161 768,-161 774,-167 774,-173 774,-173 774,-185 774,-185 774,-191 768,-197 762,-197"/>
<text text-anchor="middle" x="725.5" y="-176.2" font-family="Helvetica" font-size="11.00">End Audit Log</text>
</g>
<!-- n3&#45;&gt;n4 -->
<g id="edge3" class="edge">
<title>n3&#45;&gt;n4</title>
<path fill="none" stroke="#555555" d="M594.24,-117.15C618.8,-128.81 650.88,-144.05 677.06,-156.48"/>
<polygon fill="#555555" stroke="#555555" points="675.88,-159.79 686.42,-160.92 678.88,-153.47 675.88,-159.79"/>
</g>
<!-- n6 -->
<g id="node7" class="node">
<title>n6</title>
<path fill="#e8f4f8" stroke="black" d="M740.5,-117C740.5,-117 710.5,-117 710.5,-117 704.5,-117 698.5,-111 698.5,-105 698.5,-105 698.5,-93 698.5,-93 698.5,-87 704.5,-81 710.5,-81 710.5,-81 740.5,-81 740.5,-81 746.5,-81 752.5,-87 752.5,-93 752.5,-93 752.5,-105 752.5,-105 752.5,-111 746.5,-117 740.5,-117"/>
<text text-anchor="middle" x="725.5" y="-96.2" font-family="Helvetica" font-size="11.00">Null</text>
</g>
<!-- n3&#45;&gt;n6 -->
<g id="edge5" class="edge">
<title>n3&#45;&gt;n6</title>
<path fill="none" stroke="#555555" d="M619.22,-99C642.49,-99 668.05,-99 688.16,-99"/>
<polygon fill="#555555" stroke="#555555" points="688.43,-102.5 698.43,-99 688.43,-95.5 688.43,-102.5"/>
</g>
<!-- n5 -->
<g id="node6" class="node">
<title>n5</title>
<path fill="#ffccbc" stroke="black" d="M1114,-115C1114,-115 1084,-115 1084,-115 1078,-115 1072,-109 1072,-103 1072,-103 1072,-91 1072,-91 1072,-85 1078,-79 1084,-79 1084,-79 1114,-79 1114,-79 1120,-79 1126,-85 1126,-91 1126,-91 1126,-103 1126,-103 1126,-109 1120,-115 1114,-115"/>
<text text-anchor="middle" x="1099" y="-94.2" font-family="Helvetica" font-size="11.00">End</text>
</g>
<!-- n4&#45;&gt;n5 -->
<g id="edge4" class="edge">
<title>n4&#45;&gt;n5</title>
<path fill="none" stroke="#555555" d="M774,-176.42C831.79,-172.29 931.82,-161.95 1014,-137 1030.61,-131.96 1048.08,-124.1 1062.75,-116.68"/>
<polygon fill="#555555" stroke="#555555" points="1064.7,-119.61 1071.96,-111.9 1061.47,-113.4 1064.7,-119.61"/>
</g>
<!-- n7 -->
<g id="node8" class="node">
<title>n7</title>
<path fill="#ffccbc" stroke="black" d="M1002,-115C1002,-115 844,-115 844,-115 838,-115 832,-109 832,-103 832,-103 832,-91 832,-91 832,-85 838,-79 844,-79 844,-79 1002,-79 1002,-79 1008,-79 1014,-85 1014,-91 1014,-91 1014,-103 1014,-103 1014,-109 1008,-115 1002,-115"/>
<text text-anchor="middle" x="923" y="-94.2" font-family="Helvetica" font-size="11.00">End&#45;ErrorAudit&#45;Log&#45;IgnoreError</text>
</g>
<!-- n6&#45;&gt;n7 -->
<g id="edge6" class="edge">
<title>n6&#45;&gt;n7</title>
<path fill="none" stroke="#555555" d="M752.87,-98.73C770.9,-98.55 796.06,-98.29 821.47,-98.03"/>
<polygon fill="#555555" stroke="#555555" points="821.63,-101.53 831.59,-97.92 821.56,-94.53 821.63,-101.53"/>
</g>
<!-- n8 -->
<g id="node9" class="node">
<title>n8</title>
<path fill="#e8f4f8" stroke="black" d="M976.5,-36C976.5,-36 869.5,-36 869.5,-36 863.5,-36 857.5,-30 857.5,-24 857.5,-24 857.5,-12 857.5,-12 857.5,-6 863.5,0 869.5,0 869.5,0 976.5,0 976.5,0 982.5,0 988.5,-6 988.5,-12 988.5,-12 988.5,-24 988.5,-24 988.5,-30 982.5,-36 976.5,-36"/>
<text text-anchor="middle" x="923" y="-15.2" font-family="Helvetica" font-size="11.00">Shutdown BWEngine</text>
</g>
<!-- n6&#45;&gt;n8 -->
<g id="edge7" class="edge">
<title>n6&#45;&gt;n8</title>
<path fill="none" stroke="#555555" d="M752.87,-88.08C782.56,-75.77 831.56,-55.47 869.2,-39.88"/>
<polygon fill="#555555" stroke="#555555" points="870.61,-43.08 878.51,-36.02 867.93,-36.61 870.61,-43.08"/>
</g>
<!-- n7&#45;&gt;n5 -->
<g id="edge9" class="edge">
<title>n7&#45;&gt;n5</title>
<path fill="none" stroke="#555555" d="M1014.06,-97C1030.97,-97 1047.74,-97 1061.78,-97"/>
<polygon fill="#555555" stroke="#555555" points="1061.95,-100.5 1071.95,-97 1061.95,-93.5 1061.95,-100.5"/>
</g>
<!-- n8&#45;&gt;n5 -->
<g id="edge8" class="edge">
<title>n8&#45;&gt;n5</title>
<path fill="none" stroke="#555555" d="M965.28,-36.18C980.61,-42.97 998.12,-50.79 1014,-58 1029.97,-65.26 1047.59,-73.41 1062.54,-80.38"/>
<polygon fill="#555555" stroke="#555555" points="1061.4,-83.71 1071.94,-84.77 1064.36,-77.37 1061.4,-83.71"/>
</g>
<!-- n9&#45;&gt;n8 -->
<g id="edge12" class="edge">
<title>n9&#45;&gt;n8</title>
<path fill="none" stroke="#555555" d="M616.85,-18C680.07,-18 779.09,-18 847.09,-18"/>
<polygon fill="#555555" stroke="#555555" points="847.3,-21.5 857.3,-18 847.3,-14.5 847.3,-21.5"/>
</g>
</g>
</svg>
