<?xml version="1.0" encoding="UTF-8" standalone="no"?>
<!DOCTYPE svg PUBLIC "-//W3C//DTD SVG 1.1//EN"
 "http://www.w3.org/Graphics/SVG/1.1/DTD/svg11.dtd">
<!-- Generated by graphviz version 2.44.0 (0)
 -->
<!-- Title: process Pages: 1 -->
<svg width="3420pt" height="349pt"
 viewBox="0.00 0.00 3420.00 349.32" xmlns="http://www.w3.org/2000/svg" xmlns:xlink="http://www.w3.org/1999/xlink">
<g id="graph0" class="graph" transform="scale(1 1) rotate(0) translate(36 313.32)">
<title>process</title>
<polygon fill="#ffffff" stroke="transparent" points="-36,36 -36,-313.32 3384,-313.32 3384,36 -36,36"/>
<!-- n0 -->
<g id="node1" class="node">
<title>n0</title>
<path fill="#e8f4f8" stroke="black" d="M1458,-77C1458,-77 1388,-77 1388,-77 1382,-77 1376,-71 1376,-65 1376,-65 1376,-53 1376,-53 1376,-47 1382,-41 1388,-41 1388,-41 1458,-41 1458,-41 1464,-41 1470,-47 1470,-53 1470,-53 1470,-65 1470,-65 1470,-71 1464,-77 1458,-77"/>
<text text-anchor="middle" x="1423" y="-56.2" font-family="Helvetica" font-size="11.00">SendRequest</text>
</g>
<!-- n1 -->
<g id="node2" class="node">
<title>n1</title>
<path fill="#ffccbc" stroke="black" d="M1606.5,-117C1606.5,-117 1550.5,-117 1550.5,-117 1544.5,-117 1538.5,-111 1538.5,-105 1538.5,-105 1538.5,-93 1538.5,-93 1538.5,-87 1544.5,-81 1550.5,-81 1550.5,-81 1606.5,-81 1606.5,-81 1612.5,-81 1618.5,-87 1618.5,-93 1618.5,-93 1618.5,-105 1618.5,-105 1618.5,-111 1612.5,-117 1606.5,-117"/>
<text text-anchor="middle" x="1578.5" y="-96.2" font-family="Helvetica" font-size="11.00">Reply&#45;Msg</text>
</g>
<!-- n0&#45;&gt;n1 -->
<g id="edge1" class="edge">
<title>n0&#45;&gt;n1</title>
<path fill="none" stroke="#555555" d="M1470.06,-71C1488.54,-75.82 1509.88,-81.38 1528.64,-86.27"/>
<polygon fill="#555555" stroke="#555555" points="1527.92,-89.7 1538.48,-88.83 1529.68,-82.92 1527.92,-89.7"/>
</g>
<!-- n2 -->
<g id="node13" class="node">
<title>n2</title>
<path fill="#ffcdd2" stroke="black" d="M1617,-38C1617,-38 1540,-38 1540,-38 1534,-38 1528,-32 1528,-26 1528,-26 1528,-14 1528,-14 1528,-8 1534,-2 1540,-2 1540,-2 1617,-2 1617,-2 1623,-2 1629,-8 1629,-14 1629,-14 1629,-26 1629,-26 1629,-32 1623,-38 1617,-38"/>
<text text-anchor="middle" x="1578.5" y="-17.2" font-family="Helvetica" font-size="11.00">Generate Error</text>
</g>
<!-- n0&#45;&gt;n2 -->
<g id="edge2" class="edge">
<title>n0&#45;&gt;n2</title>
<path fill="none" stroke="#555555" d="M1470.06,-47.3C1485.12,-43.47 1502.07,-39.16 1517.99,-35.12"/>
<polygon fill="#555555" stroke="#555555" points="1518.9,-38.5 1527.73,-32.64 1517.18,-31.71 1518.9,-38.5"/>
</g>
<!-- n21 -->
<g id="node15" class="node">
<title>n21</title>
<path fill="#e8f4f8" stroke="black" d="M1954,-116C1954,-116 1924,-116 1924,-116 1918,-116 1912,-110 1912,-104 1912,-104 1912,-92 1912,-92 1912,-86 1918,-80 1924,-80 1924,-80 1954,-80 1954,-80 1960,-80 1966,-86 1966,-92 1966,-92 1966,-104 1966,-104 1966,-110 1960,-116 1954,-116"/>
<text text-anchor="middle" x="1939" y="-95.2" font-family="Helvetica" font-size="11.00">Null</text>
</g>
<!-- n1&#45;&gt;n21 -->
<g id="edge23" class="edge">
<title>n1&#45;&gt;n21</title>
<path fill="none" stroke="#555555" d="M1618.55,-98.89C1688.31,-98.7 1833.41,-98.29 1901.38,-98.1"/>
<polygon fill="#555555" stroke="#555555" points="1901.62,-101.6 1911.61,-98.07 1901.6,-94.6 1901.62,-101.6"/>
</g>
<!-- n3 -->
<g id="node16" class="node">
<title>n3</title>
<path fill="#e8f4f8" stroke="black" d="M1842,-75C1842,-75 1699,-75 1699,-75 1693,-75 1687,-69 1687,-63 1687,-63 1687,-51 1687,-51 1687,-45 1693,-39 1699,-39 1699,-39 1842,-39 1842,-39 1848,-39 1854,-45 1854,-51 1854,-51 1854,-63 1854,-63 1854,-69 1848,-75 1842,-75"/>
<text text-anchor="middle" x="1770.5" y="-54.2" font-family="Helvetica" font-size="11.00">WriteToLog&#45;UDR&#45;Req&#45;Res&#45;1</text>
</g>
<!-- n1&#45;&gt;n3 -->
<g id="edge3" class="edge">
<title>n1&#45;&gt;n3</title>
<path fill="none" stroke="#555555" d="M1618.87,-90.3C1636.13,-86.48 1657.18,-81.83 1678.01,-77.22"/>
<polygon fill="#555555" stroke="#555555" points="1678.86,-80.62 1687.87,-75.04 1677.35,-73.79 1678.86,-80.62"/>
</g>
<!-- n10 -->
<g id="node3" class="node">
<title>n10</title>
<path fill="#e8f4f8" stroke="black" d="M3224,-242C3224,-242 3161,-242 3161,-242 3155,-242 3149,-236 3149,-230 3149,-230 3149,-218 3149,-218 3149,-212 3155,-206 3161,-206 3161,-206 3224,-206 3224,-206 3230,-206 3236,-212 3236,-218 3236,-218 3236,-230 3236,-230 3236,-236 3230,-242 3224,-242"/>
<text text-anchor="middle" x="3192.5" y="-221.2" font-family="Helvetica" font-size="11.00">CSAuditEnd</text>
</g>
<!-- n17 -->
<g id="node10" class="node">
<title>n17</title>
<path fill="#ffccbc" stroke="black" d="M3336,-242C3336,-242 3306,-242 3306,-242 3300,-242 3294,-236 3294,-230 3294,-230 3294,-218 3294,-218 3294,-212 3300,-206 3306,-206 3306,-206 3336,-206 3336,-206 3342,-206 3348,-212 3348,-218 3348,-218 3348,-230 3348,-230 3348,-236 3342,-242 3336,-242"/>
<text text-anchor="middle" x="3321" y="-221.2" font-family="Helvetica" font-size="11.00">End</text>
</g>
<!-- n10&#45;&gt;n17 -->
<g id="edge15" class="edge">
<title>n10&#45;&gt;n17</title>
<path fill="none" stroke="#555555" d="M3236.33,-224C3251.67,-224 3268.81,-224 3283.56,-224"/>
<polygon fill="#555555" stroke="#555555" points="3283.82,-227.5 3293.82,-224 3283.82,-220.5 3283.82,-227.5"/>
</g>
<!-- n11 -->
<g id="node4" class="node">
<title>n11</title>
<path fill="#e8f4f8" stroke="black" d="M2863,-201C2863,-201 2735,-201 2735,-201 2729,-201 2723,-195 2723,-189 2723,-189 2723,-177 2723,-177 2723,-171 2729,-165 2735,-165 2735,-165 2863,-165 2863,-165 2869,-165 2875,-171 2875,-177 2875,-177 2875,-189 2875,-189 2875,-195 2869,-201 2863,-201"/>
<text text-anchor="middle" x="2799" y="-180.2" font-family="Helvetica" font-size="11.00">RequestMessageToString</text>
</g>
<!-- n9 -->
<g id="node22" class="node">
<title>n9</title>
<path fill="#e8f4f8" stroke="black" d="M3079,-201C3079,-201 2945,-201 2945,-201 2939,-201 2933,-195 2933,-189 2933,-189 2933,-177 2933,-177 2933,-171 2939,-165 2945,-165 2945,-165 3079,-165 3079,-165 3085,-165 3091,-171 3091,-177 3091,-177 3091,-189 3091,-189 3091,-195 3085,-201 3079,-201"/>
<text text-anchor="middle" x="3012" y="-180.2" font-family="Helvetica" font-size="11.00">WriteToLog&#45;UDR&#45;Req&#45;Res</text>
</g>
<!-- n11&#45;&gt;n9 -->
<g id="edge8" class="edge">
<title>n11&#45;&gt;n9</title>
<path fill="none" stroke="#555555" d="M2875.28,-183C2890.62,-183 2906.89,-183 2922.64,-183"/>
<polygon fill="#555555" stroke="#555555" points="2922.9,-186.5 2932.9,-183 2922.9,-179.5 2922.9,-186.5"/>
</g>
<!-- n12 -->
<g id="node5" class="node">
<title>n12</title>
<path fill="#e8f4f8" stroke="black" d="M861,-77C861,-77 808,-77 808,-77 802,-77 796,-71 796,-65 796,-65 796,-53 796,-53 796,-47 802,-41 808,-41 808,-41 861,-41 861,-41 867,-41 873,-47 873,-53 873,-53 873,-65 873,-65 873,-71 867,-77 861,-77"/>
<text text-anchor="middle" x="834.5" y="-56.2" font-family="Helvetica" font-size="11.00">UDR Msg</text>
</g>
<!-- n12&#45;&gt;n0 -->
<g id="edge19" class="edge">
<title>n12&#45;&gt;n0</title>
<path fill="none" stroke="#555555" d="M873.08,-59C973.09,-59 1246.21,-59 1365.26,-59"/>
<polygon fill="#555555" stroke="#555555" points="1365.61,-62.5 1375.61,-59 1365.61,-55.5 1365.61,-62.5"/>
</g>
<!-- n13 -->
<g id="node6" class="node">
<title>n13</title>
<path fill="#e8f4f8" stroke="black" d="M1081,-36C1081,-36 943,-36 943,-36 937,-36 931,-30 931,-24 931,-24 931,-12 931,-12 931,-6 937,0 943,0 943,0 1081,0 1081,0 1087,0 1093,-6 1093,-12 1093,-12 1093,-24 1093,-24 1093,-30 1087,-36 1081,-36"/>
<text text-anchor="middle" x="1012" y="-15.2" font-family="Helvetica" font-size="11.00">RequestMessageToString&#45;1</text>
</g>
<!-- n12&#45;&gt;n13 -->
<g id="edge9" class="edge">
<title>n12&#45;&gt;n13</title>
<path fill="none" stroke="#555555" d="M873.15,-50.2C888.11,-46.71 905.98,-42.53 923.83,-38.36"/>
<polygon fill="#555555" stroke="#555555" points="924.78,-41.74 933.72,-36.05 923.19,-34.92 924.78,-41.74"/>
</g>
<!-- n18 -->
<g id="node11" class="node">
<title>n18</title>
<path fill="#e8f4f8" stroke="black" d="M1306,-36C1306,-36 1163,-36 1163,-36 1157,-36 1151,-30 1151,-24 1151,-24 1151,-12 1151,-12 1151,-6 1157,0 1163,0 1163,0 1306,0 1306,0 1312,0 1318,-6 1318,-12 1318,-12 1318,-24 1318,-24 1318,-30 1312,-36 1306,-36"/>
<text text-anchor="middle" x="1234.5" y="-15.2" font-family="Helvetica" font-size="11.00">WriteToLog&#45;UDR&#45;Req&#45;Res&#45;3</text>
</g>
<!-- n13&#45;&gt;n18 -->
<g id="edge16" class="edge">
<title>n13&#45;&gt;n18</title>
<path fill="none" stroke="#555555" d="M1093.23,-18C1108.58,-18 1124.78,-18 1140.49,-18"/>
<polygon fill="#555555" stroke="#555555" points="1140.74,-21.5 1150.74,-18 1140.74,-14.5 1140.74,-21.5"/>
</g>
<!-- n14 -->
<g id="node7" class="node">
<title>n14</title>
<path fill="#e8f4f8" stroke="black" d="M2484,-243C2484,-243 2401,-243 2401,-243 2395,-243 2389,-237 2389,-231 2389,-231 2389,-219 2389,-219 2389,-213 2395,-207 2401,-207 2401,-207 2484,-207 2484,-207 2490,-207 2496,-213 2496,-219 2496,-219 2496,-231 2496,-231 2496,-237 2490,-243 2484,-243"/>
<text text-anchor="middle" x="2442.5" y="-222.2" font-family="Helvetica" font-size="11.00">CheckResponse</text>
</g>
<!-- n15 -->
<g id="node8" class="node">
<title>n15</title>
<path fill="#e8f4f8" stroke="black" d="M2628,-243C2628,-243 2591,-243 2591,-243 2585,-243 2579,-237 2579,-231 2579,-231 2579,-219 2579,-219 2579,-213 2585,-207 2591,-207 2591,-207 2628,-207 2628,-207 2634,-207 2640,-213 2640,-219 2640,-219 2640,-231 2640,-231 2640,-237 2634,-243 2628,-243"/>
<text text-anchor="middle" x="2609.5" y="-222.2" font-family="Helvetica" font-size="11.00">Debug</text>
</g>
<!-- n14&#45;&gt;n15 -->
<g id="edge13" class="edge">
<title>n14&#45;&gt;n15</title>
<path fill="none" stroke="#555555" d="M2496.16,-225C2519.67,-225 2546.9,-225 2568.67,-225"/>
<polygon fill="#555555" stroke="#555555" points="2568.88,-228.5 2578.88,-225 2568.88,-221.5 2568.88,-228.5"/>
</g>
<!-- n7 -->
<g id="node20" class="node">
<title>n7</title>
<path fill="#ffcdd2" stroke="black" d="M2653,-160C2653,-160 2566,-160 2566,-160 2560,-160 2554,-154 2554,-148 2554,-148 2554,-136 2554,-136 2554,-130 2560,-124 2566,-124 2566,-124 2653,-124 2653,-124 2659,-124 2665,-130 2665,-136 2665,-136 2665,-148 2665,-148 2665,-154 2659,-160 2653,-160"/>
<text text-anchor="middle" x="2609.5" y="-139.2" font-family="Helvetica" font-size="11.00">Generate&#45;Error&#45;1</text>
</g>
<!-- n14&#45;&gt;n7 -->
<g id="edge10" class="edge">
<title>n14&#45;&gt;n7</title>
<path fill="none" stroke="#555555" d="M2479.3,-206.99C2503.97,-194.58 2536.96,-177.99 2563.42,-164.68"/>
<polygon fill="#555555" stroke="#555555" points="2565.12,-167.74 2572.48,-160.12 2561.98,-161.48 2565.12,-167.74"/>
</g>
<!-- n15&#45;&gt;n10 -->
<g id="edge11" class="edge">
<title>n15&#45;&gt;n10</title>
<path fill="none" stroke="#555555" d="M2640.11,-224.95C2732.93,-224.79 3019.09,-224.3 3138.41,-224.09"/>
<polygon fill="#555555" stroke="#555555" points="3138.75,-227.59 3148.75,-224.07 3138.74,-220.59 3138.75,-227.59"/>
</g>
<!-- n15&#45;&gt;n11 -->
<g id="edge12" class="edge">
<title>n15&#45;&gt;n11</title>
<path fill="none" stroke="#555555" d="M2640.21,-218.34C2659.9,-213.94 2686.8,-207.91 2712.81,-202.08"/>
<polygon fill="#555555" stroke="#555555" points="2713.73,-205.46 2722.73,-199.86 2712.2,-198.63 2713.73,-205.46"/>
</g>
<!-- n16 -->
<g id="node9" class="node">
<title>n16</title>
<path fill="#e8f4f8" stroke="black" d="M349,-77C349,-77 273,-77 273,-77 267,-77 261,-71 261,-65 261,-65 261,-53 261,-53 261,-47 267,-41 273,-41 273,-41 349,-41 349,-41 355,-41 361,-47 361,-53 361,-53 361,-65 361,-65 361,-71 355,-77 349,-77"/>
<text text-anchor="middle" x="311" y="-56.2" font-family="Helvetica" font-size="11.00">NormalizeCTN</text>
</g>
<!-- n20 -->
<g id="node14" class="node">
<title>n20</title>
<path fill="#e8f4f8" stroke="black" d="M540,-77C540,-77 431,-77 431,-77 425,-77 419,-71 419,-65 419,-65 419,-53 419,-53 419,-47 425,-41 431,-41 431,-41 540,-41 540,-41 546,-41 552,-47 552,-53 552,-53 552,-65 552,-65 552,-71 546,-77 540,-77"/>
<text text-anchor="middle" x="485.5" y="-56.2" font-family="Helvetica" font-size="11.00">GetDestinationDetails</text>
</g>
<!-- n16&#45;&gt;n20 -->
<g id="edge21" class="edge">
<title>n16&#45;&gt;n20</title>
<path fill="none" stroke="#555555" d="M361.43,-59C376.13,-59 392.59,-59 408.57,-59"/>
<polygon fill="#555555" stroke="#555555" points="408.97,-62.5 418.97,-59 408.97,-55.5 408.97,-62.5"/>
</g>
<!-- n18&#45;&gt;n0 -->
<g id="edge18" class="edge">
<title>n18&#45;&gt;n0</title>
<path fill="none" stroke="#555555" d="M1317.57,-36.04C1334.01,-39.66 1350.91,-43.37 1366.2,-46.73"/>
<polygon fill="#555555" stroke="#555555" points="1365.48,-50.16 1376,-48.89 1366.98,-43.32 1365.48,-50.16"/>
</g>
<!-- n19 -->
<g id="node12" class="node">
<title>n19</title>
<path fill="#e8f4f8" stroke="black" d="M726,-77C726,-77 622,-77 622,-77 616,-77 610,-71 610,-65 610,-65 610,-53 610,-53 610,-47 616,-41 622,-41 622,-41 726,-41 726,-41 732,-41 738,-47 738,-53 738,-53 738,-65 738,-65 738,-71 732,-77 726,-77"/>
<text text-anchor="middle" x="674" y="-56.2" font-family="Helvetica" font-size="11.00">Get Connection Plan</text>
</g>
<!-- n19&#45;&gt;n12 -->
<g id="edge20" class="edge">
<title>n19&#45;&gt;n12</title>
<path fill="none" stroke="#555555" d="M738.1,-59C753.95,-59 770.7,-59 785.67,-59"/>
<polygon fill="#555555" stroke="#555555" points="785.72,-62.5 795.72,-59 785.72,-55.5 785.72,-62.5"/>
</g>
<!-- n20&#45;&gt;n19 -->
<g id="edge22" class="edge">
<title>n20&#45;&gt;n19</title>
<path fill="none" stroke="#555555" d="M552.25,-59C567.57,-59 583.97,-59 599.59,-59"/>
<polygon fill="#555555" stroke="#555555" points="599.72,-62.5 609.72,-59 599.72,-55.5 599.72,-62.5"/>
</g>
<!-- n6 -->
<g id="node19" class="node">
<title>n6</title>
<path fill="#e8f4f8" stroke="black" d="M2094,-201C2094,-201 2036,-201 2036,-201 2030,-201 2024,-195 2024,-189 2024,-189 2024,-177 2024,-177 2024,-171 2030,-165 2036,-165 2036,-165 2094,-165 2094,-165 2100,-165 2106,-171 2106,-177 2106,-177 2106,-189 2106,-189 2106,-195 2100,-201 2094,-201"/>
<text text-anchor="middle" x="2065" y="-180.2" font-family="Helvetica" font-size="11.00">Parse XML</text>
</g>
<!-- n21&#45;&gt;n6 -->
<g id="edge25" class="edge">
<title>n21&#45;&gt;n6</title>
<path fill="none" stroke="#555555" d="M1966.3,-116.03C1984.63,-128.59 2009.27,-145.49 2029.23,-159.16"/>
<polygon fill="#555555" stroke="#555555" points="2027.51,-162.23 2037.74,-165 2031.47,-156.46 2027.51,-162.23"/>
</g>
<!-- n21&#45;&gt;n7 -->
<g id="edge26" class="edge">
<title>n21&#45;&gt;n7</title>
<path fill="none" stroke="#555555" d="M1966.21,-99.72C2062.76,-106.08 2400.46,-128.31 2543.59,-137.73"/>
<polygon fill="#555555" stroke="#555555" points="2543.76,-141.25 2553.97,-138.41 2544.22,-134.26 2543.76,-141.25"/>
</g>
<!-- n3&#45;&gt;n21 -->
<g id="edge24" class="edge">
<title>n3&#45;&gt;n21</title>
<path fill="none" stroke="#555555" d="M1845.01,-75.1C1864.78,-79.97 1885.29,-85.02 1902,-89.14"/>
<polygon fill="#555555" stroke="#555555" points="1901.33,-92.57 1911.88,-91.57 1903,-85.78 1901.33,-92.57"/>
</g>
<!-- n4 -->
<g id="node17" class="node">
<title>n4</title>
<path fill="#c8e6c9" stroke="black" d="M42,-77C42,-77 12,-77 12,-77 6,-77 0,-71 0,-65 0,-65 0,-53 0,-53 0,-47 6,-41 12,-41 12,-41 42,-41 42,-41 48,-41 54,-47 54,-53 54,-53 54,-65 54,-65 54,-71 48,-77 42,-77"/>
<text text-anchor="middle" x="27" y="-56.2" font-family="Helvetica" font-size="11.00">Start</text>
</g>
<!-- n5 -->
<g id="node18" class="node">
<title>n5</title>
<path fill="#e8f4f8" stroke="black" d="M191,-77C191,-77 124,-77 124,-77 118,-77 112,-71 112,-65 112,-65 112,-53 112,-53 112,-47 118,-41 124,-41 124,-41 191,-41 191,-41 197,-41 203,-47 203,-53 203,-53 203,-65 203,-65 203,-71 197,-77 191,-77"/>
<text text-anchor="middle" x="157.5" y="-56.2" font-family="Helvetica" font-size="11.00">CSAuditStart</text>
</g>
<!-- n4&#45;&gt;n5 -->
<g id="edge4" class="edge">
<title>n4&#45;&gt;n5</title>
<path fill="none" stroke="#555555" d="M54,-59C67.73,-59 85.12,-59 101.65,-59"/>
<polygon fill="#555555" stroke="#555555" points="101.8,-62.5 111.8,-59 101.8,-55.5 101.8,-62.5"/>
</g>
<!-- n5&#45;&gt;n16 -->
<g id="edge14" class="edge">
<title>n5&#45;&gt;n16</title>
<path fill="none" stroke="#555555" d="M203.14,-59C218.03,-59 234.86,-59 250.69,-59"/>
<polygon fill="#555555" stroke="#555555" points="250.92,-62.5 260.92,-59 250.92,-55.5 250.92,-62.5"/>
</g>
<!-- n6&#45;&gt;n14 -->
<g id="edge27" class="edge">
<title>n6&#45;&gt;n14</title>
<path fill="none" stroke="#555555" d="M2080.67,-201.26C2098.08,-221.31 2129.18,-252.35 2164,-265 2239.9,-292.57 2333.97,-267.6 2390.78,-246.62"/>
<polygon fill="#555555" stroke="#555555" points="2392.15,-249.85 2400.26,-243.03 2389.67,-243.3 2392.15,-249.85"/>
</g>
<!-- n6&#45;&gt;n7 -->
<g id="edge5" class="edge">
<title>n6&#45;&gt;n7</title>
<path fill="none" stroke="#555555" d="M2106.33,-179.95C2199.44,-172.92 2430.04,-155.49 2543.43,-146.92"/>
<polygon fill="#555555" stroke="#555555" points="2544,-150.39 2553.7,-146.14 2543.47,-143.4 2544,-150.39"/>
</g>
<!-- n8 -->
<g id="node21" class="node">
<title>n8</title>
<path fill="#e8f4f8" stroke="black" d="M2319,-243C2319,-243 2176,-243 2176,-243 2170,-243 2164,-237 2164,-231 2164,-231 2164,-219 2164,-219 2164,-213 2170,-207 2176,-207 2176,-207 2319,-207 2319,-207 2325,-207 2331,-213 2331,-219 2331,-219 2331,-231 2331,-231 2331,-237 2325,-243 2319,-243"/>
<text text-anchor="middle" x="2247.5" y="-222.2" font-family="Helvetica" font-size="11.00">WriteToLog&#45;UDR&#45;Req&#45;Res&#45;2</text>
</g>
<!-- n6&#45;&gt;n8 -->
<g id="edge6" class="edge">
<title>n6&#45;&gt;n8</title>
<path fill="none" stroke="#555555" d="M2106.06,-192.32C2121.73,-195.97 2140.36,-200.3 2158.85,-204.6"/>
<polygon fill="#555555" stroke="#555555" points="2158.25,-208.06 2168.78,-206.92 2159.83,-201.24 2158.25,-208.06"/>
</g>
<!-- n8&#45;&gt;n14 -->
<g id="edge17" class="edge">
<title>n8&#45;&gt;n14</title>
<path fill="none" stroke="#555555" d="M2331.19,-225C2347.07,-225 2363.45,-225 2378.58,-225"/>
<polygon fill="#555555" stroke="#555555" points="2378.83,-228.5 2388.83,-225 2378.83,-221.5 2378.83,-228.5"/>
</g>
<!-- n9&#45;&gt;n10 -->
<g id="edge7" class="edge">
<title>n9&#45;&gt;n10</title>
<path fill="none" stroke="#555555" d="M3091.03,-200.92C3107.19,-204.64 3123.85,-208.46 3138.84,-211.9"/>
<polygon fill="#555555" stroke="#555555" points="3138.4,-215.39 3148.93,-214.22 3139.96,-208.57 3138.4,-215.39"/>
</g>
</g>
</svg>
