<?xml version="1.0" encoding="UTF-8" standalone="no"?>
<!DOCTYPE svg PUBLIC "-//W3C//DTD SVG 1.1//EN"
 "http://www.w3.org/Graphics/SVG/1.1/DTD/svg11.dtd">
<!-- Generated by graphviz version 2.44.0 (0)
 -->
<!-- Title: process Pages: 1 -->
<svg width="1799pt" height="364pt"
 viewBox="0.00 0.00 1799.00 364.31" xmlns="http://www.w3.org/2000/svg" xmlns:xlink="http://www.w3.org/1999/xlink">
<g id="graph0" class="graph" transform="scale(1 1) rotate(0) translate(36 328.31)">
<title>process</title>
<polygon fill="#ffffff" stroke="transparent" points="-36,36 -36,-328.31 1763,-328.31 1763,36 -36,36"/>
<!-- n0 -->
<g id="node1" class="node">
<title>n0</title>
<path fill="#c8e6c9" stroke="black" d="M42,-107.31C42,-107.31 12,-107.31 12,-107.31 6,-107.31 0,-101.31 0,-95.31 0,-95.31 0,-83.31 0,-83.31 0,-77.31 6,-71.31 12,-71.31 12,-71.31 42,-71.31 42,-71.31 48,-71.31 54,-77.31 54,-83.31 54,-83.31 54,-95.31 54,-95.31 54,-101.31 48,-107.31 42,-107.31"/>
<text text-anchor="middle" x="27" y="-86.51" font-family="Helvetica" font-size="11.00">start</text>
</g>
<!-- n1 -->
<g id="node2" class="node">
<title>n1</title>
<path fill="#e8f4f8" stroke="black" d="M198,-107.31C198,-107.31 124,-107.31 124,-107.31 118,-107.31 112,-101.31 112,-95.31 112,-95.31 112,-83.31 112,-83.31 112,-77.31 118,-71.31 124,-71.31 124,-71.31 198,-71.31 198,-71.31 204,-71.31 210,-77.31 210,-83.31 210,-83.31 210,-95.31 210,-95.31 210,-101.31 204,-107.31 198,-107.31"/>
<text text-anchor="middle" x="161" y="-86.51" font-family="Helvetica" font-size="11.00">GetHostName</text>
</g>
<!-- n0&#45;&gt;n1 -->
<g id="edge1" class="edge">
<title>n0&#45;&gt;n1</title>
<path fill="none" stroke="#555555" d="M54.08,-89.31C67.71,-89.31 84.97,-89.31 101.58,-89.31"/>
<polygon fill="#555555" stroke="#555555" points="101.8,-92.81 111.8,-89.31 101.8,-85.81 101.8,-92.81"/>
</g>
<!-- n6 -->
<g id="node16" class="node">
<title>n6</title>
<path fill="#c8e6c9" stroke="black" d="M362.5,-107.31C362.5,-107.31 285.5,-107.31 285.5,-107.31 279.5,-107.31 273.5,-101.31 273.5,-95.31 273.5,-95.31 273.5,-83.31 273.5,-83.31 273.5,-77.31 279.5,-71.31 285.5,-71.31 285.5,-71.31 362.5,-71.31 362.5,-71.31 368.5,-71.31 374.5,-77.31 374.5,-83.31 374.5,-83.31 374.5,-95.31 374.5,-95.31 374.5,-101.31 368.5,-107.31 362.5,-107.31"/>
<text text-anchor="middle" x="324" y="-86.51" font-family="Helvetica" font-size="11.00">Start Log Audit</text>
</g>
<!-- n1&#45;&gt;n6 -->
<g id="edge11" class="edge">
<title>n1&#45;&gt;n6</title>
<path fill="none" stroke="#555555" d="M210.31,-89.31C226.95,-89.31 245.8,-89.31 263.25,-89.31"/>
<polygon fill="#555555" stroke="#555555" points="263.33,-92.81 273.33,-89.31 263.33,-85.81 263.33,-92.81"/>
</g>
<!-- n10 -->
<g id="node3" class="node">
<title>n10</title>
<path fill="#e8f4f8" stroke="black" d="M1060,-65.31C1060,-65.31 995,-65.31 995,-65.31 989,-65.31 983,-59.31 983,-53.31 983,-53.31 983,-41.31 983,-41.31 983,-35.31 989,-29.31 995,-29.31 995,-29.31 1060,-29.31 1060,-29.31 1066,-29.31 1072,-35.31 1072,-41.31 1072,-41.31 1072,-53.31 1072,-53.31 1072,-59.31 1066,-65.31 1060,-65.31"/>
<text text-anchor="middle" x="1027.5" y="-44.51" font-family="Helvetica" font-size="11.00">Write Debug</text>
</g>
<!-- n8 -->
<g id="node18" class="node">
<title>n8</title>
<path fill="#e8f4f8" stroke="black" d="M1246,-65.31C1246,-65.31 1142,-65.31 1142,-65.31 1136,-65.31 1130,-59.31 1130,-53.31 1130,-53.31 1130,-41.31 1130,-41.31 1130,-35.31 1136,-29.31 1142,-29.31 1142,-29.31 1246,-29.31 1246,-29.31 1252,-29.31 1258,-35.31 1258,-41.31 1258,-41.31 1258,-53.31 1258,-53.31 1258,-59.31 1252,-65.31 1246,-65.31"/>
<text text-anchor="middle" x="1194" y="-44.51" font-family="Helvetica" font-size="11.00">Call Custom Handler</text>
</g>
<!-- n10&#45;&gt;n8 -->
<g id="edge6" class="edge">
<title>n10&#45;&gt;n8</title>
<path fill="none" stroke="#555555" d="M1072.15,-47.31C1086.81,-47.31 1103.59,-47.31 1119.88,-47.31"/>
<polygon fill="#555555" stroke="#555555" points="1119.94,-50.81 1129.94,-47.31 1119.94,-43.81 1119.94,-50.81"/>
</g>
<!-- n9 -->
<g id="node19" class="node">
<title>n9</title>
<path fill="#e8f4f8" stroke="black" d="M1448,-65.31C1448,-65.31 1328,-65.31 1328,-65.31 1322,-65.31 1316,-59.31 1316,-53.31 1316,-53.31 1316,-41.31 1316,-41.31 1316,-35.31 1322,-29.31 1328,-29.31 1328,-29.31 1448,-29.31 1448,-29.31 1454,-29.31 1460,-35.31 1460,-41.31 1460,-41.31 1460,-53.31 1460,-53.31 1460,-59.31 1454,-65.31 1448,-65.31"/>
<text text-anchor="middle" x="1388" y="-44.51" font-family="Helvetica" font-size="11.00">UpdateAuditErrorCache</text>
</g>
<!-- n10&#45;&gt;n9 -->
<g id="edge12" class="edge">
<title>n10&#45;&gt;n9</title>
<path fill="none" stroke="#555555" d="M1064.62,-29.24C1083.58,-20.75 1107.48,-11.58 1130,-7.31 1185.89,3.31 1201.75,1.21 1258,-7.31 1282.44,-11.01 1308.62,-18.44 1330.97,-25.91"/>
<polygon fill="#555555" stroke="#555555" points="1330.02,-29.28 1340.62,-29.21 1332.29,-22.66 1330.02,-29.28"/>
</g>
<!-- n11 -->
<g id="node4" class="node">
<title>n11</title>
<path fill="#ffcdd2" stroke="black" d="M898.5,-148.31C898.5,-148.31 841.5,-148.31 841.5,-148.31 835.5,-148.31 829.5,-142.31 829.5,-136.31 829.5,-136.31 829.5,-124.31 829.5,-124.31 829.5,-118.31 835.5,-112.31 841.5,-112.31 841.5,-112.31 898.5,-112.31 898.5,-112.31 904.5,-112.31 910.5,-118.31 910.5,-124.31 910.5,-124.31 910.5,-136.31 910.5,-136.31 910.5,-142.31 904.5,-148.31 898.5,-148.31"/>
<text text-anchor="middle" x="870" y="-127.51" font-family="Helvetica" font-size="11.00">Write Error</text>
</g>
<!-- n11&#45;&gt;n9 -->
<g id="edge7" class="edge">
<title>n11&#45;&gt;n9</title>
<path fill="none" stroke="#555555" d="M910.67,-128.39C981.19,-124.43 1132.76,-113.43 1258,-87.31 1280.89,-82.53 1305.52,-75.41 1327.07,-68.49"/>
<polygon fill="#555555" stroke="#555555" points="1328.31,-71.76 1336.73,-65.33 1326.14,-65.11 1328.31,-71.76"/>
</g>
<!-- n12 -->
<g id="node5" class="node">
<title>n12</title>
<path fill="#c8e6c9" stroke="black" d="M42,-292.31C42,-292.31 12,-292.31 12,-292.31 6,-292.31 0,-286.31 0,-280.31 0,-280.31 0,-268.31 0,-268.31 0,-262.31 6,-256.31 12,-256.31 12,-256.31 42,-256.31 42,-256.31 48,-256.31 54,-262.31 54,-268.31 54,-268.31 54,-280.31 54,-280.31 54,-286.31 48,-292.31 42,-292.31"/>
<text text-anchor="middle" x="27" y="-271.51" font-family="Helvetica" font-size="11.00">Start</text>
</g>
<!-- n13 -->
<g id="node6" class="node">
<title>n13</title>
<path fill="#e8f4f8" stroke="black" d="M198,-292.31C198,-292.31 124,-292.31 124,-292.31 118,-292.31 112,-286.31 112,-280.31 112,-280.31 112,-268.31 112,-268.31 112,-262.31 118,-256.31 124,-256.31 124,-256.31 198,-256.31 198,-256.31 204,-256.31 210,-262.31 210,-268.31 210,-268.31 210,-280.31 210,-280.31 210,-286.31 204,-292.31 198,-292.31"/>
<text text-anchor="middle" x="161" y="-271.51" font-family="Helvetica" font-size="11.00">Prep Log Data</text>
</g>
<!-- n12&#45;&gt;n13 -->
<g id="edge14" class="edge">
<title>n12&#45;&gt;n13</title>
<path fill="none" stroke="#555555" d="M54.08,-274.31C67.71,-274.31 84.97,-274.31 101.58,-274.31"/>
<polygon fill="#555555" stroke="#555555" points="101.8,-277.81 111.8,-274.31 101.8,-270.81 101.8,-277.81"/>
</g>
<!-- n18 -->
<g id="node11" class="node">
<title>n18</title>
<path fill="#e8f4f8" stroke="black" d="M368,-292.31C368,-292.31 280,-292.31 280,-292.31 274,-292.31 268,-286.31 268,-280.31 268,-280.31 268,-268.31 268,-268.31 268,-262.31 274,-256.31 280,-256.31 280,-256.31 368,-256.31 368,-256.31 374,-256.31 380,-262.31 380,-268.31 380,-268.31 380,-280.31 380,-280.31 380,-286.31 374,-292.31 368,-292.31"/>
<text text-anchor="middle" x="324" y="-271.51" font-family="Helvetica" font-size="11.00">Prep Log Header</text>
</g>
<!-- n13&#45;&gt;n18 -->
<g id="edge19" class="edge">
<title>n13&#45;&gt;n18</title>
<path fill="none" stroke="#555555" d="M210.31,-274.31C225.2,-274.31 241.85,-274.31 257.69,-274.31"/>
<polygon fill="#555555" stroke="#555555" points="257.95,-277.81 267.95,-274.31 257.95,-270.81 257.95,-277.81"/>
</g>
<!-- n14 -->
<g id="node7" class="node">
<title>n14</title>
<path fill="#ffcdd2" stroke="black" d="M589,-292.31C589,-292.31 450,-292.31 450,-292.31 444,-292.31 438,-286.31 438,-280.31 438,-280.31 438,-268.31 438,-268.31 438,-262.31 444,-256.31 450,-256.31 450,-256.31 589,-256.31 589,-256.31 595,-256.31 601,-262.31 601,-268.31 601,-268.31 601,-280.31 601,-280.31 601,-286.31 595,-292.31 589,-292.31"/>
<text text-anchor="middle" x="519.5" y="-271.51" font-family="Helvetica" font-size="11.00">Execute Exception Handling</text>
</g>
<!-- n15 -->
<g id="node8" class="node">
<title>n15</title>
<path fill="#ffccbc" stroke="black" d="M1042.5,-272.31C1042.5,-272.31 1012.5,-272.31 1012.5,-272.31 1006.5,-272.31 1000.5,-266.31 1000.5,-260.31 1000.5,-260.31 1000.5,-248.31 1000.5,-248.31 1000.5,-242.31 1006.5,-236.31 1012.5,-236.31 1012.5,-236.31 1042.5,-236.31 1042.5,-236.31 1048.5,-236.31 1054.5,-242.31 1054.5,-248.31 1054.5,-248.31 1054.5,-260.31 1054.5,-260.31 1054.5,-266.31 1048.5,-272.31 1042.5,-272.31"/>
<text text-anchor="middle" x="1027.5" y="-251.51" font-family="Helvetica" font-size="11.00">End</text>
</g>
<!-- n14&#45;&gt;n15 -->
<g id="edge15" class="edge">
<title>n14&#45;&gt;n15</title>
<path fill="none" stroke="#555555" d="M601.29,-278.43C683.09,-281.59 813.13,-283.83 925,-273.31 946.94,-271.24 971.21,-266.78 990.51,-262.7"/>
<polygon fill="#555555" stroke="#555555" points="991.37,-266.1 1000.4,-260.55 989.88,-259.26 991.37,-266.1"/>
</g>
<!-- n16 -->
<g id="node9" class="node">
<title>n16</title>
<path fill="#ffcdd2" stroke="black" d="M733,-251.31C733,-251.31 683,-251.31 683,-251.31 677,-251.31 671,-245.31 671,-239.31 671,-239.31 671,-227.31 671,-227.31 671,-221.31 677,-215.31 683,-215.31 683,-215.31 733,-215.31 733,-215.31 739,-215.31 745,-221.31 745,-227.31 745,-227.31 745,-239.31 745,-239.31 745,-245.31 739,-251.31 733,-251.31"/>
<text text-anchor="middle" x="708" y="-230.51" font-family="Helvetica" font-size="11.00">Log Error</text>
</g>
<!-- n14&#45;&gt;n16 -->
<g id="edge16" class="edge">
<title>n14&#45;&gt;n16</title>
<path fill="none" stroke="#555555" d="M601.22,-256.56C621.56,-252.09 642.7,-247.44 660.7,-243.49"/>
<polygon fill="#555555" stroke="#555555" points="661.61,-246.87 670.62,-241.3 660.1,-240.03 661.61,-246.87"/>
</g>
<!-- n17 -->
<g id="node10" class="node">
<title>n17</title>
<path fill="#ffcdd2" stroke="black" d="M913,-251.31C913,-251.31 827,-251.31 827,-251.31 821,-251.31 815,-245.31 815,-239.31 815,-239.31 815,-227.31 815,-227.31 815,-221.31 821,-215.31 827,-215.31 827,-215.31 913,-215.31 913,-215.31 919,-215.31 925,-221.31 925,-227.31 925,-227.31 925,-239.31 925,-239.31 925,-245.31 919,-251.31 913,-251.31"/>
<text text-anchor="middle" x="870" y="-230.51" font-family="Helvetica" font-size="11.00">Map Error Result</text>
</g>
<!-- n16&#45;&gt;n17 -->
<g id="edge17" class="edge">
<title>n16&#45;&gt;n17</title>
<path fill="none" stroke="#555555" d="M745.31,-233.31C762.9,-233.31 784.55,-233.31 804.8,-233.31"/>
<polygon fill="#555555" stroke="#555555" points="804.91,-236.81 814.91,-233.31 804.91,-229.81 804.91,-236.81"/>
</g>
<!-- n17&#45;&gt;n15 -->
<g id="edge18" class="edge">
<title>n17&#45;&gt;n15</title>
<path fill="none" stroke="#555555" d="M925.39,-240.65C946.82,-243.55 970.86,-246.79 990.12,-249.39"/>
<polygon fill="#555555" stroke="#555555" points="989.9,-252.9 1000.28,-250.77 990.84,-245.96 989.9,-252.9"/>
</g>
<!-- n18&#45;&gt;n14 -->
<g id="edge20" class="edge">
<title>n18&#45;&gt;n14</title>
<path fill="none" stroke="#555555" d="M380.19,-274.31C395.08,-274.31 411.6,-274.31 427.88,-274.31"/>
<polygon fill="#555555" stroke="#555555" points="427.97,-277.81 437.97,-274.31 427.97,-270.81 427.97,-277.81"/>
</g>
<!-- n2 -->
<g id="node12" class="node">
<title>n2</title>
<path fill="#ffccbc" stroke="black" d="M1603,-65.31C1603,-65.31 1530,-65.31 1530,-65.31 1524,-65.31 1518,-59.31 1518,-53.31 1518,-53.31 1518,-41.31 1518,-41.31 1518,-35.31 1524,-29.31 1530,-29.31 1530,-29.31 1603,-29.31 1603,-29.31 1609,-29.31 1615,-35.31 1615,-41.31 1615,-41.31 1615,-53.31 1615,-53.31 1615,-59.31 1609,-65.31 1603,-65.31"/>
<text text-anchor="middle" x="1566.5" y="-44.51" font-family="Helvetica" font-size="11.00">End Log Audit</text>
</g>
<!-- n3 -->
<g id="node13" class="node">
<title>n3</title>
<path fill="#ffccbc" stroke="black" d="M1715,-65.31C1715,-65.31 1685,-65.31 1685,-65.31 1679,-65.31 1673,-59.31 1673,-53.31 1673,-53.31 1673,-41.31 1673,-41.31 1673,-35.31 1679,-29.31 1685,-29.31 1685,-29.31 1715,-29.31 1715,-29.31 1721,-29.31 1727,-35.31 1727,-41.31 1727,-41.31 1727,-53.31 1727,-53.31 1727,-59.31 1721,-65.31 1715,-65.31"/>
<text text-anchor="middle" x="1700" y="-44.51" font-family="Helvetica" font-size="11.00">end</text>
</g>
<!-- n2&#45;&gt;n3 -->
<g id="edge2" class="edge">
<title>n2&#45;&gt;n3</title>
<path fill="none" stroke="#555555" d="M1615.35,-47.31C1630.95,-47.31 1648,-47.31 1662.62,-47.31"/>
<polygon fill="#555555" stroke="#555555" points="1662.78,-50.81 1672.78,-47.31 1662.78,-43.81 1662.78,-50.81"/>
</g>
<!-- n4 -->
<g id="node14" class="node">
<title>n4</title>
<path fill="#e8f4f8" stroke="black" d="M745,-65.31C745,-65.31 671,-65.31 671,-65.31 665,-65.31 659,-59.31 659,-53.31 659,-53.31 659,-41.31 659,-41.31 659,-35.31 665,-29.31 671,-29.31 671,-29.31 745,-29.31 745,-29.31 751,-29.31 757,-35.31 757,-41.31 757,-41.31 757,-53.31 757,-53.31 757,-59.31 751,-65.31 745,-65.31"/>
<text text-anchor="middle" x="708" y="-44.51" font-family="Helvetica" font-size="11.00">Get Input Data</text>
</g>
<!-- n5 -->
<g id="node15" class="node">
<title>n5</title>
<path fill="#e8f4f8" stroke="black" d="M898.5,-65.31C898.5,-65.31 841.5,-65.31 841.5,-65.31 835.5,-65.31 829.5,-59.31 829.5,-53.31 829.5,-53.31 829.5,-41.31 829.5,-41.31 829.5,-35.31 835.5,-29.31 841.5,-29.31 841.5,-29.31 898.5,-29.31 898.5,-29.31 904.5,-29.31 910.5,-35.31 910.5,-41.31 910.5,-41.31 910.5,-53.31 910.5,-53.31 910.5,-59.31 904.5,-65.31 898.5,-65.31"/>
<text text-anchor="middle" x="870" y="-44.51" font-family="Helvetica" font-size="11.00">CVV2Filter</text>
</g>
<!-- n4&#45;&gt;n5 -->
<g id="edge3" class="edge">
<title>n4&#45;&gt;n5</title>
<path fill="none" stroke="#555555" d="M757.01,-47.31C776.68,-47.31 799.45,-47.31 819.29,-47.31"/>
<polygon fill="#555555" stroke="#555555" points="819.37,-50.81 829.37,-47.31 819.37,-43.81 819.37,-50.81"/>
</g>
<!-- n5&#45;&gt;n10 -->
<g id="edge13" class="edge">
<title>n5&#45;&gt;n10</title>
<path fill="none" stroke="#555555" d="M910.64,-47.31C929.5,-47.31 952.33,-47.31 972.73,-47.31"/>
<polygon fill="#555555" stroke="#555555" points="972.83,-50.81 982.82,-47.31 972.82,-43.81 972.83,-50.81"/>
</g>
<!-- n7 -->
<g id="node17" class="node">
<title>n7</title>
<path fill="#e8f4f8" stroke="black" d="M575.5,-107.31C575.5,-107.31 463.5,-107.31 463.5,-107.31 457.5,-107.31 451.5,-101.31 451.5,-95.31 451.5,-95.31 451.5,-83.31 451.5,-83.31 451.5,-77.31 457.5,-71.31 463.5,-71.31 463.5,-71.31 575.5,-71.31 575.5,-71.31 581.5,-71.31 587.5,-77.31 587.5,-83.31 587.5,-83.31 587.5,-95.31 587.5,-95.31 587.5,-101.31 581.5,-107.31 575.5,-107.31"/>
<text text-anchor="middle" x="519.5" y="-86.51" font-family="Helvetica" font-size="11.00">ServiceExceptionFilter</text>
</g>
<!-- n6&#45;&gt;n7 -->
<g id="edge4" class="edge">
<title>n6&#45;&gt;n7</title>
<path fill="none" stroke="#555555" d="M374.58,-89.31C394.78,-89.31 418.61,-89.31 441,-89.31"/>
<polygon fill="#555555" stroke="#555555" points="441.17,-92.81 451.17,-89.31 441.17,-85.81 441.17,-92.81"/>
</g>
<!-- n7&#45;&gt;n11 -->
<g id="edge9" class="edge">
<title>n7&#45;&gt;n11</title>
<path fill="none" stroke="#555555" d="M587.69,-97.21C655.38,-105.18 758.25,-117.28 819.04,-124.43"/>
<polygon fill="#555555" stroke="#555555" points="818.81,-127.93 829.15,-125.62 819.63,-120.97 818.81,-127.93"/>
</g>
<!-- n7&#45;&gt;n4 -->
<g id="edge8" class="edge">
<title>n7&#45;&gt;n4</title>
<path fill="none" stroke="#555555" d="M587.57,-74.2C607.67,-69.68 629.53,-64.75 648.99,-60.37"/>
<polygon fill="#555555" stroke="#555555" points="649.94,-63.74 658.93,-58.13 648.4,-56.92 649.94,-63.74"/>
</g>
<!-- n8&#45;&gt;n9 -->
<g id="edge5" class="edge">
<title>n8&#45;&gt;n9</title>
<path fill="none" stroke="#555555" d="M1258.13,-47.31C1273.29,-47.31 1289.68,-47.31 1305.53,-47.31"/>
<polygon fill="#555555" stroke="#555555" points="1305.86,-50.81 1315.86,-47.31 1305.86,-43.81 1305.86,-50.81"/>
</g>
<!-- n9&#45;&gt;n2 -->
<g id="edge10" class="edge">
<title>n9&#45;&gt;n2</title>
<path fill="none" stroke="#555555" d="M1460.03,-47.31C1475.83,-47.31 1492.39,-47.31 1507.59,-47.31"/>
<polygon fill="#555555" stroke="#555555" points="1507.87,-50.81 1517.87,-47.31 1507.87,-43.81 1507.87,-50.81"/>
</g>
</g>
</svg>
