<?xml version="1.0" encoding="UTF-8" standalone="no"?>
<!DOCTYPE svg PUBLIC "-//W3C//DTD SVG 1.1//EN"
 "http://www.w3.org/Graphics/SVG/1.1/DTD/svg11.dtd">
<!-- Generated by graphviz version 2.44.0 (0)
 -->
<!-- Title: process Pages: 1 -->
<svg width="594pt" height="189pt"
 viewBox="0.00 0.00 594.00 189.00" xmlns="http://www.w3.org/2000/svg" xmlns:xlink="http://www.w3.org/1999/xlink">
<g id="graph0" class="graph" transform="scale(1 1) rotate(0) translate(36 153)">
<title>process</title>
<polygon fill="#ffffff" stroke="transparent" points="-36,36 -36,-153 558,-153 558,36 -36,36"/>
<!-- n0 -->
<g id="node1" class="node">
<title>n0</title>
<path fill="#c8e6c9" stroke="black" d="M42,-75C42,-75 12,-75 12,-75 6,-75 0,-69 0,-63 0,-63 0,-51 0,-51 0,-45 6,-39 12,-39 12,-39 42,-39 42,-39 48,-39 54,-45 54,-51 54,-51 54,-63 54,-63 54,-69 48,-75 42,-75"/>
<text text-anchor="middle" x="27" y="-54.2" font-family="Helvetica" font-size="11.00">Start</text>
</g>
<!-- n1 -->
<g id="node2" class="node">
<title>n1</title>
<path fill="#e8f4f8" stroke="black" d="M197,-117C197,-117 124,-117 124,-117 118,-117 112,-111 112,-105 112,-105 112,-93 112,-93 112,-87 118,-81 124,-81 124,-81 197,-81 197,-81 203,-81 209,-87 209,-93 209,-93 209,-105 209,-105 209,-111 203,-117 197,-117"/>
<text text-anchor="middle" x="160.5" y="-96.2" font-family="Helvetica" font-size="11.00">MapException</text>
</g>
<!-- n0&#45;&gt;n1 -->
<g id="edge1" class="edge">
<title>n0&#45;&gt;n1</title>
<path fill="none" stroke="#555555" d="M54.29,-65.4C68.08,-69.8 85.53,-75.38 102.24,-80.71"/>
<polygon fill="#555555" stroke="#555555" points="101.37,-84.11 111.96,-83.82 103.5,-77.44 101.37,-84.11"/>
</g>
<!-- n4 -->
<g id="node5" class="node">
<title>n4</title>
<path fill="#e8f4f8" stroke="black" d="M398,-36C398,-36 279,-36 279,-36 273,-36 267,-30 267,-24 267,-24 267,-12 267,-12 267,-6 273,0 279,0 279,0 398,0 398,0 404,0 410,-6 410,-12 410,-12 410,-24 410,-24 410,-30 404,-36 398,-36"/>
<text text-anchor="middle" x="338.5" y="-15.2" font-family="Helvetica" font-size="11.00">ParseExceptionSchema</text>
</g>
<!-- n0&#45;&gt;n4 -->
<g id="edge3" class="edge">
<title>n0&#45;&gt;n4</title>
<path fill="none" stroke="#555555" d="M54.12,-53.71C98.34,-48.14 189.67,-36.63 256.75,-28.18"/>
<polygon fill="#555555" stroke="#555555" points="257.39,-31.62 266.88,-26.9 256.52,-24.68 257.39,-31.62"/>
</g>
<!-- n2 -->
<g id="node3" class="node">
<title>n2</title>
<path fill="#ffcdd2" stroke="black" d="M385,-116C385,-116 292,-116 292,-116 286,-116 280,-110 280,-104 280,-104 280,-92 280,-92 280,-86 286,-80 292,-80 292,-80 385,-80 385,-80 391,-80 397,-86 397,-92 397,-92 397,-104 397,-104 397,-110 391,-116 385,-116"/>
<text text-anchor="middle" x="338.5" y="-95.2" font-family="Helvetica" font-size="11.00">Render Error Data</text>
</g>
<!-- n1&#45;&gt;n2 -->
<g id="edge5" class="edge">
<title>n1&#45;&gt;n2</title>
<path fill="none" stroke="#555555" d="M209.13,-98.73C227.77,-98.62 249.49,-98.5 269.7,-98.39"/>
<polygon fill="#555555" stroke="#555555" points="269.82,-101.88 279.8,-98.33 269.78,-94.88 269.82,-101.88"/>
</g>
<!-- n3 -->
<g id="node4" class="node">
<title>n3</title>
<path fill="#ffccbc" stroke="black" d="M510,-75C510,-75 480,-75 480,-75 474,-75 468,-69 468,-63 468,-63 468,-51 468,-51 468,-45 474,-39 480,-39 480,-39 510,-39 510,-39 516,-39 522,-45 522,-51 522,-51 522,-63 522,-63 522,-69 516,-75 510,-75"/>
<text text-anchor="middle" x="495" y="-54.2" font-family="Helvetica" font-size="11.00">End</text>
</g>
<!-- n2&#45;&gt;n3 -->
<g id="edge2" class="edge">
<title>n2&#45;&gt;n3</title>
<path fill="none" stroke="#555555" d="M397.03,-82.73C417.49,-77.3 439.94,-71.35 458.07,-66.53"/>
<polygon fill="#555555" stroke="#555555" points="459.17,-69.87 467.93,-63.92 457.37,-63.1 459.17,-69.87"/>
</g>
<!-- n4&#45;&gt;n3 -->
<g id="edge4" class="edge">
<title>n4&#45;&gt;n3</title>
<path fill="none" stroke="#555555" d="M410.42,-35.9C426.89,-40.06 443.74,-44.31 457.96,-47.9"/>
<polygon fill="#555555" stroke="#555555" points="457.26,-51.33 467.81,-50.39 458.97,-44.55 457.26,-51.33"/>
</g>
</g>
</svg>
