<?xml version="1.0" encoding="UTF-8" standalone="no"?>
<!DOCTYPE svg PUBLIC "-//W3C//DTD SVG 1.1//EN"
 "http://www.w3.org/Graphics/SVG/1.1/DTD/svg11.dtd">
<!-- Generated by graphviz version 2.44.0 (0)
 -->
<!-- Title: process Pages: 1 -->
<svg width="801pt" height="266pt"
 viewBox="0.00 0.00 801.00 266.00" xmlns="http://www.w3.org/2000/svg" xmlns:xlink="http://www.w3.org/1999/xlink">
<g id="graph0" class="graph" transform="scale(1 1) rotate(0) translate(36 230)">
<title>process</title>
<polygon fill="#ffffff" stroke="transparent" points="-36,36 -36,-230 765,-230 765,36 -36,36"/>
<!-- n0 -->
<g id="node1" class="node">
<title>n0</title>
<path fill="#c8e6c9" stroke="black" d="M59.5,-36C59.5,-36 29.5,-36 29.5,-36 23.5,-36 17.5,-30 17.5,-24 17.5,-24 17.5,-12 17.5,-12 17.5,-6 23.5,0 29.5,0 29.5,0 59.5,0 59.5,0 65.5,0 71.5,-6 71.5,-12 71.5,-12 71.5,-24 71.5,-24 71.5,-30 65.5,-36 59.5,-36"/>
<text text-anchor="middle" x="44.5" y="-15.2" font-family="Helvetica" font-size="11.00">start</text>
</g>
<!-- n1 -->
<g id="node2" class="node">
<title>n1</title>
<path fill="#e8f4f8" stroke="black" d="M250,-36C250,-36 159,-36 159,-36 153,-36 147,-30 147,-24 147,-24 147,-12 147,-12 147,-6 153,0 159,0 159,0 250,0 250,0 256,0 262,-6 262,-12 262,-12 262,-24 262,-24 262,-30 256,-36 250,-36"/>
<text text-anchor="middle" x="204.5" y="-15.2" font-family="Helvetica" font-size="11.00">EmptyAuditCache</text>
</g>
<!-- n0&#45;&gt;n1 -->
<g id="edge1" class="edge">
<title>n0&#45;&gt;n1</title>
<path fill="none" stroke="#555555" d="M71.59,-18C89.38,-18 113.79,-18 136.79,-18"/>
<polygon fill="#555555" stroke="#555555" points="136.87,-21.5 146.87,-18 136.87,-14.5 136.87,-21.5"/>
</g>
<!-- n2 -->
<g id="node3" class="node">
<title>n2</title>
<path fill="#e8f4f8" stroke="black" d="M448,-36C448,-36 332,-36 332,-36 326,-36 320,-30 320,-24 320,-24 320,-12 320,-12 320,-6 326,0 332,0 332,0 448,0 448,0 454,0 460,-6 460,-12 460,-12 460,-24 460,-24 460,-30 454,-36 448,-36"/>
<text text-anchor="middle" x="390" y="-15.2" font-family="Helvetica" font-size="11.00">EmptyAuditErrorCache</text>
</g>
<!-- n1&#45;&gt;n2 -->
<g id="edge3" class="edge">
<title>n1&#45;&gt;n2</title>
<path fill="none" stroke="#555555" d="M262.05,-18C277,-18 293.41,-18 309.33,-18"/>
<polygon fill="#555555" stroke="#555555" points="309.7,-21.5 319.7,-18 309.7,-14.5 309.7,-21.5"/>
</g>
<!-- n3 -->
<g id="node4" class="node">
<title>n3</title>
<path fill="#ffccbc" stroke="black" d="M582.5,-36C582.5,-36 552.5,-36 552.5,-36 546.5,-36 540.5,-30 540.5,-24 540.5,-24 540.5,-12 540.5,-12 540.5,-6 546.5,0 552.5,0 552.5,0 582.5,0 582.5,0 588.5,0 594.5,-6 594.5,-12 594.5,-12 594.5,-24 594.5,-24 594.5,-30 588.5,-36 582.5,-36"/>
<text text-anchor="middle" x="567.5" y="-15.2" font-family="Helvetica" font-size="11.00">end</text>
</g>
<!-- n2&#45;&gt;n3 -->
<g id="edge2" class="edge">
<title>n2&#45;&gt;n3</title>
<path fill="none" stroke="#555555" d="M460.11,-18C484.13,-18 510.09,-18 530.36,-18"/>
<polygon fill="#555555" stroke="#555555" points="530.4,-21.5 540.4,-18 530.4,-14.5 530.4,-21.5"/>
</g>
<!-- n4 -->
<g id="node5" class="node">
<title>n4</title>
<path fill="#e8f4f8" stroke="black" d="M77,-154C77,-154 12,-154 12,-154 6,-154 0,-148 0,-142 0,-142 0,-130 0,-130 0,-124 6,-118 12,-118 12,-118 77,-118 77,-118 83,-118 89,-124 89,-130 89,-130 89,-142 89,-142 89,-148 83,-154 77,-154"/>
<text text-anchor="middle" x="44.5" y="-133.2" font-family="Helvetica" font-size="11.00">onShutdown</text>
</g>
<!-- n5 -->
<g id="node6" class="node">
<title>n5</title>
<path fill="#e8f4f8" stroke="black" d="M233.5,-154C233.5,-154 175.5,-154 175.5,-154 169.5,-154 163.5,-148 163.5,-142 163.5,-142 163.5,-130 163.5,-130 163.5,-124 169.5,-118 175.5,-118 175.5,-118 233.5,-118 233.5,-118 239.5,-118 245.5,-124 245.5,-130 245.5,-130 245.5,-142 245.5,-142 245.5,-148 239.5,-154 233.5,-154"/>
<text text-anchor="middle" x="204.5" y="-133.2" font-family="Helvetica" font-size="11.00">LogStarted</text>
</g>
<!-- n4&#45;&gt;n5 -->
<g id="edge4" class="edge">
<title>n4&#45;&gt;n5</title>
<path fill="none" stroke="#555555" d="M89.09,-136C108.94,-136 132.55,-136 153.15,-136"/>
<polygon fill="#555555" stroke="#555555" points="153.3,-139.5 163.3,-136 153.3,-132.5 153.3,-139.5"/>
</g>
<!-- n6 -->
<g id="node7" class="node">
<title>n6</title>
<path fill="#e8f4f8" stroke="black" d="M407.5,-154C407.5,-154 372.5,-154 372.5,-154 366.5,-154 360.5,-148 360.5,-142 360.5,-142 360.5,-130 360.5,-130 360.5,-124 366.5,-118 372.5,-118 372.5,-118 407.5,-118 407.5,-118 413.5,-118 419.5,-124 419.5,-130 419.5,-130 419.5,-142 419.5,-142 419.5,-148 413.5,-154 407.5,-154"/>
<text text-anchor="middle" x="390" y="-133.2" font-family="Helvetica" font-size="11.00">Group</text>
</g>
<!-- n5&#45;&gt;n6 -->
<g id="edge9" class="edge">
<title>n5&#45;&gt;n6</title>
<path fill="none" stroke="#555555" d="M245.77,-136C276.82,-136 319.5,-136 350.18,-136"/>
<polygon fill="#555555" stroke="#555555" points="350.49,-139.5 360.49,-136 350.49,-132.5 350.49,-139.5"/>
</g>
<!-- n7 -->
<g id="node8" class="node">
<title>n7</title>
<path fill="#e8f4f8" stroke="black" d="M605,-194C605,-194 530,-194 530,-194 524,-194 518,-188 518,-182 518,-182 518,-170 518,-170 518,-164 524,-158 530,-158 530,-158 605,-158 605,-158 611,-158 617,-164 617,-170 617,-170 617,-182 617,-182 617,-188 611,-194 605,-194"/>
<text text-anchor="middle" x="567.5" y="-173.2" font-family="Helvetica" font-size="11.00">LogCompleted</text>
</g>
<!-- n6&#45;&gt;n7 -->
<g id="edge5" class="edge">
<title>n6&#45;&gt;n7</title>
<path fill="none" stroke="#555555" d="M419.59,-142.52C443.41,-147.95 478.12,-155.86 507.83,-162.63"/>
<polygon fill="#555555" stroke="#555555" points="507.16,-166.06 517.68,-164.87 508.71,-159.24 507.16,-166.06"/>
</g>
<!-- n8 -->
<g id="node9" class="node">
<title>n8</title>
<path fill="#e8f4f8" stroke="black" d="M597,-115C597,-115 538,-115 538,-115 532,-115 526,-109 526,-103 526,-103 526,-91 526,-91 526,-85 532,-79 538,-79 538,-79 597,-79 597,-79 603,-79 609,-85 609,-91 609,-91 609,-103 609,-103 609,-109 603,-115 597,-115"/>
<text text-anchor="middle" x="567.5" y="-94.2" font-family="Helvetica" font-size="11.00">WriteToLog</text>
</g>
<!-- n6&#45;&gt;n8 -->
<g id="edge6" class="edge">
<title>n6&#45;&gt;n8</title>
<path fill="none" stroke="#555555" d="M419.59,-129.65C445.62,-123.86 484.65,-115.19 515.94,-108.24"/>
<polygon fill="#555555" stroke="#555555" points="516.8,-111.63 525.8,-106.04 515.28,-104.8 516.8,-111.63"/>
</g>
<!-- n9 -->
<g id="node10" class="node">
<title>n9</title>
<path fill="#ffccbc" stroke="black" d="M717,-154C717,-154 687,-154 687,-154 681,-154 675,-148 675,-142 675,-142 675,-130 675,-130 675,-124 681,-118 687,-118 687,-118 717,-118 717,-118 723,-118 729,-124 729,-130 729,-130 729,-142 729,-142 729,-148 723,-154 717,-154"/>
<text text-anchor="middle" x="702" y="-133.2" font-family="Helvetica" font-size="11.00">End</text>
</g>
<!-- n7&#45;&gt;n9 -->
<g id="edge8" class="edge">
<title>n7&#45;&gt;n9</title>
<path fill="none" stroke="#555555" d="M617.09,-161.33C632.93,-156.55 650.22,-151.33 664.98,-146.88"/>
<polygon fill="#555555" stroke="#555555" points="666.17,-150.17 674.73,-143.93 664.15,-143.47 666.17,-150.17"/>
</g>
<!-- n8&#45;&gt;n9 -->
<g id="edge7" class="edge">
<title>n8&#45;&gt;n9</title>
<path fill="none" stroke="#555555" d="M609.34,-109.02C627.13,-114.26 647.82,-120.35 665.02,-125.41"/>
<polygon fill="#555555" stroke="#555555" points="664.13,-128.8 674.71,-128.26 666.1,-122.08 664.13,-128.8"/>
</g>
</g>
</svg>
