<?xml version="1.0" encoding="UTF-8" standalone="no"?>
<!DOCTYPE svg PUBLIC "-//W3C//DTD SVG 1.1//EN"
 "http://www.w3.org/Graphics/SVG/1.1/DTD/svg11.dtd">
<!-- Generated by graphviz version 2.44.0 (0)
 -->
<!-- Title: process Pages: 1 -->
<svg width="1315pt" height="191pt"
 viewBox="0.00 0.00 1315.00 191.00" xmlns="http://www.w3.org/2000/svg" xmlns:xlink="http://www.w3.org/1999/xlink">
<g id="graph0" class="graph" transform="scale(1 1) rotate(0) translate(36 155)">
<title>process</title>
<polygon fill="#ffffff" stroke="transparent" points="-36,36 -36,-155 1279,-155 1279,36 -36,36"/>
<!-- n0 -->
<g id="node1" class="node">
<title>n0</title>
<path fill="#e8f4f8" stroke="black" d="M380,-119C380,-119 275,-119 275,-119 269,-119 263,-113 263,-107 263,-107 263,-95 263,-95 263,-89 269,-83 275,-83 275,-83 380,-83 380,-83 386,-83 392,-89 392,-95 392,-95 392,-107 392,-107 392,-113 386,-119 380,-119"/>
<text text-anchor="middle" x="327.5" y="-98.2" font-family="Helvetica" font-size="11.00">Collect Process Data</text>
</g>
<!-- n1 -->
<g id="node2" class="node">
<title>n1</title>
<path fill="#e8f4f8" stroke="black" d="M530.5,-119C530.5,-119 473.5,-119 473.5,-119 467.5,-119 461.5,-113 461.5,-107 461.5,-107 461.5,-95 461.5,-95 461.5,-89 467.5,-83 473.5,-83 473.5,-83 530.5,-83 530.5,-83 536.5,-83 542.5,-89 542.5,-95 542.5,-95 542.5,-107 542.5,-107 542.5,-113 536.5,-119 530.5,-119"/>
<text text-anchor="middle" x="502" y="-98.2" font-family="Helvetica" font-size="11.00">CVV2Filter</text>
</g>
<!-- n0&#45;&gt;n1 -->
<g id="edge1" class="edge">
<title>n0&#45;&gt;n1</title>
<path fill="none" stroke="#555555" d="M392.24,-101C411.67,-101 432.73,-101 451.1,-101"/>
<polygon fill="#555555" stroke="#555555" points="451.29,-104.5 461.29,-101 451.29,-97.5 451.29,-104.5"/>
</g>
<!-- n4 -->
<g id="node5" class="node">
<title>n4</title>
<path fill="#e8f4f8" stroke="black" d="M786,-119C786,-119 624,-119 624,-119 618,-119 612,-113 612,-107 612,-107 612,-95 612,-95 612,-89 618,-83 624,-83 624,-83 786,-83 786,-83 792,-83 798,-89 798,-95 798,-95 798,-107 798,-107 798,-113 792,-119 786,-119"/>
<text text-anchor="middle" x="705" y="-98.2" font-family="Helvetica" font-size="11.00">Write process data to Debug Log</text>
</g>
<!-- n1&#45;&gt;n4 -->
<g id="edge10" class="edge">
<title>n1&#45;&gt;n4</title>
<path fill="none" stroke="#555555" d="M542.71,-101C559.9,-101 580.88,-101 601.96,-101"/>
<polygon fill="#555555" stroke="#555555" points="601.96,-104.5 611.96,-101 601.96,-97.5 601.96,-104.5"/>
</g>
<!-- n2 -->
<g id="node3" class="node">
<title>n2</title>
<path fill="#e8f4f8" stroke="black" d="M542,-36C542,-36 462,-36 462,-36 456,-36 450,-30 450,-24 450,-24 450,-12 450,-12 450,-6 456,0 462,0 462,0 542,0 542,0 548,0 554,-6 554,-12 554,-12 554,-24 554,-24 554,-30 548,-36 542,-36"/>
<text text-anchor="middle" x="502" y="-15.2" font-family="Helvetica" font-size="11.00">Log Audit Event</text>
</g>
<!-- n3 -->
<g id="node4" class="node">
<title>n3</title>
<path fill="#e8f4f8" stroke="black" d="M942,-77C942,-77 868,-77 868,-77 862,-77 856,-71 856,-65 856,-65 856,-53 856,-53 856,-47 862,-41 868,-41 868,-41 942,-41 942,-41 948,-41 954,-47 954,-53 954,-53 954,-65 954,-65 954,-71 948,-77 942,-77"/>
<text text-anchor="middle" x="905" y="-56.2" font-family="Helvetica" font-size="11.00">GetHostName</text>
</g>
<!-- n2&#45;&gt;n3 -->
<g id="edge2" class="edge">
<title>n2&#45;&gt;n3</title>
<path fill="none" stroke="#555555" d="M554.19,-23.23C628.86,-30.87 767.25,-45.02 845.73,-53.04"/>
<polygon fill="#555555" stroke="#555555" points="845.62,-56.55 855.92,-54.08 846.33,-49.59 845.62,-56.55"/>
</g>
<!-- n7 -->
<g id="node8" class="node">
<title>n7</title>
<path fill="#e8f4f8" stroke="black" d="M1119,-119C1119,-119 1024,-119 1024,-119 1018,-119 1012,-113 1012,-107 1012,-107 1012,-95 1012,-95 1012,-89 1018,-83 1024,-83 1024,-83 1119,-83 1119,-83 1125,-83 1131,-89 1131,-95 1131,-95 1131,-107 1131,-107 1131,-113 1125,-119 1119,-119"/>
<text text-anchor="middle" x="1071.5" y="-98.2" font-family="Helvetica" font-size="11.00">UpdateAuditCache</text>
</g>
<!-- n3&#45;&gt;n7 -->
<g id="edge8" class="edge">
<title>n3&#45;&gt;n7</title>
<path fill="none" stroke="#555555" d="M954.02,-71.26C969.02,-75.09 985.87,-79.39 1001.99,-83.51"/>
<polygon fill="#555555" stroke="#555555" points="1001.36,-86.96 1011.92,-86.04 1003.09,-80.18 1001.36,-86.96"/>
</g>
<!-- n8 -->
<g id="node9" class="node">
<title>n8</title>
<path fill="#ffccbc" stroke="black" d="M1231,-77C1231,-77 1201,-77 1201,-77 1195,-77 1189,-71 1189,-65 1189,-65 1189,-53 1189,-53 1189,-47 1195,-41 1201,-41 1201,-41 1231,-41 1231,-41 1237,-41 1243,-47 1243,-53 1243,-53 1243,-65 1243,-65 1243,-71 1237,-77 1231,-77"/>
<text text-anchor="middle" x="1216" y="-56.2" font-family="Helvetica" font-size="11.00">End</text>
</g>
<!-- n3&#45;&gt;n8 -->
<g id="edge9" class="edge">
<title>n3&#45;&gt;n8</title>
<path fill="none" stroke="#555555" d="M954.28,-59C1016.47,-59 1123.16,-59 1178.82,-59"/>
<polygon fill="#555555" stroke="#555555" points="1178.92,-62.5 1188.92,-59 1178.92,-55.5 1178.92,-62.5"/>
</g>
<!-- n4&#45;&gt;n3 -->
<g id="edge3" class="edge">
<title>n4&#45;&gt;n3</title>
<path fill="none" stroke="#555555" d="M791.12,-82.94C809.61,-79.02 828.75,-74.96 845.91,-71.32"/>
<polygon fill="#555555" stroke="#555555" points="846.71,-74.73 855.76,-69.23 845.25,-67.88 846.71,-74.73"/>
</g>
<!-- n5 -->
<g id="node6" class="node">
<title>n5</title>
<path fill="#e8f4f8" stroke="black" d="M193,-77C193,-77 124,-77 124,-77 118,-77 112,-71 112,-65 112,-65 112,-53 112,-53 112,-47 118,-41 124,-41 124,-41 193,-41 193,-41 199,-41 205,-47 205,-53 205,-53 205,-65 205,-65 205,-71 199,-77 193,-77"/>
<text text-anchor="middle" x="158.5" y="-56.2" font-family="Helvetica" font-size="11.00">Prepare Data</text>
</g>
<!-- n5&#45;&gt;n0 -->
<g id="edge4" class="edge">
<title>n5&#45;&gt;n0</title>
<path fill="none" stroke="#555555" d="M205.13,-70.48C219.85,-74.18 236.55,-78.38 252.76,-82.46"/>
<polygon fill="#555555" stroke="#555555" points="252.22,-85.93 262.77,-84.97 253.92,-79.14 252.22,-85.93"/>
</g>
<!-- n5&#45;&gt;n2 -->
<g id="edge5" class="edge">
<title>n5&#45;&gt;n2</title>
<path fill="none" stroke="#555555" d="M205.2,-53.51C265.62,-46.26 372.28,-33.45 439.67,-25.36"/>
<polygon fill="#555555" stroke="#555555" points="440.21,-28.82 449.72,-24.16 439.37,-21.87 440.21,-28.82"/>
</g>
<!-- n6 -->
<g id="node7" class="node">
<title>n6</title>
<path fill="#c8e6c9" stroke="black" d="M42,-77C42,-77 12,-77 12,-77 6,-77 0,-71 0,-65 0,-65 0,-53 0,-53 0,-47 6,-41 12,-41 12,-41 42,-41 42,-41 48,-41 54,-47 54,-53 54,-53 54,-65 54,-65 54,-71 48,-77 42,-77"/>
<text text-anchor="middle" x="27" y="-56.2" font-family="Helvetica" font-size="11.00">Start</text>
</g>
<!-- n6&#45;&gt;n5 -->
<g id="edge6" class="edge">
<title>n6&#45;&gt;n5</title>
<path fill="none" stroke="#555555" d="M54.21,-59C67.92,-59 85.25,-59 101.78,-59"/>
<polygon fill="#555555" stroke="#555555" points="101.93,-62.5 111.93,-59 101.93,-55.5 101.93,-62.5"/>
</g>
<!-- n7&#45;&gt;n8 -->
<g id="edge7" class="edge">
<title>n7&#45;&gt;n8</title>
<path fill="none" stroke="#555555" d="M1131.28,-83.67C1147.6,-78.86 1164.82,-73.79 1179.38,-69.5"/>
<polygon fill="#555555" stroke="#555555" points="1180.38,-72.85 1188.98,-66.67 1178.4,-66.14 1180.38,-72.85"/>
</g>
</g>
</svg>
