<?xml version="1.0" encoding="UTF-8" standalone="no"?>
<!DOCTYPE svg PUBLIC "-//W3C//DTD SVG 1.1//EN"
 "http://www.w3.org/Graphics/SVG/1.1/DTD/svg11.dtd">
<!-- Generated by graphviz version 2.44.0 (0)
 -->
<!-- Title: process Pages: 1 -->
<svg width="707pt" height="108pt"
 viewBox="0.00 0.00 707.00 108.00" xmlns="http://www.w3.org/2000/svg" xmlns:xlink="http://www.w3.org/1999/xlink">
<g id="graph0" class="graph" transform="scale(1 1) rotate(0) translate(36 72)">
<title>process</title>
<polygon fill="#ffffff" stroke="transparent" points="-36,36 -36,-72 671,-72 671,36 -36,36"/>
<!-- n0 -->
<g id="node1" class="node">
<title>n0</title>
<path fill="#e8f4f8" stroke="black" d="M90,-36C90,-36 12,-36 12,-36 6,-36 0,-30 0,-24 0,-24 0,-12 0,-12 0,-6 6,0 12,0 12,0 90,0 90,0 96,0 102,-6 102,-12 102,-12 102,-24 102,-24 102,-30 96,-36 90,-36"/>
<text text-anchor="middle" x="51" y="-15.2" font-family="Helvetica" font-size="11.00">HTTP Receiver</text>
</g>
<!-- n1 -->
<g id="node2" class="node">
<title>n1</title>
<path fill="#e8f4f8" stroke="black" d="M204,-36C204,-36 172,-36 172,-36 166,-36 160,-30 160,-24 160,-24 160,-12 160,-12 160,-6 166,0 172,0 172,0 204,0 204,0 210,0 216,-6 216,-12 216,-12 216,-24 216,-24 216,-30 210,-36 204,-36"/>
<text text-anchor="middle" x="188" y="-15.2" font-family="Helvetica" font-size="11.00">Sleep</text>
</g>
<!-- n0&#45;&gt;n1 -->
<g id="edge1" class="edge">
<title>n0&#45;&gt;n1</title>
<path fill="none" stroke="#555555" d="M102.27,-18C117.95,-18 134.97,-18 149.61,-18"/>
<polygon fill="#555555" stroke="#555555" points="149.79,-21.5 159.79,-18 149.79,-14.5 149.79,-21.5"/>
</g>
<!-- n2 -->
<g id="node3" class="node">
<title>n2</title>
<path fill="#e8f4f8" stroke="black" d="M316,-36C316,-36 286,-36 286,-36 280,-36 274,-30 274,-24 274,-24 274,-12 274,-12 274,-6 280,0 286,0 286,0 316,0 316,0 322,0 328,-6 328,-12 328,-12 328,-24 328,-24 328,-30 322,-36 316,-36"/>
<text text-anchor="middle" x="301" y="-15.2" font-family="Helvetica" font-size="11.00">Log</text>
</g>
<!-- n1&#45;&gt;n2 -->
<g id="edge2" class="edge">
<title>n1&#45;&gt;n2</title>
<path fill="none" stroke="#555555" d="M216.15,-18C230.44,-18 248.16,-18 263.62,-18"/>
<polygon fill="#555555" stroke="#555555" points="263.89,-21.5 273.89,-18 263.89,-14.5 263.89,-21.5"/>
</g>
<!-- n3 -->
<g id="node4" class="node">
<title>n3</title>
<path fill="#ffccbc" stroke="black" d="M511,-36C511,-36 398,-36 398,-36 392,-36 386,-30 386,-24 386,-24 386,-12 386,-12 386,-6 392,0 398,0 398,0 511,0 511,0 517,0 523,-6 523,-12 523,-12 523,-24 523,-24 523,-30 517,-36 511,-36"/>
<text text-anchor="middle" x="454.5" y="-15.2" font-family="Helvetica" font-size="11.00">Send HTTP Response</text>
</g>
<!-- n2&#45;&gt;n3 -->
<g id="edge3" class="edge">
<title>n2&#45;&gt;n3</title>
<path fill="none" stroke="#555555" d="M328.04,-18C341.41,-18 358.47,-18 375.68,-18"/>
<polygon fill="#555555" stroke="#555555" points="375.8,-21.5 385.8,-18 375.8,-14.5 375.8,-21.5"/>
</g>
<!-- n4 -->
<g id="node5" class="node">
<title>n4</title>
<path fill="#ffccbc" stroke="black" d="M623,-36C623,-36 593,-36 593,-36 587,-36 581,-30 581,-24 581,-24 581,-12 581,-12 581,-6 587,0 593,0 593,0 623,0 623,0 629,0 635,-6 635,-12 635,-12 635,-24 635,-24 635,-30 629,-36 623,-36"/>
<text text-anchor="middle" x="608" y="-15.2" font-family="Helvetica" font-size="11.00">End</text>
</g>
<!-- n3&#45;&gt;n4 -->
<g id="edge4" class="edge">
<title>n3&#45;&gt;n4</title>
<path fill="none" stroke="#555555" d="M523.27,-18C539.47,-18 556.16,-18 570.34,-18"/>
<polygon fill="#555555" stroke="#555555" points="570.64,-21.5 580.64,-18 570.64,-14.5 570.64,-21.5"/>
</g>
</g>
</svg>
