<?xml version="1.0" encoding="UTF-8" standalone="no"?>
<!DOCTYPE svg PUBLIC "-//W3C//DTD SVG 1.1//EN"
 "http://www.w3.org/Graphics/SVG/1.1/DTD/svg11.dtd">
<!-- Generated by graphviz version 2.44.0 (0)
 -->
<!-- Title: process Pages: 1 -->
<svg width="482pt" height="187pt"
 viewBox="0.00 0.00 482.00 187.00" xmlns="http://www.w3.org/2000/svg" xmlns:xlink="http://www.w3.org/1999/xlink">
<g id="graph0" class="graph" transform="scale(1 1) rotate(0) translate(36 151)">
<title>process</title>
<polygon fill="#ffffff" stroke="transparent" points="-36,36 -36,-151 446,-151 446,36 -36,36"/>
<!-- n0 -->
<g id="node1" class="node">
<title>n0</title>
<path fill="#c8e6c9" stroke="black" d="M42,-75C42,-75 12,-75 12,-75 6,-75 0,-69 0,-63 0,-63 0,-51 0,-51 0,-45 6,-39 12,-39 12,-39 42,-39 42,-39 48,-39 54,-45 54,-51 54,-51 54,-63 54,-63 54,-69 48,-75 42,-75"/>
<text text-anchor="middle" x="27" y="-54.2" font-family="Helvetica" font-size="11.00">Start</text>
</g>
<!-- n1 -->
<g id="node2" class="node">
<title>n1</title>
<path fill="#e8f4f8" stroke="black" d="M222,-75C222,-75 124,-75 124,-75 118,-75 112,-69 112,-63 112,-63 112,-51 112,-51 112,-45 118,-39 124,-39 124,-39 222,-39 222,-39 228,-39 234,-45 234,-51 234,-51 234,-63 234,-63 234,-69 228,-75 222,-75"/>
<text text-anchor="middle" x="173" y="-54.2" font-family="Helvetica" font-size="11.00">GetOperationName</text>
</g>
<!-- n0&#45;&gt;n1 -->
<g id="edge1" class="edge">
<title>n0&#45;&gt;n1</title>
<path fill="none" stroke="#555555" d="M54.08,-57C67.43,-57 84.41,-57 101.29,-57"/>
<polygon fill="#555555" stroke="#555555" points="101.75,-60.5 111.75,-57 101.75,-53.5 101.75,-60.5"/>
</g>
<!-- n2 -->
<g id="node3" class="node">
<title>n2</title>
<path fill="#ffccbc" stroke="black" d="M366,-115C366,-115 336,-115 336,-115 330,-115 324,-109 324,-103 324,-103 324,-91 324,-91 324,-85 330,-79 336,-79 336,-79 366,-79 366,-79 372,-79 378,-85 378,-91 378,-91 378,-103 378,-103 378,-109 372,-115 366,-115"/>
<text text-anchor="middle" x="351" y="-94.2" font-family="Helvetica" font-size="11.00">End</text>
</g>
<!-- n1&#45;&gt;n2 -->
<g id="edge2" class="edge">
<title>n1&#45;&gt;n2</title>
<path fill="none" stroke="#555555" d="M234.08,-70.65C260.5,-76.66 290.67,-83.52 313.61,-88.73"/>
<polygon fill="#555555" stroke="#555555" points="313.07,-92.2 323.6,-91 314.63,-85.37 313.07,-92.2"/>
</g>
<!-- n3 -->
<g id="node4" class="node">
<title>n3</title>
<path fill="#e8f4f8" stroke="black" d="M398,-36C398,-36 304,-36 304,-36 298,-36 292,-30 292,-24 292,-24 292,-12 292,-12 292,-6 298,0 304,0 304,0 398,0 398,0 404,0 410,-6 410,-12 410,-12 410,-24 410,-24 410,-30 404,-36 398,-36"/>
<text text-anchor="middle" x="351" y="-15.2" font-family="Helvetica" font-size="11.00">ConfigurationError</text>
</g>
<!-- n1&#45;&gt;n3 -->
<g id="edge3" class="edge">
<title>n1&#45;&gt;n3</title>
<path fill="none" stroke="#555555" d="M234.08,-43.69C249.43,-40.28 266.06,-36.6 281.79,-33.11"/>
<polygon fill="#555555" stroke="#555555" points="282.97,-36.44 291.98,-30.86 281.46,-29.6 282.97,-36.44"/>
</g>
</g>
</svg>
