<?xml version="1.0" encoding="UTF-8" standalone="no"?>
<!DOCTYPE svg PUBLIC "-//W3C//DTD SVG 1.1//EN"
 "http://www.w3.org/Graphics/SVG/1.1/DTD/svg11.dtd">
<!-- Generated by graphviz version 2.44.0 (0)
 -->
<!-- Title: process Pages: 1 -->
<svg width="653pt" height="150pt"
 viewBox="0.00 0.00 653.00 150.00" xmlns="http://www.w3.org/2000/svg" xmlns:xlink="http://www.w3.org/1999/xlink">
<g id="graph0" class="graph" transform="scale(1 1) rotate(0) translate(36 114)">
<title>process</title>
<polygon fill="#ffffff" stroke="transparent" points="-36,36 -36,-114 617,-114 617,36 -36,36"/>
<!-- n0 -->
<g id="node1" class="node">
<title>n0</title>
<path fill="#e8f4f8" stroke="black" d="M64,-36C64,-36 12,-36 12,-36 6,-36 0,-30 0,-24 0,-24 0,-12 0,-12 0,-6 6,0 12,0 12,0 64,0 64,0 70,0 76,-6 76,-12 76,-12 76,-24 76,-24 76,-30 70,-36 64,-36"/>
<text text-anchor="middle" x="38" y="-15.2" font-family="Helvetica" font-size="11.00">onStartup</text>
</g>
<!-- n1 -->
<g id="node2" class="node">
<title>n1</title>
<path fill="#e8f4f8" stroke="black" d="M268,-36C268,-36 146,-36 146,-36 140,-36 134,-30 134,-24 134,-24 134,-12 134,-12 134,-6 140,0 146,0 146,0 268,0 268,0 274,0 280,-6 280,-12 280,-12 280,-24 280,-24 280,-30 274,-36 268,-36"/>
<text text-anchor="middle" x="207" y="-15.2" font-family="Helvetica" font-size="11.00">LoadOperationValidation</text>
</g>
<!-- n0&#45;&gt;n1 -->
<g id="edge1" class="edge">
<title>n0&#45;&gt;n1</title>
<path fill="none" stroke="#555555" d="M76.06,-18C90.15,-18 106.82,-18 123.44,-18"/>
<polygon fill="#555555" stroke="#555555" points="123.76,-21.5 133.76,-18 123.76,-14.5 123.76,-21.5"/>
</g>
<!-- n2 -->
<g id="node3" class="node">
<title>n2</title>
<path fill="#e8f4f8" stroke="black" d="M457,-78C457,-78 350,-78 350,-78 344,-78 338,-72 338,-66 338,-66 338,-54 338,-54 338,-48 344,-42 350,-42 350,-42 457,-42 457,-42 463,-42 469,-48 469,-54 469,-54 469,-66 469,-66 469,-72 463,-78 457,-78"/>
<text text-anchor="middle" x="403.5" y="-57.2" font-family="Helvetica" font-size="11.00">Shutdown BWEngine</text>
</g>
<!-- n1&#45;&gt;n2 -->
<g id="edge3" class="edge">
<title>n1&#45;&gt;n2</title>
<path fill="none" stroke="#555555" d="M280.15,-33.58C295.67,-36.93 312.1,-40.48 327.72,-43.85"/>
<polygon fill="#555555" stroke="#555555" points="327.33,-47.35 337.85,-46.04 328.81,-40.51 327.33,-47.35"/>
</g>
<!-- n3 -->
<g id="node4" class="node">
<title>n3</title>
<path fill="#ffccbc" stroke="black" d="M569,-36C569,-36 539,-36 539,-36 533,-36 527,-30 527,-24 527,-24 527,-12 527,-12 527,-6 533,0 539,0 539,0 569,0 569,0 575,0 581,-6 581,-12 581,-12 581,-24 581,-24 581,-30 575,-36 569,-36"/>
<text text-anchor="middle" x="554" y="-15.2" font-family="Helvetica" font-size="11.00">End</text>
</g>
<!-- n1&#45;&gt;n3 -->
<g id="edge4" class="edge">
<title>n1&#45;&gt;n3</title>
<path fill="none" stroke="#555555" d="M280.32,-18C352.53,-18 460.58,-18 516.52,-18"/>
<polygon fill="#555555" stroke="#555555" points="516.66,-21.5 526.66,-18 516.66,-14.5 516.66,-21.5"/>
</g>
<!-- n2&#45;&gt;n3 -->
<g id="edge2" class="edge">
<title>n2&#45;&gt;n3</title>
<path fill="none" stroke="#555555" d="M468.34,-41.94C485.07,-37.21 502.53,-32.28 517.21,-28.12"/>
<polygon fill="#555555" stroke="#555555" points="518.22,-31.47 526.89,-25.38 516.31,-24.74 518.22,-31.47"/>
</g>
</g>
</svg>
