<?xml version="1.0" encoding="UTF-8" standalone="no"?>
<!DOCTYPE svg PUBLIC "-//W3C//DTD SVG 1.1//EN"
 "http://www.w3.org/Graphics/SVG/1.1/DTD/svg11.dtd">
<!-- Generated by graphviz version 2.44.0 (0)
 -->
<!-- Title: process Pages: 1 -->
<svg width="995pt" height="187pt"
 viewBox="0.00 0.00 995.00 187.00" xmlns="http://www.w3.org/2000/svg" xmlns:xlink="http://www.w3.org/1999/xlink">
<g id="graph0" class="graph" transform="scale(1 1) rotate(0) translate(36 151)">
<title>process</title>
<polygon fill="#ffffff" stroke="transparent" points="-36,36 -36,-151 959,-151 959,36 -36,36"/>
<!-- n0 -->
<g id="node1" class="node">
<title>n0</title>
<path fill="#c8e6c9" stroke="black" d="M42,-75C42,-75 12,-75 12,-75 6,-75 0,-69 0,-63 0,-63 0,-51 0,-51 0,-45 6,-39 12,-39 12,-39 42,-39 42,-39 48,-39 54,-45 54,-51 54,-51 54,-63 54,-63 54,-69 48,-75 42,-75"/>
<text text-anchor="middle" x="27" y="-54.2" font-family="Helvetica" font-size="11.00">Start</text>
</g>
<!-- n1 -->
<g id="node2" class="node">
<title>n1</title>
<path fill="#e8f4f8" stroke="black" d="M182,-75C182,-75 124,-75 124,-75 118,-75 112,-69 112,-63 112,-63 112,-51 112,-51 112,-45 118,-39 124,-39 124,-39 182,-39 182,-39 188,-39 194,-45 194,-51 194,-51 194,-63 194,-63 194,-69 188,-75 182,-75"/>
<text text-anchor="middle" x="153" y="-54.2" font-family="Helvetica" font-size="11.00">Parse XML</text>
</g>
<!-- n0&#45;&gt;n1 -->
<g id="edge1" class="edge">
<title>n0&#45;&gt;n1</title>
<path fill="none" stroke="#555555" d="M54.3,-57C67.94,-57 85.09,-57 101.19,-57"/>
<polygon fill="#555555" stroke="#555555" points="101.58,-60.5 111.58,-57 101.58,-53.5 101.58,-60.5"/>
</g>
<!-- n4 -->
<g id="node5" class="node">
<title>n4</title>
<path fill="#e8f4f8" stroke="black" d="M323,-75C323,-75 264,-75 264,-75 258,-75 252,-69 252,-63 252,-63 252,-51 252,-51 252,-45 258,-39 264,-39 264,-39 323,-39 323,-39 329,-39 335,-45 335,-51 335,-51 335,-63 335,-63 335,-69 329,-75 323,-75"/>
<text text-anchor="middle" x="293.5" y="-54.2" font-family="Helvetica" font-size="11.00">WriteToLog</text>
</g>
<!-- n1&#45;&gt;n4 -->
<g id="edge3" class="edge">
<title>n1&#45;&gt;n4</title>
<path fill="none" stroke="#555555" d="M194.06,-57C208.87,-57 225.86,-57 241.51,-57"/>
<polygon fill="#555555" stroke="#555555" points="241.57,-60.5 251.57,-57 241.57,-53.5 241.57,-60.5"/>
</g>
<!-- n2 -->
<g id="node3" class="node">
<title>n2</title>
<path fill="#e8f4f8" stroke="black" d="M640,-115C640,-115 563,-115 563,-115 557,-115 551,-109 551,-103 551,-103 551,-91 551,-91 551,-85 557,-79 563,-79 563,-79 640,-79 640,-79 646,-79 652,-85 652,-91 652,-91 652,-103 652,-103 652,-109 646,-115 640,-115"/>
<text text-anchor="middle" x="601.5" y="-94.2" font-family="Helvetica" font-size="11.00">PublishToTopic</text>
</g>
<!-- n3 -->
<g id="node4" class="node">
<title>n3</title>
<path fill="#e8f4f8" stroke="black" d="M795,-115C795,-115 726,-115 726,-115 720,-115 714,-109 714,-103 714,-103 714,-91 714,-91 714,-85 720,-79 726,-79 726,-79 795,-79 795,-79 801,-79 807,-85 807,-91 807,-91 807,-103 807,-103 807,-109 801,-115 795,-115"/>
<text text-anchor="middle" x="760.5" y="-94.2" font-family="Helvetica" font-size="11.00">WriteToLog&#45;1</text>
</g>
<!-- n2&#45;&gt;n3 -->
<g id="edge2" class="edge">
<title>n2&#45;&gt;n3</title>
<path fill="none" stroke="#555555" d="M652.18,-97C668.54,-97 686.85,-97 703.65,-97"/>
<polygon fill="#555555" stroke="#555555" points="703.88,-100.5 713.88,-97 703.88,-93.5 703.88,-100.5"/>
</g>
<!-- n6 -->
<g id="node7" class="node">
<title>n6</title>
<path fill="#ffccbc" stroke="black" d="M911,-115C911,-115 881,-115 881,-115 875,-115 869,-109 869,-103 869,-103 869,-91 869,-91 869,-85 875,-79 881,-79 881,-79 911,-79 911,-79 917,-79 923,-85 923,-91 923,-91 923,-103 923,-103 923,-109 917,-115 911,-115"/>
<text text-anchor="middle" x="896" y="-94.2" font-family="Helvetica" font-size="11.00">End</text>
</g>
<!-- n3&#45;&gt;n6 -->
<g id="edge5" class="edge">
<title>n3&#45;&gt;n6</title>
<path fill="none" stroke="#555555" d="M807.07,-97C823.76,-97 842.43,-97 858.25,-97"/>
<polygon fill="#555555" stroke="#555555" points="858.69,-100.5 868.69,-97 858.69,-93.5 858.69,-100.5"/>
</g>
<!-- n5 -->
<g id="node6" class="node">
<title>n5</title>
<path fill="#e8f4f8" stroke="black" d="M481,-75C481,-75 405,-75 405,-75 399,-75 393,-69 393,-63 393,-63 393,-51 393,-51 393,-45 399,-39 405,-39 405,-39 481,-39 481,-39 487,-39 493,-45 493,-51 493,-51 493,-63 493,-63 493,-69 487,-75 481,-75"/>
<text text-anchor="middle" x="443" y="-54.2" font-family="Helvetica" font-size="11.00">FetchOrderIDs</text>
</g>
<!-- n4&#45;&gt;n5 -->
<g id="edge4" class="edge">
<title>n4&#45;&gt;n5</title>
<path fill="none" stroke="#555555" d="M335.2,-57C349.81,-57 366.62,-57 382.51,-57"/>
<polygon fill="#555555" stroke="#555555" points="382.78,-60.5 392.78,-57 382.78,-53.5 382.78,-60.5"/>
</g>
<!-- n5&#45;&gt;n2 -->
<g id="edge6" class="edge">
<title>n5&#45;&gt;n2</title>
<path fill="none" stroke="#555555" d="M493.09,-69.55C508.31,-73.44 525.24,-77.76 541.08,-81.81"/>
<polygon fill="#555555" stroke="#555555" points="540.22,-85.21 550.78,-84.29 541.96,-78.42 540.22,-85.21"/>
</g>
<!-- n7 -->
<g id="node8" class="node">
<title>n7</title>
<path fill="#e8f4f8" stroke="black" d="M636,-36C636,-36 567,-36 567,-36 561,-36 555,-30 555,-24 555,-24 555,-12 555,-12 555,-6 561,0 567,0 567,0 636,0 636,0 642,0 648,-6 648,-12 648,-12 648,-24 648,-24 648,-30 642,-36 636,-36"/>
<text text-anchor="middle" x="601.5" y="-15.2" font-family="Helvetica" font-size="11.00">WriteToLog&#45;2</text>
</g>
<!-- n5&#45;&gt;n7 -->
<g id="edge7" class="edge">
<title>n5&#45;&gt;n7</title>
<path fill="none" stroke="#555555" d="M493.09,-44.77C509.57,-40.66 528.07,-36.05 545.02,-31.83"/>
<polygon fill="#555555" stroke="#555555" points="545.93,-35.21 554.78,-29.39 544.23,-28.41 545.93,-35.21"/>
</g>
<!-- n8 -->
<g id="node9" class="node">
<title>n8</title>
<path fill="#ffcdd2" stroke="black" d="M799,-36C799,-36 722,-36 722,-36 716,-36 710,-30 710,-24 710,-24 710,-12 710,-12 710,-6 716,0 722,0 722,0 799,0 799,0 805,0 811,-6 811,-12 811,-12 811,-24 811,-24 811,-30 805,-36 799,-36"/>
<text text-anchor="middle" x="760.5" y="-15.2" font-family="Helvetica" font-size="11.00">Generate Error</text>
</g>
<!-- n7&#45;&gt;n8 -->
<g id="edge8" class="edge">
<title>n7&#45;&gt;n8</title>
<path fill="none" stroke="#555555" d="M648.33,-18C664.3,-18 682.46,-18 699.4,-18"/>
<polygon fill="#555555" stroke="#555555" points="699.77,-21.5 709.77,-18 699.77,-14.5 699.77,-21.5"/>
</g>
</g>
</svg>
