<?xml version="1.0" encoding="UTF-8" standalone="no"?>
<!DOCTYPE svg PUBLIC "-//W3C//DTD SVG 1.1//EN"
 "http://www.w3.org/Graphics/SVG/1.1/DTD/svg11.dtd">
<!-- Generated by graphviz version 2.44.0 (0)
 -->
<!-- Title: process Pages: 1 -->
<svg width="828pt" height="108pt"
 viewBox="0.00 0.00 828.00 108.00" xmlns="http://www.w3.org/2000/svg" xmlns:xlink="http://www.w3.org/1999/xlink">
<g id="graph0" class="graph" transform="scale(1 1) rotate(0) translate(36 72)">
<title>process</title>
<polygon fill="#ffffff" stroke="transparent" points="-36,36 -36,-72 792,-72 792,36 -36,36"/>
<!-- n0 -->
<g id="node1" class="node">
<title>n0</title>
<path fill="#c8e6c9" stroke="black" d="M42,-36C42,-36 12,-36 12,-36 6,-36 0,-30 0,-24 0,-24 0,-12 0,-12 0,-6 6,0 12,0 12,0 42,0 42,0 48,0 54,-6 54,-12 54,-12 54,-24 54,-24 54,-30 48,-36 42,-36"/>
<text text-anchor="middle" x="27" y="-15.2" font-family="Helvetica" font-size="11.00">Start</text>
</g>
<!-- n1 -->
<g id="node2" class="node">
<title>n1</title>
<path fill="#e8f4f8" stroke="black" d="M253,-36C253,-36 124,-36 124,-36 118,-36 112,-30 112,-24 112,-24 112,-12 112,-12 112,-6 118,0 124,0 124,0 253,0 253,0 259,0 265,-6 265,-12 265,-12 265,-24 265,-24 265,-30 259,-36 253,-36"/>
<text text-anchor="middle" x="188.5" y="-15.2" font-family="Helvetica" font-size="11.00">Get Routing Configuration</text>
</g>
<!-- n0&#45;&gt;n1 -->
<g id="edge1" class="edge">
<title>n0&#45;&gt;n1</title>
<path fill="none" stroke="#555555" d="M54.34,-18C67.58,-18 84.45,-18 101.71,-18"/>
<polygon fill="#555555" stroke="#555555" points="101.88,-21.5 111.88,-18 101.88,-14.5 101.88,-21.5"/>
</g>
<!-- n4 -->
<g id="node5" class="node">
<title>n4</title>
<path fill="#e8f4f8" stroke="black" d="M481,-36C481,-36 335,-36 335,-36 329,-36 323,-30 323,-24 323,-24 323,-12 323,-12 323,-6 329,0 335,0 335,0 481,0 481,0 487,0 493,-6 493,-12 493,-12 493,-24 493,-24 493,-30 487,-36 481,-36"/>
<text text-anchor="middle" x="408" y="-15.2" font-family="Helvetica" font-size="11.00">Compute Dynamic Properties</text>
</g>
<!-- n1&#45;&gt;n4 -->
<g id="edge3" class="edge">
<title>n1&#45;&gt;n4</title>
<path fill="none" stroke="#555555" d="M265.27,-18C280.55,-18 296.8,-18 312.63,-18"/>
<polygon fill="#555555" stroke="#555555" points="312.96,-21.5 322.96,-18 312.96,-14.5 312.96,-21.5"/>
</g>
<!-- n2 -->
<g id="node3" class="node">
<title>n2</title>
<path fill="#e8f4f8" stroke="black" d="M632,-36C632,-36 563,-36 563,-36 557,-36 551,-30 551,-24 551,-24 551,-12 551,-12 551,-6 557,0 563,0 563,0 632,0 632,0 638,0 644,-6 644,-12 644,-12 644,-24 644,-24 644,-30 638,-36 632,-36"/>
<text text-anchor="middle" x="597.5" y="-15.2" font-family="Helvetica" font-size="11.00">Prepare Data</text>
</g>
<!-- n3 -->
<g id="node4" class="node">
<title>n3</title>
<path fill="#ffccbc" stroke="black" d="M744,-36C744,-36 714,-36 714,-36 708,-36 702,-30 702,-24 702,-24 702,-12 702,-12 702,-6 708,0 714,0 714,0 744,0 744,0 750,0 756,-6 756,-12 756,-12 756,-24 756,-24 756,-30 750,-36 744,-36"/>
<text text-anchor="middle" x="729" y="-15.2" font-family="Helvetica" font-size="11.00">End</text>
</g>
<!-- n2&#45;&gt;n3 -->
<g id="edge2" class="edge">
<title>n2&#45;&gt;n3</title>
<path fill="none" stroke="#555555" d="M644.16,-18C659.74,-18 676.95,-18 691.7,-18"/>
<polygon fill="#555555" stroke="#555555" points="691.95,-21.5 701.95,-18 691.95,-14.5 691.95,-21.5"/>
</g>
<!-- n4&#45;&gt;n2 -->
<g id="edge4" class="edge">
<title>n4&#45;&gt;n2</title>
<path fill="none" stroke="#555555" d="M493.15,-18C509.29,-18 525.81,-18 540.77,-18"/>
<polygon fill="#555555" stroke="#555555" points="540.86,-21.5 550.86,-18 540.86,-14.5 540.86,-21.5"/>
</g>
</g>
</svg>
