<?xml version="1.0" encoding="UTF-8" standalone="no"?>
<!DOCTYPE svg PUBLIC "-//W3C//DTD SVG 1.1//EN"
 "http://www.w3.org/Graphics/SVG/1.1/DTD/svg11.dtd">
<!-- Generated by graphviz version 2.44.0 (0)
 -->
<!-- Title: process Pages: 1 -->
<svg width="598pt" height="187pt"
 viewBox="0.00 0.00 598.00 187.00" xmlns="http://www.w3.org/2000/svg" xmlns:xlink="http://www.w3.org/1999/xlink">
<g id="graph0" class="graph" transform="scale(1 1) rotate(0) translate(36 151)">
<title>process</title>
<polygon fill="#ffffff" stroke="transparent" points="-36,36 -36,-151 562,-151 562,36 -36,36"/>
<!-- n0 -->
<g id="node1" class="node">
<title>n0</title>
<path fill="#e8f4f8" stroke="black" d="M402,-115C402,-115 310,-115 310,-115 304,-115 298,-109 298,-103 298,-103 298,-91 298,-91 298,-85 304,-79 310,-79 310,-79 402,-79 402,-79 408,-79 414,-85 414,-91 414,-91 414,-103 414,-103 414,-109 408,-115 402,-115"/>
<text text-anchor="middle" x="356" y="-94.2" font-family="Helvetica" font-size="11.00">Call TIL Operation</text>
</g>
<!-- n1 -->
<g id="node2" class="node">
<title>n1</title>
<path fill="#ffccbc" stroke="black" d="M514,-115C514,-115 484,-115 484,-115 478,-115 472,-109 472,-103 472,-103 472,-91 472,-91 472,-85 478,-79 484,-79 484,-79 514,-79 514,-79 520,-79 526,-85 526,-91 526,-91 526,-103 526,-103 526,-109 520,-115 514,-115"/>
<text text-anchor="middle" x="499" y="-94.2" font-family="Helvetica" font-size="11.00">End</text>
</g>
<!-- n0&#45;&gt;n1 -->
<g id="edge1" class="edge">
<title>n0&#45;&gt;n1</title>
<path fill="none" stroke="#555555" d="M414.35,-97C430.42,-97 447.44,-97 461.91,-97"/>
<polygon fill="#555555" stroke="#555555" points="461.93,-100.5 471.93,-97 461.93,-93.5 461.93,-100.5"/>
</g>
<!-- n2 -->
<g id="node3" class="node">
<title>n2</title>
<path fill="#e8f4f8" stroke="black" d="M205.5,-115C205.5,-115 146.5,-115 146.5,-115 140.5,-115 134.5,-109 134.5,-103 134.5,-103 134.5,-91 134.5,-91 134.5,-85 140.5,-79 146.5,-79 146.5,-79 205.5,-79 205.5,-79 211.5,-79 217.5,-85 217.5,-91 217.5,-91 217.5,-103 217.5,-103 217.5,-109 211.5,-115 205.5,-115"/>
<text text-anchor="middle" x="176" y="-94.2" font-family="Helvetica" font-size="11.00">WriteToLog</text>
</g>
<!-- n2&#45;&gt;n0 -->
<g id="edge2" class="edge">
<title>n2&#45;&gt;n0</title>
<path fill="none" stroke="#555555" d="M217.84,-97C238.49,-97 264.1,-97 287.57,-97"/>
<polygon fill="#555555" stroke="#555555" points="287.83,-100.5 297.83,-97 287.83,-93.5 287.83,-100.5"/>
</g>
<!-- n3 -->
<g id="node4" class="node">
<title>n3</title>
<path fill="#c8e6c9" stroke="black" d="M42,-75C42,-75 12,-75 12,-75 6,-75 0,-69 0,-63 0,-63 0,-51 0,-51 0,-45 6,-39 12,-39 12,-39 42,-39 42,-39 48,-39 54,-45 54,-51 54,-51 54,-63 54,-63 54,-69 48,-75 42,-75"/>
<text text-anchor="middle" x="27" y="-54.2" font-family="Helvetica" font-size="11.00">Start</text>
</g>
<!-- n3&#45;&gt;n2 -->
<g id="edge3" class="edge">
<title>n3&#45;&gt;n2</title>
<path fill="none" stroke="#555555" d="M54.28,-64.15C73.72,-69.44 100.8,-76.81 124.38,-83.23"/>
<polygon fill="#555555" stroke="#555555" points="123.68,-86.66 134.25,-85.91 125.52,-79.91 123.68,-86.66"/>
</g>
<!-- n4 -->
<g id="node5" class="node">
<title>n4</title>
<path fill="#e8f4f8" stroke="black" d="M228,-36C228,-36 124,-36 124,-36 118,-36 112,-30 112,-24 112,-24 112,-12 112,-12 112,-6 118,0 124,0 124,0 228,0 228,0 234,0 240,-6 240,-12 240,-12 240,-24 240,-24 240,-30 234,-36 228,-36"/>
<text text-anchor="middle" x="176" y="-15.2" font-family="Helvetica" font-size="11.00">MandatoryInputError</text>
</g>
<!-- n3&#45;&gt;n4 -->
<g id="edge4" class="edge">
<title>n3&#45;&gt;n4</title>
<path fill="none" stroke="#555555" d="M54.28,-50.03C67.74,-46.46 84.87,-41.91 101.96,-37.38"/>
<polygon fill="#555555" stroke="#555555" points="103.23,-40.66 111.99,-34.72 101.43,-33.9 103.23,-40.66"/>
</g>
</g>
</svg>
