<?xml version="1.0" encoding="UTF-8" standalone="no"?>
<!DOCTYPE svg PUBLIC "-//W3C//DTD SVG 1.1//EN"
 "http://www.w3.org/Graphics/SVG/1.1/DTD/svg11.dtd">
<!-- Generated by graphviz version 2.44.0 (0)
 -->
<!-- Title: process Pages: 1 -->
<svg width="587pt" height="187pt"
 viewBox="0.00 0.00 587.00 187.00" xmlns="http://www.w3.org/2000/svg" xmlns:xlink="http://www.w3.org/1999/xlink">
<g id="graph0" class="graph" transform="scale(1 1) rotate(0) translate(36 151)">
<title>process</title>
<polygon fill="#ffffff" stroke="transparent" points="-36,36 -36,-151 551,-151 551,36 -36,36"/>
<!-- n0 -->
<g id="node1" class="node">
<title>n0</title>
<path fill="#e8f4f8" stroke="black" d="M250,-75C250,-75 126,-75 126,-75 120,-75 114,-69 114,-63 114,-63 114,-51 114,-51 114,-45 120,-39 126,-39 126,-39 250,-39 250,-39 256,-39 262,-45 262,-51 262,-51 262,-63 262,-63 262,-69 256,-75 250,-75"/>
<text text-anchor="middle" x="188" y="-54.2" font-family="Helvetica" font-size="11.00">LoadPartnerBIDMapping</text>
</g>
<!-- n1 -->
<g id="node2" class="node">
<title>n1</title>
<path fill="#e8f4f8" stroke="black" d="M385,-115C385,-115 338,-115 338,-115 332,-115 326,-109 326,-103 326,-103 326,-91 326,-91 326,-85 332,-79 338,-79 338,-79 385,-79 385,-79 391,-79 397,-85 397,-91 397,-91 397,-103 397,-103 397,-109 391,-115 385,-115"/>
<text text-anchor="middle" x="361.5" y="-94.2" font-family="Helvetica" font-size="11.00">LogError</text>
</g>
<!-- n0&#45;&gt;n1 -->
<g id="edge1" class="edge">
<title>n0&#45;&gt;n1</title>
<path fill="none" stroke="#555555" d="M262.23,-74.08C280.47,-78.34 299.49,-82.77 315.88,-86.59"/>
<polygon fill="#555555" stroke="#555555" points="315.18,-90.02 325.72,-88.89 316.77,-83.21 315.18,-90.02"/>
</g>
<!-- n2 -->
<g id="node3" class="node">
<title>n2</title>
<path fill="#e8f4f8" stroke="black" d="M391,-36C391,-36 332,-36 332,-36 326,-36 320,-30 320,-24 320,-24 320,-12 320,-12 320,-6 326,0 332,0 332,0 391,0 391,0 397,0 403,-6 403,-12 403,-12 403,-24 403,-24 403,-30 397,-36 391,-36"/>
<text text-anchor="middle" x="361.5" y="-15.2" font-family="Helvetica" font-size="11.00">WriteToLog</text>
</g>
<!-- n0&#45;&gt;n2 -->
<g id="edge2" class="edge">
<title>n0&#45;&gt;n2</title>
<path fill="none" stroke="#555555" d="M262.23,-40.35C278.21,-36.71 294.78,-32.95 309.66,-29.56"/>
<polygon fill="#555555" stroke="#555555" points="310.68,-32.92 319.66,-27.29 309.13,-26.09 310.68,-32.92"/>
</g>
<!-- n3 -->
<g id="node4" class="node">
<title>n3</title>
<path fill="#ffccbc" stroke="black" d="M503,-75C503,-75 473,-75 473,-75 467,-75 461,-69 461,-63 461,-63 461,-51 461,-51 461,-45 467,-39 473,-39 473,-39 503,-39 503,-39 509,-39 515,-45 515,-51 515,-51 515,-63 515,-63 515,-69 509,-75 503,-75"/>
<text text-anchor="middle" x="488" y="-54.2" font-family="Helvetica" font-size="11.00">End</text>
</g>
<!-- n1&#45;&gt;n3 -->
<g id="edge3" class="edge">
<title>n1&#45;&gt;n3</title>
<path fill="none" stroke="#555555" d="M397.18,-85.86C414.02,-80.45 434.24,-73.95 451.22,-68.5"/>
<polygon fill="#555555" stroke="#555555" points="452.35,-71.81 460.8,-65.42 450.21,-65.15 452.35,-71.81"/>
</g>
<!-- n2&#45;&gt;n3 -->
<g id="edge5" class="edge">
<title>n2&#45;&gt;n3</title>
<path fill="none" stroke="#555555" d="M403.27,-30.77C418.59,-35.57 435.9,-40.99 450.79,-45.66"/>
<polygon fill="#555555" stroke="#555555" points="450.06,-49.1 460.65,-48.75 452.15,-42.42 450.06,-49.1"/>
</g>
<!-- n4 -->
<g id="node5" class="node">
<title>n4</title>
<path fill="#e8f4f8" stroke="black" d="M44,-75C44,-75 12,-75 12,-75 6,-75 0,-69 0,-63 0,-63 0,-51 0,-51 0,-45 6,-39 12,-39 12,-39 44,-39 44,-39 50,-39 56,-45 56,-51 56,-51 56,-63 56,-63 56,-69 50,-75 44,-75"/>
<text text-anchor="middle" x="28" y="-54.2" font-family="Helvetica" font-size="11.00">Timer</text>
</g>
<!-- n4&#45;&gt;n0 -->
<g id="edge4" class="edge">
<title>n4&#45;&gt;n0</title>
<path fill="none" stroke="#555555" d="M56.16,-57C69.51,-57 86.4,-57 103.56,-57"/>
<polygon fill="#555555" stroke="#555555" points="103.68,-60.5 113.68,-57 103.68,-53.5 103.68,-60.5"/>
</g>
</g>
</svg>
