<?xml version="1.0" encoding="UTF-8" standalone="no"?>
<!DOCTYPE svg PUBLIC "-//W3C//DTD SVG 1.1//EN"
 "http://www.w3.org/Graphics/SVG/1.1/DTD/svg11.dtd">
<!-- Generated by graphviz version 2.44.0 (0)
 -->
<!-- Title: process Pages: 1 -->
<svg width="895pt" height="149pt"
 viewBox="0.00 0.00 895.00 149.00" xmlns="http://www.w3.org/2000/svg" xmlns:xlink="http://www.w3.org/1999/xlink">
<g id="graph0" class="graph" transform="scale(1 1) rotate(0) translate(36 113)">
<title>process</title>
<polygon fill="#ffffff" stroke="transparent" points="-36,36 -36,-113 859,-113 859,36 -36,36"/>
<!-- n0 -->
<g id="node1" class="node">
<title>n0</title>
<path fill="#c8e6c9" stroke="black" d="M42,-77C42,-77 12,-77 12,-77 6,-77 0,-71 0,-65 0,-65 0,-53 0,-53 0,-47 6,-41 12,-41 12,-41 42,-41 42,-41 48,-41 54,-47 54,-53 54,-53 54,-65 54,-65 54,-71 48,-77 42,-77"/>
<text text-anchor="middle" x="27" y="-56.2" font-family="Helvetica" font-size="11.00">Start</text>
</g>
<!-- n1 -->
<g id="node2" class="node">
<title>n1</title>
<path fill="#e8f4f8" stroke="black" d="M240,-77C240,-77 124,-77 124,-77 118,-77 112,-71 112,-65 112,-65 112,-53 112,-53 112,-47 118,-41 124,-41 124,-41 240,-41 240,-41 246,-41 252,-47 252,-53 252,-53 252,-65 252,-65 252,-71 246,-77 240,-77"/>
<text text-anchor="middle" x="182" y="-56.2" font-family="Helvetica" font-size="11.00">SystemExceptionClient</text>
</g>
<!-- n0&#45;&gt;n1 -->
<g id="edge1" class="edge">
<title>n0&#45;&gt;n1</title>
<path fill="none" stroke="#555555" d="M54.3,-59C67.66,-59 84.67,-59 101.86,-59"/>
<polygon fill="#555555" stroke="#555555" points="101.97,-62.5 111.97,-59 101.97,-55.5 101.97,-62.5"/>
</g>
<!-- n2 -->
<g id="node3" class="node">
<title>n2</title>
<path fill="#e8f4f8" stroke="black" d="M699,-77C699,-77 648,-77 648,-77 642,-77 636,-71 636,-65 636,-65 636,-53 636,-53 636,-47 642,-41 648,-41 648,-41 699,-41 699,-41 705,-41 711,-47 711,-53 711,-53 711,-65 711,-65 711,-71 705,-77 699,-77"/>
<text text-anchor="middle" x="673.5" y="-56.2" font-family="Helvetica" font-size="11.00">Map Data</text>
</g>
<!-- n1&#45;&gt;n2 -->
<g id="edge2" class="edge">
<title>n1&#45;&gt;n2</title>
<path fill="none" stroke="#555555" d="M252.1,-59C353.27,-59 539.07,-59 625.72,-59"/>
<polygon fill="#555555" stroke="#555555" points="625.78,-62.5 635.78,-59 625.78,-55.5 625.78,-62.5"/>
</g>
<!-- n3 -->
<g id="node4" class="node">
<title>n3</title>
<path fill="#ffcdd2" stroke="black" d="M372,-36C372,-36 322,-36 322,-36 316,-36 310,-30 310,-24 310,-24 310,-12 310,-12 310,-6 316,0 322,0 322,0 372,0 372,0 378,0 384,-6 384,-12 384,-12 384,-24 384,-24 384,-30 378,-36 372,-36"/>
<text text-anchor="middle" x="347" y="-15.2" font-family="Helvetica" font-size="11.00">Log Error</text>
</g>
<!-- n1&#45;&gt;n3 -->
<g id="edge3" class="edge">
<title>n1&#45;&gt;n3</title>
<path fill="none" stroke="#555555" d="M252.13,-41.61C268.2,-37.57 284.93,-33.36 299.74,-29.64"/>
<polygon fill="#555555" stroke="#555555" points="300.81,-32.98 309.65,-27.14 299.1,-26.19 300.81,-32.98"/>
</g>
<!-- n5 -->
<g id="node6" class="node">
<title>n5</title>
<path fill="#ffccbc" stroke="black" d="M811,-77C811,-77 781,-77 781,-77 775,-77 769,-71 769,-65 769,-65 769,-53 769,-53 769,-47 775,-41 781,-41 781,-41 811,-41 811,-41 817,-41 823,-47 823,-53 823,-53 823,-65 823,-65 823,-71 817,-77 811,-77"/>
<text text-anchor="middle" x="796" y="-56.2" font-family="Helvetica" font-size="11.00">End</text>
</g>
<!-- n2&#45;&gt;n5 -->
<g id="edge6" class="edge">
<title>n2&#45;&gt;n5</title>
<path fill="none" stroke="#555555" d="M711.31,-59C726.23,-59 743.43,-59 758.35,-59"/>
<polygon fill="#555555" stroke="#555555" points="758.73,-62.5 768.73,-59 758.73,-55.5 758.73,-62.5"/>
</g>
<!-- n4 -->
<g id="node5" class="node">
<title>n4</title>
<path fill="#e8f4f8" stroke="black" d="M566,-36C566,-36 454,-36 454,-36 448,-36 442,-30 442,-24 442,-24 442,-12 442,-12 442,-6 448,0 454,0 454,0 566,0 566,0 572,0 578,-6 578,-12 578,-12 578,-24 578,-24 578,-30 572,-36 566,-36"/>
<text text-anchor="middle" x="510" y="-15.2" font-family="Helvetica" font-size="11.00">SystemExceptionFilter</text>
</g>
<!-- n3&#45;&gt;n4 -->
<g id="edge4" class="edge">
<title>n3&#45;&gt;n4</title>
<path fill="none" stroke="#555555" d="M384.13,-18C398.26,-18 415.04,-18 431.64,-18"/>
<polygon fill="#555555" stroke="#555555" points="431.92,-21.5 441.92,-18 431.92,-14.5 431.92,-21.5"/>
</g>
<!-- n4&#45;&gt;n2 -->
<g id="edge5" class="edge">
<title>n4&#45;&gt;n2</title>
<path fill="none" stroke="#555555" d="M578.09,-35.03C594.14,-39.11 610.94,-43.37 625.84,-47.15"/>
<polygon fill="#555555" stroke="#555555" points="625.26,-50.62 635.82,-49.69 626.99,-43.83 625.26,-50.62"/>
</g>
</g>
</svg>
