<?xml version="1.0" encoding="UTF-8" standalone="no"?>
<!DOCTYPE svg PUBLIC "-//W3C//DTD SVG 1.1//EN"
 "http://www.w3.org/Graphics/SVG/1.1/DTD/svg11.dtd">
<!-- Generated by graphviz version 2.44.0 (0)
 -->
<!-- Title: process Pages: 1 -->
<svg width="657pt" height="266pt"
 viewBox="0.00 0.00 657.00 266.00" xmlns="http://www.w3.org/2000/svg" xmlns:xlink="http://www.w3.org/1999/xlink">
<g id="graph0" class="graph" transform="scale(1 1) rotate(0) translate(36 230)">
<title>process</title>
<polygon fill="#ffffff" stroke="transparent" points="-36,36 -36,-230 621,-230 621,36 -36,36"/>
<!-- n0 -->
<g id="node1" class="node">
<title>n0</title>
<path fill="#c8e6c9" stroke="black" d="M42,-36C42,-36 12,-36 12,-36 6,-36 0,-30 0,-24 0,-24 0,-12 0,-12 0,-6 6,0 12,0 12,0 42,0 42,0 48,0 54,-6 54,-12 54,-12 54,-24 54,-24 54,-30 48,-36 42,-36"/>
<text text-anchor="middle" x="27" y="-15.2" font-family="Helvetica" font-size="11.00">start</text>
</g>
<!-- n1 -->
<g id="node2" class="node">
<title>n1</title>
<path fill="#e8f4f8" stroke="black" d="M240,-36C240,-36 124,-36 124,-36 118,-36 112,-30 112,-24 112,-24 112,-12 112,-12 112,-6 118,0 124,0 124,0 240,0 240,0 246,0 252,-6 252,-12 252,-12 252,-24 252,-24 252,-30 246,-36 240,-36"/>
<text text-anchor="middle" x="182" y="-15.2" font-family="Helvetica" font-size="11.00">GetOSMCodesfromDB</text>
</g>
<!-- n0&#45;&gt;n1 -->
<g id="edge1" class="edge">
<title>n0&#45;&gt;n1</title>
<path fill="none" stroke="#555555" d="M54.3,-18C67.66,-18 84.67,-18 101.86,-18"/>
<polygon fill="#555555" stroke="#555555" points="101.97,-21.5 111.97,-18 101.97,-14.5 101.97,-21.5"/>
</g>
<!-- n2 -->
<g id="node3" class="node">
<title>n2</title>
<path fill="#e8f4f8" stroke="black" d="M399,-36C399,-36 337,-36 337,-36 331,-36 325,-30 325,-24 325,-24 325,-12 325,-12 325,-6 331,0 337,0 337,0 399,0 399,0 405,0 411,-6 411,-12 411,-12 411,-24 411,-24 411,-30 405,-36 399,-36"/>
<text text-anchor="middle" x="368" y="-15.2" font-family="Helvetica" font-size="11.00">StoreCodes</text>
</g>
<!-- n1&#45;&gt;n2 -->
<g id="edge3" class="edge">
<title>n1&#45;&gt;n2</title>
<path fill="none" stroke="#555555" d="M252.04,-18C272.78,-18 295.19,-18 314.67,-18"/>
<polygon fill="#555555" stroke="#555555" points="314.86,-21.5 324.86,-18 314.86,-14.5 314.86,-21.5"/>
</g>
<!-- n3 -->
<g id="node4" class="node">
<title>n3</title>
<path fill="#ffccbc" stroke="black" d="M549.5,-36C549.5,-36 519.5,-36 519.5,-36 513.5,-36 507.5,-30 507.5,-24 507.5,-24 507.5,-12 507.5,-12 507.5,-6 513.5,0 519.5,0 519.5,0 549.5,0 549.5,0 555.5,0 561.5,-6 561.5,-12 561.5,-12 561.5,-24 561.5,-24 561.5,-30 555.5,-36 549.5,-36"/>
<text text-anchor="middle" x="534.5" y="-15.2" font-family="Helvetica" font-size="11.00">end</text>
</g>
<!-- n2&#45;&gt;n3 -->
<g id="edge2" class="edge">
<title>n2&#45;&gt;n3</title>
<path fill="none" stroke="#555555" d="M411.36,-18C437.85,-18 471.62,-18 496.94,-18"/>
<polygon fill="#555555" stroke="#555555" points="497.22,-21.5 507.22,-18 497.22,-14.5 497.22,-21.5"/>
</g>
<!-- n4 -->
<g id="node5" class="node">
<title>n4</title>
<path fill="#c8e6c9" stroke="black" d="M42,-154C42,-154 12,-154 12,-154 6,-154 0,-148 0,-142 0,-142 0,-130 0,-130 0,-124 6,-118 12,-118 12,-118 42,-118 42,-118 48,-118 54,-124 54,-130 54,-130 54,-142 54,-142 54,-148 48,-154 42,-154"/>
<text text-anchor="middle" x="27" y="-133.2" font-family="Helvetica" font-size="11.00">Start</text>
</g>
<!-- n5 -->
<g id="node6" class="node">
<title>n5</title>
<path fill="#ffcdd2" stroke="black" d="M213,-154C213,-154 151,-154 151,-154 145,-154 139,-148 139,-142 139,-142 139,-130 139,-130 139,-124 145,-118 151,-118 151,-118 213,-118 213,-118 219,-118 225,-124 225,-130 225,-130 225,-142 225,-142 225,-148 219,-154 213,-154"/>
<text text-anchor="middle" x="182" y="-133.2" font-family="Helvetica" font-size="11.00">Error Group</text>
</g>
<!-- n4&#45;&gt;n5 -->
<g id="edge4" class="edge">
<title>n4&#45;&gt;n5</title>
<path fill="none" stroke="#555555" d="M54.3,-136C74.73,-136 103.7,-136 128.79,-136"/>
<polygon fill="#555555" stroke="#555555" points="128.9,-139.5 138.9,-136 128.9,-132.5 128.9,-139.5"/>
</g>
<!-- n6 -->
<g id="node7" class="node">
<title>n6</title>
<path fill="#ffccbc" stroke="black" d="M383,-194C383,-194 353,-194 353,-194 347,-194 341,-188 341,-182 341,-182 341,-170 341,-170 341,-164 347,-158 353,-158 353,-158 383,-158 383,-158 389,-158 395,-164 395,-170 395,-170 395,-182 395,-182 395,-188 389,-194 383,-194"/>
<text text-anchor="middle" x="368" y="-173.2" font-family="Helvetica" font-size="11.00">End</text>
</g>
<!-- n5&#45;&gt;n6 -->
<g id="edge5" class="edge">
<title>n5&#45;&gt;n6</title>
<path fill="none" stroke="#555555" d="M225.21,-145.18C257.1,-152.11 300.41,-161.52 330.75,-168.12"/>
<polygon fill="#555555" stroke="#555555" points="330.38,-171.62 340.89,-170.32 331.87,-164.78 330.38,-171.62"/>
</g>
<!-- n7 -->
<g id="node8" class="node">
<title>n7</title>
<path fill="#e8f4f8" stroke="black" d="M414,-115C414,-115 322,-115 322,-115 316,-115 310,-109 310,-103 310,-103 310,-91 310,-91 310,-85 316,-79 322,-79 322,-79 414,-79 414,-79 420,-79 426,-85 426,-91 426,-91 426,-103 426,-103 426,-109 420,-115 414,-115"/>
<text text-anchor="middle" x="368" y="-94.2" font-family="Helvetica" font-size="11.00">MapAnyException</text>
</g>
<!-- n5&#45;&gt;n7 -->
<g id="edge6" class="edge">
<title>n5&#45;&gt;n7</title>
<path fill="none" stroke="#555555" d="M225.21,-127.05C247.41,-122.35 275.15,-116.47 300.18,-111.16"/>
<polygon fill="#555555" stroke="#555555" points="300.93,-114.58 309.99,-109.08 299.48,-107.73 300.93,-114.58"/>
</g>
<!-- n8 -->
<g id="node9" class="node">
<title>n8</title>
<path fill="#ffcdd2" stroke="black" d="M573,-115C573,-115 496,-115 496,-115 490,-115 484,-109 484,-103 484,-103 484,-91 484,-91 484,-85 490,-79 496,-79 496,-79 573,-79 573,-79 579,-79 585,-85 585,-91 585,-91 585,-103 585,-103 585,-109 579,-115 573,-115"/>
<text text-anchor="middle" x="534.5" y="-94.2" font-family="Helvetica" font-size="11.00">Generate Error</text>
</g>
<!-- n7&#45;&gt;n8 -->
<g id="edge7" class="edge">
<title>n7&#45;&gt;n8</title>
<path fill="none" stroke="#555555" d="M426.07,-97C441.53,-97 458.29,-97 473.88,-97"/>
<polygon fill="#555555" stroke="#555555" points="473.93,-100.5 483.93,-97 473.93,-93.5 473.93,-100.5"/>
</g>
</g>
</svg>
