<?xml version="1.0" encoding="UTF-8" standalone="no"?>
<!DOCTYPE svg PUBLIC "-//W3C//DTD SVG 1.1//EN"
 "http://www.w3.org/Graphics/SVG/1.1/DTD/svg11.dtd">
<!-- Generated by graphviz version 2.44.0 (0)
 -->
<!-- Title: process Pages: 1 -->
<svg width="655pt" height="150pt"
 viewBox="0.00 0.00 655.00 150.00" xmlns="http://www.w3.org/2000/svg" xmlns:xlink="http://www.w3.org/1999/xlink">
<g id="graph0" class="graph" transform="scale(1 1) rotate(0) translate(36 114)">
<title>process</title>
<polygon fill="#ffffff" stroke="transparent" points="-36,36 -36,-114 619,-114 619,36 -36,36"/>
<!-- n0 -->
<g id="node1" class="node">
<title>n0</title>
<path fill="#e8f4f8" stroke="black" d="M64,-36C64,-36 12,-36 12,-36 6,-36 0,-30 0,-24 0,-24 0,-12 0,-12 0,-6 6,0 12,0 12,0 64,0 64,0 70,0 76,-6 76,-12 76,-12 76,-24 76,-24 76,-30 70,-36 64,-36"/>
<text text-anchor="middle" x="38" y="-15.2" font-family="Helvetica" font-size="11.00">onStartup</text>
</g>
<!-- n1 -->
<g id="node2" class="node">
<title>n1</title>
<path fill="#e8f4f8" stroke="black" d="M270,-36C270,-36 146,-36 146,-36 140,-36 134,-30 134,-24 134,-24 134,-12 134,-12 134,-6 140,0 146,0 146,0 270,0 270,0 276,0 282,-6 282,-12 282,-12 282,-24 282,-24 282,-30 276,-36 270,-36"/>
<text text-anchor="middle" x="208" y="-15.2" font-family="Helvetica" font-size="11.00">LoadPartnerBIDMapping</text>
</g>
<!-- n0&#45;&gt;n1 -->
<g id="edge1" class="edge">
<title>n0&#45;&gt;n1</title>
<path fill="none" stroke="#555555" d="M76.28,-18C90.37,-18 107.03,-18 123.66,-18"/>
<polygon fill="#555555" stroke="#555555" points="123.98,-21.5 133.98,-18 123.98,-14.5 123.98,-21.5"/>
</g>
<!-- n2 -->
<g id="node3" class="node">
<title>n2</title>
<path fill="#e8f4f8" stroke="black" d="M459,-78C459,-78 352,-78 352,-78 346,-78 340,-72 340,-66 340,-66 340,-54 340,-54 340,-48 346,-42 352,-42 352,-42 459,-42 459,-42 465,-42 471,-48 471,-54 471,-54 471,-66 471,-66 471,-72 465,-78 459,-78"/>
<text text-anchor="middle" x="405.5" y="-57.2" font-family="Helvetica" font-size="11.00">Shutdown BWEngine</text>
</g>
<!-- n1&#45;&gt;n2 -->
<g id="edge3" class="edge">
<title>n1&#45;&gt;n2</title>
<path fill="none" stroke="#555555" d="M282.07,-33.7C297.64,-37.04 314.11,-40.58 329.74,-43.94"/>
<polygon fill="#555555" stroke="#555555" points="329.36,-47.44 339.87,-46.12 330.83,-40.59 329.36,-47.44"/>
</g>
<!-- n3 -->
<g id="node4" class="node">
<title>n3</title>
<path fill="#ffccbc" stroke="black" d="M571,-36C571,-36 541,-36 541,-36 535,-36 529,-30 529,-24 529,-24 529,-12 529,-12 529,-6 535,0 541,0 541,0 571,0 571,0 577,0 583,-6 583,-12 583,-12 583,-24 583,-24 583,-30 577,-36 571,-36"/>
<text text-anchor="middle" x="556" y="-15.2" font-family="Helvetica" font-size="11.00">End</text>
</g>
<!-- n1&#45;&gt;n3 -->
<g id="edge4" class="edge">
<title>n1&#45;&gt;n3</title>
<path fill="none" stroke="#555555" d="M282.38,-18C354.87,-18 462.77,-18 518.6,-18"/>
<polygon fill="#555555" stroke="#555555" points="518.72,-21.5 528.72,-18 518.72,-14.5 518.72,-21.5"/>
</g>
<!-- n2&#45;&gt;n3 -->
<g id="edge2" class="edge">
<title>n2&#45;&gt;n3</title>
<path fill="none" stroke="#555555" d="M470.34,-41.94C487.07,-37.21 504.53,-32.28 519.21,-28.12"/>
<polygon fill="#555555" stroke="#555555" points="520.22,-31.47 528.89,-25.38 518.31,-24.74 520.22,-31.47"/>
</g>
</g>
</svg>
