<?xml version="1.0" encoding="UTF-8" standalone="no"?>
<!DOCTYPE svg PUBLIC "-//W3C//DTD SVG 1.1//EN"
 "http://www.w3.org/Graphics/SVG/1.1/DTD/svg11.dtd">
<!-- Generated by graphviz version 2.44.0 (0)
 -->
<!-- Title: process Pages: 1 -->
<svg width="829pt" height="187pt"
 viewBox="0.00 0.00 829.00 187.00" xmlns="http://www.w3.org/2000/svg" xmlns:xlink="http://www.w3.org/1999/xlink">
<g id="graph0" class="graph" transform="scale(1 1) rotate(0) translate(36 151)">
<title>process</title>
<polygon fill="#ffffff" stroke="transparent" points="-36,36 -36,-151 793,-151 793,36 -36,36"/>
<!-- n0 -->
<g id="node1" class="node">
<title>n0</title>
<path fill="#e8f4f8" stroke="black" d="M64,-75C64,-75 12,-75 12,-75 6,-75 0,-69 0,-63 0,-63 0,-51 0,-51 0,-45 6,-39 12,-39 12,-39 64,-39 64,-39 70,-39 76,-45 76,-51 76,-51 76,-63 76,-63 76,-69 70,-75 64,-75"/>
<text text-anchor="middle" x="38" y="-54.2" font-family="Helvetica" font-size="11.00">onStartup</text>
</g>
<!-- n1 -->
<g id="node2" class="node">
<title>n1</title>
<path fill="#c8e6c9" stroke="black" d="M223,-75C223,-75 146,-75 146,-75 140,-75 134,-69 134,-63 134,-63 134,-51 134,-51 134,-45 140,-39 146,-39 146,-39 223,-39 223,-39 229,-39 235,-45 235,-51 235,-51 235,-63 235,-63 235,-69 229,-75 223,-75"/>
<text text-anchor="middle" x="184.5" y="-54.2" font-family="Helvetica" font-size="11.00">Start Log Audit</text>
</g>
<!-- n0&#45;&gt;n1 -->
<g id="edge1" class="edge">
<title>n0&#45;&gt;n1</title>
<path fill="none" stroke="#555555" d="M76.21,-57C90.62,-57 107.47,-57 123.5,-57"/>
<polygon fill="#555555" stroke="#555555" points="123.88,-60.5 133.88,-57 123.88,-53.5 123.88,-60.5"/>
</g>
<!-- n5 -->
<g id="node6" class="node">
<title>n5</title>
<path fill="#e8f4f8" stroke="black" d="M444,-75C444,-75 305,-75 305,-75 299,-75 293,-69 293,-63 293,-63 293,-51 293,-51 293,-45 299,-39 305,-39 305,-39 444,-39 444,-39 450,-39 456,-45 456,-51 456,-51 456,-63 456,-63 456,-69 450,-75 444,-75"/>
<text text-anchor="middle" x="374.5" y="-54.2" font-family="Helvetica" font-size="11.00">LoadOSMTILRoutingDetails</text>
</g>
<!-- n1&#45;&gt;n5 -->
<g id="edge4" class="edge">
<title>n1&#45;&gt;n5</title>
<path fill="none" stroke="#555555" d="M235.39,-57C249.98,-57 266.41,-57 282.71,-57"/>
<polygon fill="#555555" stroke="#555555" points="282.82,-60.5 292.82,-57 282.82,-53.5 282.82,-60.5"/>
</g>
<!-- n2 -->
<g id="node3" class="node">
<title>n2</title>
<path fill="#e8f4f8" stroke="black" d="M633,-115C633,-115 526,-115 526,-115 520,-115 514,-109 514,-103 514,-103 514,-91 514,-91 514,-85 520,-79 526,-79 526,-79 633,-79 633,-79 639,-79 645,-85 645,-91 645,-91 645,-103 645,-103 645,-109 639,-115 633,-115"/>
<text text-anchor="middle" x="579.5" y="-94.2" font-family="Helvetica" font-size="11.00">Shutdown BWEngine</text>
</g>
<!-- n3 -->
<g id="node4" class="node">
<title>n3</title>
<path fill="#ffccbc" stroke="black" d="M745,-75C745,-75 715,-75 715,-75 709,-75 703,-69 703,-63 703,-63 703,-51 703,-51 703,-45 709,-39 715,-39 715,-39 745,-39 745,-39 751,-39 757,-45 757,-51 757,-51 757,-63 757,-63 757,-69 751,-75 745,-75"/>
<text text-anchor="middle" x="730" y="-54.2" font-family="Helvetica" font-size="11.00">End</text>
</g>
<!-- n2&#45;&gt;n3 -->
<g id="edge2" class="edge">
<title>n2&#45;&gt;n3</title>
<path fill="none" stroke="#555555" d="M645.2,-79.57C661.55,-75.17 678.54,-70.59 692.9,-66.72"/>
<polygon fill="#555555" stroke="#555555" points="694.11,-70.02 702.85,-64.04 692.29,-63.26 694.11,-70.02"/>
</g>
<!-- n4 -->
<g id="node5" class="node">
<title>n4</title>
<path fill="#ffccbc" stroke="black" d="M616,-36C616,-36 543,-36 543,-36 537,-36 531,-30 531,-24 531,-24 531,-12 531,-12 531,-6 537,0 543,0 543,0 616,0 616,0 622,0 628,-6 628,-12 628,-12 628,-24 628,-24 628,-30 622,-36 616,-36"/>
<text text-anchor="middle" x="579.5" y="-15.2" font-family="Helvetica" font-size="11.00">End Audit Log</text>
</g>
<!-- n4&#45;&gt;n3 -->
<g id="edge3" class="edge">
<title>n4&#45;&gt;n3</title>
<path fill="none" stroke="#555555" d="M628.3,-30.55C649.39,-36.09 673.74,-42.49 693.22,-47.6"/>
<polygon fill="#555555" stroke="#555555" points="692.35,-50.99 702.92,-50.15 694.13,-44.22 692.35,-50.99"/>
</g>
<!-- n5&#45;&gt;n2 -->
<g id="edge6" class="edge">
<title>n5&#45;&gt;n2</title>
<path fill="none" stroke="#555555" d="M456.02,-72.87C471.73,-75.96 488.14,-79.2 503.66,-82.25"/>
<polygon fill="#555555" stroke="#555555" points="503.22,-85.73 513.71,-84.23 504.57,-78.87 503.22,-85.73"/>
</g>
<!-- n5&#45;&gt;n4 -->
<g id="edge5" class="edge">
<title>n5&#45;&gt;n4</title>
<path fill="none" stroke="#555555" d="M456.02,-41.53C477.71,-37.36 500.73,-32.94 520.89,-29.07"/>
<polygon fill="#555555" stroke="#555555" points="521.68,-32.48 530.84,-27.16 520.36,-25.61 521.68,-32.48"/>
</g>
</g>
</svg>
