<?xml version="1.0" encoding="UTF-8" standalone="no"?>
<!DOCTYPE svg PUBLIC "-//W3C//DTD SVG 1.1//EN"
 "http://www.w3.org/Graphics/SVG/1.1/DTD/svg11.dtd">
<!-- Generated by graphviz version 2.44.0 (0)
 -->
<!-- Title: process Pages: 1 -->
<svg width="872pt" height="361pt"
 viewBox="0.00 0.00 872.00 361.00" xmlns="http://www.w3.org/2000/svg" xmlns:xlink="http://www.w3.org/1999/xlink">
<g id="graph0" class="graph" transform="scale(1 1) rotate(0) translate(36 325)">
<title>process</title>
<polygon fill="#ffffff" stroke="transparent" points="-36,36 -36,-325 836,-325 836,36 -36,36"/>
<!-- n0 -->
<g id="node1" class="node">
<title>n0</title>
<path fill="#c8e6c9" stroke="black" d="M42,-163C42,-163 12,-163 12,-163 6,-163 0,-157 0,-151 0,-151 0,-139 0,-139 0,-133 6,-127 12,-127 12,-127 42,-127 42,-127 48,-127 54,-133 54,-139 54,-139 54,-151 54,-151 54,-157 48,-163 42,-163"/>
<text text-anchor="middle" x="27" y="-142.2" font-family="Helvetica" font-size="11.00">start</text>
</g>
<!-- n1 -->
<g id="node2" class="node">
<title>n1</title>
<path fill="#e8f4f8" stroke="black" d="M220,-163C220,-163 124,-163 124,-163 118,-163 112,-157 112,-151 112,-151 112,-139 112,-139 112,-133 118,-127 124,-127 124,-127 220,-127 220,-127 226,-127 232,-133 232,-139 232,-139 232,-151 232,-151 232,-157 226,-163 220,-163"/>
<text text-anchor="middle" x="172" y="-142.2" font-family="Helvetica" font-size="11.00">RemoveAuditEvent</text>
</g>
<!-- n0&#45;&gt;n1 -->
<g id="edge1" class="edge">
<title>n0&#45;&gt;n1</title>
<path fill="none" stroke="#555555" d="M54.23,-145C67.58,-145 84.52,-145 101.32,-145"/>
<polygon fill="#555555" stroke="#555555" points="101.73,-148.5 111.73,-145 101.73,-141.5 101.73,-148.5"/>
</g>
<!-- n3 -->
<g id="node4" class="node">
<title>n3</title>
<path fill="#ffccbc" stroke="black" d="M788,-119C788,-119 758,-119 758,-119 752,-119 746,-113 746,-107 746,-107 746,-95 746,-95 746,-89 752,-83 758,-83 758,-83 788,-83 788,-83 794,-83 800,-89 800,-95 800,-95 800,-107 800,-107 800,-113 794,-119 788,-119"/>
<text text-anchor="middle" x="773" y="-98.2" font-family="Helvetica" font-size="11.00">end</text>
</g>
<!-- n1&#45;&gt;n3 -->
<g id="edge4" class="edge">
<title>n1&#45;&gt;n3</title>
<path fill="none" stroke="#555555" d="M232.12,-150.61C328.73,-158.24 525.91,-167.29 688,-133 704.41,-129.53 721.84,-123.33 736.55,-117.31"/>
<polygon fill="#555555" stroke="#555555" points="737.93,-120.53 745.78,-113.41 735.21,-114.08 737.93,-120.53"/>
</g>
<!-- n5 -->
<g id="node6" class="node">
<title>n5</title>
<path fill="#e8f4f8" stroke="black" d="M360,-121C360,-121 302,-121 302,-121 296,-121 290,-115 290,-109 290,-109 290,-97 290,-97 290,-91 296,-85 302,-85 302,-85 360,-85 360,-85 366,-85 372,-91 372,-97 372,-97 372,-109 372,-109 372,-115 366,-121 360,-121"/>
<text text-anchor="middle" x="331" y="-100.2" font-family="Helvetica" font-size="11.00">Parse XML</text>
</g>
<!-- n1&#45;&gt;n5 -->
<g id="edge6" class="edge">
<title>n1&#45;&gt;n5</title>
<path fill="none" stroke="#555555" d="M232.35,-129.12C248.03,-124.93 264.78,-120.45 279.91,-116.4"/>
<polygon fill="#555555" stroke="#555555" points="280.83,-119.78 289.59,-113.81 279.02,-113.01 280.83,-119.78"/>
</g>
<!-- n2 -->
<g id="node3" class="node">
<title>n2</title>
<path fill="#e8f4f8" stroke="black" d="M544,-119C544,-119 442,-119 442,-119 436,-119 430,-113 430,-107 430,-107 430,-95 430,-95 430,-89 436,-83 442,-83 442,-83 544,-83 544,-83 550,-83 556,-89 556,-95 556,-95 556,-107 556,-107 556,-113 550,-119 544,-119"/>
<text text-anchor="middle" x="493" y="-98.2" font-family="Helvetica" font-size="11.00">PublishToErrorTopic</text>
</g>
<!-- n2&#45;&gt;n3 -->
<g id="edge2" class="edge">
<title>n2&#45;&gt;n3</title>
<path fill="none" stroke="#555555" d="M556.04,-101C611.27,-101 690.17,-101 735.73,-101"/>
<polygon fill="#555555" stroke="#555555" points="735.74,-104.5 745.74,-101 735.74,-97.5 735.74,-104.5"/>
</g>
<!-- n4 -->
<g id="node5" class="node">
<title>n4</title>
<path fill="#ffcdd2" stroke="black" d="M676,-36C676,-36 626,-36 626,-36 620,-36 614,-30 614,-24 614,-24 614,-12 614,-12 614,-6 620,0 626,0 626,0 676,0 676,0 682,0 688,-6 688,-12 688,-12 688,-24 688,-24 688,-30 682,-36 676,-36"/>
<text text-anchor="middle" x="651" y="-15.2" font-family="Helvetica" font-size="11.00">Log Error</text>
</g>
<!-- n2&#45;&gt;n4 -->
<g id="edge7" class="edge">
<title>n2&#45;&gt;n4</title>
<path fill="none" stroke="#555555" d="M527.85,-82.99C551.07,-70.63 582.09,-54.13 607.05,-40.85"/>
<polygon fill="#555555" stroke="#555555" points="608.76,-43.9 615.95,-36.12 605.48,-37.72 608.76,-43.9"/>
</g>
<!-- n4&#45;&gt;n3 -->
<g id="edge3" class="edge">
<title>n4&#45;&gt;n3</title>
<path fill="none" stroke="#555555" d="M678.04,-36.01C695.37,-48 718.35,-63.89 737.24,-76.96"/>
<polygon fill="#555555" stroke="#555555" points="735.38,-79.93 745.6,-82.74 739.36,-74.17 735.38,-79.93"/>
</g>
<!-- n5&#45;&gt;n2 -->
<g id="edge5" class="edge">
<title>n5&#45;&gt;n2</title>
<path fill="none" stroke="#555555" d="M372.37,-102.5C386.79,-102.32 403.5,-102.11 419.77,-101.9"/>
<polygon fill="#555555" stroke="#555555" points="419.87,-105.4 429.82,-101.78 419.78,-98.4 419.87,-105.4"/>
</g>
<!-- n6 -->
<g id="node7" class="node">
<title>n6</title>
<path fill="#e8f4f8" stroke="black" d="M348.5,-289C348.5,-289 313.5,-289 313.5,-289 307.5,-289 301.5,-283 301.5,-277 301.5,-277 301.5,-265 301.5,-265 301.5,-259 307.5,-253 313.5,-253 313.5,-253 348.5,-253 348.5,-253 354.5,-253 360.5,-259 360.5,-265 360.5,-265 360.5,-277 360.5,-277 360.5,-283 354.5,-289 348.5,-289"/>
<text text-anchor="middle" x="331" y="-268.2" font-family="Helvetica" font-size="11.00">Group</text>
</g>
<!-- n7 -->
<g id="node8" class="node">
<title>n7</title>
<path fill="#ffccbc" stroke="black" d="M508,-289C508,-289 478,-289 478,-289 472,-289 466,-283 466,-277 466,-277 466,-265 466,-265 466,-259 472,-253 478,-253 478,-253 508,-253 508,-253 514,-253 520,-259 520,-265 520,-265 520,-277 520,-277 520,-283 514,-289 508,-289"/>
<text text-anchor="middle" x="493" y="-268.2" font-family="Helvetica" font-size="11.00">End</text>
</g>
<!-- n6&#45;&gt;n7 -->
<g id="edge8" class="edge">
<title>n6&#45;&gt;n7</title>
<path fill="none" stroke="#555555" d="M360.6,-271C387.18,-271 426.89,-271 455.69,-271"/>
<polygon fill="#555555" stroke="#555555" points="455.76,-274.5 465.76,-271 455.76,-267.5 455.76,-274.5"/>
</g>
<!-- n8 -->
<g id="node9" class="node">
<title>n8</title>
<path fill="#c8e6c9" stroke="black" d="M42,-289C42,-289 12,-289 12,-289 6,-289 0,-283 0,-277 0,-277 0,-265 0,-265 0,-259 6,-253 12,-253 12,-253 42,-253 42,-253 48,-253 54,-259 54,-265 54,-265 54,-277 54,-277 54,-283 48,-289 42,-289"/>
<text text-anchor="middle" x="27" y="-268.2" font-family="Helvetica" font-size="11.00">Start</text>
</g>
<!-- n9 -->
<g id="node10" class="node">
<title>n9</title>
<path fill="#e8f4f8" stroke="black" d="M203,-289C203,-289 141,-289 141,-289 135,-289 129,-283 129,-277 129,-277 129,-265 129,-265 129,-259 135,-253 141,-253 141,-253 203,-253 203,-253 209,-253 215,-259 215,-265 215,-265 215,-277 215,-277 215,-283 209,-289 203,-289"/>
<text text-anchor="middle" x="172" y="-268.2" font-family="Helvetica" font-size="11.00">GetInstance</text>
</g>
<!-- n8&#45;&gt;n9 -->
<g id="edge9" class="edge">
<title>n8&#45;&gt;n9</title>
<path fill="none" stroke="#555555" d="M54.23,-271C72.26,-271 96.81,-271 118.75,-271"/>
<polygon fill="#555555" stroke="#555555" points="118.94,-274.5 128.94,-271 118.94,-267.5 118.94,-274.5"/>
</g>
<!-- n9&#45;&gt;n6 -->
<g id="edge10" class="edge">
<title>n9&#45;&gt;n6</title>
<path fill="none" stroke="#555555" d="M215.07,-271C238.7,-271 267.99,-271 291.09,-271"/>
<polygon fill="#555555" stroke="#555555" points="291.22,-274.5 301.22,-271 291.22,-267.5 291.22,-274.5"/>
</g>
</g>
</svg>
