<?xml version="1.0" encoding="UTF-8" standalone="no"?>
<!DOCTYPE svg PUBLIC "-//W3C//DTD SVG 1.1//EN"
 "http://www.w3.org/Graphics/SVG/1.1/DTD/svg11.dtd">
<!-- Generated by graphviz version 2.44.0 (0)
 -->
<!-- Title: process Pages: 1 -->
<svg width="769pt" height="266pt"
 viewBox="0.00 0.00 769.00 266.00" xmlns="http://www.w3.org/2000/svg" xmlns:xlink="http://www.w3.org/1999/xlink">
<g id="graph0" class="graph" transform="scale(1 1) rotate(0) translate(36 230)">
<title>process</title>
<polygon fill="#ffffff" stroke="transparent" points="-36,36 -36,-230 733,-230 733,36 -36,36"/>
<!-- n0 -->
<g id="node1" class="node">
<title>n0</title>
<path fill="#c8e6c9" stroke="black" d="M42,-36C42,-36 12,-36 12,-36 6,-36 0,-30 0,-24 0,-24 0,-12 0,-12 0,-6 6,0 12,0 12,0 42,0 42,0 48,0 54,-6 54,-12 54,-12 54,-24 54,-24 54,-30 48,-36 42,-36"/>
<text text-anchor="middle" x="27" y="-15.2" font-family="Helvetica" font-size="11.00">start</text>
</g>
<!-- n1 -->
<g id="node2" class="node">
<title>n1</title>
<path fill="#e8f4f8" stroke="black" d="M303,-36C303,-36 124,-36 124,-36 118,-36 112,-30 112,-24 112,-24 112,-12 112,-12 112,-6 118,0 124,0 124,0 303,0 303,0 309,0 315,-6 315,-12 315,-12 315,-24 315,-24 315,-30 309,-36 303,-36"/>
<text text-anchor="middle" x="213.5" y="-15.2" font-family="Helvetica" font-size="11.00">Get OSMTILRouting details from DB</text>
</g>
<!-- n0&#45;&gt;n1 -->
<g id="edge1" class="edge">
<title>n0&#45;&gt;n1</title>
<path fill="none" stroke="#555555" d="M54.04,-18C67,-18 83.63,-18 101.23,-18"/>
<polygon fill="#555555" stroke="#555555" points="101.68,-21.5 111.68,-18 101.68,-14.5 101.68,-21.5"/>
</g>
<!-- n2 -->
<g id="node3" class="node">
<title>n2</title>
<path fill="#e8f4f8" stroke="black" d="M526,-36C526,-36 385,-36 385,-36 379,-36 373,-30 373,-24 373,-24 373,-12 373,-12 373,-6 379,0 385,0 385,0 526,0 526,0 532,0 538,-6 538,-12 538,-12 538,-24 538,-24 538,-30 532,-36 526,-36"/>
<text text-anchor="middle" x="455.5" y="-15.2" font-family="Helvetica" font-size="11.00">StoreOSMTILRoutingDetails</text>
</g>
<!-- n1&#45;&gt;n2 -->
<g id="edge3" class="edge">
<title>n1&#45;&gt;n2</title>
<path fill="none" stroke="#555555" d="M315.24,-18C331.02,-18 347.26,-18 362.83,-18"/>
<polygon fill="#555555" stroke="#555555" points="362.95,-21.5 372.95,-18 362.95,-14.5 362.95,-21.5"/>
</g>
<!-- n3 -->
<g id="node4" class="node">
<title>n3</title>
<path fill="#ffccbc" stroke="black" d="M661.5,-36C661.5,-36 631.5,-36 631.5,-36 625.5,-36 619.5,-30 619.5,-24 619.5,-24 619.5,-12 619.5,-12 619.5,-6 625.5,0 631.5,0 631.5,0 661.5,0 661.5,0 667.5,0 673.5,-6 673.5,-12 673.5,-12 673.5,-24 673.5,-24 673.5,-30 667.5,-36 661.5,-36"/>
<text text-anchor="middle" x="646.5" y="-15.2" font-family="Helvetica" font-size="11.00">end</text>
</g>
<!-- n2&#45;&gt;n3 -->
<g id="edge2" class="edge">
<title>n2&#45;&gt;n3</title>
<path fill="none" stroke="#555555" d="M538.02,-18C562.87,-18 588.93,-18 609.17,-18"/>
<polygon fill="#555555" stroke="#555555" points="609.18,-21.5 619.18,-18 609.18,-14.5 609.18,-21.5"/>
</g>
<!-- n4 -->
<g id="node5" class="node">
<title>n4</title>
<path fill="#e8f4f8" stroke="black" d="M501.5,-194C501.5,-194 409.5,-194 409.5,-194 403.5,-194 397.5,-188 397.5,-182 397.5,-182 397.5,-170 397.5,-170 397.5,-164 403.5,-158 409.5,-158 409.5,-158 501.5,-158 501.5,-158 507.5,-158 513.5,-164 513.5,-170 513.5,-170 513.5,-182 513.5,-182 513.5,-188 507.5,-194 501.5,-194"/>
<text text-anchor="middle" x="455.5" y="-173.2" font-family="Helvetica" font-size="11.00">MapAnyException</text>
</g>
<!-- n5 -->
<g id="node6" class="node">
<title>n5</title>
<path fill="#ffcdd2" stroke="black" d="M685,-194C685,-194 608,-194 608,-194 602,-194 596,-188 596,-182 596,-182 596,-170 596,-170 596,-164 602,-158 608,-158 608,-158 685,-158 685,-158 691,-158 697,-164 697,-170 697,-170 697,-182 697,-182 697,-188 691,-194 685,-194"/>
<text text-anchor="middle" x="646.5" y="-173.2" font-family="Helvetica" font-size="11.00">Generate Error</text>
</g>
<!-- n4&#45;&gt;n5 -->
<g id="edge4" class="edge">
<title>n4&#45;&gt;n5</title>
<path fill="none" stroke="#555555" d="M513.72,-176C536.43,-176 562.55,-176 585.52,-176"/>
<polygon fill="#555555" stroke="#555555" points="585.83,-179.5 595.83,-176 585.83,-172.5 585.83,-179.5"/>
</g>
<!-- n6 -->
<g id="node7" class="node">
<title>n6</title>
<path fill="#c8e6c9" stroke="black" d="M42,-154C42,-154 12,-154 12,-154 6,-154 0,-148 0,-142 0,-142 0,-130 0,-130 0,-124 6,-118 12,-118 12,-118 42,-118 42,-118 48,-118 54,-124 54,-130 54,-130 54,-142 54,-142 54,-148 48,-154 42,-154"/>
<text text-anchor="middle" x="27" y="-133.2" font-family="Helvetica" font-size="11.00">Start</text>
</g>
<!-- n7 -->
<g id="node8" class="node">
<title>n7</title>
<path fill="#e8f4f8" stroke="black" d="M231,-154C231,-154 196,-154 196,-154 190,-154 184,-148 184,-142 184,-142 184,-130 184,-130 184,-124 190,-118 196,-118 196,-118 231,-118 231,-118 237,-118 243,-124 243,-130 243,-130 243,-142 243,-142 243,-148 237,-154 231,-154"/>
<text text-anchor="middle" x="213.5" y="-133.2" font-family="Helvetica" font-size="11.00">Group</text>
</g>
<!-- n6&#45;&gt;n7 -->
<g id="edge5" class="edge">
<title>n6&#45;&gt;n7</title>
<path fill="none" stroke="#555555" d="M54.04,-136C85.23,-136 137.77,-136 173.73,-136"/>
<polygon fill="#555555" stroke="#555555" points="173.86,-139.5 183.86,-136 173.86,-132.5 173.86,-139.5"/>
</g>
<!-- n7&#45;&gt;n4 -->
<g id="edge7" class="edge">
<title>n7&#45;&gt;n4</title>
<path fill="none" stroke="#555555" d="M243.45,-140.82C278.83,-146.72 339.84,-156.89 387.19,-164.78"/>
<polygon fill="#555555" stroke="#555555" points="386.63,-168.24 397.07,-166.43 387.78,-161.33 386.63,-168.24"/>
</g>
<!-- n8 -->
<g id="node9" class="node">
<title>n8</title>
<path fill="#ffccbc" stroke="black" d="M470.5,-115C470.5,-115 440.5,-115 440.5,-115 434.5,-115 428.5,-109 428.5,-103 428.5,-103 428.5,-91 428.5,-91 428.5,-85 434.5,-79 440.5,-79 440.5,-79 470.5,-79 470.5,-79 476.5,-79 482.5,-85 482.5,-91 482.5,-91 482.5,-103 482.5,-103 482.5,-109 476.5,-115 470.5,-115"/>
<text text-anchor="middle" x="455.5" y="-94.2" font-family="Helvetica" font-size="11.00">End</text>
</g>
<!-- n7&#45;&gt;n8 -->
<g id="edge6" class="edge">
<title>n7&#45;&gt;n8</title>
<path fill="none" stroke="#555555" d="M243.45,-131.3C287.35,-124.16 370.71,-110.62 418.47,-102.85"/>
<polygon fill="#555555" stroke="#555555" points="419.07,-106.3 428.38,-101.24 417.95,-99.39 419.07,-106.3"/>
</g>
</g>
</svg>
