<?xml version="1.0" encoding="UTF-8" standalone="no"?>
<!DOCTYPE svg PUBLIC "-//W3C//DTD SVG 1.1//EN"
 "http://www.w3.org/Graphics/SVG/1.1/DTD/svg11.dtd">
<!-- Generated by graphviz version 2.44.0 (0)
 -->
<!-- Title: process Pages: 1 -->
<svg width="609pt" height="187pt"
 viewBox="0.00 0.00 609.00 187.00" xmlns="http://www.w3.org/2000/svg" xmlns:xlink="http://www.w3.org/1999/xlink">
<g id="graph0" class="graph" transform="scale(1 1) rotate(0) translate(36 151)">
<title>process</title>
<polygon fill="#ffffff" stroke="transparent" points="-36,36 -36,-151 573,-151 573,36 -36,36"/>
<!-- n0 -->
<g id="node1" class="node">
<title>n0</title>
<path fill="#c8e6c9" stroke="black" d="M42,-75C42,-75 12,-75 12,-75 6,-75 0,-69 0,-63 0,-63 0,-51 0,-51 0,-45 6,-39 12,-39 12,-39 42,-39 42,-39 48,-39 54,-45 54,-51 54,-51 54,-63 54,-63 54,-69 48,-75 42,-75"/>
<text text-anchor="middle" x="27" y="-54.2" font-family="Helvetica" font-size="11.00">Start</text>
</g>
<!-- n1 -->
<g id="node2" class="node">
<title>n1</title>
<path fill="#e8f4f8" stroke="black" d="M251,-75C251,-75 124,-75 124,-75 118,-75 112,-69 112,-63 112,-63 112,-51 112,-51 112,-45 118,-39 124,-39 124,-39 251,-39 251,-39 257,-39 263,-45 263,-51 263,-51 263,-63 263,-63 263,-69 257,-75 251,-75"/>
<text text-anchor="middle" x="187.5" y="-54.2" font-family="Helvetica" font-size="11.00">Determine Message Type</text>
</g>
<!-- n0&#45;&gt;n1 -->
<g id="edge1" class="edge">
<title>n0&#45;&gt;n1</title>
<path fill="none" stroke="#555555" d="M54.17,-57C67.4,-57 84.29,-57 101.53,-57"/>
<polygon fill="#555555" stroke="#555555" points="101.7,-60.5 111.7,-57 101.7,-53.5 101.7,-60.5"/>
</g>
<!-- n2 -->
<g id="node3" class="node">
<title>n2</title>
<path fill="#e8f4f8" stroke="black" d="M413,-115C413,-115 333,-115 333,-115 327,-115 321,-109 321,-103 321,-103 321,-91 321,-91 321,-85 327,-79 333,-79 333,-79 413,-79 413,-79 419,-79 425,-85 425,-91 425,-91 425,-103 425,-103 425,-109 419,-115 413,-115"/>
<text text-anchor="middle" x="373" y="-94.2" font-family="Helvetica" font-size="11.00">Route Message</text>
</g>
<!-- n1&#45;&gt;n2 -->
<g id="edge3" class="edge">
<title>n1&#45;&gt;n2</title>
<path fill="none" stroke="#555555" d="M263.14,-73.27C279.01,-76.73 295.59,-80.34 310.89,-83.68"/>
<polygon fill="#555555" stroke="#555555" points="310.22,-87.11 320.73,-85.82 311.71,-80.27 310.22,-87.11"/>
</g>
<!-- n4 -->
<g id="node5" class="node">
<title>n4</title>
<path fill="#ffcdd2" stroke="black" d="M411.5,-36C411.5,-36 334.5,-36 334.5,-36 328.5,-36 322.5,-30 322.5,-24 322.5,-24 322.5,-12 322.5,-12 322.5,-6 328.5,0 334.5,0 334.5,0 411.5,0 411.5,0 417.5,0 423.5,-6 423.5,-12 423.5,-12 423.5,-24 423.5,-24 423.5,-30 417.5,-36 411.5,-36"/>
<text text-anchor="middle" x="373" y="-15.2" font-family="Helvetica" font-size="11.00">Generate Error</text>
</g>
<!-- n1&#45;&gt;n4 -->
<g id="edge4" class="edge">
<title>n1&#45;&gt;n4</title>
<path fill="none" stroke="#555555" d="M263.14,-41.14C279.5,-37.66 296.61,-34.02 312.29,-30.69"/>
<polygon fill="#555555" stroke="#555555" points="313.32,-34.05 322.37,-28.55 311.86,-27.2 313.32,-34.05"/>
</g>
<!-- n3 -->
<g id="node4" class="node">
<title>n3</title>
<path fill="#ffccbc" stroke="black" d="M525,-115C525,-115 495,-115 495,-115 489,-115 483,-109 483,-103 483,-103 483,-91 483,-91 483,-85 489,-79 495,-79 495,-79 525,-79 525,-79 531,-79 537,-85 537,-91 537,-91 537,-103 537,-103 537,-109 531,-115 525,-115"/>
<text text-anchor="middle" x="510" y="-94.2" font-family="Helvetica" font-size="11.00">End</text>
</g>
<!-- n2&#45;&gt;n3 -->
<g id="edge2" class="edge">
<title>n2&#45;&gt;n3</title>
<path fill="none" stroke="#555555" d="M425.04,-97C440.9,-97 458.05,-97 472.7,-97"/>
<polygon fill="#555555" stroke="#555555" points="472.86,-100.5 482.86,-97 472.86,-93.5 472.86,-100.5"/>
</g>
</g>
</svg>
