<?xml version="1.0" encoding="UTF-8" standalone="no"?>
<!DOCTYPE svg PUBLIC "-//W3C//DTD SVG 1.1//EN"
 "http://www.w3.org/Graphics/SVG/1.1/DTD/svg11.dtd">
<!-- Generated by graphviz version 2.44.0 (0)
 -->
<!-- Title: process Pages: 1 -->
<svg width="660pt" height="187pt"
 viewBox="0.00 0.00 660.00 187.00" xmlns="http://www.w3.org/2000/svg" xmlns:xlink="http://www.w3.org/1999/xlink">
<g id="graph0" class="graph" transform="scale(1 1) rotate(0) translate(36 151)">
<title>process</title>
<polygon fill="#ffffff" stroke="transparent" points="-36,36 -36,-151 624,-151 624,36 -36,36"/>
<!-- n0 -->
<g id="node1" class="node">
<title>n0</title>
<path fill="#c8e6c9" stroke="black" d="M42,-75C42,-75 12,-75 12,-75 6,-75 0,-69 0,-63 0,-63 0,-51 0,-51 0,-45 6,-39 12,-39 12,-39 42,-39 42,-39 48,-39 54,-45 54,-51 54,-51 54,-63 54,-63 54,-69 48,-75 42,-75"/>
<text text-anchor="middle" x="27" y="-54.2" font-family="Helvetica" font-size="11.00">Start</text>
</g>
<!-- n1 -->
<g id="node2" class="node">
<title>n1</title>
<path fill="#e8f4f8" stroke="black" d="M216,-75C216,-75 124,-75 124,-75 118,-75 112,-69 112,-63 112,-63 112,-51 112,-51 112,-45 118,-39 124,-39 124,-39 216,-39 216,-39 222,-39 228,-45 228,-51 228,-51 228,-63 228,-63 228,-69 222,-75 216,-75"/>
<text text-anchor="middle" x="170" y="-54.2" font-family="Helvetica" font-size="11.00">GetRoutingDetails</text>
</g>
<!-- n0&#45;&gt;n1 -->
<g id="edge1" class="edge">
<title>n0&#45;&gt;n1</title>
<path fill="none" stroke="#555555" d="M54.19,-57C67.64,-57 84.72,-57 101.56,-57"/>
<polygon fill="#555555" stroke="#555555" points="101.98,-60.5 111.98,-57 101.98,-53.5 101.98,-60.5"/>
</g>
<!-- n2 -->
<g id="node3" class="node">
<title>n2</title>
<path fill="#e8f4f8" stroke="black" d="M400,-75C400,-75 298,-75 298,-75 292,-75 286,-69 286,-63 286,-63 286,-51 286,-51 286,-45 292,-39 298,-39 298,-39 400,-39 400,-39 406,-39 412,-45 412,-51 412,-51 412,-63 412,-63 412,-69 406,-75 400,-75"/>
<text text-anchor="middle" x="349" y="-54.2" font-family="Helvetica" font-size="11.00">GetOperationDetails</text>
</g>
<!-- n1&#45;&gt;n2 -->
<g id="edge2" class="edge">
<title>n1&#45;&gt;n2</title>
<path fill="none" stroke="#555555" d="M228.47,-57C243.54,-57 259.98,-57 275.72,-57"/>
<polygon fill="#555555" stroke="#555555" points="275.94,-60.5 285.94,-57 275.94,-53.5 275.94,-60.5"/>
</g>
<!-- n3 -->
<g id="node4" class="node">
<title>n3</title>
<path fill="#ffccbc" stroke="black" d="M544,-115C544,-115 514,-115 514,-115 508,-115 502,-109 502,-103 502,-103 502,-91 502,-91 502,-85 508,-79 514,-79 514,-79 544,-79 544,-79 550,-79 556,-85 556,-91 556,-91 556,-103 556,-103 556,-109 550,-115 544,-115"/>
<text text-anchor="middle" x="529" y="-94.2" font-family="Helvetica" font-size="11.00">End</text>
</g>
<!-- n2&#45;&gt;n3 -->
<g id="edge3" class="edge">
<title>n2&#45;&gt;n3</title>
<path fill="none" stroke="#555555" d="M412.26,-70.99C438.86,-76.97 468.98,-83.74 491.82,-88.87"/>
<polygon fill="#555555" stroke="#555555" points="491.24,-92.33 501.77,-91.1 492.78,-85.5 491.24,-92.33"/>
</g>
<!-- n4 -->
<g id="node5" class="node">
<title>n4</title>
<path fill="#e8f4f8" stroke="black" d="M576,-36C576,-36 482,-36 482,-36 476,-36 470,-30 470,-24 470,-24 470,-12 470,-12 470,-6 476,0 482,0 482,0 576,0 576,0 582,0 588,-6 588,-12 588,-12 588,-24 588,-24 588,-30 582,-36 576,-36"/>
<text text-anchor="middle" x="529" y="-15.2" font-family="Helvetica" font-size="11.00">ConfigurationError</text>
</g>
<!-- n2&#45;&gt;n4 -->
<g id="edge4" class="edge">
<title>n2&#45;&gt;n4</title>
<path fill="none" stroke="#555555" d="M412.26,-43.36C427.63,-39.99 444.19,-36.36 459.83,-32.94"/>
<polygon fill="#555555" stroke="#555555" points="460.94,-36.28 469.96,-30.72 459.44,-29.44 460.94,-36.28"/>
</g>
</g>
</svg>
