<?xml version="1.0" encoding="UTF-8" standalone="no"?>
<!DOCTYPE svg PUBLIC "-//W3C//DTD SVG 1.1//EN"
 "http://www.w3.org/Graphics/SVG/1.1/DTD/svg11.dtd">
<!-- Generated by graphviz version 2.44.0 (0)
 -->
<!-- Title: process Pages: 1 -->
<svg width="2218pt" height="477pt"
 viewBox="0.00 0.00 2218.00 477.00" xmlns="http://www.w3.org/2000/svg" xmlns:xlink="http://www.w3.org/1999/xlink">
<g id="graph0" class="graph" transform="scale(1 1) rotate(0) translate(36 441)">
<title>process</title>
<polygon fill="#ffffff" stroke="transparent" points="-36,36 -36,-441 2182,-441 2182,36 -36,36"/>
<!-- n0 -->
<g id="node1" class="node">
<title>n0</title>
<path fill="#c8e6c9" stroke="black" d="M84,-76C84,-76 54,-76 54,-76 48,-76 42,-70 42,-64 42,-64 42,-52 42,-52 42,-46 48,-40 54,-40 54,-40 84,-40 84,-40 90,-40 96,-46 96,-52 96,-52 96,-64 96,-64 96,-70 90,-76 84,-76"/>
<text text-anchor="middle" x="69" y="-55.2" font-family="Helvetica" font-size="11.00">start</text>
</g>
<!-- n1 -->
<g id="node2" class="node">
<title>n1</title>
<path fill="#e8f4f8" stroke="black" d="M328.5,-115C328.5,-115 220.5,-115 220.5,-115 214.5,-115 208.5,-109 208.5,-103 208.5,-103 208.5,-91 208.5,-91 208.5,-85 214.5,-79 220.5,-79 220.5,-79 328.5,-79 328.5,-79 334.5,-79 340.5,-85 340.5,-91 340.5,-91 340.5,-103 340.5,-103 340.5,-109 334.5,-115 328.5,-115"/>
<text text-anchor="middle" x="274.5" y="-94.2" font-family="Helvetica" font-size="11.00">Custom&#45;RenderReply</text>
</g>
<!-- n0&#45;&gt;n1 -->
<g id="edge1" class="edge">
<title>n0&#45;&gt;n1</title>
<path fill="none" stroke="#555555" d="M96.19,-63.02C121.9,-67.95 162.35,-75.7 198.13,-82.55"/>
<polygon fill="#555555" stroke="#555555" points="197.6,-86.02 208.08,-84.46 198.91,-79.14 197.6,-86.02"/>
</g>
<!-- n4 -->
<g id="node19" class="node">
<title>n4</title>
<path fill="#e8f4f8" stroke="black" d="M341,-36C341,-36 208,-36 208,-36 202,-36 196,-30 196,-24 196,-24 196,-12 196,-12 196,-6 202,0 208,0 208,0 341,0 341,0 347,0 353,-6 353,-12 353,-12 353,-24 353,-24 353,-30 347,-36 341,-36"/>
<text text-anchor="middle" x="274.5" y="-15.2" font-family="Helvetica" font-size="11.00">Custom&#45;RenderErrorReply</text>
</g>
<!-- n0&#45;&gt;n4 -->
<g id="edge4" class="edge">
<title>n0&#45;&gt;n4</title>
<path fill="none" stroke="#555555" d="M96.19,-52.85C118.95,-48.38 153.28,-41.63 185.68,-35.26"/>
<polygon fill="#555555" stroke="#555555" points="186.52,-38.66 195.66,-33.3 185.17,-31.79 186.52,-38.66"/>
</g>
<!-- n2 -->
<g id="node13" class="node">
<title>n2</title>
<path fill="#e8f4f8" stroke="black" d="M519,-115C519,-115 440,-115 440,-115 434,-115 428,-109 428,-103 428,-103 428,-91 428,-91 428,-85 434,-79 440,-79 440,-79 519,-79 519,-79 525,-79 531,-85 531,-91 531,-91 531,-103 531,-103 531,-109 525,-115 519,-115"/>
<text text-anchor="middle" x="479.5" y="-94.2" font-family="Helvetica" font-size="11.00">OperationReply</text>
</g>
<!-- n1&#45;&gt;n2 -->
<g id="edge3" class="edge">
<title>n1&#45;&gt;n2</title>
<path fill="none" stroke="#555555" d="M340.57,-97C365.33,-97 393.42,-97 417.76,-97"/>
<polygon fill="#555555" stroke="#555555" points="417.95,-100.5 427.95,-97 417.95,-93.5 417.95,-100.5"/>
</g>
<!-- n10 -->
<g id="node3" class="node">
<title>n10</title>
<path fill="#ffccbc" stroke="black" d="M2134,-322C2134,-322 2104,-322 2104,-322 2098,-322 2092,-316 2092,-310 2092,-310 2092,-298 2092,-298 2092,-292 2098,-286 2104,-286 2104,-286 2134,-286 2134,-286 2140,-286 2146,-292 2146,-298 2146,-298 2146,-310 2146,-310 2146,-316 2140,-322 2134,-322"/>
<text text-anchor="middle" x="2119" y="-301.2" font-family="Helvetica" font-size="11.00">End</text>
</g>
<!-- n11 -->
<g id="node4" class="node">
<title>n11</title>
<path fill="#e8f4f8" stroke="black" d="M332.5,-281C332.5,-281 216.5,-281 216.5,-281 210.5,-281 204.5,-275 204.5,-269 204.5,-269 204.5,-257 204.5,-257 204.5,-251 210.5,-245 216.5,-245 216.5,-245 332.5,-245 332.5,-245 338.5,-245 344.5,-251 344.5,-257 344.5,-257 344.5,-269 344.5,-269 344.5,-275 338.5,-281 332.5,-281"/>
<text text-anchor="middle" x="274.5" y="-260.2" font-family="Helvetica" font-size="11.00">Prep Invocation Details</text>
</g>
<!-- n23 -->
<g id="node17" class="node">
<title>n23</title>
<path fill="#e8f4f8" stroke="black" d="M536,-281C536,-281 423,-281 423,-281 417,-281 411,-275 411,-269 411,-269 411,-257 411,-257 411,-251 417,-245 423,-245 423,-245 536,-245 536,-245 542,-245 548,-251 548,-257 548,-257 548,-269 548,-269 548,-275 542,-281 536,-281"/>
<text text-anchor="middle" x="479.5" y="-260.2" font-family="Helvetica" font-size="11.00">Custom&#45;ParseRequest</text>
</g>
<!-- n11&#45;&gt;n23 -->
<g id="edge29" class="edge">
<title>n11&#45;&gt;n23</title>
<path fill="none" stroke="#555555" d="M344.51,-263C362.55,-263 382.12,-263 400.58,-263"/>
<polygon fill="#555555" stroke="#555555" points="400.71,-266.5 410.71,-263 400.71,-259.5 400.71,-266.5"/>
</g>
<!-- n12 -->
<g id="node5" class="node">
<title>n12</title>
<path fill="#ffcdd2" stroke="black" d="M1428,-243C1428,-243 1276,-243 1276,-243 1270,-243 1264,-237 1264,-231 1264,-231 1264,-219 1264,-219 1264,-213 1270,-207 1276,-207 1276,-207 1428,-207 1428,-207 1434,-207 1440,-213 1440,-219 1440,-219 1440,-231 1440,-231 1440,-237 1434,-243 1428,-243"/>
<text text-anchor="middle" x="1352" y="-222.2" font-family="Helvetica" font-size="11.00">Call Service Exception Handler</text>
</g>
<!-- n13 -->
<g id="node6" class="node">
<title>n13</title>
<path fill="#e8f4f8" stroke="black" d="M1556,-156C1556,-156 1523,-156 1523,-156 1517,-156 1511,-150 1511,-144 1511,-144 1511,-132 1511,-132 1511,-126 1517,-120 1523,-120 1523,-120 1556,-120 1556,-120 1562,-120 1568,-126 1568,-132 1568,-132 1568,-144 1568,-144 1568,-150 1562,-156 1556,-156"/>
<text text-anchor="middle" x="1539.5" y="-135.2" font-family="Helvetica" font-size="11.00">Null&#45;1</text>
</g>
<!-- n12&#45;&gt;n13 -->
<g id="edge11" class="edge">
<title>n12&#45;&gt;n13</title>
<path fill="none" stroke="#555555" d="M1391.44,-206.97C1423.75,-191.82 1469.64,-170.29 1501.54,-155.34"/>
<polygon fill="#555555" stroke="#555555" points="1503.39,-158.33 1510.95,-150.92 1500.41,-152 1503.39,-158.33"/>
</g>
<!-- n19 -->
<g id="node12" class="node">
<title>n19</title>
<path fill="#ffccbc" stroke="black" d="M1569,-322C1569,-322 1510,-322 1510,-322 1504,-322 1498,-316 1498,-310 1498,-310 1498,-298 1498,-298 1498,-292 1504,-286 1510,-286 1510,-286 1569,-286 1569,-286 1575,-286 1581,-292 1581,-298 1581,-298 1581,-310 1581,-310 1581,-316 1575,-322 1569,-322"/>
<text text-anchor="middle" x="1539.5" y="-301.2" font-family="Helvetica" font-size="11.00">Reply Error</text>
</g>
<!-- n12&#45;&gt;n19 -->
<g id="edge16" class="edge">
<title>n12&#45;&gt;n19</title>
<path fill="none" stroke="#555555" d="M1395.56,-243.12C1423.14,-254.87 1459.19,-270.23 1488.19,-282.57"/>
<polygon fill="#555555" stroke="#555555" points="1487.16,-285.94 1497.73,-286.64 1489.9,-279.5 1487.16,-285.94"/>
</g>
<!-- n14 -->
<g id="node7" class="node">
<title>n14</title>
<path fill="#e8f4f8" stroke="black" d="M1697,-239C1697,-239 1651,-239 1651,-239 1645,-239 1639,-233 1639,-227 1639,-227 1639,-215 1639,-215 1639,-209 1645,-203 1651,-203 1651,-203 1697,-203 1697,-203 1703,-203 1709,-209 1709,-215 1709,-215 1709,-227 1709,-227 1709,-233 1703,-239 1697,-239"/>
<text text-anchor="middle" x="1674" y="-218.2" font-family="Helvetica" font-size="11.00">LogFatal</text>
</g>
<!-- n13&#45;&gt;n14 -->
<g id="edge12" class="edge">
<title>n13&#45;&gt;n14</title>
<path fill="none" stroke="#555555" d="M1568.28,-155.4C1587.75,-167.6 1614.01,-184.05 1635.37,-197.43"/>
<polygon fill="#555555" stroke="#555555" points="1633.55,-200.42 1643.88,-202.76 1637.27,-194.49 1633.55,-200.42"/>
</g>
<!-- n9 -->
<g id="node24" class="node">
<title>n9</title>
<path fill="#e8f4f8" stroke="black" d="M1893,-322C1893,-322 1779,-322 1779,-322 1773,-322 1767,-316 1767,-310 1767,-310 1767,-298 1767,-298 1767,-292 1773,-286 1779,-286 1779,-286 1893,-286 1893,-286 1899,-286 1905,-292 1905,-298 1905,-298 1905,-310 1905,-310 1905,-316 1899,-322 1893,-322"/>
<text text-anchor="middle" x="1836" y="-301.2" font-family="Helvetica" font-size="11.00">Confirm JMS Message</text>
</g>
<!-- n14&#45;&gt;n9 -->
<g id="edge24" class="edge">
<title>n14&#45;&gt;n9</title>
<path fill="none" stroke="#555555" d="M1709.32,-238.81C1733.2,-251.19 1765.25,-267.82 1791,-281.18"/>
<polygon fill="#555555" stroke="#555555" points="1789.69,-284.44 1800.18,-285.94 1792.92,-278.23 1789.69,-284.44"/>
</g>
<!-- n15 -->
<g id="node8" class="node">
<title>n15</title>
<path fill="#e8f4f8" stroke="black" d="M2022,-364C2022,-364 1975,-364 1975,-364 1969,-364 1963,-358 1963,-352 1963,-352 1963,-340 1963,-340 1963,-334 1969,-328 1975,-328 1975,-328 2022,-328 2022,-328 2028,-328 2034,-334 2034,-340 2034,-340 2034,-352 2034,-352 2034,-358 2028,-364 2022,-364"/>
<text text-anchor="middle" x="1998.5" y="-343.2" font-family="Helvetica" font-size="11.00">LogError</text>
</g>
<!-- n15&#45;&gt;n10 -->
<g id="edge30" class="edge">
<title>n15&#45;&gt;n10</title>
<path fill="none" stroke="#555555" d="M2034.09,-333.74C2049.22,-328.38 2066.97,-322.09 2082.23,-316.68"/>
<polygon fill="#555555" stroke="#555555" points="2083.59,-319.91 2091.85,-313.27 2081.25,-313.31 2083.59,-319.91"/>
</g>
<!-- n16 -->
<g id="node9" class="node">
<title>n16</title>
<path fill="#e8f4f8" stroke="black" d="M740,-283C740,-283 618,-283 618,-283 612,-283 606,-277 606,-271 606,-271 606,-259 606,-259 606,-253 612,-247 618,-247 618,-247 740,-247 740,-247 746,-247 752,-253 752,-259 752,-259 752,-271 752,-271 752,-277 746,-283 740,-283"/>
<text text-anchor="middle" x="679" y="-262.2" font-family="Helvetica" font-size="11.00">Comp Invocation Details</text>
</g>
<!-- n17 -->
<g id="node10" class="node">
<title>n17</title>
<path fill="#e8f4f8" stroke="black" d="M868,-283C868,-283 822,-283 822,-283 816,-283 810,-277 810,-271 810,-271 810,-259 810,-259 810,-253 816,-247 822,-247 822,-247 868,-247 868,-247 874,-247 880,-253 880,-259 880,-259 880,-271 880,-271 880,-277 874,-283 868,-283"/>
<text text-anchor="middle" x="845" y="-262.2" font-family="Helvetica" font-size="11.00">LogStart</text>
</g>
<!-- n16&#45;&gt;n17 -->
<g id="edge14" class="edge">
<title>n16&#45;&gt;n17</title>
<path fill="none" stroke="#555555" d="M752.41,-265C768.43,-265 784.94,-265 799.46,-265"/>
<polygon fill="#555555" stroke="#555555" points="799.65,-268.5 809.65,-265 799.65,-261.5 799.65,-268.5"/>
</g>
<!-- n18 -->
<g id="node11" class="node">
<title>n18</title>
<path fill="#e8f4f8" stroke="black" d="M1080,-283C1080,-283 950,-283 950,-283 944,-283 938,-277 938,-271 938,-271 938,-259 938,-259 938,-253 944,-247 950,-247 950,-247 1080,-247 1080,-247 1086,-247 1092,-253 1092,-259 1092,-259 1092,-271 1092,-271 1092,-277 1086,-283 1080,-283"/>
<text text-anchor="middle" x="1015" y="-262.2" font-family="Helvetica" font-size="11.00">Call Service Main Process</text>
</g>
<!-- n17&#45;&gt;n18 -->
<g id="edge19" class="edge">
<title>n17&#45;&gt;n18</title>
<path fill="none" stroke="#555555" d="M880.4,-265C894.16,-265 910.67,-265 927.33,-265"/>
<polygon fill="#555555" stroke="#555555" points="927.7,-268.5 937.7,-265 927.7,-261.5 927.7,-268.5"/>
</g>
<!-- n18&#45;&gt;n12 -->
<g id="edge15" class="edge">
<title>n18&#45;&gt;n12</title>
<path fill="none" stroke="#555555" d="M1092.02,-255.92C1139.89,-250.21 1202.13,-242.77 1253.61,-236.63"/>
<polygon fill="#555555" stroke="#555555" points="1254.24,-240.08 1263.75,-235.42 1253.41,-233.13 1254.24,-240.08"/>
</g>
<!-- n21 -->
<g id="node15" class="node">
<title>n21</title>
<path fill="#ffccbc" stroke="black" d="M1194,-366C1194,-366 1162,-366 1162,-366 1156,-366 1150,-360 1150,-354 1150,-354 1150,-342 1150,-342 1150,-336 1156,-330 1162,-330 1162,-330 1194,-330 1194,-330 1200,-330 1206,-336 1206,-342 1206,-342 1206,-354 1206,-354 1206,-360 1200,-366 1194,-366"/>
<text text-anchor="middle" x="1178" y="-345.2" font-family="Helvetica" font-size="11.00">Reply</text>
</g>
<!-- n18&#45;&gt;n21 -->
<g id="edge21" class="edge">
<title>n18&#45;&gt;n21</title>
<path fill="none" stroke="#555555" d="M1050.93,-283.01C1077.49,-296.7 1113.91,-315.48 1140.78,-329.33"/>
<polygon fill="#555555" stroke="#555555" points="1139.36,-332.53 1149.85,-334 1142.57,-326.31 1139.36,-332.53"/>
</g>
<!-- n19&#45;&gt;n14 -->
<g id="edge18" class="edge">
<title>n19&#45;&gt;n14</title>
<path fill="none" stroke="#555555" d="M1569.25,-285.99C1588.56,-273.89 1614.22,-257.82 1635.18,-244.69"/>
<polygon fill="#555555" stroke="#555555" points="1637.23,-247.54 1643.85,-239.26 1633.52,-241.6 1637.23,-247.54"/>
</g>
<!-- n20 -->
<g id="node14" class="node">
<title>n20</title>
<path fill="#e8f4f8" stroke="black" d="M1695,-405C1695,-405 1653,-405 1653,-405 1647,-405 1641,-399 1641,-393 1641,-393 1641,-381 1641,-381 1641,-375 1647,-369 1653,-369 1653,-369 1695,-369 1695,-369 1701,-369 1707,-375 1707,-381 1707,-381 1707,-393 1707,-393 1707,-399 1701,-405 1695,-405"/>
<text text-anchor="middle" x="1674" y="-384.2" font-family="Helvetica" font-size="11.00">LogEnd</text>
</g>
<!-- n19&#45;&gt;n20 -->
<g id="edge32" class="edge">
<title>n19&#45;&gt;n20</title>
<path fill="none" stroke="#555555" d="M1569.25,-322.01C1588.56,-334.11 1614.22,-350.18 1635.18,-363.31"/>
<polygon fill="#555555" stroke="#555555" points="1633.52,-366.4 1643.85,-368.74 1637.23,-360.46 1633.52,-366.4"/>
</g>
<!-- n19&#45;&gt;n9 -->
<g id="edge17" class="edge">
<title>n19&#45;&gt;n9</title>
<path fill="none" stroke="#555555" d="M1581.14,-304C1626.22,-304 1700.04,-304 1756.49,-304"/>
<polygon fill="#555555" stroke="#555555" points="1756.82,-307.5 1766.82,-304 1756.82,-300.5 1756.82,-307.5"/>
</g>
<!-- n3 -->
<g id="node18" class="node">
<title>n3</title>
<path fill="#ffccbc" stroke="black" d="M694,-75C694,-75 664,-75 664,-75 658,-75 652,-69 652,-63 652,-63 652,-51 652,-51 652,-45 658,-39 664,-39 664,-39 694,-39 694,-39 700,-39 706,-45 706,-51 706,-51 706,-63 706,-63 706,-69 700,-75 694,-75"/>
<text text-anchor="middle" x="679" y="-54.2" font-family="Helvetica" font-size="11.00">end</text>
</g>
<!-- n2&#45;&gt;n3 -->
<g id="edge2" class="edge">
<title>n2&#45;&gt;n3</title>
<path fill="none" stroke="#555555" d="M531.1,-86.75C565.71,-79.74 610.76,-70.62 641.79,-64.33"/>
<polygon fill="#555555" stroke="#555555" points="642.64,-67.73 651.75,-62.32 641.25,-60.87 642.64,-67.73"/>
</g>
<!-- n20&#45;&gt;n9 -->
<g id="edge20" class="edge">
<title>n20&#45;&gt;n9</title>
<path fill="none" stroke="#555555" d="M1707.38,-370.2C1731.47,-357.7 1764.63,-340.5 1791.11,-326.77"/>
<polygon fill="#555555" stroke="#555555" points="1792.91,-329.78 1800.17,-322.07 1789.69,-323.56 1792.91,-329.78"/>
</g>
<!-- n21&#45;&gt;n20 -->
<g id="edge22" class="edge">
<title>n21&#45;&gt;n20</title>
<path fill="none" stroke="#555555" d="M1206.26,-350.15C1288.03,-356.61 1531.66,-375.84 1630.57,-383.65"/>
<polygon fill="#555555" stroke="#555555" points="1630.54,-387.16 1640.79,-384.46 1631.09,-380.18 1630.54,-387.16"/>
</g>
<!-- n22 -->
<g id="node16" class="node">
<title>n22</title>
<path fill="#ffcdd2" stroke="black" d="M1428,-322C1428,-322 1276,-322 1276,-322 1270,-322 1264,-316 1264,-310 1264,-310 1264,-298 1264,-298 1264,-292 1270,-286 1276,-286 1276,-286 1428,-286 1428,-286 1434,-286 1440,-292 1440,-298 1440,-298 1440,-310 1440,-310 1440,-316 1434,-322 1428,-322"/>
<text text-anchor="middle" x="1352" y="-301.2" font-family="Helvetica" font-size="11.00">Call System Exception Handler</text>
</g>
<!-- n21&#45;&gt;n22 -->
<g id="edge23" class="edge">
<title>n21&#45;&gt;n22</title>
<path fill="none" stroke="#555555" d="M1206.25,-341.03C1223.74,-336.55 1247.44,-330.49 1270.59,-324.57"/>
<polygon fill="#555555" stroke="#555555" points="1271.64,-327.91 1280.46,-322.04 1269.91,-321.13 1271.64,-327.91"/>
</g>
<!-- n22&#45;&gt;n14 -->
<g id="edge26" class="edge">
<title>n22&#45;&gt;n14</title>
<path fill="none" stroke="#555555" d="M1419.35,-285.91C1444.02,-279.25 1472.27,-271.7 1498,-265 1542.43,-253.44 1593.33,-240.7 1628.74,-231.91"/>
<polygon fill="#555555" stroke="#555555" points="1629.89,-235.24 1638.75,-229.43 1628.21,-228.44 1629.89,-235.24"/>
</g>
<!-- n22&#45;&gt;n19 -->
<g id="edge25" class="edge">
<title>n22&#45;&gt;n19</title>
<path fill="none" stroke="#555555" d="M1440.05,-304C1456.26,-304 1472.7,-304 1487.39,-304"/>
<polygon fill="#555555" stroke="#555555" points="1487.74,-307.5 1497.74,-304 1487.74,-300.5 1487.74,-307.5"/>
</g>
<!-- n23&#45;&gt;n16 -->
<g id="edge27" class="edge">
<title>n23&#45;&gt;n16</title>
<path fill="none" stroke="#555555" d="M548.19,-263.69C563.4,-263.84 579.7,-264 595.43,-264.16"/>
<polygon fill="#555555" stroke="#555555" points="595.64,-267.67 605.67,-264.27 595.71,-260.67 595.64,-267.67"/>
</g>
<!-- n6 -->
<g id="node21" class="node">
<title>n6</title>
<path fill="#e8f4f8" stroke="black" d="M694,-198C694,-198 664,-198 664,-198 658,-198 652,-192 652,-186 652,-186 652,-174 652,-174 652,-168 658,-162 664,-162 664,-162 694,-162 694,-162 700,-162 706,-168 706,-174 706,-174 706,-186 706,-186 706,-192 700,-198 694,-198"/>
<text text-anchor="middle" x="679" y="-177.2" font-family="Helvetica" font-size="11.00">Null</text>
</g>
<!-- n23&#45;&gt;n6 -->
<g id="edge28" class="edge">
<title>n23&#45;&gt;n6</title>
<path fill="none" stroke="#555555" d="M523.35,-244.99C558.98,-230.02 609.07,-208.97 642.49,-194.92"/>
<polygon fill="#555555" stroke="#555555" points="644,-198.08 651.87,-190.98 641.29,-191.63 644,-198.08"/>
</g>
<!-- n5 -->
<g id="node20" class="node">
<title>n5</title>
<path fill="#e8f4f8" stroke="black" d="M524,-36C524,-36 435,-36 435,-36 429,-36 423,-30 423,-24 423,-24 423,-12 423,-12 423,-6 429,0 435,0 435,0 524,0 524,0 530,0 536,-6 536,-12 536,-12 536,-24 536,-24 536,-30 530,-36 524,-36"/>
<text text-anchor="middle" x="479.5" y="-15.2" font-family="Helvetica" font-size="11.00">OperationReply&#45;1</text>
</g>
<!-- n4&#45;&gt;n5 -->
<g id="edge6" class="edge">
<title>n4&#45;&gt;n5</title>
<path fill="none" stroke="#555555" d="M353.11,-18C372.75,-18 393.66,-18 412.65,-18"/>
<polygon fill="#555555" stroke="#555555" points="412.69,-21.5 422.69,-18 412.69,-14.5 412.69,-21.5"/>
</g>
<!-- n5&#45;&gt;n3 -->
<g id="edge5" class="edge">
<title>n5&#45;&gt;n3</title>
<path fill="none" stroke="#555555" d="M536.04,-28.97C569.92,-35.66 612.26,-44.02 641.85,-49.86"/>
<polygon fill="#555555" stroke="#555555" points="641.26,-53.31 651.74,-51.82 642.61,-46.44 641.26,-53.31"/>
</g>
<!-- n7 -->
<g id="node22" class="node">
<title>n7</title>
<path fill="#e8f4f8" stroke="black" d="M1058,-197C1058,-197 972,-197 972,-197 966,-197 960,-191 960,-185 960,-185 960,-173 960,-173 960,-167 966,-161 972,-161 972,-161 1058,-161 1058,-161 1064,-161 1070,-167 1070,-173 1070,-173 1070,-185 1070,-185 1070,-191 1064,-197 1058,-197"/>
<text text-anchor="middle" x="1015" y="-176.2" font-family="Helvetica" font-size="11.00">InvocationDetails</text>
</g>
<!-- n6&#45;&gt;n7 -->
<g id="edge7" class="edge">
<title>n6&#45;&gt;n7</title>
<path fill="none" stroke="#555555" d="M706.21,-179.92C758.2,-179.77 875.74,-179.41 949.59,-179.19"/>
<polygon fill="#555555" stroke="#555555" points="949.72,-182.69 959.71,-179.16 949.7,-175.69 949.72,-182.69"/>
</g>
<!-- n7&#45;&gt;n22 -->
<g id="edge31" class="edge">
<title>n7&#45;&gt;n22</title>
<path fill="none" stroke="#555555" d="M1064.35,-197.04C1124.85,-219.61 1228.33,-258.23 1293.02,-282.36"/>
<polygon fill="#555555" stroke="#555555" points="1292.07,-285.75 1302.66,-285.96 1294.52,-279.19 1292.07,-285.75"/>
</g>
<!-- n8 -->
<g id="node23" class="node">
<title>n8</title>
<path fill="#c8e6c9" stroke="black" d="M126,-239C126,-239 12,-239 12,-239 6,-239 0,-233 0,-227 0,-227 0,-215 0,-215 0,-209 6,-203 12,-203 12,-203 126,-203 126,-203 132,-203 138,-209 138,-215 138,-215 138,-227 138,-227 138,-233 132,-239 126,-239"/>
<text text-anchor="middle" x="69" y="-218.2" font-family="Helvetica" font-size="11.00">Receive JMS Message</text>
</g>
<!-- n8&#45;&gt;n11 -->
<g id="edge10" class="edge">
<title>n8&#45;&gt;n11</title>
<path fill="none" stroke="#555555" d="M138.05,-235.04C156.16,-238.78 175.89,-242.85 194.54,-246.7"/>
<polygon fill="#555555" stroke="#555555" points="193.98,-250.16 204.48,-248.75 195.39,-243.31 193.98,-250.16"/>
</g>
<!-- n8&#45;&gt;n6 -->
<g id="edge8" class="edge">
<title>n8&#45;&gt;n6</title>
<path fill="none" stroke="#555555" d="M138.27,-216.4C267.27,-207.7 542.77,-189.12 641.69,-182.45"/>
<polygon fill="#555555" stroke="#555555" points="642.05,-185.93 651.79,-181.77 641.57,-178.95 642.05,-185.93"/>
</g>
<!-- n9&#45;&gt;n10 -->
<g id="edge9" class="edge">
<title>n9&#45;&gt;n10</title>
<path fill="none" stroke="#555555" d="M1905.02,-304C1960.66,-304 2037.18,-304 2081.74,-304"/>
<polygon fill="#555555" stroke="#555555" points="2081.81,-307.5 2091.81,-304 2081.81,-300.5 2081.81,-307.5"/>
</g>
<!-- n9&#45;&gt;n15 -->
<g id="edge13" class="edge">
<title>n9&#45;&gt;n15</title>
<path fill="none" stroke="#555555" d="M1905.07,-321.81C1921.17,-326.03 1937.95,-330.42 1952.72,-334.28"/>
<polygon fill="#555555" stroke="#555555" points="1952.03,-337.72 1962.59,-336.86 1953.8,-330.95 1952.03,-337.72"/>
</g>
</g>
</svg>
