<?xml version="1.0" encoding="UTF-8" standalone="no"?>
<!DOCTYPE svg PUBLIC "-//W3C//DTD SVG 1.1//EN"
 "http://www.w3.org/Graphics/SVG/1.1/DTD/svg11.dtd">
<!-- Generated by graphviz version 2.44.0 (0)
 -->
<!-- Title: process Pages: 1 -->
<svg width="985pt" height="361pt"
 viewBox="0.00 0.00 985.00 361.00" xmlns="http://www.w3.org/2000/svg" xmlns:xlink="http://www.w3.org/1999/xlink">
<g id="graph0" class="graph" transform="scale(1 1) rotate(0) translate(36 325)">
<title>process</title>
<polygon fill="#ffffff" stroke="transparent" points="-36,36 -36,-325 949,-325 949,36 -36,36"/>
<!-- n0 -->
<g id="node1" class="node">
<title>n0</title>
<path fill="#c8e6c9" stroke="black" d="M42,-163C42,-163 12,-163 12,-163 6,-163 0,-157 0,-151 0,-151 0,-139 0,-139 0,-133 6,-127 12,-127 12,-127 42,-127 42,-127 48,-127 54,-133 54,-139 54,-139 54,-151 54,-151 54,-157 48,-163 42,-163"/>
<text text-anchor="middle" x="27" y="-142.2" font-family="Helvetica" font-size="11.00">start</text>
</g>
<!-- n1 -->
<g id="node2" class="node">
<title>n1</title>
<path fill="#e8f4f8" stroke="black" d="M220,-163C220,-163 124,-163 124,-163 118,-163 112,-157 112,-151 112,-151 112,-139 112,-139 112,-133 118,-127 124,-127 124,-127 220,-127 220,-127 226,-127 232,-133 232,-139 232,-139 232,-151 232,-151 232,-157 226,-163 220,-163"/>
<text text-anchor="middle" x="172" y="-142.2" font-family="Helvetica" font-size="11.00">RemoveAuditEvent</text>
</g>
<!-- n0&#45;&gt;n1 -->
<g id="edge1" class="edge">
<title>n0&#45;&gt;n1</title>
<path fill="none" stroke="#555555" d="M54.23,-145C67.58,-145 84.52,-145 101.32,-145"/>
<polygon fill="#555555" stroke="#555555" points="101.73,-148.5 111.73,-145 101.73,-141.5 101.73,-148.5"/>
</g>
<!-- n3 -->
<g id="node5" class="node">
<title>n3</title>
<path fill="#ffccbc" stroke="black" d="M901,-119C901,-119 871,-119 871,-119 865,-119 859,-113 859,-107 859,-107 859,-95 859,-95 859,-89 865,-83 871,-83 871,-83 901,-83 901,-83 907,-83 913,-89 913,-95 913,-95 913,-107 913,-107 913,-113 907,-119 901,-119"/>
<text text-anchor="middle" x="886" y="-98.2" font-family="Helvetica" font-size="11.00">end</text>
</g>
<!-- n1&#45;&gt;n3 -->
<g id="edge4" class="edge">
<title>n1&#45;&gt;n3</title>
<path fill="none" stroke="#555555" d="M232.21,-159.2C289.68,-171.72 379.55,-188 458.5,-188 458.5,-188 458.5,-188 609,-188 699.1,-188 798.41,-145.3 849.81,-119.73"/>
<polygon fill="#555555" stroke="#555555" points="851.49,-122.81 858.84,-115.17 848.33,-116.56 851.49,-122.81"/>
</g>
<!-- n5 -->
<g id="node7" class="node">
<title>n5</title>
<path fill="#e8f4f8" stroke="black" d="M360,-122C360,-122 302,-122 302,-122 296,-122 290,-116 290,-110 290,-110 290,-98 290,-98 290,-92 296,-86 302,-86 302,-86 360,-86 360,-86 366,-86 372,-92 372,-98 372,-98 372,-110 372,-110 372,-116 366,-122 360,-122"/>
<text text-anchor="middle" x="331" y="-101.2" font-family="Helvetica" font-size="11.00">Parse XML</text>
</g>
<!-- n1&#45;&gt;n5 -->
<g id="edge7" class="edge">
<title>n1&#45;&gt;n5</title>
<path fill="none" stroke="#555555" d="M232.35,-129.5C248.03,-125.41 264.78,-121.03 279.91,-117.08"/>
<polygon fill="#555555" stroke="#555555" points="280.8,-120.47 289.59,-114.55 279.03,-113.69 280.8,-120.47"/>
</g>
<!-- n10 -->
<g id="node3" class="node">
<title>n10</title>
<path fill="#e8f4f8" stroke="black" d="M203,-289C203,-289 141,-289 141,-289 135,-289 129,-283 129,-277 129,-277 129,-265 129,-265 129,-259 135,-253 141,-253 141,-253 203,-253 203,-253 209,-253 215,-259 215,-265 215,-265 215,-277 215,-277 215,-283 209,-289 203,-289"/>
<text text-anchor="middle" x="172" y="-268.2" font-family="Helvetica" font-size="11.00">GetInstance</text>
</g>
<!-- n7 -->
<g id="node9" class="node">
<title>n7</title>
<path fill="#e8f4f8" stroke="black" d="M348.5,-289C348.5,-289 313.5,-289 313.5,-289 307.5,-289 301.5,-283 301.5,-277 301.5,-277 301.5,-265 301.5,-265 301.5,-259 307.5,-253 313.5,-253 313.5,-253 348.5,-253 348.5,-253 354.5,-253 360.5,-259 360.5,-265 360.5,-265 360.5,-277 360.5,-277 360.5,-283 354.5,-289 348.5,-289"/>
<text text-anchor="middle" x="331" y="-268.2" font-family="Helvetica" font-size="11.00">Group</text>
</g>
<!-- n10&#45;&gt;n7 -->
<g id="edge11" class="edge">
<title>n10&#45;&gt;n7</title>
<path fill="none" stroke="#555555" d="M215.07,-271C238.7,-271 267.99,-271 291.09,-271"/>
<polygon fill="#555555" stroke="#555555" points="291.22,-274.5 301.22,-271 291.22,-267.5 291.22,-274.5"/>
</g>
<!-- n2 -->
<g id="node4" class="node">
<title>n2</title>
<path fill="#e8f4f8" stroke="black" d="M657,-119C657,-119 559,-119 559,-119 553,-119 547,-113 547,-107 547,-107 547,-95 547,-95 547,-89 553,-83 559,-83 559,-83 657,-83 657,-83 663,-83 669,-89 669,-95 669,-95 669,-107 669,-107 669,-113 663,-119 657,-119"/>
<text text-anchor="middle" x="608" y="-98.2" font-family="Helvetica" font-size="11.00">Publish Audit Event</text>
</g>
<!-- n2&#45;&gt;n3 -->
<g id="edge2" class="edge">
<title>n2&#45;&gt;n3</title>
<path fill="none" stroke="#555555" d="M669.23,-101C723.97,-101 802.95,-101 848.62,-101"/>
<polygon fill="#555555" stroke="#555555" points="848.66,-104.5 858.66,-101 848.66,-97.5 848.66,-104.5"/>
</g>
<!-- n4 -->
<g id="node6" class="node">
<title>n4</title>
<path fill="#ffcdd2" stroke="black" d="M789,-36C789,-36 739,-36 739,-36 733,-36 727,-30 727,-24 727,-24 727,-12 727,-12 727,-6 733,0 739,0 739,0 789,0 789,0 795,0 801,-6 801,-12 801,-12 801,-24 801,-24 801,-30 795,-36 789,-36"/>
<text text-anchor="middle" x="764" y="-15.2" font-family="Helvetica" font-size="11.00">Log Error</text>
</g>
<!-- n2&#45;&gt;n4 -->
<g id="edge6" class="edge">
<title>n2&#45;&gt;n4</title>
<path fill="none" stroke="#555555" d="M642.42,-82.99C665.24,-70.69 695.69,-54.28 720.28,-41.03"/>
<polygon fill="#555555" stroke="#555555" points="722.24,-43.94 729.38,-36.12 718.92,-37.78 722.24,-43.94"/>
</g>
<!-- n4&#45;&gt;n3 -->
<g id="edge3" class="edge">
<title>n4&#45;&gt;n3</title>
<path fill="none" stroke="#555555" d="M791.04,-36.01C808.37,-48 831.35,-63.89 850.24,-76.96"/>
<polygon fill="#555555" stroke="#555555" points="848.38,-79.93 858.6,-82.74 852.36,-74.17 848.38,-79.93"/>
</g>
<!-- n6 -->
<g id="node8" class="node">
<title>n6</title>
<path fill="#e8f4f8" stroke="black" d="M477,-120C477,-120 442,-120 442,-120 436,-120 430,-114 430,-108 430,-108 430,-96 430,-96 430,-90 436,-84 442,-84 442,-84 477,-84 477,-84 483,-84 489,-90 489,-96 489,-96 489,-108 489,-108 489,-114 483,-120 477,-120"/>
<text text-anchor="middle" x="459.5" y="-99.2" font-family="Helvetica" font-size="11.00">CorrId</text>
</g>
<!-- n5&#45;&gt;n6 -->
<g id="edge5" class="edge">
<title>n5&#45;&gt;n6</title>
<path fill="none" stroke="#555555" d="M372.03,-103.37C387.32,-103.13 404.71,-102.85 419.87,-102.61"/>
<polygon fill="#555555" stroke="#555555" points="420.01,-106.11 429.95,-102.45 419.9,-99.11 420.01,-106.11"/>
</g>
<!-- n6&#45;&gt;n2 -->
<g id="edge8" class="edge">
<title>n6&#45;&gt;n2</title>
<path fill="none" stroke="#555555" d="M489.09,-101.8C502.75,-101.71 519.75,-101.6 536.55,-101.48"/>
<polygon fill="#555555" stroke="#555555" points="536.98,-104.98 546.96,-101.41 536.94,-97.98 536.98,-104.98"/>
</g>
<!-- n8 -->
<g id="node10" class="node">
<title>n8</title>
<path fill="#ffccbc" stroke="black" d="M474.5,-289C474.5,-289 444.5,-289 444.5,-289 438.5,-289 432.5,-283 432.5,-277 432.5,-277 432.5,-265 432.5,-265 432.5,-259 438.5,-253 444.5,-253 444.5,-253 474.5,-253 474.5,-253 480.5,-253 486.5,-259 486.5,-265 486.5,-265 486.5,-277 486.5,-277 486.5,-283 480.5,-289 474.5,-289"/>
<text text-anchor="middle" x="459.5" y="-268.2" font-family="Helvetica" font-size="11.00">End</text>
</g>
<!-- n7&#45;&gt;n8 -->
<g id="edge9" class="edge">
<title>n7&#45;&gt;n8</title>
<path fill="none" stroke="#555555" d="M360.7,-271C378.99,-271 402.84,-271 422.41,-271"/>
<polygon fill="#555555" stroke="#555555" points="422.49,-274.5 432.49,-271 422.49,-267.5 422.49,-274.5"/>
</g>
<!-- n9 -->
<g id="node11" class="node">
<title>n9</title>
<path fill="#c8e6c9" stroke="black" d="M42,-289C42,-289 12,-289 12,-289 6,-289 0,-283 0,-277 0,-277 0,-265 0,-265 0,-259 6,-253 12,-253 12,-253 42,-253 42,-253 48,-253 54,-259 54,-265 54,-265 54,-277 54,-277 54,-283 48,-289 42,-289"/>
<text text-anchor="middle" x="27" y="-268.2" font-family="Helvetica" font-size="11.00">Start</text>
</g>
<!-- n9&#45;&gt;n10 -->
<g id="edge10" class="edge">
<title>n9&#45;&gt;n10</title>
<path fill="none" stroke="#555555" d="M54.23,-271C72.26,-271 96.81,-271 118.75,-271"/>
<polygon fill="#555555" stroke="#555555" points="118.94,-274.5 128.94,-271 118.94,-267.5 118.94,-274.5"/>
</g>
</g>
</svg>
